<svg width="16" height="20" viewBox="0 0 16 20" fill="none" xmlns="http://www.w3.org/2000/svg">
<path fill-rule="evenodd" clip-rule="evenodd" d="M8.25219 0.850922C6.21306 0.853478 4.25814 1.66443 2.81596 3.10601C1.37378 4.54759 0.562005 6.50217 0.558594 8.54129C0.558594 11.484 2.41834 14.1656 4.19105 16.1575C5.96377 18.1494 7.73649 19.4774 7.73649 19.4774C7.88433 19.5882 8.06416 19.6482 8.24897 19.6482C8.43377 19.6482 8.6136 19.5882 8.76144 19.4774C8.76144 19.4774 10.5342 18.1494 12.3069 16.1575C14.0796 14.1656 15.9393 11.484 15.9393 8.54129C15.9376 6.5022 15.1268 4.54712 13.685 3.10526C12.2431 1.66341 10.2913 0.852629 8.25219 0.850922ZM8.24897 5.12478C9.15508 5.12478 10.0241 5.48474 10.6648 6.12546C11.3055 6.76618 11.6655 7.63518 11.6655 8.54129C11.6655 9.44741 11.3055 10.3164 10.6648 10.9571C10.0241 11.5979 9.15508 11.9578 8.24897 11.9578C7.34285 11.9578 6.47385 11.5979 5.83313 10.9571C5.19241 10.3164 4.83245 9.44741 4.83245 8.54129C4.83245 7.63518 5.19241 6.76618 5.83313 6.12546C6.47385 5.48474 7.34285 5.12478 8.24897 5.12478Z" fill="#C4592E"/>
</svg>
