<svg width="21" height="16" viewBox="0 0 21 16" fill="none" xmlns="http://www.w3.org/2000/svg">
<path d="M9.23234 8.12842C9.76676 8.48471 10.7045 8.48475 11.239 8.12838L11.2393 8.12822L20.3481 2.05564C20.0493 1.19155 19.2281 0.569061 18.2638 0.569061H2.20744C1.24305 0.569061 0.421857 1.19155 0.123047 2.05564L9.23206 8.12826L9.23234 8.12842Z" fill="#C4592E"/>
<path d="M11.9042 9.12605L11.9039 9.12625C11.4362 9.43809 10.8357 9.59403 10.2354 9.59403C9.63495 9.59403 9.03469 9.43813 8.56687 9.12621L8.56667 9.12609L0.00195312 3.41632V13.6927C0.00195312 14.9086 0.991204 15.8978 2.20719 15.8978H18.2636C19.4796 15.8978 20.4688 14.9086 20.4688 13.6927V3.41632L11.9042 9.12605Z" fill="#C4592E"/>
</svg>
