<svg width="32" height="36" viewBox="0 0 32 36" fill="none" xmlns="http://www.w3.org/2000/svg">
<path d="M16.0753 0.499551L3.26634 3.13765C2.41705 3.31257 1.67203 3.8177 1.19517 4.54192C0.718321 5.26615 0.548695 6.15014 0.723612 6.99943L5.99982 32.6174C6.17473 33.4667 6.67986 34.2117 7.40409 34.6886C8.12831 35.1654 9.0123 35.3351 9.86159 35.1602L29.0751 31.203C29.9244 31.0281 30.6694 30.523 31.1463 29.7987C31.6231 29.0745 31.7927 28.1905 31.6178 27.3412L27.6607 8.12773L16.0753 0.499551ZM13.5464 24.7041C13.1473 25.2703 12.46 25.6288 11.6098 25.804C11.4454 25.8397 11.2786 25.864 11.1108 25.8767L11.581 28.1599L10.1496 28.4547L8.85166 22.1527C9.47712 21.9237 10.1211 21.7443 10.7764 21.6194C11.6682 21.4357 12.3372 21.4749 12.835 21.7279C13.3083 21.9675 13.6928 22.4408 13.8214 23.0652C13.9491 23.6932 13.8501 24.266 13.5464 24.7041ZM20.0887 25.6182C19.5313 26.3155 18.563 26.792 17.3125 27.0496C16.5631 27.2039 16.0233 27.265 15.6531 27.2912L14.3615 21.0196C14.9882 20.7921 15.6316 20.6133 16.2859 20.4847C17.4979 20.2351 18.3305 20.2906 19.041 20.6283C19.807 20.9846 20.3852 21.685 20.6177 22.8138C20.8693 24.0354 20.5964 24.9712 20.0887 25.6182ZM25.0898 19.9566L22.6369 20.4618L22.9373 21.9205L25.2301 21.4482L25.4721 22.6235L23.1793 23.0957L23.7083 25.6639L22.2576 25.9626L20.9422 19.5758L24.8458 18.7718L25.0898 19.9566ZM18.3837 11.7074L16.7826 12.0372L15.1337 4.03156L24.7882 10.3884L18.3837 11.7074Z" fill="#C4592E"/>
</svg>
