  0
SECTION
  2
HEADER
  9
$ACADVER
  1
AC1032
  9
$ACADMAINTVER
 90
      155
  9
$DWGCODEPAGE
  3
ANSI_1251
  9
$LASTSAVEDBY
  1
ALEXANDER
  9
$REQUIREDVERSIONS
160
                 0
  9
$INSBASE
 10
0.0
 20
0.0
 30
0.0
  9
$EXTMIN
 10
1391339.698945382
 20
354857.4607999773
 30
-0.0015258207003583
  9
$EXTMAX
 10
1399991.111756123
 20
361055.1944155641
 30
0.0000000349246037
  9
$LIMMIN
 10
0.0
 20
0.0
  9
$LIMMAX
 10
12.0
 20
9.0
  9
$ORTHOMODE
 70
     0
  9
$REGENMODE
 70
     1
  9
$FILLMODE
 70
     1
  9
$QTEXTMODE
 70
     0
  9
$MIRRTEXT
 70
     0
  9
$LTSCALE
 40
1.0
  9
$ATTMODE
 70
     1
  9
$TEXTSIZE
 40
0.0
  9
$TRACEWID
 40
0.05
  9
$TEXTSTYLE
  7
Standard
  9
$CLAYER
  8
Ранее утвержденные зоны охраняемоего природного ландшафта
  9
$CELTYPE
  6
ByLayer
  9
$CECOLOR
 62
   256
  9
$CELTSCALE
 40
1.0
  9
$DISPSILH
 70
     0
  9
$DIMSCALE
 40
1.0
  9
$DIMASZ
 40
0.18
  9
$DIMEXO
 40
0.0625
  9
$DIMDLI
 40
0.38
  9
$DIMRND
 40
0.0
  9
$DIMDLE
 40
0.0
  9
$DIMEXE
 40
0.18
  9
$DIMTP
 40
0.0
  9
$DIMTM
 40
0.0
  9
$DIMTXT
 40
0.18
  9
$DIMCEN
 40
0.09
  9
$DIMTSZ
 40
0.0
  9
$DIMTOL
 70
     0
  9
$DIMLIM
 70
     0
  9
$DIMTIH
 70
     0
  9
$DIMTOH
 70
     0
  9
$DIMSE1
 70
     0
  9
$DIMSE2
 70
     0
  9
$DIMTAD
 70
     0
  9
$DIMZIN
 70
     0
  9
$DIMBLK
  1

  9
$DIMASO
 70
     1
  9
$DIMSHO
 70
     1
  9
$DIMPOST
  1

  9
$DIMAPOST
  1

  9
$DIMALT
 70
     0
  9
$DIMALTD
 70
     2
  9
$DIMALTF
 40
25.4
  9
$DIMLFAC
 40
1.0
  9
$DIMTOFL
 70
     0
  9
$DIMTVP
 40
0.0
  9
$DIMTIX
 70
     0
  9
$DIMSOXD
 70
     0
  9
$DIMSAH
 70
     0
  9
$DIMBLK1
  1

  9
$DIMBLK2
  1

  9
$DIMSTYLE
  2
Standard
  9
$DIMCLRD
 70
     0
  9
$DIMCLRE
 70
     0
  9
$DIMCLRT
 70
     0
  9
$DIMTFAC
 40
1.0
  9
$DIMGAP
 40
0.09
  9
$DIMJUST
 70
     0
  9
$DIMSD1
 70
     0
  9
$DIMSD2
 70
     0
  9
$DIMTOLJ
 70
     1
  9
$DIMTZIN
 70
     0
  9
$DIMALTZ
 70
     0
  9
$DIMALTTZ
 70
     0
  9
$DIMUPT
 70
     0
  9
$DIMDEC
 70
     4
  9
$DIMTDEC
 70
     4
  9
$DIMALTU
 70
     2
  9
$DIMALTTD
 70
     2
  9
$DIMTXSTY
  7
Standard
  9
$DIMAUNIT
 70
     0
  9
$DIMADEC
 70
     0
  9
$DIMALTRND
 40
0.0
  9
$DIMAZIN
 70
     0
  9
$DIMDSEP
 70
    46
  9
$DIMATFIT
 70
     3
  9
$DIMFRAC
 70
     0
  9
$DIMLDRBLK
  1

  9
$DIMLUNIT
 70
     2
  9
$DIMLWD
 70
    -2
  9
$DIMLWE
 70
    -2
  9
$DIMTMOVE
 70
     0
  9
$DIMFXL
 40
1.0
  9
$DIMFXLON
 70
     0
  9
$DIMJOGANG
 40
0.7853981633974483
  9
$DIMTFILL
 70
     0
  9
$DIMTFILLCLR
 70
     0
  9
$DIMARCSYM
 70
     0
  9
$DIMLTYPE
  6
ByBlock
  9
$DIMLTEX1
  6
ByBlock
  9
$DIMLTEX2
  6
ByBlock
  9
$DIMTXTDIRECTION
 70
     0
  9
$LUNITS
 70
     2
  9
$LUPREC
 70
     4
  9
$SKETCHINC
 40
0.1
  9
$FILLETRAD
 40
0.0
  9
$AUNITS
 70
     0
  9
$AUPREC
 70
     0
  9
$MENU
  1
.
  9
$ELEVATION
 40
0.0
  9
$PELEVATION
 40
0.0
  9
$THICKNESS
 40
0.0
  9
$LIMCHECK
 70
     0
  9
$CHAMFERA
 40
0.0
  9
$CHAMFERB
 40
0.0
  9
$CHAMFERC
 40
0.0
  9
$CHAMFERD
 40
0.0
  9
$SKPOLY
 70
     0
  9
$TDCREATE
 40
2460902.525590278
  9
$TDUCREATE
 40
2460902.108927419
  9
$TDUPDATE
 40
2460903.004942130
  9
$TDUUPDATE
 40
2460902.588275463
  9
$TDINDWG
 40
0.0922483912
  9
$TDUSRTIMER
 40
0.0922483912
  9
$USRTIMER
 70
     1
  9
$ANGBASE
 50
0.0
  9
$ANGDIR
 70
     0
  9
$PDMODE
 70
    33
  9
$PDSIZE
 40
0.75
  9
$PLINEWID
 40
0.0
  9
$SPLFRAME
 70
     0
  9
$SPLINETYPE
 70
     6
  9
$SPLINESEGS
 70
     8
  9
$HANDSEED
  5
9AD
  9
$SURFTAB1
 70
     6
  9
$SURFTAB2
 70
     6
  9
$SURFTYPE
 70
     6
  9
$SURFU
 70
     6
  9
$SURFV
 70
     6
  9
$UCSBASE
  2

  9
$UCSNAME
  2

  9
$UCSORG
 10
0.0
 20
0.0
 30
0.0
  9
$UCSXDIR
 10
1.0
 20
0.0
 30
0.0
  9
$UCSYDIR
 10
0.0
 20
1.0
 30
0.0
  9
$UCSORTHOREF
  2

  9
$UCSORTHOVIEW
 70
     0
  9
$UCSORGTOP
 10
0.0
 20
0.0
 30
0.0
  9
$UCSORGBOTTOM
 10
0.0
 20
0.0
 30
0.0
  9
$UCSORGLEFT
 10
0.0
 20
0.0
 30
0.0
  9
$UCSORGRIGHT
 10
0.0
 20
0.0
 30
0.0
  9
$UCSORGFRONT
 10
0.0
 20
0.0
 30
0.0
  9
$UCSORGBACK
 10
0.0
 20
0.0
 30
0.0
  9
$PUCSBASE
  2

  9
$PUCSNAME
  2

  9
$PUCSORG
 10
0.0
 20
0.0
 30
0.0
  9
$PUCSXDIR
 10
1.0
 20
0.0
 30
0.0
  9
$PUCSYDIR
 10
0.0
 20
1.0
 30
0.0
  9
$PUCSORTHOREF
  2

  9
$PUCSORTHOVIEW
 70
     0
  9
$PUCSORGTOP
 10
0.0
 20
0.0
 30
0.0
  9
$PUCSORGBOTTOM
 10
0.0
 20
0.0
 30
0.0
  9
$PUCSORGLEFT
 10
0.0
 20
0.0
 30
0.0
  9
$PUCSORGRIGHT
 10
0.0
 20
0.0
 30
0.0
  9
$PUCSORGFRONT
 10
0.0
 20
0.0
 30
0.0
  9
$PUCSORGBACK
 10
0.0
 20
0.0
 30
0.0
  9
$USERI1
 70
     0
  9
$USERI2
 70
     0
  9
$USERI3
 70
     0
  9
$USERI4
 70
     0
  9
$USERI5
 70
     0
  9
$USERR1
 40
0.0
  9
$USERR2
 40
0.0
  9
$USERR3
 40
0.0
  9
$USERR4
 40
0.0
  9
$USERR5
 40
0.0
  9
$WORLDVIEW
 70
     1
  9
$SHADEDGE
 70
     3
  9
$SHADEDIF
 70
    70
  9
$TILEMODE
 70
     1
  9
$MAXACTVP
 70
    64
  9
$PINSBASE
 10
0.0
 20
0.0
 30
0.0
  9
$PLIMCHECK
 70
     0
  9
$PEXTMIN
 10
1.000000000000000E+20
 20
1.000000000000000E+20
 30
1.000000000000000E+20
  9
$PEXTMAX
 10
-1.000000000000000E+20
 20
-1.000000000000000E+20
 30
-1.000000000000000E+20
  9
$PLIMMIN
 10
0.0
 20
0.0
  9
$PLIMMAX
 10
12.0
 20
9.0
  9
$UNITMODE
 70
     0
  9
$VISRETAIN
 70
     1
  9
$PLINEGEN
 70
     0
  9
$PSLTSCALE
 70
     1
  9
$TREEDEPTH
 70
  3020
  9
$CMLSTYLE
  2
Standard
  9
$CMLJUST
 70
     0
  9
$CMLSCALE
 40
20.0
  9
$PROXYGRAPHICS
 70
     1
  9
$MEASUREMENT
 70
     0
  9
$CELWEIGHT
370
    -1
  9
$ENDCAPS
280
     0
  9
$JOINSTYLE
280
     0
  9
$LWDISPLAY
290
     0
  9
$INSUNITS
 70
     0
  9
$HYPERLINKBASE
  1

  9
$STYLESHEET
  1

  9
$XEDIT
290
     1
  9
$CEPSNTYPE
380
     0
  9
$PSTYLEMODE
290
     1
  9
$FINGERPRINTGUID
  2
{3EEA27AE-FC72-4A47-BAAA-489EA8A3C03F}
  9
$VERSIONGUID
  2
{D4D1E817-029C-3A48-9C42-478807E95378}
  9
$EXTNAMES
290
     1
  9
$PSVPSCALE
 40
0.0
  9
$OLESTARTUP
290
     0
  9
$SORTENTS
280
   127
  9
$INDEXCTL
280
     0
  9
$HIDETEXT
280
     1
  9
$XCLIPFRAME
280
     2
  9
$HALOGAP
280
     0
  9
$OBSCOLOR
 70
   257
  9
$OBSLTYPE
280
     0
  9
$INTERSECTIONDISPLAY
280
     0
  9
$INTERSECTIONCOLOR
 70
   257
  9
$DIMASSOC
280
     2
  9
$PROJECTNAME
  1

  9
$CAMERADISPLAY
290
     0
  9
$LENSLENGTH
 40
50.0
  9
$CAMERAHEIGHT
 40
0.0
  9
$STEPSPERSEC
 40
2.0
  9
$STEPSIZE
 40
6.0
  9
$3DDWFPREC
 40
2.0
  9
$PSOLWIDTH
 40
0.25
  9
$PSOLHEIGHT
 40
4.0
  9
$LOFTANG1
 40
1.570796326794896
  9
$LOFTANG2
 40
1.570796326794896
  9
$LOFTMAG1
 40
0.0
  9
$LOFTMAG2
 40
0.0
  9
$LOFTPARAM
 70
     7
  9
$LOFTNORMALS
280
     1
  9
$LATITUDE
 40
37.795
  9
$LONGITUDE
 40
-122.394
  9
$NORTHDIRECTION
 40
0.0
  9
$TIMEZONE
 70
 -8000
  9
$LIGHTGLYPHDISPLAY
280
     1
  9
$TILEMODELIGHTSYNCH
280
     1
  9
$CMATERIAL
347
8F0
  9
$SOLIDHIST
280
     0
  9
$SHOWHIST
280
     1
  9
$DWFFRAME
280
     2
  9
$DGNFRAME
280
     0
  9
$REALWORLDSCALE
290
     1
  9
$INTERFERECOLOR
 62
     1
  9
$INTERFEREOBJVS
345
912
  9
$INTERFEREVPVS
346
90F
  9
$CSHADOW
280
     0
  9
$SHADOWPLANELOCATION
 40
0.0
  0
ENDSEC
  0
SECTION
  2
CLASSES
  0
CLASS
  1
RASTERVARIABLES
  2
AcDbRasterVariables
  3
ISM
 90
        0
 91
        1
280
     0
281
     0
  0
CLASS
  1
ACDBDICTIONARYWDFLT
  2
AcDbDictionaryWithDefault
  3
ObjectDBX Classes
 90
        0
 91
        1
280
     0
281
     0
  0
CLASS
  1
MATERIAL
  2
AcDbMaterial
  3
ObjectDBX Classes
 90
     1153
 91
        3
280
     0
281
     0
  0
CLASS
  1
VISUALSTYLE
  2
AcDbVisualStyle
  3
ObjectDBX Classes
 90
     4095
 91
       24
280
     0
281
     0
  0
CLASS
  1
TABLESTYLE
  2
AcDbTableStyle
  3
ObjectDBX Classes
 90
     4095
 91
        1
280
     0
281
     0
  0
CLASS
  1
SCALE
  2
AcDbScale
  3
ObjectDBX Classes
 90
     1153
 91
       17
280
     0
281
     0
  0
CLASS
  1
MLEADERSTYLE
  2
AcDbMLeaderStyle
  3
ACDB_MLEADERSTYLE_CLASS
 90
     4095
 91
        1
280
     0
281
     0
  0
CLASS
  1
ACDBSECTIONVIEWSTYLE
  2
AcDbSectionViewStyle
  3
ObjectDBX Classes
 90
     1025
 91
        1
280
     0
281
     0
  0
CLASS
  1
ACDBDETAILVIEWSTYLE
  2
AcDbDetailViewStyle
  3
ObjectDBX Classes
 90
     1025
 91
        1
280
     0
281
     0
  0
CLASS
  1
DICTIONARYVAR
  2
AcDbDictionaryVar
  3
ObjectDBX Classes
 90
        0
 91
        5
280
     0
281
     0
  0
CLASS
  1
SORTENTSTABLE
  2
AcDbSortentsTable
  3
ObjectDBX Classes
 90
        0
 91
        0
280
     0
281
     0
  0
CLASS
  1
CELLSTYLEMAP
  2
AcDbCellStyleMap
  3
ObjectDBX Classes
 90
     1152
 91
        1
280
     0
281
     0
  0
ENDSEC
  0
SECTION
  2
TABLES
  0
TABLE
  2
VPORT
  5
1
330
0
100
AcDbSymbolTable
 70
     1
  0
VPORT
  5
2
330
1
100
AcDbSymbolTableRecord
100
AcDbViewportTableRecord
  2
*Active
 70
     0
 10
0.0
 20
0.0
 11
1.0
 21
1.0
 12
13783.86332487881
 22
16120.17882562976
 13
0.0
 23
0.0
 14
0.5
 24
0.5
 15
10.0
 25
10.0
 16
0.0
 26
0.0
 36
1.0
 17
1385264.28830591
 27
339116.894073843
 37
0.0
 40
15942.32985982019
 41
1.565580618212197
 42
50.0
 43
0.0
 44
0.0
 50
0.0
 51
0.0
 71
     0
 72
   100
 73
     1
 74
     1
 75
     0
 76
     1
 77
     0
 78
     0
281
     0
 65
     1
110
0.0
120
0.0
130
0.0
111
1.0
121
0.0
131
0.0
112
0.0
122
1.0
132
0.0
 79
     0
146
0.0
348
90E
 60
     3
 61
     5
292
     1
282
     1
141
0.0
142
0.0
 63
   250
421
  3355443
1001
ACAD_NAV_VCDISPLAY
1070
     3
  0
ENDTAB
  0
TABLE
  2
LTYPE
  5
7
330
0
100
AcDbSymbolTable
 70
     1
  0
LTYPE
  5
17
330
7
100
AcDbSymbolTableRecord
100
AcDbLinetypeTableRecord
  2
ByBlock
 70
     0
  3

 72
    65
 73
     0
 40
0.0
  0
LTYPE
  5
16
330
7
100
AcDbSymbolTableRecord
100
AcDbLinetypeTableRecord
  2
ByLayer
 70
     0
  3

 72
    65
 73
     0
 40
0.0
  0
LTYPE
  5
15
330
7
100
AcDbSymbolTableRecord
100
AcDbLinetypeTableRecord
  2
Continuous
 70
     0
  3
Solid line
 72
    65
 73
     0
 40
0.0
  0
ENDTAB
  0
TABLE
  2
LAYER
  5
5
102
{ACAD_XDICTIONARY
360
6
102
}
330
0
100
AcDbSymbolTable
 70
    16
  0
LAYER
  5
14
330
5
100
AcDbSymbolTableRecord
100
AcDbLayerTableRecord
  2
0
 70
     0
 62
     7
  6
Continuous
370
    -3
390
8EE
347
900
348
0
  0
LAYER
  5
22
330
5
100
AcDbSymbolTableRecord
100
AcDbLayerTableRecord
  2
Контура исторический центр для сайта
 70
     0
 62
     7
  6
Continuous
370
    -3
390
8EE
347
900
348
0
  0
LAYER
  5
956
330
5
100
AcDbSymbolTableRecord
100
AcDbLayerTableRecord
  2
Р-1
 70
     0
 62
    40
  6
Continuous
370
    -3
390
8EE
347
900
348
0
1001
AcAecLayerStandard
1000

1000

1001
AcCmTransparency
1071
        0
  0
LAYER
  5
95F
330
5
100
AcDbSymbolTableRecord
100
AcDbLayerTableRecord
  2
Р-2
 70
     0
 62
   140
  6
Continuous
370
    -3
390
8EE
347
900
348
0
1001
AcAecLayerStandard
1000

1000

1001
AcCmTransparency
1071
        0
  0
LAYER
  5
960
330
5
100
AcDbSymbolTableRecord
100
AcDbLayerTableRecord
  2
РЦИ
 70
     0
 62
    30
  6
Continuous
370
    -3
390
8EE
347
900
348
0
1001
AcAecLayerStandard
1000

1000

1001
AcCmTransparency
1071
        0
  0
LAYER
  5
961
330
5
100
AcDbSymbolTableRecord
100
AcDbLayerTableRecord
  2
Р-4
 70
     0
 62
   190
  6
Continuous
370
    -3
390
8EE
347
900
348
0
1001
AcAecLayerStandard
1000

1000

1001
AcCmTransparency
1071
        0
  0
LAYER
  5
962
330
5
100
AcDbSymbolTableRecord
100
AcDbLayerTableRecord
  2
РОКН
 70
     0
 62
    12
  6
Continuous
370
    -3
390
8EE
347
900
348
0
1001
AcAecLayerStandard
1000

1000

1001
AcCmTransparency
1071
        0
  0
LAYER
  5
963
330
5
100
AcDbSymbolTableRecord
100
AcDbLayerTableRecord
  2
РИП
 70
     0
 62
    42
  6
Continuous
370
    -3
390
8EE
347
900
348
0
1001
AcAecLayerStandard
1000

1000

1001
AcCmTransparency
1071
        0
  0
LAYER
  5
964
330
5
100
AcDbSymbolTableRecord
100
AcDbLayerTableRecord
  2
РПЛ
 70
     0
 62
    70
  6
Continuous
370
    -3
390
8EE
347
900
348
0
1001
AcAecLayerStandard
1000

1000

1001
AcCmTransparency
1071
        0
  0
LAYER
  5
965
330
5
100
AcDbSymbolTableRecord
100
AcDbLayerTableRecord
  2
РГЛ
 70
     0
 62
    74
  6
Continuous
370
    -3
390
8EE
347
900
348
0
1001
AcAecLayerStandard
1000

1000

1001
AcCmTransparency
1071
        0
  0
LAYER
  5
966
330
5
100
AcDbSymbolTableRecord
100
AcDbLayerTableRecord
  2
Р-3
 70
     0
 62
   142
  6
Continuous
370
    -3
390
8EE
347
900
348
0
1001
AcAecLayerStandard
1000

1000

1001
AcCmTransparency
1071
        0
  0
LAYER
  5
967
330
5
100
AcDbSymbolTableRecord
100
AcDbLayerTableRecord
  2
РТ
 70
     0
 62
     8
  6
Continuous
370
    -3
390
8EE
347
900
348
0
1001
AcAecLayerStandard
1000

1000

1001
AcCmTransparency
1071
        0
  0
LAYER
  5
975
330
5
100
AcDbSymbolTableRecord
100
AcDbLayerTableRecord
  2
Ранее утвержденные зоны охраняемоего природного ландшафта
 70
     0
 62
   105
  6
Continuous
370
    -3
390
8EE
347
900
348
0
1001
AcAecLayerStandard
1000

1000

1001
AcCmTransparency
1071
        0
  0
LAYER
  5
992
330
5
100
AcDbSymbolTableRecord
100
AcDbLayerTableRecord
  2
д
 70
     0
 62
     7
  6
Continuous
370
    -3
390
8EE
347
900
348
0
1001
AcAecLayerStandard
1000

1000

1001
AcCmTransparency
1071
        0
  0
LAYER
  5
993
330
5
100
AcDbSymbolTableRecord
100
AcDbLayerTableRecord
  2
Ранее утвержденные зоны регулирования застройки
 70
     0
 62
    52
  6
Continuous
370
    -3
390
8EE
347
900
348
0
1001
AcAecLayerStandard
1000

1000

1001
AcCmTransparency
1071
        0
  0
LAYER
  5
994
330
5
100
AcDbSymbolTableRecord
100
AcDbLayerTableRecord
  2
Ранее утвержденные охранные зоны
 70
     0
 62
     7
  6
Continuous
370
    -3
390
8EE
347
900
348
0
1001
AcAecLayerStandard
1000

1000

1001
AcCmTransparency
1071
        0
  0
ENDTAB
  0
TABLE
  2
STYLE
  5
8
330
0
100
AcDbSymbolTable
 70
     1
  0
STYLE
  5
18
330
8
100
AcDbSymbolTableRecord
100
AcDbTextStyleTableRecord
  2
Standard
 70
     0
 40
0.0
 41
1.0
 50
0.0
 71
     0
 42
0.0
  3
simplex.shx
  4

  0
ENDTAB
  0
TABLE
  2
VIEW
  5
3
330
0
100
AcDbSymbolTable
 70
     0
  0
ENDTAB
  0
TABLE
  2
UCS
  5
C
330
0
100
AcDbSymbolTable
 70
     0
  0
ENDTAB
  0
TABLE
  2
APPID
  5
4
330
0
100
AcDbSymbolTable
 70
    10
  0
APPID
  5
19
330
4
100
AcDbSymbolTableRecord
100
AcDbRegAppTableRecord
  2
ACAD
 70
     0
  0
APPID
  5
8E3
330
4
100
AcDbSymbolTableRecord
100
AcDbRegAppTableRecord
  2
AcCmTransparency
 70
     0
  0
APPID
  5
8E4
330
4
100
AcDbSymbolTableRecord
100
AcDbRegAppTableRecord
  2
GradientColor1ACI
 70
     0
  0
APPID
  5
8E5
330
4
100
AcDbSymbolTableRecord
100
AcDbRegAppTableRecord
  2
GradientColor2ACI
 70
     0
  0
APPID
  5
93E
330
4
100
AcDbSymbolTableRecord
100
AcDbRegAppTableRecord
  2
ACAD_NAV_VCDISPLAY
 70
     0
  0
APPID
  5
957
330
4
100
AcDbSymbolTableRecord
100
AcDbRegAppTableRecord
  2
AcAecLayerStandard
 70
     0
  0
APPID
  5
958
330
4
100
AcDbSymbolTableRecord
100
AcDbRegAppTableRecord
  2
ACAD_EXEMPT_FROM_CAD_STANDARDS
 70
     0
  0
APPID
  5
977
330
4
100
AcDbSymbolTableRecord
100
AcDbRegAppTableRecord
  2
AcadAnnotative
 70
     0
  0
APPID
  5
978
330
4
100
AcDbSymbolTableRecord
100
AcDbRegAppTableRecord
  2
ACAD_DSTYLE_DIMJAG
 70
     0
  0
APPID
  5
979
330
4
100
AcDbSymbolTableRecord
100
AcDbRegAppTableRecord
  2
ACAD_DSTYLE_DIMTALN
 70
     0
  0
ENDTAB
  0
TABLE
  2
DIMSTYLE
  5
A
330
0
100
AcDbSymbolTable
 70
     2
100
AcDbDimStyleTable
 71
     1
340
1A
  0
DIMSTYLE
105
1A
330
A
100
AcDbSymbolTableRecord
100
AcDbDimStyleTableRecord
  2
Standard
 70
     0
 73
     0
 74
     0
340
18
345
17
346
17
347
17
  0
DIMSTYLE
105
976
330
A
100
AcDbSymbolTableRecord
100
AcDbDimStyleTableRecord
  2
Аннотативный
 70
     0
 40
0.0
340
18
1001
AcadAnnotative
1000
AnnotativeData
1002
{
1070
     1
1070
     1
1002
}
1001
ACAD_DSTYLE_DIMJAG
1070
   388
1040
1.5
1001
ACAD_DSTYLE_DIMTALN
1070
   392
1070
     0
  0
ENDTAB
  0
TABLE
  2
BLOCK_RECORD
  5
D
330
0
100
AcDbSymbolTable
 70
     0
  0
BLOCK_RECORD
  5
1C
330
D
100
AcDbSymbolTableRecord
100
AcDbBlockTableRecord
  2
*Model_Space
340
20
 70
     0
280
     1
281
     0
  0
BLOCK_RECORD
  5
8DD
330
D
100
AcDbSymbolTableRecord
100
AcDbBlockTableRecord
  2
*Paper_Space
340
8E2
 70
     0
280
     1
281
     0
  0
ENDTAB
  0
ENDSEC
  0
SECTION
  2
BLOCKS
  0
BLOCK
  5
1E
330
1C
100
AcDbEntity
  8
0
100
AcDbBlockBegin
  2
*Model_Space
 70
     0
 10
0.0
 20
0.0
 30
0.0
  3
*Model_Space
  1

  0
ENDBLK
  5
1D
330
1C
100
AcDbEntity
  8
0
100
AcDbBlockEnd
  0
BLOCK
  5
8DF
330
8DD
100
AcDbEntity
 67
     1
  8
0
100
AcDbBlockBegin
  2
*Paper_Space
 70
     0
 10
0.0
 20
0.0
 30
0.0
  3
*Paper_Space
  1

  0
ENDBLK
  5
8DE
330
8DD
100
AcDbEntity
 67
     1
  8
0
100
AcDbBlockEnd
  0
ENDSEC
  0
SECTION
  2
ENTITIES
  0
LWPOLYLINE
  5
FF
330
1C
100
AcDbEntity
  8
Р-1
370
    20
100
AcDbPolyline
 90
       14
 70
     0
 43
0.0
 10
1393231.56619902
 20
357861.567537672
 10
1393179.00918106
 20
357890.8570626579
 10
1393190.59918255
 20
357908.1770572829
 10
1393192.18751527
 20
357910.112672584
 10
1393179.62925131
 20
357919.596392048
 10
1393175.95925468
 20
357933.356390391
 10
1393163.85925894
 20
357944.3163909051
 10
1393141.31410145
 20
357905.347411976
 10
1393103.60499101
 20
357840.1677795711
 10
1393139.38857902
 20
357823.8634421
 10
1393158.84699194
 20
357855.019571136
 10
1393169.20923929
 20
357849.936406153
 10
1393203.65244604
 20
357830.227813843
 10
1393231.56619902
 20
357861.567537672
  0
LWPOLYLINE
  5
100
330
1C
100
AcDbEntity
  8
Р-1
370
    20
100
AcDbPolyline
 90
        5
 70
     0
 43
0.0
 10
1393083.71922643
 20
357710.3164483271
 10
1393081.87664059
 20
357688.3447882801
 10
1393118.22850391
 20
357673.3010360421
 10
1393132.3892145
 20
357693.0164405721
 10
1393083.71922629
 20
357710.3164466421
  0
LWPOLYLINE
  5
104
330
1C
100
AcDbEntity
  8
Р-1
370
    20
100
AcDbPolyline
 90
       14
 70
     0
 43
0.0
 10
1392184.20241033
 20
356127.7553788591
 10
1392220.52038316
 20
356125.9026850529
 10
1392269.23938473
 20
356100.4453676061
 10
1392286.85829365
 20
356126.9282894261
 10
1392299.41904598
 20
356118.756877898
 10
1392304.10853302
 20
356132.6461252701
 10
1392299.22905056
 20
356141.696873973
 10
1392313.92905225
 20
356162.956867388
 10
1392304.43226578
 20
356169.232101354
 10
1392299.56905686
 20
356173.746868372
 10
1392286.90906061
 20
356181.5568695321
 10
1392192.43861394
 20
356227.806212679
 10
1392182.32271943
 20
356163.315906433
 10
1392184.20241033
 20
356127.7553788591
  0
LWPOLYLINE
  5
105
330
1C
100
AcDbEntity
  8
Р-1
370
    20
100
AcDbPolyline
 90
       28
 70
     0
 43
0.0
 10
1393290.28783685
 20
357205.992446989
 10
1393280.84909283
 20
357209.096494714
 10
1393255.04910009
 20
357223.2464973871
 10
1393245.68909921
 20
357210.596501427
 10
1393169.69909364
 20
357116.4165327811
 10
1393142.53909151
 20
357082.0665441161
 10
1393139.71909081
 20
357076.0665457051
 10
1393148.25908804
 20
357069.5165451461
 10
1393177.87845839
 20
357058.5266795761
 10
1393172.04563062
 20
357041.031585653
 10
1393197.76118242
 20
357031.918792089
 10
1393211.09620021
 20
357071.9096640821
 10
1393170.43960538
 20
357087.107046847
 10
1393253.94044335
 20
357189.969644714
 10
1393263.19572866
 20
357186.287227938
 10
1393253.02747223
 20
357158.198166528
 10
1393289.07289008
 20
357138.0370564061
 10
1393268.3702328
 20
357090.2103399561
 10
1393274.28646014
 20
357087.5234378571
 10
1393309.7345479
 20
357072.3084672771
 10
1393335.14230123
 20
357133.621768018
 10
1393353.25306601
 20
357185.6480758461
 10
1393389.53906948
 20
357185.996477119
 10
1393414.79198621
 20
357186.559301876
 10
1393411.22906941
 20
357204.546469616
 10
1393393.77907249
 20
357204.8764730251
 10
1393349.3440977
 20
357205.5364387321
 10
1393290.28783685
 20
357205.992446989
  0
LWPOLYLINE
  5
106
330
1C
100
AcDbEntity
  8
Р-1
370
    20
100
AcDbPolyline
 90
        7
 70
     0
 43
0.0
 10
1393366.60525706
 20
357391.5777682679
 10
1393414.27658229
 20
357447.03139852
 10
1393405.73911982
 20
357453.7764276361
 10
1393367.25898341
 20
357479.115571265
 10
1393329.07913019
 20
357439.3264453571
 10
1393318.69868789
 20
357428.074853938
 10
1393366.60525706
 20
357391.5777682679
  0
LWPOLYLINE
  5
107
330
1C
100
AcDbEntity
  8
Р-1
370
    20
100
AcDbPolyline
 90
        7
 70
     0
 43
0.0
 10
1393356.73909827
 20
357302.516463509
 10
1393365.08212676
 20
357310.933404912
 10
1393372.74909896
 20
357319.9664573121
 10
1393377.93895031
 20
357329.4593681441
 10
1393349.25846994
 20
357354.460469721
 10
1393327.75910862
 20
357329.526464583
 10
1393356.73909827
 20
357302.516463509
  0
LWPOLYLINE
  5
108
330
1C
100
AcDbEntity
  8
Р-1
370
    20
100
AcDbPolyline
 90
       14
 70
     0
 43
0.0
 10
1393297.01910985
 20
357308.91647425
 10
1393321.72388379
 20
357337.1427726441
 10
1393268.48644296
 20
357376.717758063
 10
1393237.40912748
 20
357345.846479699
 10
1393246.76912393
 20
357336.136479522
 10
1393253.8091211
 20
357328.0164795261
 10
1393262.75342577
 20
357320.987901489
 10
1393263.92911782
 20
357320.276478854
 10
1393268.35911821
 20
357326.076476975
 10
1393270.4191175
 20
357324.31647687
 10
1393270.75911752
 20
357324.7064767421
 10
1393274.16911635
 20
357321.7764765671
 10
1393277.48911655
 20
357325.646475241
 10
1393297.01910985
 20
357308.91647425
  0
LWPOLYLINE
  5
109
330
1C
100
AcDbEntity
  8
Р-1
370
    20
100
AcDbPolyline
 90
       11
 70
     0
 43
0.0
 10
1393903.96828402
 20
358347.069707139
 10
1393912.16218232
 20
358355.024940696
 10
1393944.5907863
 20
358316.7677536741
 10
1393966.77919749
 20
358333.4861642621
 10
1393961.38919961
 20
358339.486164298
 10
1393982.61679253
 20
358355.5373007871
 10
1393953.44028375
 20
358383.786857727
 10
1393958.73441934
 20
358390.5971137961
 10
1393930.65427511
 20
358420.923299822
 10
1393880.17630884
 20
358372.401888373
 10
1393903.96828402
 20
358347.069707139
  0
LWPOLYLINE
  5
10A
330
1C
100
AcDbEntity
  8
Р-1
370
    20
100
AcDbPolyline
 90
       20
 70
     0
 43
0.0
 10
1394407.29927469
 20
359105.885943339
 10
1394433.01926909
 20
359100.03593924
 10
1394443.40926682
 20
359097.6659375921
 10
1394455.19926511
 20
359099.2959349651
 10
1394483.28925897
 20
359092.835930504
 10
1394486.53925954
 20
359098.5059288801
 10
1394498.66926612
 20
359142.245918921
 10
1394499.46926676
 20
359146.135918089
 10
1394500.09596275
 20
359148.5758524591
 10
1394481.86927117
 20
359153.0659203851
 10
1394477.50605348
 20
359154.27258714
 10
1394476.60927152
 20
359150.245921911
 10
1394447.14927806
 20
359157.555926493
 10
1394447.73927875
 20
359161.5659256911
 10
1394450.33928032
 20
359171.7159234161
 10
1394445.42928237
 20
359177.765923349
 10
1394447.11459688
 20
359184.007137563
 10
1394427.48928768
 20
359188.895924988
 10
1394418.63951003
 20
359152.1165159561
 10
1394407.29927469
 20
359105.885943339
  0
LWPOLYLINE
  5
115
330
1C
100
AcDbEntity
  8
Р-1
370
    20
100
AcDbPolyline
 90
       25
 70
     0
 43
0.0
 10
1394623.54661418
 20
359634.5379458329
 10
1394634.96851947
 20
359688.298574979
 10
1394626.9193538
 20
359695.625797827
 10
1394617.14860083
 20
359713.481068226
 10
1394613.62227165
 20
359723.675914578
 10
1394617.88936144
 20
359726.225794333
 10
1394620.71936147
 20
359728.835793318
 10
1394642.35935658
 20
359723.085790015
 10
1394649.11929599
 20
359747.016438217
 10
1394651.43929962
 20
359767.206434297
 10
1394608.18930908
 20
359777.3864415
 10
1394603.54930697
 20
359762.4264449911
 10
1394593.00930937
 20
359765.716446578
 10
1394589.73931018
 20
359766.7264471121
 10
1394587.20937268
 20
359756.2157952421
 10
1394575.20931173
 20
359762.13645091
 10
1394567.61170365
 20
359719.804440398
 10
1394579.6748215
 20
359707.3602405921
 10
1394599.48935686
 20
359687.155804734
 10
1394604.04935589
 20
359686.2358039971
 10
1394597.02934916
 20
359646.215812306
 10
1394597.05759534
 20
359641.923960089
 10
1394601.53934753
 20
359641.9658121361
 10
1394616.74934359
 20
359635.3458102571
 10
1394623.54661418
 20
359634.5379458329
  0
LWPOLYLINE
  5
117
330
1C
100
AcDbEntity
  8
Р-1
370
    20
100
AcDbPolyline
 90
       32
 70
     0
 43
0.0
 10
1394478.25921018
 20
358842.5959747411
 10
1394506.66921253
 20
358879.225962783
 10
1394510.70944303
 20
358878.366287533
 10
1394516.38854557
 20
358875.7930988111
 10
1394539.21679025
 20
358902.916343378
 10
1394558.62921352
 20
358929.365943794
 10
1394551.25921583
 20
358934.625944355
 10
1394557.46921725
 20
358947.195940946
 10
1394565.77921927
 20
358964.5459362971
 10
1394576.31922605
 20
359007.93592671
 10
1394582.78923008
 20
359033.885920938
 10
1394577.06923135
 20
359035.295921835
 10
1394584.36923682
 20
359069.195914519
 10
1394580.14923775
 20
359070.215915188
 10
1394583.26923985
 20
359083.5059122661
 10
1394584.8496366
 20
359086.9063619911
 10
1394592.21924485
 20
359116.505904793
 10
1394595.23924703
 20
359130.1159018421
 10
1394600.47094791
 20
359150.132909828
 10
1394638.8865758
 20
359140.641607113
 10
1394646.45924729
 20
359176.015883734
 10
1394620.46998974
 20
359183.113672496
 10
1394587.72722672
 20
359190.8215570251
 10
1394564.38714384
 20
359196.315981848
 10
1394560.31843297
 20
359181.1873511691
 10
1394557.24926115
 20
359168.175902808
 10
1394548.34426678
 20
359131.684936399
 10
1394541.17902692
 20
359128.670299063
 10
1394518.86938264
 20
359134.330960063
 10
1394452.33922216
 20
358880.415973354
 10
1394441.3423154
 20
358857.132991265
 10
1394478.25921018
 20
358842.5959747411
  0
LWPOLYLINE
  5
11A
330
1C
100
AcDbEntity
  8
Р-1
370
    20
100
AcDbPolyline
 90
       14
 70
     0
 43
0.0
 10
1394439.4516249
 20
358914.0002389971
 10
1394459.25084106
 20
358991.855859931
 10
1394446.35924586
 20
358994.59595481
 10
1394422.71756833
 20
358992.142151919
 10
1394414.90925111
 20
358993.735961209
 10
1394433.89929078
 20
359080.616061978
 10
1394398.12585957
 20
359089.275003318
 10
1394394.21864438
 20
359069.022356412
 10
1394371.57937461
 20
358960.255469951
 10
1394342.81493491
 20
358966.5566236761
 10
1394323.34132385
 20
358887.7493109321
 10
1394410.95922673
 20
358867.4559838071
 10
1394422.98541008
 20
358918.075471244
 10
1394439.4516249
 20
358914.0002389971
  0
LWPOLYLINE
  5
11C
330
1C
100
AcDbEntity
  8
Р-1
370
    20
100
AcDbPolyline
 90
        5
 70
     0
 43
0.0
 10
1394367.9546305
 20
359075.01425684
 10
1394394.21864438
 20
359069.022356412
 10
1394398.12585957
 20
359089.275003318
 10
1394373.55672777
 20
359094.2225227971
 10
1394367.9546305
 20
359075.01425684
  0
LWPOLYLINE
  5
120
330
1C
100
AcDbEntity
  8
Р-1
370
    20
100
AcDbPolyline
 90
       17
 70
     0
 43
0.0
 10
1394640.72903668
 20
359008.7969653551
 10
1394626.77920291
 20
358935.2359292571
 10
1394625.92187075
 20
358930.1072955441
 10
1394639.87039099
 20
358925.836696068
 10
1394646.56918955
 20
358885.155933975
 10
1394658.84919162
 20
358906.2959278861
 10
1394674.77919387
 20
358931.475920374
 10
1394696.4092003
 20
358982.725907222
 10
1394713.75920268
 20
359009.775899104
 10
1394711.49920485
 20
359018.7658979929
 10
1394723.63920709
 20
359040.705891756
 10
1394740.39921205
 20
359080.215881642
 10
1394749.32160955
 20
359100.0962659681
 10
1394695.0842822
 20
359110.3848729671
 10
1394684.5347265
 20
359054.386193124
 10
1394670.73419133
 20
359002.98460072
 10
1394640.72903668
 20
359008.7969653551
  0
LWPOLYLINE
  5
122
330
1C
100
AcDbEntity
  8
Р-1
370
    20
100
AcDbPolyline
 90
       20
 70
     0
 43
0.0
 10
1393982.61679253
 20
358355.5373007871
 10
1393999.81919872
 20
358368.4661516621
 10
1394013.67920078
 20
358390.9261450251
 10
1394005.74920467
 20
358403.6161444041
 10
1394018.46920426
 20
358412.626140326
 10
1394018.67920504
 20
358416.726139573
 10
1394025.56920482
 20
358421.5861373721
 10
1394057.99920281
 20
358439.6561278121
 10
1394039.9292115
 20
358467.726126546
 10
1394030.92921192
 20
358462.076129314
 10
1393983.40921383
 20
358430.336144224
 10
1393980.04921435
 20
358429.9961449551
 10
1393966.65921502
 20
358421.7161490371
 10
1393958.38921788
 20
358428.936149434
 10
1393952.3792179
 20
358423.8161515151
 10
1393944.65922133
 20
358434.366151219
 10
1393930.65427511
 20
358420.923299822
 10
1393958.73441934
 20
358390.5971137961
 10
1393953.44028375
 20
358383.786857727
 10
1393982.61679253
 20
358355.5373007871
  0
LWPOLYLINE
  5
125
330
1C
100
AcDbEntity
  8
Р-1
370
    20
100
AcDbPolyline
 90
       15
 70
     0
 43
0.0
 10
1393063.92906166
 20
356863.1965975291
 10
1393046.29353779
 20
356836.330656803
 10
1393044.56905649
 20
356820.256608788
 10
1393102.22904273
 20
356801.1266006581
 10
1393123.29904603
 20
356836.1065904301
 10
1393173.01903428
 20
356820.1665833121
 10
1393201.66903729
 20
356860.2665706911
 10
1393217.00904462
 20
356910.55655896
 10
1393221.27623961
 20
356913.400013217
 10
1393240.79675951
 20
356969.1047980771
 10
1393202.98165495
 20
356981.472727448
 10
1393181.18905078
 20
356910.4565660871
 10
1393152.63583231
 20
356837.8046984129
 10
1393084.97905527
 20
356849.336595751
 10
1393063.92906166
 20
356863.1965975291
  0
LWPOLYLINE
  5
127
330
1C
100
AcDbEntity
  8
Р-1
370
    20
100
AcDbPolyline
 90
       64
 70
     0
 43
0.0
 10
1392319.90900658
 20
355937.9969050621
 10
1392295.3390074
 20
355920.756912914
 10
1392267.63900851
 20
355902.2669216061
 10
1392211.43901215
 20
355871.6669380511
 10
1392184.5590148
 20
355861.636945116
 10
1392148.62901965
 20
355854.7869534351
 10
1392109.02902711
 20
355857.946960745
 10
1392094.90903101
 20
355865.296962285
 10
1392078.09903632
 20
355877.446963518
 10
1392071.39903889
 20
355884.5469636251
 10
1392066.22904107
 20
355890.986963534
 10
1392062.78904273
 20
355896.386963288
 10
1392055.84904734
 20
355913.5769616921
 10
1392013.65395889
 20
355902.310938718
 10
1391923.95295919
 20
355859.761006049
 10
1391789.4790759
 20
355890.49702099
 10
1391777.11909248
 20
355892.8470220001
 10
1391793.12909163
 20
355908.277016369
 10
1391813.04909245
 20
355929.737008704
 10
1391832.45909003
 20
355934.297002455
 10
1391842.29908829
 20
355934.5970004461
 10
1391854.03908623
 20
355918.277001458
 10
1391864.75012224
 20
355914.594799669
 10
1391878.63907694
 20
355908.5269977361
 10
1391896.19095698
 20
355902.012298182
 10
1391901.48001352
 20
355900.324646044
 10
1391902.5790296
 20
355890.9669233111
 10
1391917.66906547
 20
355884.726994105
 10
1391945.32906252
 20
355893.886987031
 10
1391960.26906154
 20
355901.9669826671
 10
1392000.0190584
 20
355920.746971538
 10
1392016.11905804
 20
355932.95696623
 10
1392018.11905761
 20
355932.546965908
 10
1392034.84191783
 20
355936.5938948071
 10
1392051.70613702
 20
355941.9159082839
 10
1392051.35378232
 20
355957.0779538201
 10
1392066.25905825
 20
355977.266948633
 10
1392085.35905521
 20
355978.9669445371
 10
1392118.29905351
 20
355999.076934523
 10
1392131.58275828
 20
356007.344286872
 10
1392147.29905225
 20
356017.9369255071
 10
1392181.11348982
 20
356014.7999362621
 10
1392191.44843178
 20
355997.391957759
 10
1392093.00502246
 20
355937.25201253
 10
1392100.05432799
 20
355928.253157354
 10
1392120.04879905
 20
355909.945866385
 10
1392126.14894289
 20
355920.594785014
 10
1392133.50908849
 20
355916.462238635
 10
1392168.01191273
 20
355914.682685899
 10
1392166.46860632
 20
355892.764282728
 10
1392167.70902387
 20
355892.676943099
 10
1392171.88902325
 20
355893.176942182
 10
1392178.02893257
 20
355895.476776384
 10
1392172.27546908
 20
355907.7594807471
 10
1392174.02061495
 20
355914.410940645
 10
1392230.97930893
 20
355947.844756231
 10
1392239.37902265
 20
355948.926919159
 10
1392247.71901827
 20
355934.1269200571
 10
1392265.90901725
 20
355944.7669146071
 10
1392254.12222154
 20
355968.3023216801
 10
1392268.79902315
 20
355977.046908456
 10
1392280.64902275
 20
355985.2869046851
 10
1392293.88901585
 20
355962.096906063
 10
1392319.90900658
 20
355937.9969050621
  0
LWPOLYLINE
  5
160
330
1C
100
AcDbEntity
  8
Р-1
370
    20
100
AcDbPolyline
 90
       18
 70
     0
 43
0.0
 10
1395075.31295437
 20
360303.320011014
 10
1395074.00939624
 20
360298.575604863
 10
1395071.19589855
 20
360287.1159897551
 10
1395069.02939308
 20
360278.275609363
 10
1395089.90938838
 20
360272.805606158
 10
1395101.3393858
 20
360269.735604421
 10
1395098.76938443
 20
360260.59560651
 10
1395127.07937807
 20
360253.2056021701
 10
1395129.89854886
 20
360264.032408844
 10
1395132.45937916
 20
360263.3655993421
 10
1395133.0257719
 20
360265.779851477
 10
1395138.13937839
 20
360264.435598034
 10
1395141.19110313
 20
360276.7907900251
 10
1395142.39938105
 20
360281.545594226
 10
1395137.89938205
 20
360282.685594929
 10
1395138.809382689
 20
360286.6855940551
 10
1395121.28783069
 20
360291.387913017
 10
1395075.31295437
 20
360303.320011014
  0
LWPOLYLINE
  5
169
330
1C
100
AcDbEntity
  8
Р-1
370
    20
100
AcDbPolyline
 90
        9
 70
     0
 43
0.0
 10
1395074.71810771
 20
359976.961846285
 10
1395099.97931863
 20
359970.697557846
 10
1395111.46623197
 20
360017.07140724
 10
1395108.3181607
 20
360017.836180689
 10
1395085.32369844
 20
360023.746851301
 10
1395079.61295768
 20
360001.0270508921
 10
1395080.06933554
 20
359998.0256556011
 10
1395075.57933287
 20
359980.665659487
 10
1395074.71810771
 20
359976.961846285
  0
LWPOLYLINE
  5
16A
330
1C
100
AcDbEntity
  8
Р-1
370
    20
100
AcDbPolyline
 90
       27
 70
     0
 43
0.0
 10
1395118.24448554
 20
360045.132537185
 10
1395129.53197255
 20
360099.9322705911
 10
1395084.24012415
 20
360111.0626040511
 10
1395090.89409819
 20
360140.112446271
 10
1395040.55936878
 20
360131.0956404461
 10
1395040.01936843
 20
360128.845640943
 10
1395015.66937158
 20
360123.5156466961
 10
1395019.82936357
 20
360086.785652223
 10
1395008.02936526
 20
360085.035654864
 10
1395006.92936376
 20
360076.565656548
 10
1395011.03935882
 20
360055.185659427
 10
1395005.32935421
 20
360027.045665427
 10
1395022.28935066
 20
360023.905662603
 10
1395030.48934888
 20
360022.055661288
 10
1395028.84934783
 20
360015.3656627801
 10
1395041.04934522
 20
360012.815660789
 10
1395043.7693474
 20
360026.15565795
 10
1395060.80934358
 20
360021.72565533
 10
1395064.94934542
 20
360034.645652273
 10
1395065.90999195
 20
360038.796541183
 10
1395080.25934295
 20
360035.4756490951
 10
1395081.49632701
 20
360041.3071397271
 10
1395095.1893427
 20
360047.23564409
 10
1395098.03934242
 20
360048.305643337
 10
1395101.11934173
 20
360047.5156428629
 10
1395115.18933897
 20
360045.8556403579
 10
1395118.24448554
 20
360045.132537185
  0
LWPOLYLINE
  5
16B
330
1C
100
AcDbEntity
  8
Р-1
370
    20
100
AcDbPolyline
 90
        9
 70
     0
 43
0.0
 10
1395210.49938181
 20
360344.655569801
 10
1395222.9367447
 20
360396.269289218
 10
1395276.85937801
 20
360383.2755499471
 10
1395289.97937519
 20
360380.445547829
 10
1395336.12419145
 20
360367.9884634511
 10
1395324.11060416
 20
360322.349920618
 10
1395256.49937292
 20
360339.875561493
 10
1395240.35937537
 20
360338.165564993
 10
1395210.49938181
 20
360344.655569801
  0
LWPOLYLINE
  5
16C
330
1C
100
AcDbEntity
  8
Р-1
370
    20
100
AcDbPolyline
 90
        6
 70
     0
 43
0.0
 10
1395342.82637418
 20
360383.929003639
 10
1395393.16488921
 20
360370.6681637271
 10
1395398.65935856
 20
360391.275524379
 10
1395384.92936164
 20
360394.8155264971
 10
1395348.1666458
 20
360404.9664443051
 10
1395342.82637418
 20
360383.929003639
  0
LWPOLYLINE
  5
16D
330
1C
100
AcDbEntity
  8
Р-1
370
    20
100
AcDbPolyline
 90
        5
 70
     0
 43
0.0
 10
1395020.30941201
 20
360287.284219879
 10
1395027.02792997
 20
360315.38429967
 10
1394997.00639177
 20
360323.19282439
 10
1394989.84168072
 20
360295.037324371
 10
1395020.30941201
 20
360287.284219879
  0
LWPOLYLINE
  5
16E
330
1C
100
AcDbEntity
  8
Р-1
370
    20
100
AcDbPolyline
 90
        6
 70
     0
 43
0.0
 10
1394992.82252612
 20
360208.1673894601
 10
1395059.55620323
 20
360190.8739381329
 10
1395061.22937829
 20
360197.0356249501
 10
1395065.32739884
 20
360212.447902069
 10
1394998.47359016
 20
360230.2726043421
 10
1394992.82252612
 20
360208.1673894601
  0
LWPOLYLINE
  5
16F
330
1C
100
AcDbEntity
  8
Р-1
370
    20
100
AcDbPolyline
 90
       14
 70
     0
 43
0.0
 10
1395281.15939102
 20
360452.575537118
 10
1395283.01939273
 20
360462.7755349921
 10
1395281.29939415
 20
360468.395534358
 10
1395293.16940141
 20
360515.325523896
 10
1395286.38940293
 20
360517.115524924
 10
1395280.09940436
 20
360518.835525875
 10
1395277.35940502
 20
360519.7555262601
 10
1395273.34940598
 20
360521.105526829
 10
1395271.95940632
 20
360521.575527023
 10
1395259.79940903
 20
360524.6655289029
 10
1395243.95049099
 20
360471.020004131
 10
1395271.79537414
 20
360463.420539083
 10
1395270.57939339
 20
360455.305538746
 10
1395281.15939102
 20
360452.575537118
  0
LWPOLYLINE
  5
170
330
1C
100
AcDbEntity
  8
Р-1
370
    20
100
AcDbPolyline
 90
       25
 70
     0
 43
0.0
 10
1395274.67459453
 20
360137.1915938579
 10
1395317.20932011
 20
360126.66558628
 10
1395379.24150678
 20
360111.053791097
 10
1395386.50877983
 20
360137.870502029
 10
1395389.53930969
 20
360137.10557011
 10
1395394.4593086
 20
360135.9455693351
 10
1395395.37930858
 20
360136.615569041
 10
1395410.02647164
 20
360132.867042999
 10
1395416.31617684
 20
360138.64423949
 10
1395448.69421713
 20
360131.1911063961
 10
1395439.5028078
 20
360096.3448987271
 10
1395484.91120323
 20
360084.473564955
 10
1395495.73928905
 20
360125.56555102
 10
1395509.52408468
 20
360195.129799868
 10
1395433.66931708
 20
360212.775548275
 10
1395432.63772614
 20
360208.7258762021
 10
1395429.00931402
 20
360193.305552569
 10
1395420.27037616
 20
360155.446529499
 10
1395372.49780911
 20
360166.754169702
 10
1395370.73931762
 20
360160.6855697771
 10
1395308.0593312
 20
360174.565579824
 10
1395296.40933176
 20
360167.275583395
 10
1395295.3693311
 20
360163.025584334
 10
1395279.79724979
 20
360158.707411625
 10
1395274.67459453
 20
360137.1915938579
  0
LWPOLYLINE
  5
171
330
1C
100
AcDbEntity
  8
Р-1
370
    20
100
AcDbPolyline
 90
        7
 70
     0
 43
0.0
 10
1395409.9793222
 20
360217.9455520901
 10
1395405.80228538
 20
360219.8989430921
 10
1395259.26432443
 20
360257.171084849
 10
1395253.10874426
 20
360235.903201615
 10
1395286.29341013
 20
360227.087259809
 10
1395405.35931917
 20
360198.6355563401
 10
1395409.9793222
 20
360217.9455520901
  0
LWPOLYLINE
  5
172
330
1C
100
AcDbEntity
  8
Р-1
370
    20
100
AcDbPolyline
 90
        9
 70
     0
 43
0.0
 10
1394881.58535122
 20
360370.448340303
 10
1394887.37433105
 20
360394.226904498
 10
1394884.49938404
 20
360394.946277709
 10
1394848.15939208
 20
360403.996283639
 10
1394847.42939152
 20
360400.64628433
 10
1394841.14939294
 20
360401.986285442
 10
1394836.6693906
 20
360386.2462891191
 10
1394835.94945422
 20
360383.475637459
 10
1394881.58535122
 20
360370.448340303
  0
LWPOLYLINE
  5
173
330
1C
100
AcDbEntity
  8
Р-1
370
    20
100
AcDbPolyline
 90
       26
 70
     0
 43
0.0
 10
1394801.78941229
 20
360142.4756858871
 10
1394736.07943795
 20
360214.585686479
 10
1394709.80945018
 20
360253.375684991
 10
1394711.73945098
 20
360259.05568363
 10
1394752.65094277
 20
360249.54177787
 10
1394750.57944064
 20
360240.755679075
 10
1394776.76942933
 20
360206.605679773
 10
1394786.42942938
 20
360215.2756763621
 10
1394794.57942736
 20
360212.1256752911
 10
1394795.19651487
 20
360214.402549271
 10
1394807.4794245
 20
360208.9856732689
 10
1394823.08942065
 20
360203.13567118
 10
1394831.0694205
 20
360209.3856685121
 10
1394832.80942021
 20
360209.40566817
 10
1394844.36941758
 20
360206.225666425
 10
1394852.28941521
 20
360201.15566572
 10
1394862.2794129
 20
360198.265664234
 10
1394858.81114262
 20
360183.53719204
 10
1394862.73940981
 20
360183.035666776
 10
1394859.56940846
 20
360173.505669058
 10
1394852.95940478
 20
360149.235674563
 10
1394842.2994046
 20
360139.015678445
 10
1394840.69940387
 20
360133.925679645
 10
1394824.45019031
 20
360140.152757933
 10
1394811.50594096
 20
360130.347309389
 10
1394801.78941229
 20
360142.4756858871
  0
LWPOLYLINE
  5
174
330
1C
100
AcDbEntity
  8
Р-1
370
    20
100
AcDbPolyline
 90
       10
 70
     0
 43
0.0
 10
1395935.5377056
 20
359753.380817363
 10
1395938.10914097
 20
359764.585525573
 10
1395944.45914608
 20
359795.815518913
 10
1395944.93914672
 20
359799.455518189
 10
1395942.84239098
 20
359803.588366154
 10
1395919.59459272
 20
359808.814684039
 10
1395916.58153974
 20
359796.255293925
 10
1395909.63440248
 20
359797.702727294
 10
1395901.81598811
 20
359761.26452284
 10
1395935.5377056
 20
359753.380817363
  0
LWPOLYLINE
  5
177
330
1C
100
AcDbEntity
  8
Р-1
370
    20
100
AcDbPolyline
 90
        8
 70
     0
 43
0.0
 10
1396016.03909995
 20
359625.735534102
 10
1395998.36911325
 20
359677.365528679
 10
1395987.59911756
 20
359689.655528695
 10
1395986.51911763
 20
359689.04552902
 10
1395973.36911749
 20
359676.905533725
 10
1395955.5771375
 20
359664.7924485
 10
1395971.49910479
 20
359611.315545438
 10
1396016.03909995
 20
359625.735534102
  0
LWPOLYLINE
  5
17A
330
1C
100
AcDbEntity
  8
Р-1
370
    20
100
AcDbPolyline
 90
       25
 70
     0
 43
0.0
 10
1397560.46904018
 20
359590.696152945
 10
1397617.09505407
 20
359603.015771013
 10
1397622.17192474
 20
359626.4460243071
 10
1397620.41170608
 20
359641.1507306
 10
1397633.03901032
 20
359649.6565334891
 10
1397634.5328845
 20
359660.389806479
 10
1397642.67774211
 20
359700.003530298
 10
1397575.14166075
 20
359700.357872008
 10
1397555.13885134
 20
359712.92521344
 10
1397524.33885128
 20
359685.805224245
 10
1397502.54246647
 20
359649.1348146101
 10
1397508.30884613
 20
359645.915234322
 10
1397517.08884238
 20
359634.635234533
 10
1397520.81883988
 20
359625.315235398
 10
1397511.69883889
 20
359612.4052394411
 10
1397494.97884108
 20
359608.86524337
 10
1397479.71884352
 20
359607.8752465711
 10
1397457.04545627
 20
359607.561928509
 10
1397455.79884281
 20
359583.475255541
 10
1397454.18127033
 20
359575.487802385
 10
1397473.07455525
 20
359578.933893606
 10
1397498.56882869
 20
359549.585252904
 10
1397550.0588178
 20
359539.515244426
 10
1397557.6988237
 20
359575.905236615
 10
1397560.46904018
 20
359590.696152945
  0
LWPOLYLINE
  5
17B
330
1C
100
AcDbEntity
  8
Р-1
370
    20
100
AcDbPolyline
 90
        9
 70
     0
 43
0.0
 10
1397575.67288532
 20
359533.121291282
 10
1397596.69880738
 20
359527.8352371901
 10
1397602.51880637
 20
359527.615236068
 10
1397607.53672874
 20
359528.447569156
 10
1397617.43825033
 20
359571.35999842
 10
1397597.99484958
 20
359575.5756231201
 10
1397590.89291644
 20
359567.926091393
 10
1397581.16883548
 20
359554.982103698
 10
1397575.67288532
 20
359533.121291282
  0
LWPOLYLINE
  5
17C
330
1C
100
AcDbEntity
  8
Р-1
370
    20
100
AcDbPolyline
 90
       14
 70
     0
 43
0.0
 10
1397398.16885213
 20
359580.235267539
 10
1397414.8574654
 20
359576.064546926
 10
1397420.70717903
 20
359575.783031037
 10
1397420.92884749
 20
359576.685263634
 10
1397421.64884772
 20
359578.485263185
 10
1397423.38884961
 20
359589.505260938
 10
1397423.5388502
 20
359592.6252603601
 10
1397424.84885125
 20
359599.095258988
 10
1397425.66885192
 20
359603.1552581241
 10
1397411.7388552
 20
359607.535260123
 10
1397408.10885531
 20
359604.9652612911
 10
1397405.72885456
 20
359599.045262792
 10
1397401.0388534
 20
359589.15526543
 10
1397398.16885213
 20
359580.235267539
  0
LWPOLYLINE
  5
17D
330
1C
100
AcDbEntity
  8
Р-1
370
    20
100
AcDbPolyline
 90
       12
 70
     0
 43
0.0
 10
1397316.23887122
 20
359605.1052795171
 10
1397321.91886977
 20
359602.765278783
 10
1397340.15471406
 20
359596.039063998
 10
1397351.9842663
 20
359631.016972873
 10
1397326.6488761
 20
359638.7652716251
 10
1397325.20887531
 20
359633.555272811
 10
1397322.09887405
 20
359624.4752749981
 10
1397321.08887364
 20
359621.5452757011
 10
1397320.50887348
 20
359620.215276049
 10
1397319.96887324
 20
359618.585276441
 10
1397316.62887152
 20
359606.95527911
 10
1397316.23887122
 20
359605.1052795171
  0
LWPOLYLINE
  5
17E
330
1C
100
AcDbEntity
  8
Р-1
370
    20
100
AcDbPolyline
 90
       18
 70
     0
 43
0.0
 10
1397316.23887122
 20
359605.1052795171
 10
1397316.62887152
 20
359606.95527911
 10
1397319.96887324
 20
359618.585276441
 10
1397320.50887348
 20
359620.215276049
 10
1397321.08887364
 20
359621.5452757011
 10
1397322.09887405
 20
359624.4752749981
 10
1397325.20887531
 20
359633.555272811
 10
1397326.6488761
 20
359638.7652716251
 10
1397321.85888204
 20
359664.505268124
 10
1397319.03888151
 20
359659.415269569
 10
1397312.75888257
 20
359659.245270846
 10
1397300.14888369
 20
359653.925274265
 10
1397260.69889291
 20
359666.03528
 10
1397258.38889129
 20
359655.855282228
 10
1397249.45888823
 20
359632.6852880001
 10
1397290.90889208
 20
359616.6752770621
 10
1397292.93887696
 20
359613.725282653
 10
1397316.23887122
 20
359605.1052795171
  0
LWPOLYLINE
  5
180
330
1C
100
AcDbEntity
  8
Р-1
370
    20
100
AcDbPolyline
 90
       14
 70
     0
 43
0.0
 10
1399009.49853469
 20
359383.754981584
 10
1399014.04314767
 20
359345.484644224
 10
1399014.9351706
 20
359338.3580073671
 10
1399141.09850479
 20
359347.674961691
 10
1399152.28850307
 20
359348.7649592829
 10
1399160.06850217
 20
359350.974957351
 10
1399163.01850397
 20
359362.684954743
 10
1399161.17850917
 20
359387.2949508551
 10
1399160.6285115
 20
359398.504949025
 10
1399119.02851879
 20
359398.9949572011
 10
1399112.38851963
 20
359397.444958786
 10
1399100.78852145
 20
359396.5749612451
 10
1399100.57852157
 20
359396.9549612211
 10
1399009.49853469
 20
359383.754981584
  0
LWPOLYLINE
  5
182
330
1C
100
AcDbEntity
  8
Р-1
370
    20
100
AcDbPolyline
 90
       18
 70
     0
 43
0.0
 10
1397048.99605286
 20
359697.2496329061
 10
1397079.74254615
 20
359687.075374588
 10
1397080.58892876
 20
359689.855311652
 10
1397089.62893189
 20
359713.5353057561
 10
1397088.89893207
 20
359713.815305863
 10
1397093.06893352
 20
359724.725303146
 10
1397099.19390003
 20
359743.340261169
 10
1397097.89389133
 20
359743.860535141
 10
1397078.67894108
 20
359750.275301587
 10
1397072.09007594
 20
359752.300620498
 10
1397069.16894332
 20
359753.295302954
 10
1397064.82894435
 20
359754.705303573
 10
1397048.07500462
 20
359760.4356995461
 10
1397048.79248094
 20
359762.5504108171
 10
1397043.19407905
 20
359764.398955486
 10
1397038.32968609
 20
359749.666920209
 10
1397063.3474999
 20
359741.2788488731
 10
1397048.99605286
 20
359697.2496329061
  0
LWPOLYLINE
  5
183
330
1C
100
AcDbEntity
  8
Р-1
370
    20
100
AcDbPolyline
 90
       16
 70
     0
 43
0.0
 10
1396949.5989608
 20
359737.305329458
 10
1396990.39069049
 20
359722.578510378
 10
1396997.41073256
 20
359742.023284064
 10
1396990.87588511
 20
359744.38252469
 10
1396996.00810659
 20
359758.5982373121
 10
1397015.04895235
 20
359751.6853139761
 10
1397017.54530549
 20
359759.004616642
 10
1397020.59895266
 20
359758.045311772
 10
1397025.07817775
 20
359772.162822263
 10
1396979.44186845
 20
359787.9289063821
 10
1396967.27039025
 20
359753.497097744
 10
1396952.40896463
 20
359758.995325143
 10
1396957.33613162
 20
359750.500574983
 10
1396954.00896048
 20
359739.475328209
 10
1396950.99896119
 20
359740.445328632
 10
1396949.5989608
 20
359737.305329458
  0
LWPOLYLINE
  5
184
330
1C
100
AcDbEntity
  8
Р-1
370
    20
100
AcDbPolyline
 90
       16
 70
     0
 43
0.0
 10
1396826.42897823
 20
359717.875357273
 10
1396831.06898044
 20
359733.0553537311
 10
1396834.50898163
 20
359742.065351482
 10
1396838.15898098
 20
359741.925350785
 10
1396842.46897988
 20
359740.125350245
 10
1396849.88898224
 20
359758.505345585
 10
1396852.92535457
 20
359763.6576976921
 10
1396843.46898582
 20
359770.925344721
 10
1396791.26076032
 20
359802.9778222211
 10
1396786.40596216
 20
359788.39625705
 10
1396780.04732823
 20
359783.410832331
 10
1396777.87898876
 20
359728.655365054
 10
1396785.78898733
 20
359728.325363537
 10
1396803.69898394
 20
359726.845360231
 10
1396803.68898366
 20
359725.4553604721
 10
1396826.42897823
 20
359717.875357273
  0
LWPOLYLINE
  5
187
330
1C
100
AcDbEntity
  8
Р-1
370
    20
100
AcDbPolyline
 90
       20
 70
     0
 43
0.0
 10
1397482.968916
 20
359975.8851823201
 10
1397487.58891912
 20
359995.64517799
 10
1397457.39262168
 20
360007.9016214021
 10
1397455.85892617
 20
360003.5451829161
 10
1397419.95893111
 20
359997.1451911561
 10
1397396.4089374
 20
360008.345193895
 10
1397372.59894286
 20
360015.155197449
 10
1397369.01893901
 20
359992.59520206
 10
1397359.82894124
 20
359995.865203314
 10
1397349.71028223
 20
359995.269662885
 10
1397345.72315773
 20
359980.262554793
 10
1397343.5698419
 20
359967.7652219791
 10
1397364.17893446
 20
359965.445207703
 10
1397428.30892271
 20
359962.0951955521
 10
1397438.12892113
 20
359962.665193504
 10
1397450.00896563
 20
359964.926470646
 10
1397468.80418336
 20
359971.012602897
 10
1397472.85891685
 20
359971.3651851071
 10
1397474.75891679
 20
359972.7351844951
 10
1397482.968916
 20
359975.8851823201
  0
LWPOLYLINE
  5
18A
330
1C
100
AcDbEntity
  8
Р-1
370
    20
100
AcDbPolyline
 90
       25
 70
     0
 43
0.0
 10
1397343.5698419
 20
359967.7652219791
 10
1397345.72315773
 20
359980.262554793
 10
1397349.71028223
 20
359995.269662885
 10
1397328.09792255
 20
359998.683226241
 10
1397322.98894866
 20
360001.165209714
 10
1397315.23895024
 20
360002.375211042
 10
1397317.25272585
 20
360011.989485401
 10
1397318.47895367
 20
360022.465206928
 10
1397322.86895417
 20
360028.805204957
 10
1397299.61384664
 20
360035.685140144
 10
1397297.41711964
 20
360020.866379458
 10
1397295.07077645
 20
360006.026653789
 10
1397293.14895481
 20
360006.195214766
 10
1397285.27895641
 20
360007.3952161201
 10
1397274.81895838
 20
360008.225218051
 10
1397266.34022187
 20
360010.0184369451
 10
1397268.37896506
 20
360036.2552144871
 10
1397263.87896608
 20
360037.4852151701
 10
1397256.26896737
 20
360037.3452167071
 10
1397254.58896694
 20
360033.7252176731
 10
1397249.28896799
 20
360034.395218603
 10
1397249.14896709
 20
360029.7552194271
 10
1397231.78267107
 20
360032.47728472
 10
1397224.75489032
 20
359987.9780070001
 10
1397343.5698419
 20
359967.7652219791
  0
LWPOLYLINE
  5
18B
330
1C
100
AcDbEntity
  8
Р-1
370
    20
100
AcDbPolyline
 90
       14
 70
     0
 43
0.0
 10
1397204.58896684
 20
359989.655235213
 10
1397206.63899761
 20
360005.0358526721
 10
1397206.83897038
 20
360009.4552313481
 10
1397202.01480819
 20
360010.1211518721
 10
1397204.02724808
 20
360033.850229209
 10
1397184.3389799
 20
360037.8652308971
 10
1397166.43898315
 20
360038.665234317
 10
1397144.72898722
 20
360040.245238348
 10
1397133.40892728
 20
360047.345872905
 10
1397083.9889284
 20
360010.165889594
 10
1397103.85898757
 20
360006.445252309
 10
1397107.6489868
 20
360005.845251659
 10
1397107.28898623
 20
360002.685252279
 10
1397204.58896684
 20
359989.655235213
  0
LWPOLYLINE
  5
18E
330
1C
100
AcDbEntity
  8
Р-1
370
    20
100
AcDbPolyline
 90
        9
 70
     0
 43
0.0
 10
1395907.2966871
 20
359464.0896890171
 10
1395908.33908696
 20
359466.475583007
 10
1395909.24437191
 20
359485.170549233
 10
1395809.71258601
 20
359510.007761996
 10
1395809.2791123
 20
359507.995595495
 10
1395807.10911112
 20
359500.1355972879
 10
1395805.91640145
 20
359495.099991938
 10
1395815.04598164
 20
359487.633382449
 10
1395907.2966871
 20
359464.0896890171
  0
LWPOLYLINE
  5
197
330
1C
100
AcDbEntity
  8
Р-1
370
    20
100
AcDbPolyline
 90
       35
 70
     0
 43
0.0
 10
1397084.55887847
 20
359439.96535405
 10
1397087.17881526
 20
359442.925986828
 10
1397092.2385577
 20
359450.905577098
 10
1397084.69888261
 20
359460.925350404
 10
1397062.1788903
 20
359480.105351558
 10
1397048.96889479
 20
359491.195352261
 10
1397016.80890455
 20
359512.3853549871
 10
1397005.00890835
 20
359521.225355805
 10
1396994.70891173
 20
359529.315356454
 10
1396990.528913
 20
359532.095356796
 10
1396975.73891778
 20
359543.315357797
 10
1396971.14891921
 20
359546.4953581571
 10
1396967.23892106
 20
359552.415357907
 10
1396961.74892264
 20
359555.595358445
 10
1396969.30710045
 20
359569.700701693
 10
1396957.01892762
 20
359576.585355768
 10
1396922.75893695
 20
359593.7253596061
 10
1396909.34893429
 20
359568.69536659
 10
1396910.53887045
 20
359567.4860018771
 10
1396920.10886739
 20
359560.346001158
 10
1396929.67886432
 20
359553.196000411
 10
1396934.2088629
 20
359549.95599998
 10
1396945.94885919
 20
359541.555998999
 10
1396952.01885722
 20
359536.915998593
 10
1396962.83885381
 20
359528.9159977291
 10
1396963.78885356
 20
359528.2359976501
 10
1396966.82885255
 20
359526.12599736
 10
1396972.98885067
 20
359521.815996816
 10
1396979.09884874
 20
359517.565996339
 10
1396982.11884785
 20
359515.455996114
 10
1396989.42884542
 20
359509.825995543
 10
1396992.97884432
 20
359507.2159952561
 10
1397050.73882589
 20
359464.6559906411
 10
1397070.04881971
 20
359450.3059891711
 10
1397084.55887847
 20
359439.96535405
  0
LWPOLYLINE
  5
198
330
1C
100
AcDbEntity
  8
Р-1
370
    20
100
AcDbPolyline
 90
       13
 70
     0
 43
0.0
 10
1397557.23149095
 20
359410.304404006
 10
1397627.97871185
 20
359391.505884056
 10
1397629.27877571
 20
359396.3952534371
 10
1397636.64877971
 20
359423.005247367
 10
1397634.85878012
 20
359423.495247638
 10
1397627.19878186
 20
359425.5852488041
 10
1397586.36466736
 20
359436.770333493
 10
1397536.87880237
 20
359450.3252624591
 10
1397508.1088069
 20
359448.105268547
 10
1397503.24880441
 20
359431.325272412
 10
1397501.12880492
 20
359432.035272712
 10
1397498.60880364
 20
359423.3752747101
 10
1397557.23149095
 20
359410.304404006
  0
LWPOLYLINE
  5
1A8
330
1C
100
AcDbEntity
  8
Р-1
370
    20
100
AcDbPolyline
 90
       45
 70
     0
 43
0.0
 10
1398188.10860368
 20
359016.1852082021
 10
1398193.67861035
 20
359054.64520045
 10
1398206.56287244
 20
359126.431628785
 10
1398210.91862961
 20
359166.705177657
 10
1398212.64904029
 20
359178.776153294
 10
1398211.6586319
 20
359178.915175396
 10
1398183.58863723
 20
359181.255180566
 10
1398154.81864253
 20
359182.935185993
 10
1398112.23865038
 20
359185.445194014
 10
1398099.57308618
 20
359186.2792339761
 10
1398030.38428762
 20
359188.941643224
 10
1398029.28866427
 20
359183.1752108661
 10
1398025.62866072
 20
359162.1352152291
 10
1398025.72865878
 20
359152.43521689
 10
1398023.84865912
 20
359152.5052172501
 10
1398023.68162583
 20
359143.723328479
 10
1397932.88353692
 20
359151.249780738
 10
1397932.15971311
 20
359137.4924497561
 10
1397891.32137915
 20
359138.7931815429
 10
1397892.38026863
 20
359154.691812705
 10
1397831.80208399
 20
359153.2101740551
 10
1397828.19867973
 20
359086.0352675881
 10
1397827.79861398
 20
359072.095897946
 10
1397822.2786151
 20
359072.8858988921
 10
1397810.35856666
 20
359073.235277775
 10
1397808.05861195
 20
359044.875906665
 10
1397807.20860919
 20
359029.8759095001
 10
1397829.50866798
 20
359027.935277361
 10
1397832.33866747
 20
359027.8552768201
 10
1397878.38865836
 20
359022.075268674
 10
1397868.5821426
 20
359042.819065241
 10
1397871.23867063
 20
359077.605260499
 10
1397953.10865511
 20
359070.735245429
 10
1397953.82865753
 20
359083.5252430811
 10
1397954.4786583
 20
359087.955242186
 10
1398012.45864744
 20
359083.7852313941
 10
1398055.36454877
 20
359088.083606377
 10
1398088.078635
 20
359086.895215841
 10
1398141.99397429
 20
359078.1814675811
 10
1398141.10710012
 20
359059.796326643
 10
1398150.50962279
 20
359059.307108466
 10
1398149.77297665
 20
359045.366293261
 10
1398170.75964392
 20
359044.627536118
 10
1398169.40026912
 20
359016.902166352
 10
1398188.10860368
 20
359016.1852082021
  0
LWPOLYLINE
  5
1A9
330
1C
100
AcDbEntity
  8
Р-1
370
    20
100
AcDbPolyline
 90
       26
 70
     0
 43
0.0
 10
1398281.79863239
 20
359242.4551504861
 10
1398279.48862805
 20
359218.5351550841
 10
1398278.22862338
 20
359193.9251595871
 10
1398296.33229809
 20
359191.0119207071
 10
1398296.76970235
 20
359220.636139059
 10
1398361.06861407
 20
359219.145138777
 10
1398384.08861006
 20
359218.9151342461
 10
1398383.23860334
 20
359184.365140391
 10
1398397.66859807
 20
359170.3751399471
 10
1398416.94859441
 20
359168.6851364061
 10
1398423.57859325
 20
359168.645135098
 10
1398486.82823619
 20
359167.225497963
 10
1398483.51293574
 20
359187.3507566621
 10
1398500.21228178
 20
359192.454944921
 10
1398493.15957919
 20
359238.6360684171
 10
1398521.95931483
 20
359241.539330083
 10
1398527.79740493
 20
359248.298778953
 10
1398526.44162297
 20
359262.969478104
 10
1398482.07860087
 20
359258.0151080371
 10
1398391.69455882
 20
359284.7393684361
 10
1398382.68861543
 20
359244.805130049
 10
1398363.26861908
 20
359246.3051336471
 10
1398339.36862401
 20
359250.315137697
 10
1398338.17862286
 20
359243.4851391171
 10
1398280.54853795
 20
359253.210447565
 10
1398281.79863239
 20
359242.4551504861
  0
LWPOLYLINE
  5
1AB
330
1C
100
AcDbEntity
  8
Р-1
370
    20
100
AcDbPolyline
 90
       15
 70
     0
 43
0.0
 10
1398949.51249268
 20
359234.762200248
 10
1398922.36850877
 20
359177.305034575
 10
1398912.81474012
 20
359164.9499154261
 10
1398813.16916854
 20
359158.1229305311
 10
1398727.7505866
 20
359149.780912723
 10
1398731.3224452
 20
359117.644763079
 10
1398820.9285162
 20
359126.405063508
 10
1398898.67492462
 20
359133.208384879
 10
1398919.82850639
 20
359163.1050375311
 10
1398931.65850267
 20
359154.645036643
 10
1398970.14678139
 20
359205.407147309
 10
1398990.66759934
 20
359230.9430112751
 10
1398971.01321224
 20
359243.2782747751
 10
1398949.04714432
 20
359241.8325329911
 10
1398949.51249268
 20
359234.762200248
  0
LWPOLYLINE
  5
1AC
330
1C
100
AcDbEntity
  8
Р-1
370
    20
100
AcDbPolyline
 90
       15
 70
     0
 43
0.0
 10
1399054.12848558
 20
359175.195008773
 10
1399054.93848431
 20
359169.535009595
 10
1399049.21051808
 20
359150.490143077
 10
1399051.63848056
 20
359147.765014014
 10
1399052.02050976
 20
359143.2860408121
 10
1399067.93847717
 20
359144.835011282
 10
1399095.18847252
 20
359145.1250058271
 10
1399106.63847039
 20
359144.385003683
 10
1399113.91846889
 20
359143.105002458
 10
1399117.71847339
 20
359169.1549971971
 10
1399110.22847589
 20
359175.184997645
 10
1399103.62847712
 20
359175.674998865
 10
1399080.65848068
 20
359173.605003784
 10
1399073.11848154
 20
359171.385005668
 10
1399054.12848558
 20
359175.195008773
  0
LWPOLYLINE
  5
1B0
330
1C
100
AcDbEntity
  8
Р-1
370
    20
100
AcDbPolyline
 90
       29
 70
     0
 43
0.0
 10
1397569.64878319
 20
359382.19526773
 10
1397462.05096445
 20
359413.1892818311
 10
1397457.13880573
 20
359397.835287363
 10
1397445.3088002
 20
359359.6552963111
 10
1397444.26879575
 20
359336.3353005461
 10
1397478.15878786
 20
359326.0952955871
 10
1397481.81878688
 20
359324.3552951661
 10
1397486.49878547
 20
359321.3252947541
 10
1397492.35878351
 20
359316.525294428
 10
1397498.758781
 20
359309.445294372
 10
1397499.38878052
 20
359307.585294571
 10
1397499.8387798
 20
359304.335295045
 10
1397499.32877922
 20
359300.9952957191
 10
1397497.19918087
 20
359291.569859873
 10
1397532.82876963
 20
359281.805292387
 10
1397547.88870281
 20
359276.445920444
 10
1397588.65869352
 20
359264.9159140571
 10
1397604.25105739
 20
359260.187820488
 10
1397605.7586906
 20
359265.41591042
 10
1397607.97869178
 20
359273.14590859
 10
1397608.8086923
 20
359276.2759078971
 10
1397618.69869538
 20
359300.4959016511
 10
1397621.93869719
 20
359312.635898869
 10
1397604.28876478
 20
359319.6252716641
 10
1397568.1454988
 20
359330.1073745211
 10
1397557.9087767
 20
359339.2552774761
 10
1397559.82409749
 20
359351.8305032
 10
1397561.99877925
 20
359355.7152738191
 10
1397569.64878319
 20
359382.19526773
  0
LWPOLYLINE
  5
1B1
330
1C
100
AcDbEntity
  8
Р-1
370
    20
100
AcDbPolyline
 90
       18
 70
     0
 43
0.0
 10
1395863.28844399
 20
359724.424340084
 10
1395873.7178948
 20
359729.3945729531
 10
1395876.98914698
 20
359741.64554168
 10
1395894.98156544
 20
359737.979199454
 10
1395899.4878939
 20
359761.808801411
 10
1395901.81598811
 20
359761.26452284
 10
1395909.63440248
 20
359797.702727294
 10
1395900.26915446
 20
359799.595527033
 10
1395876.40915978
 20
359805.605530731
 10
1395880.23283572
 20
359821.7848558851
 10
1395854.59605931
 20
359828.083078034
 10
1395851.24196424
 20
359814.137221074
 10
1395872.15909106
 20
359808.610241058
 10
1395866.05345341
 20
359781.2841232979
 10
1395870.492784
 20
359780.269191088
 10
1395867.71349072
 20
359757.300435405
 10
1395861.41639747
 20
359728.3526101811
 10
1395863.28844399
 20
359724.424340084
  0
LWPOLYLINE
  5
1B8
330
1C
100
AcDbEntity
  8
Р-1
370
    20
100
AcDbPolyline
 90
        8
 70
     0
 43
0.0
 10
1394734.30887733
 20
360274.365048893
 10
1394739.93013951
 20
360295.97118655
 10
1394697.94946317
 20
360308.445677834
 10
1394696.1194652
 20
360317.085676698
 10
1394677.4298508
 20
360322.185838585
 10
1394674.18946762
 20
360310.1956822471
 10
1394693.49973626
 20
360284.504166043
 10
1394734.30887733
 20
360274.365048893
  0
LWPOLYLINE
  5
1B9
330
1C
100
AcDbEntity
  8
Р-1
370
    20
100
AcDbPolyline
 90
       10
 70
     0
 43
0.0
 10
1394730.31178421
 20
360342.569225439
 10
1394733.18946614
 20
360354.0856629471
 10
1394732.13946682
 20
360356.6056627161
 10
1394734.56946817
 20
360365.505660698
 10
1394736.59946793
 20
360366.0556601971
 10
1394741.44896755
 20
360387.4134368771
 10
1394742.41286706
 20
360391.042228544
 10
1394697.89402289
 20
360402.315297489
 10
1394685.53947438
 20
360354.1356724001
 10
1394730.31178421
 20
360342.569225439
  0
LWPOLYLINE
  5
1C0
330
1C
100
AcDbEntity
  8
Р-1
370
    20
100
AcDbPolyline
 90
       14
 70
     0
 43
0.0
 10
1395599.70572136
 20
360566.637681293
 10
1395589.98935812
 20
360555.595457988
 10
1395586.02935763
 20
360549.635459814
 10
1395578.4475713
 20
360533.8245000121
 10
1395591.74934892
 20
360510.775465391
 10
1395561.85969756
 20
360485.127052808
 10
1395543.86928993
 20
360493.7361243221
 10
1395538.65024188
 20
360502.933973726
 10
1395533.26679929
 20
360530.097349545
 10
1395532.70936404
 20
360535.575472825
 10
1395533.62936515
 20
360541.9754715401
 10
1395552.49937294
 20
360597.645458175
 10
1395579.30936629
 20
360587.4254546161
 10
1395599.70572136
 20
360566.637681293
  0
LWPOLYLINE
  5
1CC
330
1C
100
AcDbEntity
  8
Р-1
370
    20
100
AcDbPolyline
 90
        6
 70
     0
 43
0.0
 10
1399518.81993822
 20
360307.8566122571
 10
1399540.7684043
 20
360352.549015181
 10
1399438.27523056
 20
360397.560244304
 10
1399411.49940137
 20
360338.83653855
 10
1399505.0402843
 20
360301.245466516
 10
1399518.81993822
 20
360307.8566122571
  0
MTEXT
  5
434
330
1C
100
AcDbEntity
  8
Р-1
100
AcDbMText
 10
1394793.445763276
 20
360200.922991184
 30
0.0
 40
6.533333333309999
 41
6.533333333309999
 46
0.0
 71
     2
 72
     5
  1
Р-1\Pуч.18
 73
     1
 44
1.0
  0
MTEXT
  5
435
330
1C
100
AcDbEntity
  8
Р-1
100
AcDbMText
 10
1394869.324905546
 20
360434.140942323
 30
0.0
 40
6.533333333309999
 41
6.533333333309999
 46
0.0
 71
     2
 72
     5
  1
Р-1\Pуч.21
 73
     1
 44
1.0
  0
MTEXT
  5
436
330
1C
100
AcDbEntity
  8
Р-1
100
AcDbMText
 10
1395093.116130426
 20
360015.1568453921
 30
0.0
 40
6.533333333309999
 41
6.533333333309999
 46
0.0
 71
     2
 72
     5
  1
Р-1\Pуч.22
 73
     1
 44
1.0
  0
MTEXT
  5
437
330
1C
100
AcDbEntity
  8
Р-1
100
AcDbMText
 10
1395029.886252686
 20
360067.497590188
 30
0.0
 40
6.533333333309999
 41
6.533333333309999
 46
0.0
 71
     2
 72
     5
  1
Р-1\Pуч.23
 73
     1
 44
1.0
  0
MTEXT
  5
438
330
1C
100
AcDbEntity
  8
Р-1
100
AcDbMText
 10
1395083.575699956
 20
360217.6030261371
 30
0.0
 40
6.533333333309999
 41
6.533333333309999
 46
0.0
 71
     2
 72
     5
  1
Р-1\Pуч.24
 73
     1
 44
1.0
  0
MTEXT
  5
439
330
1C
100
AcDbEntity
  8
Р-1
100
AcDbMText
 10
1394998.563586626
 20
360368.493872646
 30
0.0
 40
6.533333333309999
 41
6.533333333309999
 46
0.0
 71
     2
 72
     5
  1
Р-1\Pуч.26
 73
     1
 44
1.0
  0
MTEXT
  5
43A
330
1C
100
AcDbEntity
  8
Р-1
100
AcDbMText
 10
1395115.926245177
 20
360285.341794915
 30
0.0
 40
6.533333333309999
 41
6.533333333309999
 46
0.0
 71
     2
 72
     5
  1
Р-1\Pуч.25
 73
     1
 44
1.0
  0
MTEXT
  5
43B
330
1C
100
AcDbEntity
  8
Р-1
100
AcDbMText
 10
1395291.068219816
 20
360366.26238125
 30
0.0
 40
6.533333333309999
 41
6.533333333309999
 46
0.0
 71
     2
 72
     5
  1
\pxqc;Р-1\Pуч.29
 73
     1
 44
1.0
  0
MTEXT
  5
43C
330
1C
100
AcDbEntity
  8
Р-1
100
AcDbMText
 10
1395425.812947836
 20
360391.890646264
 30
0.0
 40
6.533333333309999
 41
6.533333333309999
 46
0.0
 71
     2
 72
     5
  1
\pxqc;Р-1\Pуч.30
 73
     1
 44
1.0
  0
MTEXT
  5
43D
330
1C
100
AcDbEntity
  8
Р-1
100
AcDbMText
 10
1395265.460245237
 20
360497.1018058301
 30
0.0
 40
6.533333333309999
 41
6.533333333309999
 46
0.0
 71
     2
 72
     5
  1
Р-1\Pуч.31
 73
     1
 44
1.0
  0
MTEXT
  5
43E
330
1C
100
AcDbEntity
  8
Р-1
100
AcDbMText
 10
1395933.575263526
 20
359510.33299478
 30
0.0
 40
6.533333333309999
 41
6.533333333309999
 46
0.0
 71
     2
 72
     5
  1
\pxqc;Р-1\Pуч.32
 73
     1
 44
1.0
  0
MTEXT
  5
440
330
1C
100
AcDbEntity
  8
Р-1
100
AcDbMText
 10
1395983.436593536
 20
359657.966622263
 30
0.0
 40
6.533333333309999
 41
6.533333333309999
 46
0.0
 71
     2
 72
     5
  1
Р-1\Pуч.33
 73
     1
 44
1.0
  0
MTEXT
  5
441
330
1C
100
AcDbEntity
  8
Р-1
100
AcDbMText
 10
1395882.907066446
 20
359788.304456363
 30
0.0
 40
6.533333333309999
 41
6.533333333309999
 46
0.0
 71
     2
 72
     5
  1
Р-1\Pуч.34
 73
     1
 44
1.0
  0
MTEXT
  5
442
330
1C
100
AcDbEntity
  8
Р-1
100
AcDbMText
 10
1395921.671397446
 20
359790.915832235
 30
0.0
 40
6.533333333309999
 41
6.533333333309999
 46
0.0
 71
     2
 72
     5
  1
Р-1\Pуч.35
 73
     1
 44
1.0
  0
MTEXT
  5
443
330
1C
100
AcDbEntity
  8
Р-1
100
AcDbMText
 10
1396941.771940316
 20
359575.209502929
 30
0.0
 40
6.533333333309999
 41
6.533333333309999
 46
0.0
 71
     2
 72
     5
  1
Р-1\Pуч.37
 73
     1
 44
1.0
  0
MTEXT
  5
444
330
1C
100
AcDbEntity
  8
Р-1
100
AcDbMText
 10
1397006.451159936
 20
359479.101232374
 30
0.0
 40
6.533333333309999
 41
6.533333333309999
 46
0.0
 71
     2
 72
     5
  1
Р-1\Pуч.37
 73
     1
 44
1.0
  0
MTEXT
  5
445
330
1C
100
AcDbEntity
  8
Р-1
100
AcDbMText
 10
1397071.528181107
 20
359732.819639109
 30
0.0
 40
6.533333333309999
 41
6.533333333309999
 46
0.0
 71
     2
 72
     5
  1
Р-1\Pуч.39
 73
     1
 44
1.0
  0
MTEXT
  5
446
330
1C
100
AcDbEntity
  8
Р-1
100
AcDbMText
 10
1396793.662512926
 20
359759.795348409
 30
0.0
 40
6.533333333309999
 41
6.533333333309999
 46
0.0
 71
     2
 72
     5
  1
Р-1\Pуч.36
 73
     1
 44
1.0
  0
MTEXT
  5
448
330
1C
100
AcDbEntity
  8
Р-1
100
AcDbMText
 10
1396986.589014686
 20
359780.2087309421
 30
0.0
 40
6.533333333309999
 41
6.533333333309999
 46
0.0
 71
     2
 72
     5
  1
Р-1\Pуч.38
 73
     1
 44
1.0
  0
MTEXT
  5
449
330
1C
100
AcDbEntity
  8
Р-1
100
AcDbMText
 10
1397176.193819497
 20
360023.972261537
 30
0.0
 40
6.533333333309999
 41
6.533333333309999
 46
0.0
 71
     2
 72
     5
  1
Р-1\Pуч.40
 73
     1
 44
1.0
  0
MTEXT
  5
44A
330
1C
100
AcDbEntity
  8
Р-1
100
AcDbMText
 10
1397252.476473666
 20
360010.304556777
 30
0.0
 40
6.533333333309999
 41
6.533333333309999
 46
0.0
 71
     2
 72
     5
  1
Р-1\Pуч.41
 73
     1
 44
1.0
  0
MTEXT
  5
44B
330
1C
100
AcDbEntity
  8
Р-1
100
AcDbMText
 10
1397424.743892546
 20
359991.406642054
 30
0.0
 40
6.533333333309999
 41
6.533333333309999
 46
0.0
 71
     2
 72
     5
  1
Р-1\Pуч.42
 73
     1
 44
1.0
  0
MTEXT
  5
44C
330
1C
100
AcDbEntity
  8
Р-1
100
AcDbMText
 10
1397330.531174447
 20
359627.488815911
 30
0.0
 40
6.533333333309999
 41
6.533333333309999
 46
0.0
 71
     2
 72
     5
  1
Р-1\Pуч.46
 73
     1
 44
1.0
  0
MTEXT
  5
44D
330
1C
100
AcDbEntity
  8
Р-1
100
AcDbMText
 10
1397296.544367916
 20
359641.899696947
 30
0.0
 40
6.533333333309999
 41
6.533333333309999
 46
0.0
 71
     2
 72
     5
  1
Р-1\Pуч.45
 73
     1
 44
1.0
  0
MTEXT
  5
44E
330
1C
100
AcDbEntity
  8
Р-1
100
AcDbMText
 10
1397515.782159006
 20
359597.90387959
 30
0.0
 40
6.533333333309999
 41
6.533333333309999
 46
0.0
 71
     2
 72
     5
  1
Р-1\Pуч.48
 73
     1
 44
1.0
  0
MTEXT
  5
44F
330
1C
100
AcDbEntity
  8
Р-1
100
AcDbMText
 10
1397588.757765196
 20
359684.531669294
 30
0.0
 40
6.533333333309999
 41
6.533333333309999
 46
0.0
 71
     2
 72
     5
  1
Р-1\Pуч.48
 73
     1
 44
1.0
  0
MTEXT
  5
450
330
1C
100
AcDbEntity
  8
Р-1
100
AcDbMText
 10
1397627.901858056
 20
359534.1849312911
 30
0.0
 40
6.533333333309999
 41
6.533333333309999
 46
0.0
 71
     2
 72
     5
  1
Р-1\Pуч.49
 73
     1
 44
1.0
  0
MTEXT
  5
452
330
1C
100
AcDbEntity
  8
Р-1
100
AcDbMText
 10
1394698.971280706
 20
360306.429188113
 30
0.0
 40
6.533333333309999
 41
6.533333333309999
 46
0.0
 71
     2
 72
     5
  1
Р-1\Pуч.19
 73
     1
 44
1.0
  0
MTEXT
  5
453
330
1C
100
AcDbEntity
  8
Р-1
100
AcDbMText
 10
1394711.241875717
 20
360390.2846579771
 30
0.0
 40
6.533333333309999
 41
6.533333333309999
 46
0.0
 71
     2
 72
     5
  1
Р-1\Pуч.20
 73
     1
 44
1.0
  0
MTEXT
  5
455
330
1C
100
AcDbEntity
  8
Р-1
100
AcDbMText
 10
1395332.921454816
 20
360206.386097917
 30
0.0
 40
6.533333333309999
 41
6.533333333309999
 46
0.0
 71
     2
 72
     5
  1
Р-1\Pуч.28
 73
     1
 44
1.0
  0
MTEXT
  5
456
330
1C
100
AcDbEntity
  8
Р-1
100
AcDbMText
 10
1395305.489859306
 20
360162.886844385
 30
0.0
 40
6.533333333309999
 41
6.533333333309999
 46
0.0
 71
     2
 72
     5
  1
Р-1\Pуч.27
 73
     1
 44
1.0
  0
MTEXT
  5
457
330
1C
100
AcDbEntity
  8
Р-1
100
AcDbMText
 10
1395472.216784086
 20
360173.900120418
 30
0.0
 40
6.533333333309999
 41
6.533333333309999
 46
0.0
 71
     2
 72
     5
  1
Р-1\Pуч.27
 73
     1
 44
1.0
  0
MTEXT
  5
459
330
1C
100
AcDbEntity
  8
Р-1
100
AcDbMText
 10
1397507.871809777
 20
359358.328629979
 30
0.0
 40
6.533333333309999
 41
6.533333333309999
 46
0.0
 71
     2
 72
     5
  1
Р-1\Pуч.43
 73
     1
 44
1.0
  0
MTEXT
  5
45A
330
1C
100
AcDbEntity
  8
Р-1
100
AcDbMText
 10
1397547.874057277
 20
359438.7283369901
 30
0.0
 40
6.533333333309999
 41
6.533333333309999
 46
0.0
 71
     2
 72
     5
  1
Р-1\Pуч.44
 73
     1
 44
1.0
  0
MTEXT
  5
461
330
1C
100
AcDbEntity
  8
Р-1
100
AcDbMText
 10
1397949.013088446
 20
359126.2174419011
 30
0.0
 40
6.533333333309999
 41
6.533333333309999
 46
0.0
 71
     2
 72
     5
  1
Р-1\Pуч.50
 73
     1
 44
1.0
  0
MTEXT
  5
462
330
1C
100
AcDbEntity
  8
Р-1
100
AcDbMText
 10
1398154.647318726
 20
359155.136625975
 30
0.0
 40
6.533333333309999
 41
6.533333333309999
 46
0.0
 71
     2
 72
     5
  1
Р-1\Pуч.50
 73
     1
 44
1.0
  0
MTEXT
  5
463
330
1C
100
AcDbEntity
  8
Р-1
100
AcDbMText
 10
1398468.125853197
 20
359248.771148968
 30
0.0
 40
6.533333333309999
 41
6.533333333309999
 46
0.0
 71
     2
 72
     5
  1
Р-1\Pуч.51
 73
     1
 44
1.0
  0
MTEXT
  5
465
330
1C
100
AcDbEntity
  8
Р-1
100
AcDbMText
 10
1398884.227568796
 20
359156.60236205
 30
0.0
 40
6.533333333309999
 41
6.533333333309999
 46
0.0
 71
     2
 72
     5
  1
Р-1\Pуч.52
 73
     1
 44
1.0
  0
MTEXT
  5
466
330
1C
100
AcDbEntity
  8
Р-1
100
AcDbMText
 10
1399091.332047726
 20
359170.54976391
 30
0.0
 40
6.533333333309999
 41
6.533333333309999
 46
0.0
 71
     2
 72
     5
  1
Р-1\Pуч.53
 73
     1
 44
1.0
  0
MTEXT
  5
467
330
1C
100
AcDbEntity
  8
Р-1
100
AcDbMText
 10
1399116.810610176
 20
359388.263195042
 30
0.0
 40
6.533333333309999
 41
6.533333333309999
 46
0.0
 71
     2
 72
     5
  1
Р-1\Pуч.54
 73
     1
 44
1.0
  0
MTEXT
  5
4B5
330
1C
100
AcDbEntity
  8
Р-1
100
AcDbMText
 10
1394381.248069307
 20
359092.453172058
 30
0.0
 40
4.54784003362091
 41
4.54784003362091
 46
0.0
 71
     2
 72
     5
  1
\pxqc;Р-1\Pуч.15
 73
     1
 44
1.0
  0
MTEXT
  5
518
330
1C
100
AcDbEntity
  8
Р-1
100
AcDbMText
 10
1397380.303108321
 20
359568.5840706171
 30
0.0
 40
6.533333333309999
 41
6.533333333309999
 46
0.0
 71
     2
 72
     5
  1
Р-1\Pуч.47
 73
     1
 44
1.0
  0
MTEXT
  5
521
330
1C
100
AcDbEntity
  8
Р-1
100
AcDbMText
 10
1398295.972300416
 20
359242.950104204
 30
0.0
 40
6.533333333309999
 41
6.533333333309999
 46
0.0
 71
     2
 72
     5
  1
Р-1\Pуч.51
 73
     1
 44
1.0
  0
MTEXT
  5
52E
330
1C
100
AcDbEntity
  8
Р-1
100
AcDbMText
 10
1395560.130665916
 20
360568.8872312201
 30
0.0
 40
6.533333333309999
 41
6.533333333309999
 46
0.0
 71
     2
 72
     5
  1
Р-1\Pуч.55
 73
     1
 44
1.0
  0
MTEXT
  5
538
330
1C
100
AcDbEntity
  8
Р-1
100
AcDbMText
 10
1394597.954396757
 20
359738.129131669
 30
0.0
 40
6.533333333309999
 41
6.533333333309999
 46
0.0
 71
     2
 72
     5
  1
\pxqc;Р-1\Pуч.17
 73
     1
 44
1.0
  0
MTEXT
  5
546
330
1C
100
AcDbEntity
  8
Р-1
100
AcDbMText
 10
1399471.803005386
 20
360362.468542286
 30
0.0
 40
6.533333333309999
 41
6.533333333309999
 46
0.0
 71
     2
 72
     5
  1
Р-1\Pуч.56
 73
     1
 44
1.0
  0
MTEXT
  5
562
330
1C
100
AcDbEntity
  8
Р-1
100
AcDbMText
 10
1391817.678592117
 20
355915.308319721
 30
0.0
 40
6.533333333309999
 41
6.533333333309999
 46
0.0
 71
     2
 72
     5
  1
Р-1\Pуч.1
 73
     1
 44
1.0
  0
MTEXT
  5
563
330
1C
100
AcDbEntity
  8
Р-1
100
AcDbMText
 10
1393083.011247546
 20
356837.498917246
 30
0.0
 40
6.533333333309999
 41
6.533333333309999
 46
0.0
 71
     2
 72
     5
  1
Р-1\Pуч.3
 73
     1
 44
1.0
  0
MTEXT
  5
564
330
1C
100
AcDbEntity
  8
Р-1
100
AcDbMText
 10
1393319.877200936
 20
357169.029118755
 30
0.0
 40
6.533333333309999
 41
6.533333333309999
 46
0.0
 71
     2
 72
     5
  1
Р-1\Pуч.4
 73
     1
 44
1.0
  0
MTEXT
  5
565
330
1C
100
AcDbEntity
  8
Р-1
100
AcDbMText
 10
1393269.172884706
 20
357358.704974232
 30
0.0
 40
6.533333333309999
 41
6.533333333309999
 46
0.0
 71
     2
 72
     5
  1
Р-1\Pуч.5
 73
     1
 44
1.0
  0
MTEXT
  5
566
330
1C
100
AcDbEntity
  8
Р-1
100
AcDbMText
 10
1393352.505487046
 20
357340.001673535
 30
0.0
 40
6.533333333309999
 41
6.533333333309999
 46
0.0
 71
     2
 72
     5
  1
Р-1\Pуч.6
 73
     1
 44
1.0
  0
MTEXT
  5
567
330
1C
100
AcDbEntity
  8
Р-1
100
AcDbMText
 10
1393376.648012587
 20
357456.085237812
 30
0.0
 40
6.533333333309999
 41
6.533333333309999
 46
0.0
 71
     2
 72
     5
  1
Р-1\Pуч.7
 73
     1
 44
1.0
  0
MTEXT
  5
568
330
1C
100
AcDbEntity
  8
Р-1
100
AcDbMText
 10
1393032.248787333
 20
357718.2750204941
 30
0.0
 40
6.533333333309999
 41
6.533333333309999
 46
0.0
 71
     2
 72
     5
  1
Р-1\Pуч.8
 73
     1
 44
1.0
  0
MTEXT
  5
569
330
1C
100
AcDbEntity
  8
Р-1
100
AcDbMText
 10
1393174.496524418
 20
357874.3390211621
 30
0.0
 40
6.533333333309999
 41
6.533333333309999
 46
0.0
 71
     2
 72
     5
  1
Р-1\Pуч.9
 73
     1
 44
1.0
  0
MTEXT
  5
56A
330
1C
100
AcDbEntity
  8
Р-1
100
AcDbMText
 10
1393930.922097946
 20
358391.4548629071
 30
0.0
 40
6.533333333309999
 41
6.533333333309999
 46
0.0
 71
     2
 72
     5
  1
\pxqc;Р-1\Pуч.10
 73
     1
 44
1.0
  0
MTEXT
  5
56B
330
1C
100
AcDbEntity
  8
Р-1
100
AcDbMText
 10
1393988.564758636
 20
358418.8968313271
 30
0.0
 40
6.533333333309999
 41
6.533333333309999
 46
0.0
 71
     2
 72
     5
  1
\pxqc;Р-1\Pуч.11
 73
     1
 44
1.0
  0
MTEXT
  5
56C
330
1C
100
AcDbEntity
  8
Р-1
100
AcDbMText
 10
1394393.808844677
 20
358947.4424951371
 30
0.0
 40
6.533333333309999
 41
6.533333333309999
 46
0.0
 71
     2
 72
     5
  1
\pxqc;Р-1\Pуч.12
 73
     1
 44
1.0
  0
MTEXT
  5
56D
330
1C
100
AcDbEntity
  8
Р-1
100
AcDbMText
 10
1394523.890101637
 20
358965.117097716
 30
0.0
 40
6.533333333309999
 41
6.533333333309999
 46
0.0
 71
     2
 72
     5
  1
\pxqc;Р-1\Pуч.13
 73
     1
 44
1.0
  0
MTEXT
  5
56E
330
1C
100
AcDbEntity
  8
Р-1
100
AcDbMText
 10
1394669.678113236
 20
358977.44801666
 30
0.0
 40
6.533333333309999
 41
6.533333333309999
 46
0.0
 71
     2
 72
     5
  1
\pxqc;Р-1\Pуч.14
 73
     1
 44
1.0
  0
MTEXT
  5
56F
330
1C
100
AcDbEntity
  8
Р-1
100
AcDbMText
 10
1394457.228994097
 20
359135.419651669
 30
0.0
 40
6.533333333309999
 41
6.533333333309999
 46
0.0
 71
     2
 72
     5
  1
\pxqc;Р-1\Pуч.16
 73
     1
 44
1.0
  0
MTEXT
  5
58F
330
1C
100
AcDbEntity
  8
Р-1
100
AcDbMText
 10
1392252.232069946
 20
356154.780902591
 30
0.0
 40
6.533333333309999
 41
6.533333333309999
 46
0.0
 71
     2
 72
     5
  1
Р-1\Pуч.2
 73
     1
 44
1.0
  0
MTEXT
  5
5DD
330
1C
100
AcDbEntity
  8
Р-1
100
AcDbMText
 10
1392133.008955406
 20
355898.8678352621
 30
0.0
 40
6.533333333309999
 41
6.533333333309999
 46
0.0
 71
     2
 72
     5
  1
Р-1\Pуч.1
 73
     1
 44
1.0
  0
MTEXT
  5
5EC
330
1C
100
AcDbEntity
  8
Р-1
100
AcDbMText
 10
1393189.234077836
 20
357071.014742395
 30
0.0
 40
6.533333333309999
 41
6.533333333309999
 46
0.0
 71
     2
 72
     5
  1
Р-1\Pуч.4
 73
     1
 44
1.0
  0
MTEXT
  5
600
330
1C
100
AcDbEntity
  8
Р-1
100
AcDbMText
 10
1394575.528465456
 20
359160.510496113
 30
0.0
 40
6.533333333309999
 41
6.533333333309999
 46
0.0
 71
     2
 72
     5
  1
\pxqc;Р-1\Pуч.13
 73
     1
 44
1.0
  0
MTEXT
  5
603
330
1C
100
AcDbEntity
  8
Р-1
100
AcDbMText
 10
1393083.011247546
 20
356837.498917246
 30
0.0
 40
6.533333333309999
 41
6.533333333309999
 46
0.0
 71
     2
 72
     5
  1
Р-1\Pуч.3
 73
     1
 44
1.0
  0
CIRCLE
  5
70D
330
1C
100
AcDbEntity
  8
Р-1
370
     0
100
AcDbCircle
 10
1394795.24442303
 20
360189.435678464
 30
0.0
 40
16.0
  0
CIRCLE
  5
70E
330
1C
100
AcDbEntity
  8
Р-1
370
     0
100
AcDbCircle
 10
1394870.51136133
 20
360424.0588028171
 30
0.0
 40
16.0
  0
CIRCLE
  5
70F
330
1C
100
AcDbEntity
  8
Р-1
370
     0
100
AcDbCircle
 10
1395095.13569939
 20
360003.147651164
 30
0.0
 40
16.0
  0
CIRCLE
  5
710
330
1C
100
AcDbEntity
  8
Р-1
370
     0
100
AcDbCircle
 10
1395031.30532294
 20
360057.4737454451
 30
0.0
 40
16.0
  0
CIRCLE
  5
711
330
1C
100
AcDbEntity
  8
Р-1
370
     0
100
AcDbCircle
 10
1395085.58500982
 20
360205.915736895
 30
0.0
 40
16.0
  0
CIRCLE
  5
712
330
1C
100
AcDbEntity
  8
Р-1
370
     0
100
AcDbCircle
 10
1394999.53069894
 20
360357.9877188971
 30
0.0
 40
16.0
  0
CIRCLE
  5
713
330
1C
100
AcDbEntity
  8
Р-1
370
     0
100
AcDbCircle
 10
1395117.7121035
 20
360274.4261807031
 30
0.0
 40
16.0
  0
CIRCLE
  5
714
330
1C
100
AcDbEntity
  8
Р-1
370
     0
100
AcDbCircle
 10
1395293.53086793
 20
360355.441143971
 30
0.0
 40
16.0
  0
CIRCLE
  5
715
330
1C
100
AcDbEntity
  8
Р-1
370
     0
100
AcDbCircle
 10
1395427.04312199
 20
360381.39958349
 30
0.0
 40
16.0
  0
CIRCLE
  5
716
330
1C
100
AcDbEntity
  8
Р-1
370
     0
100
AcDbCircle
 10
1395267.94829486
 20
360486.588501755
 30
0.0
 40
16.0
  0
CIRCLE
  5
717
330
1C
100
AcDbEntity
  8
Р-1
370
     0
100
AcDbCircle
 10
1395934.4908335
 20
359499.485425718
 30
0.0
 40
16.0
  0
CIRCLE
  5
719
330
1C
100
AcDbEntity
  8
Р-1
370
     0
100
AcDbCircle
 10
1395985.06039904
 20
359646.923969349
 30
0.0
 40
16.0
  0
CIRCLE
  5
71A
330
1C
100
AcDbEntity
  8
Р-1
370
     0
100
AcDbCircle
 10
1395884.34679434
 20
359776.932035907
 30
0.0
 40
16.0
  0
CIRCLE
  5
71B
330
1C
100
AcDbEntity
  8
Р-1
370
     0
100
AcDbCircle
 10
1395923.43095344
 20
359780.208013964
 30
0.0
 40
16.0
  0
CIRCLE
  5
71C
330
1C
100
AcDbEntity
  8
Р-1
370
     0
100
AcDbCircle
 10
1396943.19881671
 20
359564.6774556921
 30
0.0
 40
16.0
  0
CIRCLE
  5
71D
330
1C
100
AcDbEntity
  8
Р-1
370
     0
100
AcDbCircle
 10
1397007.88230199
 20
359468.2904797311
 30
0.0
 40
16.0
  0
CIRCLE
  5
71E
330
1C
100
AcDbEntity
  8
Р-1
370
     0
100
AcDbCircle
 10
1397074.32155621
 20
359721.922066475
 30
0.0
 40
16.0
  0
CIRCLE
  5
71F
330
1C
100
AcDbEntity
  8
Р-1
370
     0
100
AcDbCircle
 10
1396795.32161893
 20
359748.7013818571
 30
0.0
 40
17.0
  0
CIRCLE
  5
721
330
1C
100
AcDbEntity
  8
Р-1
370
     0
100
AcDbCircle
 10
1396988.57537088
 20
359770.20381414
 30
0.0
 40
17.0
  0
CIRCLE
  5
722
330
1C
100
AcDbEntity
  8
Р-1
370
     0
100
AcDbCircle
 10
1397177.77601503
 20
360012.972130462
 30
0.0
 40
16.0
  0
CIRCLE
  5
723
330
1C
100
AcDbEntity
  8
Р-1
370
     0
100
AcDbCircle
 10
1397253.612883
 20
359999.313158048
 30
0.0
 40
16.0
  0
CIRCLE
  5
724
330
1C
100
AcDbEntity
  8
Р-1
370
     0
100
AcDbCircle
 10
1397426.6541609
 20
359980.2747860521
 30
0.0
 40
16.0
  0
CIRCLE
  5
725
330
1C
100
AcDbEntity
  8
Р-1
370
     0
100
AcDbCircle
 10
1397332.84387074
 20
359617.095274128
 30
0.0
 40
16.0
  0
CIRCLE
  5
726
330
1C
100
AcDbEntity
  8
Р-1
370
     0
100
AcDbCircle
 10
1397297.97613383
 20
359631.0488748661
 30
0.0
 40
16.0
  0
CIRCLE
  5
727
330
1C
100
AcDbEntity
  8
Р-1
370
     0
100
AcDbCircle
 10
1397517.87295093
 20
359587.5069347
 30
0.0
 40
17.0
  0
CIRCLE
  5
728
330
1C
100
AcDbEntity
  8
Р-1
370
     0
100
AcDbCircle
 10
1397589.90935761
 20
359673.873298157
 30
0.0
 40
17.0
  0
CIRCLE
  5
729
330
1C
100
AcDbEntity
  8
Р-1
370
     0
100
AcDbCircle
 10
1397629.83842039
 20
359524.285267441
 30
0.0
 40
17.0
  0
CIRCLE
  5
72B
330
1C
100
AcDbEntity
  8
Р-1
370
     0
100
AcDbCircle
 10
1394701.37209437
 20
360295.04074075
 30
0.0
 40
13.3381757736206
  0
CIRCLE
  5
72C
330
1C
100
AcDbEntity
  8
Р-1
370
     0
100
AcDbCircle
 10
1394712.67914488
 20
360379.072440434
 30
0.0
 40
16.0
  0
CIRCLE
  5
72E
330
1C
100
AcDbEntity
  8
Р-1
370
     0
100
AcDbCircle
 10
1395333.96883857
 20
360196.81282997
 30
0.0
 40
16.0
  0
CIRCLE
  5
72F
330
1C
100
AcDbEntity
  8
Р-1
370
     0
100
AcDbCircle
 10
1395306.41413629
 20
360151.118486101
 30
0.0
 40
16.0
  0
CIRCLE
  5
730
330
1C
100
AcDbEntity
  8
Р-1
370
     0
100
AcDbCircle
 10
1395474.15470329
 20
360163.005527326
 30
0.0
 40
16.0
  0
CIRCLE
  5
732
330
1C
100
AcDbEntity
  8
Р-1
370
     0
100
AcDbCircle
 10
1397509.84907034
 20
359347.967022126
 30
0.0
 40
17.0
  0
CIRCLE
  5
733
330
1C
100
AcDbEntity
  8
Р-1
370
     0
100
AcDbCircle
 10
1397549.84428981
 20
359427.970207204
 30
0.0
 40
17.0
  0
CIRCLE
  5
73A
330
1C
100
AcDbEntity
  8
Р-1
370
     0
100
AcDbCircle
 10
1397952.2141664
 20
359114.9750172621
 30
0.0
 40
17.0
  0
CIRCLE
  5
73B
330
1C
100
AcDbEntity
  8
Р-1
370
     0
100
AcDbCircle
 10
1398157.17481291
 20
359144.55080407
 30
0.0
 40
17.0
  0
CIRCLE
  5
73C
330
1C
100
AcDbEntity
  8
Р-1
370
     0
100
AcDbCircle
 10
1398470.38555106
 20
359238.2634737821
 30
0.0
 40
17.0
  0
CIRCLE
  5
73E
330
1C
100
AcDbEntity
  8
Р-1
370
     0
100
AcDbCircle
 10
1398886.21532976
 20
359146.063885094
 30
0.0
 40
17.0
  0
CIRCLE
  5
73F
330
1C
100
AcDbEntity
  8
Р-1
370
     0
100
AcDbCircle
 10
1399093.31981361
 20
359160.011281647
 30
0.0
 40
17.0
  0
CIRCLE
  5
740
330
1C
100
AcDbEntity
  8
Р-1
370
     0
100
AcDbCircle
 10
1399118.7983825
 20
359377.724716852
 30
0.0
 40
17.0
  0
CIRCLE
  5
78E
330
1C
100
AcDbEntity
  8
Р-1
370
     0
100
AcDbCircle
 10
1394383.20632538
 20
359086.2808308071
 30
0.0
 40
12.1055889129639
  0
CIRCLE
  5
7EE
330
1C
100
AcDbEntity
  8
Р-1
370
     0
100
AcDbCircle
 10
1397381.417352274
 20
359558.3242866612
 30
0.0
 40
16.0972309112549
  0
CIRCLE
  5
7F7
330
1C
100
AcDbEntity
  8
Р-1
370
     0
100
AcDbCircle
 10
1398297.82955892
 20
359233.015595577
 30
0.0
 40
17.0
  0
CIRCLE
  5
804
330
1C
100
AcDbEntity
  8
Р-1
370
     0
100
AcDbCircle
 10
1395561.77632885
 20
360557.78646529
 30
0.0
 40
16.0
  0
CIRCLE
  5
80E
330
1C
100
AcDbEntity
  8
Р-1
370
     0
100
AcDbCircle
 10
1394599.60313399
 20
359727.338333349
 30
0.0
 40
16.0
  0
CIRCLE
  5
81C
330
1C
100
AcDbEntity
  8
Р-1
370
     0
100
AcDbCircle
 10
1399473.25586629
 20
360350.244241884
 30
0.0
 40
17.0
  0
CIRCLE
  5
838
330
1C
100
AcDbEntity
  8
Р-1
370
     0
100
AcDbCircle
 10
1391816.85776582
 20
355905.289872448
 30
0.0
 40
16.0
  0
CIRCLE
  5
839
330
1C
100
AcDbEntity
  8
Р-1
370
     0
100
AcDbCircle
 10
1393082.43280521
 20
356827.8988239121
 30
0.0
 40
17.0
  0
CIRCLE
  5
83A
330
1C
100
AcDbEntity
  8
Р-1
370
     0
100
AcDbCircle
 10
1393320.78624071
 20
357158.988426427
 30
0.0
 40
17.0
  0
CIRCLE
  5
83B
330
1C
100
AcDbEntity
  8
Р-1
370
     0
100
AcDbCircle
 10
1393269.33206922
 20
357349.067524759
 30
0.0
 40
17.0
  0
CIRCLE
  5
83C
330
1C
100
AcDbEntity
  8
Р-1
370
     0
100
AcDbCircle
 10
1393352.21310701
 20
357329.953533334
 30
0.0
 40
16.0
  0
CIRCLE
  5
83D
330
1C
100
AcDbEntity
  8
Р-1
370
     0
100
AcDbCircle
 10
1393376.55700994
 20
357445.3952520811
 30
0.0
 40
16.0
  0
CIRCLE
  5
83E
330
1C
100
AcDbEntity
  8
Р-1
370
     0
100
AcDbCircle
 10
1393037.06244755
 20
357707.509800209
 30
0.0
 40
16.0
  0
CIRCLE
  5
83F
330
1C
100
AcDbEntity
  8
Р-1
370
     0
100
AcDbCircle
 10
1393178.85009189
 20
357864.402180904
 30
0.0
 40
16.0
  0
CIRCLE
  5
840
330
1C
100
AcDbEntity
  8
Р-1
370
     0
100
AcDbCircle
 10
1393930.52926394
 20
358380.725199316
 30
0.0
 40
17.0
  0
CIRCLE
  5
841
330
1C
100
AcDbEntity
  8
Р-1
370
     0
100
AcDbCircle
 10
1393988.01962875
 20
358409.088978229
 30
0.0
 40
17.0
  0
CIRCLE
  5
842
330
1C
100
AcDbEntity
  8
Р-1
370
     0
100
AcDbCircle
 10
1394392.59634347
 20
358935.622424448
 30
0.0
 40
16.0
  0
CIRCLE
  5
843
330
1C
100
AcDbEntity
  8
Р-1
370
     0
100
AcDbCircle
 10
1394523.47752424
 20
358954.2551739671
 30
0.0
 40
16.0
  0
CIRCLE
  5
844
330
1C
100
AcDbEntity
  8
Р-1
370
     0
100
AcDbCircle
 10
1394667.96412624
 20
358965.9469080621
 30
0.0
 40
16.0
  0
CIRCLE
  5
845
330
1C
100
AcDbEntity
  8
Р-1
370
     0
100
AcDbCircle
 10
1394456.91090066
 20
359123.580626822
 30
0.0
 40
16.0
  0
CIRCLE
  5
865
330
1C
100
AcDbEntity
  8
Р-1
370
     0
100
AcDbCircle
 10
1392252.36691996
 20
356144.9146551871
 30
0.0
 40
16.0
  0
CIRCLE
  5
8B4
330
1C
100
AcDbEntity
  8
Р-1
370
     0
100
AcDbCircle
 10
1392132.1881333
 20
355888.8493796211
 30
0.0
 40
16.0
  0
CIRCLE
  5
8C3
330
1C
100
AcDbEntity
  8
Р-1
370
     0
100
AcDbCircle
 10
1393190.14311259
 20
357060.974051574
 30
0.0
 40
16.0
  0
CIRCLE
  5
8D7
330
1C
100
AcDbEntity
  8
Р-1
370
     0
100
AcDbCircle
 10
1394575.11589433
 20
359149.648573988
 30
0.0
 40
16.0
  0
CIRCLE
  5
8D9
330
1C
100
AcDbEntity
  8
Р-1
370
     0
100
AcDbCircle
 10
1393082.43280521
 20
356827.8988239121
 30
0.0
 40
17.0
  0
VIEWPORT
  5
8E1
330
8DD
100
AcDbEntity
 67
     1
  8
0
100
AcDbViewport
 10
0.0
 20
0.0
 30
0.0
 40
297.0
 41
210.0
 68
     1
 69
     1
 12
50.0
 22
100.0
 13
0.0
 23
0.0
 14
10.0
 24
10.0
 15
10.0
 25
10.0
 16
0.0
 26
0.0
 36
1.0
 17
0.0
 27
0.0
 37
0.0
 42
50.0
 43
0.0
 44
0.0
 45
250.0
 50
0.0
 51
0.0
 72
  1000
 90
   819232
  1

281
     0
 71
     1
 74
     0
110
0.0
120
0.0
130
0.0
111
1.0
121
0.0
131
0.0
112
0.0
122
1.0
132
0.0
 79
     0
146
0.0
170
     0
 61
     5
292
     1
282
     1
141
0.0
142
0.0
 63
   250
421
  3355443
  0
ENDSEC
  0
SECTION
  2
OBJECTS
  0
DICTIONARY
  5
8E6
330
0
100
AcDbDictionary
280
     1
281
     1
  3
ACAD_CIP_PREVIOUS_PRODUCT_INFO
360
93D
  3
ACAD_COLOR
360
921
  3
ACAD_DETAILVIEWSTYLE
360
93A
  3
ACAD_DGNDEFINITIONS
360
F
  3
ACAD_DWFDEFINITIONS
360
10
  3
ACAD_GROUP
360
12
  3
ACAD_IMAGE_DICT
360
E
  3
ACAD_IMAGE_VARS
360
21
  3
ACAD_LAYOUT
360
8E0
  3
ACAD_MATERIAL
360
8EF
  3
ACAD_MLEADERSTYLE
360
936
  3
ACAD_MLINESTYLE
360
B
  3
ACAD_PDFDEFINITIONS
360
11
  3
ACAD_PLOTSETTINGS
360
93C
  3
ACAD_PLOTSTYLENAME
360
8ED
  3
ACAD_SCALELIST
360
924
  3
ACAD_SECTIONVIEWSTYLE
360
938
  3
ACAD_TABLESTYLE
360
922
  3
ACAD_VISUALSTYLE
360
908
  3
ACDB_RECOMPOSE_DATA
360
9AC
  3
AcDbVariableDictionary
360
944
  0
DICTIONARY
  5
6
330
5
100
AcDbDictionary
280
     1
281
     1
  3
ACAD_LAYERSTATES
360
8E7
  0
XRECORD
  5
93D
102
{ACAD_REACTORS
330
8E6
102
}
330
8E6
100
AcDbXrecord
280
     1
300
ACD
300
2020
300
ACD_F_S
  0
DICTIONARY
  5
921
102
{ACAD_REACTORS
330
8E6
102
}
330
8E6
100
AcDbDictionary
281
     1
  0
DICTIONARY
  5
93A
102
{ACAD_REACTORS
330
8E6
102
}
330
8E6
100
AcDbDictionary
281
     1
  3
Imperial24
350
93B
  0
DICTIONARY
  5
F
330
8E6
100
AcDbDictionary
280
     1
281
     1
  0
DICTIONARY
  5
10
330
8E6
100
AcDbDictionary
280
     1
281
     1
  0
DICTIONARY
  5
12
330
8E6
100
AcDbDictionary
280
     1
281
     1
  0
DICTIONARY
  5
E
330
8E6
100
AcDbDictionary
280
     1
281
     1
  0
RASTERVARIABLES
  5
21
330
E
100
AcDbRasterVariables
 90
        0
 70
     1
 71
     1
 72
     0
  0
DICTIONARY
  5
8E0
330
8E6
100
AcDbDictionary
280
     1
281
     1
  3
Layout1
360
8E2
  3
Model
360
20
  0
DICTIONARY
  5
8EF
102
{ACAD_REACTORS
330
8E6
102
}
330
8E6
100
AcDbDictionary
281
     1
  3
ByBlock
350
8F8
  3
ByLayer
350
8F0
  3
Global
350
900
  0
DICTIONARY
  5
936
102
{ACAD_REACTORS
330
8E6
102
}
330
8E6
100
AcDbDictionary
281
     1
  3
Standard
350
937
  0
DICTIONARY
  5
B
330
8E6
100
AcDbDictionary
280
     1
281
     1
  3
Standard
360
1B
  0
DICTIONARY
  5
11
330
8E6
100
AcDbDictionary
280
     1
281
     1
  0
DICTIONARY
  5
93C
102
{ACAD_REACTORS
330
8E6
102
}
330
8E6
100
AcDbDictionary
281
     1
  0
ACDBDICTIONARYWDFLT
  5
8ED
102
{ACAD_REACTORS
330
8E6
102
}
330
8E6
100
AcDbDictionary
281
     1
  3
Normal
350
8EE
100
AcDbDictionaryWithDefault
340
8EE
  0
DICTIONARY
  5
924
102
{ACAD_REACTORS
330
8E6
102
}
330
8E6
100
AcDbDictionary
281
     1
  3
A0
350
925
  3
A1
350
926
  3
A2
350
927
  3
A3
350
928
  3
A4
350
929
  3
A5
350
92A
  3
A6
350
92B
  3
A7
350
92C
  3
A8
350
92D
  3
A9
350
92E
  3
B0
350
92F
  3
B1
350
930
  3
B2
350
931
  3
B3
350
932
  3
B4
350
933
  3
B5
350
934
  3
B6
350
935
  0
DICTIONARY
  5
938
102
{ACAD_REACTORS
330
8E6
102
}
330
8E6
100
AcDbDictionary
281
     1
  3
Imperial24
350
939
  0
DICTIONARY
  5
922
102
{ACAD_REACTORS
330
8E6
102
}
330
8E6
100
AcDbDictionary
281
     1
  3
Standard
350
923
  0
DICTIONARY
  5
908
102
{ACAD_REACTORS
330
8E6
102
}
330
8E6
100
AcDbDictionary
281
     1
  3
2dWireframe
350
90E
  3
Basic
350
90D
  3
Brighten
350
914
  3
ColorChange
350
918
  3
Conceptual
350
911
  3
Dim
350
913
  3
EdgeColorOff
350
920
  3
Facepattern
350
917
  3
Flat
350
909
  3
FlatWithEdges
350
90A
  3
Gouraud
350
90B
  3
GouraudWithEdges
350
90C
  3
Hidden
350
910
  3
JitterOff
350
91E
  3
Linepattern
350
916
  3
OverhangOff
350
91F
  3
Realistic
350
912
  3
Shaded
350
91D
  3
Shaded with edges
350
91C
  3
Shades of Gray
350
919
  3
Sketchy
350
91A
  3
Thicken
350
915
  3
Wireframe
350
90F
  3
X-Ray
350
91B
  0
XRECORD
  5
9AC
102
{ACAD_REACTORS
330
8E6
102
}
330
8E6
100
AcDbXrecord
280
     1
 90
        1
330
923
  0
DICTIONARY
  5
944
102
{ACAD_REACTORS
330
8E6
102
}
330
8E6
100
AcDbDictionary
281
     1
  3
CANNOSCALE
350
949
  3
CMLEADERSTYLE
350
946
  3
CTABLESTYLE
350
945
  3
CVIEWDETAILSTYLE
350
947
  3
CVIEWSECTIONSTYLE
350
948
  0
DICTIONARY
  5
8E7
330
6
100
AcDbDictionary
280
     1
281
     1
  0
ACDBDETAILVIEWSTYLE
  5
93B
102
{ACAD_REACTORS
330
93A
102
}
330
93A
100
AcDbModelDocViewStyle
 70
     0
  3
Imperial24
290
     0
300
Imperial24
 90
        0
100
AcDbDetailViewStyle
 70
     0
 71
     0
 90
        3
 71
     1
340
18
 62
   256
 40
0.24
340
0
 62
   256
 40
0.24
300

 40
0.36
280
     3
 71
     2
340
15
 90
       25
 62
   256
 71
     3
340
18
 62
   256
 40
0.24
 90
        1
 40
0.75
 90
        1
300
%<\AcVar ViewType \f "%tc1">% %<\AcVar ViewDetailId>%\PМАСШТАБ %<\AcVar ViewScale \f "%sn">%
 71
     4
340
15
 90
       25
 62
   256
340
15
 90
       25
 62
   256
280
     0
  0
LAYOUT
  5
8E2
330
8E0
100
AcDbPlotSettings
  1

  2
none_device
  4
ISO_A4_(210.00_x_297.00_MM)
  6

 40
7.5
 41
20.0
 42
7.5
 43
20.0
 44
210.0
 45
297.0
 46
0.0
 47
0.0
 48
0.0
 49
0.0
140
0.0
141
0.0
142
1.0
143
1.0
 70
   688
 72
     1
 73
     1
 74
     1
  7

 75
     0
147
1.0
 76
     0
 77
     2
 78
   300
148
0.0
149
0.0
100
AcDbLayout
  1
Layout1
 70
     1
 71
     1
 10
0.0
 20
0.0
 11
12.0
 21
9.0
 12
0.0
 22
0.0
 32
0.0
 14
1.000000000000000E+20
 24
1.000000000000000E+20
 34
1.000000000000000E+20
 15
-1.000000000000000E+20
 25
-1.000000000000000E+20
 35
-1.000000000000000E+20
146
0.0
 13
0.0
 23
0.0
 33
0.0
 16
1.0
 26
0.0
 36
0.0
 17
0.0
 27
1.0
 37
0.0
 76
     0
330
8DD
331
8E1
  0
LAYOUT
  5
20
330
8E0
100
AcDbPlotSettings
  1

  2
none_device
  4
ISO_A4_(210.00_x_297.00_MM)
  6

 40
7.5
 41
20.0
 42
7.5
 43
20.0
 44
210.0
 45
297.0
 46
0.0
 47
0.0
 48
0.0
 49
0.0
140
0.0
141
0.0
142
1.0
143
1.0
 70
 11952
 72
     1
 73
     1
 74
     1
  7

 75
     0
147
1.0
 76
     0
 77
     2
 78
   300
148
0.0
149
0.0
100
AcDbLayout
  1
Model
 70
     1
 71
     0
 10
1370580.19114949
 20
317189.6127665851
 11
1399948.38546234
 21
361044.1753811011
 12
0.0
 22
0.0
 32
0.0
 14
1399948.38546234
 24
361044.1753811011
 34
0.0
 15
231.3
 25
175.5
 35
0.0
146
0.0
 13
0.0
 23
0.0
 33
0.0
 16
1.0
 26
0.0
 36
0.0
 17
0.0
 27
1.0
 37
0.0
 76
     0
330
1C
331
2
  0
MATERIAL
  5
8F8
102
{ACAD_XDICTIONARY
360
8F9
102
}
102
{ACAD_REACTORS
330
8EF
102
}
330
8EF
100
AcDbMaterial
  1
ByBlock
 72
     0
 43
0.0208333333333333
 43
0.0
 43
0.0
 43
0.0
 43
0.0
 43
0.0208333333333333
 43
0.0
 43
0.0
 43
0.0
 43
0.0
 43
1.0
 43
0.0
 43
0.0
 43
0.0
 43
0.0
 43
1.0
 77
     0
 47
0.0208333333333333
 47
0.0
 47
0.0
 47
0.0
 47
0.0
 47
0.0208333333333333
 47
0.0
 47
0.0
 47
0.0
 47
0.0
 47
1.0
 47
0.0
 47
0.0
 47
0.0
 47
0.0
 47
1.0
171
     0
 49
0.0208333333333333
 49
0.0
 49
0.0
 49
0.0
 49
0.0
 49
0.0208333333333333
 49
0.0
 49
0.0
 49
0.0
 49
0.0
 49
1.0
 49
0.0
 49
0.0
 49
0.0
 49
0.0
 49
1.0
175
     0
142
0.0208333333333333
142
0.0
142
0.0
142
0.0
142
0.0
142
0.0208333333333333
142
0.0
142
0.0
142
0.0
142
0.0
142
1.0
142
0.0
142
0.0
142
0.0
142
0.0
142
1.0
179
     0
144
0.0208333333333333
144
0.0
144
0.0
144
0.0
144
0.0
144
0.0208333333333333
144
0.0
144
0.0
144
0.0
144
0.0
144
1.0
144
0.0
144
0.0
144
0.0
144
0.0
144
1.0
147
0.0208333333333333
147
0.0
147
0.0
147
0.0
147
0.0
147
0.0208333333333333
147
0.0
147
0.0
147
0.0
147
0.0
147
1.0
147
0.0
147
0.0
147
0.0
147
0.0
147
1.0
  0
MATERIAL
  5
8F0
102
{ACAD_XDICTIONARY
360
8F1
102
}
102
{ACAD_REACTORS
330
8EF
102
}
330
8EF
100
AcDbMaterial
  1
ByLayer
 72
     0
 43
0.0208333333333333
 43
0.0
 43
0.0
 43
0.0
 43
0.0
 43
0.0208333333333333
 43
0.0
 43
0.0
 43
0.0
 43
0.0
 43
1.0
 43
0.0
 43
0.0
 43
0.0
 43
0.0
 43
1.0
 77
     0
 47
0.0208333333333333
 47
0.0
 47
0.0
 47
0.0
 47
0.0
 47
0.0208333333333333
 47
0.0
 47
0.0
 47
0.0
 47
0.0
 47
1.0
 47
0.0
 47
0.0
 47
0.0
 47
0.0
 47
1.0
171
     0
 49
0.0208333333333333
 49
0.0
 49
0.0
 49
0.0
 49
0.0
 49
0.0208333333333333
 49
0.0
 49
0.0
 49
0.0
 49
0.0
 49
1.0
 49
0.0
 49
0.0
 49
0.0
 49
0.0
 49
1.0
175
     0
142
0.0208333333333333
142
0.0
142
0.0
142
0.0
142
0.0
142
0.0208333333333333
142
0.0
142
0.0
142
0.0
142
0.0
142
1.0
142
0.0
142
0.0
142
0.0
142
0.0
142
1.0
179
     0
144
0.0208333333333333
144
0.0
144
0.0
144
0.0
144
0.0
144
0.0208333333333333
144
0.0
144
0.0
144
0.0
144
0.0
144
1.0
144
0.0
144
0.0
144
0.0
144
0.0
144
1.0
147
0.0208333333333333
147
0.0
147
0.0
147
0.0
147
0.0
147
0.0208333333333333
147
0.0
147
0.0
147
0.0
147
0.0
147
1.0
147
0.0
147
0.0
147
0.0
147
0.0
147
1.0
  0
MATERIAL
  5
900
102
{ACAD_XDICTIONARY
360
901
102
}
102
{ACAD_REACTORS
330
8EF
102
}
330
8EF
100
AcDbMaterial
  1
Global
 72
     0
 43
0.0208333333333333
 43
0.0
 43
0.0
 43
0.0
 43
0.0
 43
0.0208333333333333
 43
0.0
 43
0.0
 43
0.0
 43
0.0
 43
1.0
 43
0.0
 43
0.0
 43
0.0
 43
0.0
 43
1.0
 77
     0
 47
0.0208333333333333
 47
0.0
 47
0.0
 47
0.0
 47
0.0
 47
0.0208333333333333
 47
0.0
 47
0.0
 47
0.0
 47
0.0
 47
1.0
 47
0.0
 47
0.0
 47
0.0
 47
0.0
 47
1.0
171
     0
 49
0.0208333333333333
 49
0.0
 49
0.0
 49
0.0
 49
0.0
 49
0.0208333333333333
 49
0.0
 49
0.0
 49
0.0
 49
0.0
 49
1.0
 49
0.0
 49
0.0
 49
0.0
 49
0.0
 49
1.0
175
     0
142
0.0208333333333333
142
0.0
142
0.0
142
0.0
142
0.0
142
0.0208333333333333
142
0.0
142
0.0
142
0.0
142
0.0
142
1.0
142
0.0
142
0.0
142
0.0
142
0.0
142
1.0
179
     0
144
0.0208333333333333
144
0.0
144
0.0
144
0.0
144
0.0
144
0.0208333333333333
144
0.0
144
0.0
144
0.0
144
0.0
144
1.0
144
0.0
144
0.0
144
0.0
144
0.0
144
1.0
147
0.0208333333333333
147
0.0
147
0.0
147
0.0
147
0.0
147
0.0208333333333333
147
0.0
147
0.0
147
0.0
147
0.0
147
1.0
147
0.0
147
0.0
147
0.0
147
0.0
147
1.0
  0
MLEADERSTYLE
  5
937
102
{ACAD_REACTORS
330
936
102
}
330
936
100
AcDbMLeaderStyle
179
     2
170
     2
171
     1
172
     0
 90
        2
 40
0.0
 41
0.0
173
     1
 91
-1056964608
340
17
 92
       -2
290
     1
 42
0.09
291
     1
 43
0.36
  3
Standard
 44
0.18
300

342
18
174
     1
178
     6
175
     1
176
     0
 93
-1056964608
 45
0.18
292
     0
297
     0
 46
0.18
 94
-1056964608
 47
1.0
 49
1.0
140
1.0
293
     1
141
0.0
294
     1
177
     0
142
1.0
295
     0
296
     0
143
0.125
271
     0
272
     9
273
     9
298
     0
  0
MLINESTYLE
  5
1B
330
B
100
AcDbMlineStyle
  2
STANDARD
 70
     0
  3

 62
   256
 51
90.0
 52
90.0
 71
     2
 49
0.5
 62
   256
  6
BYLAYER
 49
-0.5
 62
   256
  6
BYLAYER
  0
ACDBPLACEHOLDER
  5
8EE
102
{ACAD_REACTORS
330
8ED
102
}
330
8ED
  0
SCALE
  5
925
102
{ACAD_REACTORS
330
924
102
}
330
924
100
AcDbScale
 70
     0
300
1:1
140
1.0
141
1.0
290
     1
  0
SCALE
  5
926
102
{ACAD_REACTORS
330
924
102
}
330
924
100
AcDbScale
 70
     0
300
1/128" = 1'-0"
140
0.0078125
141
12.0
290
     0
  0
SCALE
  5
927
102
{ACAD_REACTORS
330
924
102
}
330
924
100
AcDbScale
 70
     0
300
1/64" = 1'-0"
140
0.015625
141
12.0
290
     0
  0
SCALE
  5
928
102
{ACAD_REACTORS
330
924
102
}
330
924
100
AcDbScale
 70
     0
300
1/32" = 1'-0"
140
0.03125
141
12.0
290
     0
  0
SCALE
  5
929
102
{ACAD_REACTORS
330
924
102
}
330
924
100
AcDbScale
 70
     0
300
1/16" = 1'-0"
140
0.0625
141
12.0
290
     0
  0
SCALE
  5
92A
102
{ACAD_REACTORS
330
924
102
}
330
924
100
AcDbScale
 70
     0
300
3/32" = 1'-0"
140
0.09375
141
12.0
290
     0
  0
SCALE
  5
92B
102
{ACAD_REACTORS
330
924
102
}
330
924
100
AcDbScale
 70
     0
300
1/8" = 1'-0"
140
0.125
141
12.0
290
     0
  0
SCALE
  5
92C
102
{ACAD_REACTORS
330
924
102
}
330
924
100
AcDbScale
 70
     0
300
3/16" = 1'-0"
140
0.1875
141
12.0
290
     0
  0
SCALE
  5
92D
102
{ACAD_REACTORS
330
924
102
}
330
924
100
AcDbScale
 70
     0
300
1/4" = 1'-0"
140
0.25
141
12.0
290
     0
  0
SCALE
  5
92E
102
{ACAD_REACTORS
330
924
102
}
330
924
100
AcDbScale
 70
     0
300
3/8" = 1'-0"
140
0.375
141
12.0
290
     0
  0
SCALE
  5
92F
102
{ACAD_REACTORS
330
924
102
}
330
924
100
AcDbScale
 70
     0
300
1/2" = 1'-0"
140
0.5
141
12.0
290
     0
  0
SCALE
  5
930
102
{ACAD_REACTORS
330
924
102
}
330
924
100
AcDbScale
 70
     0
300
3/4" = 1'-0"
140
0.75
141
12.0
290
     0
  0
SCALE
  5
931
102
{ACAD_REACTORS
330
924
102
}
330
924
100
AcDbScale
 70
     0
300
1" = 1'-0"
140
1.0
141
12.0
290
     0
  0
SCALE
  5
932
102
{ACAD_REACTORS
330
924
102
}
330
924
100
AcDbScale
 70
     0
300
1-1/2" = 1'-0"
140
1.5
141
12.0
290
     0
  0
SCALE
  5
933
102
{ACAD_REACTORS
330
924
102
}
330
924
100
AcDbScale
 70
     0
300
3" = 1'-0"
140
3.0
141
12.0
290
     0
  0
SCALE
  5
934
102
{ACAD_REACTORS
330
924
102
}
330
924
100
AcDbScale
 70
     0
300
6" = 1'-0"
140
6.0
141
12.0
290
     0
  0
SCALE
  5
935
102
{ACAD_REACTORS
330
924
102
}
330
924
100
AcDbScale
 70
     0
300
1'-0" = 1'-0"
140
12.0
141
12.0
290
     0
  0
ACDBSECTIONVIEWSTYLE
  5
939
102
{ACAD_REACTORS
330
938
102
}
330
938
100
AcDbModelDocViewStyle
 70
     0
  3
Imperial24
290
     0
300
Imperial24
 90
        0
100
AcDbSectionViewStyle
 70
     0
 71
     0
 90
       78
 71
     1
340
18
 62
   256
 40
0.24
340
0
340
0
 62
   256
 40
0.24
300
I, O, Q, S, X, Z
 40
0.48
 90
        3
 40
0.18
 90
        1
 71
     2
340
15
 90
       25
 62
   256
340
15
 90
       50
 62
   256
 40
0.24
 40
0.0
 40
0.24
 71
     3
340
18
 62
   256
 40
0.24
 90
        1
 40
0.75
 90
        1
300
%<\AcVar ViewType \f "%tc1">% %<\AcVar ViewSectionStartId>%-%<\AcVar ViewSectionEndId>%\PМАСШТАБ %<\AcVar ViewScale \f "%sn">%
 71
     4
 62
   256
 62
   257
300
ANSI31
 40
1.0
 90
        0
290
     0
290
     0
 90
        6
 40
0.0
 40
1.570796326794896
 40
0.2617993877991494
 40
1.308996938995747
 40
-0.2617993877991494
 40
1.832595714594046
  0
TABLESTYLE
  5
923
102
{ACAD_XDICTIONARY
360
9AA
102
}
102
{ACAD_REACTORS
330
922
102
}
330
922
100
AcDbTableStyle
280
     0
  3
Standard
 70
     0
 71
     0
 40
0.06
 41
0.06
280
     0
281
     0
  7
Standard
140
0.18
170
     2
 62
     0
 63
     7
283
     0
 90
      512
 91
        0
  1

274
    -2
284
     1
 64
     0
275
    -2
285
     1
 65
     0
276
    -2
286
     1
 66
     0
277
    -2
287
     1
 67
     0
278
    -2
288
     1
 68
     0
279
    -2
289
     1
 69
     0
  7
Standard
140
0.25
170
     5
 62
     0
 63
     7
283
     0
 90
      512
 91
        0
  1

274
    -2
284
     1
 64
     0
275
    -2
285
     1
 65
     0
276
    -2
286
     1
 66
     0
277
    -2
287
     1
 67
     0
278
    -2
288
     1
 68
     0
279
    -2
289
     1
 69
     0
  7
Standard
140
0.18
170
     5
 62
     0
 63
     7
283
     0
 90
      512
 91
        0
  1

274
    -2
284
     1
 64
     0
275
    -2
285
     1
 65
     0
276
    -2
286
     1
 66
     0
277
    -2
287
     1
 67
     0
278
    -2
288
     1
 68
     0
279
    -2
289
     1
 69
     0
  0
VISUALSTYLE
  5
90E
102
{ACAD_REACTORS
330
908
102
}
330
908
100
AcDbVisualStyle
  2
2dWireframe
 70
     4
177
     3
291
     0
 70
    58
 90
        0
176
     1
 90
        2
176
     1
 90
        0
176
     1
 90
        0
176
     1
 40
0.6
176
     1
 40
30.0
176
     1
 62
     7
420
 16777215
176
     1
 90
        1
176
     1
 90
        4
176
     1
 62
     7
176
     1
 62
   257
176
     1
 90
        1
176
     1
 90
        1
176
     1
 40
1.0
176
     1
 90
        0
176
     1
 62
   257
176
     1
 40
1.0
176
     1
 90
        1
176
     1
 90
        6
176
     1
 90
        2
176
     1
 62
     7
176
     1
 90
        5
176
     1
 90
        0
176
     1
 90
        0
176
     1
290
     0
176
     1
 90
        1
176
     1
 40
0.0
176
     1
 90
        0
176
     1
290
     1
176
     1
290
     1
176
     1
290
     0
176
     1
290
     0
176
     1
290
     0
176
     1
290
     0
176
     1
290
     0
176
     1
290
     0
176
     1
290
     0
176
     1
 90
       50
176
     1
 40
0.0
176
     1
 40
1.0
176
     1
 90
        0
176
     1
 62
    18
420
        0
176
     1
 90
       50
176
     1
 90
        3
176
     1
 62
     5
420
      255
176
     1
290
     0
176
     1
 90
       50
176
     1
 90
       50
176
     1
 90
       50
176
     1
290
     0
176
     1
 90
       50
176
     1
 62
   256
176
     0
 40
1.0
176
     0
 90
        2
176
     1
  1
strokes_ogs.tif
176
     1
290
     0
176
     1
 40
1.0
176
     1
 40
1.0
176
     1
  0
VISUALSTYLE
  5
90D
102
{ACAD_REACTORS
330
908
102
}
330
908
100
AcDbVisualStyle
  2
Basic
 70
     7
177
     3
291
     1
 70
    58
 90
        1
176
     1
 90
        0
176
     1
 90
        1
176
     1
 90
        0
176
     1
 40
0.6
176
     1
 40
30.0
176
     1
 62
     7
420
 16777215
176
     1
 90
        0
176
     1
 90
        4
176
     1
 62
     7
176
     1
 62
   257
176
     1
 90
        1
176
     1
 90
        1
176
     1
 40
1.0
176
     1
 90
        8
176
     1
 62
     7
176
     1
 40
1.0
176
     1
 90
        1
176
     1
 90
        6
176
     1
 90
        2
176
     1
 62
     7
176
     1
 90
        5
176
     1
 90
        0
176
     1
 90
        0
176
     1
290
     0
176
     1
 90
        1
176
     1
 40
0.0
176
     1
 90
        0
176
     1
290
     0
176
     1
290
     1
176
     1
290
     1
176
     1
290
     0
176
     1
290
     0
176
     1
290
     0
176
     1
290
     0
176
     1
290
     0
176
     1
290
     0
176
     1
 90
       50
176
     1
 40
0.0
176
     1
 40
1.0
176
     1
 90
        0
176
     1
 62
    18
420
        0
176
     1
 90
       50
176
     1
 90
        3
176
     1
 62
     5
420
      255
176
     1
290
     0
176
     1
 90
       50
176
     1
 90
       50
176
     1
 90
       50
176
     1
290
     0
176
     1
 90
       50
176
     1
 62
   256
176
     0
 40
1.0
176
     0
 90
        2
176
     1
  1
strokes_ogs.tif
176
     1
290
     0
176
     1
 40
1.0
176
     1
 40
1.0
176
     1
  0
VISUALSTYLE
  5
914
102
{ACAD_REACTORS
330
908
102
}
330
908
100
AcDbVisualStyle
  2
Brighten
 70
    12
177
     3
291
     1
 70
    58
 90
        2
176
     1
 90
        2
176
     1
 90
        0
176
     1
 90
        0
176
     1
 40
0.6
176
     1
 40
30.0
176
     1
 62
     7
420
 16777215
176
     1
 90
        1
176
     1
 90
        4
176
     1
 62
     7
176
     1
 62
   257
176
     1
 90
        1
176
     1
 90
        1
176
     1
 40
1.0
176
     1
 90
        8
176
     1
 62
     7
176
     1
 40
1.0
176
     1
 90
        1
176
     1
 90
        6
176
     1
 90
        2
176
     1
 62
     7
176
     1
 90
        5
176
     1
 90
        0
176
     1
 90
        0
176
     1
290
     0
176
     1
 90
        1
176
     1
 40
50.0
176
     1
 90
        0
176
     1
290
     0
176
     1
290
     1
176
     1
290
     1
176
     1
290
     0
176
     1
290
     0
176
     1
290
     0
176
     1
290
     0
176
     1
290
     0
176
     1
290
     0
176
     1
 90
       50
176
     1
 40
0.0
176
     1
 40
1.0
176
     1
 90
        0
176
     1
 62
    18
420
        0
176
     1
 90
       50
176
     1
 90
        3
176
     1
 62
     5
420
      255
176
     1
290
     0
176
     1
 90
       50
176
     1
 90
       50
176
     1
 90
       50
176
     1
290
     0
176
     1
 90
       50
176
     1
 62
   256
176
     0
 40
1.0
176
     0
 90
        2
176
     1
  1
strokes_ogs.tif
176
     1
290
     0
176
     1
 40
1.0
176
     1
 40
1.0
176
     1
  0
VISUALSTYLE
  5
918
102
{ACAD_REACTORS
330
908
102
}
330
908
100
AcDbVisualStyle
  2
ColorChange
 70
    16
177
     3
291
     1
 70
    58
 90
        2
176
     1
 90
        2
176
     1
 90
        3
176
     1
 90
        0
176
     1
 40
0.6
176
     1
 40
30.0
176
     1
 62
     8
420
  8421504
176
     1
 90
        1
176
     1
 90
        4
176
     1
 62
     7
176
     1
 62
   257
176
     1
 90
        1
176
     1
 90
        1
176
     1
 40
1.0
176
     1
 90
        8
176
     1
 62
     8
420
  8421504
176
     1
 40
1.0
176
     1
 90
        1
176
     1
 90
        6
176
     1
 90
        2
176
     1
 62
     7
176
     1
 90
        5
176
     1
 90
        0
176
     1
 90
        0
176
     1
290
     0
176
     1
 90
        1
176
     1
 40
0.0
176
     1
 90
        0
176
     1
290
     0
176
     1
290
     1
176
     1
290
     1
176
     1
290
     0
176
     1
290
     0
176
     1
290
     0
176
     1
290
     0
176
     1
290
     0
176
     1
290
     0
176
     1
 90
       50
176
     1
 40
0.0
176
     1
 40
1.0
176
     1
 90
        0
176
     1
 62
    18
420
        0
176
     1
 90
       50
176
     1
 90
        3
176
     1
 62
     5
420
      255
176
     1
290
     0
176
     1
 90
       50
176
     1
 90
       50
176
     1
 90
       50
176
     1
290
     0
176
     1
 90
       50
176
     1
 62
   256
176
     0
 40
1.0
176
     0
 90
        2
176
     1
  1
strokes_ogs.tif
176
     1
290
     0
176
     1
 40
1.0
176
     1
 40
1.0
176
     1
  0
VISUALSTYLE
  5
911
102
{ACAD_REACTORS
330
908
102
}
330
908
100
AcDbVisualStyle
  2
Conceptual
 70
     9
177
     3
291
     0
 70
    58
 90
        3
176
     1
 90
        2
176
     1
 90
        0
176
     1
 90
        0
176
     1
 40
0.6
176
     1
 40
30.0
176
     1
 62
     7
420
 16777215
176
     1
 90
        2
176
     1
 90
        2
176
     1
 62
     7
176
     1
 62
   257
176
     1
 90
        1
176
     1
 90
        1
176
     1
 40
179.0
176
     1
 90
        8
176
     1
 62
     7
176
     1
 40
1.0
176
     1
 90
        1
176
     1
 90
        6
176
     1
 90
        2
176
     1
 62
     7
176
     1
 90
        3
176
     1
 90
        0
176
     1
 90
        0
176
     1
290
     0
176
     1
 90
        1
176
     1
 40
0.0
176
     1
 90
        0
176
     1
290
     0
176
     1
290
     1
176
     1
290
     1
176
     1
290
     0
176
     1
290
     0
176
     1
290
     0
176
     1
290
     0
176
     1
290
     0
176
     1
290
     0
176
     1
 90
       50
176
     1
 40
0.0
176
     1
 40
1.0
176
     1
 90
        0
176
     1
 62
    18
420
        0
176
     1
 90
       50
176
     1
 90
        3
176
     1
 62
     5
420
      255
176
     1
290
     0
176
     1
 90
       50
176
     1
 90
       50
176
     1
 90
       50
176
     1
290
     0
176
     1
 90
       50
176
     1
 62
   256
176
     0
 40
1.0
176
     0
 90
        2
176
     1
  1
strokes_ogs.tif
176
     1
290
     0
176
     1
 40
1.0
176
     1
 40
1.0
176
     1
  0
VISUALSTYLE
  5
913
102
{ACAD_REACTORS
330
908
102
}
330
908
100
AcDbVisualStyle
  2
Dim
 70
    11
177
     3
291
     1
 70
    58
 90
        2
176
     1
 90
        2
176
     1
 90
        0
176
     1
 90
        0
176
     1
 40
0.6
176
     1
 40
30.0
176
     1
 62
     7
420
 16777215
176
     1
 90
        1
176
     1
 90
        4
176
     1
 62
     7
176
     1
 62
   257
176
     1
 90
        1
176
     1
 90
        1
176
     1
 40
1.0
176
     1
 90
        8
176
     1
 62
     7
176
     1
 40
1.0
176
     1
 90
        1
176
     1
 90
        6
176
     1
 90
        2
176
     1
 62
     7
176
     1
 90
        5
176
     1
 90
        0
176
     1
 90
        0
176
     1
290
     0
176
     1
 90
        1
176
     1
 40
-50.0
176
     1
 90
        0
176
     1
290
     0
176
     1
290
     1
176
     1
290
     1
176
     1
290
     0
176
     1
290
     0
176
     1
290
     0
176
     1
290
     0
176
     1
290
     0
176
     1
290
     0
176
     1
 90
       50
176
     1
 40
0.0
176
     1
 40
1.0
176
     1
 90
        0
176
     1
 62
    18
420
        0
176
     1
 90
       50
176
     1
 90
        3
176
     1
 62
     5
420
      255
176
     1
290
     0
176
     1
 90
       50
176
     1
 90
       50
176
     1
 90
       50
176
     1
290
     0
176
     1
 90
       50
176
     1
 62
   256
176
     0
 40
1.0
176
     0
 90
        2
176
     1
  1
strokes_ogs.tif
176
     1
290
     0
176
     1
 40
1.0
176
     1
 40
1.0
176
     1
  0
VISUALSTYLE
  5
920
102
{ACAD_REACTORS
330
908
102
}
330
908
100
AcDbVisualStyle
  2
EdgeColorOff
 70
    22
177
     3
291
     1
 70
    58
 90
        2
176
     0
 90
        2
176
     0
 90
        0
176
     0
 90
        0
176
     0
 40
0.6
176
     0
 40
30.0
176
     0
 62
     7
420
 16777215
176
     0
 90
        1
176
     0
 90
        4
176
     0
 62
     7
176
     0
 62
   257
176
     0
 90
        1
176
     0
 90
        1
176
     0
 40
1.0
176
     0
 90
        8
176
     2
 62
     7
176
     0
 40
1.0
176
     0
 90
        1
176
     0
 90
        6
176
     0
 90
        2
176
     0
 62
     7
176
     0
 90
        5
176
     0
 90
        0
176
     0
 90
        0
176
     0
290
     0
176
     0
 90
        1
176
     0
 40
0.0
176
     0
 90
        0
176
     0
290
     0
176
     1
290
     1
176
     1
290
     1
176
     1
290
     0
176
     1
290
     0
176
     1
290
     0
176
     1
290
     0
176
     1
290
     0
176
     1
290
     0
176
     1
 90
       50
176
     0
 40
0.0
176
     0
 40
1.0
176
     0
 90
        0
176
     0
 62
    18
420
        0
176
     0
 90
       50
176
     0
 90
        3
176
     0
 62
     5
420
      255
176
     0
290
     0
176
     1
 90
       50
176
     0
 90
       50
176
     0
 90
       50
176
     0
290
     0
176
     1
 90
       50
176
     0
 62
   256
176
     0
 40
1.0
176
     0
 90
        2
176
     0
  1
strokes_ogs.tif
176
     0
290
     0
176
     1
 40
1.0
176
     0
 40
1.0
176
     0
  0
VISUALSTYLE
  5
917
102
{ACAD_REACTORS
330
908
102
}
330
908
100
AcDbVisualStyle
  2
Facepattern
 70
    15
177
     3
291
     1
 70
    58
 90
        2
176
     1
 90
        2
176
     1
 90
        0
176
     1
 90
        0
176
     1
 40
0.6
176
     1
 40
30.0
176
     1
 62
     7
420
 16777215
176
     1
 90
        1
176
     1
 90
        4
176
     1
 62
     7
176
     1
 62
   257
176
     1
 90
        1
176
     1
 90
        1
176
     1
 40
1.0
176
     1
 90
        8
176
     1
 62
     7
176
     1
 40
1.0
176
     1
 90
        1
176
     1
 90
        6
176
     1
 90
        2
176
     1
 62
     7
176
     1
 90
        5
176
     1
 90
        0
176
     1
 90
        0
176
     1
290
     0
176
     1
 90
        1
176
     1
 40
0.0
176
     1
 90
        0
176
     1
290
     0
176
     1
290
     1
176
     1
290
     1
176
     1
290
     0
176
     1
290
     0
176
     1
290
     0
176
     1
290
     0
176
     1
290
     0
176
     1
290
     0
176
     1
 90
       50
176
     1
 40
0.0
176
     1
 40
1.0
176
     1
 90
        0
176
     1
 62
    18
420
        0
176
     1
 90
       50
176
     1
 90
        3
176
     1
 62
     5
420
      255
176
     1
290
     0
176
     1
 90
       50
176
     1
 90
       50
176
     1
 90
       50
176
     1
290
     0
176
     1
 90
       50
176
     1
 62
   256
176
     0
 40
1.0
176
     0
 90
        2
176
     1
  1
strokes_ogs.tif
176
     1
290
     0
176
     1
 40
1.0
176
     1
 40
1.0
176
     1
  0
VISUALSTYLE
  5
909
102
{ACAD_REACTORS
330
908
102
}
330
908
100
AcDbVisualStyle
  2
Flat
 70
     0
177
     3
291
     1
 70
    58
 90
        2
176
     1
 90
        1
176
     1
 90
        1
176
     1
 90
        2
176
     1
 40
0.6
176
     1
 40
30.0
176
     1
 62
     7
420
 16777215
176
     1
 90
        0
176
     1
 90
        0
176
     1
 62
     7
176
     1
 62
   257
176
     1
 90
        1
176
     1
 90
        1
176
     1
 40
1.0
176
     1
 90
        8
176
     1
 62
     7
176
     1
 40
1.0
176
     1
 90
        1
176
     1
 90
        6
176
     1
 90
        2
176
     1
 62
     7
176
     1
 90
        5
176
     1
 90
        0
176
     1
 90
        0
176
     1
290
     0
176
     1
 90
       13
176
     1
 40
0.0
176
     1
 90
        0
176
     1
290
     0
176
     1
290
     1
176
     1
290
     1
176
     1
290
     0
176
     1
290
     0
176
     1
290
     0
176
     1
290
     0
176
     1
290
     0
176
     1
290
     0
176
     1
 90
       50
176
     1
 40
0.0
176
     1
 40
1.0
176
     1
 90
        0
176
     1
 62
    18
420
        0
176
     1
 90
       50
176
     1
 90
        3
176
     1
 62
     5
420
      255
176
     1
290
     0
176
     1
 90
       50
176
     1
 90
       50
176
     1
 90
       50
176
     1
290
     0
176
     1
 90
       50
176
     1
 62
   256
176
     0
 40
1.0
176
     0
 90
        2
176
     1
  1
strokes_ogs.tif
176
     1
290
     0
176
     1
 40
1.0
176
     1
 40
1.0
176
     1
  0
VISUALSTYLE
  5
90A
102
{ACAD_REACTORS
330
908
102
}
330
908
100
AcDbVisualStyle
  2
FlatWithEdges
 70
     1
177
     3
291
     1
 70
    58
 90
        2
176
     1
 90
        1
176
     1
 90
        1
176
     1
 90
        2
176
     1
 40
0.6
176
     1
 40
30.0
176
     1
 62
     7
420
 16777215
176
     1
 90
        1
176
     1
 90
        0
176
     1
 62
     7
176
     1
 62
   257
176
     1
 90
        1
176
     1
 90
        1
176
     1
 40
1.0
176
     1
 90
        0
176
     1
 62
   257
176
     1
 40
1.0
176
     1
 90
        1
176
     1
 90
        6
176
     1
 90
        2
176
     1
 62
     7
176
     1
 90
        5
176
     1
 90
        0
176
     1
 90
        0
176
     1
290
     0
176
     1
 90
       13
176
     1
 40
0.0
176
     1
 90
        0
176
     1
290
     0
176
     1
290
     1
176
     1
290
     1
176
     1
290
     0
176
     1
290
     0
176
     1
290
     0
176
     1
290
     0
176
     1
290
     0
176
     1
290
     0
176
     1
 90
       50
176
     1
 40
0.0
176
     1
 40
1.0
176
     1
 90
        0
176
     1
 62
    18
420
        0
176
     1
 90
       50
176
     1
 90
        3
176
     1
 62
     5
420
      255
176
     1
290
     0
176
     1
 90
       50
176
     1
 90
       50
176
     1
 90
       50
176
     1
290
     0
176
     1
 90
       50
176
     1
 62
   256
176
     0
 40
1.0
176
     0
 90
        2
176
     1
  1
strokes_ogs.tif
176
     1
290
     0
176
     1
 40
1.0
176
     1
 40
1.0
176
     1
  0
VISUALSTYLE
  5
90B
102
{ACAD_REACTORS
330
908
102
}
330
908
100
AcDbVisualStyle
  2
Gouraud
 70
     2
177
     3
291
     1
 70
    58
 90
        2
176
     1
 90
        2
176
     1
 90
        1
176
     1
 90
        2
176
     1
 40
0.6
176
     1
 40
30.0
176
     1
 62
     7
420
 16777215
176
     1
 90
        0
176
     1
 90
        0
176
     1
 62
     7
176
     1
 62
   257
176
     1
 90
        1
176
     1
 90
        1
176
     1
 40
1.0
176
     1
 90
        0
176
     1
 62
     7
176
     1
 40
1.0
176
     1
 90
        1
176
     1
 90
        6
176
     1
 90
        2
176
     1
 62
     7
176
     1
 90
        5
176
     1
 90
        0
176
     1
 90
        0
176
     1
290
     0
176
     1
 90
       13
176
     1
 40
0.0
176
     1
 90
        0
176
     1
290
     0
176
     1
290
     1
176
     1
290
     1
176
     1
290
     0
176
     1
290
     0
176
     1
290
     0
176
     1
290
     0
176
     1
290
     0
176
     1
290
     0
176
     1
 90
       50
176
     1
 40
0.0
176
     1
 40
1.0
176
     1
 90
        0
176
     1
 62
    18
420
        0
176
     1
 90
       50
176
     1
 90
        3
176
     1
 62
     5
420
      255
176
     1
290
     0
176
     1
 90
       50
176
     1
 90
       50
176
     1
 90
       50
176
     1
290
     0
176
     1
 90
       50
176
     1
 62
   256
176
     0
 40
1.0
176
     0
 90
        2
176
     1
  1
strokes_ogs.tif
176
     1
290
     0
176
     1
 40
1.0
176
     1
 40
1.0
176
     1
  0
VISUALSTYLE
  5
90C
102
{ACAD_REACTORS
330
908
102
}
330
908
100
AcDbVisualStyle
  2
GouraudWithEdges
 70
     3
177
     3
291
     1
 70
    58
 90
        2
176
     1
 90
        2
176
     1
 90
        1
176
     1
 90
        2
176
     1
 40
0.6
176
     1
 40
30.0
176
     1
 62
     7
420
 16777215
176
     1
 90
        1
176
     1
 90
        0
176
     1
 62
     7
176
     1
 62
   257
176
     1
 90
        1
176
     1
 90
        1
176
     1
 40
1.0
176
     1
 90
        0
176
     1
 62
   257
176
     1
 40
1.0
176
     1
 90
        1
176
     1
 90
        6
176
     1
 90
        2
176
     1
 62
     7
176
     1
 90
        5
176
     1
 90
        0
176
     1
 90
        0
176
     1
290
     0
176
     1
 90
       13
176
     1
 40
0.0
176
     1
 90
        0
176
     1
290
     0
176
     1
290
     1
176
     1
290
     1
176
     1
290
     0
176
     1
290
     0
176
     1
290
     0
176
     1
290
     0
176
     1
290
     0
176
     1
290
     0
176
     1
 90
       50
176
     1
 40
0.0
176
     1
 40
1.0
176
     1
 90
        0
176
     1
 62
    18
420
        0
176
     1
 90
       50
176
     1
 90
        3
176
     1
 62
     5
420
      255
176
     1
290
     0
176
     1
 90
       50
176
     1
 90
       50
176
     1
 90
       50
176
     1
290
     0
176
     1
 90
       50
176
     1
 62
   256
176
     0
 40
1.0
176
     0
 90
        2
176
     1
  1
strokes_ogs.tif
176
     1
290
     0
176
     1
 40
1.0
176
     1
 40
1.0
176
     1
  0
VISUALSTYLE
  5
910
102
{ACAD_REACTORS
330
908
102
}
330
908
100
AcDbVisualStyle
  2
Hidden
 70
     6
177
     3
291
     0
 70
    58
 90
        1
176
     1
 90
        2
176
     1
 90
        2
176
     1
 90
        0
176
     1
 40
0.6
176
     1
 40
30.0
176
     1
 62
     7
420
 16777215
176
     1
 90
        2
176
     1
 90
        2
176
     1
 62
     7
176
     1
 62
   257
176
     1
 90
        2
176
     1
 90
        1
176
     1
 40
40.0
176
     1
 90
        0
176
     1
 62
   257
176
     1
 40
1.0
176
     1
 90
        1
176
     1
 90
        6
176
     1
 90
        2
176
     1
 62
     7
176
     1
 90
        3
176
     1
 90
        0
176
     1
 90
        0
176
     1
290
     0
176
     1
 90
        1
176
     1
 40
0.0
176
     1
 90
        0
176
     1
290
     0
176
     1
290
     1
176
     1
290
     1
176
     1
290
     0
176
     1
290
     0
176
     1
290
     0
176
     1
290
     0
176
     1
290
     0
176
     1
290
     0
176
     1
 90
       50
176
     1
 40
0.0
176
     1
 40
1.0
176
     1
 90
        0
176
     1
 62
    18
420
        0
176
     1
 90
       50
176
     1
 90
        3
176
     1
 62
     5
420
      255
176
     1
290
     0
176
     1
 90
       50
176
     1
 90
       50
176
     1
 90
       50
176
     1
290
     0
176
     1
 90
       50
176
     1
 62
   256
176
     0
 40
1.0
176
     0
 90
        2
176
     1
  1
strokes_ogs.tif
176
     1
290
     0
176
     1
 40
1.0
176
     1
 40
1.0
176
     1
  0
VISUALSTYLE
  5
91E
102
{ACAD_REACTORS
330
908
102
}
330
908
100
AcDbVisualStyle
  2
JitterOff
 70
    20
177
     3
291
     1
 70
    58
 90
        2
176
     0
 90
        2
176
     0
 90
        0
176
     0
 90
        0
176
     0
 40
0.6
176
     0
 40
30.0
176
     0
 62
     7
420
 16777215
176
     0
 90
        1
176
     0
 90
        4
176
     0
 62
     7
176
     0
 62
   257
176
     0
 90
        1
176
     0
 90
        1
176
     0
 40
1.0
176
     0
 90
       10
176
     2
 62
     7
176
     0
 40
1.0
176
     0
 90
        1
176
     0
 90
        6
176
     0
 90
        2
176
     0
 62
     7
176
     0
 90
        5
176
     0
 90
        0
176
     0
 90
        0
176
     0
290
     0
176
     0
 90
        1
176
     0
 40
0.0
176
     0
 90
        0
176
     0
290
     0
176
     1
290
     1
176
     1
290
     1
176
     1
290
     0
176
     1
290
     0
176
     1
290
     0
176
     1
290
     0
176
     1
290
     0
176
     1
290
     0
176
     1
 90
       50
176
     0
 40
0.0
176
     0
 40
1.0
176
     0
 90
        0
176
     0
 62
    18
420
        0
176
     0
 90
       50
176
     0
 90
        3
176
     0
 62
     5
420
      255
176
     0
290
     0
176
     1
 90
       50
176
     0
 90
       50
176
     0
 90
       50
176
     0
290
     0
176
     1
 90
       50
176
     0
 62
   256
176
     0
 40
1.0
176
     0
 90
        2
176
     0
  1
strokes_ogs.tif
176
     0
290
     0
176
     1
 40
1.0
176
     0
 40
1.0
176
     0
  0
VISUALSTYLE
  5
916
102
{ACAD_REACTORS
330
908
102
}
330
908
100
AcDbVisualStyle
  2
Linepattern
 70
    14
177
     3
291
     1
 70
    58
 90
        2
176
     1
 90
        2
176
     1
 90
        0
176
     1
 90
        0
176
     1
 40
0.6
176
     1
 40
30.0
176
     1
 62
     7
420
 16777215
176
     1
 90
        1
176
     1
 90
        4
176
     1
 62
     7
176
     1
 62
   257
176
     1
 90
        7
176
     1
 90
        7
176
     1
 40
1.0
176
     1
 90
        8
176
     1
 62
     7
176
     1
 40
1.0
176
     1
 90
        1
176
     1
 90
        6
176
     1
 90
        2
176
     1
 62
     7
176
     1
 90
        5
176
     1
 90
        0
176
     1
 90
        0
176
     1
290
     0
176
     1
 90
        1
176
     1
 40
0.0
176
     1
 90
        0
176
     1
290
     0
176
     1
290
     1
176
     1
290
     1
176
     1
290
     0
176
     1
290
     0
176
     1
290
     0
176
     1
290
     0
176
     1
290
     0
176
     1
290
     0
176
     1
 90
       50
176
     1
 40
0.0
176
     1
 40
1.0
176
     1
 90
        0
176
     1
 62
    18
420
        0
176
     1
 90
       50
176
     1
 90
        3
176
     1
 62
     5
420
      255
176
     1
290
     0
176
     1
 90
       50
176
     1
 90
       50
176
     1
 90
       50
176
     1
290
     0
176
     1
 90
       50
176
     1
 62
   256
176
     0
 40
1.0
176
     0
 90
        2
176
     1
  1
strokes_ogs.tif
176
     1
290
     0
176
     1
 40
1.0
176
     1
 40
1.0
176
     1
  0
VISUALSTYLE
  5
91F
102
{ACAD_REACTORS
330
908
102
}
330
908
100
AcDbVisualStyle
  2
OverhangOff
 70
    21
177
     3
291
     1
 70
    58
 90
        2
176
     0
 90
        2
176
     0
 90
        0
176
     0
 90
        0
176
     0
 40
0.6
176
     0
 40
30.0
176
     0
 62
     7
420
 16777215
176
     0
 90
        1
176
     0
 90
        4
176
     0
 62
     7
176
     0
 62
   257
176
     0
 90
        1
176
     0
 90
        1
176
     0
 40
1.0
176
     0
 90
        9
176
     2
 62
     7
176
     0
 40
1.0
176
     0
 90
        1
176
     0
 90
        6
176
     0
 90
        2
176
     0
 62
     7
176
     0
 90
        5
176
     0
 90
        0
176
     0
 90
        0
176
     0
290
     0
176
     0
 90
        1
176
     0
 40
0.0
176
     0
 90
        0
176
     0
290
     0
176
     1
290
     1
176
     1
290
     1
176
     1
290
     0
176
     1
290
     0
176
     1
290
     0
176
     1
290
     0
176
     1
290
     0
176
     1
290
     0
176
     1
 90
       50
176
     0
 40
0.0
176
     0
 40
1.0
176
     0
 90
        0
176
     0
 62
    18
420
        0
176
     0
 90
       50
176
     0
 90
        3
176
     0
 62
     5
420
      255
176
     0
290
     0
176
     1
 90
       50
176
     0
 90
       50
176
     0
 90
       50
176
     0
290
     0
176
     1
 90
       50
176
     0
 62
   256
176
     0
 40
1.0
176
     0
 90
        2
176
     0
  1
strokes_ogs.tif
176
     0
290
     0
176
     1
 40
1.0
176
     0
 40
1.0
176
     0
  0
VISUALSTYLE
  5
912
102
{ACAD_REACTORS
330
908
102
}
330
908
100
AcDbVisualStyle
  2
Realistic
 70
     8
177
     3
291
     0
 70
    58
 90
        2
176
     1
 90
        3
176
     1
 90
        0
176
     1
 90
        2
176
     1
 40
0.6
176
     1
 40
30.0
176
     1
 62
     7
420
 16777215
176
     1
 90
        0
176
     1
 90
        0
176
     1
 62
     7
176
     1
 62
   257
176
     1
 90
        1
176
     1
 90
        1
176
     1
 40
1.0
176
     1
 90
        8
176
     1
 62
   257
176
     1
 40
1.0
176
     1
 90
        1
176
     1
 90
        6
176
     1
 90
        2
176
     1
 62
     7
176
     1
 90
        3
176
     1
 90
        0
176
     1
 90
        0
176
     1
290
     0
176
     1
 90
       13
176
     1
 40
0.0
176
     1
 90
        0
176
     1
290
     0
176
     1
290
     1
176
     1
290
     1
176
     1
290
     0
176
     1
290
     0
176
     1
290
     0
176
     1
290
     0
176
     1
290
     0
176
     1
290
     0
176
     1
 90
       50
176
     1
 40
0.0
176
     1
 40
1.0
176
     1
 90
        0
176
     1
 62
    18
420
        0
176
     1
 90
       50
176
     1
 90
        3
176
     1
 62
     5
420
      255
176
     1
290
     0
176
     1
 90
       50
176
     1
 90
       50
176
     1
 90
       50
176
     1
290
     0
176
     1
 90
       50
176
     1
 62
   256
176
     0
 40
1.0
176
     0
 90
        2
176
     1
  1
strokes_ogs.tif
176
     1
290
     0
176
     1
 40
1.0
176
     1
 40
1.0
176
     1
  0
VISUALSTYLE
  5
91D
102
{ACAD_REACTORS
330
908
102
}
330
908
100
AcDbVisualStyle
  2
Shaded
 70
    27
177
     3
291
     0
 70
    58
 90
        2
176
     1
 90
        2
176
     1
 90
        1
176
     1
 90
        2
176
     1
 40
0.6
176
     1
 40
30.0
176
     1
 62
     7
420
 16777215
176
     1
 90
        0
176
     1
 90
        4
176
     1
 62
     7
176
     1
 62
   257
176
     1
 90
        1
176
     1
 90
        1
176
     1
 40
1.0
176
     1
 90
        8
176
     1
 62
   257
176
     1
 40
1.0
176
     1
 90
        1
176
     1
 90
        6
176
     1
 90
        2
176
     1
 62
     8
420
  7895160
176
     1
 90
        3
176
     1
 90
        0
176
     1
 90
        0
176
     1
290
     0
176
     1
 90
        5
176
     1
 40
0.0
176
     1
 90
        0
176
     1
290
     0
176
     1
290
     1
176
     1
290
     1
176
     1
290
     0
176
     1
290
     0
176
     1
290
     0
176
     1
290
     0
176
     1
290
     0
176
     1
290
     0
176
     1
 90
       50
176
     1
 40
0.0
176
     1
 40
1.0
176
     1
 90
        0
176
     1
 62
    18
420
        0
176
     1
 90
       50
176
     1
 90
        3
176
     1
 62
     5
420
      255
176
     1
290
     0
176
     1
 90
       50
176
     1
 90
       50
176
     1
 90
       50
176
     1
290
     0
176
     1
 90
       50
176
     1
 62
   256
176
     0
 40
1.0
176
     0
 90
        2
176
     1
  1
strokes_ogs.tif
176
     1
290
     0
176
     1
 40
1.0
176
     1
 40
1.0
176
     1
  0
VISUALSTYLE
  5
91C
102
{ACAD_REACTORS
330
908
102
}
330
908
100
AcDbVisualStyle
  2
Shaded with edges
 70
    26
177
     3
291
     0
 70
    58
 90
        2
176
     1
 90
        2
176
     1
 90
        1
176
     1
 90
        2
176
     1
 40
0.6
176
     1
 40
30.0
176
     1
 62
     7
420
 16777215
176
     1
 90
        1
176
     1
 90
        2
176
     1
 62
     7
176
     1
 62
   257
176
     1
 90
        2
176
     1
 90
        1
176
     1
 40
1.0
176
     1
 90
        8
176
     1
 62
   257
176
     1
 40
1.0
176
     1
 90
        1
176
     1
 90
        6
176
     1
 90
        2
176
     1
 62
     7
176
     1
 90
        3
176
     1
 90
        0
176
     1
 90
        0
176
     1
290
     0
176
     1
 90
        5
176
     1
 40
0.0
176
     1
 90
        0
176
     1
290
     0
176
     1
290
     1
176
     1
290
     1
176
     1
290
     0
176
     1
290
     0
176
     1
290
     0
176
     1
290
     0
176
     1
290
     0
176
     1
290
     0
176
     1
 90
       50
176
     1
 40
0.0
176
     1
 40
1.0
176
     1
 90
        0
176
     1
 62
    18
420
        0
176
     1
 90
       50
176
     1
 90
        3
176
     1
 62
     5
420
      255
176
     1
290
     0
176
     1
 90
       50
176
     1
 90
       50
176
     1
 90
       50
176
     1
290
     0
176
     1
 90
       50
176
     1
 62
   256
176
     0
 40
1.0
176
     0
 90
        2
176
     1
  1
strokes_ogs.tif
176
     1
290
     0
176
     1
 40
1.0
176
     1
 40
1.0
176
     1
  0
VISUALSTYLE
  5
919
102
{ACAD_REACTORS
330
908
102
}
330
908
100
AcDbVisualStyle
  2
Shades of Gray
 70
    23
177
     3
291
     0
 70
    58
 90
        2
176
     1
 90
        2
176
     1
 90
        3
176
     1
 90
        0
176
     1
 40
0.6
176
     1
 40
30.0
176
     1
 62
     7
420
 16777215
176
     1
 90
        2
176
     1
 90
        2
176
     1
 62
     7
176
     1
 62
     7
176
     1
 90
        1
176
     1
 90
        1
176
     1
 40
40.0
176
     1
 90
        8
176
     1
 62
     7
176
     1
 40
1.0
176
     1
 90
        1
176
     1
 90
        6
176
     1
 90
        2
176
     1
 62
     7
176
     1
 90
        3
176
     1
 90
        0
176
     1
 90
        0
176
     1
290
     0
176
     1
 90
        1
176
     1
 40
0.0
176
     1
 90
        0
176
     1
290
     0
176
     1
290
     1
176
     1
290
     1
176
     1
290
     0
176
     1
290
     0
176
     1
290
     0
176
     1
290
     0
176
     1
290
     0
176
     1
290
     0
176
     1
 90
       50
176
     1
 40
0.0
176
     1
 40
1.0
176
     1
 90
        0
176
     1
 62
    18
420
        0
176
     1
 90
       50
176
     1
 90
        3
176
     1
 62
     5
420
      255
176
     1
290
     0
176
     1
 90
       50
176
     1
 90
       50
176
     1
 90
       50
176
     1
290
     0
176
     1
 90
       50
176
     1
 62
   256
176
     0
 40
1.0
176
     0
 90
        2
176
     1
  1
strokes_ogs.tif
176
     1
290
     0
176
     1
 40
1.0
176
     1
 40
1.0
176
     1
  0
VISUALSTYLE
  5
91A
102
{ACAD_REACTORS
330
908
102
}
330
908
100
AcDbVisualStyle
  2
Sketchy
 70
    24
177
     3
291
     0
 70
    58
 90
        1
176
     1
 90
        2
176
     1
 90
        2
176
     1
 90
        0
176
     1
 40
0.6
176
     1
 40
30.0
176
     1
 62
     7
420
 16777215
176
     1
 90
        2
176
     1
 90
        2
176
     1
 62
     7
176
     1
 62
     7
176
     1
 90
        1
176
     1
 90
        1
176
     1
 40
40.0
176
     1
 90
       11
176
     1
 62
     7
176
     1
 40
1.0
176
     1
 90
        1
176
     1
 90
        6
176
     1
 90
        2
176
     1
 62
     7
176
     1
 90
        6
176
     1
 90
        0
176
     1
 90
        0
176
     1
290
     0
176
     1
 90
        1
176
     1
 40
0.0
176
     1
 90
        0
176
     1
290
     0
176
     1
290
     1
176
     1
290
     1
176
     1
290
     0
176
     1
290
     0
176
     1
290
     0
176
     1
290
     0
176
     1
290
     0
176
     1
290
     0
176
     1
 90
       50
176
     1
 40
0.0
176
     1
 40
1.0
176
     1
 90
        0
176
     1
 62
    18
420
        0
176
     1
 90
       50
176
     1
 90
        3
176
     1
 62
     5
420
      255
176
     1
290
     0
176
     1
 90
       50
176
     1
 90
       50
176
     1
 90
       50
176
     1
290
     0
176
     1
 90
       50
176
     1
 62
   256
176
     0
 40
1.0
176
     0
 90
        2
176
     1
  1
strokes_ogs.tif
176
     1
290
     0
176
     1
 40
1.0
176
     1
 40
1.0
176
     1
  0
VISUALSTYLE
  5
915
102
{ACAD_REACTORS
330
908
102
}
330
908
100
AcDbVisualStyle
  2
Thicken
 70
    13
177
     3
291
     1
 70
    58
 90
        2
176
     1
 90
        2
176
     1
 90
        0
176
     1
 90
        0
176
     1
 40
0.6
176
     1
 40
30.0
176
     1
 62
     7
420
 16777215
176
     1
 90
        1
176
     1
 90
        4
176
     1
 62
     7
176
     1
 62
   257
176
     1
 90
        1
176
     1
 90
        1
176
     1
 40
1.0
176
     1
 90
       12
176
     1
 62
     7
176
     1
 40
1.0
176
     1
 90
        1
176
     1
 90
        6
176
     1
 90
        2
176
     1
 62
     7
176
     1
 90
        5
176
     1
 90
        0
176
     1
 90
        0
176
     1
290
     0
176
     1
 90
        1
176
     1
 40
0.0
176
     1
 90
        0
176
     1
290
     0
176
     1
290
     1
176
     1
290
     1
176
     1
290
     0
176
     1
290
     0
176
     1
290
     0
176
     1
290
     0
176
     1
290
     0
176
     1
290
     0
176
     1
 90
       50
176
     1
 40
0.0
176
     1
 40
1.0
176
     1
 90
        0
176
     1
 62
    18
420
        0
176
     1
 90
       50
176
     1
 90
        3
176
     1
 62
     5
420
      255
176
     1
290
     0
176
     1
 90
       50
176
     1
 90
       50
176
     1
 90
       50
176
     1
290
     0
176
     1
 90
       50
176
     1
 62
   256
176
     0
 40
1.0
176
     0
 90
        2
176
     1
  1
strokes_ogs.tif
176
     1
290
     0
176
     1
 40
1.0
176
     1
 40
1.0
176
     1
  0
VISUALSTYLE
  5
90F
102
{ACAD_REACTORS
330
908
102
}
330
908
100
AcDbVisualStyle
  2
Wireframe
 70
     5
177
     3
291
     0
 70
    58
 90
        0
176
     1
 90
        2
176
     1
 90
        0
176
     1
 90
        0
176
     1
 40
0.6
176
     1
 40
30.0
176
     1
 62
     7
420
 16777215
176
     1
 90
        1
176
     1
 90
        4
176
     1
 62
     7
176
     1
 62
   257
176
     1
 90
        1
176
     1
 90
        1
176
     1
 40
1.0
176
     1
 90
        0
176
     1
 62
   257
176
     1
 40
1.0
176
     1
 90
        1
176
     1
 90
        6
176
     1
 90
        2
176
     1
 62
     7
176
     1
 90
        3
176
     1
 90
        0
176
     1
 90
        0
176
     1
290
     0
176
     1
 90
        1
176
     1
 40
0.0
176
     1
 90
        0
176
     1
290
     0
176
     1
290
     1
176
     1
290
     1
176
     1
290
     0
176
     1
290
     0
176
     1
290
     0
176
     1
290
     0
176
     1
290
     0
176
     1
290
     0
176
     1
 90
       50
176
     1
 40
0.0
176
     1
 40
1.0
176
     1
 90
        0
176
     1
 62
    18
420
        0
176
     1
 90
       50
176
     1
 90
        3
176
     1
 62
     5
420
      255
176
     1
290
     0
176
     1
 90
       50
176
     1
 90
       50
176
     1
 90
       50
176
     1
290
     0
176
     1
 90
       50
176
     1
 62
   256
176
     0
 40
1.0
176
     0
 90
        2
176
     1
  1
strokes_ogs.tif
176
     1
290
     0
176
     1
 40
1.0
176
     1
 40
1.0
176
     1
  0
VISUALSTYLE
  5
91B
102
{ACAD_REACTORS
330
908
102
}
330
908
100
AcDbVisualStyle
  2
X-Ray
 70
    25
177
     3
291
     0
 70
    58
 90
        2
176
     1
 90
        2
176
     1
 90
        1
176
     1
 90
        1
176
     1
 40
0.5
176
     1
 40
30.0
176
     1
 62
     7
420
 16777215
176
     1
 90
        1
176
     1
 90
        0
176
     1
 62
     7
176
     1
 62
   257
176
     1
 90
        1
176
     1
 90
        1
176
     1
 40
1.0
176
     1
 90
        8
176
     1
 62
     7
176
     1
 40
1.0
176
     1
 90
        1
176
     1
 90
        6
176
     1
 90
        2
176
     1
 62
     7
176
     1
 90
        3
176
     1
 90
        0
176
     1
 90
        0
176
     1
290
     0
176
     1
 90
       13
176
     1
 40
0.0
176
     1
 90
        0
176
     1
290
     0
176
     1
290
     1
176
     1
290
     1
176
     1
290
     0
176
     1
290
     0
176
     1
290
     0
176
     1
290
     0
176
     1
290
     0
176
     1
290
     0
176
     1
 90
       50
176
     1
 40
0.0
176
     1
 40
1.0
176
     1
 90
        0
176
     1
 62
    18
420
        0
176
     1
 90
       50
176
     1
 90
        3
176
     1
 62
     5
420
      255
176
     1
290
     0
176
     1
 90
       50
176
     1
 90
       50
176
     1
 90
       50
176
     1
290
     0
176
     1
 90
       50
176
     1
 62
   256
176
     0
 40
1.0
176
     0
 90
        2
176
     1
  1
strokes_ogs.tif
176
     1
290
     0
176
     1
 40
1.0
176
     1
 40
1.0
176
     1
  0
DICTIONARYVAR
  5
949
102
{ACAD_REACTORS
330
944
102
}
330
944
100
DictionaryVariables
280
     0
  1
1:1
  0
DICTIONARYVAR
  5
946
102
{ACAD_REACTORS
330
944
102
}
330
944
100
DictionaryVariables
280
     0
  1
STANDARD
  0
DICTIONARYVAR
  5
945
102
{ACAD_REACTORS
330
944
102
}
330
944
100
DictionaryVariables
280
     0
  1
STANDARD
  0
DICTIONARYVAR
  5
947
102
{ACAD_REACTORS
330
944
102
}
330
944
100
DictionaryVariables
280
     0
  1
Imperial24
  0
DICTIONARYVAR
  5
948
102
{ACAD_REACTORS
330
944
102
}
330
944
100
DictionaryVariables
280
     0
  1
Imperial24
  0
DICTIONARY
  5
8F9
330
8F8
100
AcDbDictionary
280
     1
281
     1
  3
BUMPTILE
360
8FB
  3
DIFFUSETILE
360
8FA
  3
OPACITYTILE
360
8FE
  3
REFLECTIONTILE
360
8FD
  3
REFRACTIONTILE
360
8FF
  3
SPECULARTILE
360
8FC
  0
DICTIONARY
  5
8F1
330
8F0
100
AcDbDictionary
280
     1
281
     1
  3
BUMPTILE
360
8F3
  3
DIFFUSETILE
360
8F2
  3
OPACITYTILE
360
8F6
  3
REFLECTIONTILE
360
8F5
  3
REFRACTIONTILE
360
8F7
  3
SPECULARTILE
360
8F4
  0
DICTIONARY
  5
901
330
900
100
AcDbDictionary
280
     1
281
     1
  3
BUMPTILE
360
903
  3
DIFFUSETILE
360
902
  3
OPACITYTILE
360
906
  3
REFLECTIONTILE
360
905
  3
REFRACTIONTILE
360
907
  3
SPECULARTILE
360
904
  0
DICTIONARY
  5
9AA
330
923
100
AcDbDictionary
280
     1
281
     1
  3
ACAD_ROUNDTRIP_2008_TABLESTYLE_CELLSTYLEMAP
360
9AB
  0
XRECORD
  5
8FB
102
{ACAD_REACTORS
330
8F9
102
}
330
8F9
100
AcDbXrecord
280
     1
270
     1
271
     1
  0
XRECORD
  5
8FA
102
{ACAD_REACTORS
330
8F9
102
}
330
8F9
100
AcDbXrecord
280
     1
270
     1
271
     1
  0
XRECORD
  5
8FE
102
{ACAD_REACTORS
330
8F9
102
}
330
8F9
100
AcDbXrecord
280
     1
270
     1
271
     1
  0
XRECORD
  5
8FD
102
{ACAD_REACTORS
330
8F9
102
}
330
8F9
100
AcDbXrecord
280
     1
270
     1
271
     1
  0
XRECORD
  5
8FF
102
{ACAD_REACTORS
330
8F9
102
}
330
8F9
100
AcDbXrecord
280
     1
270
     1
271
     1
  0
XRECORD
  5
8FC
102
{ACAD_REACTORS
330
8F9
102
}
330
8F9
100
AcDbXrecord
280
     1
270
     1
271
     1
  0
XRECORD
  5
8F3
102
{ACAD_REACTORS
330
8F1
102
}
330
8F1
100
AcDbXrecord
280
     1
270
     1
271
     1
  0
XRECORD
  5
8F2
102
{ACAD_REACTORS
330
8F1
102
}
330
8F1
100
AcDbXrecord
280
     1
270
     1
271
     1
  0
XRECORD
  5
8F6
102
{ACAD_REACTORS
330
8F1
102
}
330
8F1
100
AcDbXrecord
280
     1
270
     1
271
     1
  0
XRECORD
  5
8F5
102
{ACAD_REACTORS
330
8F1
102
}
330
8F1
100
AcDbXrecord
280
     1
270
     1
271
     1
  0
XRECORD
  5
8F7
102
{ACAD_REACTORS
330
8F1
102
}
330
8F1
100
AcDbXrecord
280
     1
270
     1
271
     1
  0
XRECORD
  5
8F4
102
{ACAD_REACTORS
330
8F1
102
}
330
8F1
100
AcDbXrecord
280
     1
270
     1
271
     1
  0
XRECORD
  5
903
102
{ACAD_REACTORS
330
901
102
}
330
901
100
AcDbXrecord
280
     1
270
     1
271
     1
  0
XRECORD
  5
902
102
{ACAD_REACTORS
330
901
102
}
330
901
100
AcDbXrecord
280
     1
270
     1
271
     1
  0
XRECORD
  5
906
102
{ACAD_REACTORS
330
901
102
}
330
901
100
AcDbXrecord
280
     1
270
     1
271
     1
  0
XRECORD
  5
905
102
{ACAD_REACTORS
330
901
102
}
330
901
100
AcDbXrecord
280
     1
270
     1
271
     1
  0
XRECORD
  5
907
102
{ACAD_REACTORS
330
901
102
}
330
901
100
AcDbXrecord
280
     1
270
     1
271
     1
  0
XRECORD
  5
904
102
{ACAD_REACTORS
330
901
102
}
330
901
100
AcDbXrecord
280
     1
270
     1
271
     1
  0
CELLSTYLEMAP
  5
9AB
102
{ACAD_REACTORS
330
9AA
102
}
330
9AA
100
AcDbCellStyleMap
 90
        3
300
CELLSTYLE
  1
TABLEFORMAT_BEGIN
 90
        5
170
     1
 91
        0
 92
    32768
 62
   257
 93
        1
300
CONTENTFORMAT
  1
CONTENTFORMAT_BEGIN
 90
        0
 91
        0
 92
      512
 93
        0
300

 40
0.0
140
1.0
 94
        5
 62
     0
340
18
144
0.25
309
CONTENTFORMAT_END
171
     0
 94
        0
309
TABLEFORMAT_END
  1
CELLSTYLE_BEGIN
 90
        1
 91
        1
300
_TITLE
309
CELLSTYLE_END
300
CELLSTYLE
  1
TABLEFORMAT_BEGIN
 90
        5
170
     1
 91
        0
 92
        0
 62
   257
 93
        1
300
CONTENTFORMAT
  1
CONTENTFORMAT_BEGIN
 90
        0
 91
        0
 92
      512
 93
        0
300

 40
0.0
140
1.0
 94
        5
 62
     0
340
18
144
0.18
309
CONTENTFORMAT_END
171
     0
 94
        0
309
TABLEFORMAT_END
  1
CELLSTYLE_BEGIN
 90
        2
 91
        1
300
_HEADER
309
CELLSTYLE_END
300
CELLSTYLE
  1
TABLEFORMAT_BEGIN
 90
        5
170
     1
 91
        0
 92
        0
 62
   257
 93
        1
300
CONTENTFORMAT
  1
CONTENTFORMAT_BEGIN
 90
        0
 91
        0
 92
      512
 93
        0
300

 40
0.0
140
1.0
 94
        2
 62
     0
340
18
144
0.18
309
CONTENTFORMAT_END
171
     0
 94
        0
309
TABLEFORMAT_END
  1
CELLSTYLE_BEGIN
 90
        3
 91
        2
300
_DATA
309
CELLSTYLE_END
  0
ENDSEC
  0
SECTION
  2
ACDSDATA
 70
     2
 71
     8
  0
ACDSSCHEMA
 90
        0
  1
AcDb_Thumbnail_Schema
  2
AcDbDs::ID
280
    10
 91
        8
  2
Thumbnail_Data
280
    15
 91
        0
101
ACDSRECORD
 95
        0
 90
        1
  2
AcDbDs::TreatedAsObjectData
280
     1
291
     1
101
ACDSRECORD
 95
        0
 90
        2
  2
AcDbDs::Legacy
280
     1
291
     1
101
ACDSRECORD
  1
AcDbDs::ID
 90
        3
  2
AcDs:Indexable
280
     1
291
     1
101
ACDSRECORD
  1
AcDbDs::ID
 90
        4
  2
AcDbDs::HandleAttribute
280
     7
282
     1
  0
ACDSSCHEMA
 90
        1
  1
AcDbDs::TreatedAsObjectDataSchema
  2
AcDbDs::TreatedAsObjectData
280
     1
 91
        0
  0
ACDSSCHEMA
 90
        2
  1
AcDbDs::LegacySchema
  2
AcDbDs::Legacy
280
     1
 91
        0
  0
ACDSSCHEMA
 90
        3
  1
AcDbDs::IndexedPropertySchema
  2
AcDs:Indexable
280
     1
 91
        0
  0
ACDSSCHEMA
 90
        4
  1
AcDbDs::HandleAttributeSchema
  2
AcDbDs::HandleAttribute
280
     7
 91
        1
284
     1
  0
ACDSRECORD
 90
        0
  2
AcDbDs::ID
280
    10
320
20
  2
Thumbnail_Data
280
    15
 94
     2420
310
89504E470D0A1A0A0000000D4948445200000100000000A30803000000525330A000000300504C5445212830FFFFFF2128300000000000000000000000000000000000000000000000000000330000660000990000CC0000FF0033000033330033660033990033CC0033FF0066000066330066660066990066CC0066FF0099
310
000099330099660099990099CC0099FF00CC0000CC3300CC6600CC9900CCCC00CCFF00FF0000FF3300FF6600FF9900FFCC00FFFF3300003300333300663300993300CC3300FF3333003333333333663333993333CC3333FF3366003366333366663366993366CC3366FF3399003399333399663399993399CC3399FF33CC00
310
33CC3333CC6633CC9933CCCC33CCFF33FF0033FF3333FF6633FF9933FFCC33FFFF6600006600336600666600996600CC6600FF6633006633336633666633996633CC6633FF6666006666336666666666996666CC6666FF6699006699336699666699996699CC6699FF66CC0066CC3366CC6666CC9966CCCC66CCFF66FF0066
310
FF3366FF6666FF9966FFCC66FFFF9900009900339900669900999900CC9900FF9933009933339933669933999933CC9933FF9966009966339966669966999966CC9966FF9999009999339999669999999999CC9999FF99CC0099CC3399CC6699CC9999CCCC99CCFF99FF0099FF3399FF6699FF9999FFCC99FFFFCC0000CC00
310
33CC0066CC0099CC00CCCC00FFCC3300CC3333CC3366CC3399CC33CCCC33FFCC6600CC6633CC6666CC6699CC66CCCC66FFCC9900CC9933CC9966CC9999CC99CCCC99FFCCCC00CCCC33CCCC66CCCC99CCCCCCCCCCFFCCFF00CCFF33CCFF66CCFF99CCFFCCCCFFFFFF0000FF0033FF0066FF0099FF00CCFF00FFFF3300FF3333
310
FF3366FF3399FF33CCFF33FFFF6600FF6633FF6666FF6699FF66CCFF66FFFF9900FF9933FF9966FF9999FF99CCFF99FFFFCC00FFCC33FFCC66FFCC99FFCCCCFFCCFFFFFF00FFFF33FFFF66FFFF99FFFFCCFFFFFF0000000D0D0D1A1A1A2828283535354343435050505D5D5D6B6B6B787878868686939393A1A1A1AEAEAEBB
310
BBBBC9C9C9D6D6D6E4E4E4F1F1F1FFFFFF0000000000000000000000000000000000000000000000000000000000002E4550F1000001284944415478DAEDD94B8AC330100450DFFF6875AAD98C3D03218218052CD57B9B6CD3E5D6FF38000000E0A6A43E806102E94E20296890419115F50FFABCA6FEB7936371FDDD1FBFBE
310
FE54AC7E2F4BE1F5CDCFAF9FAE8ECFD5F6D74FBAEAFFADF8AFFFBB127899FDD23A11FE8F22A5B5D71C833E3B17EE7F5ABC13405C271CA0FB6B4F8C0ECCDB3447EE7CFEE15DE2F6DD9C41132CB789BEFB7FF79904323D51EB437303344C817B2570DE8419B6D5FBE4CCCE336BAD0AF972004F8F20D303586C6FF8F5BFF7F000
310
263E062E79999E696F00E713D372011C330358AF07527E7CC9BC0E58F634DCFEBE11CF1B009D0B6079FDF5CBBFF5DFBEAFB3F1230043003001D8FC690030F6ED7F4D7E00A6413B8182048C0200000000000000000000000000000000000078841F1F56E1ADFFF7731A0000000049454E44AE426082FC2C037C42FB4BDDC3A6
310
C320270AFC22017CD24F3609809756BFC60137E38FC684E9094986ABD6E501017E2F21240DD0FA73E115D3F307CAC0B603FC6495E42C806A4E5C644C16E5B4170069A076A64C9E0BBB3705407D3162BB8D46A78976E2DF3475EA9AF7B38029AE0F5300E96FD8FABD1507908B7DA6006CF60C36464CC2697350D08C1A3FCA00
310
4A4F64937C692CA203029239D90601B06949B9BEB5E85EF3F9AF20A0A885CB40906532AE6EBA1CA0521093D3C52A96D4AF662665889039E2CDFAF3E9FE979D0F204FC390E62494A7C5F3A31304698C309BAF6EAF394264A38C15B2EBFC8180DEA5540D810B02170CC96E682264990CC9FBF465701E99E82445262BF560ED0F
310
04F4ADA5BA4ACE0134EC25089631083448CAF4961C427791D2299A335D6459EEB84E003A47C8ECBD4513CC792CCA79A7C44DCCD3C1ECD04BEF5064504AC78B7D256B892E13808E6512ABFC5AF1D7C84F259D9BE46EF5CEC74E55DF735AF80F023AB9C0226BF31EA8F9BFDA50F42BEA17FE7234E61D03297B224D5835687C4F
310
0CBE1C025B5B94AF700094298FDD96B80F89F472CA078B092278D501B4534CDC4027CC396BB89E788D8063E3B8471858476B2E9B7DBACE09BA6942DA0E1149E1CFFB285A129D20CAF2C25A62BE9C014F72F447FBA5E6174D2A5A4924C52FEF8D65BDC7559F54956D90B655DA1DF195F5EF3A51D0B547238856D2A2D5355873
310
07D2C448DA28547A42CEF3FB077C2DFFF5D3D330976D4622BCA2589D54B6980717116AC2D10710E0E603CC17D69FBA12804D02C0BE15D0645FAB052E9D23BF94B9682CDC6885F9688DFAC580E89EDA7EAF0FE12480A54AB32B978EEA4ABD0BEC5BCBDB1A9DA85F0F900B6C91668A9658321EEBA830E7792FE7796B9AEA1AEB
310
1D73DBF71542ABF3C0C8F2FA2A011045C3A52BF27A54F246723F20A09D29D41B923D9550B3B5A9F16B054F74AD4B00EB6989B786CC9573AC13304D30C1ACBEAF9D595F02D078C0ECF4396FEBA00BFEDEA1B3043849C81BA7E9A471829BCE597BCAD4A909A6F2BFAB8775D5C60ECA6E7FD57EA67D916339738D00D57C286E54
310
722D682F2D046A6240C53E8A5B2518FB0E70DCABAEFA80CE9A298BEE527AF56C0665F5AB4E40EF0B44710FA4CD3B98B73B935D5F5DD396F90DD3949BEDAA9EF6EE84919A36D8F846465BDEED84275B3D1C9AB97384B59052ABC253B4C99E4A1B9FAFCE7F3A0414E6ADBF6BB6082BD980DDD2BA31F7362991A7AE754D36EDFF
310
865D55588B95F34C4DC289BA79C915D28C6D6763FDAD3BA9C59E27C3CF7876FBF3B3D7C8BC9727BE60CB34DD179DAEE7612E79EA3302FF430135B71F7F8E02D2D9C7831F7BC5EA3F28D826E13B088006FEE3F50E5064C54B63B03732A0B5A68F03340DD697D96F443CAAE5EA74798E82EF22E06A57FB827FF9BB097803B9E3
310
1240077DC620148C6DFFE8EB1F087C4F03343C0118DD7E8CBEFE837F45C8B7CC253E360CE0B407363403437F490C40C37F4F50B442814020101A6834F3C79EC8E997438DDBFF52FED4D7B0EB3FB00644F1A9D011D1F3A6BB1F6160F8416808C04060B8C43FB8FDC3DF8B30B813BCFEB6BFB0FF0713E0E877648D5E06E286AC
310
4020100804028140201008040281402010080402814020100804EE857F30685FAF35FE3FDA0000000049454E44AE426082C6CE362F017944C08D6C3B60BBDDC87608DCC805B0AD00C81B2F0337E3654014B81917C078168402D60570381C0E87C3E170381C0E87C3E170381C0E87633EFC0F791B2DE715C1FAE90000000049
310
454E44AE426082
  0
ENDSEC
  0
EOF
