  0
SECTION
  2
HEADER
  9
$ACADVER
  1
AC1032
  9
$ACADMAINTVER
 90
      155
  9
$DWGCODEPAGE
  3
ANSI_1251
  9
$LASTSAVEDBY
  1
ALEXANDER
  9
$REQUIREDVERSIONS
160
                 0
  9
$INSBASE
 10
0.0
 20
0.0
 30
0.0
  9
$EXTMIN
 10
1391339.698945382
 20
354857.4607999773
 30
-0.0015258207003583
  9
$EXTMAX
 10
1399991.111756123
 20
361055.1944155641
 30
0.0000000349246037
  9
$LIMMIN
 10
0.0
 20
0.0
  9
$LIMMAX
 10
12.0
 20
9.0
  9
$ORTHOMODE
 70
     0
  9
$REGENMODE
 70
     1
  9
$FILLMODE
 70
     1
  9
$QTEXTMODE
 70
     0
  9
$MIRRTEXT
 70
     0
  9
$LTSCALE
 40
1.0
  9
$ATTMODE
 70
     1
  9
$TEXTSIZE
 40
0.0
  9
$TRACEWID
 40
0.05
  9
$TEXTSTYLE
  7
Standard
  9
$CLAYER
  8
Ранее утвержденные зоны охраняемоего природного ландшафта
  9
$CELTYPE
  6
ByLayer
  9
$CECOLOR
 62
   256
  9
$CELTSCALE
 40
1.0
  9
$DISPSILH
 70
     0
  9
$DIMSCALE
 40
1.0
  9
$DIMASZ
 40
0.18
  9
$DIMEXO
 40
0.0625
  9
$DIMDLI
 40
0.38
  9
$DIMRND
 40
0.0
  9
$DIMDLE
 40
0.0
  9
$DIMEXE
 40
0.18
  9
$DIMTP
 40
0.0
  9
$DIMTM
 40
0.0
  9
$DIMTXT
 40
0.18
  9
$DIMCEN
 40
0.09
  9
$DIMTSZ
 40
0.0
  9
$DIMTOL
 70
     0
  9
$DIMLIM
 70
     0
  9
$DIMTIH
 70
     0
  9
$DIMTOH
 70
     0
  9
$DIMSE1
 70
     0
  9
$DIMSE2
 70
     0
  9
$DIMTAD
 70
     0
  9
$DIMZIN
 70
     0
  9
$DIMBLK
  1

  9
$DIMASO
 70
     1
  9
$DIMSHO
 70
     1
  9
$DIMPOST
  1

  9
$DIMAPOST
  1

  9
$DIMALT
 70
     0
  9
$DIMALTD
 70
     2
  9
$DIMALTF
 40
25.4
  9
$DIMLFAC
 40
1.0
  9
$DIMTOFL
 70
     0
  9
$DIMTVP
 40
0.0
  9
$DIMTIX
 70
     0
  9
$DIMSOXD
 70
     0
  9
$DIMSAH
 70
     0
  9
$DIMBLK1
  1

  9
$DIMBLK2
  1

  9
$DIMSTYLE
  2
Standard
  9
$DIMCLRD
 70
     0
  9
$DIMCLRE
 70
     0
  9
$DIMCLRT
 70
     0
  9
$DIMTFAC
 40
1.0
  9
$DIMGAP
 40
0.09
  9
$DIMJUST
 70
     0
  9
$DIMSD1
 70
     0
  9
$DIMSD2
 70
     0
  9
$DIMTOLJ
 70
     1
  9
$DIMTZIN
 70
     0
  9
$DIMALTZ
 70
     0
  9
$DIMALTTZ
 70
     0
  9
$DIMUPT
 70
     0
  9
$DIMDEC
 70
     4
  9
$DIMTDEC
 70
     4
  9
$DIMALTU
 70
     2
  9
$DIMALTTD
 70
     2
  9
$DIMTXSTY
  7
Standard
  9
$DIMAUNIT
 70
     0
  9
$DIMADEC
 70
     0
  9
$DIMALTRND
 40
0.0
  9
$DIMAZIN
 70
     0
  9
$DIMDSEP
 70
    46
  9
$DIMATFIT
 70
     3
  9
$DIMFRAC
 70
     0
  9
$DIMLDRBLK
  1

  9
$DIMLUNIT
 70
     2
  9
$DIMLWD
 70
    -2
  9
$DIMLWE
 70
    -2
  9
$DIMTMOVE
 70
     0
  9
$DIMFXL
 40
1.0
  9
$DIMFXLON
 70
     0
  9
$DIMJOGANG
 40
0.7853981633974483
  9
$DIMTFILL
 70
     0
  9
$DIMTFILLCLR
 70
     0
  9
$DIMARCSYM
 70
     0
  9
$DIMLTYPE
  6
ByBlock
  9
$DIMLTEX1
  6
ByBlock
  9
$DIMLTEX2
  6
ByBlock
  9
$DIMTXTDIRECTION
 70
     0
  9
$LUNITS
 70
     2
  9
$LUPREC
 70
     4
  9
$SKETCHINC
 40
0.1
  9
$FILLETRAD
 40
0.0
  9
$AUNITS
 70
     0
  9
$AUPREC
 70
     0
  9
$MENU
  1
.
  9
$ELEVATION
 40
0.0
  9
$PELEVATION
 40
0.0
  9
$THICKNESS
 40
0.0
  9
$LIMCHECK
 70
     0
  9
$CHAMFERA
 40
0.0
  9
$CHAMFERB
 40
0.0
  9
$CHAMFERC
 40
0.0
  9
$CHAMFERD
 40
0.0
  9
$SKPOLY
 70
     0
  9
$TDCREATE
 40
2460902.525590278
  9
$TDUCREATE
 40
2460902.108927419
  9
$TDUPDATE
 40
2460903.005277778
  9
$TDUUPDATE
 40
2460902.588611111
  9
$TDINDWG
 40
0.0925840394
  9
$TDUSRTIMER
 40
0.0925840394
  9
$USRTIMER
 70
     1
  9
$ANGBASE
 50
0.0
  9
$ANGDIR
 70
     0
  9
$PDMODE
 70
    33
  9
$PDSIZE
 40
0.75
  9
$PLINEWID
 40
0.0
  9
$SPLFRAME
 70
     0
  9
$SPLINETYPE
 70
     6
  9
$SPLINESEGS
 70
     8
  9
$HANDSEED
  5
9B0
  9
$SURFTAB1
 70
     6
  9
$SURFTAB2
 70
     6
  9
$SURFTYPE
 70
     6
  9
$SURFU
 70
     6
  9
$SURFV
 70
     6
  9
$UCSBASE
  2

  9
$UCSNAME
  2

  9
$UCSORG
 10
0.0
 20
0.0
 30
0.0
  9
$UCSXDIR
 10
1.0
 20
0.0
 30
0.0
  9
$UCSYDIR
 10
0.0
 20
1.0
 30
0.0
  9
$UCSORTHOREF
  2

  9
$UCSORTHOVIEW
 70
     0
  9
$UCSORGTOP
 10
0.0
 20
0.0
 30
0.0
  9
$UCSORGBOTTOM
 10
0.0
 20
0.0
 30
0.0
  9
$UCSORGLEFT
 10
0.0
 20
0.0
 30
0.0
  9
$UCSORGRIGHT
 10
0.0
 20
0.0
 30
0.0
  9
$UCSORGFRONT
 10
0.0
 20
0.0
 30
0.0
  9
$UCSORGBACK
 10
0.0
 20
0.0
 30
0.0
  9
$PUCSBASE
  2

  9
$PUCSNAME
  2

  9
$PUCSORG
 10
0.0
 20
0.0
 30
0.0
  9
$PUCSXDIR
 10
1.0
 20
0.0
 30
0.0
  9
$PUCSYDIR
 10
0.0
 20
1.0
 30
0.0
  9
$PUCSORTHOREF
  2

  9
$PUCSORTHOVIEW
 70
     0
  9
$PUCSORGTOP
 10
0.0
 20
0.0
 30
0.0
  9
$PUCSORGBOTTOM
 10
0.0
 20
0.0
 30
0.0
  9
$PUCSORGLEFT
 10
0.0
 20
0.0
 30
0.0
  9
$PUCSORGRIGHT
 10
0.0
 20
0.0
 30
0.0
  9
$PUCSORGFRONT
 10
0.0
 20
0.0
 30
0.0
  9
$PUCSORGBACK
 10
0.0
 20
0.0
 30
0.0
  9
$USERI1
 70
     0
  9
$USERI2
 70
     0
  9
$USERI3
 70
     0
  9
$USERI4
 70
     0
  9
$USERI5
 70
     0
  9
$USERR1
 40
0.0
  9
$USERR2
 40
0.0
  9
$USERR3
 40
0.0
  9
$USERR4
 40
0.0
  9
$USERR5
 40
0.0
  9
$WORLDVIEW
 70
     1
  9
$SHADEDGE
 70
     3
  9
$SHADEDIF
 70
    70
  9
$TILEMODE
 70
     1
  9
$MAXACTVP
 70
    64
  9
$PINSBASE
 10
0.0
 20
0.0
 30
0.0
  9
$PLIMCHECK
 70
     0
  9
$PEXTMIN
 10
1.000000000000000E+20
 20
1.000000000000000E+20
 30
1.000000000000000E+20
  9
$PEXTMAX
 10
-1.000000000000000E+20
 20
-1.000000000000000E+20
 30
-1.000000000000000E+20
  9
$PLIMMIN
 10
0.0
 20
0.0
  9
$PLIMMAX
 10
12.0
 20
9.0
  9
$UNITMODE
 70
     0
  9
$VISRETAIN
 70
     1
  9
$PLINEGEN
 70
     0
  9
$PSLTSCALE
 70
     1
  9
$TREEDEPTH
 70
  3020
  9
$CMLSTYLE
  2
Standard
  9
$CMLJUST
 70
     0
  9
$CMLSCALE
 40
20.0
  9
$PROXYGRAPHICS
 70
     1
  9
$MEASUREMENT
 70
     0
  9
$CELWEIGHT
370
    -1
  9
$ENDCAPS
280
     0
  9
$JOINSTYLE
280
     0
  9
$LWDISPLAY
290
     0
  9
$INSUNITS
 70
     0
  9
$HYPERLINKBASE
  1

  9
$STYLESHEET
  1

  9
$XEDIT
290
     1
  9
$CEPSNTYPE
380
     0
  9
$PSTYLEMODE
290
     1
  9
$FINGERPRINTGUID
  2
{3EEA27AE-FC72-4A47-BAAA-489EA8A3C03F}
  9
$VERSIONGUID
  2
{70971744-AB6A-804A-BA24-FDA376FE1A97}
  9
$EXTNAMES
290
     1
  9
$PSVPSCALE
 40
0.0
  9
$OLESTARTUP
290
     0
  9
$SORTENTS
280
   127
  9
$INDEXCTL
280
     0
  9
$HIDETEXT
280
     1
  9
$XCLIPFRAME
280
     2
  9
$HALOGAP
280
     0
  9
$OBSCOLOR
 70
   257
  9
$OBSLTYPE
280
     0
  9
$INTERSECTIONDISPLAY
280
     0
  9
$INTERSECTIONCOLOR
 70
   257
  9
$DIMASSOC
280
     2
  9
$PROJECTNAME
  1

  9
$CAMERADISPLAY
290
     0
  9
$LENSLENGTH
 40
50.0
  9
$CAMERAHEIGHT
 40
0.0
  9
$STEPSPERSEC
 40
2.0
  9
$STEPSIZE
 40
6.0
  9
$3DDWFPREC
 40
2.0
  9
$PSOLWIDTH
 40
0.25
  9
$PSOLHEIGHT
 40
4.0
  9
$LOFTANG1
 40
1.570796326794896
  9
$LOFTANG2
 40
1.570796326794896
  9
$LOFTMAG1
 40
0.0
  9
$LOFTMAG2
 40
0.0
  9
$LOFTPARAM
 70
     7
  9
$LOFTNORMALS
280
     1
  9
$LATITUDE
 40
37.795
  9
$LONGITUDE
 40
-122.394
  9
$NORTHDIRECTION
 40
0.0
  9
$TIMEZONE
 70
 -8000
  9
$LIGHTGLYPHDISPLAY
280
     1
  9
$TILEMODELIGHTSYNCH
280
     1
  9
$CMATERIAL
347
8F0
  9
$SOLIDHIST
280
     0
  9
$SHOWHIST
280
     1
  9
$DWFFRAME
280
     2
  9
$DGNFRAME
280
     0
  9
$REALWORLDSCALE
290
     1
  9
$INTERFERECOLOR
 62
     1
  9
$INTERFEREOBJVS
345
912
  9
$INTERFEREVPVS
346
90F
  9
$CSHADOW
280
     0
  9
$SHADOWPLANELOCATION
 40
0.0
  0
ENDSEC
  0
SECTION
  2
CLASSES
  0
CLASS
  1
RASTERVARIABLES
  2
AcDbRasterVariables
  3
ISM
 90
        0
 91
        1
280
     0
281
     0
  0
CLASS
  1
ACDBDICTIONARYWDFLT
  2
AcDbDictionaryWithDefault
  3
ObjectDBX Classes
 90
        0
 91
        1
280
     0
281
     0
  0
CLASS
  1
MATERIAL
  2
AcDbMaterial
  3
ObjectDBX Classes
 90
     1153
 91
        3
280
     0
281
     0
  0
CLASS
  1
VISUALSTYLE
  2
AcDbVisualStyle
  3
ObjectDBX Classes
 90
     4095
 91
       24
280
     0
281
     0
  0
CLASS
  1
TABLESTYLE
  2
AcDbTableStyle
  3
ObjectDBX Classes
 90
     4095
 91
        1
280
     0
281
     0
  0
CLASS
  1
SCALE
  2
AcDbScale
  3
ObjectDBX Classes
 90
     1153
 91
       17
280
     0
281
     0
  0
CLASS
  1
MLEADERSTYLE
  2
AcDbMLeaderStyle
  3
ACDB_MLEADERSTYLE_CLASS
 90
     4095
 91
        1
280
     0
281
     0
  0
CLASS
  1
ACDBSECTIONVIEWSTYLE
  2
AcDbSectionViewStyle
  3
ObjectDBX Classes
 90
     1025
 91
        1
280
     0
281
     0
  0
CLASS
  1
ACDBDETAILVIEWSTYLE
  2
AcDbDetailViewStyle
  3
ObjectDBX Classes
 90
     1025
 91
        1
280
     0
281
     0
  0
CLASS
  1
DICTIONARYVAR
  2
AcDbDictionaryVar
  3
ObjectDBX Classes
 90
        0
 91
        5
280
     0
281
     0
  0
CLASS
  1
SORTENTSTABLE
  2
AcDbSortentsTable
  3
ObjectDBX Classes
 90
        0
 91
        0
280
     0
281
     0
  0
CLASS
  1
CELLSTYLEMAP
  2
AcDbCellStyleMap
  3
ObjectDBX Classes
 90
     1152
 91
        2
280
     0
281
     0
  0
ENDSEC
  0
SECTION
  2
TABLES
  0
TABLE
  2
VPORT
  5
1
330
0
100
AcDbSymbolTable
 70
     1
  0
VPORT
  5
2
330
1
100
AcDbSymbolTableRecord
100
AcDbViewportTableRecord
  2
*Active
 70
     0
 10
0.0
 20
0.0
 11
1.0
 21
1.0
 12
13783.86332487881
 22
16120.17882562976
 13
0.0
 23
0.0
 14
0.5
 24
0.5
 15
10.0
 25
10.0
 16
0.0
 26
0.0
 36
1.0
 17
1385264.28830591
 27
339116.894073843
 37
0.0
 40
15942.32985982019
 41
1.565580618212197
 42
50.0
 43
0.0
 44
0.0
 50
0.0
 51
0.0
 71
     0
 72
   100
 73
     1
 74
     1
 75
     0
 76
     1
 77
     0
 78
     0
281
     0
 65
     1
110
0.0
120
0.0
130
0.0
111
1.0
121
0.0
131
0.0
112
0.0
122
1.0
132
0.0
 79
     0
146
0.0
348
90E
 60
     3
 61
     5
292
     1
282
     1
141
0.0
142
0.0
 63
   250
421
  3355443
1001
ACAD_NAV_VCDISPLAY
1070
     3
  0
ENDTAB
  0
TABLE
  2
LTYPE
  5
7
330
0
100
AcDbSymbolTable
 70
     1
  0
LTYPE
  5
17
330
7
100
AcDbSymbolTableRecord
100
AcDbLinetypeTableRecord
  2
ByBlock
 70
     0
  3

 72
    65
 73
     0
 40
0.0
  0
LTYPE
  5
16
330
7
100
AcDbSymbolTableRecord
100
AcDbLinetypeTableRecord
  2
ByLayer
 70
     0
  3

 72
    65
 73
     0
 40
0.0
  0
LTYPE
  5
15
330
7
100
AcDbSymbolTableRecord
100
AcDbLinetypeTableRecord
  2
Continuous
 70
     0
  3
Solid line
 72
    65
 73
     0
 40
0.0
  0
ENDTAB
  0
TABLE
  2
LAYER
  5
5
102
{ACAD_XDICTIONARY
360
6
102
}
330
0
100
AcDbSymbolTable
 70
    16
  0
LAYER
  5
14
330
5
100
AcDbSymbolTableRecord
100
AcDbLayerTableRecord
  2
0
 70
     0
 62
    -7
  6
Continuous
370
    -3
390
8EE
347
900
348
0
  0
LAYER
  5
22
330
5
100
AcDbSymbolTableRecord
100
AcDbLayerTableRecord
  2
Контура исторический центр для сайта
 70
     0
 62
    -7
  6
Continuous
370
    -3
390
8EE
347
900
348
0
  0
LAYER
  5
956
330
5
100
AcDbSymbolTableRecord
100
AcDbLayerTableRecord
  2
Р-1
 70
     0
 62
    40
  6
Continuous
370
    -3
390
8EE
347
900
348
0
1001
AcAecLayerStandard
1000

1000

1001
AcCmTransparency
1071
        0
  0
LAYER
  5
95F
330
5
100
AcDbSymbolTableRecord
100
AcDbLayerTableRecord
  2
Р-2
 70
     0
 62
   140
  6
Continuous
370
    -3
390
8EE
347
900
348
0
1001
AcAecLayerStandard
1000

1000

1001
AcCmTransparency
1071
        0
  0
LAYER
  5
960
330
5
100
AcDbSymbolTableRecord
100
AcDbLayerTableRecord
  2
РЦИ
 70
     0
 62
    30
  6
Continuous
370
    -3
390
8EE
347
900
348
0
1001
AcAecLayerStandard
1000

1000

1001
AcCmTransparency
1071
        0
  0
LAYER
  5
961
330
5
100
AcDbSymbolTableRecord
100
AcDbLayerTableRecord
  2
Р-4
 70
     0
 62
   190
  6
Continuous
370
    -3
390
8EE
347
900
348
0
1001
AcAecLayerStandard
1000

1000

1001
AcCmTransparency
1071
        0
  0
LAYER
  5
962
330
5
100
AcDbSymbolTableRecord
100
AcDbLayerTableRecord
  2
РОКН
 70
     0
 62
    12
  6
Continuous
370
    -3
390
8EE
347
900
348
0
1001
AcAecLayerStandard
1000

1000

1001
AcCmTransparency
1071
        0
  0
LAYER
  5
963
330
5
100
AcDbSymbolTableRecord
100
AcDbLayerTableRecord
  2
РИП
 70
     0
 62
    42
  6
Continuous
370
    -3
390
8EE
347
900
348
0
1001
AcAecLayerStandard
1000

1000

1001
AcCmTransparency
1071
        0
  0
LAYER
  5
964
330
5
100
AcDbSymbolTableRecord
100
AcDbLayerTableRecord
  2
РПЛ
 70
     0
 62
    70
  6
Continuous
370
    -3
390
8EE
347
900
348
0
1001
AcAecLayerStandard
1000

1000

1001
AcCmTransparency
1071
        0
  0
LAYER
  5
965
330
5
100
AcDbSymbolTableRecord
100
AcDbLayerTableRecord
  2
РГЛ
 70
     0
 62
    74
  6
Continuous
370
    -3
390
8EE
347
900
348
0
1001
AcAecLayerStandard
1000

1000

1001
AcCmTransparency
1071
        0
  0
LAYER
  5
966
330
5
100
AcDbSymbolTableRecord
100
AcDbLayerTableRecord
  2
Р-3
 70
     0
 62
   142
  6
Continuous
370
    -3
390
8EE
347
900
348
0
1001
AcAecLayerStandard
1000

1000

1001
AcCmTransparency
1071
        0
  0
LAYER
  5
967
330
5
100
AcDbSymbolTableRecord
100
AcDbLayerTableRecord
  2
РТ
 70
     0
 62
     8
  6
Continuous
370
    -3
390
8EE
347
900
348
0
1001
AcAecLayerStandard
1000

1000

1001
AcCmTransparency
1071
        0
  0
LAYER
  5
975
330
5
100
AcDbSymbolTableRecord
100
AcDbLayerTableRecord
  2
Ранее утвержденные зоны охраняемоего природного ландшафта
 70
     0
 62
   105
  6
Continuous
370
    -3
390
8EE
347
900
348
0
1001
AcAecLayerStandard
1000

1000

1001
AcCmTransparency
1071
        0
  0
LAYER
  5
992
330
5
100
AcDbSymbolTableRecord
100
AcDbLayerTableRecord
  2
д
 70
     0
 62
    -7
  6
Continuous
370
    -3
390
8EE
347
900
348
0
1001
AcAecLayerStandard
1000

1000

1001
AcCmTransparency
1071
        0
  0
LAYER
  5
993
330
5
100
AcDbSymbolTableRecord
100
AcDbLayerTableRecord
  2
Ранее утвержденные зоны регулирования застройки
 70
     0
 62
    52
  6
Continuous
370
    -3
390
8EE
347
900
348
0
1001
AcAecLayerStandard
1000

1000

1001
AcCmTransparency
1071
        0
  0
LAYER
  5
994
330
5
100
AcDbSymbolTableRecord
100
AcDbLayerTableRecord
  2
Ранее утвержденные охранные зоны
 70
     0
 62
     7
  6
Continuous
370
    -3
390
8EE
347
900
348
0
1001
AcAecLayerStandard
1000

1000

1001
AcCmTransparency
1071
        0
  0
ENDTAB
  0
TABLE
  2
STYLE
  5
8
330
0
100
AcDbSymbolTable
 70
     1
  0
STYLE
  5
18
330
8
100
AcDbSymbolTableRecord
100
AcDbTextStyleTableRecord
  2
Standard
 70
     0
 40
0.0
 41
1.0
 50
0.0
 71
     0
 42
0.0
  3
simplex.shx
  4

  0
ENDTAB
  0
TABLE
  2
VIEW
  5
3
330
0
100
AcDbSymbolTable
 70
     0
  0
ENDTAB
  0
TABLE
  2
UCS
  5
C
330
0
100
AcDbSymbolTable
 70
     0
  0
ENDTAB
  0
TABLE
  2
APPID
  5
4
330
0
100
AcDbSymbolTable
 70
    10
  0
APPID
  5
19
330
4
100
AcDbSymbolTableRecord
100
AcDbRegAppTableRecord
  2
ACAD
 70
     0
  0
APPID
  5
8E3
330
4
100
AcDbSymbolTableRecord
100
AcDbRegAppTableRecord
  2
AcCmTransparency
 70
     0
  0
APPID
  5
8E4
330
4
100
AcDbSymbolTableRecord
100
AcDbRegAppTableRecord
  2
GradientColor1ACI
 70
     0
  0
APPID
  5
8E5
330
4
100
AcDbSymbolTableRecord
100
AcDbRegAppTableRecord
  2
GradientColor2ACI
 70
     0
  0
APPID
  5
93E
330
4
100
AcDbSymbolTableRecord
100
AcDbRegAppTableRecord
  2
ACAD_NAV_VCDISPLAY
 70
     0
  0
APPID
  5
957
330
4
100
AcDbSymbolTableRecord
100
AcDbRegAppTableRecord
  2
AcAecLayerStandard
 70
     0
  0
APPID
  5
958
330
4
100
AcDbSymbolTableRecord
100
AcDbRegAppTableRecord
  2
ACAD_EXEMPT_FROM_CAD_STANDARDS
 70
     0
  0
APPID
  5
977
330
4
100
AcDbSymbolTableRecord
100
AcDbRegAppTableRecord
  2
AcadAnnotative
 70
     0
  0
APPID
  5
978
330
4
100
AcDbSymbolTableRecord
100
AcDbRegAppTableRecord
  2
ACAD_DSTYLE_DIMJAG
 70
     0
  0
APPID
  5
979
330
4
100
AcDbSymbolTableRecord
100
AcDbRegAppTableRecord
  2
ACAD_DSTYLE_DIMTALN
 70
     0
  0
ENDTAB
  0
TABLE
  2
DIMSTYLE
  5
A
330
0
100
AcDbSymbolTable
 70
     2
100
AcDbDimStyleTable
 71
     1
340
1A
  0
DIMSTYLE
105
1A
330
A
100
AcDbSymbolTableRecord
100
AcDbDimStyleTableRecord
  2
Standard
 70
     0
 73
     0
 74
     0
340
18
345
17
346
17
347
17
  0
DIMSTYLE
105
976
330
A
100
AcDbSymbolTableRecord
100
AcDbDimStyleTableRecord
  2
Аннотативный
 70
     0
 40
0.0
340
18
1001
AcadAnnotative
1000
AnnotativeData
1002
{
1070
     1
1070
     1
1002
}
1001
ACAD_DSTYLE_DIMJAG
1070
   388
1040
1.5
1001
ACAD_DSTYLE_DIMTALN
1070
   392
1070
     0
  0
ENDTAB
  0
TABLE
  2
BLOCK_RECORD
  5
D
330
0
100
AcDbSymbolTable
 70
     0
  0
BLOCK_RECORD
  5
1C
330
D
100
AcDbSymbolTableRecord
100
AcDbBlockTableRecord
  2
*Model_Space
340
20
 70
     0
280
     1
281
     0
  0
BLOCK_RECORD
  5
8DD
330
D
100
AcDbSymbolTableRecord
100
AcDbBlockTableRecord
  2
*Paper_Space
340
8E2
 70
     0
280
     1
281
     0
  0
ENDTAB
  0
ENDSEC
  0
SECTION
  2
BLOCKS
  0
BLOCK
  5
1E
330
1C
100
AcDbEntity
  8
0
100
AcDbBlockBegin
  2
*Model_Space
 70
     0
 10
0.0
 20
0.0
 30
0.0
  3
*Model_Space
  1

  0
ENDBLK
  5
1D
330
1C
100
AcDbEntity
  8
0
100
AcDbBlockEnd
  0
BLOCK
  5
8DF
330
8DD
100
AcDbEntity
 67
     1
  8
0
100
AcDbBlockBegin
  2
*Paper_Space
 70
     0
 10
0.0
 20
0.0
 30
0.0
  3
*Paper_Space
  1

  0
ENDBLK
  5
8DE
330
8DD
100
AcDbEntity
 67
     1
  8
0
100
AcDbBlockEnd
  0
ENDSEC
  0
SECTION
  2
ENTITIES
  0
LWPOLYLINE
  5
101
330
1C
100
AcDbEntity
  8
Р-2
370
    20
100
AcDbPolyline
 90
       14
 70
     0
 43
0.0
 10
1393505.48921709
 20
358030.746308148
 10
1393544.61921725
 20
358065.6362943531
 10
1393522.3792238
 20
358079.246296419
 10
1393493.13574896
 20
358097.415522393
 10
1393461.87923077
 20
358061.746311455
 10
1393456.81922893
 20
358048.0663148171
 10
1393442.98922803
 20
358031.486320434
 10
1393459.15922265
 20
358018.4163194721
 10
1393461.15922197
 20
358016.8063193611
 10
1393472.249222
 20
358026.586315464
 10
1393480.79921919
 20
358019.866314938
 10
1393494.3292196
 20
358033.7163098521
 10
1393501.28921836
 20
358033.546308494
 10
1393505.48921709
 20
358030.746308148
  0
LWPOLYLINE
  5
113
330
1C
100
AcDbEntity
  8
Р-2
370
    20
100
AcDbPolyline
 90
       22
 70
     0
 43
0.0
 10
1394332.29133748
 20
359590.12502467
 10
1394372.09938249
 20
359618.405861765
 10
1394411.7893812
 20
359646.435849038
 10
1394428.58938069
 20
359658.47584363
 10
1394439.15357434
 20
359667.7310589361
 10
1394432.99763557
 20
359698.0377957051
 10
1394425.25924798
 20
359711.319817986
 10
1394402.21456278
 20
359710.564736131
 10
1394402.27645077
 20
359708.6759482041
 10
1394399.00939509
 20
359705.315841409
 10
1394399.08939481
 20
359703.985841624
 10
1394367.58129906
 20
359702.6802484471
 10
1394363.72347589
 20
359698.0978788101
 10
1394342.51940326
 20
359697.2758540101
 10
1394318.57967147
 20
359670.7661615901
 10
1394295.74933685
 20
359645.706528803
 10
1394294.71933671
 20
359644.406529206
 10
1394288.70933652
 20
359637.826531598
 10
1394292.54933484
 20
359632.646531721
 10
1394311.28932771
 20
359613.316531125
 10
1394319.85932427
 20
359603.426531158
 10
1394332.29133748
 20
359590.12502467
  0
LWPOLYLINE
  5
114
330
1C
100
AcDbEntity
  8
Р-2
370
    20
100
AcDbPolyline
 90
       14
 70
     0
 43
0.0
 10
1394304.05755674
 20
359487.63855791
 10
1394306.44936873
 20
359491.945896649
 10
1394325.92936874
 20
359508.955889846
 10
1394339.69934569
 20
359528.7107451071
 10
1394351.73937023
 20
359538.885879548
 10
1394373.28936742
 20
359543.4958744711
 10
1394411.8293611
 20
359545.215866524
 10
1394405.90952039
 20
359571.023722967
 10
1394380.41639618
 20
359596.732525914
 10
1394349.59931281
 20
359571.606530432
 10
1394336.30931296
 20
359560.776535122
 10
1394301.29931335
 20
359532.236547205
 10
1394281.02931119
 20
359503.686556358
 10
1394304.05755674
 20
359487.63855791
  0
LWPOLYLINE
  5
118
330
1C
100
AcDbEntity
  8
Р-2
370
    20
100
AcDbPolyline
 90
       11
 70
     0
 43
0.0
 10
1394628.75931524
 20
359502.955830756
 10
1394634.71312823
 20
359501.415621964
 10
1394641.1072966
 20
359526.132847065
 10
1394665.97144034
 20
359520.016753794
 10
1394659.09986178
 20
359492.4424337921
 10
1394665.48930645
 20
359490.625825598
 10
1394658.82930188
 20
359461.795831901
 10
1394657.31398373
 20
359455.236286293
 10
1394619.41781636
 20
359464.023815448
 10
1394620.65930988
 20
359468.8658382561
 10
1394628.75931524
 20
359502.955830756
  0
LWPOLYLINE
  5
119
330
1C
100
AcDbEntity
  8
Р-2
370
    20
100
AcDbPolyline
 90
       10
 70
     0
 43
0.0
 10
1394323.34132385
 20
358887.7493109321
 10
1394314.81924076
 20
358854.45600515
 10
1394297.0353366
 20
358784.603876978
 10
1394315.57742423
 20
358779.167474321
 10
1394342.35922667
 20
358807.3860078121
 10
1394360.45814882
 20
358823.2882447601
 10
1394380.38922594
 20
358836.815995173
 10
1394422.28210674
 20
358864.467211158
 10
1394410.95922673
 20
358867.4559838071
 10
1394323.34132385
 20
358887.7493109321
  0
LWPOLYLINE
  5
11B
330
1C
100
AcDbEntity
  8
Р-2
370
    20
100
AcDbPolyline
 90
       14
 70
     0
 43
0.0
 10
1394441.3423154
 20
358857.132991265
 10
1394365.69094775
 20
358809.222411263
 10
1394332.31922299
 20
358780.136014515
 10
1394344.90870227
 20
358768.5251625511
 10
1394355.91602385
 20
358761.865346443
 10
1394351.10750527
 20
358739.1164795521
 10
1394366.14920747
 20
358731.346016225
 10
1394387.1492028
 20
358726.156012961
 10
1394396.67300551
 20
358724.446746118
 10
1394395.49919664
 20
358702.306015416
 10
1394448.60919721
 20
358751.455996384
 10
1394507.67920087
 20
358821.295972588
 10
1394478.25921018
 20
358842.5959747411
 10
1394441.3423154
 20
358857.132991265
  0
LWPOLYLINE
  5
11D
330
1C
100
AcDbEntity
  8
Р-2
370
    20
100
AcDbPolyline
 90
       17
 70
     0
 43
0.0
 10
1394796.781754
 20
358956.2686367171
 10
1394840.82126267
 20
359068.373744407
 10
1394749.32160955
 20
359100.0962659681
 10
1394740.39921205
 20
359080.215881642
 10
1394723.63920709
 20
359040.705891756
 10
1394711.49920485
 20
359018.7658979929
 10
1394713.75920268
 20
359009.775899104
 10
1394696.4092003
 20
358982.725907222
 10
1394680.15068141
 20
358944.203083849
 10
1394687.27334835
 20
358943.2200128311
 10
1394718.86948831
 20
358942.4637679521
 10
1394719.80919453
 20
358974.0259040801
 10
1394735.06008664
 20
358974.930005372
 10
1394757.10918744
 20
358970.695897249
 10
1394764.25278911
 20
358968.0491487761
 10
1394770.9845746
 20
358963.100319972
 10
1394796.781754
 20
358956.2686367171
  0
LWPOLYLINE
  5
11E
330
1C
100
AcDbEntity
  8
Р-2
370
    20
100
AcDbPolyline
 90
       15
 70
     0
 43
0.0
 10
1394322.88919452
 20
358628.436042594
 10
1394371.60919513
 20
358673.9360250601
 10
1394371.61919686
 20
358682.6460235571
 10
1394362.02919767
 20
358678.436026188
 10
1394359.57919831
 20
358679.516026483
 10
1394366.92919998
 20
358694.3260224761
 10
1394338.56920768
 20
358708.406025673
 10
1394329.51920671
 20
358695.666029663
 10
1394327.30920671
 20
358693.706030445
 10
1394325.22920689
 20
358692.866030994
 10
1394311.62920268
 20
358659.756039418
 10
1394312.37920064
 20
358650.166040926
 10
1394309.3791998
 20
358643.316042713
 10
1394308.25919898
 20
358638.216043819
 10
1394322.88919452
 20
358628.436042594
  0
LWPOLYLINE
  5
11F
330
1C
100
AcDbEntity
  8
Р-2
370
    20
100
AcDbPolyline
 90
       13
 70
     0
 43
0.0
 10
1394180.22600434
 20
358578.2541264701
 10
1394180.92920882
 20
358576.9760796771
 10
1394187.22920546
 20
358565.526080398
 10
1394239.22920105
 20
358588.566066098
 10
1394243.07919938
 20
358583.486066214
 10
1394260.28919813
 20
358592.166061298
 10
1394248.89920306
 20
358607.0660609831
 10
1394243.32920543
 20
358614.206060856
 10
1394235.35920847
 20
358622.6260609811
 10
1394226.23920832
 20
358613.906064299
 10
1394224.12920804
 20
358610.6260652821
 10
1394189.13920874
 20
358583.6860768861
 10
1394180.22600434
 20
358578.2541264701
  0
LWPOLYLINE
  5
128
330
1C
100
AcDbEntity
  8
Р-2
370
    20
100
AcDbPolyline
 90
        8
 70
     0
 43
0.0
 10
1393323.33457598
 20
357835.6795498151
 10
1393345.47410593
 20
357814.5028957171
 10
1393245.27527925
 20
357728.527649438
 10
1393220.83417408
 20
357750.980516666
 10
1393240.64921136
 20
357771.3764055391
 10
1393289.36921226
 20
357818.356387749
 10
1393297.50914485
 20
357811.367051949
 10
1393323.33457598
 20
357835.6795498151
  0
LWPOLYLINE
  5
129
330
1C
100
AcDbEntity
  8
Р-2
370
    20
100
AcDbPolyline
 90
        9
 70
     0
 43
0.0
 10
1393345.47410593
 20
357814.5028957171
 10
1393365.92920197
 20
357833.096370001
 10
1393410.57920166
 20
357870.366354706
 10
1393425.66920151
 20
357882.75634957
 10
1393461.00920172
 20
357914.606337043
 10
1393465.45920181
 20
357918.9363354141
 10
1393439.01914687
 20
357944.5869996511
 10
1393323.33457598
 20
357835.6795498151
 10
1393345.47410593
 20
357814.5028957171
  0
LWPOLYLINE
  5
12A
330
1C
100
AcDbEntity
  8
Р-2
370
    20
100
AcDbPolyline
 90
       14
 70
     0
 43
0.0
 10
1393536.67619574
 20
357984.119418795
 10
1393571.78920239
 20
358014.3862978171
 10
1393631.80920418
 20
358075.666275311
 10
1393669.47920543
 20
358114.706261092
 10
1393702.06920511
 20
358141.506249989
 10
1393701.09920556
 20
358142.896249939
 10
1393725.45920583
 20
358165.4762411991
 10
1393731.80920605
 20
358172.1162387971
 10
1393711.81921422
 20
358195.876238661
 10
1393710.23580628
 20
358197.3291360021
 10
1393703.56921715
 20
358203.4462389901
 10
1393589.94421453
 20
358091.36128091
 10
1393514.61186306
 20
358011.8094365601
 10
1393536.67619574
 20
357984.119418795
  0
LWPOLYLINE
  5
130
330
1C
100
AcDbEntity
  8
Р-2
370
    20
100
AcDbPolyline
 90
       31
 70
     0
 43
0.0
 10
1394411.8293611
 20
359545.215866524
 10
1394422.21739113
 20
359545.115561843
 10
1394486.34035192
 20
359554.7487320729
 10
1394503.85314213
 20
359561.218640795
 10
1394505.31757806
 20
359580.969200115
 10
1394552.39335792
 20
359599.6443112971
 10
1394566.90187969
 20
359609.8451297921
 10
1394571.10935026
 20
359627.8458206171
 10
1394558.45935224
 20
359628.125823083
 10
1394556.49935546
 20
359642.665820963
 10
1394561.89935426
 20
359641.335820124
 10
1394570.14935975
 20
359676.1658124651
 10
1394564.04936147
 20
359679.585813078
 10
1394564.49936288
 20
359687.0658117021
 10
1394566.94936437
 20
359696.645809558
 10
1394579.6748215
 20
359707.3602405921
 10
1394567.61170365
 20
359719.804440398
 10
1394575.20931173
 20
359762.13645091
 10
1394561.58931462
 20
359764.836453264
 10
1394537.76931998
 20
359770.7764571441
 10
1394528.01931369
 20
359730.8664660751
 10
1394522.19937646
 20
359718.665814641
 10
1394511.81937579
 20
359706.29581884
 10
1394463.77026144
 20
359663.7742564811
 10
1394479.18688827
 20
359645.9084212861
 10
1394448.26318675
 20
359618.969257838
 10
1394432.77187026
 20
359637.768727613
 10
1394402.16937652
 20
359614.465856475
 10
1394380.41639618
 20
359596.732525914
 10
1394405.90952039
 20
359571.023722967
 10
1394411.8293611
 20
359545.215866524
  0
LWPOLYLINE
  5
131
330
1C
100
AcDbEntity
  8
Р-2
370
    20
100
AcDbPolyline
 90
       33
 70
     0
 43
0.0
 10
1394666.06152644
 20
359742.9934676921
 10
1394600.2093124
 20
359463.795843188
 10
1394572.24488777
 20
359352.7765799211
 10
1394622.63486601
 20
359338.814165759
 10
1394623.99922036
 20
359344.006512993
 10
1394627.01204501
 20
359352.1172706411
 10
1394663.47927762
 20
359343.6258513971
 10
1394664.47927831
 20
359347.9458504531
 10
1394667.54927764
 20
359347.2758499561
 10
1394674.07927622
 20
359345.7858489141
 10
1394680.33997043
 20
359340.0809432611
 10
1394705.41083809
 20
359443.7891678071
 10
1394703.26922665
 20
359444.296479299
 10
1394680.66923158
 20
359449.846482989
 10
1394693.36923904
 20
359498.0964720921
 10
1394668.23924457
 20
359504.576476176
 10
1394673.63924785
 20
359525.496471474
 10
1394661.24925059
 20
359528.666473427
 10
1394667.06925488
 20
359555.3664675871
 10
1394681.68925174
 20
359552.016465138
 10
1394702.49926504
 20
359637.2264461821
 10
1394707.20926395
 20
359636.086445358
 10
1394724.73074773
 20
359728.028479504
 10
1394707.19928304
 20
359731.7964288411
 10
1394707.95928361
 20
359735.80642803
 10
1394704.63928437
 20
359736.546428564
 10
1394704.48928438
 20
359736.576428579
 10
1394702.09928491
 20
359737.1764290221
 10
1394690.76928722
 20
359739.036430995
 10
1394693.31928881
 20
359749.346428725
 10
1394680.8892915
 20
359752.116430824
 10
1394678.20928962
 20
359740.086433398
 10
1394666.06152644
 20
359742.9934676921
  0
LWPOLYLINE
  5
132
330
1C
100
AcDbEntity
  8
Р-2
370
    20
100
AcDbPolyline
 90
       24
 70
     0
 43
0.0
 10
1393676.5704025
 20
358213.718266702
 10
1393658.79922324
 20
358195.186249303
 10
1393642.76922433
 20
358186.736253939
 10
1393628.73922565
 20
358181.206257688
 10
1393580.30570707
 20
358162.8974654311
 10
1393506.90923673
 20
358130.956290556
 10
1393498.64923711
 20
358125.686293104
 10
1393502.50575095
 20
358135.781992728
 10
1393510.48923963
 20
358148.676286784
 10
1393517.31924059
 20
358159.4462835671
 10
1393520.96924083
 20
358163.856282074
 10
1393552.45924217
 20
358197.966269933
 10
1393561.40924213
 20
358205.576266836
 10
1393565.63924199
 20
358208.556265489
 10
1393576.30924088
 20
358212.306262715
 10
1393615.10923557
 20
358219.2962538111
 10
1393621.65923436
 20
358218.876252582
 10
1393627.58923303
 20
358217.326251671
 10
1393630.34923195
 20
358214.326251638
 10
1393643.20923152
 20
358223.306247536
 10
1393646.8592314
 20
358225.926246358
 10
1393659.82922993
 20
358229.77624312
 10
1393670.73922584
 20
358218.676242868
 10
1393676.5704025
 20
358213.718266702
  0
LWPOLYLINE
  5
134
330
1C
100
AcDbEntity
  8
Р-2
370
    20
100
AcDbPolyline
 90
       15
 70
     0
 43
0.0
 10
1394445.46933089
 20
359422.3058810871
 10
1394448.07933271
 20
359433.7358785871
 10
1394448.21933354
 20
359438.0258778191
 10
1394417.6693403
 20
359445.475882604
 10
1394419.82934096
 20
359450.675881269
 10
1394419.80930352
 20
359455.134405358
 10
1394382.11934763
 20
359451.455888629
 10
1394378.1906073
 20
359429.697189745
 10
1394393.67934068
 20
359426.51589064
 10
1394394.13934015
 20
359424.265890941
 10
1394391.18933762
 20
359408.935894169
 10
1394391.64940247
 20
359400.1483111411
 10
1394426.68422002
 20
359390.695412819
 10
1394440.43374656
 20
359397.544762569
 10
1394445.46933089
 20
359422.3058810871
  0
LWPOLYLINE
  5
175
330
1C
100
AcDbEntity
  8
Р-2
370
    20
100
AcDbPolyline
 90
       27
 70
     0
 43
0.0
 10
1394958.40606465
 20
360260.676450166
 10
1394953.76677215
 20
360242.1924278071
 10
1394998.47359016
 20
360230.2726043421
 10
1395065.32739884
 20
360212.447902069
 10
1395061.22937829
 20
360197.0356249501
 10
1395059.55620323
 20
360190.8739381329
 10
1395111.78660113
 20
360178.339472689
 10
1395113.11137051
 20
360183.8764036771
 10
1395117.03906018
 20
360199.1099913141
 10
1395115.06762625
 20
360202.440568323
 10
1395120.73408581
 20
360228.120127525
 10
1395121.92937504
 20
360233.4656066011
 10
1395127.07937807
 20
360253.2056021701
 10
1395098.76938443
 20
360260.59560651
 10
1395101.3393858
 20
360269.735604421
 10
1395089.90938838
 20
360272.805606158
 10
1395069.02939308
 20
360278.275609363
 10
1395068.37939275
 20
360276.055609873
 10
1395041.66939855
 20
360282.025614147
 10
1395036.21939973
 20
360283.2356150179
 10
1395020.30941201
 20
360287.284219879
 10
1394989.84168072
 20
360295.037324371
 10
1394986.51141797
 20
360282.1938519221
 10
1395001.24111988
 20
360278.418747245
 10
1394994.6506827
 20
360251.668336323
 10
1394988.01940208
 20
360253.135629789
 10
1394958.40606465
 20
360260.676450166
  0
LWPOLYLINE
  5
176
330
1C
100
AcDbEntity
  8
Р-2
370
    20
100
AcDbPolyline
 90
       25
 70
     0
 43
0.0
 10
1395301.6288622
 20
360811.872976288
 10
1395304.90442716
 20
360826.0086559061
 10
1395270.5694684
 20
360833.1454734511
 10
1395256.61947048
 20
360831.525476509
 10
1395211.2300048
 20
360815.6879203411
 10
1395175.92613172
 20
360824.633676014
 10
1395161.48948474
 20
360820.5354972979
 10
1395135.22349815
 20
360826.1608627421
 10
1395125.38949149
 20
360823.1755040041
 10
1395109.8394949
 20
360826.7455064821
 10
1395099.65513126
 20
360818.994680274
 10
1395057.97977671
 20
360828.01519751
 10
1395053.04950043
 20
360805.215521478
 10
1395124.79948472
 20
360788.535510112
 10
1395123.07060673
 20
360780.578749239
 10
1395293.32479669
 20
360744.054660405
 10
1395295.10944676
 20
360745.525483725
 10
1395303.83929626
 20
360757.990984374
 10
1395315.12780272
 20
360769.1308167711
 10
1395322.89944783
 20
360775.075473099
 10
1395329.85635898
 20
360780.910491
 10
1395339.84898255
 20
360785.215173804
 10
1395364.74182159
 20
360794.177903578
 10
1395350.73944768
 20
360798.585463508
 10
1395301.6288622
 20
360811.872976288
  0
LWPOLYLINE
  5
178
330
1C
100
AcDbEntity
  8
Р-2
370
    20
100
AcDbPolyline
 90
        6
 70
     0
 43
0.0
 10
1396043.8228522
 20
359620.4454917951
 10
1396143.36924069
 20
359651.8802598821
 10
1396155.40684355
 20
359618.43746485
 10
1396060.27118569
 20
359587.395873146
 10
1396052.17908725
 20
359593.185532552
 10
1396043.8228522
 20
359620.4454917951
  0
LWPOLYLINE
  5
17F
330
1C
100
AcDbEntity
  8
Р-2
370
    20
100
AcDbPolyline
 90
        9
 70
     0
 43
0.0
 10
1398018.58179706
 20
359315.3562461021
 10
1398019.87869735
 20
359341.675185342
 10
1397969.15686578
 20
359344.5593949371
 10
1397869.17872437
 20
359346.645214396
 10
1397869.5087219
 20
359334.485216435
 10
1397869.71872036
 20
359326.8952177111
 10
1397869.87871958
 20
359323.0752183321
 10
1397878.20871808
 20
359322.785216728
 10
1398018.58179706
 20
359315.3562461021
  0
LWPOLYLINE
  5
181
330
1C
100
AcDbEntity
  8
Р-2
370
    20
100
AcDbPolyline
 90
       27
 70
     0
 43
0.0
 10
1398803.11372704
 20
359577.274250205
 10
1398801.11108285
 20
359576.9899057711
 10
1398774.87252882
 20
359574.352093154
 10
1398742.29161452
 20
359571.17828929
 10
1398711.22862282
 20
359568.095008933
 10
1398712.33595285
 20
359557.092218529
 10
1398629.60266951
 20
359544.806950628
 10
1398641.44695534
 20
359468.184366494
 10
1398641.63861502
 20
359468.215040019
 10
1398650.21861376
 20
359469.3350381171
 10
1398654.44861315
 20
359469.925037184
 10
1398661.32861217
 20
359470.9650356371
 10
1398678.64860972
 20
359473.765031709
 10
1398680.28860952
 20
359474.1150313251
 10
1398686.95860862
 20
359475.4150297691
 10
1398689.2786084
 20
359476.3350291501
 10
1398688.70860869
 20
359477.275029111
 10
1398695.7186079
 20
359479.385027349
 10
1398699.50860755
 20
359480.965026321
 10
1398705.40860689
 20
359482.7250248501
 10
1398700.91861222
 20
359505.715021762
 10
1398704.618612
 20
359507.785020678
 10
1398705.07861207
 20
359508.5550204461
 10
1398706.12861255
 20
359511.915019663
 10
1398751.57861159
 20
359546.6050046451
 10
1398765.42861119
 20
359556.6750001461
 10
1398803.11372704
 20
359577.274250205
  0
LWPOLYLINE
  5
185
330
1C
100
AcDbEntity
  8
Р-2
370
    20
100
AcDbPolyline
 90
       15
 70
     0
 43
0.0
 10
1396814.00899849
 20
359809.125343965
 10
1396826.71899966
 20
359826.1153385101
 10
1396832.04899806
 20
359822.715338036
 10
1396844.15900069
 20
359846.5053315161
 10
1396889.77899
 20
359832.31532491
 10
1396886.08899305
 20
359844.455323544
 10
1396896.56899809
 20
359879.0053154951
 10
1396894.53514222
 20
359887.597200564
 10
1396799.47714837
 20
359883.5738997571
 10
1396799.71587597
 20
359877.933512658
 10
1396779.56901824
 20
359878.655338788
 10
1396766.69201722
 20
359860.378992458
 10
1396779.24176731
 20
359837.782491871
 10
1396803.32154901
 20
359819.5992293661
 10
1396814.00899849
 20
359809.125343965
  0
LWPOLYLINE
  5
186
330
1C
100
AcDbEntity
  8
Р-2
370
    20
100
AcDbPolyline
 90
       22
 70
     0
 43
0.0
 10
1398365.57839068
 20
359646.7546082621
 10
1398365.90870949
 20
359704.145053983
 10
1398322.31871745
 20
359706.2550622661
 10
1398301.41891336
 20
359704.2617702001
 10
1398269.91570599
 20
359698.750068974
 10
1398272.10353454
 20
359684.131313539
 10
1398239.25872605
 20
359677.2650837721
 10
1398239.27871233
 20
359608.155095721
 10
1398241.08862169
 20
359470.0957438361
 10
1398275.05861645
 20
359472.9157363371
 10
1398298.8286174
 20
359498.495726928
 10
1398301.46868256
 20
359498.495101394
 10
1398303.7212123
 20
359477.0539296461
 10
1398316.57141021
 20
359477.7921269101
 10
1398360.52860321
 20
359480.535717281
 10
1398361.82866599
 20
359481.415093288
 10
1398361.81510344
 20
359482.806816629
 10
1398364.34397272
 20
359483.199811365
 10
1398364.16103656
 20
359485.489919051
 10
1398374.39724561
 20
359486.50971659
 10
1398370.45867946
 20
359556.735078562
 10
1398365.57839068
 20
359646.7546082621
  0
LWPOLYLINE
  5
188
330
1C
100
AcDbEntity
  8
Р-2
370
    20
100
AcDbPolyline
 90
       52
 70
     0
 43
0.0
 10
1397318.47895367
 20
360022.465206928
 10
1397317.25272585
 20
360011.989485401
 10
1397315.23895024
 20
360002.375211042
 10
1397322.98894866
 20
360001.165209714
 10
1397328.09792255
 20
359998.683226241
 10
1397349.71028223
 20
359995.269662885
 10
1397359.82894124
 20
359995.865203314
 10
1397369.01893901
 20
359992.59520206
 10
1397372.59894286
 20
360015.155197449
 10
1397396.4089374
 20
360008.345193895
 10
1397419.95893111
 20
359997.1451911561
 10
1397455.85892617
 20
360003.5451829161
 10
1397457.39262168
 20
360007.9016214021
 10
1397377.60894699
 20
360040.285192105
 10
1397365.31894998
 20
360044.655193791
 10
1397362.71895064
 20
360045.7151941221
 10
1397362.65895084
 20
360046.7051939611
 10
1397359.36895263
 20
360052.815193565
 10
1397352.94895516
 20
360060.0151935921
 10
1397345.6789569
 20
360062.415194622
 10
1397323.42896237
 20
360070.585197629
 10
1397305.99896652
 20
360076.325200096
 10
1397225.80898077
 20
360078.365215664
 10
1397225.99898207
 20
360085.075214464
 10
1397226.22898291
 20
360089.4652136611
 10
1397170.12899348
 20
360093.8952240371
 10
1397170.12899356
 20
360094.3052239651
 10
1397153.29899823
 20
360103.195225772
 10
1397148.36899935
 20
360104.515226518
 10
1397146.59852792
 20
360104.954095031
 10
1397143.96893481
 20
360094.345862576
 10
1397144.7389323
 20
360082.595864528
 10
1397133.40892728
 20
360047.345872905
 10
1397144.72898722
 20
360040.245238348
 10
1397166.43898315
 20
360038.665234317
 10
1397184.3389799
 20
360037.8652308971
 10
1397204.02724808
 20
360033.850229209
 10
1397211.18897483
 20
360035.7052259471
 10
1397231.78267107
 20
360032.47728472
 10
1397249.14896709
 20
360029.7552194271
 10
1397249.28896799
 20
360034.395218603
 10
1397254.58896694
 20
360033.7252176731
 10
1397256.26896737
 20
360037.3452167071
 10
1397263.87896608
 20
360037.4852151701
 10
1397268.37896506
 20
360036.2552144871
 10
1397275.59896363
 20
360035.29521322
 10
1397280.52896245
 20
360033.645212534
 10
1397283.20896196
 20
360033.5352120211
 10
1397285.22896288
 20
360039.945210509
 10
1397299.61424493
 20
360035.687714393
 10
1397322.86895417
 20
360028.805204957
 10
1397318.47895367
 20
360022.465206928
  0
LWPOLYLINE
  5
18C
330
1C
100
AcDbEntity
  8
Р-2
370
    20
100
AcDbPolyline
 90
        8
 70
     0
 43
0.0
 10
1395975.09545428
 20
359367.2244899951
 10
1395976.92905379
 20
359359.095587948
 10
1395989.47756962
 20
359301.2695132471
 10
1395996.916682199
 20
359266.9542153601
 10
1396091.01131544
 20
359286.1547832681
 10
1396075.21614824
 20
359368.395595846
 10
1396070.86270201
 20
359388.819965544
 10
1395975.09545428
 20
359367.2244899951
  0
LWPOLYLINE
  5
18D
330
1C
100
AcDbEntity
  8
Р-2
370
    20
100
AcDbPolyline
 90
       22
 70
     0
 43
0.0
 10
1395794.09909314
 20
359398.185617494
 10
1395796.0990912
 20
359390.155618483
 10
1395802.72909039
 20
359391.89561686
 10
1395902.21202548
 20
359408.460179414
 10
1395900.26908037
 20
359426.3155915501
 10
1395896.39908164
 20
359429.295591803
 10
1395897.39908387
 20
359441.435589501
 10
1395878.14908805
 20
359445.785592575
 10
1395873.92908915
 20
359447.605593098
 10
1395869.30909014
 20
359448.5855938501
 10
1395868.78908983
 20
359446.585594288
 10
1395819.42910089
 20
359459.275601905
 10
1395818.28910043
 20
359456.045602684
 10
1395808.17256109
 20
359457.938880017
 10
1395809.02910088
 20
359450.195605538
 10
1395808.93910081
 20
359449.7756056301
 10
1395810.12910055
 20
359449.5456054251
 10
1395809.22909992
 20
359445.5656063
 10
1395804.92910085
 20
359446.485606988
 10
1395795.87909397
 20
359403.9456161411
 10
1395795.28791979
 20
359404.067188818
 10
1395794.09909314
 20
359398.185617494
  0
LWPOLYLINE
  5
18F
330
1C
100
AcDbEntity
  8
Р-2
370
    20
100
AcDbPolyline
 90
       11
 70
     0
 43
0.0
 10
1396258.98463188
 20
359433.0107054761
 10
1396386.92463333
 20
359456.966520559
 10
1396392.95833023
 20
359478.351994173
 10
1396372.06901044
 20
359484.675487788
 10
1396356.5190135
 20
359486.525490556
 10
1396340.36901652
 20
359487.645493571
 10
1396323.55901932
 20
359487.1554969951
 10
1396296.09902321
 20
359482.8655031771
 10
1396260.42900423
 20
359476.125503255
 10
1396252.18659056
 20
359473.2977069551
 10
1396258.98463188
 20
359433.0107054761
  0
LWPOLYLINE
  5
193
330
1C
100
AcDbEntity
  8
Р-2
370
    20
100
AcDbPolyline
 90
       42
 70
     0
 43
0.0
 10
1395311.79939911
 20
360519.9555193961
 10
1395355.30938933
 20
360508.535512723
 10
1395384.57106505
 20
360501.415612495
 10
1395396.90422923
 20
360546.644817453
 10
1395425.86200038
 20
360538.938104942
 10
1395414.01546758
 20
360494.044815665
 10
1395521.34676289
 20
360467.551721853
 10
1395523.92929156
 20
360484.616130043
 10
1395526.97510372
 20
360486.44194853
 10
1395522.18905123
 20
360494.4209435271
 10
1395511.53936535
 20
360523.715479076
 10
1395510.639366
 20
360526.1954788331
 10
1395508.50937262
 20
360557.7054738061
 10
1395514.62937529
 20
360576.4754693491
 10
1395535.57920124
 20
360604.449692854
 10
1395528.47937943
 20
360609.4054609091
 10
1395519.75937983
 20
360603.8354636051
 10
1395485.71938116
 20
360580.885474325
 10
1395483.90938134
 20
360580.2054748011
 10
1395481.00938157
 20
360578.855475617
 10
1395470.68938426
 20
360583.415476871
 10
1395464.61938596
 20
360586.7654774971
 10
1395463.11938568
 20
360584.035478267
 10
1395431.67939246
 20
360590.7954833461
 10
1395430.00939142
 20
360584.1354848321
 10
1395418.23939404
 20
360587.0054866701
 10
1395414.40939496
 20
360588.365487197
 10
1395398.96939839
 20
360592.165489608
 10
1395383.69940173
 20
360595.735492017
 10
1395380.13940253
 20
360596.6854925671
 10
1395377.07940328
 20
360597.7754929801
 10
1395366.94940588
 20
360602.085494245
 10
1395359.52940777
 20
360605.145495189
 10
1395357.2194083
 20
360605.825495535
 10
1395351.15940972
 20
360607.685496413
 10
1395348.68941033
 20
360608.5654967571
 10
1395341.85941185
 20
360610.3354978011
 10
1395338.79941369
 20
360616.915497273
 10
1395327.12940621
 20
360569.085507855
 10
1395322.63940715
 20
360569.915508603
 10
1395317.4294026
 20
360542.465514385
 10
1395311.79939911
 20
360519.9555193961
  0
LWPOLYLINE
  5
194
330
1C
100
AcDbEntity
  8
Р-2
370
    20
100
AcDbPolyline
 90
       15
 70
     0
 43
0.0
 10
1396397.73912685
 20
359495.296184239
 10
1396405.7692414
 20
359542.8975293341
 10
1396357.57902559
 20
359548.375479663
 10
1396355.28864306
 20
359554.304940404
 10
1396347.96896486
 20
359554.16612042
 10
1396334.88351667
 20
359549.703353684
 10
1396321.74903144
 20
359546.635487069
 10
1396312.349032
 20
359541.265489863
 10
1396313.66902986
 20
359531.675491264
 10
1396312.42902943
 20
359528.4154920671
 10
1396350.8590495
 20
359529.835215293
 10
1396359.41343121
 20
359529.387469793
 10
1396355.39532261
 20
359499.164898505
 10
1396397.22541099
 20
359493.4759821811
 10
1396397.73873737
 20
359495.295385914
  0
LWPOLYLINE
  5
195
330
1C
100
AcDbEntity
  8
Р-2
370
    20
100
AcDbPolyline
 90
       12
 70
     0
 43
0.0
 10
1396228.32412733
 20
359484.860117853
 10
1396322.17888546
 20
359503.440953095
 10
1396355.39532261
 20
359499.164898505
 10
1396359.41343121
 20
359529.387469793
 10
1396350.8590495
 20
359529.835215293
 10
1396312.42902943
 20
359528.4154920671
 10
1396267.77903378
 20
359511.4755038621
 10
1396253.72903547
 20
359507.7255073
 10
1396239.47903722
 20
359504.1255107461
 10
1396229.57903773
 20
359498.055513764
 10
1396226.87903671
 20
359490.615515588
 10
1396228.32412733
 20
359484.860117853
  0
LWPOLYLINE
  5
196
330
1C
100
AcDbEntity
  8
Р-2
370
    20
100
AcDbPolyline
 90
       14
 70
     0
 43
0.0
 10
1397066.42890794
 20
359572.6653347211
 10
1397074.13890868
 20
359583.1153313811
 10
1397081.41890989
 20
359595.5253277871
 10
1397095.94890526
 20
359584.845326745
 10
1397101.9341545
 20
359597.276965204
 10
1397120.13911254
 20
359587.5887614261
 10
1397134.41890784
 20
359631.3553110721
 10
1397140.94993348
 20
359649.508390519
 10
1397086.10560982
 20
359666.445141058
 10
1397069.56891655
 20
359618.8053261161
 10
1397040.25892368
 20
359629.195330143
 10
1397029.98892006
 20
359602.0053368861
 10
1397028.77474346
 20
359599.45649245
 10
1397066.42890794
 20
359572.6653347211
  0
LWPOLYLINE
  5
199
330
1C
100
AcDbEntity
  8
Р-2
370
    20
100
AcDbPolyline
 90
        6
 70
     0
 43
0.0
 10
1398224.31225922
 20
359449.25431647
 10
1398223.18472686
 20
359548.727498244
 10
1398203.02380665
 20
359548.6334613521
 10
1398204.55098917
 20
359448.8837272751
 10
1398208.32868617
 20
359449.4351292921
 10
1398224.31225922
 20
359449.25431647
  0
LWPOLYLINE
  5
19A
330
1C
100
AcDbEntity
  8
Р-2
370
    20
100
AcDbPolyline
 90
       17
 70
     0
 43
0.0
 10
1394862.2794129
 20
360198.265664234
 10
1394866.72941588
 20
360217.085660099
 10
1394867.44858731
 20
360220.0746747421
 10
1394801.37943135
 20
360238.155669435
 10
1394752.65094277
 20
360249.54177787
 10
1394750.57944064
 20
360240.755679075
 10
1394776.76942933
 20
360206.605679773
 10
1394786.42942938
 20
360215.2756763621
 10
1394794.57942736
 20
360212.1256752911
 10
1394795.19651487
 20
360214.402549271
 10
1394807.4794245
 20
360208.9856732689
 10
1394823.08942065
 20
360203.13567118
 10
1394831.0694205
 20
360209.3856685121
 10
1394832.80942021
 20
360209.40566817
 10
1394844.36941758
 20
360206.225666425
 10
1394852.28941521
 20
360201.15566572
 10
1394862.2794129
 20
360198.265664234
  0
LWPOLYLINE
  5
19E
330
1C
100
AcDbEntity
  8
Р-2
370
    20
100
AcDbPolyline
 90
       11
 70
     0
 43
0.0
 10
1394710.85942409
 20
360460.5934005271
 10
1394700.56992036
 20
360420.44142863
 10
1394762.70947096
 20
360404.0356484591
 10
1394801.51414052
 20
360393.959648211
 10
1394802.27939868
 20
360397.346294243
 10
1394808.08940226
 20
360420.136289131
 10
1394740.26941767
 20
360439.13629992
 10
1394736.96941944
 20
360445.106299516
 10
1394738.78942063
 20
360452.816297853
 10
1394729.22448904
 20
360455.7447482341
 10
1394710.85942409
 20
360460.5934005271
  0
LWPOLYLINE
  5
19F
330
1C
100
AcDbEntity
  8
Р-2
370
    20
100
AcDbPolyline
 90
       13
 70
     0
 43
0.0
 10
1394952.05898973
 20
360007.8810360371
 10
1394951.98936052
 20
360012.385678544
 10
1394955.60936196
 20
360022.815676023
 10
1394941.32751529
 20
360081.680196354
 10
1394937.80937657
 20
360080.955669519
 10
1394932.17938261
 20
360106.4556662301
 10
1394926.01087411
 20
360105.340876745
 10
1394913.75710669
 20
360084.882672008
 10
1394907.84415158
 20
360060.8891365439
 10
1394910.04931245
 20
360043.020630134
 10
1394917.99525016
 20
360027.745178629
 10
1394931.48421743
 20
360013.767411448
 10
1394952.05898973
 20
360007.8810360371
  0
LWPOLYLINE
  5
1A0
330
1C
100
AcDbEntity
  8
Р-2
370
    20
100
AcDbPolyline
 90
        7
 70
     0
 43
0.0
 10
1395129.53197255
 20
360099.9322705911
 10
1395140.59935461
 20
360146.785617869
 10
1395139.67935524
 20
360149.145617645
 10
1395138.46935577
 20
360150.675617606
 10
1395090.89409819
 20
360140.112446271
 10
1395084.24012415
 20
360111.0626040511
 10
1395129.53197255
 20
360099.9322705911
  0
LWPOLYLINE
  5
1A1
330
1C
100
AcDbEntity
  8
Р-2
370
    20
100
AcDbPolyline
 90
       28
 70
     0
 43
0.0
 10
1395259.26432443
 20
360257.171084849
 10
1395219.93967506
 20
360267.678125298
 10
1395212.83465359
 20
360239.46570002
 10
1395221.64935859
 20
360237.355586134
 10
1395231.22935635
 20
360234.395584742
 10
1395245.37858956
 20
360230.0365756811
 10
1395244.99935286
 20
360228.805582974
 10
1395247.23935234
 20
360228.165582631
 10
1395240.03934833
 20
360201.675588641
 10
1395237.81911313
 20
360194.3678699861
 10
1395249.06592345
 20
360191.152158923
 10
1395254.33077563
 20
360190.0343778621
 10
1395255.80568905
 20
360197.155835125
 10
1395262.58201832
 20
360201.078478808
 10
1395272.68143547
 20
360198.559456212
 10
1395290.31421924
 20
360194.161441782
 10
1395311.23188766
 20
360189.372346313
 10
1395310.73933307
 20
360186.295577261
 10
1395308.0593312
 20
360174.565579824
 10
1395370.73931762
 20
360160.6855697771
 10
1395372.49780911
 20
360166.754169702
 10
1395420.27037616
 20
360155.446529499
 10
1395429.00931402
 20
360193.305552569
 10
1395422.03931555
 20
360194.9555536611
 10
1395405.35931917
 20
360198.6355563401
 10
1395286.29341013
 20
360227.087259809
 10
1395253.10874426
 20
360235.903201615
 10
1395259.26432443
 20
360257.171084849
  0
LWPOLYLINE
  5
1A2
330
1C
100
AcDbEntity
  8
Р-2
370
    20
100
AcDbPolyline
 90
       26
 70
     0
 43
0.0
 10
1395315.95934639
 20
360257.975563839
 10
1395322.71144605
 20
360288.410070721
 10
1395359.64647407
 20
360278.655228809
 10
1395361.85441514
 20
360284.66566446
 10
1395399.68956544
 20
360276.631742328
 10
1395403.32919781
 20
360277.274993957
 10
1395409.3591944
 20
360275.7149847221
 10
1395409.28988454
 20
360275.434822848
 10
1395415.99933225
 20
360273.775541246
 10
1395422.65933184
 20
360277.565539265
 10
1395441.15146359
 20
360273.958552059
 10
1395446.18545176
 20
360284.626746944
 10
1395490.08722451
 20
360274.6151292801
 10
1395474.58932701
 20
360298.385525355
 10
1395481.98933219
 20
360330.965518258
 10
1395419.1493463
 20
360347.3655279001
 10
1395336.12419145
 20
360367.9884634511
 10
1395324.11060416
 20
360322.349920618
 10
1395256.49937291
 20
360339.875561494
 10
1395255.93769558
 20
360337.916901533
 10
1395248.78936886
 20
360312.725567719
 10
1395246.86265561
 20
360313.231689823
 10
1395239.3775726
 20
360279.794147959
 10
1395239.3775726
 20
360279.794147959
 10
1395277.04935516
 20
360268.305569774
 10
1395315.95934639
 20
360257.975563839
  0
LWPOLYLINE
  5
1A3
330
1C
100
AcDbEntity
  8
Р-2
370
    20
100
AcDbPolyline
 90
       28
 70
     0
 43
0.0
 10
1395509.57932964
 20
360342.1255108471
 10
1395537.34925978
 20
360335.7161529761
 10
1395551.1635745
 20
360393.02103674
 10
1395542.09927071
 20
360395.27614172
 10
1395552.28927743
 20
360438.006132175
 10
1395552.63927832
 20
360442.84613134
 10
1395548.5488936
 20
360446.746250456
 10
1395533.86928329
 20
360451.266133688
 10
1395519.44928651
 20
360454.836136112
 10
1395510.96044678
 20
360456.142123468
 10
1395375.34938241
 20
360491.155511754
 10
1395372.25938089
 20
360480.79551415
 10
1395368.63293836
 20
360475.4352147681
 10
1395314.87293441
 20
360489.5583388371
 10
1395319.50939506
 20
360506.275520229
 10
1395297.78940038
 20
360514.1755231711
 10
1395293.16940141
 20
360515.325523896
 10
1395281.29939415
 20
360468.395534358
 10
1395283.01939273
 20
360462.7755349921
 10
1395281.15939102
 20
360452.575537118
 10
1395300.94949873
 20
360444.81131548
 10
1395321.65938139
 20
360439.31553137
 10
1395333.78651682
 20
360433.844274062
 10
1395348.1666458
 20
360404.9664443051
 10
1395384.92936164
 20
360394.8155264971
 10
1395398.65935856
 20
360391.275524379
 10
1395393.16488921
 20
360370.6681637271
 10
1395509.57932964
 20
360342.1255108471
  0
LWPOLYLINE
  5
1A5
330
1C
100
AcDbEntity
  8
Р-2
370
    20
100
AcDbPolyline
 90
       37
 70
     0
 43
0.0
 10
1398042.37555134
 20
359424.181747568
 10
1398125.54503972
 20
359424.922752113
 10
1398127.82493877
 20
359484.043374438
 10
1398137.97870773
 20
359496.835135071
 10
1398165.5687063
 20
359513.585126702
 10
1398167.30870744
 20
359520.845125094
 10
1398186.18870775
 20
359538.865118237
 10
1398185.10871445
 20
359571.705112776
 10
1398193.26871306
 20
359571.755111142
 10
1398202.49700449
 20
359583.041781309
 10
1398205.3287139
 20
359586.505106193
 10
1398211.12871303
 20
359587.205104922
 10
1398222.74458759
 20
359587.556865476
 10
1398226.24871099
 20
359590.0651014311
 10
1398225.05034248
 20
359670.044392664
 10
1398188.5438399
 20
359651.491813767
 10
1398161.88688038
 20
359685.339520134
 10
1398131.47044745
 20
359638.570774945
 10
1398170.90352104
 20
359610.2515682811
 10
1398162.41872435
 20
359601.8251120689
 10
1398151.72872428
 20
359592.135115863
 10
1398141.1387242
 20
359582.555119628
 10
1398135.72663366
 20
359577.191368966
 10
1398109.90550452
 20
359562.3474535821
 10
1398067.79524507
 20
359561.7975353351
 10
1398063.09872741
 20
359530.7751440721
 10
1398057.19872546
 20
359515.8351478251
 10
1398056.25872409
 20
359508.075149355
 10
1398055.91872359
 20
359505.295149908
 10
1398057.44872298
 20
359503.495149908
 10
1398057.04872129
 20
359494.6551515179
 10
1398056.84872043
 20
359490.135152336
 10
1398056.65871967
 20
359486.155153057
 10
1398052.18871991
 20
359483.46515441
 10
1398052.22871334
 20
359450.375160129
 10
1398042.58473605
 20
359450.203150236
 10
1398042.37555134
 20
359424.181747568
  0
LWPOLYLINE
  5
1A6
330
1C
100
AcDbEntity
  8
Р-2
370
    20
100
AcDbPolyline
 90
       17
 70
     0
 43
0.0
 10
1398042.37555134
 20
359424.181747568
 10
1398042.22870624
 20
359405.915169797
 10
1398042.0187028
 20
359388.415172862
 10
1398040.01870315
 20
359388.445173255
 10
1398039.97273895
 20
359382.474904066
 10
1398122.84868759
 20
359382.125157906
 10
1398150.68868284
 20
359382.465152316
 10
1398161.70868094
 20
359382.4751501291
 10
1398201.81867401
 20
359382.515142158
 10
1398223.6486698
 20
359380.295138203
 10
1398223.76867424
 20
359402.755134298
 10
1398222.99867572
 20
359409.555133282
 10
1398221.70867674
 20
359413.565132841
 10
1398205.09797742
 20
359413.156135596
 10
1398204.90700589
 20
359425.629833401
 10
1398125.54503972
 20
359424.922752113
 10
1398042.37555134
 20
359424.181747568
  0
LWPOLYLINE
  5
1A7
330
1C
100
AcDbEntity
  8
Р-2
370
    20
100
AcDbPolyline
 90
       16
 70
     0
 43
0.0
 10
1398064.53120977
 20
359302.119784599
 10
1398112.53273142
 20
359299.261880798
 10
1398167.13128834
 20
359296.9501615871
 10
1398167.70866495
 20
359307.105161961
 10
1398195.216254
 20
359307.157851924
 10
1398194.97204153
 20
359334.7646662591
 10
1398185.98866747
 20
359335.7351533811
 10
1398171.10867017
 20
359336.395156229
 10
1398134.55867681
 20
359338.045163201
 10
1398116.1186801
 20
359338.575166769
 10
1398116.07867995
 20
359337.705167148
 10
1398115.62867796
 20
359327.305168809
 10
1398116.53867779
 20
359327.255168638
 10
1398115.39867694
 20
359322.005169774
 10
1398065.47868583
 20
359323.3451794521
 10
1398064.53120977
 20
359302.119784599
  0
LWPOLYLINE
  5
1AA
330
1C
100
AcDbEntity
  8
Р-2
370
    20
100
AcDbPolyline
 90
       36
 70
     0
 43
0.0
 10
1398517.16856129
 20
359089.145130259
 10
1398512.64198078
 20
359150.837008424
 10
1398501.33999202
 20
359149.208621885
 10
1398488.4979635
 20
359157.089553206
 10
1398486.82823619
 20
359167.225497963
 10
1398423.57859325
 20
359168.645135098
 10
1398416.94859441
 20
359168.6851364061
 10
1398397.66859807
 20
359170.3751399471
 10
1398383.23860334
 20
359184.365140391
 10
1398384.08861006
 20
359218.9151342461
 10
1398361.06861407
 20
359219.145138777
 10
1398296.76970235
 20
359220.636139059
 10
1398296.33229809
 20
359191.0119207071
 10
1398278.22862338
 20
359193.9251595871
 10
1398248.64862944
 20
359198.685164635
 10
1398248.39046589
 20
359197.073946843
 10
1398232.47863231
 20
359199.065167788
 10
1398217.83786327
 20
359124.727650641
 10
1398210.52861185
 20
359076.875193259
 10
1398206.24860613
 20
359044.345199729
 10
1398206.43361413
 20
359030.000296439
 10
1398203.28311355
 20
359029.9710839771
 10
1398203.40490456
 20
359015.45290102
 10
1398211.59859947
 20
359015.435203669
 10
1398245.04859373
 20
359015.655196991
 10
1398257.84859169
 20
359016.495194303
 10
1398265.40859052
 20
359017.155192688
 10
1398305.60858472
 20
359022.955183707
 10
1398321.66858219
 20
359024.195180299
 10
1398360.75857657
 20
359029.8951715571
 10
1398375.66857428
 20
359031.345168341
 10
1398404.23857005
 20
359034.9151620511
 10
1398472.52855939
 20
359040.645147501
 10
1398493.84855568
 20
359040.5551432861
 10
1398517.66144004
 20
359039.391776709
 10
1398517.16856129
 20
359089.145130259
  0
LWPOLYLINE
  5
1AE
330
1C
100
AcDbEntity
  8
Р-2
370
    20
100
AcDbPolyline
 90
       28
 70
     0
 43
0.0
 10
1398679.18395295
 20
359080.1823829521
 10
1398677.31853823
 20
359112.3650944521
 10
1398820.9285162
 20
359126.405063508
 10
1398731.3224452
 20
359117.644763079
 10
1398727.7505866
 20
359149.780912723
 10
1398612.32029253
 20
359134.9886516621
 10
1398614.27078434
 20
359108.2029640329
 10
1398635.57032161
 20
359110.9979879301
 10
1398638.19574077
 20
359084.956908574
 10
1398558.17672919
 20
359079.511044939
 10
1398554.77855378
 20
359084.0351236721
 10
1398546.03855565
 20
359085.78512511
 10
1398542.36855586
 20
359083.695126194
 10
1398532.4585584
 20
359087.86512744
 10
1398522.76856001
 20
359087.5351294271
 10
1398517.16856129
 20
359089.145130259
 10
1398517.66144004
 20
359039.391776709
 10
1398548.62854557
 20
359037.315132973
 10
1398568.58854159
 20
359034.59512948
 10
1398569.70854277
 20
359041.575128053
 10
1398599.80853564
 20
359031.855123752
 10
1398653.35852379
 20
359018.7451153911
 10
1398656.20852688
 20
359036.825111701
 10
1398672.95852367
 20
359035.215108656
 10
1398676.60852294
 20
359034.6851080201
 10
1398678.158525
 20
359046.4651056751
 10
1398680.24852815
 20
359064.1351022111
 10
1398679.18395295
 20
359080.1823829521
  0
LWPOLYLINE
  5
1B2
330
1C
100
AcDbEntity
  8
Р-2
370
    20
100
AcDbPolyline
 90
       22
 70
     0
 43
0.0
 10
1396484.93901882
 20
359625.1154411
 10
1396490.45901506
 20
359610.965442453
 10
1396509.33901304
 20
359617.235437627
 10
1396520.5690114
 20
359618.725435138
 10
1396526.0990111
 20
359622.0654334561
 10
1396532.09901049
 20
359624.1754319
 10
1396536.98900962
 20
359624.075430949
 10
1396539.2808091
 20
359622.672400043
 10
1396543.62894612
 20
359629.776066876
 10
1396542.46894648
 20
359630.3360670371
 10
1396547.77894728
 20
359639.1860644021
 10
1396556.62894887
 20
359654.8860599521
 10
1396558.03894912
 20
359657.3760591301
 10
1396559.4089494
 20
359659.8160584561
 10
1396555.12901457
 20
359664.805420306
 10
1396548.85901711
 20
359672.105420294
 10
1396516.03902014
 20
359658.835429098
 10
1396503.36901987
 20
359646.445433756
 10
1396502.16901953
 20
359643.715434465
 10
1396500.62901865
 20
359637.885435778
 10
1396498.63901791
 20
359632.4154371221
 10
1396484.93901882
 20
359625.1154411
  0
LWPOLYLINE
  5
1B3
330
1C
100
AcDbEntity
  8
Р-2
370
    20
100
AcDbPolyline
 90
       18
 70
     0
 43
0.0
 10
1396894.89182889
 20
360034.228456391
 10
1396885.37267011
 20
359996.88481907
 10
1396896.20902122
 20
359995.1852954871
 10
1396894.91901988
 20
359987.325297101
 10
1396893.8390201
 20
359987.5252972821
 10
1396891.51901807
 20
359975.245299861
 10
1396897.10901563
 20
359967.795300047
 10
1396901.59021993
 20
359964.24538929
 10
1396924.48469223
 20
359957.0092750221
 10
1396926.6890097
 20
359963.6952948721
 10
1396940.28900668
 20
359960.305292763
 10
1396945.01900889
 20
359975.5952891801
 10
1396954.16900681
 20
359973.085287803
 10
1396955.90270069
 20
359982.243640034
 10
1396956.83900915
 20
359987.185284829
 10
1396923.98901734
 20
359999.865289155
 10
1396926.69791883
 20
360021.586729351
 10
1396894.89182889
 20
360034.228456391
  0
LWPOLYLINE
  5
1B5
330
1C
100
AcDbEntity
  8
Р-2
370
    20
100
AcDbPolyline
 90
       26
 70
     0
 43
0.0
 10
1397283.69973126
 20
359571.669052433
 10
1397271.14887104
 20
359564.9552954041
 10
1397267.67886899
 20
359551.615298399
 10
1397256.41887153
 20
359554.585300115
 10
1397253.73886981
 20
359543.5953025471
 10
1397251.94744915
 20
359536.473371365
 10
1397347.78910717
 20
359510.879454861
 10
1397344.81551127
 20
359499.5698165031
 10
1397342.50598662
 20
359490.785877224
 10
1397415.80802169
 20
359468.9660149471
 10
1397425.15828142
 20
359502.256888211
 10
1397484.40156006
 20
359484.298794363
 10
1397485.10881631
 20
359475.455268393
 10
1397487.37881298
 20
359460.6352705091
 10
1397485.62881208
 20
359454.6352718911
 10
1397508.1088069
 20
359448.105268547
 10
1397536.87880237
 20
359450.3252624591
 10
1397586.36466736
 20
359436.770333493
 10
1397590.16793643
 20
359453.243501611
 10
1397603.15258277
 20
359509.4841590621
 10
1397548.51731984
 20
359525.090716701
 10
1397513.39382209
 20
359529.190253483
 10
1397418.44090534
 20
359549.529441058
 10
1397352.16885799
 20
359569.715278499
 10
1397291.8632135
 20
359596.6628586661
 10
1397283.69973126
 20
359571.669052433
  0
LWPOLYLINE
  5
1B6
330
1C
100
AcDbEntity
  8
Р-2
370
    20
100
AcDbPolyline
 90
        8
 70
     0
 43
0.0
 10
1394868.91259692
 20
360357.7508728071
 10
1394925.54890788
 20
360343.7740952461
 10
1394897.19571227
 20
360231.317626906
 10
1394793.58696529
 20
360258.634253302
 10
1394802.28944263
 20
360295.785659304
 10
1394850.6464639
 20
360283.798886752
 10
1394855.15796291
 20
360303.434788503
 10
1394868.91259692
 20
360357.7508728071
  0
LWPOLYLINE
  5
1B7
330
1C
100
AcDbEntity
  8
Р-2
370
    20
100
AcDbPolyline
 90
       17
 70
     0
 43
0.0
 10
1395128.06220548
 20
360306.920058125
 10
1395134.50001996
 20
360334.4149891761
 10
1395132.77932935
 20
360334.8762367331
 10
1395136.0993317
 20
360349.566233519
 10
1395085.32934307
 20
360363.056241709
 10
1395088.97934536
 20
360377.526238462
 10
1395030.59935841
 20
360392.9262478491
 10
1395038.32936273
 20
360421.306241297
 10
1395026.2780192
 20
360424.591345933
 10
1395024.78936467
 20
360419.1762444871
 10
1394996.82781872
 20
360426.478030413
 10
1394997.6493714
 20
360429.716248253
 10
1394969.48600194
 20
360437.1611050311
 10
1394948.32942902
 20
360354.285620194
 10
1395000.64941703
 20
360339.4456123711
 10
1395051.72702578
 20
360325.306221199
 10
1395128.06220548
 20
360306.920058125
  0
LWPOLYLINE
  5
1BA
330
1C
100
AcDbEntity
  8
Р-2
370
    20
100
AcDbPolyline
 90
       63
 70
     0
 43
0.0
 10
1395765.90581144
 20
360009.07793527
 10
1395783.48707151
 20
360011.818028002
 10
1395778.83915121
 20
359998.7661612471
 10
1395764.17381196
 20
360000.832310576
 10
1395746.44915698
 20
359999.666167814
 10
1395746.05915664
 20
359997.8461682021
 10
1395731.9091586
 20
359995.136171567
 10
1395730.02915864
 20
359993.736172244
 10
1395727.3891585
 20
359990.546173284
 10
1395725.49915817
 20
359987.596174239
 10
1395711.74916132
 20
359991.2561764471
 10
1395691.76913013
 20
359997.4625485521
 10
1395613.53918332
 20
360017.0661922471
 10
1395615.31834444
 20
360026.875519319
 10
1395505.10927294
 20
360052.575561774
 10
1395512.68927837
 20
360086.545554396
 10
1395526.44661963
 20
360143.204675754
 10
1395551.31262868
 20
360138.132997158
 10
1395549.58630226
 20
360129.351259033
 10
1395550.57927738
 20
360114.4855420461
 10
1395585.41569228
 20
360106.066094878
 10
1395587.1181926
 20
360112.1264279721
 10
1395636.07767874
 20
360101.5635279721
 10
1395651.24554195
 20
360105.3864479411
 10
1395652.58530518
 20
360122.3518906421
 10
1395646.66926583
 20
360139.915518571
 10
1395637.33499912
 20
360159.926481539
 10
1395597.83927951
 20
360166.335523703
 10
1395558.86477084
 20
360176.583045869
 10
1395554.34293955
 20
360153.5610468071
 10
1395529.40526155
 20
360158.679680414
 10
1395538.15929729
 20
360203.8655290621
 10
1395575.86928915
 20
360195.805522974
 10
1395576.91980447
 20
360201.765664741
 10
1395577.16914909
 20
360209.3413709321
 10
1395575.49929634
 20
360231.715516843
 10
1395574.37929774
 20
360237.815516009
 10
1395573.40929841
 20
360240.345515768
 10
1395571.97929919
 20
360243.0155155871
 10
1395570.50929987
 20
360245.1355155161
 10
1395567.69930102
 20
360248.5055154961
 10
1395565.37930186
 20
360250.695515572
 10
1395550.16930531
 20
360254.885517862
 10
1395563.64062944
 20
360313.434146175
 10
1395597.0693071
 20
360304.715499949
 10
1395686.03292059
 20
360285.262211764
 10
1395681.06922432
 20
360282.17613251
 10
1395667.25921664
 20
360231.726144075
 10
1395684.47921291
 20
360227.5161412811
 10
1395700.24920941
 20
360223.736138653
 10
1395710.91920708
 20
360221.186136831
 10
1395697.12926246
 20
360166.915503895
 10
1395677.55875888
 20
360170.245878583
 10
1395678.2392615
 20
360145.615511326
 10
1395683.06925731
 20
360128.6955132901
 10
1395682.70220498
 20
360106.8182960311
 10
1395670.29781647
 20
360072.0298435311
 10
1395677.50911565
 20
360067.331109631
 10
1395679.97741889
 20
360040.830729625
 10
1395700.99923567
 20
360035.245525871
 10
1395739.7040468
 20
360023.007326723
 10
1395767.49014558
 20
360015.727008567
 10
1395765.90581144
 20
360009.07793527
  0
LWPOLYLINE
  5
1BB
330
1C
100
AcDbEntity
  8
Р-2
370
    20
100
AcDbPolyline
 90
       28
 70
     0
 43
0.0
 10
1397400.42875885
 20
359430.865924269
 10
1397401.56875745
 20
359424.655925128
 10
1397400.04875651
 20
359418.555926406
 10
1397383.68874921
 20
359367.415938707
 10
1397382.09874843
 20
359362.445939866
 10
1397377.9987463
 20
359347.9459432061
 10
1397385.02874473
 20
359346.015942072
 10
1397379.12874145
 20
359324.705946996
 10
1397381.28874099
 20
359324.145946599
 10
1397393.85873797
 20
359319.95594478
 10
1397450.22872523
 20
359304.255935809
 10
1397481.86871795
 20
359295.435930766
 10
1397487.09871675
 20
359294.035929959
 10
1397492.17871565
 20
359292.825929125
 10
1397497.16871455
 20
359291.4359284001
 10
1397499.32877922
 20
359300.9952957191
 10
1397499.8387798
 20
359304.335295045
 10
1397499.38878052
 20
359307.585294571
 10
1397498.758781
 20
359309.445294372
 10
1397492.35878351
 20
359316.525294428
 10
1397486.49878547
 20
359321.3252947541
 10
1397481.81878688
 20
359324.3552951661
 10
1397478.15878786
 20
359326.0952955871
 10
1397444.26879575
 20
359336.3353005461
 10
1397445.3088002
 20
359359.6552963111
 10
1397457.13880573
 20
359397.835287363
 10
1397462.05096445
 20
359413.1892818311
 10
1397400.42875885
 20
359430.865924269
  0
LWPOLYLINE
  5
1BC
330
1C
100
AcDbEntity
  8
Р-2
370
    20
100
AcDbPolyline
 90
        6
 70
     0
 43
0.0
 10
1398295.15431661
 20
359142.7534503011
 10
1398294.95860628
 20
359122.325168643
 10
1398295.21582821
 20
359105.523328518
 10
1398319.83996695
 20
359105.9003026861
 10
1398319.30190531
 20
359143.088820224
 10
1398295.15431661
 20
359142.7534503011
  0
LWPOLYLINE
  5
1C1
330
1C
100
AcDbEntity
  8
Р-2
370
    20
100
AcDbPolyline
 90
       25
 70
     0
 43
0.0
 10
1395587.949279
 20
360476.756118177
 10
1395590.95928097
 20
360489.366115379
 10
1395595.47928191
 20
360498.0961129121
 10
1395620.639279899
 20
360509.756105729
 10
1395653.28927807
 20
360528.6260956711
 10
1395691.08927571
 20
360549.706084248
 10
1395796.47281843
 20
360607.151707614
 10
1395761.23960995
 20
360670.6512683071
 10
1395773.84676496
 20
360678.508627598
 10
1395757.64071557
 20
360705.340588109
 10
1395721.85881289
 20
360682.977287305
 10
1395718.29203062
 20
360686.506173068
 10
1395662.98567465
 20
360635.7132997361
 10
1395670.47156993
 20
360624.9523205071
 10
1395658.67935621
 20
360605.7254356951
 10
1395624.43987537
 20
360574.45379919
 10
1395613.96935943
 20
360583.045448488
 10
1395599.70572136
 20
360566.637681293
 10
1395589.98935812
 20
360555.595457988
 10
1395586.02935763
 20
360549.635459814
 10
1395578.4475713
 20
360533.8245000121
 10
1395591.74934892
 20
360510.775465391
 10
1395561.85969756
 20
360485.127052808
 10
1395571.11928268
 20
360480.776120944
 10
1395587.949279
 20
360476.756118177
  0
LWPOLYLINE
  5
1C2
330
1C
100
AcDbEntity
  8
Р-2
370
    20
100
AcDbPolyline
 90
       13
 70
     0
 43
0.0
 10
1398235.66921038
 20
359747.508561454
 10
1398269.91570599
 20
359698.750068974
 10
1398301.41891336
 20
359704.2617702001
 10
1398322.31871745
 20
359706.2550622661
 10
1398365.90870949
 20
359704.145053983
 10
1398430.71869889
 20
359707.1350405971
 10
1398442.96919384
 20
359796.953065704
 10
1398381.10872527
 20
359796.845034938
 10
1398299.5843394
 20
359790.996044821
 10
1398288.97067737
 20
359787.1949085361
 10
1398263.48801877
 20
359766.861906899
 10
1398248.10651645
 20
359755.828495239
 10
1398235.66921038
 20
359747.508561454
  0
LWPOLYLINE
  5
1C8
330
1C
100
AcDbEntity
  8
Р-2
370
    20
100
AcDbPolyline
 90
        9
 70
     0
 43
0.0
 10
1398711.22862282
 20
359568.095008933
 10
1398742.29161452
 20
359571.17828929
 10
1398774.87252882
 20
359574.352093154
 10
1398801.11108285
 20
359576.9899057711
 10
1398793.43163694
 20
359629.722287112
 10
1398749.10898173
 20
359622.4240608961
 10
1398745.81116616
 20
359648.100293966
 10
1398703.00413077
 20
359642.9238858121
 10
1398711.22862282
 20
359568.095008933
  0
LWPOLYLINE
  5
1CE
330
1C
100
AcDbEntity
  8
Р-2
370
    20
100
AcDbPolyline
 90
       23
 70
     0
 43
0.0
 10
1395744.19909909
 20
359384.755629713
 10
1395745.31545193
 20
359395.3916397641
 10
1395748.71910486
 20
359417.765623111
 10
1395749.34910519
 20
359419.985622609
 10
1395750.60910646
 20
359427.515621055
 10
1395748.05910699
 20
359427.905621489
 10
1395757.96911325
 20
359468.0756125811
 10
1395773.66222833
 20
359466.089055092
 10
1395785.41660566
 20
359463.243091318
 10
1395793.53558114
 20
359461.225387023
 10
1395798.83910452
 20
359459.685605919
 10
1395808.17256109
 20
359457.938880017
 10
1395809.02910088
 20
359450.195605538
 10
1395808.93910081
 20
359449.7756056301
 10
1395810.12910055
 20
359449.5456054251
 10
1395809.22909992
 20
359445.5656063
 10
1395804.92910085
 20
359446.485606988
 10
1395795.87909397
 20
359403.9456161411
 10
1395795.28791979
 20
359404.067188818
 10
1395794.09909314
 20
359398.185617494
 10
1395796.0990912
 20
359390.155618483
 10
1395744.34909863
 20
359382.5956300621
 10
1395744.19909909
 20
359384.755629713
  0
LWPOLYLINE
  5
1D1
330
1C
100
AcDbEntity
  8
Р-2
370
    20
100
AcDbPolyline
 90
        8
 70
     0
 43
0.0
 10
1399621.68290313
 20
360317.0872565951
 10
1399610.31284619
 20
360322.0703222161
 10
1399540.76840153
 20
360352.549009556
 10
1399518.81993822
 20
360307.8566122571
 10
1399505.0402843
 20
360301.245466516
 10
1399508.70860877
 20
360191.6447427961
 10
1399570.00529984
 20
360176.1834380071
 10
1399621.68290313
 20
360317.0872565951
  0
LWPOLYLINE
  5
323
330
1C
100
AcDbEntity
  8
Р-2
370
    20
100
AcDbPolyline
 90
       35
 70
     0
 43
0.0
 10
1394391.51932848
 20
359363.185902008
 10
1394468.08931176
 20
359345.5858898551
 10
1394467.47931137
 20
359343.0658904051
 10
1394543.52848093
 20
359325.290631284
 10
1394580.42931569
 20
359463.175847226
 10
1394584.30931466
 20
359461.3258467721
 10
1394612.37933375
 20
359581.975820355
 10
1394623.54661418
 20
359634.5379458329
 10
1394616.74934359
 20
359635.3458102571
 10
1394601.53934753
 20
359641.9658121361
 10
1394597.05759534
 20
359641.923960089
 10
1394575.83935192
 20
359641.725817289
 10
1394571.10935026
 20
359627.8458206171
 10
1394566.90187969
 20
359609.8451297921
 10
1394552.39335792
 20
359599.6443112971
 10
1394574.74916952
 20
359582.583714175
 10
1394571.79999321
 20
359546.1002106751
 10
1394553.40503949
 20
359493.911841945
 10
1394532.91476332
 20
359473.716265324
 10
1394528.50932661
 20
359472.985855837
 10
1394502.2723563
 20
359473.9120209541
 10
1394452.96584016
 20
359480.7020602571
 10
1394375.16827167
 20
359474.1830237421
 10
1394343.54208048
 20
359465.4627367621
 10
1394327.01914311
 20
359458.4255669761
 10
1394319.04907867
 20
359442.4574785111
 10
1394298.64929487
 20
359437.036564213
 10
1394307.12929186
 20
359428.896563885
 10
1394314.32929033
 20
359427.4165626571
 10
1394318.97928684
 20
359413.826564081
 10
1394344.56928118
 20
359407.4865597991
 10
1394339.69927805
 20
359387.676564255
 10
1394336.76927622
 20
359375.7365668821
 10
1394336.24927596
 20
359373.9965673
 10
1394391.51932848
 20
359363.185902008
  0
MTEXT
  5
43F
330
1C
100
AcDbEntity
  8
Р-2
100
AcDbMText
 10
1396075.144176517
 20
359622.412815694
 30
0.0
 40
6.533333333309999
 41
6.533333333309999
 46
0.0
 71
     2
 72
     5
  1
Р-2\Pуч.31
 73
     1
 44
1.0
  0
MTEXT
  5
447
330
1C
100
AcDbEntity
  8
Р-2
100
AcDbMText
 10
1396787.416792787
 20
359865.890925551
 30
0.0
 40
6.533333333309999
 41
6.533333333309999
 46
0.0
 71
     2
 72
     5
  1
Р-2\Pуч.36
 73
     1
 44
1.0
  0
MTEXT
  5
458
330
1C
100
AcDbEntity
  8
Р-2
100
AcDbMText
 10
1396865.388829117
 20
359873.236723764
 30
0.0
 40
6.533333333309999
 41
6.533333333309999
 46
0.0
 71
     2
 72
     5
  1
Р-2\Pуч.36
 73
     1
 44
1.0
  0
MTEXT
  5
45E
330
1C
100
AcDbEntity
  8
Р-2
100
AcDbMText
 10
1397916.172389066
 20
359297.056258843
 30
0.0
 40
6.533333333309999
 41
6.533333333309999
 46
0.0
 71
     2
 72
     5
  1
Р-2\Pуч.42
 73
     1
 44
1.0
  0
MTEXT
  5
45F
330
1C
100
AcDbEntity
  8
Р-2
100
AcDbMText
 10
1398141.456496007
 20
359327.070638828
 30
0.0
 40
6.533333333309999
 41
6.533333333309999
 46
0.0
 71
     2
 72
     5
  1
Р-2\Pуч.43
 73
     1
 44
1.0
  0
MTEXT
  5
460
330
1C
100
AcDbEntity
  8
Р-2
100
AcDbMText
 10
1398116.460251746
 20
359411.9564263671
 30
0.0
 40
6.533333333309999
 41
6.533333333309999
 46
0.0
 71
     2
 72
     5
  1
Р-2\Pуч.44
 73
     1
 44
1.0
  0
MTEXT
  5
468
330
1C
100
AcDbEntity
  8
Р-2
100
AcDbMText
 10
1399544.353727656
 20
360295.709243222
 30
0.0
 40
6.533333333309999
 41
6.533333333309999
 46
0.0
 71
     2
 72
     5
  1
Р-2\Pуч.56
 73
     1
 44
1.0
  0
MTEXT
  5
47D
330
1C
100
AcDbEntity
  8
Р-2
100
AcDbMText
 10
1394926.047364296
 20
360070.3679935179
 30
0.0
 40
6.533333333309999
 41
6.533333333309999
 46
0.0
 71
     2
 72
     5
  1
Р-2\Pуч.16
 73
     1
 44
1.0
  0
MTEXT
  5
47E
330
1C
100
AcDbEntity
  8
Р-2
100
AcDbMText
 10
1394776.073547487
 20
360238.96710996
 30
0.0
 40
6.533333333309999
 41
6.533333333309999
 46
0.0
 71
     2
 72
     5
  1
Р-2\Pуч.18
 73
     1
 44
1.0
  0
MTEXT
  5
47F
330
1C
100
AcDbEntity
  8
Р-2
100
AcDbMText
 10
1394882.480041576
 20
360326.511810681
 30
0.0
 40
6.533333333309999
 41
6.533333333309999
 46
0.0
 71
     2
 72
     5
  1
Р-2\Pуч.20
 73
     1
 44
1.0
  0
MTEXT
  5
480
330
1C
100
AcDbEntity
  8
Р-2
100
AcDbMText
 10
1394789.726138926
 20
360455.913224373
 30
0.0
 40
6.533333333309999
 41
6.533333333309999
 46
0.0
 71
     2
 72
     5
  1
Р-2\Pуч.22
 73
     1
 44
1.0
  0
MTEXT
  5
481
330
1C
100
AcDbEntity
  8
Р-2
100
AcDbMText
 10
1395110.792688406
 20
360133.7951121421
 30
0.0
 40
6.533333333309999
 41
6.533333333309999
 46
0.0
 71
     2
 72
     5
  1
Р-2\Pуч.17
 73
     1
 44
1.0
  0
MTEXT
  5
482
330
1C
100
AcDbEntity
  8
Р-2
100
AcDbMText
 10
1395045.164360487
 20
360256.8504312421
 30
0.0
 40
6.533333333309999
 41
6.533333333309999
 46
0.0
 71
     2
 72
     5
  1
Р-2\Pуч.19
 73
     1
 44
1.0
  0
MTEXT
  5
483
330
1C
100
AcDbEntity
  8
Р-2
100
AcDbMText
 10
1395002.382260896
 20
360404.358857472
 30
0.0
 40
6.533333333309999
 41
6.533333333309999
 46
0.0
 71
     2
 72
     5
  1
Р-2\Pуч.21
 73
     1
 44
1.0
  0
MTEXT
  5
484
330
1C
100
AcDbEntity
  8
Р-2
100
AcDbMText
 10
1395379.583790117
 20
360195.3791774401
 30
0.0
 40
6.533333333309999
 41
6.533333333309999
 46
0.0
 71
     2
 72
     5
  1
Р-2\Pуч.24
 73
     1
 44
1.0
  0
MTEXT
  5
485
330
1C
100
AcDbEntity
  8
Р-2
100
AcDbMText
 10
1395300.745662416
 20
360316.7326866279
 30
0.0
 40
6.533333333309999
 41
6.533333333309999
 46
0.0
 71
     2
 72
     5
  1
Р-2\Pуч.25
 73
     1
 44
1.0
  0
MTEXT
  5
486
330
1C
100
AcDbEntity
  8
Р-2
100
AcDbMText
 10
1395424.164298966
 20
360326.080350899
 30
0.0
 40
6.533333333309999
 41
6.533333333309999
 46
0.0
 71
     2
 72
     5
  1
Р-2\Pуч.25
 73
     1
 44
1.0
  0
MTEXT
  5
487
330
1C
100
AcDbEntity
  8
Р-2
100
AcDbMText
 10
1395364.871785436
 20
360466.6253338301
 30
0.0
 40
6.533333333309999
 41
6.533333333309999
 46
0.0
 71
     2
 72
     5
  1
Р-2\Pуч.26
 73
     1
 44
1.0
  0
MTEXT
  5
488
330
1C
100
AcDbEntity
  8
Р-2
100
AcDbMText
 10
1395512.611515246
 20
360444.794202315
 30
0.0
 40
6.533333333309999
 41
6.533333333309999
 46
0.0
 71
     2
 72
     5
  1
Р-2\Pуч.26
 73
     1
 44
1.0
  0
MTEXT
  5
489
330
1C
100
AcDbEntity
  8
Р-2
100
AcDbMText
 10
1395517.928360467
 20
360371.246763845
 30
0.0
 40
6.533333333309999
 41
6.533333333309999
 46
0.0
 71
     2
 72
     5
  1
Р-2\Pуч.26
 73
     1
 44
1.0
  0
MTEXT
  5
48A
330
1C
100
AcDbEntity
  8
Р-2
100
AcDbMText
 10
1395488.462671206
 20
360569.9484451861
 30
0.0
 40
6.533333333309999
 41
6.533333333309999
 46
0.0
 71
     2
 72
     5
  1
Р-2\Pуч.27
 73
     1
 44
1.0
  0
MTEXT
  5
48B
330
1C
100
AcDbEntity
  8
Р-2
100
AcDbMText
 10
1395357.446691306
 20
360583.836389275
 30
0.0
 40
6.533333333309999
 41
6.533333333309999
 46
0.0
 71
     2
 72
     5
  1
Р-2\Pуч.27
 73
     1
 44
1.0
  0
MTEXT
  5
48C
330
1C
100
AcDbEntity
  8
Р-2
100
AcDbMText
 10
1395600.022799666
 20
360254.126004319
 30
0.0
 40
6.533333333309999
 41
6.533333333309999
 46
0.0
 71
     2
 72
     5
  1
Р-2\Pуч.28
 73
     1
 44
1.0
  0
MTEXT
  5
48D
330
1C
100
AcDbEntity
  8
Р-2
100
AcDbMText
 10
1395638.972798246
 20
360061.8744761911
 30
0.0
 40
6.533333333309999
 41
6.533333333309999
 46
0.0
 71
     2
 72
     5
  1
Р-2\Pуч.28
 73
     1
 44
1.0
  0
MTEXT
  5
48E
330
1C
100
AcDbEntity
  8
Р-2
100
AcDbMText
 10
1396023.212099976
 20
359341.48767063
 30
0.0
 40
6.533333333309999
 41
6.533333333309999
 46
0.0
 71
     2
 72
     5
  1
Р-2\Pуч.29
 73
     1
 44
1.0
  0
MTEXT
  5
48F
330
1C
100
AcDbEntity
  8
Р-2
100
AcDbMText
 10
1395826.032042816
 20
359432.5844930001
 30
0.0
 40
6.533333333309999
 41
6.533333333309999
 46
0.0
 71
     2
 72
     5
  1
Р-2\Pуч.30
 73
     1
 44
1.0
  0
MTEXT
  5
490
330
1C
100
AcDbEntity
  8
Р-2
100
AcDbMText
 10
1396329.739283916
 20
359475.251471049
 30
0.0
 40
6.533333333309999
 41
6.533333333309999
 46
0.0
 71
     2
 72
     5
  1
Р-2\Pуч.32
 73
     1
 44
1.0
  0
MTEXT
  5
491
330
1C
100
AcDbEntity
  8
Р-2
100
AcDbMText
 10
1396375.585126046
 20
359530.7362242071
 30
0.0
 40
6.533333333309999
 41
6.533333333309999
 46
0.0
 71
     2
 72
     5
  1
Р-2\Pуч.34
 73
     1
 44
1.0
  0
MTEXT
  5
492
330
1C
100
AcDbEntity
  8
Р-2
100
AcDbMText
 10
1396521.482158166
 20
359650.5447587071
 30
0.0
 40
6.533333333309999
 41
6.533333333309999
 46
0.0
 71
     2
 72
     5
  1
Р-2\Pуч.35
 73
     1
 44
1.0
  0
MTEXT
  5
493
330
1C
100
AcDbEntity
  8
Р-2
100
AcDbMText
 10
1397104.255835406
 20
359624.7635973921
 30
0.0
 40
6.533333333309999
 41
6.533333333309999
 46
0.0
 71
     2
 72
     5
  1
Р-2\Pуч.40
 73
     1
 44
1.0
  0
MTEXT
  5
494
330
1C
100
AcDbEntity
  8
Р-2
100
AcDbMText
 10
1397415.801855236
 20
359354.9339720401
 30
0.0
 40
6.533333333309999
 41
6.533333333309999
 46
0.0
 71
     2
 72
     5
  1
Р-2\Pуч.39
 73
     1
 44
1.0
  0
MTEXT
  5
495
330
1C
100
AcDbEntity
  8
Р-2
100
AcDbMText
 10
1397544.207691767
 20
359502.742663086
 30
0.0
 40
6.533333333309999
 41
6.533333333309999
 46
0.0
 71
     2
 72
     5
  1
Р-2\Pуч.41
 73
     1
 44
1.0
  0
MTEXT
  5
496
330
1C
100
AcDbEntity
  8
Р-2
100
AcDbMText
 10
1397300.321686847
 20
359553.803716037
 30
0.0
 40
6.533333333309999
 41
6.533333333309999
 46
0.0
 71
     2
 72
     5
  1
Р-2\Pуч.41
 73
     1
 44
1.0
  0
MTEXT
  5
497
330
1C
100
AcDbEntity
  8
Р-2
100
AcDbMText
 10
1398121.965636827
 20
359536.1862411811
 30
0.0
 40
6.533333333309999
 41
6.533333333309999
 46
0.0
 71
     2
 72
     5
  1
Р-2\Pуч.45
 73
     1
 44
1.0
  0
MTEXT
  5
498
330
1C
100
AcDbEntity
  8
Р-2
100
AcDbMText
 10
1398325.362746146
 20
359569.7711396451
 30
0.0
 40
6.533333333309999
 41
6.533333333309999
 46
0.0
 71
     2
 72
     5
  1
Р-2\Pуч.47
 73
     1
 44
1.0
  0
MTEXT
  5
499
330
1C
100
AcDbEntity
  8
Р-2
100
AcDbMText
 10
1398332.079936076
 20
359689.732870201
 30
0.0
 40
6.533333333309999
 41
6.533333333309999
 46
0.0
 71
     2
 72
     5
  1
Р-2\Pуч.47
 73
     1
 44
1.0
  0
MTEXT
  5
49A
330
1C
100
AcDbEntity
  8
Р-2
100
AcDbMText
 10
1398748.900072806
 20
359614.096516159
 30
0.0
 40
6.533333333309999
 41
6.533333333309999
 46
0.0
 71
     2
 72
     5
  1
Р-2\Pуч.51
 73
     1
 44
1.0
  0
MTEXT
  5
49B
330
1C
100
AcDbEntity
  8
Р-2
100
AcDbMText
 10
1398673.490748656
 20
359530.0435779721
 30
0.0
 40
6.533333333309999
 41
6.533333333309999
 46
0.0
 71
     2
 72
     5
  1
Р-2\Pуч.50
 73
     1
 44
1.0
  0
MTEXT
  5
49F
330
1C
100
AcDbEntity
  8
Р-2
100
AcDbMText
 10
1397316.401718866
 20
360061.497071607
 30
0.0
 40
6.533333333309999
 41
6.533333333309999
 46
0.0
 71
     2
 72
     5
  1
Р-2\Pуч.38
 73
     1
 44
1.0
  0
MTEXT
  5
4A2
330
1C
100
AcDbEntity
  8
Р-2
100
AcDbMText
 10
1396302.755318206
 20
359524.0260433751
 30
0.0
 40
6.533333333309999
 41
6.533333333309999
 46
0.0
 71
     2
 72
     5
  1
Р-2\Pуч.33
 73
     1
 44
1.0
  0
MTEXT
  5
4A3
330
1C
100
AcDbEntity
  8
Р-2
100
AcDbMText
 10
1396912.147800217
 20
359993.221306239
 30
0.0
 40
6.533333333309999
 41
6.533333333309999
 46
0.0
 71
     2
 72
     5
  1
Р-2\Pуч.37
 73
     1
 44
1.0
  0
MTEXT
  5
4A4
330
1C
100
AcDbEntity
  8
Р-2
100
AcDbMText
 10
1398250.094871317
 20
359124.434987354
 30
0.0
 40
6.533333333309999
 41
6.533333333309999
 46
0.0
 71
     2
 72
     5
  1
Р-2\Pуч.48
 73
     1
 44
1.0
  0
MTEXT
  5
4A5
330
1C
100
AcDbEntity
  8
Р-2
100
AcDbMText
 10
1398485.019426177
 20
359105.566870258
 30
0.0
 40
6.533333333309999
 41
6.533333333309999
 46
0.0
 71
     2
 72
     5
  1
Р-2\Pуч.48
 73
     1
 44
1.0
  0
MTEXT
  5
4AB
330
1C
100
AcDbEntity
  8
Р-2
100
AcDbMText
 10
1398655.143292066
 20
359085.48457096
 30
0.0
 40
6.533333333309999
 41
6.533333333309999
 46
0.0
 71
     2
 72
     5
  1
Р-2\Pуч.49
 73
     1
 44
1.0
  0
MTEXT
  5
4B6
330
1C
100
AcDbEntity
  8
Р-2
100
AcDbMText
 10
1395204.044660026
 20
360800.338513166
 30
0.0
 40
6.533333333309999
 41
6.533333333309999
 46
0.0
 71
     2
 72
     5
  1
Р-2\Pуч.23
 73
     1
 44
1.0
  0
MTEXT
  5
4B8
330
1C
100
AcDbEntity
  8
Р-2
100
AcDbMText
 10
1394529.829880976
 20
359705.4003826141
 30
0.0
 40
6.533333333309999
 41
6.533333333309999
 46
0.0
 71
     2
 72
     5
  1
Р-2\Pуч.14
 73
     1
 44
1.0
  0
MTEXT
  5
4B9
330
1C
100
AcDbEntity
  8
Р-2
100
AcDbMText
 10
1394347.461686817
 20
359670.955768344
 30
0.0
 40
6.533333333309999
 41
6.533333333309999
 46
0.0
 71
     2
 72
     5
  1
Р-2\Pуч.15
 73
     1
 44
1.0
  0
MTEXT
  5
4BA
330
1C
100
AcDbEntity
  8
Р-2
100
AcDbMText
 10
1394682.042704386
 20
359686.581014214
 30
0.0
 40
6.533333333309999
 41
6.533333333309999
 46
0.0
 71
     2
 72
     5
  1
Р-2\Pуч.12
 73
     1
 44
1.0
  0
MTEXT
  5
4BB
330
1C
100
AcDbEntity
  8
Р-2
100
AcDbMText
 10
1395274.123918976
 20
360225.267942538
 30
0.0
 40
6.533333333309999
 41
6.533333333309999
 46
0.0
 71
     2
 72
     5
  1
Р-2\Pуч.24
 73
     1
 44
1.0
  0
MTEXT
  5
515
330
1C
100
AcDbEntity
  8
Р-2
100
AcDbMText
 10
1398177.616740106
 20
359456.27368083
 30
0.0
 40
6.533333333309999
 41
6.533333333309999
 46
0.0
 71
     2
 72
     5
  1
Р-2\Pуч.46
 73
     1
 44
1.0
  0
MTEXT
  5
522
330
1C
100
AcDbEntity
  8
Р-2
100
AcDbMText
 10
1395619.122712697
 20
360560.6882954401
 30
0.0
 40
6.533333333309999
 41
6.533333333309999
 46
0.0
 71
     2
 72
     5
  1
Р-2\Pуч.54
 73
     1
 44
1.0
  0
MTEXT
  5
523
330
1C
100
AcDbEntity
  8
Р-2
100
AcDbMText
 10
1395734.724868157
 20
360649.611634334
 30
0.0
 40
6.533333333309999
 41
6.533333333309999
 46
0.0
 71
     2
 72
     5
  1
Р-2\Pуч.54
 73
     1
 44
1.0
  0
MTEXT
  5
526
330
1C
100
AcDbEntity
  8
Р-2
100
AcDbMText
 10
1398316.336382927
 20
359751.051747552
 30
0.0
 40
6.533333333309999
 41
6.533333333309999
 46
0.0
 71
     2
 72
     5
  1
Р-2\Pуч.52
 73
     1
 44
1.0
  0
MTEXT
  5
541
330
1C
100
AcDbEntity
  8
Р-2
100
AcDbMText
 10
1395772.793679026
 20
359434.132829958
 30
0.0
 40
6.533333333309999
 41
6.533333333309999
 46
0.0
 71
     2
 72
     5
  1
Р-2\Pуч.55
 73
     1
 44
1.0
  0
MTEXT
  5
548
330
1C
100
AcDbEntity
  8
Р-2
100
AcDbMText
 10
1394371.097388246
 20
359570.2707645671
 30
0.0
 40
6.533333333309999
 41
6.533333333309999
 46
0.0
 71
     2
 72
     5
  1
Р-2\Pуч.13
 73
     1
 44
1.0
  0
MTEXT
  5
571
330
1C
100
AcDbEntity
  8
Р-2
100
AcDbMText
 10
1393606.598141666
 20
358089.0753421711
 30
0.0
 40
6.533333333309999
 41
6.533333333309999
 46
0.0
 71
     2
 72
     5
  1
Р-2\Pуч.4
 73
     1
 44
1.0
  0
MTEXT
  5
572
330
1C
100
AcDbEntity
  8
Р-2
100
AcDbMText
 10
1393501.460390827
 20
358082.104970961
 30
0.0
 40
6.533333333309999
 41
6.533333333309999
 46
0.0
 71
     2
 72
     5
  1
Р-2\Pуч.3
 73
     1
 44
1.0
  0
MTEXT
  5
573
330
1C
100
AcDbEntity
  8
Р-2
100
AcDbMText
 10
1394235.147037166
 20
358611.4134719621
 30
0.0
 40
6.533333333309999
 41
6.533333333309999
 46
0.0
 71
     2
 72
     5
  1
Р-2\Pуч.5
 73
     1
 44
1.0
  0
MTEXT
  5
574
330
1C
100
AcDbEntity
  8
Р-2
100
AcDbMText
 10
1394339.820733556
 20
358684.568992093
 30
0.0
 40
6.533333333309999
 41
6.533333333309999
 46
0.0
 71
     2
 72
     5
  1
Р-2\Pуч.6
 73
     1
 44
1.0
  0
MTEXT
  5
575
330
1C
100
AcDbEntity
  8
Р-2
100
AcDbMText
 10
1394337.683070356
 20
358846.139711645
 30
0.0
 40
6.533333333309999
 41
6.533333333309999
 46
0.0
 71
     2
 72
     5
  1
Р-2\Pуч.7
 73
     1
 44
1.0
  0
MTEXT
  5
576
330
1C
100
AcDbEntity
  8
Р-2
100
AcDbMText
 10
1394409.308109716
 20
358761.770503708
 30
0.0
 40
6.533333333309999
 41
6.533333333309999
 46
0.0
 71
     2
 72
     5
  1
Р-2\Pуч.8
 73
     1
 44
1.0
  0
MTEXT
  5
579
330
1C
100
AcDbEntity
  8
Р-2
100
AcDbMText
 10
1394796.796296276
 20
359069.8248052471
 30
0.0
 40
6.533333333309999
 41
6.533333333309999
 46
0.0
 71
     2
 72
     5
  1
Р-2\Pуч.10
 73
     1
 44
1.0
  0
MTEXT
  5
599
330
1C
100
AcDbEntity
  8
Р-2
100
AcDbMText
 10
1393286.769513236
 20
357798.9512678621
 30
0.0
 40
6.533333333309999
 41
6.533333333309999
 46
0.0
 71
     2
 72
     5
  1
Р-2\Pуч.1
 73
     1
 44
1.0
  0
MTEXT
  5
59A
330
1C
100
AcDbEntity
  8
Р-2
100
AcDbMText
 10
1393402.805599266
 20
357897.643765728
 30
0.0
 40
6.533333333309999
 41
6.533333333309999
 46
0.0
 71
     2
 72
     5
  1
Р-2\Pуч.2
 73
     1
 44
1.0
  0
MTEXT
  5
5A1
330
1C
100
AcDbEntity
  8
Р-2
100
AcDbMText
 10
1394454.666511327
 20
359585.802858915
 30
0.0
 40
6.533333333309999
 41
6.533333333309999
 46
0.0
 71
     2
 72
     5
  1
Р-2\Pуч.14
 73
     1
 44
1.0
  0
MTEXT
  5
5B7
330
1C
100
AcDbEntity
  8
Р-2
100
AcDbMText
 10
1394634.751237977
 20
359409.6041745601
 30
0.0
 40
6.533333333309999
 41
6.533333333309999
 46
0.0
 71
     2
 72
     5
  1
Р-2\Pуч.12
 73
     1
 44
1.0
  0
MTEXT
  5
5BC
330
1C
100
AcDbEntity
  8
Р-2
100
AcDbMText
 10
1393587.890523537
 20
358200.817634531
 30
0.0
 40
6.533333333309999
 41
6.533333333309999
 46
0.0
 71
     2
 72
     5
  1
Р-2\Pуч.53
 73
     1
 44
1.0
  0
MTEXT
  5
5FF
330
1C
100
AcDbEntity
  8
Р-2
100
AcDbMText
 10
1394448.495411706
 20
358834.8302992621
 30
0.0
 40
6.533333333309999
 41
6.533333333309999
 46
0.0
 71
     2
 72
     5
  1
Р-2\Pуч.8
 73
     1
 44
1.0
  0
MTEXT
  5
601
330
1C
100
AcDbEntity
  8
Р-2
100
AcDbMText
 10
1394485.818269806
 20
359407.2023153341
 30
0.0
 40
6.533333333309999
 41
6.533333333309999
 46
0.0
 71
     2
 72
     5
  1
Р-2\Pуч.11
 73
     1
 44
1.0
  0
MTEXT
  5
602
330
1C
100
AcDbEntity
  8
Р-2
100
AcDbMText
 10
1394593.233677746
 20
359632.007312289
 30
0.0
 40
6.533333333309999
 41
6.533333333309999
 46
0.0
 71
     2
 72
     5
  1
Р-2\Pуч.11
 73
     1
 44
1.0
  0
CIRCLE
  5
6C5
330
1C
100
AcDbEntity
  8
Р-2
370
     0
100
AcDbCircle
 10
1394530.63753953
 20
359694.0768709281
 30
0.0
 40
16.0
  0
CIRCLE
  5
6C6
330
1C
100
AcDbEntity
  8
Р-2
370
     0
100
AcDbCircle
 10
1394348.64288408
 20
359659.0426046161
 30
0.0
 40
16.0
  0
CIRCLE
  5
6C8
330
1C
100
AcDbEntity
  8
Р-2
370
     0
100
AcDbCircle
 10
1394683.05775347
 20
359674.6606911111
 30
0.0
 40
16.0
  0
CIRCLE
  5
718
330
1C
100
AcDbEntity
  8
Р-2
370
     0
100
AcDbCircle
 10
1396076.06972495
 20
359611.6313353871
 30
0.0
 40
16.0
  0
CIRCLE
  5
720
330
1C
100
AcDbEntity
  8
Р-2
370
     0
100
AcDbCircle
 10
1396788.78475761
 20
359856.135149737
 30
0.0
 40
17.0
  0
CIRCLE
  5
731
330
1C
100
AcDbEntity
  8
Р-2
370
     0
100
AcDbCircle
 10
1396867.08877372
 20
359863.122120824
 30
0.0
 40
17.0
  0
CIRCLE
  5
737
330
1C
100
AcDbEntity
  8
Р-2
370
     0
100
AcDbCircle
 10
1397917.58353926
 20
359287.5521993839
 30
0.0
 40
17.0
  0
CIRCLE
  5
738
330
1C
100
AcDbEntity
  8
Р-2
370
     0
100
AcDbCircle
 10
1398142.86765152
 20
359317.566574477
 30
0.0
 40
17.0
  0
CIRCLE
  5
739
330
1C
100
AcDbEntity
  8
Р-2
370
     0
100
AcDbCircle
 10
1398117.87140883
 20
359402.452364359
 30
0.0
 40
17.0
  0
CIRCLE
  5
741
330
1C
100
AcDbEntity
  8
Р-2
370
     0
100
AcDbCircle
 10
1399545.80658795
 20
360283.48493917
 30
0.0
 40
17.0
  0
CIRCLE
  5
756
330
1C
100
AcDbEntity
  8
Р-2
370
     0
100
AcDbCircle
 10
1394927.48040114
 20
360058.620911585
 30
0.0
 40
16.0
  0
CIRCLE
  5
757
330
1C
100
AcDbEntity
  8
Р-2
370
     0
100
AcDbCircle
 10
1394777.60769107
 20
360228.4429809
 30
0.0
 40
15.0764303207397
  0
CIRCLE
  5
758
330
1C
100
AcDbEntity
  8
Р-2
370
     0
100
AcDbCircle
 10
1394884.29916659
 20
360315.025440155
 30
0.0
 40
16.0
  0
CIRCLE
  5
759
330
1C
100
AcDbEntity
  8
Р-2
370
     0
100
AcDbCircle
 10
1394791.68116818
 20
360447.3084220141
 30
0.0
 40
16.0
  0
CIRCLE
  5
75A
330
1C
100
AcDbEntity
  8
Р-2
370
     0
100
AcDbCircle
 10
1395112.85321717
 20
360123.177203804
 30
0.0
 40
16.0
  0
CIRCLE
  5
75B
330
1C
100
AcDbEntity
  8
Р-2
370
     0
100
AcDbCircle
 10
1395047.16548476
 20
360245.235323477
 30
0.0
 40
16.0
  0
CIRCLE
  5
75C
330
1C
100
AcDbEntity
  8
Р-2
370
     0
100
AcDbCircle
 10
1395004.49214861
 20
360393.295546285
 30
0.0
 40
16.0
  0
CIRCLE
  5
75D
330
1C
100
AcDbEntity
  8
Р-2
370
     0
100
AcDbCircle
 10
1395381.20202509
 20
360184.945999295
 30
0.0
 40
16.0
  0
CIRCLE
  5
75E
330
1C
100
AcDbEntity
  8
Р-2
370
     0
100
AcDbCircle
 10
1395302.36389899
 20
360306.299513135
 30
0.0
 40
16.0
  0
CIRCLE
  5
75F
330
1C
100
AcDbEntity
  8
Р-2
370
     0
100
AcDbCircle
 10
1395425.96532223
 20
360314.7293781221
 30
0.0
 40
16.0
  0
CIRCLE
  5
760
330
1C
100
AcDbEntity
  8
Р-2
370
     0
100
AcDbCircle
 10
1395366.28539155
 20
360455.103308399
 30
0.0
 40
16.0
  0
CIRCLE
  5
761
330
1C
100
AcDbEntity
  8
Р-2
370
     0
100
AcDbCircle
 10
1395514.87778614
 20
360433.264329688
 30
0.0
 40
16.0
  0
CIRCLE
  5
762
330
1C
100
AcDbEntity
  8
Р-2
370
     0
100
AcDbCircle
 10
1395519.72938706
 20
360359.895789296
 30
0.0
 40
16.0
  0
CIRCLE
  5
763
330
1C
100
AcDbEntity
  8
Р-2
370
     0
100
AcDbCircle
 10
1395490.67596965
 20
360558.1976990361
 30
0.0
 40
16.0
  0
CIRCLE
  5
764
330
1C
100
AcDbEntity
  8
Р-2
370
     0
100
AcDbCircle
 10
1395359.02789465
 20
360572.665517965
 30
0.0
 40
16.0
  0
CIRCLE
  5
765
330
1C
100
AcDbEntity
  8
Р-2
370
     0
100
AcDbCircle
 10
1395601.77421462
 20
360242.6767148571
 30
0.0
 40
16.0
  0
CIRCLE
  5
766
330
1C
100
AcDbEntity
  8
Р-2
370
     0
100
AcDbCircle
 10
1395639.95954232
 20
360049.964324131
 30
0.0
 40
16.0
  0
CIRCLE
  5
767
330
1C
100
AcDbEntity
  8
Р-2
370
     0
100
AcDbCircle
 10
1396023.88834215
 20
359329.621355328
 30
0.0
 40
16.0
  0
CIRCLE
  5
768
330
1C
100
AcDbEntity
  8
Р-2
370
     0
100
AcDbCircle
 10
1395827.46098342
 20
359421.9159046121
 30
0.0
 40
16.0
  0
CIRCLE
  5
769
330
1C
100
AcDbEntity
  8
Р-2
370
     0
100
AcDbCircle
 10
1396331.17066313
 20
359464.424336909
 30
0.0
 40
16.0
  0
CIRCLE
  5
76A
330
1C
100
AcDbEntity
  8
Р-2
370
     0
100
AcDbCircle
 10
1396378.30520138
 20
359519.6719095751
 30
0.0
 40
16.0
  0
CIRCLE
  5
76B
330
1C
100
AcDbEntity
  8
Р-2
370
     0
100
AcDbCircle
 10
1396523.20100662
 20
359640.5090465171
 30
0.0
 40
17.0
  0
CIRCLE
  5
76C
330
1C
100
AcDbEntity
  8
Р-2
370
     0
100
AcDbCircle
 10
1397106.29872282
 20
359613.888799244
 30
0.0
 40
17.0
  0
CIRCLE
  5
76D
330
1C
100
AcDbEntity
  8
Р-2
370
     0
100
AcDbCircle
 10
1397417.65540383
 20
359344.77561851
 30
0.0
 40
17.0
  0
CIRCLE
  5
76E
330
1C
100
AcDbEntity
  8
Р-2
370
     0
100
AcDbCircle
 10
1397546.38929334
 20
359492.221797665
 30
0.0
 40
17.0
  0
CIRCLE
  5
76F
330
1C
100
AcDbEntity
  8
Р-2
370
     0
100
AcDbCircle
 10
1397302.01755591
 20
359543.719765589
 30
0.0
 40
17.0
  0
CIRCLE
  5
770
330
1C
100
AcDbEntity
  8
Р-2
370
     0
100
AcDbCircle
 10
1398122.96666795
 20
359524.973951699
 30
0.0
 40
17.0
  0
CIRCLE
  5
771
330
1C
100
AcDbEntity
  8
Р-2
370
     0
100
AcDbCircle
 10
1398326.78448849
 20
359559.576223737
 30
0.0
 40
17.0
  0
CIRCLE
  5
772
330
1C
100
AcDbEntity
  8
Р-2
370
     0
100
AcDbCircle
 10
1398333.07850828
 20
359680.1923422761
 30
0.0
 40
17.0
  0
CIRCLE
  5
773
330
1C
100
AcDbEntity
  8
Р-2
370
     0
100
AcDbCircle
 10
1398750.32205468
 20
359603.8865859511
 30
0.0
 40
17.0
  0
CIRCLE
  5
774
330
1C
100
AcDbEntity
  8
Р-2
370
     0
100
AcDbCircle
 10
1398674.91272678
 20
359519.833648029
 30
0.0
 40
17.0
  0
CIRCLE
  5
778
330
1C
100
AcDbEntity
  8
Р-2
370
     0
100
AcDbCircle
 10
1397317.95908751
 20
360050.945181502
 30
0.0
 40
16.0
  0
CIRCLE
  5
77B
330
1C
100
AcDbEntity
  8
Р-2
370
     0
100
AcDbCircle
 10
1396304.69667019
 20
359513.463629205
 30
0.0
 40
16.0
  0
CIRCLE
  5
77C
330
1C
100
AcDbEntity
  8
Р-2
370
     0
100
AcDbCircle
 10
1396913.56891838
 20
359983.0660431871
 30
0.0
 40
16.0
  0
CIRCLE
  5
77D
330
1C
100
AcDbEntity
  8
Р-2
370
     0
100
AcDbCircle
 10
1398251.51270689
 20
359114.494393917
 30
0.0
 40
17.0
  0
CIRCLE
  5
77E
330
1C
100
AcDbEntity
  8
Р-2
370
     0
100
AcDbCircle
 10
1398486.57640399
 20
359095.494600218
 30
0.0
 40
17.0
  0
CIRCLE
  5
784
330
1C
100
AcDbEntity
  8
Р-2
370
     0
100
AcDbCircle
 10
1398656.70027288
 20
359075.4122960991
 30
0.0
 40
17.0
  0
CIRCLE
  5
78F
330
1C
100
AcDbEntity
  8
Р-2
370
     0
100
AcDbCircle
 10
1395206.0500622
 20
360788.44534393
 30
0.0
 40
16.0
  0
CIRCLE
  5
791
330
1C
100
AcDbEntity
  8
Р-2
370
     0
100
AcDbCircle
 10
1395275.86600161
 20
360214.719067299
 30
0.0
 40
16.0
  0
CIRCLE
  5
7EB
330
1C
100
AcDbEntity
  8
Р-2
370
     0
100
AcDbCircle
 10
1398179.21770413
 20
359445.8884950521
 30
0.0
 40
17.0
  0
CIRCLE
  5
7F8
330
1C
100
AcDbEntity
  8
Р-2
370
     0
100
AcDbCircle
 10
1395621.34565796
 20
360548.307736393
 30
0.0
 40
16.0
  0
CIRCLE
  5
7F9
330
1C
100
AcDbEntity
  8
Р-2
370
     0
100
AcDbCircle
 10
1395736.51841089
 20
360637.582520756
 30
0.0
 40
16.0
  0
CIRCLE
  5
7FC
330
1C
100
AcDbEntity
  8
Р-2
370
     0
100
AcDbCircle
 10
1398317.33495633
 20
359741.5112211971
 30
0.0
 40
17.0
  0
CIRCLE
  5
817
330
1C
100
AcDbEntity
  8
Р-2
370
     0
100
AcDbCircle
 10
1395774.22261859
 20
359423.4642430591
 30
0.0
 40
16.0
  0
CIRCLE
  5
81E
330
1C
100
AcDbEntity
  8
Р-2
370
     0
100
AcDbCircle
 10
1394373.0523888
 20
359561.665952193
 30
0.0
 40
16.0
  0
CIRCLE
  5
847
330
1C
100
AcDbEntity
  8
Р-2
370
     0
100
AcDbCircle
 10
1393606.87818253
 20
358078.384763209
 30
0.0
 40
17.0
  0
CIRCLE
  5
848
330
1C
100
AcDbEntity
  8
Р-2
370
     0
100
AcDbCircle
 10
1393500.28802484
 20
358071.036715242
 30
0.0
 40
16.0
  0
CIRCLE
  5
849
330
1C
100
AcDbEntity
  8
Р-2
370
     0
100
AcDbCircle
 10
1394235.22672662
 20
358601.1962222001
 30
0.0
 40
15.0
  0
CIRCLE
  5
84A
330
1C
100
AcDbEntity
  8
Р-2
370
     0
100
AcDbCircle
 10
1394339.64251273
 20
358674.3511002241
 30
0.0
 40
16.0
  0
CIRCLE
  5
84B
330
1C
100
AcDbEntity
  8
Р-2
370
     0
100
AcDbCircle
 10
1394337.88418194
 20
358836.610345669
 30
0.0
 40
16.0
  0
CIRCLE
  5
84C
330
1C
100
AcDbEntity
  8
Р-2
370
     0
100
AcDbCircle
 10
1394409.00714512
 20
358751.841705369
 30
0.0
 40
16.0
  0
CIRCLE
  5
84F
330
1C
100
AcDbEntity
  8
Р-2
370
     0
100
AcDbCircle
 10
1394795.14227369
 20
359058.064876823
 30
0.0
 40
16.0
  0
CIRCLE
  5
86F
330
1C
100
AcDbEntity
  8
Р-2
370
     0
100
AcDbCircle
 10
1393287.40823269
 20
357789.119964324
 30
0.0
 40
16.0
  0
CIRCLE
  5
870
330
1C
100
AcDbEntity
  8
Р-2
370
     0
100
AcDbCircle
 10
1393402.8427087
 20
357887.265102319
 30
0.0
 40
16.0
  0
CIRCLE
  5
877
330
1C
100
AcDbEntity
  8
Р-2
370
     0
100
AcDbCircle
 10
1394456.02461965
 20
359574.646159493
 30
0.0
 40
16.0
  0
CIRCLE
  5
883
330
1C
100
AcDbEntity
  8
Р-2
370
     0
100
AcDbCircle
 10
1394487.75675573
 20
359396.010456738
 30
0.0
 40
17.0
  0
CIRCLE
  5
88E
330
1C
100
AcDbEntity
  8
Р-2
370
     0
100
AcDbCircle
 10
1394635.72916255
 20
359399.034961053
 30
0.0
 40
17.0
  0
CIRCLE
  5
893
330
1C
100
AcDbEntity
  8
Р-2
370
     0
100
AcDbCircle
 10
1393587.01421875
 20
358189.702259498
 30
0.0
 40
17.0
  0
CIRCLE
  5
8D6
330
1C
100
AcDbEntity
  8
Р-2
370
     0
100
AcDbCircle
 10
1394448.1944496
 20
358824.901501087
 30
0.0
 40
16.0
  0
CIRCLE
  5
8D8
330
1C
100
AcDbEntity
  8
Р-2
370
     0
100
AcDbCircle
 10
1394594.24719046
 20
359623.7564803771
 30
0.0
 40
17.0
  0
VIEWPORT
  5
8E1
330
8DD
100
AcDbEntity
 67
     1
  8
0
100
AcDbViewport
 10
0.0
 20
0.0
 30
0.0
 40
297.0
 41
210.0
 68
     1
 69
     1
 12
50.0
 22
100.0
 13
0.0
 23
0.0
 14
10.0
 24
10.0
 15
10.0
 25
10.0
 16
0.0
 26
0.0
 36
1.0
 17
0.0
 27
0.0
 37
0.0
 42
50.0
 43
0.0
 44
0.0
 45
250.0
 50
0.0
 51
0.0
 72
  1000
 90
   819232
  1

281
     0
 71
     1
 74
     0
110
0.0
120
0.0
130
0.0
111
1.0
121
0.0
131
0.0
112
0.0
122
1.0
132
0.0
 79
     0
146
0.0
170
     0
 61
     5
292
     1
282
     1
141
0.0
142
0.0
 63
   250
421
  3355443
  0
ENDSEC
  0
SECTION
  2
OBJECTS
  0
DICTIONARY
  5
8E6
330
0
100
AcDbDictionary
280
     1
281
     1
  3
ACAD_CIP_PREVIOUS_PRODUCT_INFO
360
93D
  3
ACAD_COLOR
360
921
  3
ACAD_DETAILVIEWSTYLE
360
93A
  3
ACAD_DGNDEFINITIONS
360
F
  3
ACAD_DWFDEFINITIONS
360
10
  3
ACAD_GROUP
360
12
  3
ACAD_IMAGE_DICT
360
E
  3
ACAD_IMAGE_VARS
360
21
  3
ACAD_LAYOUT
360
8E0
  3
ACAD_MATERIAL
360
8EF
  3
ACAD_MLEADERSTYLE
360
936
  3
ACAD_MLINESTYLE
360
B
  3
ACAD_PDFDEFINITIONS
360
11
  3
ACAD_PLOTSETTINGS
360
93C
  3
ACAD_PLOTSTYLENAME
360
8ED
  3
ACAD_SCALELIST
360
924
  3
ACAD_SECTIONVIEWSTYLE
360
938
  3
ACAD_TABLESTYLE
360
922
  3
ACAD_VISUALSTYLE
360
908
  3
ACDB_RECOMPOSE_DATA
360
9AF
  3
AcDbVariableDictionary
360
944
  0
DICTIONARY
  5
6
330
5
100
AcDbDictionary
280
     1
281
     1
  3
ACAD_LAYERSTATES
360
8E7
  0
XRECORD
  5
93D
102
{ACAD_REACTORS
330
8E6
102
}
330
8E6
100
AcDbXrecord
280
     1
300
ACD
300
2020
300
ACD_F_S
  0
DICTIONARY
  5
921
102
{ACAD_REACTORS
330
8E6
102
}
330
8E6
100
AcDbDictionary
281
     1
  0
DICTIONARY
  5
93A
102
{ACAD_REACTORS
330
8E6
102
}
330
8E6
100
AcDbDictionary
281
     1
  3
Imperial24
350
93B
  0
DICTIONARY
  5
F
330
8E6
100
AcDbDictionary
280
     1
281
     1
  0
DICTIONARY
  5
10
330
8E6
100
AcDbDictionary
280
     1
281
     1
  0
DICTIONARY
  5
12
330
8E6
100
AcDbDictionary
280
     1
281
     1
  0
DICTIONARY
  5
E
330
8E6
100
AcDbDictionary
280
     1
281
     1
  0
RASTERVARIABLES
  5
21
330
E
100
AcDbRasterVariables
 90
        0
 70
     1
 71
     1
 72
     0
  0
DICTIONARY
  5
8E0
330
8E6
100
AcDbDictionary
280
     1
281
     1
  3
Layout1
360
8E2
  3
Model
360
20
  0
DICTIONARY
  5
8EF
102
{ACAD_REACTORS
330
8E6
102
}
330
8E6
100
AcDbDictionary
281
     1
  3
ByBlock
350
8F8
  3
ByLayer
350
8F0
  3
Global
350
900
  0
DICTIONARY
  5
936
102
{ACAD_REACTORS
330
8E6
102
}
330
8E6
100
AcDbDictionary
281
     1
  3
Standard
350
937
  0
DICTIONARY
  5
B
330
8E6
100
AcDbDictionary
280
     1
281
     1
  3
Standard
360
1B
  0
DICTIONARY
  5
11
330
8E6
100
AcDbDictionary
280
     1
281
     1
  0
DICTIONARY
  5
93C
102
{ACAD_REACTORS
330
8E6
102
}
330
8E6
100
AcDbDictionary
281
     1
  0
ACDBDICTIONARYWDFLT
  5
8ED
102
{ACAD_REACTORS
330
8E6
102
}
330
8E6
100
AcDbDictionary
281
     1
  3
Normal
350
8EE
100
AcDbDictionaryWithDefault
340
8EE
  0
DICTIONARY
  5
924
102
{ACAD_REACTORS
330
8E6
102
}
330
8E6
100
AcDbDictionary
281
     1
  3
A0
350
925
  3
A1
350
926
  3
A2
350
927
  3
A3
350
928
  3
A4
350
929
  3
A5
350
92A
  3
A6
350
92B
  3
A7
350
92C
  3
A8
350
92D
  3
A9
350
92E
  3
B0
350
92F
  3
B1
350
930
  3
B2
350
931
  3
B3
350
932
  3
B4
350
933
  3
B5
350
934
  3
B6
350
935
  0
DICTIONARY
  5
938
102
{ACAD_REACTORS
330
8E6
102
}
330
8E6
100
AcDbDictionary
281
     1
  3
Imperial24
350
939
  0
DICTIONARY
  5
922
102
{ACAD_REACTORS
330
8E6
102
}
330
8E6
100
AcDbDictionary
281
     1
  3
Standard
350
923
  0
DICTIONARY
  5
908
102
{ACAD_REACTORS
330
8E6
102
}
330
8E6
100
AcDbDictionary
281
     1
  3
2dWireframe
350
90E
  3
Basic
350
90D
  3
Brighten
350
914
  3
ColorChange
350
918
  3
Conceptual
350
911
  3
Dim
350
913
  3
EdgeColorOff
350
920
  3
Facepattern
350
917
  3
Flat
350
909
  3
FlatWithEdges
350
90A
  3
Gouraud
350
90B
  3
GouraudWithEdges
350
90C
  3
Hidden
350
910
  3
JitterOff
350
91E
  3
Linepattern
350
916
  3
OverhangOff
350
91F
  3
Realistic
350
912
  3
Shaded
350
91D
  3
Shaded with edges
350
91C
  3
Shades of Gray
350
919
  3
Sketchy
350
91A
  3
Thicken
350
915
  3
Wireframe
350
90F
  3
X-Ray
350
91B
  0
XRECORD
  5
9AF
102
{ACAD_REACTORS
330
8E6
102
}
330
8E6
100
AcDbXrecord
280
     1
 90
        1
330
923
  0
DICTIONARY
  5
944
102
{ACAD_REACTORS
330
8E6
102
}
330
8E6
100
AcDbDictionary
281
     1
  3
CANNOSCALE
350
949
  3
CMLEADERSTYLE
350
946
  3
CTABLESTYLE
350
945
  3
CVIEWDETAILSTYLE
350
947
  3
CVIEWSECTIONSTYLE
350
948
  0
DICTIONARY
  5
8E7
330
6
100
AcDbDictionary
280
     1
281
     1
  0
ACDBDETAILVIEWSTYLE
  5
93B
102
{ACAD_REACTORS
330
93A
102
}
330
93A
100
AcDbModelDocViewStyle
 70
     0
  3
Imperial24
290
     0
300
Imperial24
 90
        0
100
AcDbDetailViewStyle
 70
     0
 71
     0
 90
        3
 71
     1
340
18
 62
   256
 40
0.24
340
0
 62
   256
 40
0.24
300

 40
0.36
280
     3
 71
     2
340
15
 90
       25
 62
   256
 71
     3
340
18
 62
   256
 40
0.24
 90
        1
 40
0.75
 90
        1
300
%<\AcVar ViewType \f "%tc1">% %<\AcVar ViewDetailId>%\PМАСШТАБ %<\AcVar ViewScale \f "%sn">%
 71
     4
340
15
 90
       25
 62
   256
340
15
 90
       25
 62
   256
280
     0
  0
LAYOUT
  5
8E2
330
8E0
100
AcDbPlotSettings
  1

  2
none_device
  4
ISO_A4_(210.00_x_297.00_MM)
  6

 40
7.5
 41
20.0
 42
7.5
 43
20.0
 44
210.0
 45
297.0
 46
0.0
 47
0.0
 48
0.0
 49
0.0
140
0.0
141
0.0
142
1.0
143
1.0
 70
   688
 72
     1
 73
     1
 74
     1
  7

 75
     0
147
1.0
 76
     0
 77
     2
 78
   300
148
0.0
149
0.0
100
AcDbLayout
  1
Layout1
 70
     1
 71
     1
 10
0.0
 20
0.0
 11
12.0
 21
9.0
 12
0.0
 22
0.0
 32
0.0
 14
1.000000000000000E+20
 24
1.000000000000000E+20
 34
1.000000000000000E+20
 15
-1.000000000000000E+20
 25
-1.000000000000000E+20
 35
-1.000000000000000E+20
146
0.0
 13
0.0
 23
0.0
 33
0.0
 16
1.0
 26
0.0
 36
0.0
 17
0.0
 27
1.0
 37
0.0
 76
     0
330
8DD
331
8E1
  0
LAYOUT
  5
20
330
8E0
100
AcDbPlotSettings
  1

  2
none_device
  4
ISO_A4_(210.00_x_297.00_MM)
  6

 40
7.5
 41
20.0
 42
7.5
 43
20.0
 44
210.0
 45
297.0
 46
0.0
 47
0.0
 48
0.0
 49
0.0
140
0.0
141
0.0
142
1.0
143
1.0
 70
 11952
 72
     1
 73
     1
 74
     1
  7

 75
     0
147
1.0
 76
     0
 77
     2
 78
   300
148
0.0
149
0.0
100
AcDbLayout
  1
Model
 70
     1
 71
     0
 10
1370580.19114949
 20
317189.6127665851
 11
1399948.38546234
 21
361044.1753811011
 12
0.0
 22
0.0
 32
0.0
 14
1399948.38546234
 24
361044.1753811011
 34
0.0
 15
231.3
 25
175.5
 35
0.0
146
0.0
 13
0.0
 23
0.0
 33
0.0
 16
1.0
 26
0.0
 36
0.0
 17
0.0
 27
1.0
 37
0.0
 76
     0
330
1C
331
2
  0
MATERIAL
  5
8F8
102
{ACAD_XDICTIONARY
360
8F9
102
}
102
{ACAD_REACTORS
330
8EF
102
}
330
8EF
100
AcDbMaterial
  1
ByBlock
 72
     0
 43
0.0208333333333333
 43
0.0
 43
0.0
 43
0.0
 43
0.0
 43
0.0208333333333333
 43
0.0
 43
0.0
 43
0.0
 43
0.0
 43
1.0
 43
0.0
 43
0.0
 43
0.0
 43
0.0
 43
1.0
 77
     0
 47
0.0208333333333333
 47
0.0
 47
0.0
 47
0.0
 47
0.0
 47
0.0208333333333333
 47
0.0
 47
0.0
 47
0.0
 47
0.0
 47
1.0
 47
0.0
 47
0.0
 47
0.0
 47
0.0
 47
1.0
171
     0
 49
0.0208333333333333
 49
0.0
 49
0.0
 49
0.0
 49
0.0
 49
0.0208333333333333
 49
0.0
 49
0.0
 49
0.0
 49
0.0
 49
1.0
 49
0.0
 49
0.0
 49
0.0
 49
0.0
 49
1.0
175
     0
142
0.0208333333333333
142
0.0
142
0.0
142
0.0
142
0.0
142
0.0208333333333333
142
0.0
142
0.0
142
0.0
142
0.0
142
1.0
142
0.0
142
0.0
142
0.0
142
0.0
142
1.0
179
     0
144
0.0208333333333333
144
0.0
144
0.0
144
0.0
144
0.0
144
0.0208333333333333
144
0.0
144
0.0
144
0.0
144
0.0
144
1.0
144
0.0
144
0.0
144
0.0
144
0.0
144
1.0
147
0.0208333333333333
147
0.0
147
0.0
147
0.0
147
0.0
147
0.0208333333333333
147
0.0
147
0.0
147
0.0
147
0.0
147
1.0
147
0.0
147
0.0
147
0.0
147
0.0
147
1.0
  0
MATERIAL
  5
8F0
102
{ACAD_XDICTIONARY
360
8F1
102
}
102
{ACAD_REACTORS
330
8EF
102
}
330
8EF
100
AcDbMaterial
  1
ByLayer
 72
     0
 43
0.0208333333333333
 43
0.0
 43
0.0
 43
0.0
 43
0.0
 43
0.0208333333333333
 43
0.0
 43
0.0
 43
0.0
 43
0.0
 43
1.0
 43
0.0
 43
0.0
 43
0.0
 43
0.0
 43
1.0
 77
     0
 47
0.0208333333333333
 47
0.0
 47
0.0
 47
0.0
 47
0.0
 47
0.0208333333333333
 47
0.0
 47
0.0
 47
0.0
 47
0.0
 47
1.0
 47
0.0
 47
0.0
 47
0.0
 47
0.0
 47
1.0
171
     0
 49
0.0208333333333333
 49
0.0
 49
0.0
 49
0.0
 49
0.0
 49
0.0208333333333333
 49
0.0
 49
0.0
 49
0.0
 49
0.0
 49
1.0
 49
0.0
 49
0.0
 49
0.0
 49
0.0
 49
1.0
175
     0
142
0.0208333333333333
142
0.0
142
0.0
142
0.0
142
0.0
142
0.0208333333333333
142
0.0
142
0.0
142
0.0
142
0.0
142
1.0
142
0.0
142
0.0
142
0.0
142
0.0
142
1.0
179
     0
144
0.0208333333333333
144
0.0
144
0.0
144
0.0
144
0.0
144
0.0208333333333333
144
0.0
144
0.0
144
0.0
144
0.0
144
1.0
144
0.0
144
0.0
144
0.0
144
0.0
144
1.0
147
0.0208333333333333
147
0.0
147
0.0
147
0.0
147
0.0
147
0.0208333333333333
147
0.0
147
0.0
147
0.0
147
0.0
147
1.0
147
0.0
147
0.0
147
0.0
147
0.0
147
1.0
  0
MATERIAL
  5
900
102
{ACAD_XDICTIONARY
360
901
102
}
102
{ACAD_REACTORS
330
8EF
102
}
330
8EF
100
AcDbMaterial
  1
Global
 72
     0
 43
0.0208333333333333
 43
0.0
 43
0.0
 43
0.0
 43
0.0
 43
0.0208333333333333
 43
0.0
 43
0.0
 43
0.0
 43
0.0
 43
1.0
 43
0.0
 43
0.0
 43
0.0
 43
0.0
 43
1.0
 77
     0
 47
0.0208333333333333
 47
0.0
 47
0.0
 47
0.0
 47
0.0
 47
0.0208333333333333
 47
0.0
 47
0.0
 47
0.0
 47
0.0
 47
1.0
 47
0.0
 47
0.0
 47
0.0
 47
0.0
 47
1.0
171
     0
 49
0.0208333333333333
 49
0.0
 49
0.0
 49
0.0
 49
0.0
 49
0.0208333333333333
 49
0.0
 49
0.0
 49
0.0
 49
0.0
 49
1.0
 49
0.0
 49
0.0
 49
0.0
 49
0.0
 49
1.0
175
     0
142
0.0208333333333333
142
0.0
142
0.0
142
0.0
142
0.0
142
0.0208333333333333
142
0.0
142
0.0
142
0.0
142
0.0
142
1.0
142
0.0
142
0.0
142
0.0
142
0.0
142
1.0
179
     0
144
0.0208333333333333
144
0.0
144
0.0
144
0.0
144
0.0
144
0.0208333333333333
144
0.0
144
0.0
144
0.0
144
0.0
144
1.0
144
0.0
144
0.0
144
0.0
144
0.0
144
1.0
147
0.0208333333333333
147
0.0
147
0.0
147
0.0
147
0.0
147
0.0208333333333333
147
0.0
147
0.0
147
0.0
147
0.0
147
1.0
147
0.0
147
0.0
147
0.0
147
0.0
147
1.0
  0
MLEADERSTYLE
  5
937
102
{ACAD_REACTORS
330
936
102
}
330
936
100
AcDbMLeaderStyle
179
     2
170
     2
171
     1
172
     0
 90
        2
 40
0.0
 41
0.0
173
     1
 91
-1056964608
340
17
 92
       -2
290
     1
 42
0.09
291
     1
 43
0.36
  3
Standard
 44
0.18
300

342
18
174
     1
178
     6
175
     1
176
     0
 93
-1056964608
 45
0.18
292
     0
297
     0
 46
0.18
 94
-1056964608
 47
1.0
 49
1.0
140
1.0
293
     1
141
0.0
294
     1
177
     0
142
1.0
295
     0
296
     0
143
0.125
271
     0
272
     9
273
     9
298
     0
  0
MLINESTYLE
  5
1B
330
B
100
AcDbMlineStyle
  2
STANDARD
 70
     0
  3

 62
   256
 51
90.0
 52
90.0
 71
     2
 49
0.5
 62
   256
  6
BYLAYER
 49
-0.5
 62
   256
  6
BYLAYER
  0
ACDBPLACEHOLDER
  5
8EE
102
{ACAD_REACTORS
330
8ED
102
}
330
8ED
  0
SCALE
  5
925
102
{ACAD_REACTORS
330
924
102
}
330
924
100
AcDbScale
 70
     0
300
1:1
140
1.0
141
1.0
290
     1
  0
SCALE
  5
926
102
{ACAD_REACTORS
330
924
102
}
330
924
100
AcDbScale
 70
     0
300
1/128" = 1'-0"
140
0.0078125
141
12.0
290
     0
  0
SCALE
  5
927
102
{ACAD_REACTORS
330
924
102
}
330
924
100
AcDbScale
 70
     0
300
1/64" = 1'-0"
140
0.015625
141
12.0
290
     0
  0
SCALE
  5
928
102
{ACAD_REACTORS
330
924
102
}
330
924
100
AcDbScale
 70
     0
300
1/32" = 1'-0"
140
0.03125
141
12.0
290
     0
  0
SCALE
  5
929
102
{ACAD_REACTORS
330
924
102
}
330
924
100
AcDbScale
 70
     0
300
1/16" = 1'-0"
140
0.0625
141
12.0
290
     0
  0
SCALE
  5
92A
102
{ACAD_REACTORS
330
924
102
}
330
924
100
AcDbScale
 70
     0
300
3/32" = 1'-0"
140
0.09375
141
12.0
290
     0
  0
SCALE
  5
92B
102
{ACAD_REACTORS
330
924
102
}
330
924
100
AcDbScale
 70
     0
300
1/8" = 1'-0"
140
0.125
141
12.0
290
     0
  0
SCALE
  5
92C
102
{ACAD_REACTORS
330
924
102
}
330
924
100
AcDbScale
 70
     0
300
3/16" = 1'-0"
140
0.1875
141
12.0
290
     0
  0
SCALE
  5
92D
102
{ACAD_REACTORS
330
924
102
}
330
924
100
AcDbScale
 70
     0
300
1/4" = 1'-0"
140
0.25
141
12.0
290
     0
  0
SCALE
  5
92E
102
{ACAD_REACTORS
330
924
102
}
330
924
100
AcDbScale
 70
     0
300
3/8" = 1'-0"
140
0.375
141
12.0
290
     0
  0
SCALE
  5
92F
102
{ACAD_REACTORS
330
924
102
}
330
924
100
AcDbScale
 70
     0
300
1/2" = 1'-0"
140
0.5
141
12.0
290
     0
  0
SCALE
  5
930
102
{ACAD_REACTORS
330
924
102
}
330
924
100
AcDbScale
 70
     0
300
3/4" = 1'-0"
140
0.75
141
12.0
290
     0
  0
SCALE
  5
931
102
{ACAD_REACTORS
330
924
102
}
330
924
100
AcDbScale
 70
     0
300
1" = 1'-0"
140
1.0
141
12.0
290
     0
  0
SCALE
  5
932
102
{ACAD_REACTORS
330
924
102
}
330
924
100
AcDbScale
 70
     0
300
1-1/2" = 1'-0"
140
1.5
141
12.0
290
     0
  0
SCALE
  5
933
102
{ACAD_REACTORS
330
924
102
}
330
924
100
AcDbScale
 70
     0
300
3" = 1'-0"
140
3.0
141
12.0
290
     0
  0
SCALE
  5
934
102
{ACAD_REACTORS
330
924
102
}
330
924
100
AcDbScale
 70
     0
300
6" = 1'-0"
140
6.0
141
12.0
290
     0
  0
SCALE
  5
935
102
{ACAD_REACTORS
330
924
102
}
330
924
100
AcDbScale
 70
     0
300
1'-0" = 1'-0"
140
12.0
141
12.0
290
     0
  0
ACDBSECTIONVIEWSTYLE
  5
939
102
{ACAD_REACTORS
330
938
102
}
330
938
100
AcDbModelDocViewStyle
 70
     0
  3
Imperial24
290
     0
300
Imperial24
 90
        0
100
AcDbSectionViewStyle
 70
     0
 71
     0
 90
       78
 71
     1
340
18
 62
   256
 40
0.24
340
0
340
0
 62
   256
 40
0.24
300
I, O, Q, S, X, Z
 40
0.48
 90
        3
 40
0.18
 90
        1
 71
     2
340
15
 90
       25
 62
   256
340
15
 90
       50
 62
   256
 40
0.24
 40
0.0
 40
0.24
 71
     3
340
18
 62
   256
 40
0.24
 90
        1
 40
0.75
 90
        1
300
%<\AcVar ViewType \f "%tc1">% %<\AcVar ViewSectionStartId>%-%<\AcVar ViewSectionEndId>%\PМАСШТАБ %<\AcVar ViewScale \f "%sn">%
 71
     4
 62
   256
 62
   257
300
ANSI31
 40
1.0
 90
        0
290
     0
290
     0
 90
        6
 40
0.0
 40
1.570796326794896
 40
0.2617993877991494
 40
1.308996938995747
 40
-0.2617993877991494
 40
1.832595714594046
  0
TABLESTYLE
  5
923
102
{ACAD_XDICTIONARY
360
9AD
102
}
102
{ACAD_REACTORS
330
922
102
}
330
922
100
AcDbTableStyle
280
     0
  3
Standard
 70
     0
 71
     0
 40
0.06
 41
0.06
280
     0
281
     0
  7
Standard
140
0.18
170
     2
 62
     0
 63
     7
283
     0
 90
      512
 91
        0
  1

274
    -2
284
     1
 64
     0
275
    -2
285
     1
 65
     0
276
    -2
286
     1
 66
     0
277
    -2
287
     1
 67
     0
278
    -2
288
     1
 68
     0
279
    -2
289
     1
 69
     0
  7
Standard
140
0.25
170
     5
 62
     0
 63
     7
283
     0
 90
      512
 91
        0
  1

274
    -2
284
     1
 64
     0
275
    -2
285
     1
 65
     0
276
    -2
286
     1
 66
     0
277
    -2
287
     1
 67
     0
278
    -2
288
     1
 68
     0
279
    -2
289
     1
 69
     0
  7
Standard
140
0.18
170
     5
 62
     0
 63
     7
283
     0
 90
      512
 91
        0
  1

274
    -2
284
     1
 64
     0
275
    -2
285
     1
 65
     0
276
    -2
286
     1
 66
     0
277
    -2
287
     1
 67
     0
278
    -2
288
     1
 68
     0
279
    -2
289
     1
 69
     0
  0
VISUALSTYLE
  5
90E
102
{ACAD_REACTORS
330
908
102
}
330
908
100
AcDbVisualStyle
  2
2dWireframe
 70
     4
177
     3
291
     0
 70
    58
 90
        0
176
     1
 90
        2
176
     1
 90
        0
176
     1
 90
        0
176
     1
 40
0.6
176
     1
 40
30.0
176
     1
 62
     7
420
 16777215
176
     1
 90
        1
176
     1
 90
        4
176
     1
 62
     7
176
     1
 62
   257
176
     1
 90
        1
176
     1
 90
        1
176
     1
 40
1.0
176
     1
 90
        0
176
     1
 62
   257
176
     1
 40
1.0
176
     1
 90
        1
176
     1
 90
        6
176
     1
 90
        2
176
     1
 62
     7
176
     1
 90
        5
176
     1
 90
        0
176
     1
 90
        0
176
     1
290
     0
176
     1
 90
        1
176
     1
 40
0.0
176
     1
 90
        0
176
     1
290
     1
176
     1
290
     1
176
     1
290
     0
176
     1
290
     0
176
     1
290
     0
176
     1
290
     0
176
     1
290
     0
176
     1
290
     0
176
     1
290
     0
176
     1
 90
       50
176
     1
 40
0.0
176
     1
 40
1.0
176
     1
 90
        0
176
     1
 62
    18
420
        0
176
     1
 90
       50
176
     1
 90
        3
176
     1
 62
     5
420
      255
176
     1
290
     0
176
     1
 90
       50
176
     1
 90
       50
176
     1
 90
       50
176
     1
290
     0
176
     1
 90
       50
176
     1
 62
   256
176
     0
 40
1.0
176
     0
 90
        2
176
     1
  1
strokes_ogs.tif
176
     1
290
     0
176
     1
 40
1.0
176
     1
 40
1.0
176
     1
  0
VISUALSTYLE
  5
90D
102
{ACAD_REACTORS
330
908
102
}
330
908
100
AcDbVisualStyle
  2
Basic
 70
     7
177
     3
291
     1
 70
    58
 90
        1
176
     1
 90
        0
176
     1
 90
        1
176
     1
 90
        0
176
     1
 40
0.6
176
     1
 40
30.0
176
     1
 62
     7
420
 16777215
176
     1
 90
        0
176
     1
 90
        4
176
     1
 62
     7
176
     1
 62
   257
176
     1
 90
        1
176
     1
 90
        1
176
     1
 40
1.0
176
     1
 90
        8
176
     1
 62
     7
176
     1
 40
1.0
176
     1
 90
        1
176
     1
 90
        6
176
     1
 90
        2
176
     1
 62
     7
176
     1
 90
        5
176
     1
 90
        0
176
     1
 90
        0
176
     1
290
     0
176
     1
 90
        1
176
     1
 40
0.0
176
     1
 90
        0
176
     1
290
     0
176
     1
290
     1
176
     1
290
     1
176
     1
290
     0
176
     1
290
     0
176
     1
290
     0
176
     1
290
     0
176
     1
290
     0
176
     1
290
     0
176
     1
 90
       50
176
     1
 40
0.0
176
     1
 40
1.0
176
     1
 90
        0
176
     1
 62
    18
420
        0
176
     1
 90
       50
176
     1
 90
        3
176
     1
 62
     5
420
      255
176
     1
290
     0
176
     1
 90
       50
176
     1
 90
       50
176
     1
 90
       50
176
     1
290
     0
176
     1
 90
       50
176
     1
 62
   256
176
     0
 40
1.0
176
     0
 90
        2
176
     1
  1
strokes_ogs.tif
176
     1
290
     0
176
     1
 40
1.0
176
     1
 40
1.0
176
     1
  0
VISUALSTYLE
  5
914
102
{ACAD_REACTORS
330
908
102
}
330
908
100
AcDbVisualStyle
  2
Brighten
 70
    12
177
     3
291
     1
 70
    58
 90
        2
176
     1
 90
        2
176
     1
 90
        0
176
     1
 90
        0
176
     1
 40
0.6
176
     1
 40
30.0
176
     1
 62
     7
420
 16777215
176
     1
 90
        1
176
     1
 90
        4
176
     1
 62
     7
176
     1
 62
   257
176
     1
 90
        1
176
     1
 90
        1
176
     1
 40
1.0
176
     1
 90
        8
176
     1
 62
     7
176
     1
 40
1.0
176
     1
 90
        1
176
     1
 90
        6
176
     1
 90
        2
176
     1
 62
     7
176
     1
 90
        5
176
     1
 90
        0
176
     1
 90
        0
176
     1
290
     0
176
     1
 90
        1
176
     1
 40
50.0
176
     1
 90
        0
176
     1
290
     0
176
     1
290
     1
176
     1
290
     1
176
     1
290
     0
176
     1
290
     0
176
     1
290
     0
176
     1
290
     0
176
     1
290
     0
176
     1
290
     0
176
     1
 90
       50
176
     1
 40
0.0
176
     1
 40
1.0
176
     1
 90
        0
176
     1
 62
    18
420
        0
176
     1
 90
       50
176
     1
 90
        3
176
     1
 62
     5
420
      255
176
     1
290
     0
176
     1
 90
       50
176
     1
 90
       50
176
     1
 90
       50
176
     1
290
     0
176
     1
 90
       50
176
     1
 62
   256
176
     0
 40
1.0
176
     0
 90
        2
176
     1
  1
strokes_ogs.tif
176
     1
290
     0
176
     1
 40
1.0
176
     1
 40
1.0
176
     1
  0
VISUALSTYLE
  5
918
102
{ACAD_REACTORS
330
908
102
}
330
908
100
AcDbVisualStyle
  2
ColorChange
 70
    16
177
     3
291
     1
 70
    58
 90
        2
176
     1
 90
        2
176
     1
 90
        3
176
     1
 90
        0
176
     1
 40
0.6
176
     1
 40
30.0
176
     1
 62
     8
420
  8421504
176
     1
 90
        1
176
     1
 90
        4
176
     1
 62
     7
176
     1
 62
   257
176
     1
 90
        1
176
     1
 90
        1
176
     1
 40
1.0
176
     1
 90
        8
176
     1
 62
     8
420
  8421504
176
     1
 40
1.0
176
     1
 90
        1
176
     1
 90
        6
176
     1
 90
        2
176
     1
 62
     7
176
     1
 90
        5
176
     1
 90
        0
176
     1
 90
        0
176
     1
290
     0
176
     1
 90
        1
176
     1
 40
0.0
176
     1
 90
        0
176
     1
290
     0
176
     1
290
     1
176
     1
290
     1
176
     1
290
     0
176
     1
290
     0
176
     1
290
     0
176
     1
290
     0
176
     1
290
     0
176
     1
290
     0
176
     1
 90
       50
176
     1
 40
0.0
176
     1
 40
1.0
176
     1
 90
        0
176
     1
 62
    18
420
        0
176
     1
 90
       50
176
     1
 90
        3
176
     1
 62
     5
420
      255
176
     1
290
     0
176
     1
 90
       50
176
     1
 90
       50
176
     1
 90
       50
176
     1
290
     0
176
     1
 90
       50
176
     1
 62
   256
176
     0
 40
1.0
176
     0
 90
        2
176
     1
  1
strokes_ogs.tif
176
     1
290
     0
176
     1
 40
1.0
176
     1
 40
1.0
176
     1
  0
VISUALSTYLE
  5
911
102
{ACAD_REACTORS
330
908
102
}
330
908
100
AcDbVisualStyle
  2
Conceptual
 70
     9
177
     3
291
     0
 70
    58
 90
        3
176
     1
 90
        2
176
     1
 90
        0
176
     1
 90
        0
176
     1
 40
0.6
176
     1
 40
30.0
176
     1
 62
     7
420
 16777215
176
     1
 90
        2
176
     1
 90
        2
176
     1
 62
     7
176
     1
 62
   257
176
     1
 90
        1
176
     1
 90
        1
176
     1
 40
179.0
176
     1
 90
        8
176
     1
 62
     7
176
     1
 40
1.0
176
     1
 90
        1
176
     1
 90
        6
176
     1
 90
        2
176
     1
 62
     7
176
     1
 90
        3
176
     1
 90
        0
176
     1
 90
        0
176
     1
290
     0
176
     1
 90
        1
176
     1
 40
0.0
176
     1
 90
        0
176
     1
290
     0
176
     1
290
     1
176
     1
290
     1
176
     1
290
     0
176
     1
290
     0
176
     1
290
     0
176
     1
290
     0
176
     1
290
     0
176
     1
290
     0
176
     1
 90
       50
176
     1
 40
0.0
176
     1
 40
1.0
176
     1
 90
        0
176
     1
 62
    18
420
        0
176
     1
 90
       50
176
     1
 90
        3
176
     1
 62
     5
420
      255
176
     1
290
     0
176
     1
 90
       50
176
     1
 90
       50
176
     1
 90
       50
176
     1
290
     0
176
     1
 90
       50
176
     1
 62
   256
176
     0
 40
1.0
176
     0
 90
        2
176
     1
  1
strokes_ogs.tif
176
     1
290
     0
176
     1
 40
1.0
176
     1
 40
1.0
176
     1
  0
VISUALSTYLE
  5
913
102
{ACAD_REACTORS
330
908
102
}
330
908
100
AcDbVisualStyle
  2
Dim
 70
    11
177
     3
291
     1
 70
    58
 90
        2
176
     1
 90
        2
176
     1
 90
        0
176
     1
 90
        0
176
     1
 40
0.6
176
     1
 40
30.0
176
     1
 62
     7
420
 16777215
176
     1
 90
        1
176
     1
 90
        4
176
     1
 62
     7
176
     1
 62
   257
176
     1
 90
        1
176
     1
 90
        1
176
     1
 40
1.0
176
     1
 90
        8
176
     1
 62
     7
176
     1
 40
1.0
176
     1
 90
        1
176
     1
 90
        6
176
     1
 90
        2
176
     1
 62
     7
176
     1
 90
        5
176
     1
 90
        0
176
     1
 90
        0
176
     1
290
     0
176
     1
 90
        1
176
     1
 40
-50.0
176
     1
 90
        0
176
     1
290
     0
176
     1
290
     1
176
     1
290
     1
176
     1
290
     0
176
     1
290
     0
176
     1
290
     0
176
     1
290
     0
176
     1
290
     0
176
     1
290
     0
176
     1
 90
       50
176
     1
 40
0.0
176
     1
 40
1.0
176
     1
 90
        0
176
     1
 62
    18
420
        0
176
     1
 90
       50
176
     1
 90
        3
176
     1
 62
     5
420
      255
176
     1
290
     0
176
     1
 90
       50
176
     1
 90
       50
176
     1
 90
       50
176
     1
290
     0
176
     1
 90
       50
176
     1
 62
   256
176
     0
 40
1.0
176
     0
 90
        2
176
     1
  1
strokes_ogs.tif
176
     1
290
     0
176
     1
 40
1.0
176
     1
 40
1.0
176
     1
  0
VISUALSTYLE
  5
920
102
{ACAD_REACTORS
330
908
102
}
330
908
100
AcDbVisualStyle
  2
EdgeColorOff
 70
    22
177
     3
291
     1
 70
    58
 90
        2
176
     0
 90
        2
176
     0
 90
        0
176
     0
 90
        0
176
     0
 40
0.6
176
     0
 40
30.0
176
     0
 62
     7
420
 16777215
176
     0
 90
        1
176
     0
 90
        4
176
     0
 62
     7
176
     0
 62
   257
176
     0
 90
        1
176
     0
 90
        1
176
     0
 40
1.0
176
     0
 90
        8
176
     2
 62
     7
176
     0
 40
1.0
176
     0
 90
        1
176
     0
 90
        6
176
     0
 90
        2
176
     0
 62
     7
176
     0
 90
        5
176
     0
 90
        0
176
     0
 90
        0
176
     0
290
     0
176
     0
 90
        1
176
     0
 40
0.0
176
     0
 90
        0
176
     0
290
     0
176
     1
290
     1
176
     1
290
     1
176
     1
290
     0
176
     1
290
     0
176
     1
290
     0
176
     1
290
     0
176
     1
290
     0
176
     1
290
     0
176
     1
 90
       50
176
     0
 40
0.0
176
     0
 40
1.0
176
     0
 90
        0
176
     0
 62
    18
420
        0
176
     0
 90
       50
176
     0
 90
        3
176
     0
 62
     5
420
      255
176
     0
290
     0
176
     1
 90
       50
176
     0
 90
       50
176
     0
 90
       50
176
     0
290
     0
176
     1
 90
       50
176
     0
 62
   256
176
     0
 40
1.0
176
     0
 90
        2
176
     0
  1
strokes_ogs.tif
176
     0
290
     0
176
     1
 40
1.0
176
     0
 40
1.0
176
     0
  0
VISUALSTYLE
  5
917
102
{ACAD_REACTORS
330
908
102
}
330
908
100
AcDbVisualStyle
  2
Facepattern
 70
    15
177
     3
291
     1
 70
    58
 90
        2
176
     1
 90
        2
176
     1
 90
        0
176
     1
 90
        0
176
     1
 40
0.6
176
     1
 40
30.0
176
     1
 62
     7
420
 16777215
176
     1
 90
        1
176
     1
 90
        4
176
     1
 62
     7
176
     1
 62
   257
176
     1
 90
        1
176
     1
 90
        1
176
     1
 40
1.0
176
     1
 90
        8
176
     1
 62
     7
176
     1
 40
1.0
176
     1
 90
        1
176
     1
 90
        6
176
     1
 90
        2
176
     1
 62
     7
176
     1
 90
        5
176
     1
 90
        0
176
     1
 90
        0
176
     1
290
     0
176
     1
 90
        1
176
     1
 40
0.0
176
     1
 90
        0
176
     1
290
     0
176
     1
290
     1
176
     1
290
     1
176
     1
290
     0
176
     1
290
     0
176
     1
290
     0
176
     1
290
     0
176
     1
290
     0
176
     1
290
     0
176
     1
 90
       50
176
     1
 40
0.0
176
     1
 40
1.0
176
     1
 90
        0
176
     1
 62
    18
420
        0
176
     1
 90
       50
176
     1
 90
        3
176
     1
 62
     5
420
      255
176
     1
290
     0
176
     1
 90
       50
176
     1
 90
       50
176
     1
 90
       50
176
     1
290
     0
176
     1
 90
       50
176
     1
 62
   256
176
     0
 40
1.0
176
     0
 90
        2
176
     1
  1
strokes_ogs.tif
176
     1
290
     0
176
     1
 40
1.0
176
     1
 40
1.0
176
     1
  0
VISUALSTYLE
  5
909
102
{ACAD_REACTORS
330
908
102
}
330
908
100
AcDbVisualStyle
  2
Flat
 70
     0
177
     3
291
     1
 70
    58
 90
        2
176
     1
 90
        1
176
     1
 90
        1
176
     1
 90
        2
176
     1
 40
0.6
176
     1
 40
30.0
176
     1
 62
     7
420
 16777215
176
     1
 90
        0
176
     1
 90
        0
176
     1
 62
     7
176
     1
 62
   257
176
     1
 90
        1
176
     1
 90
        1
176
     1
 40
1.0
176
     1
 90
        8
176
     1
 62
     7
176
     1
 40
1.0
176
     1
 90
        1
176
     1
 90
        6
176
     1
 90
        2
176
     1
 62
     7
176
     1
 90
        5
176
     1
 90
        0
176
     1
 90
        0
176
     1
290
     0
176
     1
 90
       13
176
     1
 40
0.0
176
     1
 90
        0
176
     1
290
     0
176
     1
290
     1
176
     1
290
     1
176
     1
290
     0
176
     1
290
     0
176
     1
290
     0
176
     1
290
     0
176
     1
290
     0
176
     1
290
     0
176
     1
 90
       50
176
     1
 40
0.0
176
     1
 40
1.0
176
     1
 90
        0
176
     1
 62
    18
420
        0
176
     1
 90
       50
176
     1
 90
        3
176
     1
 62
     5
420
      255
176
     1
290
     0
176
     1
 90
       50
176
     1
 90
       50
176
     1
 90
       50
176
     1
290
     0
176
     1
 90
       50
176
     1
 62
   256
176
     0
 40
1.0
176
     0
 90
        2
176
     1
  1
strokes_ogs.tif
176
     1
290
     0
176
     1
 40
1.0
176
     1
 40
1.0
176
     1
  0
VISUALSTYLE
  5
90A
102
{ACAD_REACTORS
330
908
102
}
330
908
100
AcDbVisualStyle
  2
FlatWithEdges
 70
     1
177
     3
291
     1
 70
    58
 90
        2
176
     1
 90
        1
176
     1
 90
        1
176
     1
 90
        2
176
     1
 40
0.6
176
     1
 40
30.0
176
     1
 62
     7
420
 16777215
176
     1
 90
        1
176
     1
 90
        0
176
     1
 62
     7
176
     1
 62
   257
176
     1
 90
        1
176
     1
 90
        1
176
     1
 40
1.0
176
     1
 90
        0
176
     1
 62
   257
176
     1
 40
1.0
176
     1
 90
        1
176
     1
 90
        6
176
     1
 90
        2
176
     1
 62
     7
176
     1
 90
        5
176
     1
 90
        0
176
     1
 90
        0
176
     1
290
     0
176
     1
 90
       13
176
     1
 40
0.0
176
     1
 90
        0
176
     1
290
     0
176
     1
290
     1
176
     1
290
     1
176
     1
290
     0
176
     1
290
     0
176
     1
290
     0
176
     1
290
     0
176
     1
290
     0
176
     1
290
     0
176
     1
 90
       50
176
     1
 40
0.0
176
     1
 40
1.0
176
     1
 90
        0
176
     1
 62
    18
420
        0
176
     1
 90
       50
176
     1
 90
        3
176
     1
 62
     5
420
      255
176
     1
290
     0
176
     1
 90
       50
176
     1
 90
       50
176
     1
 90
       50
176
     1
290
     0
176
     1
 90
       50
176
     1
 62
   256
176
     0
 40
1.0
176
     0
 90
        2
176
     1
  1
strokes_ogs.tif
176
     1
290
     0
176
     1
 40
1.0
176
     1
 40
1.0
176
     1
  0
VISUALSTYLE
  5
90B
102
{ACAD_REACTORS
330
908
102
}
330
908
100
AcDbVisualStyle
  2
Gouraud
 70
     2
177
     3
291
     1
 70
    58
 90
        2
176
     1
 90
        2
176
     1
 90
        1
176
     1
 90
        2
176
     1
 40
0.6
176
     1
 40
30.0
176
     1
 62
     7
420
 16777215
176
     1
 90
        0
176
     1
 90
        0
176
     1
 62
     7
176
     1
 62
   257
176
     1
 90
        1
176
     1
 90
        1
176
     1
 40
1.0
176
     1
 90
        0
176
     1
 62
     7
176
     1
 40
1.0
176
     1
 90
        1
176
     1
 90
        6
176
     1
 90
        2
176
     1
 62
     7
176
     1
 90
        5
176
     1
 90
        0
176
     1
 90
        0
176
     1
290
     0
176
     1
 90
       13
176
     1
 40
0.0
176
     1
 90
        0
176
     1
290
     0
176
     1
290
     1
176
     1
290
     1
176
     1
290
     0
176
     1
290
     0
176
     1
290
     0
176
     1
290
     0
176
     1
290
     0
176
     1
290
     0
176
     1
 90
       50
176
     1
 40
0.0
176
     1
 40
1.0
176
     1
 90
        0
176
     1
 62
    18
420
        0
176
     1
 90
       50
176
     1
 90
        3
176
     1
 62
     5
420
      255
176
     1
290
     0
176
     1
 90
       50
176
     1
 90
       50
176
     1
 90
       50
176
     1
290
     0
176
     1
 90
       50
176
     1
 62
   256
176
     0
 40
1.0
176
     0
 90
        2
176
     1
  1
strokes_ogs.tif
176
     1
290
     0
176
     1
 40
1.0
176
     1
 40
1.0
176
     1
  0
VISUALSTYLE
  5
90C
102
{ACAD_REACTORS
330
908
102
}
330
908
100
AcDbVisualStyle
  2
GouraudWithEdges
 70
     3
177
     3
291
     1
 70
    58
 90
        2
176
     1
 90
        2
176
     1
 90
        1
176
     1
 90
        2
176
     1
 40
0.6
176
     1
 40
30.0
176
     1
 62
     7
420
 16777215
176
     1
 90
        1
176
     1
 90
        0
176
     1
 62
     7
176
     1
 62
   257
176
     1
 90
        1
176
     1
 90
        1
176
     1
 40
1.0
176
     1
 90
        0
176
     1
 62
   257
176
     1
 40
1.0
176
     1
 90
        1
176
     1
 90
        6
176
     1
 90
        2
176
     1
 62
     7
176
     1
 90
        5
176
     1
 90
        0
176
     1
 90
        0
176
     1
290
     0
176
     1
 90
       13
176
     1
 40
0.0
176
     1
 90
        0
176
     1
290
     0
176
     1
290
     1
176
     1
290
     1
176
     1
290
     0
176
     1
290
     0
176
     1
290
     0
176
     1
290
     0
176
     1
290
     0
176
     1
290
     0
176
     1
 90
       50
176
     1
 40
0.0
176
     1
 40
1.0
176
     1
 90
        0
176
     1
 62
    18
420
        0
176
     1
 90
       50
176
     1
 90
        3
176
     1
 62
     5
420
      255
176
     1
290
     0
176
     1
 90
       50
176
     1
 90
       50
176
     1
 90
       50
176
     1
290
     0
176
     1
 90
       50
176
     1
 62
   256
176
     0
 40
1.0
176
     0
 90
        2
176
     1
  1
strokes_ogs.tif
176
     1
290
     0
176
     1
 40
1.0
176
     1
 40
1.0
176
     1
  0
VISUALSTYLE
  5
910
102
{ACAD_REACTORS
330
908
102
}
330
908
100
AcDbVisualStyle
  2
Hidden
 70
     6
177
     3
291
     0
 70
    58
 90
        1
176
     1
 90
        2
176
     1
 90
        2
176
     1
 90
        0
176
     1
 40
0.6
176
     1
 40
30.0
176
     1
 62
     7
420
 16777215
176
     1
 90
        2
176
     1
 90
        2
176
     1
 62
     7
176
     1
 62
   257
176
     1
 90
        2
176
     1
 90
        1
176
     1
 40
40.0
176
     1
 90
        0
176
     1
 62
   257
176
     1
 40
1.0
176
     1
 90
        1
176
     1
 90
        6
176
     1
 90
        2
176
     1
 62
     7
176
     1
 90
        3
176
     1
 90
        0
176
     1
 90
        0
176
     1
290
     0
176
     1
 90
        1
176
     1
 40
0.0
176
     1
 90
        0
176
     1
290
     0
176
     1
290
     1
176
     1
290
     1
176
     1
290
     0
176
     1
290
     0
176
     1
290
     0
176
     1
290
     0
176
     1
290
     0
176
     1
290
     0
176
     1
 90
       50
176
     1
 40
0.0
176
     1
 40
1.0
176
     1
 90
        0
176
     1
 62
    18
420
        0
176
     1
 90
       50
176
     1
 90
        3
176
     1
 62
     5
420
      255
176
     1
290
     0
176
     1
 90
       50
176
     1
 90
       50
176
     1
 90
       50
176
     1
290
     0
176
     1
 90
       50
176
     1
 62
   256
176
     0
 40
1.0
176
     0
 90
        2
176
     1
  1
strokes_ogs.tif
176
     1
290
     0
176
     1
 40
1.0
176
     1
 40
1.0
176
     1
  0
VISUALSTYLE
  5
91E
102
{ACAD_REACTORS
330
908
102
}
330
908
100
AcDbVisualStyle
  2
JitterOff
 70
    20
177
     3
291
     1
 70
    58
 90
        2
176
     0
 90
        2
176
     0
 90
        0
176
     0
 90
        0
176
     0
 40
0.6
176
     0
 40
30.0
176
     0
 62
     7
420
 16777215
176
     0
 90
        1
176
     0
 90
        4
176
     0
 62
     7
176
     0
 62
   257
176
     0
 90
        1
176
     0
 90
        1
176
     0
 40
1.0
176
     0
 90
       10
176
     2
 62
     7
176
     0
 40
1.0
176
     0
 90
        1
176
     0
 90
        6
176
     0
 90
        2
176
     0
 62
     7
176
     0
 90
        5
176
     0
 90
        0
176
     0
 90
        0
176
     0
290
     0
176
     0
 90
        1
176
     0
 40
0.0
176
     0
 90
        0
176
     0
290
     0
176
     1
290
     1
176
     1
290
     1
176
     1
290
     0
176
     1
290
     0
176
     1
290
     0
176
     1
290
     0
176
     1
290
     0
176
     1
290
     0
176
     1
 90
       50
176
     0
 40
0.0
176
     0
 40
1.0
176
     0
 90
        0
176
     0
 62
    18
420
        0
176
     0
 90
       50
176
     0
 90
        3
176
     0
 62
     5
420
      255
176
     0
290
     0
176
     1
 90
       50
176
     0
 90
       50
176
     0
 90
       50
176
     0
290
     0
176
     1
 90
       50
176
     0
 62
   256
176
     0
 40
1.0
176
     0
 90
        2
176
     0
  1
strokes_ogs.tif
176
     0
290
     0
176
     1
 40
1.0
176
     0
 40
1.0
176
     0
  0
VISUALSTYLE
  5
916
102
{ACAD_REACTORS
330
908
102
}
330
908
100
AcDbVisualStyle
  2
Linepattern
 70
    14
177
     3
291
     1
 70
    58
 90
        2
176
     1
 90
        2
176
     1
 90
        0
176
     1
 90
        0
176
     1
 40
0.6
176
     1
 40
30.0
176
     1
 62
     7
420
 16777215
176
     1
 90
        1
176
     1
 90
        4
176
     1
 62
     7
176
     1
 62
   257
176
     1
 90
        7
176
     1
 90
        7
176
     1
 40
1.0
176
     1
 90
        8
176
     1
 62
     7
176
     1
 40
1.0
176
     1
 90
        1
176
     1
 90
        6
176
     1
 90
        2
176
     1
 62
     7
176
     1
 90
        5
176
     1
 90
        0
176
     1
 90
        0
176
     1
290
     0
176
     1
 90
        1
176
     1
 40
0.0
176
     1
 90
        0
176
     1
290
     0
176
     1
290
     1
176
     1
290
     1
176
     1
290
     0
176
     1
290
     0
176
     1
290
     0
176
     1
290
     0
176
     1
290
     0
176
     1
290
     0
176
     1
 90
       50
176
     1
 40
0.0
176
     1
 40
1.0
176
     1
 90
        0
176
     1
 62
    18
420
        0
176
     1
 90
       50
176
     1
 90
        3
176
     1
 62
     5
420
      255
176
     1
290
     0
176
     1
 90
       50
176
     1
 90
       50
176
     1
 90
       50
176
     1
290
     0
176
     1
 90
       50
176
     1
 62
   256
176
     0
 40
1.0
176
     0
 90
        2
176
     1
  1
strokes_ogs.tif
176
     1
290
     0
176
     1
 40
1.0
176
     1
 40
1.0
176
     1
  0
VISUALSTYLE
  5
91F
102
{ACAD_REACTORS
330
908
102
}
330
908
100
AcDbVisualStyle
  2
OverhangOff
 70
    21
177
     3
291
     1
 70
    58
 90
        2
176
     0
 90
        2
176
     0
 90
        0
176
     0
 90
        0
176
     0
 40
0.6
176
     0
 40
30.0
176
     0
 62
     7
420
 16777215
176
     0
 90
        1
176
     0
 90
        4
176
     0
 62
     7
176
     0
 62
   257
176
     0
 90
        1
176
     0
 90
        1
176
     0
 40
1.0
176
     0
 90
        9
176
     2
 62
     7
176
     0
 40
1.0
176
     0
 90
        1
176
     0
 90
        6
176
     0
 90
        2
176
     0
 62
     7
176
     0
 90
        5
176
     0
 90
        0
176
     0
 90
        0
176
     0
290
     0
176
     0
 90
        1
176
     0
 40
0.0
176
     0
 90
        0
176
     0
290
     0
176
     1
290
     1
176
     1
290
     1
176
     1
290
     0
176
     1
290
     0
176
     1
290
     0
176
     1
290
     0
176
     1
290
     0
176
     1
290
     0
176
     1
 90
       50
176
     0
 40
0.0
176
     0
 40
1.0
176
     0
 90
        0
176
     0
 62
    18
420
        0
176
     0
 90
       50
176
     0
 90
        3
176
     0
 62
     5
420
      255
176
     0
290
     0
176
     1
 90
       50
176
     0
 90
       50
176
     0
 90
       50
176
     0
290
     0
176
     1
 90
       50
176
     0
 62
   256
176
     0
 40
1.0
176
     0
 90
        2
176
     0
  1
strokes_ogs.tif
176
     0
290
     0
176
     1
 40
1.0
176
     0
 40
1.0
176
     0
  0
VISUALSTYLE
  5
912
102
{ACAD_REACTORS
330
908
102
}
330
908
100
AcDbVisualStyle
  2
Realistic
 70
     8
177
     3
291
     0
 70
    58
 90
        2
176
     1
 90
        3
176
     1
 90
        0
176
     1
 90
        2
176
     1
 40
0.6
176
     1
 40
30.0
176
     1
 62
     7
420
 16777215
176
     1
 90
        0
176
     1
 90
        0
176
     1
 62
     7
176
     1
 62
   257
176
     1
 90
        1
176
     1
 90
        1
176
     1
 40
1.0
176
     1
 90
        8
176
     1
 62
   257
176
     1
 40
1.0
176
     1
 90
        1
176
     1
 90
        6
176
     1
 90
        2
176
     1
 62
     7
176
     1
 90
        3
176
     1
 90
        0
176
     1
 90
        0
176
     1
290
     0
176
     1
 90
       13
176
     1
 40
0.0
176
     1
 90
        0
176
     1
290
     0
176
     1
290
     1
176
     1
290
     1
176
     1
290
     0
176
     1
290
     0
176
     1
290
     0
176
     1
290
     0
176
     1
290
     0
176
     1
290
     0
176
     1
 90
       50
176
     1
 40
0.0
176
     1
 40
1.0
176
     1
 90
        0
176
     1
 62
    18
420
        0
176
     1
 90
       50
176
     1
 90
        3
176
     1
 62
     5
420
      255
176
     1
290
     0
176
     1
 90
       50
176
     1
 90
       50
176
     1
 90
       50
176
     1
290
     0
176
     1
 90
       50
176
     1
 62
   256
176
     0
 40
1.0
176
     0
 90
        2
176
     1
  1
strokes_ogs.tif
176
     1
290
     0
176
     1
 40
1.0
176
     1
 40
1.0
176
     1
  0
VISUALSTYLE
  5
91D
102
{ACAD_REACTORS
330
908
102
}
330
908
100
AcDbVisualStyle
  2
Shaded
 70
    27
177
     3
291
     0
 70
    58
 90
        2
176
     1
 90
        2
176
     1
 90
        1
176
     1
 90
        2
176
     1
 40
0.6
176
     1
 40
30.0
176
     1
 62
     7
420
 16777215
176
     1
 90
        0
176
     1
 90
        4
176
     1
 62
     7
176
     1
 62
   257
176
     1
 90
        1
176
     1
 90
        1
176
     1
 40
1.0
176
     1
 90
        8
176
     1
 62
   257
176
     1
 40
1.0
176
     1
 90
        1
176
     1
 90
        6
176
     1
 90
        2
176
     1
 62
     8
420
  7895160
176
     1
 90
        3
176
     1
 90
        0
176
     1
 90
        0
176
     1
290
     0
176
     1
 90
        5
176
     1
 40
0.0
176
     1
 90
        0
176
     1
290
     0
176
     1
290
     1
176
     1
290
     1
176
     1
290
     0
176
     1
290
     0
176
     1
290
     0
176
     1
290
     0
176
     1
290
     0
176
     1
290
     0
176
     1
 90
       50
176
     1
 40
0.0
176
     1
 40
1.0
176
     1
 90
        0
176
     1
 62
    18
420
        0
176
     1
 90
       50
176
     1
 90
        3
176
     1
 62
     5
420
      255
176
     1
290
     0
176
     1
 90
       50
176
     1
 90
       50
176
     1
 90
       50
176
     1
290
     0
176
     1
 90
       50
176
     1
 62
   256
176
     0
 40
1.0
176
     0
 90
        2
176
     1
  1
strokes_ogs.tif
176
     1
290
     0
176
     1
 40
1.0
176
     1
 40
1.0
176
     1
  0
VISUALSTYLE
  5
91C
102
{ACAD_REACTORS
330
908
102
}
330
908
100
AcDbVisualStyle
  2
Shaded with edges
 70
    26
177
     3
291
     0
 70
    58
 90
        2
176
     1
 90
        2
176
     1
 90
        1
176
     1
 90
        2
176
     1
 40
0.6
176
     1
 40
30.0
176
     1
 62
     7
420
 16777215
176
     1
 90
        1
176
     1
 90
        2
176
     1
 62
     7
176
     1
 62
   257
176
     1
 90
        2
176
     1
 90
        1
176
     1
 40
1.0
176
     1
 90
        8
176
     1
 62
   257
176
     1
 40
1.0
176
     1
 90
        1
176
     1
 90
        6
176
     1
 90
        2
176
     1
 62
     7
176
     1
 90
        3
176
     1
 90
        0
176
     1
 90
        0
176
     1
290
     0
176
     1
 90
        5
176
     1
 40
0.0
176
     1
 90
        0
176
     1
290
     0
176
     1
290
     1
176
     1
290
     1
176
     1
290
     0
176
     1
290
     0
176
     1
290
     0
176
     1
290
     0
176
     1
290
     0
176
     1
290
     0
176
     1
 90
       50
176
     1
 40
0.0
176
     1
 40
1.0
176
     1
 90
        0
176
     1
 62
    18
420
        0
176
     1
 90
       50
176
     1
 90
        3
176
     1
 62
     5
420
      255
176
     1
290
     0
176
     1
 90
       50
176
     1
 90
       50
176
     1
 90
       50
176
     1
290
     0
176
     1
 90
       50
176
     1
 62
   256
176
     0
 40
1.0
176
     0
 90
        2
176
     1
  1
strokes_ogs.tif
176
     1
290
     0
176
     1
 40
1.0
176
     1
 40
1.0
176
     1
  0
VISUALSTYLE
  5
919
102
{ACAD_REACTORS
330
908
102
}
330
908
100
AcDbVisualStyle
  2
Shades of Gray
 70
    23
177
     3
291
     0
 70
    58
 90
        2
176
     1
 90
        2
176
     1
 90
        3
176
     1
 90
        0
176
     1
 40
0.6
176
     1
 40
30.0
176
     1
 62
     7
420
 16777215
176
     1
 90
        2
176
     1
 90
        2
176
     1
 62
     7
176
     1
 62
     7
176
     1
 90
        1
176
     1
 90
        1
176
     1
 40
40.0
176
     1
 90
        8
176
     1
 62
     7
176
     1
 40
1.0
176
     1
 90
        1
176
     1
 90
        6
176
     1
 90
        2
176
     1
 62
     7
176
     1
 90
        3
176
     1
 90
        0
176
     1
 90
        0
176
     1
290
     0
176
     1
 90
        1
176
     1
 40
0.0
176
     1
 90
        0
176
     1
290
     0
176
     1
290
     1
176
     1
290
     1
176
     1
290
     0
176
     1
290
     0
176
     1
290
     0
176
     1
290
     0
176
     1
290
     0
176
     1
290
     0
176
     1
 90
       50
176
     1
 40
0.0
176
     1
 40
1.0
176
     1
 90
        0
176
     1
 62
    18
420
        0
176
     1
 90
       50
176
     1
 90
        3
176
     1
 62
     5
420
      255
176
     1
290
     0
176
     1
 90
       50
176
     1
 90
       50
176
     1
 90
       50
176
     1
290
     0
176
     1
 90
       50
176
     1
 62
   256
176
     0
 40
1.0
176
     0
 90
        2
176
     1
  1
strokes_ogs.tif
176
     1
290
     0
176
     1
 40
1.0
176
     1
 40
1.0
176
     1
  0
VISUALSTYLE
  5
91A
102
{ACAD_REACTORS
330
908
102
}
330
908
100
AcDbVisualStyle
  2
Sketchy
 70
    24
177
     3
291
     0
 70
    58
 90
        1
176
     1
 90
        2
176
     1
 90
        2
176
     1
 90
        0
176
     1
 40
0.6
176
     1
 40
30.0
176
     1
 62
     7
420
 16777215
176
     1
 90
        2
176
     1
 90
        2
176
     1
 62
     7
176
     1
 62
     7
176
     1
 90
        1
176
     1
 90
        1
176
     1
 40
40.0
176
     1
 90
       11
176
     1
 62
     7
176
     1
 40
1.0
176
     1
 90
        1
176
     1
 90
        6
176
     1
 90
        2
176
     1
 62
     7
176
     1
 90
        6
176
     1
 90
        0
176
     1
 90
        0
176
     1
290
     0
176
     1
 90
        1
176
     1
 40
0.0
176
     1
 90
        0
176
     1
290
     0
176
     1
290
     1
176
     1
290
     1
176
     1
290
     0
176
     1
290
     0
176
     1
290
     0
176
     1
290
     0
176
     1
290
     0
176
     1
290
     0
176
     1
 90
       50
176
     1
 40
0.0
176
     1
 40
1.0
176
     1
 90
        0
176
     1
 62
    18
420
        0
176
     1
 90
       50
176
     1
 90
        3
176
     1
 62
     5
420
      255
176
     1
290
     0
176
     1
 90
       50
176
     1
 90
       50
176
     1
 90
       50
176
     1
290
     0
176
     1
 90
       50
176
     1
 62
   256
176
     0
 40
1.0
176
     0
 90
        2
176
     1
  1
strokes_ogs.tif
176
     1
290
     0
176
     1
 40
1.0
176
     1
 40
1.0
176
     1
  0
VISUALSTYLE
  5
915
102
{ACAD_REACTORS
330
908
102
}
330
908
100
AcDbVisualStyle
  2
Thicken
 70
    13
177
     3
291
     1
 70
    58
 90
        2
176
     1
 90
        2
176
     1
 90
        0
176
     1
 90
        0
176
     1
 40
0.6
176
     1
 40
30.0
176
     1
 62
     7
420
 16777215
176
     1
 90
        1
176
     1
 90
        4
176
     1
 62
     7
176
     1
 62
   257
176
     1
 90
        1
176
     1
 90
        1
176
     1
 40
1.0
176
     1
 90
       12
176
     1
 62
     7
176
     1
 40
1.0
176
     1
 90
        1
176
     1
 90
        6
176
     1
 90
        2
176
     1
 62
     7
176
     1
 90
        5
176
     1
 90
        0
176
     1
 90
        0
176
     1
290
     0
176
     1
 90
        1
176
     1
 40
0.0
176
     1
 90
        0
176
     1
290
     0
176
     1
290
     1
176
     1
290
     1
176
     1
290
     0
176
     1
290
     0
176
     1
290
     0
176
     1
290
     0
176
     1
290
     0
176
     1
290
     0
176
     1
 90
       50
176
     1
 40
0.0
176
     1
 40
1.0
176
     1
 90
        0
176
     1
 62
    18
420
        0
176
     1
 90
       50
176
     1
 90
        3
176
     1
 62
     5
420
      255
176
     1
290
     0
176
     1
 90
       50
176
     1
 90
       50
176
     1
 90
       50
176
     1
290
     0
176
     1
 90
       50
176
     1
 62
   256
176
     0
 40
1.0
176
     0
 90
        2
176
     1
  1
strokes_ogs.tif
176
     1
290
     0
176
     1
 40
1.0
176
     1
 40
1.0
176
     1
  0
VISUALSTYLE
  5
90F
102
{ACAD_REACTORS
330
908
102
}
330
908
100
AcDbVisualStyle
  2
Wireframe
 70
     5
177
     3
291
     0
 70
    58
 90
        0
176
     1
 90
        2
176
     1
 90
        0
176
     1
 90
        0
176
     1
 40
0.6
176
     1
 40
30.0
176
     1
 62
     7
420
 16777215
176
     1
 90
        1
176
     1
 90
        4
176
     1
 62
     7
176
     1
 62
   257
176
     1
 90
        1
176
     1
 90
        1
176
     1
 40
1.0
176
     1
 90
        0
176
     1
 62
   257
176
     1
 40
1.0
176
     1
 90
        1
176
     1
 90
        6
176
     1
 90
        2
176
     1
 62
     7
176
     1
 90
        3
176
     1
 90
        0
176
     1
 90
        0
176
     1
290
     0
176
     1
 90
        1
176
     1
 40
0.0
176
     1
 90
        0
176
     1
290
     0
176
     1
290
     1
176
     1
290
     1
176
     1
290
     0
176
     1
290
     0
176
     1
290
     0
176
     1
290
     0
176
     1
290
     0
176
     1
290
     0
176
     1
 90
       50
176
     1
 40
0.0
176
     1
 40
1.0
176
     1
 90
        0
176
     1
 62
    18
420
        0
176
     1
 90
       50
176
     1
 90
        3
176
     1
 62
     5
420
      255
176
     1
290
     0
176
     1
 90
       50
176
     1
 90
       50
176
     1
 90
       50
176
     1
290
     0
176
     1
 90
       50
176
     1
 62
   256
176
     0
 40
1.0
176
     0
 90
        2
176
     1
  1
strokes_ogs.tif
176
     1
290
     0
176
     1
 40
1.0
176
     1
 40
1.0
176
     1
  0
VISUALSTYLE
  5
91B
102
{ACAD_REACTORS
330
908
102
}
330
908
100
AcDbVisualStyle
  2
X-Ray
 70
    25
177
     3
291
     0
 70
    58
 90
        2
176
     1
 90
        2
176
     1
 90
        1
176
     1
 90
        1
176
     1
 40
0.5
176
     1
 40
30.0
176
     1
 62
     7
420
 16777215
176
     1
 90
        1
176
     1
 90
        0
176
     1
 62
     7
176
     1
 62
   257
176
     1
 90
        1
176
     1
 90
        1
176
     1
 40
1.0
176
     1
 90
        8
176
     1
 62
     7
176
     1
 40
1.0
176
     1
 90
        1
176
     1
 90
        6
176
     1
 90
        2
176
     1
 62
     7
176
     1
 90
        3
176
     1
 90
        0
176
     1
 90
        0
176
     1
290
     0
176
     1
 90
       13
176
     1
 40
0.0
176
     1
 90
        0
176
     1
290
     0
176
     1
290
     1
176
     1
290
     1
176
     1
290
     0
176
     1
290
     0
176
     1
290
     0
176
     1
290
     0
176
     1
290
     0
176
     1
290
     0
176
     1
 90
       50
176
     1
 40
0.0
176
     1
 40
1.0
176
     1
 90
        0
176
     1
 62
    18
420
        0
176
     1
 90
       50
176
     1
 90
        3
176
     1
 62
     5
420
      255
176
     1
290
     0
176
     1
 90
       50
176
     1
 90
       50
176
     1
 90
       50
176
     1
290
     0
176
     1
 90
       50
176
     1
 62
   256
176
     0
 40
1.0
176
     0
 90
        2
176
     1
  1
strokes_ogs.tif
176
     1
290
     0
176
     1
 40
1.0
176
     1
 40
1.0
176
     1
  0
DICTIONARYVAR
  5
949
102
{ACAD_REACTORS
330
944
102
}
330
944
100
DictionaryVariables
280
     0
  1
1:1
  0
DICTIONARYVAR
  5
946
102
{ACAD_REACTORS
330
944
102
}
330
944
100
DictionaryVariables
280
     0
  1
STANDARD
  0
DICTIONARYVAR
  5
945
102
{ACAD_REACTORS
330
944
102
}
330
944
100
DictionaryVariables
280
     0
  1
STANDARD
  0
DICTIONARYVAR
  5
947
102
{ACAD_REACTORS
330
944
102
}
330
944
100
DictionaryVariables
280
     0
  1
Imperial24
  0
DICTIONARYVAR
  5
948
102
{ACAD_REACTORS
330
944
102
}
330
944
100
DictionaryVariables
280
     0
  1
Imperial24
  0
DICTIONARY
  5
8F9
330
8F8
100
AcDbDictionary
280
     1
281
     1
  3
BUMPTILE
360
8FB
  3
DIFFUSETILE
360
8FA
  3
OPACITYTILE
360
8FE
  3
REFLECTIONTILE
360
8FD
  3
REFRACTIONTILE
360
8FF
  3
SPECULARTILE
360
8FC
  0
DICTIONARY
  5
8F1
330
8F0
100
AcDbDictionary
280
     1
281
     1
  3
BUMPTILE
360
8F3
  3
DIFFUSETILE
360
8F2
  3
OPACITYTILE
360
8F6
  3
REFLECTIONTILE
360
8F5
  3
REFRACTIONTILE
360
8F7
  3
SPECULARTILE
360
8F4
  0
DICTIONARY
  5
901
330
900
100
AcDbDictionary
280
     1
281
     1
  3
BUMPTILE
360
903
  3
DIFFUSETILE
360
902
  3
OPACITYTILE
360
906
  3
REFLECTIONTILE
360
905
  3
REFRACTIONTILE
360
907
  3
SPECULARTILE
360
904
  0
DICTIONARY
  5
9AD
330
923
100
AcDbDictionary
280
     1
281
     1
  3
ACAD_ROUNDTRIP_2008_TABLESTYLE_CELLSTYLEMAP
360
9AE
  0
XRECORD
  5
8FB
102
{ACAD_REACTORS
330
8F9
102
}
330
8F9
100
AcDbXrecord
280
     1
270
     1
271
     1
  0
XRECORD
  5
8FA
102
{ACAD_REACTORS
330
8F9
102
}
330
8F9
100
AcDbXrecord
280
     1
270
     1
271
     1
  0
XRECORD
  5
8FE
102
{ACAD_REACTORS
330
8F9
102
}
330
8F9
100
AcDbXrecord
280
     1
270
     1
271
     1
  0
XRECORD
  5
8FD
102
{ACAD_REACTORS
330
8F9
102
}
330
8F9
100
AcDbXrecord
280
     1
270
     1
271
     1
  0
XRECORD
  5
8FF
102
{ACAD_REACTORS
330
8F9
102
}
330
8F9
100
AcDbXrecord
280
     1
270
     1
271
     1
  0
XRECORD
  5
8FC
102
{ACAD_REACTORS
330
8F9
102
}
330
8F9
100
AcDbXrecord
280
     1
270
     1
271
     1
  0
XRECORD
  5
8F3
102
{ACAD_REACTORS
330
8F1
102
}
330
8F1
100
AcDbXrecord
280
     1
270
     1
271
     1
  0
XRECORD
  5
8F2
102
{ACAD_REACTORS
330
8F1
102
}
330
8F1
100
AcDbXrecord
280
     1
270
     1
271
     1
  0
XRECORD
  5
8F6
102
{ACAD_REACTORS
330
8F1
102
}
330
8F1
100
AcDbXrecord
280
     1
270
     1
271
     1
  0
XRECORD
  5
8F5
102
{ACAD_REACTORS
330
8F1
102
}
330
8F1
100
AcDbXrecord
280
     1
270
     1
271
     1
  0
XRECORD
  5
8F7
102
{ACAD_REACTORS
330
8F1
102
}
330
8F1
100
AcDbXrecord
280
     1
270
     1
271
     1
  0
XRECORD
  5
8F4
102
{ACAD_REACTORS
330
8F1
102
}
330
8F1
100
AcDbXrecord
280
     1
270
     1
271
     1
  0
XRECORD
  5
903
102
{ACAD_REACTORS
330
901
102
}
330
901
100
AcDbXrecord
280
     1
270
     1
271
     1
  0
XRECORD
  5
902
102
{ACAD_REACTORS
330
901
102
}
330
901
100
AcDbXrecord
280
     1
270
     1
271
     1
  0
XRECORD
  5
906
102
{ACAD_REACTORS
330
901
102
}
330
901
100
AcDbXrecord
280
     1
270
     1
271
     1
  0
XRECORD
  5
905
102
{ACAD_REACTORS
330
901
102
}
330
901
100
AcDbXrecord
280
     1
270
     1
271
     1
  0
XRECORD
  5
907
102
{ACAD_REACTORS
330
901
102
}
330
901
100
AcDbXrecord
280
     1
270
     1
271
     1
  0
XRECORD
  5
904
102
{ACAD_REACTORS
330
901
102
}
330
901
100
AcDbXrecord
280
     1
270
     1
271
     1
  0
CELLSTYLEMAP
  5
9AE
102
{ACAD_REACTORS
330
9AD
102
}
330
9AD
100
AcDbCellStyleMap
 90
        3
300
CELLSTYLE
  1
TABLEFORMAT_BEGIN
 90
        5
170
     1
 91
        0
 92
    32768
 62
   257
 93
        1
300
CONTENTFORMAT
  1
CONTENTFORMAT_BEGIN
 90
        0
 91
        0
 92
      512
 93
        0
300

 40
0.0
140
1.0
 94
        5
 62
     0
340
18
144
0.25
309
CONTENTFORMAT_END
171
     0
 94
        0
309
TABLEFORMAT_END
  1
CELLSTYLE_BEGIN
 90
        1
 91
        1
300
_TITLE
309
CELLSTYLE_END
300
CELLSTYLE
  1
TABLEFORMAT_BEGIN
 90
        5
170
     1
 91
        0
 92
        0
 62
   257
 93
        1
300
CONTENTFORMAT
  1
CONTENTFORMAT_BEGIN
 90
        0
 91
        0
 92
      512
 93
        0
300

 40
0.0
140
1.0
 94
        5
 62
     0
340
18
144
0.18
309
CONTENTFORMAT_END
171
     0
 94
        0
309
TABLEFORMAT_END
  1
CELLSTYLE_BEGIN
 90
        2
 91
        1
300
_HEADER
309
CELLSTYLE_END
300
CELLSTYLE
  1
TABLEFORMAT_BEGIN
 90
        5
170
     1
 91
        0
 92
        0
 62
   257
 93
        1
300
CONTENTFORMAT
  1
CONTENTFORMAT_BEGIN
 90
        0
 91
        0
 92
      512
 93
        0
300

 40
0.0
140
1.0
 94
        2
 62
     0
340
18
144
0.18
309
CONTENTFORMAT_END
171
     0
 94
        0
309
TABLEFORMAT_END
  1
CELLSTYLE_BEGIN
 90
        3
 91
        2
300
_DATA
309
CELLSTYLE_END
  0
ENDSEC
  0
SECTION
  2
ACDSDATA
 70
     2
 71
     8
  0
ACDSSCHEMA
 90
        0
  1
AcDb_Thumbnail_Schema
  2
AcDbDs::ID
280
    10
 91
        8
  2
Thumbnail_Data
280
    15
 91
        0
101
ACDSRECORD
 95
        0
 90
        1
  2
AcDbDs::TreatedAsObjectData
280
     1
291
     1
101
ACDSRECORD
 95
        0
 90
        2
  2
AcDbDs::Legacy
280
     1
291
     1
101
ACDSRECORD
  1
AcDbDs::ID
 90
        3
  2
AcDs:Indexable
280
     1
291
     1
101
ACDSRECORD
  1
AcDbDs::ID
 90
        4
  2
AcDbDs::HandleAttribute
280
     7
282
     1
  0
ACDSSCHEMA
 90
        1
  1
AcDbDs::TreatedAsObjectDataSchema
  2
AcDbDs::TreatedAsObjectData
280
     1
 91
        0
  0
ACDSSCHEMA
 90
        2
  1
AcDbDs::LegacySchema
  2
AcDbDs::Legacy
280
     1
 91
        0
  0
ACDSSCHEMA
 90
        3
  1
AcDbDs::IndexedPropertySchema
  2
AcDs:Indexable
280
     1
 91
        0
  0
ACDSSCHEMA
 90
        4
  1
AcDbDs::HandleAttributeSchema
  2
AcDbDs::HandleAttribute
280
     7
 91
        1
284
     1
  0
ACDSRECORD
 90
        0
  2
AcDbDs::ID
280
    10
320
20
  2
Thumbnail_Data
280
    15
 94
     2420
310
89504E470D0A1A0A0000000D4948445200000100000000A30803000000525330A000000300504C5445212830FFFFFF2128300000000000000000000000000000000000000000000000000000330000660000990000CC0000FF0033000033330033660033990033CC0033FF0066000066330066660066990066CC0066FF0099
310
000099330099660099990099CC0099FF00CC0000CC3300CC6600CC9900CCCC00CCFF00FF0000FF3300FF6600FF9900FFCC00FFFF3300003300333300663300993300CC3300FF3333003333333333663333993333CC3333FF3366003366333366663366993366CC3366FF3399003399333399663399993399CC3399FF33CC00
310
33CC3333CC6633CC9933CCCC33CCFF33FF0033FF3333FF6633FF9933FFCC33FFFF6600006600336600666600996600CC6600FF6633006633336633666633996633CC6633FF6666006666336666666666996666CC6666FF6699006699336699666699996699CC6699FF66CC0066CC3366CC6666CC9966CCCC66CCFF66FF0066
310
FF3366FF6666FF9966FFCC66FFFF9900009900339900669900999900CC9900FF9933009933339933669933999933CC9933FF9966009966339966669966999966CC9966FF9999009999339999669999999999CC9999FF99CC0099CC3399CC6699CC9999CCCC99CCFF99FF0099FF3399FF6699FF9999FFCC99FFFFCC0000CC00
310
33CC0066CC0099CC00CCCC00FFCC3300CC3333CC3366CC3399CC33CCCC33FFCC6600CC6633CC6666CC6699CC66CCCC66FFCC9900CC9933CC9966CC9999CC99CCCC99FFCCCC00CCCC33CCCC66CCCC99CCCCCCCCCCFFCCFF00CCFF33CCFF66CCFF99CCFFCCCCFFFFFF0000FF0033FF0066FF0099FF00CCFF00FFFF3300FF3333
310
FF3366FF3399FF33CCFF33FFFF6600FF6633FF6666FF6699FF66CCFF66FFFF9900FF9933FF9966FF9999FF99CCFF99FFFFCC00FFCC33FFCC66FFCC99FFCCCCFFCCFFFFFF00FFFF33FFFF66FFFF99FFFFCCFFFFFF0000000D0D0D1A1A1A2828283535354343435050505D5D5D6B6B6B787878868686939393A1A1A1AEAEAEBB
310
BBBBC9C9C9D6D6D6E4E4E4F1F1F1FFFFFF0000000000000000000000000000000000000000000000000000000000002E4550F1000001284944415478DAEDD94B8AC330100450DFFF6875AAD98C3D03218218052CD57B9B6CD3E5D6FF38000000E0A6A43E806102E94E20296890419115F50FFABCA6FEB7936371FDDD1FBFBE
310
FE54AC7E2F4BE1F5CDCFAF9FAE8ECFD5F6D74FBAEAFFADF8AFFFBB127899FDD23A11FE8F22A5B5D71C833E3B17EE7F5ABC13405C271CA0FB6B4F8C0ECCDB3447EE7CFEE15DE2F6DD9C41132CB789BEFB7FF79904323D51EB437303344C817B2570DE8419B6D5FBE4CCCE336BAD0AF972004F8F20D303586C6FF8F5BFF7F000
310
263E062E79999E696F00E713D372011C330358AF07527E7CC9BC0E58F634DCFEBE11CF1B009D0B6079FDF5CBBFF5DFBEAFB3F1230043003001D8FC690030F6ED7F4D7E00A6413B8182048C0200000000000000000000000000000000000078841F1F56E1ADFFF7731A0000000049454E44AE426082FC2C037C42FB4BDDC3A6
310
C320270AFC22017CD24F3609809756BFC60137E38FC684E9094986ABD6E501017E2F21240DD0FA73E115D3F307CAC0B603FC6495E42C806A4E5C644C16E5B4170069A076A64C9E0BBB3705407D3162BB8D46A78976E2DF3475EA9AF7B38029AE0F5300E96FD8FABD1507908B7DA6006CF60C36464CC2697350D08C1A3FCA00
310
4A4F64937C692CA203029239D90601B06949B9BEB5E85EF3F9AF20A0A885CB40906532AE6EBA1CA0521093D3C52A96D4AF662665889039E2CDFAF3E9FE979D0F204FC390E62494A7C5F3A31304698C309BAF6EAF394264A38C15B2EBFC8180DEA5540D810B02170CC96E682264990CC9FBF465701E99E82445262BF560ED0F
310
04F4ADA5BA4ACE0134EC25089631083448CAF4961C427791D2299A335D6459EEB84E003A47C8ECBD4513CC792CCA79A7C44DCCD3C1ECD04BEF5064504AC78B7D256B892E13808E6512ABFC5AF1D7C84F259D9BE46EF5CEC74E55DF735AF80F023AB9C0226BF31EA8F9BFDA50F42BEA17FE7234E61D03297B224D5835687C4F
310
0CBE1C025B5B94AF700094298FDD96B80F89F472CA078B092278D501B4534CDC4027CC396BB89E788D8063E3B8471858476B2E9B7DBACE09BA6942DA0E1149E1CFFB285A129D20CAF2C25A62BE9C014F72F447FBA5E6174D2A5A4924C52FEF8D65BDC7559F54956D90B655DA1DF195F5EF3A51D0B547238856D2A2D5355873
310
07D2C448DA28547A42CEF3FB077C2DFFF5D3D330976D4622BCA2589D54B6980717116AC2D10710E0E603CC17D69FBA12804D02C0BE15D0645FAB052E9D23BF94B9682CDC6885F9688DFAC580E89EDA7EAF0FE12480A54AB32B978EEA4ABD0BEC5BCBDB1A9DA85F0F900B6C91668A9658321EEBA830E7792FE7796B9AEA1AEB
310
1D73DBF71542ABF3C0C8F2FA2A011045C3A52BF27A54F246723F20A09D29D41B923D9550B3B5A9F16B054F74AD4B00EB6989B786CC9573AC13304D30C1ACBEAF9D595F02D078C0ECF4396FEBA00BFEDEA1B3043849C81BA7E9A471829BCE597BCAD4A909A6F2BFAB8775D5C60ECA6E7FD57EA67D916339738D00D57C286E54
310
722D682F2D046A6240C53E8A5B2518FB0E70DCABAEFA80CE9A298BEE527AF56C0665F5AB4E40EF0B44710FA4CD3B98B73B935D5F5DD396F90DD3949BEDAA9EF6EE84919A36D8F846465BDEED84275B3D1C9AB97384B59052ABC253B4C99E4A1B9FAFCE7F3A0414E6ADBF6BB6082BD980DDD2BA31F7362991A7AE754D36EDFF
310
865D55588B95F34C4DC289BA79C915D28C6D6763FDAD3BA9C59E27C3CF7876FBF3B3D7C8BC9727BE60CB34DD179DAEE7612E79EA3302FF430135B71F7F8E02D2D9C7831F7BC5EA3F28D826E13B088006FEE3F50E5064C54B63B03732A0B5A68F03340DD697D96F443CAAE5EA74798E82EF22E06A57FB827FF9BB097803B9E3
310
1240077DC620148C6DFFE8EB1F087C4F03343C0118DD7E8CBEFE837F45C8B7CC253E360CE0B407363403437F490C40C37F4F50B442814020101A6834F3C79EC8E997438DDBFF52FED4D7B0EB3FB00644F1A9D011D1F3A6BB1F6160F8416808C04060B8C43FB8FDC3DF8B30B813BCFEB6BFB0FF0713E0E877648D5E06E286AC
310
4020100804028140201008040281402010080402814020100804EE857F30685FAF35FE3FDA0000000049454E44AE426082C6CE362F017944C08D6C3B60BBDDC87608DCC805B0AD00C81B2F0337E3654014B81917C078168402D60570381C0E87C3E170381C0E87C3E170381C0E87633EFC0F791B2DE715C1FAE90000000049
310
454E44AE426082
  0
ENDSEC
  0
EOF
