  0
SECTION
  2
HEADER
  9
$ACADVER
  1
AC1032
  9
$ACADMAINTVER
 90
      155
  9
$DWGCODEPAGE
  3
ANSI_1251
  9
$LASTSAVEDBY
  1
ALEXANDER
  9
$REQUIREDVERSIONS
160
                 0
  9
$INSBASE
 10
0.0
 20
0.0
 30
0.0
  9
$EXTMIN
 10
1391339.698945382
 20
354857.4607999773
 30
-0.0015258207003583
  9
$EXTMAX
 10
1399991.111756123
 20
361055.1944155641
 30
0.0000000349246037
  9
$LIMMIN
 10
0.0
 20
0.0
  9
$LIMMAX
 10
12.0
 20
9.0
  9
$ORTHOMODE
 70
     0
  9
$REGENMODE
 70
     1
  9
$FILLMODE
 70
     1
  9
$QTEXTMODE
 70
     0
  9
$MIRRTEXT
 70
     0
  9
$LTSCALE
 40
1.0
  9
$ATTMODE
 70
     1
  9
$TEXTSIZE
 40
0.0
  9
$TRACEWID
 40
0.05
  9
$TEXTSTYLE
  7
Standard
  9
$CLAYER
  8
Ранее утвержденные зоны охраняемоего природного ландшафта
  9
$CELTYPE
  6
ByLayer
  9
$CECOLOR
 62
   256
  9
$CELTSCALE
 40
1.0
  9
$DISPSILH
 70
     0
  9
$DIMSCALE
 40
1.0
  9
$DIMASZ
 40
0.18
  9
$DIMEXO
 40
0.0625
  9
$DIMDLI
 40
0.38
  9
$DIMRND
 40
0.0
  9
$DIMDLE
 40
0.0
  9
$DIMEXE
 40
0.18
  9
$DIMTP
 40
0.0
  9
$DIMTM
 40
0.0
  9
$DIMTXT
 40
0.18
  9
$DIMCEN
 40
0.09
  9
$DIMTSZ
 40
0.0
  9
$DIMTOL
 70
     0
  9
$DIMLIM
 70
     0
  9
$DIMTIH
 70
     0
  9
$DIMTOH
 70
     0
  9
$DIMSE1
 70
     0
  9
$DIMSE2
 70
     0
  9
$DIMTAD
 70
     0
  9
$DIMZIN
 70
     0
  9
$DIMBLK
  1

  9
$DIMASO
 70
     1
  9
$DIMSHO
 70
     1
  9
$DIMPOST
  1

  9
$DIMAPOST
  1

  9
$DIMALT
 70
     0
  9
$DIMALTD
 70
     2
  9
$DIMALTF
 40
25.4
  9
$DIMLFAC
 40
1.0
  9
$DIMTOFL
 70
     0
  9
$DIMTVP
 40
0.0
  9
$DIMTIX
 70
     0
  9
$DIMSOXD
 70
     0
  9
$DIMSAH
 70
     0
  9
$DIMBLK1
  1

  9
$DIMBLK2
  1

  9
$DIMSTYLE
  2
Standard
  9
$DIMCLRD
 70
     0
  9
$DIMCLRE
 70
     0
  9
$DIMCLRT
 70
     0
  9
$DIMTFAC
 40
1.0
  9
$DIMGAP
 40
0.09
  9
$DIMJUST
 70
     0
  9
$DIMSD1
 70
     0
  9
$DIMSD2
 70
     0
  9
$DIMTOLJ
 70
     1
  9
$DIMTZIN
 70
     0
  9
$DIMALTZ
 70
     0
  9
$DIMALTTZ
 70
     0
  9
$DIMUPT
 70
     0
  9
$DIMDEC
 70
     4
  9
$DIMTDEC
 70
     4
  9
$DIMALTU
 70
     2
  9
$DIMALTTD
 70
     2
  9
$DIMTXSTY
  7
Standard
  9
$DIMAUNIT
 70
     0
  9
$DIMADEC
 70
     0
  9
$DIMALTRND
 40
0.0
  9
$DIMAZIN
 70
     0
  9
$DIMDSEP
 70
    46
  9
$DIMATFIT
 70
     3
  9
$DIMFRAC
 70
     0
  9
$DIMLDRBLK
  1

  9
$DIMLUNIT
 70
     2
  9
$DIMLWD
 70
    -2
  9
$DIMLWE
 70
    -2
  9
$DIMTMOVE
 70
     0
  9
$DIMFXL
 40
1.0
  9
$DIMFXLON
 70
     0
  9
$DIMJOGANG
 40
0.7853981633974483
  9
$DIMTFILL
 70
     0
  9
$DIMTFILLCLR
 70
     0
  9
$DIMARCSYM
 70
     0
  9
$DIMLTYPE
  6
ByBlock
  9
$DIMLTEX1
  6
ByBlock
  9
$DIMLTEX2
  6
ByBlock
  9
$DIMTXTDIRECTION
 70
     0
  9
$LUNITS
 70
     2
  9
$LUPREC
 70
     4
  9
$SKETCHINC
 40
0.1
  9
$FILLETRAD
 40
0.0
  9
$AUNITS
 70
     0
  9
$AUPREC
 70
     0
  9
$MENU
  1
.
  9
$ELEVATION
 40
0.0
  9
$PELEVATION
 40
0.0
  9
$THICKNESS
 40
0.0
  9
$LIMCHECK
 70
     0
  9
$CHAMFERA
 40
0.0
  9
$CHAMFERB
 40
0.0
  9
$CHAMFERC
 40
0.0
  9
$CHAMFERD
 40
0.0
  9
$SKPOLY
 70
     0
  9
$TDCREATE
 40
2460902.525590278
  9
$TDUCREATE
 40
2460902.108927419
  9
$TDUPDATE
 40
2460903.005787037
  9
$TDUUPDATE
 40
2460902.589120371
  9
$TDINDWG
 40
0.0930932986
  9
$TDUSRTIMER
 40
0.0930932986
  9
$USRTIMER
 70
     1
  9
$ANGBASE
 50
0.0
  9
$ANGDIR
 70
     0
  9
$PDMODE
 70
    33
  9
$PDSIZE
 40
0.75
  9
$PLINEWID
 40
0.0
  9
$SPLFRAME
 70
     0
  9
$SPLINETYPE
 70
     6
  9
$SPLINESEGS
 70
     8
  9
$HANDSEED
  5
9B3
  9
$SURFTAB1
 70
     6
  9
$SURFTAB2
 70
     6
  9
$SURFTYPE
 70
     6
  9
$SURFU
 70
     6
  9
$SURFV
 70
     6
  9
$UCSBASE
  2

  9
$UCSNAME
  2

  9
$UCSORG
 10
0.0
 20
0.0
 30
0.0
  9
$UCSXDIR
 10
1.0
 20
0.0
 30
0.0
  9
$UCSYDIR
 10
0.0
 20
1.0
 30
0.0
  9
$UCSORTHOREF
  2

  9
$UCSORTHOVIEW
 70
     0
  9
$UCSORGTOP
 10
0.0
 20
0.0
 30
0.0
  9
$UCSORGBOTTOM
 10
0.0
 20
0.0
 30
0.0
  9
$UCSORGLEFT
 10
0.0
 20
0.0
 30
0.0
  9
$UCSORGRIGHT
 10
0.0
 20
0.0
 30
0.0
  9
$UCSORGFRONT
 10
0.0
 20
0.0
 30
0.0
  9
$UCSORGBACK
 10
0.0
 20
0.0
 30
0.0
  9
$PUCSBASE
  2

  9
$PUCSNAME
  2

  9
$PUCSORG
 10
0.0
 20
0.0
 30
0.0
  9
$PUCSXDIR
 10
1.0
 20
0.0
 30
0.0
  9
$PUCSYDIR
 10
0.0
 20
1.0
 30
0.0
  9
$PUCSORTHOREF
  2

  9
$PUCSORTHOVIEW
 70
     0
  9
$PUCSORGTOP
 10
0.0
 20
0.0
 30
0.0
  9
$PUCSORGBOTTOM
 10
0.0
 20
0.0
 30
0.0
  9
$PUCSORGLEFT
 10
0.0
 20
0.0
 30
0.0
  9
$PUCSORGRIGHT
 10
0.0
 20
0.0
 30
0.0
  9
$PUCSORGFRONT
 10
0.0
 20
0.0
 30
0.0
  9
$PUCSORGBACK
 10
0.0
 20
0.0
 30
0.0
  9
$USERI1
 70
     0
  9
$USERI2
 70
     0
  9
$USERI3
 70
     0
  9
$USERI4
 70
     0
  9
$USERI5
 70
     0
  9
$USERR1
 40
0.0
  9
$USERR2
 40
0.0
  9
$USERR3
 40
0.0
  9
$USERR4
 40
0.0
  9
$USERR5
 40
0.0
  9
$WORLDVIEW
 70
     1
  9
$SHADEDGE
 70
     3
  9
$SHADEDIF
 70
    70
  9
$TILEMODE
 70
     1
  9
$MAXACTVP
 70
    64
  9
$PINSBASE
 10
0.0
 20
0.0
 30
0.0
  9
$PLIMCHECK
 70
     0
  9
$PEXTMIN
 10
1.000000000000000E+20
 20
1.000000000000000E+20
 30
1.000000000000000E+20
  9
$PEXTMAX
 10
-1.000000000000000E+20
 20
-1.000000000000000E+20
 30
-1.000000000000000E+20
  9
$PLIMMIN
 10
0.0
 20
0.0
  9
$PLIMMAX
 10
12.0
 20
9.0
  9
$UNITMODE
 70
     0
  9
$VISRETAIN
 70
     1
  9
$PLINEGEN
 70
     0
  9
$PSLTSCALE
 70
     1
  9
$TREEDEPTH
 70
  3020
  9
$CMLSTYLE
  2
Standard
  9
$CMLJUST
 70
     0
  9
$CMLSCALE
 40
20.0
  9
$PROXYGRAPHICS
 70
     1
  9
$MEASUREMENT
 70
     0
  9
$CELWEIGHT
370
    -1
  9
$ENDCAPS
280
     0
  9
$JOINSTYLE
280
     0
  9
$LWDISPLAY
290
     0
  9
$INSUNITS
 70
     0
  9
$HYPERLINKBASE
  1

  9
$STYLESHEET
  1

  9
$XEDIT
290
     1
  9
$CEPSNTYPE
380
     0
  9
$PSTYLEMODE
290
     1
  9
$FINGERPRINTGUID
  2
{3EEA27AE-FC72-4A47-BAAA-489EA8A3C03F}
  9
$VERSIONGUID
  2
{D2FF24AB-D2D0-3C42-8DBE-5E278AC75E63}
  9
$EXTNAMES
290
     1
  9
$PSVPSCALE
 40
0.0
  9
$OLESTARTUP
290
     0
  9
$SORTENTS
280
   127
  9
$INDEXCTL
280
     0
  9
$HIDETEXT
280
     1
  9
$XCLIPFRAME
280
     2
  9
$HALOGAP
280
     0
  9
$OBSCOLOR
 70
   257
  9
$OBSLTYPE
280
     0
  9
$INTERSECTIONDISPLAY
280
     0
  9
$INTERSECTIONCOLOR
 70
   257
  9
$DIMASSOC
280
     2
  9
$PROJECTNAME
  1

  9
$CAMERADISPLAY
290
     0
  9
$LENSLENGTH
 40
50.0
  9
$CAMERAHEIGHT
 40
0.0
  9
$STEPSPERSEC
 40
2.0
  9
$STEPSIZE
 40
6.0
  9
$3DDWFPREC
 40
2.0
  9
$PSOLWIDTH
 40
0.25
  9
$PSOLHEIGHT
 40
4.0
  9
$LOFTANG1
 40
1.570796326794896
  9
$LOFTANG2
 40
1.570796326794896
  9
$LOFTMAG1
 40
0.0
  9
$LOFTMAG2
 40
0.0
  9
$LOFTPARAM
 70
     7
  9
$LOFTNORMALS
280
     1
  9
$LATITUDE
 40
37.795
  9
$LONGITUDE
 40
-122.394
  9
$NORTHDIRECTION
 40
0.0
  9
$TIMEZONE
 70
 -8000
  9
$LIGHTGLYPHDISPLAY
280
     1
  9
$TILEMODELIGHTSYNCH
280
     1
  9
$CMATERIAL
347
8F0
  9
$SOLIDHIST
280
     0
  9
$SHOWHIST
280
     1
  9
$DWFFRAME
280
     2
  9
$DGNFRAME
280
     0
  9
$REALWORLDSCALE
290
     1
  9
$INTERFERECOLOR
 62
     1
  9
$INTERFEREOBJVS
345
912
  9
$INTERFEREVPVS
346
90F
  9
$CSHADOW
280
     0
  9
$SHADOWPLANELOCATION
 40
0.0
  0
ENDSEC
  0
SECTION
  2
CLASSES
  0
CLASS
  1
RASTERVARIABLES
  2
AcDbRasterVariables
  3
ISM
 90
        0
 91
        1
280
     0
281
     0
  0
CLASS
  1
ACDBDICTIONARYWDFLT
  2
AcDbDictionaryWithDefault
  3
ObjectDBX Classes
 90
        0
 91
        1
280
     0
281
     0
  0
CLASS
  1
MATERIAL
  2
AcDbMaterial
  3
ObjectDBX Classes
 90
     1153
 91
        3
280
     0
281
     0
  0
CLASS
  1
VISUALSTYLE
  2
AcDbVisualStyle
  3
ObjectDBX Classes
 90
     4095
 91
       24
280
     0
281
     0
  0
CLASS
  1
TABLESTYLE
  2
AcDbTableStyle
  3
ObjectDBX Classes
 90
     4095
 91
        1
280
     0
281
     0
  0
CLASS
  1
SCALE
  2
AcDbScale
  3
ObjectDBX Classes
 90
     1153
 91
       17
280
     0
281
     0
  0
CLASS
  1
MLEADERSTYLE
  2
AcDbMLeaderStyle
  3
ACDB_MLEADERSTYLE_CLASS
 90
     4095
 91
        1
280
     0
281
     0
  0
CLASS
  1
ACDBSECTIONVIEWSTYLE
  2
AcDbSectionViewStyle
  3
ObjectDBX Classes
 90
     1025
 91
        1
280
     0
281
     0
  0
CLASS
  1
ACDBDETAILVIEWSTYLE
  2
AcDbDetailViewStyle
  3
ObjectDBX Classes
 90
     1025
 91
        1
280
     0
281
     0
  0
CLASS
  1
DICTIONARYVAR
  2
AcDbDictionaryVar
  3
ObjectDBX Classes
 90
        0
 91
        5
280
     0
281
     0
  0
CLASS
  1
SORTENTSTABLE
  2
AcDbSortentsTable
  3
ObjectDBX Classes
 90
        0
 91
        0
280
     0
281
     0
  0
CLASS
  1
CELLSTYLEMAP
  2
AcDbCellStyleMap
  3
ObjectDBX Classes
 90
     1152
 91
        3
280
     0
281
     0
  0
ENDSEC
  0
SECTION
  2
TABLES
  0
TABLE
  2
VPORT
  5
1
330
0
100
AcDbSymbolTable
 70
     1
  0
VPORT
  5
2
330
1
100
AcDbSymbolTableRecord
100
AcDbViewportTableRecord
  2
*Active
 70
     0
 10
0.0
 20
0.0
 11
1.0
 21
1.0
 12
12847.49149938808
 22
18177.93095439311
 13
0.0
 23
0.0
 14
0.5
 24
0.5
 15
10.0
 25
10.0
 16
0.0
 26
0.0
 36
1.0
 17
1385264.28830591
 27
339116.894073843
 37
0.0
 40
10039.52632883959
 41
1.565580618212197
 42
50.0
 43
0.0
 44
0.0
 50
0.0
 51
0.0
 71
     0
 72
   100
 73
     1
 74
     1
 75
     0
 76
     1
 77
     0
 78
     0
281
     0
 65
     1
110
0.0
120
0.0
130
0.0
111
1.0
121
0.0
131
0.0
112
0.0
122
1.0
132
0.0
 79
     0
146
0.0
348
90E
 60
     3
 61
     5
292
     1
282
     1
141
0.0
142
0.0
 63
   250
421
  3355443
1001
ACAD_NAV_VCDISPLAY
1070
     3
  0
ENDTAB
  0
TABLE
  2
LTYPE
  5
7
330
0
100
AcDbSymbolTable
 70
     1
  0
LTYPE
  5
17
330
7
100
AcDbSymbolTableRecord
100
AcDbLinetypeTableRecord
  2
ByBlock
 70
     0
  3

 72
    65
 73
     0
 40
0.0
  0
LTYPE
  5
16
330
7
100
AcDbSymbolTableRecord
100
AcDbLinetypeTableRecord
  2
ByLayer
 70
     0
  3

 72
    65
 73
     0
 40
0.0
  0
LTYPE
  5
15
330
7
100
AcDbSymbolTableRecord
100
AcDbLinetypeTableRecord
  2
Continuous
 70
     0
  3
Solid line
 72
    65
 73
     0
 40
0.0
  0
ENDTAB
  0
TABLE
  2
LAYER
  5
5
102
{ACAD_XDICTIONARY
360
6
102
}
330
0
100
AcDbSymbolTable
 70
    16
  0
LAYER
  5
14
330
5
100
AcDbSymbolTableRecord
100
AcDbLayerTableRecord
  2
0
 70
     0
 62
    -7
  6
Continuous
370
    -3
390
8EE
347
900
348
0
  0
LAYER
  5
22
330
5
100
AcDbSymbolTableRecord
100
AcDbLayerTableRecord
  2
Контура исторический центр для сайта
 70
     0
 62
    -7
  6
Continuous
370
    -3
390
8EE
347
900
348
0
  0
LAYER
  5
956
330
5
100
AcDbSymbolTableRecord
100
AcDbLayerTableRecord
  2
Р-1
 70
     0
 62
    40
  6
Continuous
370
    -3
390
8EE
347
900
348
0
1001
AcAecLayerStandard
1000

1000

1001
AcCmTransparency
1071
        0
  0
LAYER
  5
95F
330
5
100
AcDbSymbolTableRecord
100
AcDbLayerTableRecord
  2
Р-2
 70
     0
 62
   140
  6
Continuous
370
    -3
390
8EE
347
900
348
0
1001
AcAecLayerStandard
1000

1000

1001
AcCmTransparency
1071
        0
  0
LAYER
  5
960
330
5
100
AcDbSymbolTableRecord
100
AcDbLayerTableRecord
  2
РЦИ
 70
     0
 62
    30
  6
Continuous
370
    -3
390
8EE
347
900
348
0
1001
AcAecLayerStandard
1000

1000

1001
AcCmTransparency
1071
        0
  0
LAYER
  5
961
330
5
100
AcDbSymbolTableRecord
100
AcDbLayerTableRecord
  2
Р-4
 70
     0
 62
   190
  6
Continuous
370
    -3
390
8EE
347
900
348
0
1001
AcAecLayerStandard
1000

1000

1001
AcCmTransparency
1071
        0
  0
LAYER
  5
962
330
5
100
AcDbSymbolTableRecord
100
AcDbLayerTableRecord
  2
РОКН
 70
     0
 62
    12
  6
Continuous
370
    -3
390
8EE
347
900
348
0
1001
AcAecLayerStandard
1000

1000

1001
AcCmTransparency
1071
        0
  0
LAYER
  5
963
330
5
100
AcDbSymbolTableRecord
100
AcDbLayerTableRecord
  2
РИП
 70
     0
 62
    42
  6
Continuous
370
    -3
390
8EE
347
900
348
0
1001
AcAecLayerStandard
1000

1000

1001
AcCmTransparency
1071
        0
  0
LAYER
  5
964
330
5
100
AcDbSymbolTableRecord
100
AcDbLayerTableRecord
  2
РПЛ
 70
     0
 62
    70
  6
Continuous
370
    -3
390
8EE
347
900
348
0
1001
AcAecLayerStandard
1000

1000

1001
AcCmTransparency
1071
        0
  0
LAYER
  5
965
330
5
100
AcDbSymbolTableRecord
100
AcDbLayerTableRecord
  2
РГЛ
 70
     0
 62
    74
  6
Continuous
370
    -3
390
8EE
347
900
348
0
1001
AcAecLayerStandard
1000

1000

1001
AcCmTransparency
1071
        0
  0
LAYER
  5
966
330
5
100
AcDbSymbolTableRecord
100
AcDbLayerTableRecord
  2
Р-3
 70
     0
 62
   142
  6
Continuous
370
    -3
390
8EE
347
900
348
0
1001
AcAecLayerStandard
1000

1000

1001
AcCmTransparency
1071
        0
  0
LAYER
  5
967
330
5
100
AcDbSymbolTableRecord
100
AcDbLayerTableRecord
  2
РТ
 70
     0
 62
     8
  6
Continuous
370
    -3
390
8EE
347
900
348
0
1001
AcAecLayerStandard
1000

1000

1001
AcCmTransparency
1071
        0
  0
LAYER
  5
975
330
5
100
AcDbSymbolTableRecord
100
AcDbLayerTableRecord
  2
Ранее утвержденные зоны охраняемоего природного ландшафта
 70
     0
 62
   105
  6
Continuous
370
    -3
390
8EE
347
900
348
0
1001
AcAecLayerStandard
1000

1000

1001
AcCmTransparency
1071
        0
  0
LAYER
  5
992
330
5
100
AcDbSymbolTableRecord
100
AcDbLayerTableRecord
  2
д
 70
     0
 62
    -7
  6
Continuous
370
    -3
390
8EE
347
900
348
0
1001
AcAecLayerStandard
1000

1000

1001
AcCmTransparency
1071
        0
  0
LAYER
  5
993
330
5
100
AcDbSymbolTableRecord
100
AcDbLayerTableRecord
  2
Ранее утвержденные зоны регулирования застройки
 70
     0
 62
    52
  6
Continuous
370
    -3
390
8EE
347
900
348
0
1001
AcAecLayerStandard
1000

1000

1001
AcCmTransparency
1071
        0
  0
LAYER
  5
994
330
5
100
AcDbSymbolTableRecord
100
AcDbLayerTableRecord
  2
Ранее утвержденные охранные зоны
 70
     0
 62
     7
  6
Continuous
370
    -3
390
8EE
347
900
348
0
1001
AcAecLayerStandard
1000

1000

1001
AcCmTransparency
1071
        0
  0
ENDTAB
  0
TABLE
  2
STYLE
  5
8
330
0
100
AcDbSymbolTable
 70
     1
  0
STYLE
  5
18
330
8
100
AcDbSymbolTableRecord
100
AcDbTextStyleTableRecord
  2
Standard
 70
     0
 40
0.0
 41
1.0
 50
0.0
 71
     0
 42
0.0
  3
simplex.shx
  4

  0
ENDTAB
  0
TABLE
  2
VIEW
  5
3
330
0
100
AcDbSymbolTable
 70
     0
  0
ENDTAB
  0
TABLE
  2
UCS
  5
C
330
0
100
AcDbSymbolTable
 70
     0
  0
ENDTAB
  0
TABLE
  2
APPID
  5
4
330
0
100
AcDbSymbolTable
 70
    10
  0
APPID
  5
19
330
4
100
AcDbSymbolTableRecord
100
AcDbRegAppTableRecord
  2
ACAD
 70
     0
  0
APPID
  5
8E3
330
4
100
AcDbSymbolTableRecord
100
AcDbRegAppTableRecord
  2
AcCmTransparency
 70
     0
  0
APPID
  5
8E4
330
4
100
AcDbSymbolTableRecord
100
AcDbRegAppTableRecord
  2
GradientColor1ACI
 70
     0
  0
APPID
  5
8E5
330
4
100
AcDbSymbolTableRecord
100
AcDbRegAppTableRecord
  2
GradientColor2ACI
 70
     0
  0
APPID
  5
93E
330
4
100
AcDbSymbolTableRecord
100
AcDbRegAppTableRecord
  2
ACAD_NAV_VCDISPLAY
 70
     0
  0
APPID
  5
957
330
4
100
AcDbSymbolTableRecord
100
AcDbRegAppTableRecord
  2
AcAecLayerStandard
 70
     0
  0
APPID
  5
958
330
4
100
AcDbSymbolTableRecord
100
AcDbRegAppTableRecord
  2
ACAD_EXEMPT_FROM_CAD_STANDARDS
 70
     0
  0
APPID
  5
977
330
4
100
AcDbSymbolTableRecord
100
AcDbRegAppTableRecord
  2
AcadAnnotative
 70
     0
  0
APPID
  5
978
330
4
100
AcDbSymbolTableRecord
100
AcDbRegAppTableRecord
  2
ACAD_DSTYLE_DIMJAG
 70
     0
  0
APPID
  5
979
330
4
100
AcDbSymbolTableRecord
100
AcDbRegAppTableRecord
  2
ACAD_DSTYLE_DIMTALN
 70
     0
  0
ENDTAB
  0
TABLE
  2
DIMSTYLE
  5
A
330
0
100
AcDbSymbolTable
 70
     2
100
AcDbDimStyleTable
 71
     1
340
1A
  0
DIMSTYLE
105
1A
330
A
100
AcDbSymbolTableRecord
100
AcDbDimStyleTableRecord
  2
Standard
 70
     0
 73
     0
 74
     0
340
18
345
17
346
17
347
17
  0
DIMSTYLE
105
976
330
A
100
AcDbSymbolTableRecord
100
AcDbDimStyleTableRecord
  2
Аннотативный
 70
     0
 40
0.0
340
18
1001
AcadAnnotative
1000
AnnotativeData
1002
{
1070
     1
1070
     1
1002
}
1001
ACAD_DSTYLE_DIMJAG
1070
   388
1040
1.5
1001
ACAD_DSTYLE_DIMTALN
1070
   392
1070
     0
  0
ENDTAB
  0
TABLE
  2
BLOCK_RECORD
  5
D
330
0
100
AcDbSymbolTable
 70
     0
  0
BLOCK_RECORD
  5
1C
330
D
100
AcDbSymbolTableRecord
100
AcDbBlockTableRecord
  2
*Model_Space
340
20
 70
     0
280
     1
281
     0
  0
BLOCK_RECORD
  5
8DD
330
D
100
AcDbSymbolTableRecord
100
AcDbBlockTableRecord
  2
*Paper_Space
340
8E2
 70
     0
280
     1
281
     0
  0
ENDTAB
  0
ENDSEC
  0
SECTION
  2
BLOCKS
  0
BLOCK
  5
1E
330
1C
100
AcDbEntity
  8
0
100
AcDbBlockBegin
  2
*Model_Space
 70
     0
 10
0.0
 20
0.0
 30
0.0
  3
*Model_Space
  1

  0
ENDBLK
  5
1D
330
1C
100
AcDbEntity
  8
0
100
AcDbBlockEnd
  0
BLOCK
  5
8DF
330
8DD
100
AcDbEntity
 67
     1
  8
0
100
AcDbBlockBegin
  2
*Paper_Space
 70
     0
 10
0.0
 20
0.0
 30
0.0
  3
*Paper_Space
  1

  0
ENDBLK
  5
8DE
330
8DD
100
AcDbEntity
 67
     1
  8
0
100
AcDbBlockEnd
  0
ENDSEC
  0
SECTION
  2
ENTITIES
  0
LWPOLYLINE
  5
102
330
1C
100
AcDbEntity
  8
Р-3
370
    20
100
AcDbPolyline
 90
       76
 70
     0
 43
0.0
 10
1392319.90900658
 20
355937.9969050621
 10
1392349.79899931
 20
355927.396900966
 10
1392362.08900011
 20
355942.106895975
 10
1392375.23919604
 20
355985.0635669621
 10
1392408.14900312
 20
355997.3668772871
 10
1392463.69897983
 20
355928.366878183
 10
1392491.93896825
 20
355894.536878419
 10
1392458.49896395
 20
355843.746893833
 10
1392444.7689634
 20
355829.1068990941
 10
1392445.51895912
 20
355808.116902568
 10
1392426.97896139
 20
355803.416907056
 10
1392434.11439326
 20
355790.8722179301
 10
1392394.64895947
 20
355765.616920008
 10
1392368.31896386
 20
355764.8269253701
 10
1392358.70896574
 20
355765.926927084
 10
1392345.178968
 20
355765.516929846
 10
1392337.93673198
 20
355766.9360570081
 10
1392232.38344416
 20
355737.80284812
 10
1392223.47295797
 20
355731.08760768
 10
1392205.12895271
 20
355735.076970174
 10
1392202.96898672
 20
355736.1169631511
 10
1392169.41505674
 20
355719.403262583
 10
1392149.909145
 20
355730.336890449
 10
1392131.78899345
 20
355708.1169821161
 10
1392099.14030465
 20
355687.872926383
 10
1392056.11483152
 20
355698.7043105451
 10
1391979.6868878
 20
355742.943353266
 10
1391915.56154918
 20
355752.943156559
 10
1391901.89977814
 20
355723.9360369401
 10
1391895.94207068
 20
355713.27663697
 10
1391827.68905209
 20
355738.937037148
 10
1391791.7771789
 20
355747.8640277621
 10
1391778.45311908
 20
355748.1237892171
 10
1391770.02383079
 20
355746.169966035
 10
1391747.06732283
 20
355733.458949215
 10
1391688.45846541
 20
355688.872462568
 10
1391677.96907054
 20
355701.617073313
 10
1391665.83907537
 20
355715.4070733429
 10
1391666.06907574
 20
355717.487072932
 10
1391658.78907898
 20
355727.457072661
 10
1391667.84907897
 20
355735.327069495
 10
1391675.51907869
 20
355740.5570670711
 10
1391678.57907901
 20
355744.837065726
 10
1391687.12907937
 20
355754.127062423
 10
1391710.86907807
 20
355768.247055269
 10
1391702.83908205
 20
355781.337054605
 10
1391695.93908254
 20
355777.777056588
 10
1391688.16908704
 20
355793.647055393
 10
1391689.14908726
 20
355795.617054855
 10
1391704.2890865
 20
355805.007050225
 10
1391711.85908693
 20
355813.747047217
 10
1391730.36908549
 20
355822.597042016
 10
1391749.8390823
 20
355823.447037998
 10
1391761.86908057
 20
355825.2370353051
 10
1391764.68835627
 20
355826.622368239
 10
1391749.97908885
 20
355856.557032249
 10
1391740.83395831
 20
355859.894891029
 10
1391751.70909233
 20
355875.607028625
 10
1391764.61909263
 20
355888.3870238471
 10
1391777.11909248
 20
355892.8470220001
 10
1391789.4790759
 20
355890.49702099
 10
1391923.95295919
 20
355859.761006049
 10
1392013.65395889
 20
355902.310938718
 10
1392055.84904734
 20
355913.5769616921
 10
1392062.78904273
 20
355896.386963288
 10
1392066.22904107
 20
355890.986963534
 10
1392071.39903889
 20
355884.5469636251
 10
1392078.09903632
 20
355877.446963518
 10
1392094.90903101
 20
355865.296962285
 10
1392109.02902711
 20
355857.946960745
 10
1392148.62901965
 20
355854.7869534351
 10
1392184.5590148
 20
355861.636945116
 10
1392211.43901215
 20
355871.6669380511
 10
1392267.63900851
 20
355902.2669216061
 10
1392295.3390074
 20
355920.756912914
 10
1392319.90900658
 20
355937.9969050621
  0
LWPOLYLINE
  5
103
330
1C
100
AcDbEntity
  8
Р-3
370
    20
100
AcDbPolyline
 90
        9
 70
     0
 43
0.0
 10
1392352.47312529
 20
356100.556072504
 10
1392375.08902644
 20
356086.1268685091
 10
1392401.05902988
 20
356126.0768564621
 10
1392398.70903103
 20
356129.816856288
 10
1392395.26032335
 20
356154.407676914
 10
1392391.37375733
 20
356145.8661836851
 10
1392358.11926347
 20
356120.9124783771
 10
1392353.29592103
 20
356104.565156543
 10
1392352.47312529
 20
356100.556072504
  0
LWPOLYLINE
  5
10B
330
1C
100
AcDbEntity
  8
Р-3
370
    20
100
AcDbPolyline
 90
       73
 70
     0
 43
0.0
 10
1393397.99908453
 20
357269.246461063
 10
1393406.9890807
 20
357257.7664612611
 10
1393406.6690864
 20
357286.176456418
 10
1393421.23908605
 20
357297.0664516379
 10
1393442.71908606
 20
357315.866444124
 10
1393461.45908771
 20
357340.4464361621
 10
1393447.48909223
 20
357351.106437094
 10
1393456.83909252
 20
357360.7064335771
 10
1393463.23756018
 20
357361.834323982
 10
1393469.7490929
 20
357373.81642875
 10
1393478.55909229
 20
357378.386426209
 10
1393490.46908979
 20
357376.166424234
 10
1393493.49908896
 20
357374.636423898
 10
1393497.08908754
 20
357370.656423867
 10
1393517.3890772
 20
357336.206425789
 10
1393533.40907584
 20
357343.2764213871
 10
1393541.94907244
 20
357333.5964213671
 10
1393545.96907147
 20
357332.1864208171
 10
1393561.53906984
 20
357337.536416798
 10
1393558.55907297
 20
357352.0964162271
 10
1393563.50907277
 20
357354.016413558
 10
1393582.09907377
 20
357375.236406203
 10
1393591.07907067
 20
357367.39640578
 10
1393594.97907033
 20
357369.086404704
 10
1393606.7490713
 20
357384.256399746
 10
1393597.35907455
 20
357392.436400201
 10
1393623.31907565
 20
357420.566390183
 10
1393635.33907561
 20
357430.8563860221
 10
1393643.47907713
 20
357445.566381863
 10
1393645.26908
 20
357461.60637874
 10
1393626.6990861
 20
357476.226379896
 10
1393620.10908858
 20
357482.9963800371
 10
1393622.18908872
 20
357485.456379203
 10
1393625.76908873
 20
357488.676377932
 10
1393635.93909011
 20
357504.3863732011
 10
1393642.44908841
 20
357501.506372405
 10
1393646.32908771
 20
357501.376371656
 10
1393654.32908647
 20
357502.096369942
 10
1393667.65908536
 20
357508.126366253
 10
1393676.1590841
 20
357509.166364389
 10
1393678.75908367
 20
357509.2563638579
 10
1393682.33908275
 20
357507.71636341
 10
1393689.50908008
 20
357500.576363225
 10
1393693.42907879
 20
357497.436362986
 10
1393701.24907662
 20
357493.326362148
 10
1393790.63906065
 20
357490.6263448671
 10
1393788.49906223
 20
357496.726344243
 10
1393798.8090641
 20
357515.1463390091
 10
1393801.47772852
 20
357519.675178663
 10
1393785.97906903
 20
357528.786339194
 10
1393733.15908379
 20
357557.216344773
 10
1393729.21495981
 20
357548.874526714
 10
1393676.22340858
 20
357583.1818176541
 10
1393660.51157902
 20
357584.228931593
 10
1393643.94525353
 20
357581.826149124
 10
1393586.42911103
 20
357566.766372249
 10
1393544.33911589
 20
357554.636382703
 10
1393452.18911184
 20
357453.986418385
 10
1393460.33910721
 20
357437.796419565
 10
1393444.92910532
 20
357414.816426588
 10
1393442.04910466
 20
357409.0064281711
 10
1393427.87910319
 20
357389.2264344021
 10
1393381.23910044
 20
357334.826453056
 10
1393377.93895031
 20
357329.4593681441
 10
1393372.74909896
 20
357319.9664573121
 10
1393365.08212676
 20
357310.933404912
 10
1393356.73909827
 20
357302.516463509
 10
1393355.83909737
 20
357297.2064646011
 10
1393362.57766078
 20
357289.821091038
 10
1393364.39909475
 20
357291.456463896
 10
1393372.13784606
 20
357290.5589267421
 10
1393390.93908664
 20
357273.7164616871
 10
1393397.99908453
 20
357269.246461063
  0
LWPOLYLINE
  5
10C
330
1C
100
AcDbEntity
  8
Р-3
370
    20
100
AcDbPolyline
 90
       15
 70
     0
 43
0.0
 10
1393349.3440977
 20
357205.5364387321
 10
1393393.77907249
 20
357204.8764730251
 10
1393411.22906941
 20
357204.546469616
 10
1393470.28905901
 20
357203.5564580601
 10
1393524.37568593
 20
357204.115630832
 10
1393532.66904893
 20
357207.006445087
 10
1393536.13726941
 20
357208.962210539
 10
1393542.30904879
 20
357214.6664418421
 10
1393554.29904959
 20
357229.2264369461
 10
1393550.07905282
 20
357241.7864356161
 10
1393408.04908015
 20
357255.856461381
 10
1393407.21907909
 20
357249.866462575
 10
1393392.5990794
 20
357238.696467411
 10
1393350.04789359
 20
357233.4340833671
 10
1393349.3440977
 20
357205.5364387321
  0
LWPOLYLINE
  5
10D
330
1C
100
AcDbEntity
  8
Р-3
370
    20
100
AcDbPolyline
 90
       20
 70
     0
 43
0.0
 10
1393335.14230123
 20
357133.621768018
 10
1393309.7345479
 20
357072.3084672771
 10
1393274.28646014
 20
357087.5234378571
 10
1393261.34488304
 20
357037.006193066
 10
1393240.79675951
 20
356969.1047980771
 10
1393221.27623961
 20
356913.400013217
 10
1393245.23468461
 20
356907.0100127511
 10
1393269.91152044
 20
356888.4708612621
 10
1393338.6190371
 20
356978.506523085
 10
1393335.01322584
 20
357004.224836834
 10
1393412.87095878
 20
357085.0826857111
 10
1393427.53904577
 20
357099.586484504
 10
1393444.62904597
 20
357115.526478368
 10
1393461.75904609
 20
357130.9964722951
 10
1393478.79371519
 20
357145.4378590701
 10
1393476.99904843
 20
357156.0064649461
 10
1393473.268273
 20
357187.5698902861
 10
1393414.79198621
 20
357186.559301876
 10
1393390.50621896
 20
357115.809978266
 10
1393335.14230123
 20
357133.621768018
  0
LWPOLYLINE
  5
10E
330
1C
100
AcDbEntity
  8
Р-3
370
    20
100
AcDbPolyline
 90
       12
 70
     0
 43
0.0
 10
1393169.57391956
 20
356763.3331421811
 10
1393219.03583728
 20
356803.039027476
 10
1393252.01528958
 20
356842.6472178771
 10
1393269.91152044
 20
356888.4708612621
 10
1393245.23468461
 20
356907.0100127511
 10
1393221.27623961
 20
356913.400013217
 10
1393217.00904462
 20
356910.55655896
 10
1393201.66903729
 20
356860.2665706911
 10
1393173.01903428
 20
356820.1665833121
 10
1393123.29904603
 20
356836.1065904301
 10
1393102.22904273
 20
356801.1266006581
 10
1393169.57391956
 20
356763.3331421811
  0
LWPOLYLINE
  5
10F
330
1C
100
AcDbEntity
  8
Р-3
370
    20
100
AcDbPolyline
 90
       11
 70
     0
 43
0.0
 10
1391538.8839716
 20
355608.24978345
 10
1391534.50907287
 20
355588.487121333
 10
1391530.02676073
 20
355575.3080718361
 10
1391612.99203984
 20
355538.502963788
 10
1391666.51597208
 20
355594.515019665
 10
1391664.65750503
 20
355618.574930449
 10
1391639.52906385
 20
355634.43709255
 10
1391619.18906663
 20
355630.777097223
 10
1391604.59907008
 20
355635.457099308
 10
1391604.30858071
 20
355610.2309159451
 10
1391538.8839716
 20
355608.24978345
  0
LWPOLYLINE
  5
123
330
1C
100
AcDbEntity
  8
Р-3
370
    20
100
AcDbPolyline
 90
        8
 70
     0
 43
0.0
 10
1392348.64911116
 20
356490.0568039821
 10
1392274.94322957
 20
356489.670748554
 10
1392247.219126
 20
356476.5568264511
 10
1392259.4559204
 20
356516.330890852
 10
1392295.33985746
 20
356524.812653181
 10
1392349.58911846
 20
356527.656797299
 10
1392350.85911146
 20
356493.52680294
 10
1392348.64911116
 20
356490.0568039821
  0
LWPOLYLINE
  5
124
330
1C
100
AcDbEntity
  8
Р-3
370
    20
100
AcDbPolyline
 90
       35
 70
     0
 43
0.0
 10
1393255.04910009
 20
357223.2464973871
 10
1393280.84909283
 20
357209.096494714
 10
1393290.28783685
 20
357205.992446989
 10
1393290.48388102
 20
357232.710588598
 10
1393294.67011545
 20
357241.112042837
 10
1393350.24519433
 20
357241.254867597
 10
1393350.04789359
 20
357233.4340833671
 10
1393392.5990794
 20
357238.696467411
 10
1393407.21907909
 20
357249.866462575
 10
1393408.04908015
 20
357255.856461381
 10
1393406.9890807
 20
357257.7664612611
 10
1393397.99908453
 20
357269.246461063
 10
1393390.93908664
 20
357273.7164616871
 10
1393372.13784606
 20
357290.5589267421
 10
1393364.39909475
 20
357291.456463896
 10
1393362.57766078
 20
357289.821091038
 10
1393355.83909737
 20
357297.2064646011
 10
1393356.73909827
 20
357302.516463509
 10
1393327.75910862
 20
357329.526464583
 10
1393314.49910822
 20
357315.896469583
 10
1393307.80910824
 20
357310.1664718861
 10
1393303.25910819
 20
357305.9764735261
 10
1393297.01910985
 20
357308.91647425
 10
1393277.48911655
 20
357325.646475241
 10
1393274.16911635
 20
357321.7764765671
 10
1393270.75911752
 20
357324.7064767421
 10
1393270.4191175
 20
357324.31647687
 10
1393268.35911821
 20
357326.076476975
 10
1393263.92911782
 20
357320.276478854
 10
1393262.75342577
 20
357320.987901489
 10
1393258.20911844
 20
357318.416480312
 10
1393280.3291073
 20
357281.5864822871
 10
1393278.96910639
 20
357275.806483553
 10
1393273.27910189
 20
357248.176489456
 10
1393255.04910009
 20
357223.2464973871
  0
LWPOLYLINE
  5
126
330
1C
100
AcDbEntity
  8
Р-3
370
    20
100
AcDbPolyline
 90
       12
 70
     0
 43
0.0
 10
1392870.90533592
 20
356171.956309745
 10
1392888.20985641
 20
356149.2488355221
 10
1392890.25386992
 20
356143.092322649
 10
1392991.01951322
 20
356324.0470591171
 10
1392958.51427995
 20
356341.925788701
 10
1392942.72920526
 20
356324.837986014
 10
1392904.09902441
 20
356270.633661542
 10
1392886.22975496
 20
356228.042522196
 10
1392891.36207709
 20
356218.488688244
 10
1392885.08896249
 20
356207.7767462671
 10
1392876.13896101
 20
356192.496750689
 10
1392870.90533592
 20
356171.956309745
  0
LWPOLYLINE
  5
12B
330
1C
100
AcDbEntity
  8
Р-3
370
    20
100
AcDbPolyline
 90
       19
 70
     0
 43
0.0
 10
1394436.07917906
 20
358649.0860165551
 10
1394458.26815133
 20
358622.112354094
 10
1394465.77807774
 20
358628.31587241
 10
1394495.61915814
 20
358595.486013996
 10
1394510.36414968
 20
358576.901972307
 10
1394563.55528468
 20
358520.396034814
 10
1394381.18546784
 20
358366.773715981
 10
1394339.22913268
 20
358331.0860907311
 10
1394313.47913929
 20
358342.006093963
 10
1394284.55915894
 20
358415.86608694
 10
1394231.51919334
 20
358542.9760755051
 10
1394235.5591951
 20
358555.426072554
 10
1394230.64919796
 20
358565.4960717871
 10
1394282.8391938
 20
358589.996057193
 10
1394332.11919158
 20
358621.706041929
 10
1394347.86919148
 20
358634.906036525
 10
1394371.78919226
 20
358659.626027501
 10
1394393.96919203
 20
358677.81601996
 10
1394436.07917906
 20
358649.0860165551
  0
LWPOLYLINE
  5
12C
330
1C
100
AcDbEntity
  8
Р-3
370
    20
100
AcDbPolyline
 90
       30
 70
     0
 43
0.0
 10
1393731.80920605
 20
358172.1162387971
 10
1393753.1591031
 20
358101.080895846
 10
1393897.17494987
 20
357946.931764479
 10
1394119.26461314
 20
358143.434808999
 10
1394339.22913268
 20
358331.0860907311
 10
1394313.47913929
 20
358342.006093963
 10
1394284.55915894
 20
358415.86608694
 10
1394231.51919334
 20
358542.9760755051
 10
1394225.21185054
 20
358538.819403863
 10
1394197.60919445
 20
358519.076086366
 10
1394194.71919472
 20
358517.56608724
 10
1394182.69919579
 20
358512.846090404
 10
1394172.22001231
 20
358504.628283535
 10
1394140.65919756
 20
358485.196103527
 10
1394095.97920097
 20
358463.4561161581
 10
1394057.99920281
 20
358439.6561278121
 10
1394025.56920482
 20
358421.5861373721
 10
1394018.67920504
 20
358416.726139573
 10
1394018.46920426
 20
358412.626140326
 10
1394005.74920467
 20
358403.6161444041
 10
1394013.67920078
 20
358390.9261450251
 10
1393999.81919872
 20
358368.4661516621
 10
1393982.61679253
 20
358355.5373007871
 10
1393961.38919961
 20
358339.486164298
 10
1393966.77919749
 20
358333.4861642621
 10
1393944.5907863
 20
358316.7677536741
 10
1393931.52919831
 20
358306.926175854
 10
1393851.13924961
 20
358258.333114018
 10
1393803.13971206
 20
358224.219499522
 10
1393731.80920605
 20
358172.1162387971
  0
LWPOLYLINE
  5
12D
330
1C
100
AcDbEntity
  8
Р-3
370
    20
100
AcDbPolyline
 90
       31
 70
     0
 43
0.0
 10
1393621.76400633
 20
357670.136920575
 10
1393662.16914027
 20
357780.056320364
 10
1393718.54222409
 20
357789.519167585
 10
1394095.72776587
 20
357590.30589778
 10
1394148.35098326
 20
357411.998287443
 10
1393967.51756638
 20
357198.9872722911
 10
1393738.36902753
 20
357278.196391949
 10
1393761.969028
 20
357301.106383302
 10
1393786.04810583
 20
357325.218647261
 10
1393812.75902904
 20
357350.586364668
 10
1393830.46902926
 20
357367.126358294
 10
1393846.0490297
 20
357382.676352578
 10
1393857.21903039
 20
357396.086347987
 10
1393867.92903124
 20
357409.716343506
 10
1393872.23903178
 20
357416.186341529
 10
1393872.7890322
 20
357418.766340974
 10
1393875.59903296
 20
357425.046339334
 10
1393876.88903547
 20
357438.816336697
 10
1393876.32903801
 20
357451.13633468
 10
1393872.78904199
 20
357468.106332448
 10
1393867.15904703
 20
357488.626330016
 10
1393859.47905188
 20
357506.356328485
 10
1393849.48905734
 20
357525.146327214
 10
1393845.62905881
 20
357529.266327269
 10
1393804.18681076
 20
357557.126034318
 10
1393737.22909205
 20
357602.376336163
 10
1393726.50909496
 20
357607.686337371
 10
1393697.29910249
 20
357620.206341001
 10
1393687.83910441
 20
357621.6863426321
 10
1393691.36238363
 20
357633.1844541271
 10
1393621.76400633
 20
357670.136920575
  0
LWPOLYLINE
  5
12E
330
1C
100
AcDbEntity
  8
Р-3
370
    20
100
AcDbPolyline
 90
       22
 70
     0
 43
0.0
 10
1393295.47495049
 20
356500.9949195911
 10
1393496.7854516
 20
356644.861920369
 10
1393746.2184309
 20
356938.410933668
 10
1393879.6765149
 20
357095.583011534
 10
1393718.73501967
 20
357162.8222904041
 10
1393705.49901229
 20
357172.8364166821
 10
1393629.43903213
 20
357206.586425943
 10
1393606.12903516
 20
357201.556431434
 10
1393601.87903569
 20
357200.536432459
 10
1393564.83903981
 20
357189.076441794
 10
1393566.14756598
 20
357187.503732494
 10
1393525.1890395
 20
357152.996455898
 10
1393432.10240139
 20
357079.223796218
 10
1393412.87095878
 20
357085.0826857111
 10
1393335.01322584
 20
357004.224836834
 10
1393338.6190371
 20
356978.506523085
 10
1393269.91152044
 20
356888.4708612621
 10
1393252.01528958
 20
356842.6472178771
 10
1393219.03583728
 20
356803.039027476
 10
1393169.57391956
 20
356763.3331421811
 10
1393227.62110344
 20
356565.636151744
 10
1393295.47495049
 20
356500.9949195911
  0
LWPOLYLINE
  5
12F
330
1C
100
AcDbEntity
  8
Р-3
370
    20
100
AcDbPolyline
 90
       31
 70
     0
 43
0.0
 10
1393089.54920374
 20
357601.516464883
 10
1393113.71746253
 20
357526.454469994
 10
1393247.26598691
 20
357580.564774875
 10
1393411.72916446
 20
357683.966386676
 10
1393451.66916147
 20
357703.6463753521
 10
1393493.47093801
 20
357712.387503429
 10
1393552.16563794
 20
357707.089373799
 10
1393621.76400633
 20
357670.136920575
 10
1393662.16914027
 20
357780.056320364
 10
1393718.54222409
 20
357789.519167585
 10
1393897.17494987
 20
357946.931764479
 10
1393753.1591031
 20
358101.080895846
 10
1393731.80920605
 20
358172.1162387971
 10
1393725.45920583
 20
358165.4762411991
 10
1393701.09920556
 20
358142.896249939
 10
1393702.06920511
 20
358141.506249989
 10
1393669.47920543
 20
358114.706261092
 10
1393631.80920418
 20
358075.666275311
 10
1393571.78920239
 20
358014.3862978171
 10
1393536.67619574
 20
357984.119418795
 10
1393465.45920181
 20
357918.9363354141
 10
1393461.00920172
 20
357914.606337043
 10
1393425.66920151
 20
357882.75634957
 10
1393410.57920166
 20
357870.366354706
 10
1393365.92920197
 20
357833.096370001
 10
1393345.47410593
 20
357814.5028957171
 10
1393245.27527925
 20
357728.527649438
 10
1393220.83417408
 20
357750.980516666
 10
1393218.0187965
 20
357750.850818188
 10
1393143.48920708
 20
357665.2564431621
 10
1393089.54920374
 20
357601.516464883
  0
LWPOLYLINE
  5
161
330
1C
100
AcDbEntity
  8
Р-3
370
    20
100
AcDbPolyline
 90
        8
 70
     0
 43
0.0
 10
1394309.55928157
 20
360661.928628243
 10
1394309.59439194
 20
360648.4621895429
 10
1394309.6495944
 20
360631.665699077
 10
1394261.3996046
 20
360641.085707035
 10
1394261.78960534
 20
360645.1857062471
 10
1394239.04804323
 20
360650.0083597511
 10
1394244.63040715
 20
360676.526948423
 10
1394309.55928157
 20
360661.928628243
  0
LWPOLYLINE
  5
162
330
1C
100
AcDbEntity
  8
Р-3
370
    20
100
AcDbPolyline
 90
        6
 70
     0
 43
0.0
 10
1394300.20814775
 20
360797.0423932561
 10
1394270.52299043
 20
360803.251691709
 10
1394266.72279095
 20
360784.2183828341
 10
1394298.50356602
 20
360777.106592518
 10
1394297.13962643
 20
360782.155675556
 10
1394300.20814775
 20
360797.0423932561
  0
LWPOLYLINE
  5
163
330
1C
100
AcDbEntity
  8
Р-3
370
    20
100
AcDbPolyline
 90
       18
 70
     0
 43
0.0
 10
1394433.0641049
 20
360487.6140836321
 10
1394438.78954908
 20
360515.775693456
 10
1394409.19699292
 20
360523.335223875
 10
1394410.87258015
 20
360530.5233789171
 10
1394371.73219782
 20
360539.079931343
 10
1394381.5419792
 20
360563.948951313
 10
1394397.00957623
 20
360616.145684413
 10
1394351.88958609
 20
360626.545691574
 10
1394331.67359452
 20
360627.651702817
 10
1394314.67689761
 20
360548.281948809
 10
1394330.99836064
 20
360544.762159643
 10
1394327.55957119
 20
360530.31571303
 10
1394349.94956642
 20
360525.775709371
 10
1394361.01956407
 20
360523.545707561
 10
1394365.72664568
 20
360522.013730344
 10
1394372.84926584
 20
360519.1680596221
 10
1394369.2856444
 20
360503.267326646
 10
1394433.0641049
 20
360487.6140836321
  0
LWPOLYLINE
  5
164
330
1C
100
AcDbEntity
  8
Р-3
370
    20
100
AcDbPolyline
 90
       16
 70
     0
 43
0.0
 10
1394375.60950706
 20
360249.055752094
 10
1394381.51951079
 20
360273.0157467811
 10
1394387.23951464
 20
360297.365741439
 10
1394392.05384381
 20
360317.98173216
 10
1394314.50953492
 20
360336.2557491621
 10
1394308.18784888
 20
360338.153636655
 10
1394296.18953917
 20
360341.755751844
 10
1394290.56552522
 20
360322.164338018
 10
1394271.65594753
 20
360326.2495443371
 10
1394258.31323768
 20
360347.269475537
 10
1394247.439993
 20
360339.914595994
 10
1394238.59978716
 20
360305.295290758
 10
1394255.37072144
 20
360281.809262068
 10
1394263.24953078
 20
360270.7757706561
 10
1394313.14952018
 20
360260.8057624721
 10
1394375.60950706
 20
360249.055752094
  0
LWPOLYLINE
  5
165
330
1C
100
AcDbEntity
  8
Р-3
370
    20
100
AcDbPolyline
 90
       16
 70
     0
 43
0.0
 10
1394409.37011523
 20
360380.750601833
 10
1394418.54953394
 20
360421.855713708
 10
1394429.18959507
 20
360469.317334406
 10
1394423.70954273
 20
360470.6157042571
 10
1394415.38954455
 20
360472.5457055771
 10
1394400.86954771
 20
360475.8457078871
 10
1394390.13955002
 20
360478.135709627
 10
1394383.45954733
 20
360458.795714292
 10
1394381.64954693
 20
360455.095715275
 10
1394379.83954649
 20
360451.395716293
 10
1394371.22954461
 20
360434.435720936
 10
1394370.67954448
 20
360433.275721239
 10
1394357.31954122
 20
360405.265728733
 10
1394355.17954089
 20
360401.755729769
 10
1394354.54391676
 20
360399.188332387
 10
1394409.37011523
 20
360380.750601833
  0
LWPOLYLINE
  5
166
330
1C
100
AcDbEntity
  8
Р-3
370
    20
100
AcDbPolyline
 90
       13
 70
     0
 43
0.0
 10
1394282.93596673
 20
360458.939650519
 10
1394288.63956661
 20
360473.395730603
 10
1394292.42956731
 20
360480.1857286721
 10
1394303.57988114
 20
360505.9031546161
 10
1394311.0577786
 20
360528.518555943
 10
1394314.67689761
 20
360548.281948809
 10
1394331.67359452
 20
360627.651702817
 10
1394309.6495944
 20
360631.665699077
 10
1394261.3996046
 20
360641.085707035
 10
1394261.3996046
 20
360641.085707035
 10
1394226.38450852
 20
360470.239401789
 10
1394274.3602111
 20
360460.5979564551
 10
1394282.93596673
 20
360458.939650519
  0
LWPOLYLINE
  5
167
330
1C
100
AcDbEntity
  8
Р-3
370
    20
100
AcDbPolyline
 90
       10
 70
     0
 43
0.0
 10
1394139.73169229
 20
360243.561102104
 10
1394095.63495736
 20
360204.817450148
 10
1394159.170326
 20
360026.766121634
 10
1394179.9394986
 20
360036.1658277341
 10
1394144.19952694
 20
360147.8458155361
 10
1394146.72055476
 20
360154.3158145651
 10
1394190.64672999
 20
360194.701360148
 10
1394170.23646642
 20
360217.3270484291
 10
1394166.68953624
 20
360214.245799594
 10
1394139.73169229
 20
360243.561102104
  0
LWPOLYLINE
  5
168
330
1C
100
AcDbEntity
  8
Р-3
370
    20
100
AcDbPolyline
 90
        9
 70
     0
 43
0.0
 10
1394348.40081315
 20
360122.900851798
 10
1394374.93028361
 20
360234.4904288111
 10
1394241.31292419
 20
360260.442860187
 10
1394238.65953245
 20
360257.815777795
 10
1394260.1094646
 20
360229.395733486
 10
1394273.95951672
 20
360209.255779154
 10
1394291.26950931
 20
360186.985779565
 10
1394337.21948913
 20
360125.3257811011
 10
1394348.40081315
 20
360122.900851798
  0
LWPOLYLINE
  5
179
330
1C
100
AcDbEntity
  8
Р-3
370
    20
100
AcDbPolyline
 90
       34
 70
     0
 43
0.0
 10
1397366.09895621
 20
360076.6851881011
 10
1397487.71892547
 20
360027.765172407
 10
1397569.98993752
 20
359993.513833295
 10
1397589.50890185
 20
359997.3551574489
 10
1397595.46001469
 20
359999.503395559
 10
1397585.46347773
 20
360007.087600699
 10
1397580.96363476
 20
360015.114596896
 10
1397572.61891017
 20
360024.525156108
 10
1397586.59891082
 20
360040.005150662
 10
1397599.03362601
 20
360054.813125493
 10
1397603.10891161
 20
360058.3351442111
 10
1397599.14531205
 20
360063.6210651141
 10
1397594.500762
 20
360073.633900782
 10
1397592.18891983
 20
360090.2751408561
 10
1397594.01892327
 20
360109.1751372261
 10
1397621.82893101
 20
360172.3851207829
 10
1397636.07893138
 20
360186.665115487
 10
1397631.44855243
 20
360196.630562651
 10
1397593.59893836
 20
360184.8451242271
 10
1397536.86893769
 20
360132.125144603
 10
1397495.48424259
 20
360147.0581304611
 10
1397428.29729893
 20
360152.579541272
 10
1397396.84896262
 20
360135.8151717771
 10
1397366.66291112
 20
360146.9237194101
 10
1397350.72897351
 20
360150.495178395
 10
1397330.42897761
 20
360153.48518191
 10
1397325.19768868
 20
360155.532997228
 10
1397326.25897588
 20
360141.10518488
 10
1397345.74897193
 20
360138.2251814971
 10
1397386.17896238
 20
360125.325175709
 10
1397383.18896085
 20
360114.995178079
 10
1397380.47896099
 20
360113.3551789111
 10
1397369.35895805
 20
360088.835185352
 10
1397366.09895621
 20
360076.6851881011
  0
LWPOLYLINE
  5
19B
330
1C
100
AcDbEntity
  8
Р-3
370
    20
100
AcDbPolyline
 90
        6
 70
     0
 43
0.0
 10
1394398.44562393
 20
360331.845683671
 10
1394409.37011523
 20
360380.750601833
 10
1394354.54391676
 20
360399.188332387
 10
1394312.10809794
 20
360389.235776448
 10
1394303.90647518
 20
360354.81797281
 10
1394398.44562393
 20
360331.845683671
  0
LWPOLYLINE
  5
19C
330
1C
100
AcDbEntity
  8
Р-3
370
    20
100
AcDbPolyline
 90
       27
 70
     0
 43
0.0
 10
1394669.22944063
 20
360493.2863051721
 10
1394668.87951049
 20
360521.525646778
 10
1394678.62951386
 20
360547.045640429
 10
1394683.93945311
 20
360568.506289183
 10
1394679.99945397
 20
360569.606289775
 10
1394674.85952017
 20
360575.525636259
 10
1394678.56952291
 20
360592.555632583
 10
1394675.72952352
 20
360593.195633033
 10
1394680.11931118
 20
360610.7956773691
 10
1394621.63092411
 20
360627.413930297
 10
1394550.56340563
 20
360626.46541899
 10
1394522.3095549
 20
360617.7556592521
 10
1394520.88955516
 20
360617.795659533
 10
1394520.52955441
 20
360613.745660299
 10
1394524.97955224
 20
360606.655660645
 10
1394526.72954851
 20
360589.425663271
 10
1394530.21954394
 20
360569.375666049
 10
1394530.54954384
 20
360569.215666004
 10
1394594.66952884
 20
360549.425656691
 10
1394597.20952813
 20
360548.065656427
 10
1394613.66952413
 20
360542.215654166
 10
1394642.01951409
 20
360516.345653007
 10
1394639.23951403
 20
360513.57565404
 10
1394645.75951185
 20
360508.285653659
 10
1394666.68950544
 20
360494.2256519379
 10
1394666.51950541
 20
360493.875652029
 10
1394669.22944063
 20
360493.2863051721
  0
LWPOLYLINE
  5
19D
330
1C
100
AcDbEntity
  8
Р-3
370
    20
100
AcDbPolyline
 90
       16
 70
     0
 43
0.0
 10
1394526.84525661
 20
360446.71562142
 10
1394525.30952139
 20
360451.575687373
 10
1394522.52062435
 20
360465.555788253
 10
1394521.61952605
 20
360471.8056846091
 10
1394516.2495333
 20
360503.605680179
 10
1394514.73953498
 20
360510.825679238
 10
1394508.12954604
 20
360560.775671918
 10
1394507.54954801
 20
360570.2056703961
 10
1394506.29955545
 20
360606.595664362
 10
1394510.94429194
 20
360618.3385203991
 10
1394477.21956315
 20
360620.0656678061
 10
1394475.0095616
 20
360610.315669929
 10
1394459.74008445
 20
360526.209416101
 10
1394448.0470986
 20
360472.3842977111
 10
1394445.40953767
 20
360463.590701106
 10
1394526.84525661
 20
360446.71562142
  0
LWPOLYLINE
  5
1A4
330
1C
100
AcDbEntity
  8
Р-3
370
    20
100
AcDbPolyline
 90
       24
 70
     0
 43
0.0
 10
1394395.87055567
 20
360040.6491780971
 10
1394416.37939477
 20
360042.5564352921
 10
1394536.9693686
 20
360015.3264150971
 10
1394573.54936066
 20
360007.106408956
 10
1394584.50936783
 20
360052.686398848
 10
1394573.7993741
 20
360075.116397195
 10
1394588.07147252
 20
360128.878484766
 10
1394604.92241872
 20
360124.507681312
 10
1394621.11945237
 20
360187.1957140371
 10
1394596.18945762
 20
360191.915718178
 10
1394586.4394596
 20
360193.435719839
 10
1394565.66946405
 20
360197.7857232161
 10
1394527.72947208
 20
360205.20572947
 10
1394468.58948458
 20
360216.7057392251
 10
1394433.36949202
 20
360223.545745037
 10
1394399.71949907
 20
360229.805750634
 10
1394395.91397613
 20
360216.949623449
 10
1394387.21306377
 20
360219.2503446441
 10
1394363.77927067
 20
360141.123036774
 10
1394372.01823273
 20
360138.223223432
 10
1394361.33948079
 20
360104.295779944
 10
1394360.82948034
 20
360101.615780509
 10
1394361.13947908
 20
360095.4957815061
 10
1394395.87055567
 20
360040.6491780971
  0
LWPOLYLINE
  5
1AD
330
1C
100
AcDbEntity
  8
Р-3
370
    20
100
AcDbPolyline
 90
       47
 70
     0
 43
0.0
 10
1398420.01012236
 20
358979.605827245
 10
1398530.83053254
 20
358956.79365048
 10
1398655.05050388
 20
358919.894132138
 10
1398793.03847764
 20
358907.865106828
 10
1398811.39848789
 20
358975.495091489
 10
1398780.64067165
 20
358993.634460141
 10
1398652.29398116
 20
359002.668058295
 10
1398653.35852379
 20
359018.7451153911
 10
1398599.80853564
 20
359031.855123752
 10
1398569.70854277
 20
359041.575128053
 10
1398568.58854159
 20
359034.59512948
 10
1398548.62854557
 20
359037.315132973
 10
1398517.66144004
 20
359039.391776709
 10
1398493.84855568
 20
359040.5551432861
 10
1398472.52855939
 20
359040.645147501
 10
1398404.23857005
 20
359034.9151620511
 10
1398375.66857428
 20
359031.345168341
 10
1398360.75857657
 20
359029.8951715571
 10
1398321.66858219
 20
359024.195180299
 10
1398305.60858472
 20
359022.955183707
 10
1398265.40859052
 20
359017.155192688
 10
1398257.84859169
 20
359016.495194303
 10
1398245.04859373
 20
359015.655196991
 10
1398211.59859947
 20
359015.435203669
 10
1398203.40490456
 20
359015.45290102
 10
1398188.10860368
 20
359016.1852082021
 10
1398169.40026912
 20
359016.902166352
 10
1398159.7286088
 20
359017.275213655
 10
1398122.8886145
 20
359013.915221548
 10
1398112.57861601
 20
359012.565223823
 10
1398079.63862226
 20
359014.705229982
 10
1398061.35862579
 20
359017.245233186
 10
1398020.21863447
 20
359025.155239982
 10
1397999.60863856
 20
359027.8652436071
 10
1397990.20864033
 20
359028.55524535
 10
1397989.12023744
 20
359021.950597959
 10
1397989.01863848
 20
359018.205247383
 10
1397878.38865836
 20
359022.075268674
 10
1397832.33866747
 20
359027.8552768201
 10
1397829.50866798
 20
359027.935277361
 10
1397807.20860919
 20
359029.8759095001
 10
1397809.91860664
 20
359019.5159107161
 10
1397808.02860271
 20
358998.2759147821
 10
1397801.32859879
 20
358972.465920659
 10
1398189.42858723
 20
358934.435222068
 10
1398407.15854724
 20
358922.535180903
 10
1398420.01012236
 20
358979.605827245
  0
LWPOLYLINE
  5
1AF
330
1C
100
AcDbEntity
  8
Р-3
370
    20
100
AcDbPolyline
 90
       35
 70
     0
 43
0.0
 10
1398653.35852379
 20
359018.7451153911
 10
1398652.29398116
 20
359002.668058295
 10
1398780.64067165
 20
358993.634460141
 10
1398811.39848789
 20
358975.495091489
 10
1398845.38546
 20
359008.268887982
 10
1398899.36865188
 20
359035.210381288
 10
1399031.68742757
 20
359129.677627003
 10
1399111.41069385
 20
359130.898125868
 10
1399113.91846889
 20
359143.105002458
 10
1399106.63847039
 20
359144.385003683
 10
1399095.18847252
 20
359145.1250058271
 10
1399067.93847717
 20
359144.835011282
 10
1399052.02050976
 20
359143.2860408121
 10
1399051.63848056
 20
359147.765014014
 10
1399049.21051808
 20
359150.490143077
 10
1399054.93848431
 20
359169.535009595
 10
1399054.12848558
 20
359175.195008773
 10
1399050.04848695
 20
359178.5250090061
 10
1399040.19848981
 20
359184.3450099541
 10
1399022.70849255
 20
359182.91501368
 10
1399022.08849376
 20
359188.495012836
 10
1398994.32849783
 20
359184.845018978
 10
1398970.14678139
 20
359205.407147309
 10
1398931.65850267
 20
359154.645036643
 10
1398919.82850639
 20
359163.1050375311
 10
1398898.67492462
 20
359133.208384879
 10
1398820.9285162
 20
359126.405063508
 10
1398677.31853823
 20
359112.3650944521
 10
1398679.18395295
 20
359080.1823829521
 10
1398680.24852815
 20
359064.1351022111
 10
1398678.158525
 20
359046.4651056751
 10
1398676.60852294
 20
359034.6851080201
 10
1398672.95852367
 20
359035.215108656
 10
1398656.20852688
 20
359036.825111701
 10
1398653.35852379
 20
359018.7451153911
  0
LWPOLYLINE
  5
1B4
330
1C
100
AcDbEntity
  8
Р-3
370
    20
100
AcDbPolyline
 90
       14
 70
     0
 43
0.0
 10
1394445.40953767
 20
360463.590701106
 10
1394526.84525661
 20
360446.71562142
 10
1394529.43951809
 20
360438.5056888121
 10
1394542.05951175
 20
360417.55568993
 10
1394580.80949489
 20
360366.3056910951
 10
1394590.43173223
 20
360356.204896779
 10
1394577.08949103
 20
360343.645695749
 10
1394518.44146142
 20
360357.608831608
 10
1394515.76950217
 20
360346.375707452
 10
1394510.55949893
 20
360325.5457120871
 10
1394508.31949774
 20
360317.595713898
 10
1394415.51071532
 20
360341.21599912
 10
1394439.49819883
 20
360444.051593375
 10
1394445.40953767
 20
360463.590701106
  0
LWPOLYLINE
  5
1BD
330
1C
100
AcDbEntity
  8
Р-3
370
    20
100
AcDbPolyline
 90
       18
 70
     0
 43
0.0
 10
1399198.83850703
 20
359409.274939584
 10
1399202.78850643
 20
359409.684938719
 10
1399220.71120433
 20
359416.9793643521
 10
1399288.30998314
 20
359423.160325068
 10
1399293.75300519
 20
359423.33574957
 10
1399301.1059899
 20
359423.3427801861
 10
1399299.70746537
 20
359394.415739553
 10
1399303.10847481
 20
359337.714931243
 10
1399318.25647233
 20
359338.824915784
 10
1399320.50602154
 20
359315.115740729
 10
1399307.38470284
 20
359291.760927952
 10
1399317.8084394
 20
359172.094956958
 10
1399306.98584973
 20
359168.207129679
 10
1399299.05726519
 20
359178.734677922
 10
1399264.98845851
 20
359222.364958757
 10
1399233.51557475
 20
359286.9944799911
 10
1399222.15848405
 20
359313.804951458
 10
1399198.83850703
 20
359409.274939584
  0
LWPOLYLINE
  5
1C5
330
1C
100
AcDbEntity
  8
Р-3
370
    20
100
AcDbPolyline
 90
       10
 70
     0
 43
0.0
 10
1394266.7255023
 20
360784.232862408
 10
1394244.63040715
 20
360676.526948423
 10
1394309.55012657
 20
360661.930686617
 10
1394309.52960167
 20
360668.175692794
 10
1394305.44960534
 20
360683.135691019
 10
1394293.5065153
 20
360731.515637529
 10
1394296.83961997
 20
360749.3656812891
 10
1394299.37962439
 20
360773.855676545
 10
1394298.50356602
 20
360777.106592518
 10
1394266.7255023
 20
360784.232862408
  0
LWPOLYLINE
  5
1C6
330
1C
100
AcDbEntity
  8
Р-3
370
    20
100
AcDbPolyline
 90
        5
 70
     0
 43
0.0
 10
1394307.10769951
 20
360830.515099105
 10
1394277.28267254
 20
360837.342221198
 10
1394270.52299043
 20
360803.251691709
 10
1394300.20814775
 20
360797.0423932561
 10
1394307.10769951
 20
360830.515099105
  0
LWPOLYLINE
  5
1C7
330
1C
100
AcDbEntity
  8
Р-3
370
    20
100
AcDbPolyline
 90
        9
 70
     0
 43
0.0
 10
1396012.26226989
 20
359932.6590945729
 10
1396030.1391569
 20
359924.915479585
 10
1396057.63915037
 20
359915.9454756811
 10
1396082.00704127
 20
359911.58422712
 10
1396052.92712604
 20
359873.999792744
 10
1395991.90915116
 20
359862.745497923
 10
1395997.66915536
 20
359888.915492264
 10
1396004.36915925
 20
359914.315486547
 10
1396012.26226989
 20
359932.6590945729
  0
LWPOLYLINE
  5
1C9
330
1C
100
AcDbEntity
  8
Р-3
370
    20
100
AcDbPolyline
 90
       26
 70
     0
 43
0.0
 10
1399182.41386554
 20
359519.0403261771
 10
1399208.91152044
 20
359520.982441201
 10
1399250.97852112
 20
359525.65490911
 10
1399262.78227097
 20
359527.817893239
 10
1399272.25658125
 20
359528.005885553
 10
1399304.73781959
 20
359522.2576313211
 10
1399307.96272006
 20
359620.1632238
 10
1399368.03371637
 20
359621.434475648
 10
1399359.17853093
 20
359669.274862796
 10
1399310.94855457
 20
359747.824859063
 10
1399284.81878499
 20
359748.524828323
 10
1399263.09466297
 20
359772.322820268
 10
1399248.61511376
 20
359772.397450093
 10
1399244.60857315
 20
359782.2648662761
 10
1399214.78858004
 20
359791.014870698
 10
1399213.21858039
 20
359791.424870929
 10
1399208.31858184
 20
359794.434871388
 10
1399205.00858312
 20
359798.0148714271
 10
1399199.70858491
 20
359802.414871714
 10
1399197.33858559
 20
359803.7948719521
 10
1399179.18740786
 20
359808.279429911
 10
1399162.85844245
 20
359727.536185569
 10
1399167.33034187
 20
359618.3380581211
 10
1399171.42855309
 20
359617.414909034
 10
1399179.23853696
 20
359543.0249203501
 10
1399182.41386554
 20
359519.0403261771
  0
LWPOLYLINE
  5
1CD
330
1C
100
AcDbEntity
  8
Р-3
370
    20
100
AcDbPolyline
 90
       30
 70
     0
 43
0.0
 10
1394522.14072834
 20
360219.653728868
 10
1394522.44049435
 20
360220.9955240011
 10
1394526.97103522
 20
360241.31273251
 10
1394535.63998468
 20
360281.1686469121
 10
1394582.3765328
 20
360270.7446660551
 10
1394619.88573053
 20
360262.595501497
 10
1394623.29004843
 20
360278.908216374
 10
1394595.21947634
 20
360285.405702209
 10
1394571.35948157
 20
360290.9557059911
 10
1394521.76949257
 20
360303.265713708
 10
1394504.41949665
 20
360308.7557162071
 10
1394504.1996911
 20
360307.92867887
 10
1394501.86140076
 20
360298.2949316491
 10
1394500.36833817
 20
360291.00065659
 10
1394491.13375757
 20
360293.1321149511
 10
1394483.83949744
 20
360294.815722696
 10
1394455.01172933
 20
360301.555205583
 10
1394456.50950494
 20
360308.775725715
 10
1394456.14950502
 20
360308.8557257751
 10
1394458.51950671
 20
360319.4457234661
 10
1394413.84951636
 20
360329.225730651
 10
1394411.00951434
 20
360316.535733402
 10
1394409.95951348
 20
360311.275734526
 10
1394408.36951244
 20
360304.6557359871
 10
1394406.18951102
 20
360295.605737979
 10
1394400.7895075
 20
360273.165742933
 10
1394396.8395032
 20
360248.125748042
 10
1394399.06950201
 20
360244.01574831
 10
1394445.1194921
 20
360234.1657408651
 10
1394522.14072834
 20
360219.653728868
  0
LWPOLYLINE
  5
1CF
330
1C
100
AcDbEntity
  8
Р-3
370
    20
100
AcDbPolyline
 90
       26
 70
     0
 43
0.0
 10
1394298.62872894
 20
360369.209079003
 10
1394306.86640322
 20
360367.2391987521
 10
1394312.10809794
 20
360389.235776448
 10
1394354.54391676
 20
360399.188332387
 10
1394355.17954089
 20
360401.755729769
 10
1394357.31954122
 20
360405.265728733
 10
1394370.67954448
 20
360433.275721239
 10
1394371.22954461
 20
360434.435720936
 10
1394379.83954649
 20
360451.395716293
 10
1394381.64954693
 20
360455.095715275
 10
1394383.45954733
 20
360458.795714292
 10
1394390.13955002
 20
360478.135709627
 10
1394400.86954771
 20
360475.8457078871
 10
1394415.38954455
 20
360472.5457055771
 10
1394423.70954273
 20
360470.6157042571
 10
1394429.18959507
 20
360469.317334406
 10
1394433.0641049
 20
360487.6140836321
 10
1394369.2856444
 20
360503.267326646
 10
1394358.55240218
 20
360495.8338951841
 10
1394356.49539095
 20
360486.9721646111
 10
1394360.53144457
 20
360482.999256859
 10
1394353.17034155
 20
360471.528297371
 10
1394322.62370783
 20
360420.048013545
 10
1394335.11466112
 20
360412.896971743
 10
1394303.52387436
 20
360389.783132909
 10
1394298.62872894
 20
360369.209079003
  0
LWPOLYLINE
  5
1D0
330
1C
100
AcDbEntity
  8
Р-3
370
    20
100
AcDbPolyline
 90
       30
 70
     0
 43
0.0
 10
1397787.46888463
 20
360082.895103358
 10
1397782.20888592
 20
360084.845104069
 10
1397775.5288868
 20
360083.5151056171
 10
1397768.02888775
 20
360081.715107424
 10
1397759.10063969
 20
360078.5270777811
 10
1397757.24888878
 20
360077.5151102871
 10
1397752.39888921
 20
360075.4451116151
 10
1397744.51889063
 20
360075.785113118
 10
1397738.28889198
 20
360077.125114121
 10
1397736.95889295
 20
360080.8851137311
 10
1397719.69889586
 20
360080.515117224
 10
1397706.62889737
 20
360076.7351204741
 10
1397700.3488977
 20
360072.935122379
 10
1397681.92889971
 20
360067.015127057
 10
1397675.74890005
 20
360063.345128925
 10
1397659.14890141
 20
360055.755133528
 10
1397656.76890181
 20
360055.675134013
 10
1397645.52890279
 20
360050.845137081
 10
1397635.60890357
 20
360046.105139876
 10
1397617.57890425
 20
360033.8451455691
 10
1397580.96363476
 20
360015.114596896
 10
1397585.46347773
 20
360007.087600699
 10
1397595.46001469
 20
359999.503395559
 10
1397605.45073648
 20
360003.109855454
 10
1397655.458895959
 20
360025.045139568
 10
1397686.96889286
 20
360036.855131279
 10
1397707.94889035
 20
360042.545126125
 10
1397786.04166459
 20
360047.47253618
 10
1397785.67887951
 20
360055.535108507
 10
1397787.46888463
 20
360082.895103358
  0
LWPOLYLINE
  5
1D2
330
1C
100
AcDbEntity
  8
Р-3
370
    20
100
AcDbPolyline
 90
       48
 70
     0
 43
0.0
 10
1397736.08851588
 20
360130.815075123
 10
1397730.09890404
 20
360130.7751064791
 10
1397723.24890456
 20
360127.505108393
 10
1397710.22890572
 20
360121.915111953
 10
1397704.40890627
 20
360119.615113501
 10
1397698.26890641
 20
360114.995115523
 10
1397690.02890733
 20
360112.435117607
 10
1397676.2089089
 20
360108.3351210551
 10
1397671.88890944
 20
360107.275122098
 10
1397669.72890964
 20
360106.4251226701
 10
1397653.26891083
 20
360098.1151273801
 10
1397653.72891006
 20
360094.61512789
 10
1397641.57891103
 20
360088.895131288
 10
1397634.52250942
 20
360084.571915279
 10
1397633.23891209
 20
360087.0351332671
 10
1397621.6189125
 20
360078.925136974
 10
1397603.10891161
 20
360058.3351442111
 10
1397599.03362601
 20
360054.813125493
 10
1397586.59891082
 20
360040.005150662
 10
1397572.61891017
 20
360024.525156108
 10
1397580.96363476
 20
360015.114596896
 10
1397617.57890425
 20
360033.8451455691
 10
1397635.60890357
 20
360046.105139876
 10
1397645.52890279
 20
360050.845137081
 10
1397656.76890181
 20
360055.675134013
 10
1397659.15290477
 20
360055.7551925361
 10
1397675.74890005
 20
360063.345128925
 10
1397681.92889971
 20
360067.015127057
 10
1397700.3488977
 20
360072.935122379
 10
1397706.62889737
 20
360076.7351204741
 10
1397719.69889586
 20
360080.515117224
 10
1397736.95889295
 20
360080.8851137311
 10
1397738.28889198
 20
360077.125114121
 10
1397744.51889063
 20
360075.785113118
 10
1397752.39888921
 20
360075.4451116151
 10
1397757.24888878
 20
360077.5151102871
 10
1397759.10063969
 20
360078.5270777811
 10
1397768.02888775
 20
360081.715107424
 10
1397775.5288868
 20
360083.5151056171
 10
1397782.20888592
 20
360084.845104069
 10
1397787.46888463
 20
360082.895103358
 10
1397788.36888719
 20
360096.6051008029
 10
1397804.44888373
 20
360093.185098214
 10
1397809.58888733
 20
360115.775093282
 10
1397800.12889059
 20
360123.955093748
 10
1397798.76590679
 20
360118.5669886771
 10
1397763.41889767
 20
360127.685100398
 10
1397736.08851588
 20
360130.815075123
  0
LWPOLYLINE
  5
1D3
330
1C
100
AcDbEntity
  8
Р-3
370
    20
100
AcDbPolyline
 90
       31
 70
     0
 43
0.0
 10
1397603.10891161
 20
360058.3351442111
 10
1397621.6189125
 20
360078.925136974
 10
1397633.23891209
 20
360087.0351332671
 10
1397634.52250942
 20
360084.571915279
 10
1397641.57891103
 20
360088.895131288
 10
1397653.72891007
 20
360094.615127891
 10
1397653.26891083
 20
360098.1151273801
 10
1397669.72890964
 20
360106.4251226701
 10
1397671.88890944
 20
360107.275122098
 10
1397676.2089089
 20
360108.3351210551
 10
1397690.02890733
 20
360112.435117607
 10
1397698.26890641
 20
360114.995115523
 10
1397704.40890627
 20
360119.615113501
 10
1397710.22890572
 20
360121.915111953
 10
1397723.24890456
 20
360127.505108393
 10
1397730.09890404
 20
360130.7751064791
 10
1397736.08812289
 20
360130.815120128
 10
1397734.85890636
 20
360146.5951027991
 10
1397735.01890701
 20
360150.015102174
 10
1397734.63890887
 20
360159.045100694
 10
1397734.57890963
 20
360162.845100045
 10
1397691.01729887
 20
360152.774696105
 10
1397656.91891906
 20
360142.7351189371
 10
1397619.20892119
 20
360120.6251302521
 10
1397615.66892032
 20
360113.17513224
 10
1397613.53891845
 20
360101.895134613
 10
1397609.12891698
 20
360090.64513743
 10
1397592.18891983
 20
360090.2751408561
 10
1397594.49891613
 20
360073.635143278
 10
1397599.14531205
 20
360063.6210651141
 10
1397603.10891161
 20
360058.3351442111
  0
LWPOLYLINE
  5
1D4
330
1C
100
AcDbEntity
  8
Р-3
370
    20
100
AcDbPolyline
 90
       12
 70
     0
 43
0.0
 10
1394212.76955374
 20
360342.535768275
 10
1394242.10611191
 20
360352.21871101
 10
1394237.81955392
 20
360365.2057593801
 10
1394235.50955659
 20
360376.6957578621
 10
1394237.25955751
 20
360382.865756449
 10
1394240.4795606
 20
360401.2557526301
 10
1394236.24956169
 20
360403.0257531601
 10
1394227.73956345
 20
360404.455754604
 10
1394220.74956457
 20
360404.025756062
 10
1394211.73956621
 20
360404.45575778
 10
1394208.23955714
 20
360355.7157669011
 10
1394212.76955374
 20
360342.535768275
  0
LWPOLYLINE
  5
1D5
330
1C
100
AcDbEntity
  8
Р-3
370
    20
100
AcDbPolyline
 90
       10
 70
     0
 43
0.0
 10
1394240.4795606
 20
360401.2557526301
 10
1394250.13698733
 20
360429.8146256311
 10
1394274.3602111
 20
360460.5979564551
 10
1394226.38450852
 20
360470.239401789
 10
1394219.82957153
 20
360438.305750327
 10
1394211.73956621
 20
360404.45575778
 10
1394220.74956457
 20
360404.025756062
 10
1394227.73956345
 20
360404.455754604
 10
1394236.24956169
 20
360403.0257531601
 10
1394240.4795606
 20
360401.2557526301
  0
LWPOLYLINE
  5
32E
330
1C
100
AcDbEntity
  8
Р-3
370
    20
100
AcDbPolyline
 90
       53
 70
     0
 43
0.0
 10
1392693.97132776
 20
355892.703227528
 10
1392599.85967056
 20
355759.995755262
 10
1392528.7910253
 20
355709.3993540011
 10
1392093.36294604
 20
355615.197456132
 10
1391878.61068555
 20
355670.9726123801
 10
1391801.5930145
 20
355672.334772103
 10
1391664.65542949
 20
355618.5783137901
 10
1391639.5298115
 20
355634.435967565
 10
1391654.7298112
 20
355646.115962534
 10
1391658.41707973
 20
355643.5464151701
 10
1391698.1198081
 20
355668.3159500791
 10
1391732.16980647
 20
355689.7059396321
 10
1391756.44980559
 20
355706.355931933
 10
1391769.55980417
 20
355710.665928585
 10
1391770.40450907
 20
355708.1073279861
 10
1391780.81980237
 20
355711.365926234
 10
1391792.86980093
 20
355714.595923286
 10
1391803.87979949
 20
355716.895920704
 10
1391811.05979837
 20
355717.505919166
 10
1391844.36748768
 20
355709.0531851661
 10
1391849.56978953
 20
355706.525913424
 10
1391892.41823189
 20
355699.845949767
 10
1391895.94281834
 20
355713.275511989
 10
1391901.90052579
 20
355723.934911955
 10
1391960.27976801
 20
355694.105893563
 10
1391985.49976041
 20
355678.0758913541
 10
1392065.32973962
 20
355642.745881616
 10
1392099.65973347
 20
355641.6158749921
 10
1392131.89973019
 20
355653.165866602
 10
1392156.47972847
 20
355665.8958595221
 10
1392210.55972464
 20
355693.6558439991
 10
1392222.4697249
 20
355705.305839622
 10
1392236.55972266
 20
355706.335836639
 10
1392264.54971808
 20
355707.565830876
 10
1392282.60971571
 20
355711.345826634
 10
1392291.80703011
 20
355713.18887815
 10
1392297.33971406
 20
355715.8658229361
 10
1392306.05919511
 20
355719.32044107
 10
1392312.36971316
 20
355724.415818475
 10
1392317.14971234
 20
355724.485817518
 10
1392319.5895095
 20
355717.033236689
 10
1392323.60637223
 20
355704.763365552
 10
1392436.27299308
 20
355742.882693325
 10
1392500.70557211
 20
355753.027692305
 10
1392534.04618063
 20
355776.092450605
 10
1392565.08344298
 20
355780.6440341221
 10
1392592.39495886
 20
355828.412711839
 10
1392606.78151177
 20
355869.5467716129
 10
1392597.32082961
 20
355913.9513755411
 10
1392582.64064153
 20
355935.852712398
 10
1392610.02526211
 20
356002.427989398
 10
1392693.96796005
 20
355892.704053865
 10
1392693.97132776
 20
355892.703227528
  0
MTEXT
  5
46F
330
1C
100
AcDbEntity
  8
Р-3
100
AcDbMText
 10
1394536.556244496
 20
360170.748494184
 30
0.0
 40
6.533333333309999
 41
6.533333333309999
 46
0.0
 71
     2
 72
     5
  1
Р-3\Pуч.19
 73
     1
 44
1.0
  0
MTEXT
  5
470
330
1C
100
AcDbEntity
  8
Р-3
100
AcDbMText
 10
1394318.598713296
 20
360207.111721238
 30
0.0
 40
6.533333333309999
 41
6.533333333309999
 46
0.0
 71
     2
 72
     5
  1
Р-3\Pуч.18
 73
     1
 44
1.0
  0
MTEXT
  5
471
330
1C
100
AcDbEntity
  8
Р-3
100
AcDbMText
 10
1394298.379694296
 20
360308.209741279
 30
0.0
 40
6.533333333309999
 41
6.533333333309999
 46
0.0
 71
     2
 72
     5
  1
Р-3\Pуч.20
 73
     1
 44
1.0
  0
MTEXT
  5
472
330
1C
100
AcDbEntity
  8
Р-3
100
AcDbMText
 10
1394490.503109797
 20
360265.337718424
 30
0.0
 40
6.533333333309999
 41
6.533333333309999
 46
0.0
 71
     2
 72
     5
  1
Р-3\Pуч.21
 73
     1
 44
1.0
  0
MTEXT
  5
473
330
1C
100
AcDbEntity
  8
Р-3
100
AcDbMText
 10
1394231.746048326
 20
360441.745950314
 30
0.0
 40
6.533333333309999
 41
6.533333333309999
 46
0.0
 71
     2
 72
     5
  1
Р-3\Pуч.45
 73
     1
 44
1.0
  0
MTEXT
  5
474
330
1C
100
AcDbEntity
  8
Р-3
100
AcDbMText
 10
1394358.717998856
 20
360376.008938093
 30
0.0
 40
6.533333333309999
 41
6.533333333309999
 46
0.0
 71
     2
 72
     5
  1
Р-3\Pуч.23
 73
     1
 44
1.0
  0
MTEXT
  5
475
330
1C
100
AcDbEntity
  8
Р-3
100
AcDbMText
 10
1394390.852558456
 20
360426.49654057
 30
0.0
 40
6.533333333309999
 41
6.533333333309999
 46
0.0
 71
     2
 72
     5
  1
Р-3\Pуч.25
 73
     1
 44
1.0
  0
MTEXT
  5
476
330
1C
100
AcDbEntity
  8
Р-3
100
AcDbMText
 10
1394470.340931416
 20
360380.1110079061
 30
0.0
 40
6.533333333309999
 41
6.533333333309999
 46
0.0
 71
     2
 72
     5
  1
Р-3\Pуч.24
 73
     1
 44
1.0
  0
MTEXT
  5
477
330
1C
100
AcDbEntity
  8
Р-3
100
AcDbMText
 10
1394265.026579226
 20
360534.917533149
 30
0.0
 40
6.533333333309999
 41
6.533333333309999
 46
0.0
 71
     2
 72
     5
  1
Р-3\Pуч.26
 73
     1
 44
1.0
  0
MTEXT
  5
478
330
1C
100
AcDbEntity
  8
Р-3
100
AcDbMText
 10
1394356.045850446
 20
360571.094017956
 30
0.0
 40
6.533333333309999
 41
6.533333333309999
 46
0.0
 71
     2
 72
     5
  1
Р-3\Pуч.27
 73
     1
 44
1.0
  0
MTEXT
  5
479
330
1C
100
AcDbEntity
  8
Р-3
100
AcDbMText
 10
1394483.176634627
 20
360532.5553891861
 30
0.0
 40
6.533333333309999
 41
6.533333333309999
 46
0.0
 71
     2
 72
     5
  1
Р-3\Pуч.28
 73
     1
 44
1.0
  0
MTEXT
  5
47A
330
1C
100
AcDbEntity
  8
Р-3
100
AcDbMText
 10
1394266.251591517
 20
360670.27709645
 30
0.0
 40
6.533333333309999
 41
6.533333333309999
 46
0.0
 71
     2
 72
     5
  1
Р-3\Pуч.30
 73
     1
 44
1.0
  0
MTEXT
  5
47B
330
1C
100
AcDbEntity
  8
Р-3
100
AcDbMText
 10
1394586.362723726
 20
360609.805030759
 30
0.0
 40
6.533333333309999
 41
6.533333333309999
 46
0.0
 71
     2
 72
     5
  1
Р-3\Pуч.29
 73
     1
 44
1.0
  0
MTEXT
  5
47C
330
1C
100
AcDbEntity
  8
Р-3
100
AcDbMText
 10
1394133.265699916
 20
360195.7890241811
 30
0.0
 40
6.533333333309999
 41
6.533333333309999
 46
0.0
 71
     2
 72
     5
  1
Р-3\Pуч.17
 73
     1
 44
1.0
  0
MTEXT
  5
49C
330
1C
100
AcDbEntity
  8
Р-3
100
AcDbMText
 10
1399260.112304516
 20
359344.845025553
 30
0.0
 40
6.533333333309999
 41
6.533333333309999
 46
0.0
 71
     2
 72
     5
  1
Р-3\Pуч.35
 73
     1
 44
1.0
  0
MTEXT
  5
49D
330
1C
100
AcDbEntity
  8
Р-3
100
AcDbMText
 10
1399235.177477617
 20
359753.7636484071
 30
0.0
 40
6.533333333309999
 41
6.533333333309999
 46
0.0
 71
     2
 72
     5
  1
Р-3\Pуч.36
 73
     1
 44
1.0
  0
MTEXT
  5
49E
330
1C
100
AcDbEntity
  8
Р-3
100
AcDbMText
 10
1399234.384679747
 20
359640.480465519
 30
0.0
 40
6.533333333309999
 41
6.533333333309999
 46
0.0
 71
     2
 72
     5
  1
Р-3\Pуч.36
 73
     1
 44
1.0
  0
MTEXT
  5
4A0
330
1C
100
AcDbEntity
  8
Р-3
100
AcDbMText
 10
1397455.290201607
 20
360098.938288618
 30
0.0
 40
6.533333333309999
 41
6.533333333309999
 46
0.0
 71
     2
 72
     5
  1
Р-3\Pуч.32
 73
     1
 44
1.0
  0
MTEXT
  5
4A1
330
1C
100
AcDbEntity
  8
Р-3
100
AcDbMText
 10
1397700.986121666
 20
360106.158253348
 30
0.0
 40
6.533333333309999
 41
6.533333333309999
 46
0.0
 71
     2
 72
     5
  1
Р-3\Pуч.43
 73
     1
 44
1.0
  0
MTEXT
  5
4A7
330
1C
100
AcDbEntity
  8
Р-3
100
AcDbMText
 10
1397961.821162536
 20
358991.119570363
 30
0.0
 40
6.533333333309999
 41
6.533333333309999
 46
0.0
 71
     2
 72
     5
  1
Р-3\Pуч.33
 73
     1
 44
1.0
  0
MTEXT
  5
4A8
330
1C
100
AcDbEntity
  8
Р-3
100
AcDbMText
 10
1398350.406207017
 20
358973.5828003611
 30
0.0
 40
6.533333333309999
 41
6.533333333309999
 46
0.0
 71
     2
 72
     5
  1
Р-3\Pуч.33
 73
     1
 44
1.0
  0
MTEXT
  5
4A9
330
1C
100
AcDbEntity
  8
Р-3
100
AcDbMText
 10
1398666.066648316
 20
358974.454911968
 30
0.0
 40
6.533333333309999
 41
6.533333333309999
 46
0.0
 71
     2
 72
     5
  1
Р-3\Pуч.33
 73
     1
 44
1.0
  0
MTEXT
  5
4AA
330
1C
100
AcDbEntity
  8
Р-3
100
AcDbMText
 10
1398785.596797017
 20
359098.720153929
 30
0.0
 40
6.533333333309999
 41
6.533333333309999
 46
0.0
 71
     2
 72
     5
  1
Р-3\Pуч.34
 73
     1
 44
1.0
  0
MTEXT
  5
531
330
1C
100
AcDbEntity
  8
Р-3
100
AcDbMText
 10
1394485.644023316
 20
360435.367885783
 30
0.0
 40
6.533333333309999
 41
6.533333333309999
 46
0.0
 71
     2
 72
     5
  1
Р-3\Pуч.24
 73
     1
 44
1.0
  0
MTEXT
  5
532
330
1C
100
AcDbEntity
  8
Р-3
100
AcDbMText
 10
1394271.476304957
 20
360733.231989811
 30
0.0
 40
6.533333333309999
 41
6.533333333309999
 46
0.0
 71
     2
 72
     5
  1
Р-3\Pуч.37
 73
     1
 44
1.0
  0
MTEXT
  5
533
330
1C
100
AcDbEntity
  8
Р-3
100
AcDbMText
 10
1394250.722547767
 20
360811.5813229261
 30
0.0
 40
6.533333333309999
 41
6.533333333309999
 46
0.0
 71
     2
 72
     5
  1
Р-3\Pуч.31
 73
     1
 44
1.0
  0
MTEXT
  5
534
330
1C
100
AcDbEntity
  8
Р-3
100
AcDbMText
 10
1394303.625150707
 20
360868.2440182901
 30
0.0
 40
6.533333333309999
 41
6.533333333309999
 46
0.0
 71
     2
 72
     5
  1
Р-3\Pуч.38
 73
     1
 44
1.0
  0
MTEXT
  5
535
330
1C
100
AcDbEntity
  8
Р-3
100
AcDbMText
 10
1396029.984803596
 20
359908.61259533
 30
0.0
 40
6.533333333309999
 41
6.533333333309999
 46
0.0
 71
     2
 72
     5
  1
Р-3\Pуч.39
 73
     1
 44
1.0
  0
MTEXT
  5
543
330
1C
100
AcDbEntity
  8
Р-3
100
AcDbMText
 10
1394351.909388396
 20
360449.464772144
 30
0.0
 40
6.533333333309999
 41
6.533333333309999
 46
0.0
 71
     2
 72
     5
  1
Р-3\Pуч.41
 73
     1
 44
1.0
  0
MTEXT
  5
544
330
1C
100
AcDbEntity
  8
Р-3
100
AcDbMText
 10
1397713.317536626
 20
360071.6487925041
 30
0.0
 40
6.533333333309999
 41
6.533333333309999
 46
0.0
 71
     2
 72
     5
  1
Р-3\Pуч.42
 73
     1
 44
1.0
  0
MTEXT
  5
545
330
1C
100
AcDbEntity
  8
Р-3
100
AcDbMText
 10
1397686.957758637
 20
360143.320805656
 30
0.0
 40
6.533333333309999
 41
6.533333333309999
 46
0.0
 71
     2
 72
     5
  1
Р-3\Pуч.44
 73
     1
 44
1.0
  0
MTEXT
  5
547
330
1C
100
AcDbEntity
  8
Р-3
100
AcDbMText
 10
1394217.993137526
 20
360383.321834153
 30
0.0
 40
6.533333333309999
 41
6.533333333309999
 46
0.0
 71
     2
 72
     5
  1
Р-3\Pуч.22
 73
     1
 44
1.0
  0
MTEXT
  5
58C
330
1C
100
AcDbEntity
  8
Р-3
100
AcDbMText
 10
1391624.449534556
 20
355605.807763589
 30
0.0
 40
6.533333333309999
 41
6.533333333309999
 46
0.0
 71
     2
 72
     5
  1
Р-3\Pуч.1
 73
     1
 44
1.0
  0
MTEXT
  5
58D
330
1C
100
AcDbEntity
  8
Р-3
100
AcDbMText
 10
1391773.107266126
 20
355803.2861631601
 30
0.0
 40
6.533333333309999
 41
6.533333333309999
 46
0.0
 71
     2
 72
     5
  1
Р-3\Pуч.3
 73
     1
 44
1.0
  0
MTEXT
  5
58E
330
1C
100
AcDbEntity
  8
Р-3
100
AcDbMText
 10
1392390.446301936
 20
355715.1354912451
 30
0.0
 40
6.533333333309999
 41
6.533333333309999
 46
0.0
 71
     2
 72
     5
  1
Р-3\Pуч.2
 73
     1
 44
1.0
  0
MTEXT
  5
590
330
1C
100
AcDbEntity
  8
Р-3
100
AcDbMText
 10
1392374.600152207
 20
356124.3123341081
 30
0.0
 40
6.533333333309999
 41
6.533333333309999
 46
0.0
 71
     2
 72
     5
  1
Р-3\Pуч.4
 73
     1
 44
1.0
  0
MTEXT
  5
591
330
1C
100
AcDbEntity
  8
Р-3
100
AcDbMText
 10
1392322.140293426
 20
356517.9410845841
 30
0.0
 40
6.533333333309999
 41
6.533333333309999
 46
0.0
 71
     2
 72
     5
  1
Р-3\Pуч.6
 73
     1
 44
1.0
  0
MTEXT
  5
592
330
1C
100
AcDbEntity
  8
Р-3
100
AcDbMText
 10
1393266.207429107
 20
356954.444949857
 30
0.0
 40
6.533333333309999
 41
6.533333333309999
 46
0.0
 71
     2
 72
     5
  1
Р-3\Pуч.9
 73
     1
 44
1.0
  0
MTEXT
  5
593
330
1C
100
AcDbEntity
  8
Р-3
100
AcDbMText
 10
1393435.214409917
 20
357149.525833136
 30
0.0
 40
6.533333333309999
 41
6.533333333309999
 46
0.0
 71
     2
 72
     5
  1
Р-3\Pуч.9
 73
     1
 44
1.0
  0
MTEXT
  5
594
330
1C
100
AcDbEntity
  8
Р-3
100
AcDbMText
 10
1393440.838223446
 20
357235.523818549
 30
0.0
 40
6.533333333309999
 41
6.533333333309999
 46
0.0
 71
     2
 72
     5
  1
Р-3\Pуч.10
 73
     1
 44
1.0
  0
MTEXT
  5
595
330
1C
100
AcDbEntity
  8
Р-3
100
AcDbMText
 10
1393362.802604876
 20
357275.117816546
 30
0.0
 40
6.533333333309999
 41
6.533333333309999
 46
0.0
 71
     2
 72
     5
  1
Р-3\Pуч.11
 73
     1
 44
1.0
  0
MTEXT
  5
596
330
1C
100
AcDbEntity
  8
Р-3
100
AcDbMText
 10
1393171.752326697
 20
356809.23820534
 30
0.0
 40
6.533333333309999
 41
6.533333333309999
 46
0.0
 71
     2
 72
     5
  1
Р-3\Pуч.8
 73
     1
 44
1.0
  0
MTEXT
  5
597
330
1C
100
AcDbEntity
  8
Р-3
100
AcDbMText
 10
1392932.330276236
 20
356275.7062724221
 30
0.0
 40
6.533333333309999
 41
6.533333333309999
 46
0.0
 71
     2
 72
     5
  1
Р-3\Pуч.5
 73
     1
 44
1.0
  0
MTEXT
  5
598
330
1C
100
AcDbEntity
  8
Р-3
100
AcDbMText
 10
1393493.262072906
 20
357434.26330945
 30
0.0
 40
6.533333333309999
 41
6.533333333309999
 46
0.0
 71
     2
 72
     5
  1
Р-3\Pуч.12
 73
     1
 44
1.0
  0
MTEXT
  5
59B
330
1C
100
AcDbEntity
  8
Р-3
100
AcDbMText
 10
1393273.193612466
 20
356672.757255513
 30
0.0
 40
6.533333333309999
 41
6.533333333309999
 46
0.0
 71
     2
 72
     5
  1
Р-3\Pуч.7
 73
     1
 44
1.0
  0
MTEXT
  5
59C
330
1C
100
AcDbEntity
  8
Р-3
100
AcDbMText
 10
1393922.298085776
 20
357354.2603336301
 30
0.0
 40
6.533333333309999
 41
6.533333333309999
 46
0.0
 71
     2
 72
     5
  1
Р-3\Pуч.13
 73
     1
 44
1.0
  0
MTEXT
  5
59D
330
1C
100
AcDbEntity
  8
Р-3
100
AcDbMText
 10
1393668.490606826
 20
357866.5451324001
 30
0.0
 40
6.533333333309999
 41
6.533333333309999
 46
0.0
 71
     2
 72
     5
  1
Р-3\Pуч.14
 73
     1
 44
1.0
  0
MTEXT
  5
59E
330
1C
100
AcDbEntity
  8
Р-3
100
AcDbMText
 10
1393915.088419116
 20
358088.5413584061
 30
0.0
 40
6.533333333309999
 41
6.533333333309999
 46
0.0
 71
     2
 72
     5
  1
Р-3\Pуч.15
 73
     1
 44
1.0
  0
MTEXT
  5
59F
330
1C
100
AcDbEntity
  8
Р-3
100
AcDbMText
 10
1394469.023078817
 20
358525.530245791
 30
0.0
 40
6.533333333309999
 41
6.533333333309999
 46
0.0
 71
     2
 72
     5
  1
Р-3\Pуч.16
 73
     1
 44
1.0
  0
MTEXT
  5
5D6
330
1C
100
AcDbEntity
  8
Р-3
100
AcDbMText
 10
1391804.381809286
 20
355705.294421751
 30
0.0
 40
6.533333333309999
 41
6.533333333309999
 46
0.0
 71
     2
 72
     5
  1
Р-3\Pуч.2
 73
     1
 44
1.0
  0
MTEXT
  5
5D7
330
1C
100
AcDbEntity
  8
Р-3
100
AcDbMText
 10
1392638.639107496
 20
355905.845601828
 30
0.0
 40
6.533333333309999
 41
6.533333333309999
 46
0.0
 71
     2
 72
     5
  1
Р-3\Pуч.2
 73
     1
 44
1.0
  0
MTEXT
  5
5D9
330
1C
100
AcDbEntity
  8
Р-3
100
AcDbMText
 10
1392288.714435246
 20
355840.7287948571
 30
0.0
 40
6.533333333309999
 41
6.533333333309999
 46
0.0
 71
     2
 72
     5
  1
Р-3\Pуч.3
 73
     1
 44
1.0
  0
MTEXT
  5
5E7
330
1C
100
AcDbEntity
  8
Р-3
100
AcDbMText
 10
1393389.096408886
 20
356951.259562647
 30
0.0
 40
6.533333333309999
 41
6.533333333309999
 46
0.0
 71
     2
 72
     5
  1
Р-3\Pуч.7
 73
     1
 44
1.0
  0
MTEXT
  5
5E8
330
1C
100
AcDbEntity
  8
Р-3
100
AcDbMText
 10
1393782.489806906
 20
357056.2401764251
 30
0.0
 40
6.533333333309999
 41
6.533333333309999
 46
0.0
 71
     2
 72
     5
  1
Р-3\Pуч.7
 73
     1
 44
1.0
  0
MTEXT
  5
5ED
330
1C
100
AcDbEntity
  8
Р-3
100
AcDbMText
 10
1393651.844412427
 20
357557.375108096
 30
0.0
 40
6.533333333309999
 41
6.533333333309999
 46
0.0
 71
     2
 72
     5
  1
Р-3\Pуч.12
 73
     1
 44
1.0
  0
MTEXT
  5
5EE
330
1C
100
AcDbEntity
  8
Р-3
100
AcDbMText
 10
1393794.049049656
 20
357664.402985227
 30
0.0
 40
6.533333333309999
 41
6.533333333309999
 46
0.0
 71
     2
 72
     5
  1
Р-3\Pуч.13
 73
     1
 44
1.0
  0
MTEXT
  5
5F2
330
1C
100
AcDbEntity
  8
Р-3
100
AcDbMText
 10
1393218.974255537
 20
357653.844861261
 30
0.0
 40
6.533333333309999
 41
6.533333333309999
 46
0.0
 71
     2
 72
     5
  1
Р-3\Pуч.14
 73
     1
 44
1.0
  0
MTEXT
  5
5F3
330
1C
100
AcDbEntity
  8
Р-3
100
AcDbMText
 10
1393745.354979857
 20
358056.4994269261
 30
0.0
 40
6.533333333309999
 41
6.533333333309999
 46
0.0
 71
     2
 72
     5
  1
Р-3\Pуч.14
 73
     1
 44
1.0
  0
MTEXT
  5
5F4
330
1C
100
AcDbEntity
  8
Р-3
100
AcDbMText
 10
1394225.069327606
 20
358345.695596595
 30
0.0
 40
6.533333333309999
 41
6.533333333309999
 46
0.0
 71
     2
 72
     5
  1
Р-3\Pуч.15
 73
     1
 44
1.0
  0
CIRCLE
  5
748
330
1C
100
AcDbEntity
  8
Р-3
370
     0
100
AcDbCircle
 10
1394537.11462605
 20
360158.943185833
 30
0.0
 40
16.0
  0
CIRCLE
  5
749
330
1C
100
AcDbEntity
  8
Р-3
370
     0
100
AcDbCircle
 10
1394320.30888422
 20
360195.613069827
 30
0.0
 40
16.0
  0
CIRCLE
  5
74A
330
1C
100
AcDbEntity
  8
Р-3
370
     0
100
AcDbCircle
 10
1394299.80526947
 20
360296.4177063971
 30
0.0
 40
16.0
  0
CIRCLE
  5
74B
330
1C
100
AcDbEntity
  8
Р-3
370
     0
100
AcDbCircle
 10
1394491.92865617
 20
360253.5456912661
 30
0.0
 40
16.0
  0
CIRCLE
  5
74C
330
1C
100
AcDbEntity
  8
Р-3
370
     0
100
AcDbCircle
 10
1394233.7576768
 20
360429.444082884
 30
0.0
 40
16.0
  0
CIRCLE
  5
74D
330
1C
100
AcDbEntity
  8
Р-3
370
     0
100
AcDbCircle
 10
1394360.70891886
 20
360365.05951201
 30
0.0
 40
16.0
  0
CIRCLE
  5
74E
330
1C
100
AcDbEntity
  8
Р-3
370
     0
100
AcDbCircle
 10
1394392.84796826
 20
360415.2540413111
 30
0.0
 40
16.0
  0
CIRCLE
  5
74F
330
1C
100
AcDbEntity
  8
Р-3
370
     0
100
AcDbCircle
 10
1394471.97139539
 20
360368.751952959
 30
0.0
 40
16.0
  0
CIRCLE
  5
750
330
1C
100
AcDbEntity
  8
Р-3
370
     0
100
AcDbCircle
 10
1394267.03821138
 20
360522.615666708
 30
0.0
 40
16.0
  0
CIRCLE
  5
751
330
1C
100
AcDbEntity
  8
Р-3
370
     0
100
AcDbCircle
 10
1394358.05748573
 20
360558.792149428
 30
0.0
 40
16.0
  0
CIRCLE
  5
752
330
1C
100
AcDbEntity
  8
Р-3
370
     0
100
AcDbCircle
 10
1394485.18149761
 20
360520.6958826521
 30
0.0
 40
16.0
  0
CIRCLE
  5
753
330
1C
100
AcDbEntity
  8
Р-3
370
     0
100
AcDbCircle
 10
1394267.16506966
 20
360658.571961058
 30
0.0
 40
16.0
  0
CIRCLE
  5
754
330
1C
100
AcDbEntity
  8
Р-3
370
     0
100
AcDbCircle
 10
1394588.35967145
 20
360598.462722731
 30
0.0
 40
16.0
  0
CIRCLE
  5
755
330
1C
100
AcDbEntity
  8
Р-3
370
     0
100
AcDbCircle
 10
1394135.25169848
 20
360185.1603597771
 30
0.0
 40
16.0
  0
CIRCLE
  5
775
330
1C
100
AcDbEntity
  8
Р-3
370
     0
100
AcDbCircle
 10
1399262.10007881
 20
359334.306542531
 30
0.0
 40
17.0
  0
CIRCLE
  5
776
330
1C
100
AcDbEntity
  8
Р-3
370
     0
100
AcDbCircle
 10
1399236.604622
 20
359743.217414508
 30
0.0
 40
17.0
  0
CIRCLE
  5
777
330
1C
100
AcDbEntity
  8
Р-3
370
     0
100
AcDbCircle
 10
1399236.16209763
 20
359629.9396072011
 30
0.0
 40
17.0
  0
CIRCLE
  5
779
330
1C
100
AcDbEntity
  8
Р-3
370
     0
100
AcDbCircle
 10
1397456.81905927
 20
360087.663968455
 30
0.0
 40
16.0
  0
CIRCLE
  5
77A
330
1C
100
AcDbEntity
  8
Р-3
370
     0
100
AcDbCircle
 10
1397702.2385583
 20
360095.2611482761
 30
0.0
 40
16.0
  0
CIRCLE
  5
780
330
1C
100
AcDbEntity
  8
Р-3
370
     0
100
AcDbCircle
 10
1397963.24854067
 20
358980.555036652
 30
0.0
 40
17.0
  0
CIRCLE
  5
781
330
1C
100
AcDbEntity
  8
Р-3
370
     0
100
AcDbCircle
 10
1398351.83877269
 20
358962.679882396
 30
0.0
 40
17.0
  0
CIRCLE
  5
782
330
1C
100
AcDbEntity
  8
Р-3
370
     0
100
AcDbCircle
 10
1398667.49922047
 20
358963.551985177
 30
0.0
 40
17.0
  0
CIRCLE
  5
783
330
1C
100
AcDbEntity
  8
Р-3
370
     0
100
AcDbCircle
 10
1398787.15378089
 20
359088.6478759661
 30
0.0
 40
17.0
  0
CIRCLE
  5
807
330
1C
100
AcDbEntity
  8
Р-3
370
     0
100
AcDbCircle
 10
1394486.90787546
 20
360424.003217764
 30
0.0
 40
16.0
  0
CIRCLE
  5
808
330
1C
100
AcDbEntity
  8
Р-3
370
     0
100
AcDbCircle
 10
1394272.73879741
 20
360722.439378221
 30
0.0
 40
16.0
  0
CIRCLE
  5
809
330
1C
100
AcDbEntity
  8
Р-3
370
     0
100
AcDbCircle
 10
1394252.7158629
 20
360800.47614903
 30
0.0
 40
15.0
  0
CIRCLE
  5
80A
330
1C
100
AcDbEntity
  8
Р-3
370
     0
100
AcDbCircle
 10
1394305.12253543
 20
360856.7930959071
 30
0.0
 40
15.0
  0
CIRCLE
  5
80B
330
1C
100
AcDbEntity
  8
Р-3
370
     0
100
AcDbCircle
 10
1396031.97844306
 20
359897.487025821
 30
0.0
 40
16.0
  0
CIRCLE
  5
819
330
1C
100
AcDbEntity
  8
Р-3
370
     0
100
AcDbCircle
 10
1394353.90479802
 20
360438.22227451
 30
0.0
 40
16.0
  0
CIRCLE
  5
81A
330
1C
100
AcDbEntity
  8
Р-3
370
     0
100
AcDbCircle
 10
1397714.56997253
 20
360060.7516863961
 30
0.0
 40
16.0
  0
CIRCLE
  5
81B
330
1C
100
AcDbEntity
  8
Р-3
370
     0
100
AcDbCircle
 10
1397688.21019603
 20
360132.4237017221
 30
0.0
 40
16.0
  0
CIRCLE
  5
81D
330
1C
100
AcDbEntity
  8
Р-3
370
     0
100
AcDbCircle
 10
1394220.00476385
 20
360371.0199658771
 30
0.0
 40
16.0
  0
CIRCLE
  5
862
330
1C
100
AcDbEntity
  8
Р-3
370
     0
100
AcDbCircle
 10
1391624.23405879
 20
355595.6471022791
 30
0.0
 40
17.0
  0
CIRCLE
  5
863
330
1C
100
AcDbEntity
  8
Р-3
370
     0
100
AcDbCircle
 10
1391772.60405136
 20
355793.446277133
 30
0.0
 40
16.0
  0
CIRCLE
  5
864
330
1C
100
AcDbEntity
  8
Р-3
370
     0
100
AcDbCircle
 10
1392390.22813041
 20
355704.9177616991
 30
0.0
 40
17.0
  0
CIRCLE
  5
866
330
1C
100
AcDbEntity
  8
Р-3
370
     0
100
AcDbCircle
 10
1392374.63533284
 20
356114.0554960461
 30
0.0
 40
16.0
  0
CIRCLE
  5
867
330
1C
100
AcDbEntity
  8
Р-3
370
     0
100
AcDbCircle
 10
1392321.61206354
 20
356508.452665025
 30
0.0
 40
17.0
  0
CIRCLE
  5
868
330
1C
100
AcDbEntity
  8
Р-3
370
     0
100
AcDbCircle
 10
1393266.5417786
 20
356944.873360138
 30
0.0
 40
16.0
  0
CIRCLE
  5
869
330
1C
100
AcDbEntity
  8
Р-3
370
     0
100
AcDbCircle
 10
1393434.62954768
 20
357139.321117413
 30
0.0
 40
16.0
  0
CIRCLE
  5
86A
330
1C
100
AcDbEntity
  8
Р-3
370
     0
100
AcDbCircle
 10
1393440.97787679
 20
357226.801750598
 30
0.0
 40
17.0
  0
CIRCLE
  5
86B
330
1C
100
AcDbEntity
  8
Р-3
370
     0
100
AcDbCircle
 10
1393362.81214285
 20
357265.046355068
 30
0.0
 40
17.0
  0
CIRCLE
  5
86C
330
1C
100
AcDbEntity
  8
Р-3
370
     0
100
AcDbCircle
 10
1393170.81578782
 20
356799.5204727
 30
0.0
 40
16.0
  0
CIRCLE
  5
86D
330
1C
100
AcDbEntity
  8
Р-3
370
     0
100
AcDbCircle
 10
1392932.29668948
 20
356265.5485969401
 30
0.0
 40
17.0
  0
CIRCLE
  5
86E
330
1C
100
AcDbEntity
  8
Р-3
370
     0
100
AcDbCircle
 10
1393493.79073798
 20
357423.507502478
 30
0.0
 40
17.0
  0
CIRCLE
  5
871
330
1C
100
AcDbEntity
  8
Р-3
370
     0
100
AcDbCircle
 10
1393272.25910124
 20
356662.187322478
 30
0.0
 40
16.0
  0
CIRCLE
  5
872
330
1C
100
AcDbEntity
  8
Р-3
370
     0
100
AcDbCircle
 10
1393921.69760039
 20
357342.0974986471
 30
0.0
 40
17.0
  0
CIRCLE
  5
873
330
1C
100
AcDbEntity
  8
Р-3
370
     0
100
AcDbCircle
 10
1393667.87339528
 20
357854.753450189
 30
0.0
 40
17.0
  0
CIRCLE
  5
874
330
1C
100
AcDbEntity
  8
Р-3
370
     0
100
AcDbCircle
 10
1393914.43772801
 20
358076.487608967
 30
0.0
 40
17.0
  0
CIRCLE
  5
875
330
1C
100
AcDbEntity
  8
Р-3
370
     0
100
AcDbCircle
 10
1394468.41540917
 20
358513.1173037761
 30
0.0
 40
17.0
  0
CIRCLE
  5
8AD
330
1C
100
AcDbEntity
  8
Р-3
370
     0
100
AcDbCircle
 10
1391804.16362803
 20
355695.076707452
 30
0.0
 40
17.0
  0
CIRCLE
  5
8AE
330
1C
100
AcDbEntity
  8
Р-3
370
     0
100
AcDbCircle
 10
1392638.420945
 20
355895.6278688471
 30
0.0
 40
17.0
  0
CIRCLE
  5
8B0
330
1C
100
AcDbEntity
  8
Р-3
370
     0
100
AcDbCircle
 10
1392288.21122939
 20
355830.888896359
 30
0.0
 40
16.0
  0
CIRCLE
  5
8BE
330
1C
100
AcDbEntity
  8
Р-3
370
     0
100
AcDbCircle
 10
1393388.16190689
 20
356940.689630455
 30
0.0
 40
16.0
  0
CIRCLE
  5
8BF
330
1C
100
AcDbEntity
  8
Р-3
370
     0
100
AcDbCircle
 10
1393781.55531341
 20
357045.670235044
 30
0.0
 40
16.0
  0
CIRCLE
  5
8C4
330
1C
100
AcDbEntity
  8
Р-3
370
     0
100
AcDbCircle
 10
1393652.37308378
 20
357546.619298962
 30
0.0
 40
17.0
  0
CIRCLE
  5
8C5
330
1C
100
AcDbEntity
  8
Р-3
370
     0
100
AcDbCircle
 10
1393793.44857202
 20
357652.2401589691
 30
0.0
 40
17.0
  0
CIRCLE
  5
8C9
330
1C
100
AcDbEntity
  8
Р-3
370
     0
100
AcDbCircle
 10
1393218.35703072
 20
357642.053189454
 30
0.0
 40
17.0
  0
CIRCLE
  5
8CA
330
1C
100
AcDbEntity
  8
Р-3
370
     0
100
AcDbCircle
 10
1393744.73777522
 20
358044.707745259
 30
0.0
 40
17.0
  0
CIRCLE
  5
8CB
330
1C
100
AcDbEntity
  8
Р-3
370
     0
100
AcDbCircle
 10
1394224.41864914
 20
358333.641841427
 30
0.0
 40
17.0
  0
VIEWPORT
  5
8E1
330
8DD
100
AcDbEntity
 67
     1
  8
0
100
AcDbViewport
 10
0.0
 20
0.0
 30
0.0
 40
297.0
 41
210.0
 68
     1
 69
     1
 12
50.0
 22
100.0
 13
0.0
 23
0.0
 14
10.0
 24
10.0
 15
10.0
 25
10.0
 16
0.0
 26
0.0
 36
1.0
 17
0.0
 27
0.0
 37
0.0
 42
50.0
 43
0.0
 44
0.0
 45
250.0
 50
0.0
 51
0.0
 72
  1000
 90
   819232
  1

281
     0
 71
     1
 74
     0
110
0.0
120
0.0
130
0.0
111
1.0
121
0.0
131
0.0
112
0.0
122
1.0
132
0.0
 79
     0
146
0.0
170
     0
 61
     5
292
     1
282
     1
141
0.0
142
0.0
 63
   250
421
  3355443
  0
ENDSEC
  0
SECTION
  2
OBJECTS
  0
DICTIONARY
  5
8E6
330
0
100
AcDbDictionary
280
     1
281
     1
  3
ACAD_CIP_PREVIOUS_PRODUCT_INFO
360
93D
  3
ACAD_COLOR
360
921
  3
ACAD_DETAILVIEWSTYLE
360
93A
  3
ACAD_DGNDEFINITIONS
360
F
  3
ACAD_DWFDEFINITIONS
360
10
  3
ACAD_GROUP
360
12
  3
ACAD_IMAGE_DICT
360
E
  3
ACAD_IMAGE_VARS
360
21
  3
ACAD_LAYOUT
360
8E0
  3
ACAD_MATERIAL
360
8EF
  3
ACAD_MLEADERSTYLE
360
936
  3
ACAD_MLINESTYLE
360
B
  3
ACAD_PDFDEFINITIONS
360
11
  3
ACAD_PLOTSETTINGS
360
93C
  3
ACAD_PLOTSTYLENAME
360
8ED
  3
ACAD_SCALELIST
360
924
  3
ACAD_SECTIONVIEWSTYLE
360
938
  3
ACAD_TABLESTYLE
360
922
  3
ACAD_VISUALSTYLE
360
908
  3
ACDB_RECOMPOSE_DATA
360
9B2
  3
AcDbVariableDictionary
360
944
  0
DICTIONARY
  5
6
330
5
100
AcDbDictionary
280
     1
281
     1
  3
ACAD_LAYERSTATES
360
8E7
  0
XRECORD
  5
93D
102
{ACAD_REACTORS
330
8E6
102
}
330
8E6
100
AcDbXrecord
280
     1
300
ACD
300
2020
300
ACD_F_S
  0
DICTIONARY
  5
921
102
{ACAD_REACTORS
330
8E6
102
}
330
8E6
100
AcDbDictionary
281
     1
  0
DICTIONARY
  5
93A
102
{ACAD_REACTORS
330
8E6
102
}
330
8E6
100
AcDbDictionary
281
     1
  3
Imperial24
350
93B
  0
DICTIONARY
  5
F
330
8E6
100
AcDbDictionary
280
     1
281
     1
  0
DICTIONARY
  5
10
330
8E6
100
AcDbDictionary
280
     1
281
     1
  0
DICTIONARY
  5
12
330
8E6
100
AcDbDictionary
280
     1
281
     1
  0
DICTIONARY
  5
E
330
8E6
100
AcDbDictionary
280
     1
281
     1
  0
RASTERVARIABLES
  5
21
330
E
100
AcDbRasterVariables
 90
        0
 70
     1
 71
     1
 72
     0
  0
DICTIONARY
  5
8E0
330
8E6
100
AcDbDictionary
280
     1
281
     1
  3
Layout1
360
8E2
  3
Model
360
20
  0
DICTIONARY
  5
8EF
102
{ACAD_REACTORS
330
8E6
102
}
330
8E6
100
AcDbDictionary
281
     1
  3
ByBlock
350
8F8
  3
ByLayer
350
8F0
  3
Global
350
900
  0
DICTIONARY
  5
936
102
{ACAD_REACTORS
330
8E6
102
}
330
8E6
100
AcDbDictionary
281
     1
  3
Standard
350
937
  0
DICTIONARY
  5
B
330
8E6
100
AcDbDictionary
280
     1
281
     1
  3
Standard
360
1B
  0
DICTIONARY
  5
11
330
8E6
100
AcDbDictionary
280
     1
281
     1
  0
DICTIONARY
  5
93C
102
{ACAD_REACTORS
330
8E6
102
}
330
8E6
100
AcDbDictionary
281
     1
  0
ACDBDICTIONARYWDFLT
  5
8ED
102
{ACAD_REACTORS
330
8E6
102
}
330
8E6
100
AcDbDictionary
281
     1
  3
Normal
350
8EE
100
AcDbDictionaryWithDefault
340
8EE
  0
DICTIONARY
  5
924
102
{ACAD_REACTORS
330
8E6
102
}
330
8E6
100
AcDbDictionary
281
     1
  3
A0
350
925
  3
A1
350
926
  3
A2
350
927
  3
A3
350
928
  3
A4
350
929
  3
A5
350
92A
  3
A6
350
92B
  3
A7
350
92C
  3
A8
350
92D
  3
A9
350
92E
  3
B0
350
92F
  3
B1
350
930
  3
B2
350
931
  3
B3
350
932
  3
B4
350
933
  3
B5
350
934
  3
B6
350
935
  0
DICTIONARY
  5
938
102
{ACAD_REACTORS
330
8E6
102
}
330
8E6
100
AcDbDictionary
281
     1
  3
Imperial24
350
939
  0
DICTIONARY
  5
922
102
{ACAD_REACTORS
330
8E6
102
}
330
8E6
100
AcDbDictionary
281
     1
  3
Standard
350
923
  0
DICTIONARY
  5
908
102
{ACAD_REACTORS
330
8E6
102
}
330
8E6
100
AcDbDictionary
281
     1
  3
2dWireframe
350
90E
  3
Basic
350
90D
  3
Brighten
350
914
  3
ColorChange
350
918
  3
Conceptual
350
911
  3
Dim
350
913
  3
EdgeColorOff
350
920
  3
Facepattern
350
917
  3
Flat
350
909
  3
FlatWithEdges
350
90A
  3
Gouraud
350
90B
  3
GouraudWithEdges
350
90C
  3
Hidden
350
910
  3
JitterOff
350
91E
  3
Linepattern
350
916
  3
OverhangOff
350
91F
  3
Realistic
350
912
  3
Shaded
350
91D
  3
Shaded with edges
350
91C
  3
Shades of Gray
350
919
  3
Sketchy
350
91A
  3
Thicken
350
915
  3
Wireframe
350
90F
  3
X-Ray
350
91B
  0
XRECORD
  5
9B2
102
{ACAD_REACTORS
330
8E6
102
}
330
8E6
100
AcDbXrecord
280
     1
 90
        1
330
923
  0
DICTIONARY
  5
944
102
{ACAD_REACTORS
330
8E6
102
}
330
8E6
100
AcDbDictionary
281
     1
  3
CANNOSCALE
350
949
  3
CMLEADERSTYLE
350
946
  3
CTABLESTYLE
350
945
  3
CVIEWDETAILSTYLE
350
947
  3
CVIEWSECTIONSTYLE
350
948
  0
DICTIONARY
  5
8E7
330
6
100
AcDbDictionary
280
     1
281
     1
  0
ACDBDETAILVIEWSTYLE
  5
93B
102
{ACAD_REACTORS
330
93A
102
}
330
93A
100
AcDbModelDocViewStyle
 70
     0
  3
Imperial24
290
     0
300
Imperial24
 90
        0
100
AcDbDetailViewStyle
 70
     0
 71
     0
 90
        3
 71
     1
340
18
 62
   256
 40
0.24
340
0
 62
   256
 40
0.24
300

 40
0.36
280
     3
 71
     2
340
15
 90
       25
 62
   256
 71
     3
340
18
 62
   256
 40
0.24
 90
        1
 40
0.75
 90
        1
300
%<\AcVar ViewType \f "%tc1">% %<\AcVar ViewDetailId>%\PМАСШТАБ %<\AcVar ViewScale \f "%sn">%
 71
     4
340
15
 90
       25
 62
   256
340
15
 90
       25
 62
   256
280
     0
  0
LAYOUT
  5
8E2
330
8E0
100
AcDbPlotSettings
  1

  2
none_device
  4
ISO_A4_(210.00_x_297.00_MM)
  6

 40
7.5
 41
20.0
 42
7.5
 43
20.0
 44
210.0
 45
297.0
 46
0.0
 47
0.0
 48
0.0
 49
0.0
140
0.0
141
0.0
142
1.0
143
1.0
 70
   688
 72
     1
 73
     1
 74
     1
  7

 75
     0
147
1.0
 76
     0
 77
     2
 78
   300
148
0.0
149
0.0
100
AcDbLayout
  1
Layout1
 70
     1
 71
     1
 10
0.0
 20
0.0
 11
12.0
 21
9.0
 12
0.0
 22
0.0
 32
0.0
 14
1.000000000000000E+20
 24
1.000000000000000E+20
 34
1.000000000000000E+20
 15
-1.000000000000000E+20
 25
-1.000000000000000E+20
 35
-1.000000000000000E+20
146
0.0
 13
0.0
 23
0.0
 33
0.0
 16
1.0
 26
0.0
 36
0.0
 17
0.0
 27
1.0
 37
0.0
 76
     0
330
8DD
331
8E1
  0
LAYOUT
  5
20
330
8E0
100
AcDbPlotSettings
  1

  2
none_device
  4
ISO_A4_(210.00_x_297.00_MM)
  6

 40
7.5
 41
20.0
 42
7.5
 43
20.0
 44
210.0
 45
297.0
 46
0.0
 47
0.0
 48
0.0
 49
0.0
140
0.0
141
0.0
142
1.0
143
1.0
 70
 11952
 72
     1
 73
     1
 74
     1
  7

 75
     0
147
1.0
 76
     0
 77
     2
 78
   300
148
0.0
149
0.0
100
AcDbLayout
  1
Model
 70
     1
 71
     0
 10
1370580.19114949
 20
317189.6127665851
 11
1399948.38546234
 21
361044.1753811011
 12
0.0
 22
0.0
 32
0.0
 14
1399948.38546234
 24
361044.1753811011
 34
0.0
 15
231.3
 25
175.5
 35
0.0
146
0.0
 13
0.0
 23
0.0
 33
0.0
 16
1.0
 26
0.0
 36
0.0
 17
0.0
 27
1.0
 37
0.0
 76
     0
330
1C
331
2
  0
MATERIAL
  5
8F8
102
{ACAD_XDICTIONARY
360
8F9
102
}
102
{ACAD_REACTORS
330
8EF
102
}
330
8EF
100
AcDbMaterial
  1
ByBlock
 72
     0
 43
0.0208333333333333
 43
0.0
 43
0.0
 43
0.0
 43
0.0
 43
0.0208333333333333
 43
0.0
 43
0.0
 43
0.0
 43
0.0
 43
1.0
 43
0.0
 43
0.0
 43
0.0
 43
0.0
 43
1.0
 77
     0
 47
0.0208333333333333
 47
0.0
 47
0.0
 47
0.0
 47
0.0
 47
0.0208333333333333
 47
0.0
 47
0.0
 47
0.0
 47
0.0
 47
1.0
 47
0.0
 47
0.0
 47
0.0
 47
0.0
 47
1.0
171
     0
 49
0.0208333333333333
 49
0.0
 49
0.0
 49
0.0
 49
0.0
 49
0.0208333333333333
 49
0.0
 49
0.0
 49
0.0
 49
0.0
 49
1.0
 49
0.0
 49
0.0
 49
0.0
 49
0.0
 49
1.0
175
     0
142
0.0208333333333333
142
0.0
142
0.0
142
0.0
142
0.0
142
0.0208333333333333
142
0.0
142
0.0
142
0.0
142
0.0
142
1.0
142
0.0
142
0.0
142
0.0
142
0.0
142
1.0
179
     0
144
0.0208333333333333
144
0.0
144
0.0
144
0.0
144
0.0
144
0.0208333333333333
144
0.0
144
0.0
144
0.0
144
0.0
144
1.0
144
0.0
144
0.0
144
0.0
144
0.0
144
1.0
147
0.0208333333333333
147
0.0
147
0.0
147
0.0
147
0.0
147
0.0208333333333333
147
0.0
147
0.0
147
0.0
147
0.0
147
1.0
147
0.0
147
0.0
147
0.0
147
0.0
147
1.0
  0
MATERIAL
  5
8F0
102
{ACAD_XDICTIONARY
360
8F1
102
}
102
{ACAD_REACTORS
330
8EF
102
}
330
8EF
100
AcDbMaterial
  1
ByLayer
 72
     0
 43
0.0208333333333333
 43
0.0
 43
0.0
 43
0.0
 43
0.0
 43
0.0208333333333333
 43
0.0
 43
0.0
 43
0.0
 43
0.0
 43
1.0
 43
0.0
 43
0.0
 43
0.0
 43
0.0
 43
1.0
 77
     0
 47
0.0208333333333333
 47
0.0
 47
0.0
 47
0.0
 47
0.0
 47
0.0208333333333333
 47
0.0
 47
0.0
 47
0.0
 47
0.0
 47
1.0
 47
0.0
 47
0.0
 47
0.0
 47
0.0
 47
1.0
171
     0
 49
0.0208333333333333
 49
0.0
 49
0.0
 49
0.0
 49
0.0
 49
0.0208333333333333
 49
0.0
 49
0.0
 49
0.0
 49
0.0
 49
1.0
 49
0.0
 49
0.0
 49
0.0
 49
0.0
 49
1.0
175
     0
142
0.0208333333333333
142
0.0
142
0.0
142
0.0
142
0.0
142
0.0208333333333333
142
0.0
142
0.0
142
0.0
142
0.0
142
1.0
142
0.0
142
0.0
142
0.0
142
0.0
142
1.0
179
     0
144
0.0208333333333333
144
0.0
144
0.0
144
0.0
144
0.0
144
0.0208333333333333
144
0.0
144
0.0
144
0.0
144
0.0
144
1.0
144
0.0
144
0.0
144
0.0
144
0.0
144
1.0
147
0.0208333333333333
147
0.0
147
0.0
147
0.0
147
0.0
147
0.0208333333333333
147
0.0
147
0.0
147
0.0
147
0.0
147
1.0
147
0.0
147
0.0
147
0.0
147
0.0
147
1.0
  0
MATERIAL
  5
900
102
{ACAD_XDICTIONARY
360
901
102
}
102
{ACAD_REACTORS
330
8EF
102
}
330
8EF
100
AcDbMaterial
  1
Global
 72
     0
 43
0.0208333333333333
 43
0.0
 43
0.0
 43
0.0
 43
0.0
 43
0.0208333333333333
 43
0.0
 43
0.0
 43
0.0
 43
0.0
 43
1.0
 43
0.0
 43
0.0
 43
0.0
 43
0.0
 43
1.0
 77
     0
 47
0.0208333333333333
 47
0.0
 47
0.0
 47
0.0
 47
0.0
 47
0.0208333333333333
 47
0.0
 47
0.0
 47
0.0
 47
0.0
 47
1.0
 47
0.0
 47
0.0
 47
0.0
 47
0.0
 47
1.0
171
     0
 49
0.0208333333333333
 49
0.0
 49
0.0
 49
0.0
 49
0.0
 49
0.0208333333333333
 49
0.0
 49
0.0
 49
0.0
 49
0.0
 49
1.0
 49
0.0
 49
0.0
 49
0.0
 49
0.0
 49
1.0
175
     0
142
0.0208333333333333
142
0.0
142
0.0
142
0.0
142
0.0
142
0.0208333333333333
142
0.0
142
0.0
142
0.0
142
0.0
142
1.0
142
0.0
142
0.0
142
0.0
142
0.0
142
1.0
179
     0
144
0.0208333333333333
144
0.0
144
0.0
144
0.0
144
0.0
144
0.0208333333333333
144
0.0
144
0.0
144
0.0
144
0.0
144
1.0
144
0.0
144
0.0
144
0.0
144
0.0
144
1.0
147
0.0208333333333333
147
0.0
147
0.0
147
0.0
147
0.0
147
0.0208333333333333
147
0.0
147
0.0
147
0.0
147
0.0
147
1.0
147
0.0
147
0.0
147
0.0
147
0.0
147
1.0
  0
MLEADERSTYLE
  5
937
102
{ACAD_REACTORS
330
936
102
}
330
936
100
AcDbMLeaderStyle
179
     2
170
     2
171
     1
172
     0
 90
        2
 40
0.0
 41
0.0
173
     1
 91
-1056964608
340
17
 92
       -2
290
     1
 42
0.09
291
     1
 43
0.36
  3
Standard
 44
0.18
300

342
18
174
     1
178
     6
175
     1
176
     0
 93
-1056964608
 45
0.18
292
     0
297
     0
 46
0.18
 94
-1056964608
 47
1.0
 49
1.0
140
1.0
293
     1
141
0.0
294
     1
177
     0
142
1.0
295
     0
296
     0
143
0.125
271
     0
272
     9
273
     9
298
     0
  0
MLINESTYLE
  5
1B
330
B
100
AcDbMlineStyle
  2
STANDARD
 70
     0
  3

 62
   256
 51
90.0
 52
90.0
 71
     2
 49
0.5
 62
   256
  6
BYLAYER
 49
-0.5
 62
   256
  6
BYLAYER
  0
ACDBPLACEHOLDER
  5
8EE
102
{ACAD_REACTORS
330
8ED
102
}
330
8ED
  0
SCALE
  5
925
102
{ACAD_REACTORS
330
924
102
}
330
924
100
AcDbScale
 70
     0
300
1:1
140
1.0
141
1.0
290
     1
  0
SCALE
  5
926
102
{ACAD_REACTORS
330
924
102
}
330
924
100
AcDbScale
 70
     0
300
1/128" = 1'-0"
140
0.0078125
141
12.0
290
     0
  0
SCALE
  5
927
102
{ACAD_REACTORS
330
924
102
}
330
924
100
AcDbScale
 70
     0
300
1/64" = 1'-0"
140
0.015625
141
12.0
290
     0
  0
SCALE
  5
928
102
{ACAD_REACTORS
330
924
102
}
330
924
100
AcDbScale
 70
     0
300
1/32" = 1'-0"
140
0.03125
141
12.0
290
     0
  0
SCALE
  5
929
102
{ACAD_REACTORS
330
924
102
}
330
924
100
AcDbScale
 70
     0
300
1/16" = 1'-0"
140
0.0625
141
12.0
290
     0
  0
SCALE
  5
92A
102
{ACAD_REACTORS
330
924
102
}
330
924
100
AcDbScale
 70
     0
300
3/32" = 1'-0"
140
0.09375
141
12.0
290
     0
  0
SCALE
  5
92B
102
{ACAD_REACTORS
330
924
102
}
330
924
100
AcDbScale
 70
     0
300
1/8" = 1'-0"
140
0.125
141
12.0
290
     0
  0
SCALE
  5
92C
102
{ACAD_REACTORS
330
924
102
}
330
924
100
AcDbScale
 70
     0
300
3/16" = 1'-0"
140
0.1875
141
12.0
290
     0
  0
SCALE
  5
92D
102
{ACAD_REACTORS
330
924
102
}
330
924
100
AcDbScale
 70
     0
300
1/4" = 1'-0"
140
0.25
141
12.0
290
     0
  0
SCALE
  5
92E
102
{ACAD_REACTORS
330
924
102
}
330
924
100
AcDbScale
 70
     0
300
3/8" = 1'-0"
140
0.375
141
12.0
290
     0
  0
SCALE
  5
92F
102
{ACAD_REACTORS
330
924
102
}
330
924
100
AcDbScale
 70
     0
300
1/2" = 1'-0"
140
0.5
141
12.0
290
     0
  0
SCALE
  5
930
102
{ACAD_REACTORS
330
924
102
}
330
924
100
AcDbScale
 70
     0
300
3/4" = 1'-0"
140
0.75
141
12.0
290
     0
  0
SCALE
  5
931
102
{ACAD_REACTORS
330
924
102
}
330
924
100
AcDbScale
 70
     0
300
1" = 1'-0"
140
1.0
141
12.0
290
     0
  0
SCALE
  5
932
102
{ACAD_REACTORS
330
924
102
}
330
924
100
AcDbScale
 70
     0
300
1-1/2" = 1'-0"
140
1.5
141
12.0
290
     0
  0
SCALE
  5
933
102
{ACAD_REACTORS
330
924
102
}
330
924
100
AcDbScale
 70
     0
300
3" = 1'-0"
140
3.0
141
12.0
290
     0
  0
SCALE
  5
934
102
{ACAD_REACTORS
330
924
102
}
330
924
100
AcDbScale
 70
     0
300
6" = 1'-0"
140
6.0
141
12.0
290
     0
  0
SCALE
  5
935
102
{ACAD_REACTORS
330
924
102
}
330
924
100
AcDbScale
 70
     0
300
1'-0" = 1'-0"
140
12.0
141
12.0
290
     0
  0
ACDBSECTIONVIEWSTYLE
  5
939
102
{ACAD_REACTORS
330
938
102
}
330
938
100
AcDbModelDocViewStyle
 70
     0
  3
Imperial24
290
     0
300
Imperial24
 90
        0
100
AcDbSectionViewStyle
 70
     0
 71
     0
 90
       78
 71
     1
340
18
 62
   256
 40
0.24
340
0
340
0
 62
   256
 40
0.24
300
I, O, Q, S, X, Z
 40
0.48
 90
        3
 40
0.18
 90
        1
 71
     2
340
15
 90
       25
 62
   256
340
15
 90
       50
 62
   256
 40
0.24
 40
0.0
 40
0.24
 71
     3
340
18
 62
   256
 40
0.24
 90
        1
 40
0.75
 90
        1
300
%<\AcVar ViewType \f "%tc1">% %<\AcVar ViewSectionStartId>%-%<\AcVar ViewSectionEndId>%\PМАСШТАБ %<\AcVar ViewScale \f "%sn">%
 71
     4
 62
   256
 62
   257
300
ANSI31
 40
1.0
 90
        0
290
     0
290
     0
 90
        6
 40
0.0
 40
1.570796326794896
 40
0.2617993877991494
 40
1.308996938995747
 40
-0.2617993877991494
 40
1.832595714594046
  0
TABLESTYLE
  5
923
102
{ACAD_XDICTIONARY
360
9B0
102
}
102
{ACAD_REACTORS
330
922
102
}
330
922
100
AcDbTableStyle
280
     0
  3
Standard
 70
     0
 71
     0
 40
0.06
 41
0.06
280
     0
281
     0
  7
Standard
140
0.18
170
     2
 62
     0
 63
     7
283
     0
 90
      512
 91
        0
  1

274
    -2
284
     1
 64
     0
275
    -2
285
     1
 65
     0
276
    -2
286
     1
 66
     0
277
    -2
287
     1
 67
     0
278
    -2
288
     1
 68
     0
279
    -2
289
     1
 69
     0
  7
Standard
140
0.25
170
     5
 62
     0
 63
     7
283
     0
 90
      512
 91
        0
  1

274
    -2
284
     1
 64
     0
275
    -2
285
     1
 65
     0
276
    -2
286
     1
 66
     0
277
    -2
287
     1
 67
     0
278
    -2
288
     1
 68
     0
279
    -2
289
     1
 69
     0
  7
Standard
140
0.18
170
     5
 62
     0
 63
     7
283
     0
 90
      512
 91
        0
  1

274
    -2
284
     1
 64
     0
275
    -2
285
     1
 65
     0
276
    -2
286
     1
 66
     0
277
    -2
287
     1
 67
     0
278
    -2
288
     1
 68
     0
279
    -2
289
     1
 69
     0
  0
VISUALSTYLE
  5
90E
102
{ACAD_REACTORS
330
908
102
}
330
908
100
AcDbVisualStyle
  2
2dWireframe
 70
     4
177
     3
291
     0
 70
    58
 90
        0
176
     1
 90
        2
176
     1
 90
        0
176
     1
 90
        0
176
     1
 40
0.6
176
     1
 40
30.0
176
     1
 62
     7
420
 16777215
176
     1
 90
        1
176
     1
 90
        4
176
     1
 62
     7
176
     1
 62
   257
176
     1
 90
        1
176
     1
 90
        1
176
     1
 40
1.0
176
     1
 90
        0
176
     1
 62
   257
176
     1
 40
1.0
176
     1
 90
        1
176
     1
 90
        6
176
     1
 90
        2
176
     1
 62
     7
176
     1
 90
        5
176
     1
 90
        0
176
     1
 90
        0
176
     1
290
     0
176
     1
 90
        1
176
     1
 40
0.0
176
     1
 90
        0
176
     1
290
     1
176
     1
290
     1
176
     1
290
     0
176
     1
290
     0
176
     1
290
     0
176
     1
290
     0
176
     1
290
     0
176
     1
290
     0
176
     1
290
     0
176
     1
 90
       50
176
     1
 40
0.0
176
     1
 40
1.0
176
     1
 90
        0
176
     1
 62
    18
420
        0
176
     1
 90
       50
176
     1
 90
        3
176
     1
 62
     5
420
      255
176
     1
290
     0
176
     1
 90
       50
176
     1
 90
       50
176
     1
 90
       50
176
     1
290
     0
176
     1
 90
       50
176
     1
 62
   256
176
     0
 40
1.0
176
     0
 90
        2
176
     1
  1
strokes_ogs.tif
176
     1
290
     0
176
     1
 40
1.0
176
     1
 40
1.0
176
     1
  0
VISUALSTYLE
  5
90D
102
{ACAD_REACTORS
330
908
102
}
330
908
100
AcDbVisualStyle
  2
Basic
 70
     7
177
     3
291
     1
 70
    58
 90
        1
176
     1
 90
        0
176
     1
 90
        1
176
     1
 90
        0
176
     1
 40
0.6
176
     1
 40
30.0
176
     1
 62
     7
420
 16777215
176
     1
 90
        0
176
     1
 90
        4
176
     1
 62
     7
176
     1
 62
   257
176
     1
 90
        1
176
     1
 90
        1
176
     1
 40
1.0
176
     1
 90
        8
176
     1
 62
     7
176
     1
 40
1.0
176
     1
 90
        1
176
     1
 90
        6
176
     1
 90
        2
176
     1
 62
     7
176
     1
 90
        5
176
     1
 90
        0
176
     1
 90
        0
176
     1
290
     0
176
     1
 90
        1
176
     1
 40
0.0
176
     1
 90
        0
176
     1
290
     0
176
     1
290
     1
176
     1
290
     1
176
     1
290
     0
176
     1
290
     0
176
     1
290
     0
176
     1
290
     0
176
     1
290
     0
176
     1
290
     0
176
     1
 90
       50
176
     1
 40
0.0
176
     1
 40
1.0
176
     1
 90
        0
176
     1
 62
    18
420
        0
176
     1
 90
       50
176
     1
 90
        3
176
     1
 62
     5
420
      255
176
     1
290
     0
176
     1
 90
       50
176
     1
 90
       50
176
     1
 90
       50
176
     1
290
     0
176
     1
 90
       50
176
     1
 62
   256
176
     0
 40
1.0
176
     0
 90
        2
176
     1
  1
strokes_ogs.tif
176
     1
290
     0
176
     1
 40
1.0
176
     1
 40
1.0
176
     1
  0
VISUALSTYLE
  5
914
102
{ACAD_REACTORS
330
908
102
}
330
908
100
AcDbVisualStyle
  2
Brighten
 70
    12
177
     3
291
     1
 70
    58
 90
        2
176
     1
 90
        2
176
     1
 90
        0
176
     1
 90
        0
176
     1
 40
0.6
176
     1
 40
30.0
176
     1
 62
     7
420
 16777215
176
     1
 90
        1
176
     1
 90
        4
176
     1
 62
     7
176
     1
 62
   257
176
     1
 90
        1
176
     1
 90
        1
176
     1
 40
1.0
176
     1
 90
        8
176
     1
 62
     7
176
     1
 40
1.0
176
     1
 90
        1
176
     1
 90
        6
176
     1
 90
        2
176
     1
 62
     7
176
     1
 90
        5
176
     1
 90
        0
176
     1
 90
        0
176
     1
290
     0
176
     1
 90
        1
176
     1
 40
50.0
176
     1
 90
        0
176
     1
290
     0
176
     1
290
     1
176
     1
290
     1
176
     1
290
     0
176
     1
290
     0
176
     1
290
     0
176
     1
290
     0
176
     1
290
     0
176
     1
290
     0
176
     1
 90
       50
176
     1
 40
0.0
176
     1
 40
1.0
176
     1
 90
        0
176
     1
 62
    18
420
        0
176
     1
 90
       50
176
     1
 90
        3
176
     1
 62
     5
420
      255
176
     1
290
     0
176
     1
 90
       50
176
     1
 90
       50
176
     1
 90
       50
176
     1
290
     0
176
     1
 90
       50
176
     1
 62
   256
176
     0
 40
1.0
176
     0
 90
        2
176
     1
  1
strokes_ogs.tif
176
     1
290
     0
176
     1
 40
1.0
176
     1
 40
1.0
176
     1
  0
VISUALSTYLE
  5
918
102
{ACAD_REACTORS
330
908
102
}
330
908
100
AcDbVisualStyle
  2
ColorChange
 70
    16
177
     3
291
     1
 70
    58
 90
        2
176
     1
 90
        2
176
     1
 90
        3
176
     1
 90
        0
176
     1
 40
0.6
176
     1
 40
30.0
176
     1
 62
     8
420
  8421504
176
     1
 90
        1
176
     1
 90
        4
176
     1
 62
     7
176
     1
 62
   257
176
     1
 90
        1
176
     1
 90
        1
176
     1
 40
1.0
176
     1
 90
        8
176
     1
 62
     8
420
  8421504
176
     1
 40
1.0
176
     1
 90
        1
176
     1
 90
        6
176
     1
 90
        2
176
     1
 62
     7
176
     1
 90
        5
176
     1
 90
        0
176
     1
 90
        0
176
     1
290
     0
176
     1
 90
        1
176
     1
 40
0.0
176
     1
 90
        0
176
     1
290
     0
176
     1
290
     1
176
     1
290
     1
176
     1
290
     0
176
     1
290
     0
176
     1
290
     0
176
     1
290
     0
176
     1
290
     0
176
     1
290
     0
176
     1
 90
       50
176
     1
 40
0.0
176
     1
 40
1.0
176
     1
 90
        0
176
     1
 62
    18
420
        0
176
     1
 90
       50
176
     1
 90
        3
176
     1
 62
     5
420
      255
176
     1
290
     0
176
     1
 90
       50
176
     1
 90
       50
176
     1
 90
       50
176
     1
290
     0
176
     1
 90
       50
176
     1
 62
   256
176
     0
 40
1.0
176
     0
 90
        2
176
     1
  1
strokes_ogs.tif
176
     1
290
     0
176
     1
 40
1.0
176
     1
 40
1.0
176
     1
  0
VISUALSTYLE
  5
911
102
{ACAD_REACTORS
330
908
102
}
330
908
100
AcDbVisualStyle
  2
Conceptual
 70
     9
177
     3
291
     0
 70
    58
 90
        3
176
     1
 90
        2
176
     1
 90
        0
176
     1
 90
        0
176
     1
 40
0.6
176
     1
 40
30.0
176
     1
 62
     7
420
 16777215
176
     1
 90
        2
176
     1
 90
        2
176
     1
 62
     7
176
     1
 62
   257
176
     1
 90
        1
176
     1
 90
        1
176
     1
 40
179.0
176
     1
 90
        8
176
     1
 62
     7
176
     1
 40
1.0
176
     1
 90
        1
176
     1
 90
        6
176
     1
 90
        2
176
     1
 62
     7
176
     1
 90
        3
176
     1
 90
        0
176
     1
 90
        0
176
     1
290
     0
176
     1
 90
        1
176
     1
 40
0.0
176
     1
 90
        0
176
     1
290
     0
176
     1
290
     1
176
     1
290
     1
176
     1
290
     0
176
     1
290
     0
176
     1
290
     0
176
     1
290
     0
176
     1
290
     0
176
     1
290
     0
176
     1
 90
       50
176
     1
 40
0.0
176
     1
 40
1.0
176
     1
 90
        0
176
     1
 62
    18
420
        0
176
     1
 90
       50
176
     1
 90
        3
176
     1
 62
     5
420
      255
176
     1
290
     0
176
     1
 90
       50
176
     1
 90
       50
176
     1
 90
       50
176
     1
290
     0
176
     1
 90
       50
176
     1
 62
   256
176
     0
 40
1.0
176
     0
 90
        2
176
     1
  1
strokes_ogs.tif
176
     1
290
     0
176
     1
 40
1.0
176
     1
 40
1.0
176
     1
  0
VISUALSTYLE
  5
913
102
{ACAD_REACTORS
330
908
102
}
330
908
100
AcDbVisualStyle
  2
Dim
 70
    11
177
     3
291
     1
 70
    58
 90
        2
176
     1
 90
        2
176
     1
 90
        0
176
     1
 90
        0
176
     1
 40
0.6
176
     1
 40
30.0
176
     1
 62
     7
420
 16777215
176
     1
 90
        1
176
     1
 90
        4
176
     1
 62
     7
176
     1
 62
   257
176
     1
 90
        1
176
     1
 90
        1
176
     1
 40
1.0
176
     1
 90
        8
176
     1
 62
     7
176
     1
 40
1.0
176
     1
 90
        1
176
     1
 90
        6
176
     1
 90
        2
176
     1
 62
     7
176
     1
 90
        5
176
     1
 90
        0
176
     1
 90
        0
176
     1
290
     0
176
     1
 90
        1
176
     1
 40
-50.0
176
     1
 90
        0
176
     1
290
     0
176
     1
290
     1
176
     1
290
     1
176
     1
290
     0
176
     1
290
     0
176
     1
290
     0
176
     1
290
     0
176
     1
290
     0
176
     1
290
     0
176
     1
 90
       50
176
     1
 40
0.0
176
     1
 40
1.0
176
     1
 90
        0
176
     1
 62
    18
420
        0
176
     1
 90
       50
176
     1
 90
        3
176
     1
 62
     5
420
      255
176
     1
290
     0
176
     1
 90
       50
176
     1
 90
       50
176
     1
 90
       50
176
     1
290
     0
176
     1
 90
       50
176
     1
 62
   256
176
     0
 40
1.0
176
     0
 90
        2
176
     1
  1
strokes_ogs.tif
176
     1
290
     0
176
     1
 40
1.0
176
     1
 40
1.0
176
     1
  0
VISUALSTYLE
  5
920
102
{ACAD_REACTORS
330
908
102
}
330
908
100
AcDbVisualStyle
  2
EdgeColorOff
 70
    22
177
     3
291
     1
 70
    58
 90
        2
176
     0
 90
        2
176
     0
 90
        0
176
     0
 90
        0
176
     0
 40
0.6
176
     0
 40
30.0
176
     0
 62
     7
420
 16777215
176
     0
 90
        1
176
     0
 90
        4
176
     0
 62
     7
176
     0
 62
   257
176
     0
 90
        1
176
     0
 90
        1
176
     0
 40
1.0
176
     0
 90
        8
176
     2
 62
     7
176
     0
 40
1.0
176
     0
 90
        1
176
     0
 90
        6
176
     0
 90
        2
176
     0
 62
     7
176
     0
 90
        5
176
     0
 90
        0
176
     0
 90
        0
176
     0
290
     0
176
     0
 90
        1
176
     0
 40
0.0
176
     0
 90
        0
176
     0
290
     0
176
     1
290
     1
176
     1
290
     1
176
     1
290
     0
176
     1
290
     0
176
     1
290
     0
176
     1
290
     0
176
     1
290
     0
176
     1
290
     0
176
     1
 90
       50
176
     0
 40
0.0
176
     0
 40
1.0
176
     0
 90
        0
176
     0
 62
    18
420
        0
176
     0
 90
       50
176
     0
 90
        3
176
     0
 62
     5
420
      255
176
     0
290
     0
176
     1
 90
       50
176
     0
 90
       50
176
     0
 90
       50
176
     0
290
     0
176
     1
 90
       50
176
     0
 62
   256
176
     0
 40
1.0
176
     0
 90
        2
176
     0
  1
strokes_ogs.tif
176
     0
290
     0
176
     1
 40
1.0
176
     0
 40
1.0
176
     0
  0
VISUALSTYLE
  5
917
102
{ACAD_REACTORS
330
908
102
}
330
908
100
AcDbVisualStyle
  2
Facepattern
 70
    15
177
     3
291
     1
 70
    58
 90
        2
176
     1
 90
        2
176
     1
 90
        0
176
     1
 90
        0
176
     1
 40
0.6
176
     1
 40
30.0
176
     1
 62
     7
420
 16777215
176
     1
 90
        1
176
     1
 90
        4
176
     1
 62
     7
176
     1
 62
   257
176
     1
 90
        1
176
     1
 90
        1
176
     1
 40
1.0
176
     1
 90
        8
176
     1
 62
     7
176
     1
 40
1.0
176
     1
 90
        1
176
     1
 90
        6
176
     1
 90
        2
176
     1
 62
     7
176
     1
 90
        5
176
     1
 90
        0
176
     1
 90
        0
176
     1
290
     0
176
     1
 90
        1
176
     1
 40
0.0
176
     1
 90
        0
176
     1
290
     0
176
     1
290
     1
176
     1
290
     1
176
     1
290
     0
176
     1
290
     0
176
     1
290
     0
176
     1
290
     0
176
     1
290
     0
176
     1
290
     0
176
     1
 90
       50
176
     1
 40
0.0
176
     1
 40
1.0
176
     1
 90
        0
176
     1
 62
    18
420
        0
176
     1
 90
       50
176
     1
 90
        3
176
     1
 62
     5
420
      255
176
     1
290
     0
176
     1
 90
       50
176
     1
 90
       50
176
     1
 90
       50
176
     1
290
     0
176
     1
 90
       50
176
     1
 62
   256
176
     0
 40
1.0
176
     0
 90
        2
176
     1
  1
strokes_ogs.tif
176
     1
290
     0
176
     1
 40
1.0
176
     1
 40
1.0
176
     1
  0
VISUALSTYLE
  5
909
102
{ACAD_REACTORS
330
908
102
}
330
908
100
AcDbVisualStyle
  2
Flat
 70
     0
177
     3
291
     1
 70
    58
 90
        2
176
     1
 90
        1
176
     1
 90
        1
176
     1
 90
        2
176
     1
 40
0.6
176
     1
 40
30.0
176
     1
 62
     7
420
 16777215
176
     1
 90
        0
176
     1
 90
        0
176
     1
 62
     7
176
     1
 62
   257
176
     1
 90
        1
176
     1
 90
        1
176
     1
 40
1.0
176
     1
 90
        8
176
     1
 62
     7
176
     1
 40
1.0
176
     1
 90
        1
176
     1
 90
        6
176
     1
 90
        2
176
     1
 62
     7
176
     1
 90
        5
176
     1
 90
        0
176
     1
 90
        0
176
     1
290
     0
176
     1
 90
       13
176
     1
 40
0.0
176
     1
 90
        0
176
     1
290
     0
176
     1
290
     1
176
     1
290
     1
176
     1
290
     0
176
     1
290
     0
176
     1
290
     0
176
     1
290
     0
176
     1
290
     0
176
     1
290
     0
176
     1
 90
       50
176
     1
 40
0.0
176
     1
 40
1.0
176
     1
 90
        0
176
     1
 62
    18
420
        0
176
     1
 90
       50
176
     1
 90
        3
176
     1
 62
     5
420
      255
176
     1
290
     0
176
     1
 90
       50
176
     1
 90
       50
176
     1
 90
       50
176
     1
290
     0
176
     1
 90
       50
176
     1
 62
   256
176
     0
 40
1.0
176
     0
 90
        2
176
     1
  1
strokes_ogs.tif
176
     1
290
     0
176
     1
 40
1.0
176
     1
 40
1.0
176
     1
  0
VISUALSTYLE
  5
90A
102
{ACAD_REACTORS
330
908
102
}
330
908
100
AcDbVisualStyle
  2
FlatWithEdges
 70
     1
177
     3
291
     1
 70
    58
 90
        2
176
     1
 90
        1
176
     1
 90
        1
176
     1
 90
        2
176
     1
 40
0.6
176
     1
 40
30.0
176
     1
 62
     7
420
 16777215
176
     1
 90
        1
176
     1
 90
        0
176
     1
 62
     7
176
     1
 62
   257
176
     1
 90
        1
176
     1
 90
        1
176
     1
 40
1.0
176
     1
 90
        0
176
     1
 62
   257
176
     1
 40
1.0
176
     1
 90
        1
176
     1
 90
        6
176
     1
 90
        2
176
     1
 62
     7
176
     1
 90
        5
176
     1
 90
        0
176
     1
 90
        0
176
     1
290
     0
176
     1
 90
       13
176
     1
 40
0.0
176
     1
 90
        0
176
     1
290
     0
176
     1
290
     1
176
     1
290
     1
176
     1
290
     0
176
     1
290
     0
176
     1
290
     0
176
     1
290
     0
176
     1
290
     0
176
     1
290
     0
176
     1
 90
       50
176
     1
 40
0.0
176
     1
 40
1.0
176
     1
 90
        0
176
     1
 62
    18
420
        0
176
     1
 90
       50
176
     1
 90
        3
176
     1
 62
     5
420
      255
176
     1
290
     0
176
     1
 90
       50
176
     1
 90
       50
176
     1
 90
       50
176
     1
290
     0
176
     1
 90
       50
176
     1
 62
   256
176
     0
 40
1.0
176
     0
 90
        2
176
     1
  1
strokes_ogs.tif
176
     1
290
     0
176
     1
 40
1.0
176
     1
 40
1.0
176
     1
  0
VISUALSTYLE
  5
90B
102
{ACAD_REACTORS
330
908
102
}
330
908
100
AcDbVisualStyle
  2
Gouraud
 70
     2
177
     3
291
     1
 70
    58
 90
        2
176
     1
 90
        2
176
     1
 90
        1
176
     1
 90
        2
176
     1
 40
0.6
176
     1
 40
30.0
176
     1
 62
     7
420
 16777215
176
     1
 90
        0
176
     1
 90
        0
176
     1
 62
     7
176
     1
 62
   257
176
     1
 90
        1
176
     1
 90
        1
176
     1
 40
1.0
176
     1
 90
        0
176
     1
 62
     7
176
     1
 40
1.0
176
     1
 90
        1
176
     1
 90
        6
176
     1
 90
        2
176
     1
 62
     7
176
     1
 90
        5
176
     1
 90
        0
176
     1
 90
        0
176
     1
290
     0
176
     1
 90
       13
176
     1
 40
0.0
176
     1
 90
        0
176
     1
290
     0
176
     1
290
     1
176
     1
290
     1
176
     1
290
     0
176
     1
290
     0
176
     1
290
     0
176
     1
290
     0
176
     1
290
     0
176
     1
290
     0
176
     1
 90
       50
176
     1
 40
0.0
176
     1
 40
1.0
176
     1
 90
        0
176
     1
 62
    18
420
        0
176
     1
 90
       50
176
     1
 90
        3
176
     1
 62
     5
420
      255
176
     1
290
     0
176
     1
 90
       50
176
     1
 90
       50
176
     1
 90
       50
176
     1
290
     0
176
     1
 90
       50
176
     1
 62
   256
176
     0
 40
1.0
176
     0
 90
        2
176
     1
  1
strokes_ogs.tif
176
     1
290
     0
176
     1
 40
1.0
176
     1
 40
1.0
176
     1
  0
VISUALSTYLE
  5
90C
102
{ACAD_REACTORS
330
908
102
}
330
908
100
AcDbVisualStyle
  2
GouraudWithEdges
 70
     3
177
     3
291
     1
 70
    58
 90
        2
176
     1
 90
        2
176
     1
 90
        1
176
     1
 90
        2
176
     1
 40
0.6
176
     1
 40
30.0
176
     1
 62
     7
420
 16777215
176
     1
 90
        1
176
     1
 90
        0
176
     1
 62
     7
176
     1
 62
   257
176
     1
 90
        1
176
     1
 90
        1
176
     1
 40
1.0
176
     1
 90
        0
176
     1
 62
   257
176
     1
 40
1.0
176
     1
 90
        1
176
     1
 90
        6
176
     1
 90
        2
176
     1
 62
     7
176
     1
 90
        5
176
     1
 90
        0
176
     1
 90
        0
176
     1
290
     0
176
     1
 90
       13
176
     1
 40
0.0
176
     1
 90
        0
176
     1
290
     0
176
     1
290
     1
176
     1
290
     1
176
     1
290
     0
176
     1
290
     0
176
     1
290
     0
176
     1
290
     0
176
     1
290
     0
176
     1
290
     0
176
     1
 90
       50
176
     1
 40
0.0
176
     1
 40
1.0
176
     1
 90
        0
176
     1
 62
    18
420
        0
176
     1
 90
       50
176
     1
 90
        3
176
     1
 62
     5
420
      255
176
     1
290
     0
176
     1
 90
       50
176
     1
 90
       50
176
     1
 90
       50
176
     1
290
     0
176
     1
 90
       50
176
     1
 62
   256
176
     0
 40
1.0
176
     0
 90
        2
176
     1
  1
strokes_ogs.tif
176
     1
290
     0
176
     1
 40
1.0
176
     1
 40
1.0
176
     1
  0
VISUALSTYLE
  5
910
102
{ACAD_REACTORS
330
908
102
}
330
908
100
AcDbVisualStyle
  2
Hidden
 70
     6
177
     3
291
     0
 70
    58
 90
        1
176
     1
 90
        2
176
     1
 90
        2
176
     1
 90
        0
176
     1
 40
0.6
176
     1
 40
30.0
176
     1
 62
     7
420
 16777215
176
     1
 90
        2
176
     1
 90
        2
176
     1
 62
     7
176
     1
 62
   257
176
     1
 90
        2
176
     1
 90
        1
176
     1
 40
40.0
176
     1
 90
        0
176
     1
 62
   257
176
     1
 40
1.0
176
     1
 90
        1
176
     1
 90
        6
176
     1
 90
        2
176
     1
 62
     7
176
     1
 90
        3
176
     1
 90
        0
176
     1
 90
        0
176
     1
290
     0
176
     1
 90
        1
176
     1
 40
0.0
176
     1
 90
        0
176
     1
290
     0
176
     1
290
     1
176
     1
290
     1
176
     1
290
     0
176
     1
290
     0
176
     1
290
     0
176
     1
290
     0
176
     1
290
     0
176
     1
290
     0
176
     1
 90
       50
176
     1
 40
0.0
176
     1
 40
1.0
176
     1
 90
        0
176
     1
 62
    18
420
        0
176
     1
 90
       50
176
     1
 90
        3
176
     1
 62
     5
420
      255
176
     1
290
     0
176
     1
 90
       50
176
     1
 90
       50
176
     1
 90
       50
176
     1
290
     0
176
     1
 90
       50
176
     1
 62
   256
176
     0
 40
1.0
176
     0
 90
        2
176
     1
  1
strokes_ogs.tif
176
     1
290
     0
176
     1
 40
1.0
176
     1
 40
1.0
176
     1
  0
VISUALSTYLE
  5
91E
102
{ACAD_REACTORS
330
908
102
}
330
908
100
AcDbVisualStyle
  2
JitterOff
 70
    20
177
     3
291
     1
 70
    58
 90
        2
176
     0
 90
        2
176
     0
 90
        0
176
     0
 90
        0
176
     0
 40
0.6
176
     0
 40
30.0
176
     0
 62
     7
420
 16777215
176
     0
 90
        1
176
     0
 90
        4
176
     0
 62
     7
176
     0
 62
   257
176
     0
 90
        1
176
     0
 90
        1
176
     0
 40
1.0
176
     0
 90
       10
176
     2
 62
     7
176
     0
 40
1.0
176
     0
 90
        1
176
     0
 90
        6
176
     0
 90
        2
176
     0
 62
     7
176
     0
 90
        5
176
     0
 90
        0
176
     0
 90
        0
176
     0
290
     0
176
     0
 90
        1
176
     0
 40
0.0
176
     0
 90
        0
176
     0
290
     0
176
     1
290
     1
176
     1
290
     1
176
     1
290
     0
176
     1
290
     0
176
     1
290
     0
176
     1
290
     0
176
     1
290
     0
176
     1
290
     0
176
     1
 90
       50
176
     0
 40
0.0
176
     0
 40
1.0
176
     0
 90
        0
176
     0
 62
    18
420
        0
176
     0
 90
       50
176
     0
 90
        3
176
     0
 62
     5
420
      255
176
     0
290
     0
176
     1
 90
       50
176
     0
 90
       50
176
     0
 90
       50
176
     0
290
     0
176
     1
 90
       50
176
     0
 62
   256
176
     0
 40
1.0
176
     0
 90
        2
176
     0
  1
strokes_ogs.tif
176
     0
290
     0
176
     1
 40
1.0
176
     0
 40
1.0
176
     0
  0
VISUALSTYLE
  5
916
102
{ACAD_REACTORS
330
908
102
}
330
908
100
AcDbVisualStyle
  2
Linepattern
 70
    14
177
     3
291
     1
 70
    58
 90
        2
176
     1
 90
        2
176
     1
 90
        0
176
     1
 90
        0
176
     1
 40
0.6
176
     1
 40
30.0
176
     1
 62
     7
420
 16777215
176
     1
 90
        1
176
     1
 90
        4
176
     1
 62
     7
176
     1
 62
   257
176
     1
 90
        7
176
     1
 90
        7
176
     1
 40
1.0
176
     1
 90
        8
176
     1
 62
     7
176
     1
 40
1.0
176
     1
 90
        1
176
     1
 90
        6
176
     1
 90
        2
176
     1
 62
     7
176
     1
 90
        5
176
     1
 90
        0
176
     1
 90
        0
176
     1
290
     0
176
     1
 90
        1
176
     1
 40
0.0
176
     1
 90
        0
176
     1
290
     0
176
     1
290
     1
176
     1
290
     1
176
     1
290
     0
176
     1
290
     0
176
     1
290
     0
176
     1
290
     0
176
     1
290
     0
176
     1
290
     0
176
     1
 90
       50
176
     1
 40
0.0
176
     1
 40
1.0
176
     1
 90
        0
176
     1
 62
    18
420
        0
176
     1
 90
       50
176
     1
 90
        3
176
     1
 62
     5
420
      255
176
     1
290
     0
176
     1
 90
       50
176
     1
 90
       50
176
     1
 90
       50
176
     1
290
     0
176
     1
 90
       50
176
     1
 62
   256
176
     0
 40
1.0
176
     0
 90
        2
176
     1
  1
strokes_ogs.tif
176
     1
290
     0
176
     1
 40
1.0
176
     1
 40
1.0
176
     1
  0
VISUALSTYLE
  5
91F
102
{ACAD_REACTORS
330
908
102
}
330
908
100
AcDbVisualStyle
  2
OverhangOff
 70
    21
177
     3
291
     1
 70
    58
 90
        2
176
     0
 90
        2
176
     0
 90
        0
176
     0
 90
        0
176
     0
 40
0.6
176
     0
 40
30.0
176
     0
 62
     7
420
 16777215
176
     0
 90
        1
176
     0
 90
        4
176
     0
 62
     7
176
     0
 62
   257
176
     0
 90
        1
176
     0
 90
        1
176
     0
 40
1.0
176
     0
 90
        9
176
     2
 62
     7
176
     0
 40
1.0
176
     0
 90
        1
176
     0
 90
        6
176
     0
 90
        2
176
     0
 62
     7
176
     0
 90
        5
176
     0
 90
        0
176
     0
 90
        0
176
     0
290
     0
176
     0
 90
        1
176
     0
 40
0.0
176
     0
 90
        0
176
     0
290
     0
176
     1
290
     1
176
     1
290
     1
176
     1
290
     0
176
     1
290
     0
176
     1
290
     0
176
     1
290
     0
176
     1
290
     0
176
     1
290
     0
176
     1
 90
       50
176
     0
 40
0.0
176
     0
 40
1.0
176
     0
 90
        0
176
     0
 62
    18
420
        0
176
     0
 90
       50
176
     0
 90
        3
176
     0
 62
     5
420
      255
176
     0
290
     0
176
     1
 90
       50
176
     0
 90
       50
176
     0
 90
       50
176
     0
290
     0
176
     1
 90
       50
176
     0
 62
   256
176
     0
 40
1.0
176
     0
 90
        2
176
     0
  1
strokes_ogs.tif
176
     0
290
     0
176
     1
 40
1.0
176
     0
 40
1.0
176
     0
  0
VISUALSTYLE
  5
912
102
{ACAD_REACTORS
330
908
102
}
330
908
100
AcDbVisualStyle
  2
Realistic
 70
     8
177
     3
291
     0
 70
    58
 90
        2
176
     1
 90
        3
176
     1
 90
        0
176
     1
 90
        2
176
     1
 40
0.6
176
     1
 40
30.0
176
     1
 62
     7
420
 16777215
176
     1
 90
        0
176
     1
 90
        0
176
     1
 62
     7
176
     1
 62
   257
176
     1
 90
        1
176
     1
 90
        1
176
     1
 40
1.0
176
     1
 90
        8
176
     1
 62
   257
176
     1
 40
1.0
176
     1
 90
        1
176
     1
 90
        6
176
     1
 90
        2
176
     1
 62
     7
176
     1
 90
        3
176
     1
 90
        0
176
     1
 90
        0
176
     1
290
     0
176
     1
 90
       13
176
     1
 40
0.0
176
     1
 90
        0
176
     1
290
     0
176
     1
290
     1
176
     1
290
     1
176
     1
290
     0
176
     1
290
     0
176
     1
290
     0
176
     1
290
     0
176
     1
290
     0
176
     1
290
     0
176
     1
 90
       50
176
     1
 40
0.0
176
     1
 40
1.0
176
     1
 90
        0
176
     1
 62
    18
420
        0
176
     1
 90
       50
176
     1
 90
        3
176
     1
 62
     5
420
      255
176
     1
290
     0
176
     1
 90
       50
176
     1
 90
       50
176
     1
 90
       50
176
     1
290
     0
176
     1
 90
       50
176
     1
 62
   256
176
     0
 40
1.0
176
     0
 90
        2
176
     1
  1
strokes_ogs.tif
176
     1
290
     0
176
     1
 40
1.0
176
     1
 40
1.0
176
     1
  0
VISUALSTYLE
  5
91D
102
{ACAD_REACTORS
330
908
102
}
330
908
100
AcDbVisualStyle
  2
Shaded
 70
    27
177
     3
291
     0
 70
    58
 90
        2
176
     1
 90
        2
176
     1
 90
        1
176
     1
 90
        2
176
     1
 40
0.6
176
     1
 40
30.0
176
     1
 62
     7
420
 16777215
176
     1
 90
        0
176
     1
 90
        4
176
     1
 62
     7
176
     1
 62
   257
176
     1
 90
        1
176
     1
 90
        1
176
     1
 40
1.0
176
     1
 90
        8
176
     1
 62
   257
176
     1
 40
1.0
176
     1
 90
        1
176
     1
 90
        6
176
     1
 90
        2
176
     1
 62
     8
420
  7895160
176
     1
 90
        3
176
     1
 90
        0
176
     1
 90
        0
176
     1
290
     0
176
     1
 90
        5
176
     1
 40
0.0
176
     1
 90
        0
176
     1
290
     0
176
     1
290
     1
176
     1
290
     1
176
     1
290
     0
176
     1
290
     0
176
     1
290
     0
176
     1
290
     0
176
     1
290
     0
176
     1
290
     0
176
     1
 90
       50
176
     1
 40
0.0
176
     1
 40
1.0
176
     1
 90
        0
176
     1
 62
    18
420
        0
176
     1
 90
       50
176
     1
 90
        3
176
     1
 62
     5
420
      255
176
     1
290
     0
176
     1
 90
       50
176
     1
 90
       50
176
     1
 90
       50
176
     1
290
     0
176
     1
 90
       50
176
     1
 62
   256
176
     0
 40
1.0
176
     0
 90
        2
176
     1
  1
strokes_ogs.tif
176
     1
290
     0
176
     1
 40
1.0
176
     1
 40
1.0
176
     1
  0
VISUALSTYLE
  5
91C
102
{ACAD_REACTORS
330
908
102
}
330
908
100
AcDbVisualStyle
  2
Shaded with edges
 70
    26
177
     3
291
     0
 70
    58
 90
        2
176
     1
 90
        2
176
     1
 90
        1
176
     1
 90
        2
176
     1
 40
0.6
176
     1
 40
30.0
176
     1
 62
     7
420
 16777215
176
     1
 90
        1
176
     1
 90
        2
176
     1
 62
     7
176
     1
 62
   257
176
     1
 90
        2
176
     1
 90
        1
176
     1
 40
1.0
176
     1
 90
        8
176
     1
 62
   257
176
     1
 40
1.0
176
     1
 90
        1
176
     1
 90
        6
176
     1
 90
        2
176
     1
 62
     7
176
     1
 90
        3
176
     1
 90
        0
176
     1
 90
        0
176
     1
290
     0
176
     1
 90
        5
176
     1
 40
0.0
176
     1
 90
        0
176
     1
290
     0
176
     1
290
     1
176
     1
290
     1
176
     1
290
     0
176
     1
290
     0
176
     1
290
     0
176
     1
290
     0
176
     1
290
     0
176
     1
290
     0
176
     1
 90
       50
176
     1
 40
0.0
176
     1
 40
1.0
176
     1
 90
        0
176
     1
 62
    18
420
        0
176
     1
 90
       50
176
     1
 90
        3
176
     1
 62
     5
420
      255
176
     1
290
     0
176
     1
 90
       50
176
     1
 90
       50
176
     1
 90
       50
176
     1
290
     0
176
     1
 90
       50
176
     1
 62
   256
176
     0
 40
1.0
176
     0
 90
        2
176
     1
  1
strokes_ogs.tif
176
     1
290
     0
176
     1
 40
1.0
176
     1
 40
1.0
176
     1
  0
VISUALSTYLE
  5
919
102
{ACAD_REACTORS
330
908
102
}
330
908
100
AcDbVisualStyle
  2
Shades of Gray
 70
    23
177
     3
291
     0
 70
    58
 90
        2
176
     1
 90
        2
176
     1
 90
        3
176
     1
 90
        0
176
     1
 40
0.6
176
     1
 40
30.0
176
     1
 62
     7
420
 16777215
176
     1
 90
        2
176
     1
 90
        2
176
     1
 62
     7
176
     1
 62
     7
176
     1
 90
        1
176
     1
 90
        1
176
     1
 40
40.0
176
     1
 90
        8
176
     1
 62
     7
176
     1
 40
1.0
176
     1
 90
        1
176
     1
 90
        6
176
     1
 90
        2
176
     1
 62
     7
176
     1
 90
        3
176
     1
 90
        0
176
     1
 90
        0
176
     1
290
     0
176
     1
 90
        1
176
     1
 40
0.0
176
     1
 90
        0
176
     1
290
     0
176
     1
290
     1
176
     1
290
     1
176
     1
290
     0
176
     1
290
     0
176
     1
290
     0
176
     1
290
     0
176
     1
290
     0
176
     1
290
     0
176
     1
 90
       50
176
     1
 40
0.0
176
     1
 40
1.0
176
     1
 90
        0
176
     1
 62
    18
420
        0
176
     1
 90
       50
176
     1
 90
        3
176
     1
 62
     5
420
      255
176
     1
290
     0
176
     1
 90
       50
176
     1
 90
       50
176
     1
 90
       50
176
     1
290
     0
176
     1
 90
       50
176
     1
 62
   256
176
     0
 40
1.0
176
     0
 90
        2
176
     1
  1
strokes_ogs.tif
176
     1
290
     0
176
     1
 40
1.0
176
     1
 40
1.0
176
     1
  0
VISUALSTYLE
  5
91A
102
{ACAD_REACTORS
330
908
102
}
330
908
100
AcDbVisualStyle
  2
Sketchy
 70
    24
177
     3
291
     0
 70
    58
 90
        1
176
     1
 90
        2
176
     1
 90
        2
176
     1
 90
        0
176
     1
 40
0.6
176
     1
 40
30.0
176
     1
 62
     7
420
 16777215
176
     1
 90
        2
176
     1
 90
        2
176
     1
 62
     7
176
     1
 62
     7
176
     1
 90
        1
176
     1
 90
        1
176
     1
 40
40.0
176
     1
 90
       11
176
     1
 62
     7
176
     1
 40
1.0
176
     1
 90
        1
176
     1
 90
        6
176
     1
 90
        2
176
     1
 62
     7
176
     1
 90
        6
176
     1
 90
        0
176
     1
 90
        0
176
     1
290
     0
176
     1
 90
        1
176
     1
 40
0.0
176
     1
 90
        0
176
     1
290
     0
176
     1
290
     1
176
     1
290
     1
176
     1
290
     0
176
     1
290
     0
176
     1
290
     0
176
     1
290
     0
176
     1
290
     0
176
     1
290
     0
176
     1
 90
       50
176
     1
 40
0.0
176
     1
 40
1.0
176
     1
 90
        0
176
     1
 62
    18
420
        0
176
     1
 90
       50
176
     1
 90
        3
176
     1
 62
     5
420
      255
176
     1
290
     0
176
     1
 90
       50
176
     1
 90
       50
176
     1
 90
       50
176
     1
290
     0
176
     1
 90
       50
176
     1
 62
   256
176
     0
 40
1.0
176
     0
 90
        2
176
     1
  1
strokes_ogs.tif
176
     1
290
     0
176
     1
 40
1.0
176
     1
 40
1.0
176
     1
  0
VISUALSTYLE
  5
915
102
{ACAD_REACTORS
330
908
102
}
330
908
100
AcDbVisualStyle
  2
Thicken
 70
    13
177
     3
291
     1
 70
    58
 90
        2
176
     1
 90
        2
176
     1
 90
        0
176
     1
 90
        0
176
     1
 40
0.6
176
     1
 40
30.0
176
     1
 62
     7
420
 16777215
176
     1
 90
        1
176
     1
 90
        4
176
     1
 62
     7
176
     1
 62
   257
176
     1
 90
        1
176
     1
 90
        1
176
     1
 40
1.0
176
     1
 90
       12
176
     1
 62
     7
176
     1
 40
1.0
176
     1
 90
        1
176
     1
 90
        6
176
     1
 90
        2
176
     1
 62
     7
176
     1
 90
        5
176
     1
 90
        0
176
     1
 90
        0
176
     1
290
     0
176
     1
 90
        1
176
     1
 40
0.0
176
     1
 90
        0
176
     1
290
     0
176
     1
290
     1
176
     1
290
     1
176
     1
290
     0
176
     1
290
     0
176
     1
290
     0
176
     1
290
     0
176
     1
290
     0
176
     1
290
     0
176
     1
 90
       50
176
     1
 40
0.0
176
     1
 40
1.0
176
     1
 90
        0
176
     1
 62
    18
420
        0
176
     1
 90
       50
176
     1
 90
        3
176
     1
 62
     5
420
      255
176
     1
290
     0
176
     1
 90
       50
176
     1
 90
       50
176
     1
 90
       50
176
     1
290
     0
176
     1
 90
       50
176
     1
 62
   256
176
     0
 40
1.0
176
     0
 90
        2
176
     1
  1
strokes_ogs.tif
176
     1
290
     0
176
     1
 40
1.0
176
     1
 40
1.0
176
     1
  0
VISUALSTYLE
  5
90F
102
{ACAD_REACTORS
330
908
102
}
330
908
100
AcDbVisualStyle
  2
Wireframe
 70
     5
177
     3
291
     0
 70
    58
 90
        0
176
     1
 90
        2
176
     1
 90
        0
176
     1
 90
        0
176
     1
 40
0.6
176
     1
 40
30.0
176
     1
 62
     7
420
 16777215
176
     1
 90
        1
176
     1
 90
        4
176
     1
 62
     7
176
     1
 62
   257
176
     1
 90
        1
176
     1
 90
        1
176
     1
 40
1.0
176
     1
 90
        0
176
     1
 62
   257
176
     1
 40
1.0
176
     1
 90
        1
176
     1
 90
        6
176
     1
 90
        2
176
     1
 62
     7
176
     1
 90
        3
176
     1
 90
        0
176
     1
 90
        0
176
     1
290
     0
176
     1
 90
        1
176
     1
 40
0.0
176
     1
 90
        0
176
     1
290
     0
176
     1
290
     1
176
     1
290
     1
176
     1
290
     0
176
     1
290
     0
176
     1
290
     0
176
     1
290
     0
176
     1
290
     0
176
     1
290
     0
176
     1
 90
       50
176
     1
 40
0.0
176
     1
 40
1.0
176
     1
 90
        0
176
     1
 62
    18
420
        0
176
     1
 90
       50
176
     1
 90
        3
176
     1
 62
     5
420
      255
176
     1
290
     0
176
     1
 90
       50
176
     1
 90
       50
176
     1
 90
       50
176
     1
290
     0
176
     1
 90
       50
176
     1
 62
   256
176
     0
 40
1.0
176
     0
 90
        2
176
     1
  1
strokes_ogs.tif
176
     1
290
     0
176
     1
 40
1.0
176
     1
 40
1.0
176
     1
  0
VISUALSTYLE
  5
91B
102
{ACAD_REACTORS
330
908
102
}
330
908
100
AcDbVisualStyle
  2
X-Ray
 70
    25
177
     3
291
     0
 70
    58
 90
        2
176
     1
 90
        2
176
     1
 90
        1
176
     1
 90
        1
176
     1
 40
0.5
176
     1
 40
30.0
176
     1
 62
     7
420
 16777215
176
     1
 90
        1
176
     1
 90
        0
176
     1
 62
     7
176
     1
 62
   257
176
     1
 90
        1
176
     1
 90
        1
176
     1
 40
1.0
176
     1
 90
        8
176
     1
 62
     7
176
     1
 40
1.0
176
     1
 90
        1
176
     1
 90
        6
176
     1
 90
        2
176
     1
 62
     7
176
     1
 90
        3
176
     1
 90
        0
176
     1
 90
        0
176
     1
290
     0
176
     1
 90
       13
176
     1
 40
0.0
176
     1
 90
        0
176
     1
290
     0
176
     1
290
     1
176
     1
290
     1
176
     1
290
     0
176
     1
290
     0
176
     1
290
     0
176
     1
290
     0
176
     1
290
     0
176
     1
290
     0
176
     1
 90
       50
176
     1
 40
0.0
176
     1
 40
1.0
176
     1
 90
        0
176
     1
 62
    18
420
        0
176
     1
 90
       50
176
     1
 90
        3
176
     1
 62
     5
420
      255
176
     1
290
     0
176
     1
 90
       50
176
     1
 90
       50
176
     1
 90
       50
176
     1
290
     0
176
     1
 90
       50
176
     1
 62
   256
176
     0
 40
1.0
176
     0
 90
        2
176
     1
  1
strokes_ogs.tif
176
     1
290
     0
176
     1
 40
1.0
176
     1
 40
1.0
176
     1
  0
DICTIONARYVAR
  5
949
102
{ACAD_REACTORS
330
944
102
}
330
944
100
DictionaryVariables
280
     0
  1
1:1
  0
DICTIONARYVAR
  5
946
102
{ACAD_REACTORS
330
944
102
}
330
944
100
DictionaryVariables
280
     0
  1
STANDARD
  0
DICTIONARYVAR
  5
945
102
{ACAD_REACTORS
330
944
102
}
330
944
100
DictionaryVariables
280
     0
  1
STANDARD
  0
DICTIONARYVAR
  5
947
102
{ACAD_REACTORS
330
944
102
}
330
944
100
DictionaryVariables
280
     0
  1
Imperial24
  0
DICTIONARYVAR
  5
948
102
{ACAD_REACTORS
330
944
102
}
330
944
100
DictionaryVariables
280
     0
  1
Imperial24
  0
DICTIONARY
  5
8F9
330
8F8
100
AcDbDictionary
280
     1
281
     1
  3
BUMPTILE
360
8FB
  3
DIFFUSETILE
360
8FA
  3
OPACITYTILE
360
8FE
  3
REFLECTIONTILE
360
8FD
  3
REFRACTIONTILE
360
8FF
  3
SPECULARTILE
360
8FC
  0
DICTIONARY
  5
8F1
330
8F0
100
AcDbDictionary
280
     1
281
     1
  3
BUMPTILE
360
8F3
  3
DIFFUSETILE
360
8F2
  3
OPACITYTILE
360
8F6
  3
REFLECTIONTILE
360
8F5
  3
REFRACTIONTILE
360
8F7
  3
SPECULARTILE
360
8F4
  0
DICTIONARY
  5
901
330
900
100
AcDbDictionary
280
     1
281
     1
  3
BUMPTILE
360
903
  3
DIFFUSETILE
360
902
  3
OPACITYTILE
360
906
  3
REFLECTIONTILE
360
905
  3
REFRACTIONTILE
360
907
  3
SPECULARTILE
360
904
  0
DICTIONARY
  5
9B0
330
923
100
AcDbDictionary
280
     1
281
     1
  3
ACAD_ROUNDTRIP_2008_TABLESTYLE_CELLSTYLEMAP
360
9B1
  0
XRECORD
  5
8FB
102
{ACAD_REACTORS
330
8F9
102
}
330
8F9
100
AcDbXrecord
280
     1
270
     1
271
     1
  0
XRECORD
  5
8FA
102
{ACAD_REACTORS
330
8F9
102
}
330
8F9
100
AcDbXrecord
280
     1
270
     1
271
     1
  0
XRECORD
  5
8FE
102
{ACAD_REACTORS
330
8F9
102
}
330
8F9
100
AcDbXrecord
280
     1
270
     1
271
     1
  0
XRECORD
  5
8FD
102
{ACAD_REACTORS
330
8F9
102
}
330
8F9
100
AcDbXrecord
280
     1
270
     1
271
     1
  0
XRECORD
  5
8FF
102
{ACAD_REACTORS
330
8F9
102
}
330
8F9
100
AcDbXrecord
280
     1
270
     1
271
     1
  0
XRECORD
  5
8FC
102
{ACAD_REACTORS
330
8F9
102
}
330
8F9
100
AcDbXrecord
280
     1
270
     1
271
     1
  0
XRECORD
  5
8F3
102
{ACAD_REACTORS
330
8F1
102
}
330
8F1
100
AcDbXrecord
280
     1
270
     1
271
     1
  0
XRECORD
  5
8F2
102
{ACAD_REACTORS
330
8F1
102
}
330
8F1
100
AcDbXrecord
280
     1
270
     1
271
     1
  0
XRECORD
  5
8F6
102
{ACAD_REACTORS
330
8F1
102
}
330
8F1
100
AcDbXrecord
280
     1
270
     1
271
     1
  0
XRECORD
  5
8F5
102
{ACAD_REACTORS
330
8F1
102
}
330
8F1
100
AcDbXrecord
280
     1
270
     1
271
     1
  0
XRECORD
  5
8F7
102
{ACAD_REACTORS
330
8F1
102
}
330
8F1
100
AcDbXrecord
280
     1
270
     1
271
     1
  0
XRECORD
  5
8F4
102
{ACAD_REACTORS
330
8F1
102
}
330
8F1
100
AcDbXrecord
280
     1
270
     1
271
     1
  0
XRECORD
  5
903
102
{ACAD_REACTORS
330
901
102
}
330
901
100
AcDbXrecord
280
     1
270
     1
271
     1
  0
XRECORD
  5
902
102
{ACAD_REACTORS
330
901
102
}
330
901
100
AcDbXrecord
280
     1
270
     1
271
     1
  0
XRECORD
  5
906
102
{ACAD_REACTORS
330
901
102
}
330
901
100
AcDbXrecord
280
     1
270
     1
271
     1
  0
XRECORD
  5
905
102
{ACAD_REACTORS
330
901
102
}
330
901
100
AcDbXrecord
280
     1
270
     1
271
     1
  0
XRECORD
  5
907
102
{ACAD_REACTORS
330
901
102
}
330
901
100
AcDbXrecord
280
     1
270
     1
271
     1
  0
XRECORD
  5
904
102
{ACAD_REACTORS
330
901
102
}
330
901
100
AcDbXrecord
280
     1
270
     1
271
     1
  0
CELLSTYLEMAP
  5
9B1
102
{ACAD_REACTORS
330
9B0
102
}
330
9B0
100
AcDbCellStyleMap
 90
        3
300
CELLSTYLE
  1
TABLEFORMAT_BEGIN
 90
        5
170
     1
 91
        0
 92
    32768
 62
   257
 93
        1
300
CONTENTFORMAT
  1
CONTENTFORMAT_BEGIN
 90
        0
 91
        0
 92
      512
 93
        0
300

 40
0.0
140
1.0
 94
        5
 62
     0
340
18
144
0.25
309
CONTENTFORMAT_END
171
     0
 94
        0
309
TABLEFORMAT_END
  1
CELLSTYLE_BEGIN
 90
        1
 91
        1
300
_TITLE
309
CELLSTYLE_END
300
CELLSTYLE
  1
TABLEFORMAT_BEGIN
 90
        5
170
     1
 91
        0
 92
        0
 62
   257
 93
        1
300
CONTENTFORMAT
  1
CONTENTFORMAT_BEGIN
 90
        0
 91
        0
 92
      512
 93
        0
300

 40
0.0
140
1.0
 94
        5
 62
     0
340
18
144
0.18
309
CONTENTFORMAT_END
171
     0
 94
        0
309
TABLEFORMAT_END
  1
CELLSTYLE_BEGIN
 90
        2
 91
        1
300
_HEADER
309
CELLSTYLE_END
300
CELLSTYLE
  1
TABLEFORMAT_BEGIN
 90
        5
170
     1
 91
        0
 92
        0
 62
   257
 93
        1
300
CONTENTFORMAT
  1
CONTENTFORMAT_BEGIN
 90
        0
 91
        0
 92
      512
 93
        0
300

 40
0.0
140
1.0
 94
        2
 62
     0
340
18
144
0.18
309
CONTENTFORMAT_END
171
     0
 94
        0
309
TABLEFORMAT_END
  1
CELLSTYLE_BEGIN
 90
        3
 91
        2
300
_DATA
309
CELLSTYLE_END
  0
ENDSEC
  0
SECTION
  2
ACDSDATA
 70
     2
 71
     8
  0
ACDSSCHEMA
 90
        0
  1
AcDb_Thumbnail_Schema
  2
AcDbDs::ID
280
    10
 91
        8
  2
Thumbnail_Data
280
    15
 91
        0
101
ACDSRECORD
 95
        0
 90
        1
  2
AcDbDs::TreatedAsObjectData
280
     1
291
     1
101
ACDSRECORD
 95
        0
 90
        2
  2
AcDbDs::Legacy
280
     1
291
     1
101
ACDSRECORD
  1
AcDbDs::ID
 90
        3
  2
AcDs:Indexable
280
     1
291
     1
101
ACDSRECORD
  1
AcDbDs::ID
 90
        4
  2
AcDbDs::HandleAttribute
280
     7
282
     1
  0
ACDSSCHEMA
 90
        1
  1
AcDbDs::TreatedAsObjectDataSchema
  2
AcDbDs::TreatedAsObjectData
280
     1
 91
        0
  0
ACDSSCHEMA
 90
        2
  1
AcDbDs::LegacySchema
  2
AcDbDs::Legacy
280
     1
 91
        0
  0
ACDSSCHEMA
 90
        3
  1
AcDbDs::IndexedPropertySchema
  2
AcDs:Indexable
280
     1
 91
        0
  0
ACDSSCHEMA
 90
        4
  1
AcDbDs::HandleAttributeSchema
  2
AcDbDs::HandleAttribute
280
     7
 91
        1
284
     1
  0
ACDSRECORD
 90
        0
  2
AcDbDs::ID
280
    10
320
20
  2
Thumbnail_Data
280
    15
 94
     2420
310
89504E470D0A1A0A0000000D4948445200000100000000A30803000000525330A000000300504C5445212830FFFFFF2128300000000000000000000000000000000000000000000000000000330000660000990000CC0000FF0033000033330033660033990033CC0033FF0066000066330066660066990066CC0066FF0099
310
000099330099660099990099CC0099FF00CC0000CC3300CC6600CC9900CCCC00CCFF00FF0000FF3300FF6600FF9900FFCC00FFFF3300003300333300663300993300CC3300FF3333003333333333663333993333CC3333FF3366003366333366663366993366CC3366FF3399003399333399663399993399CC3399FF33CC00
310
33CC3333CC6633CC9933CCCC33CCFF33FF0033FF3333FF6633FF9933FFCC33FFFF6600006600336600666600996600CC6600FF6633006633336633666633996633CC6633FF6666006666336666666666996666CC6666FF6699006699336699666699996699CC6699FF66CC0066CC3366CC6666CC9966CCCC66CCFF66FF0066
310
FF3366FF6666FF9966FFCC66FFFF9900009900339900669900999900CC9900FF9933009933339933669933999933CC9933FF9966009966339966669966999966CC9966FF9999009999339999669999999999CC9999FF99CC0099CC3399CC6699CC9999CCCC99CCFF99FF0099FF3399FF6699FF9999FFCC99FFFFCC0000CC00
310
33CC0066CC0099CC00CCCC00FFCC3300CC3333CC3366CC3399CC33CCCC33FFCC6600CC6633CC6666CC6699CC66CCCC66FFCC9900CC9933CC9966CC9999CC99CCCC99FFCCCC00CCCC33CCCC66CCCC99CCCCCCCCCCFFCCFF00CCFF33CCFF66CCFF99CCFFCCCCFFFFFF0000FF0033FF0066FF0099FF00CCFF00FFFF3300FF3333
310
FF3366FF3399FF33CCFF33FFFF6600FF6633FF6666FF6699FF66CCFF66FFFF9900FF9933FF9966FF9999FF99CCFF99FFFFCC00FFCC33FFCC66FFCC99FFCCCCFFCCFFFFFF00FFFF33FFFF66FFFF99FFFFCCFFFFFF0000000D0D0D1A1A1A2828283535354343435050505D5D5D6B6B6B787878868686939393A1A1A1AEAEAEBB
310
BBBBC9C9C9D6D6D6E4E4E4F1F1F1FFFFFF0000000000000000000000000000000000000000000000000000000000002E4550F1000001284944415478DAEDD94B8AC330100450DFFF6875AAD98C3D03218218052CD57B9B6CD3E5D6FF38000000E0A6A43E806102E94E20296890419115F50FFABCA6FEB7936371FDDD1FBFBE
310
FE54AC7E2F4BE1F5CDCFAF9FAE8ECFD5F6D74FBAEAFFADF8AFFFBB127899FDD23A11FE8F22A5B5D71C833E3B17EE7F5ABC13405C271CA0FB6B4F8C0ECCDB3447EE7CFEE15DE2F6DD9C41132CB789BEFB7FF79904323D51EB437303344C817B2570DE8419B6D5FBE4CCCE336BAD0AF972004F8F20D303586C6FF8F5BFF7F000
310
263E062E79999E696F00E713D372011C330358AF07527E7CC9BC0E58F634DCFEBE11CF1B009D0B6079FDF5CBBFF5DFBEAFB3F1230043003001D8FC690030F6ED7F4D7E00A6413B8182048C0200000000000000000000000000000000000078841F1F56E1ADFFF7731A0000000049454E44AE426082FC2C037C42FB4BDDC3A6
310
C320270AFC22017CD24F3609809756BFC60137E38FC684E9094986ABD6E501017E2F21240DD0FA73E115D3F307CAC0B603FC6495E42C806A4E5C644C16E5B4170069A076A64C9E0BBB3705407D3162BB8D46A78976E2DF3475EA9AF7B38029AE0F5300E96FD8FABD1507908B7DA6006CF60C36464CC2697350D08C1A3FCA00
310
4A4F64937C692CA203029239D90601B06949B9BEB5E85EF3F9AF20A0A885CB40906532AE6EBA1CA0521093D3C52A96D4AF662665889039E2CDFAF3E9FE979D0F204FC390E62494A7C5F3A31304698C309BAF6EAF394264A38C15B2EBFC8180DEA5540D810B02170CC96E682264990CC9FBF465701E99E82445262BF560ED0F
310
04F4ADA5BA4ACE0134EC25089631083448CAF4961C427791D2299A335D6459EEB84E003A47C8ECBD4513CC792CCA79A7C44DCCD3C1ECD04BEF5064504AC78B7D256B892E13808E6512ABFC5AF1D7C84F259D9BE46EF5CEC74E55DF735AF80F023AB9C0226BF31EA8F9BFDA50F42BEA17FE7234E61D03297B224D5835687C4F
310
0CBE1C025B5B94AF700094298FDD96B80F89F472CA078B092278D501B4534CDC4027CC396BB89E788D8063E3B8471858476B2E9B7DBACE09BA6942DA0E1149E1CFFB285A129D20CAF2C25A62BE9C014F72F447FBA5E6174D2A5A4924C52FEF8D65BDC7559F54956D90B655DA1DF195F5EF3A51D0B547238856D2A2D5355873
310
07D2C448DA28547A42CEF3FB077C2DFFF5D3D330976D4622BCA2589D54B6980717116AC2D10710E0E603CC17D69FBA12804D02C0BE15D0645FAB052E9D23BF94B9682CDC6885F9688DFAC580E89EDA7EAF0FE12480A54AB32B978EEA4ABD0BEC5BCBDB1A9DA85F0F900B6C91668A9658321EEBA830E7792FE7796B9AEA1AEB
310
1D73DBF71542ABF3C0C8F2FA2A011045C3A52BF27A54F246723F20A09D29D41B923D9550B3B5A9F16B054F74AD4B00EB6989B786CC9573AC13304D30C1ACBEAF9D595F02D078C0ECF4396FEBA00BFEDEA1B3043849C81BA7E9A471829BCE597BCAD4A909A6F2BFAB8775D5C60ECA6E7FD57EA67D916339738D00D57C286E54
310
722D682F2D046A6240C53E8A5B2518FB0E70DCABAEFA80CE9A298BEE527AF56C0665F5AB4E40EF0B44710FA4CD3B98B73B935D5F5DD396F90DD3949BEDAA9EF6EE84919A36D8F846465BDEED84275B3D1C9AB97384B59052ABC253B4C99E4A1B9FAFCE7F3A0414E6ADBF6BB6082BD980DDD2BA31F7362991A7AE754D36EDFF
310
865D55588B95F34C4DC289BA79C915D28C6D6763FDAD3BA9C59E27C3CF7876FBF3B3D7C8BC9727BE60CB34DD179DAEE7612E79EA3302FF430135B71F7F8E02D2D9C7831F7BC5EA3F28D826E13B088006FEE3F50E5064C54B63B03732A0B5A68F03340DD697D96F443CAAE5EA74798E82EF22E06A57FB827FF9BB097803B9E3
310
1240077DC620148C6DFFE8EB1F087C4F03343C0118DD7E8CBEFE837F45C8B7CC253E360CE0B407363403437F490C40C37F4F50B442814020101A6834F3C79EC8E997438DDBFF52FED4D7B0EB3FB00644F1A9D011D1F3A6BB1F6160F8416808C04060B8C43FB8FDC3DF8B30B813BCFEB6BFB0FF0713E0E877648D5E06E286AC
310
4020100804028140201008040281402010080402814020100804EE857F30685FAF35FE3FDA0000000049454E44AE426082C6CE362F017944C08D6C3B60BBDDC87608DCC805B0AD00C81B2F0337E3654014B81917C078168402D60570381C0E87C3E170381C0E87C3E170381C0E87633EFC0F791B2DE715C1FAE90000000049
310
454E44AE426082
  0
ENDSEC
  0
EOF
