  0
SECTION
  2
HEADER
  9
$ACADVER
  1
AC1032
  9
$ACADMAINTVER
 90
      155
  9
$DWGCODEPAGE
  3
ANSI_1251
  9
$LASTSAVEDBY
  1
ALEXANDER
  9
$REQUIREDVERSIONS
160
                 0
  9
$INSBASE
 10
0.0
 20
0.0
 30
0.0
  9
$EXTMIN
 10
1391339.698945382
 20
354857.4607999773
 30
-0.0015258207003583
  9
$EXTMAX
 10
1399991.111756123
 20
361055.1944155641
 30
0.0000000349246037
  9
$LIMMIN
 10
0.0
 20
0.0
  9
$LIMMAX
 10
12.0
 20
9.0
  9
$ORTHOMODE
 70
     0
  9
$REGENMODE
 70
     1
  9
$FILLMODE
 70
     1
  9
$QTEXTMODE
 70
     0
  9
$MIRRTEXT
 70
     0
  9
$LTSCALE
 40
1.0
  9
$ATTMODE
 70
     1
  9
$TEXTSIZE
 40
0.0
  9
$TRACEWID
 40
0.05
  9
$TEXTSTYLE
  7
Standard
  9
$CLAYER
  8
Ранее утвержденные зоны охраняемоего природного ландшафта
  9
$CELTYPE
  6
ByLayer
  9
$CECOLOR
 62
   256
  9
$CELTSCALE
 40
1.0
  9
$DISPSILH
 70
     0
  9
$DIMSCALE
 40
1.0
  9
$DIMASZ
 40
0.18
  9
$DIMEXO
 40
0.0625
  9
$DIMDLI
 40
0.38
  9
$DIMRND
 40
0.0
  9
$DIMDLE
 40
0.0
  9
$DIMEXE
 40
0.18
  9
$DIMTP
 40
0.0
  9
$DIMTM
 40
0.0
  9
$DIMTXT
 40
0.18
  9
$DIMCEN
 40
0.09
  9
$DIMTSZ
 40
0.0
  9
$DIMTOL
 70
     0
  9
$DIMLIM
 70
     0
  9
$DIMTIH
 70
     0
  9
$DIMTOH
 70
     0
  9
$DIMSE1
 70
     0
  9
$DIMSE2
 70
     0
  9
$DIMTAD
 70
     0
  9
$DIMZIN
 70
     0
  9
$DIMBLK
  1

  9
$DIMASO
 70
     1
  9
$DIMSHO
 70
     1
  9
$DIMPOST
  1

  9
$DIMAPOST
  1

  9
$DIMALT
 70
     0
  9
$DIMALTD
 70
     2
  9
$DIMALTF
 40
25.4
  9
$DIMLFAC
 40
1.0
  9
$DIMTOFL
 70
     0
  9
$DIMTVP
 40
0.0
  9
$DIMTIX
 70
     0
  9
$DIMSOXD
 70
     0
  9
$DIMSAH
 70
     0
  9
$DIMBLK1
  1

  9
$DIMBLK2
  1

  9
$DIMSTYLE
  2
Standard
  9
$DIMCLRD
 70
     0
  9
$DIMCLRE
 70
     0
  9
$DIMCLRT
 70
     0
  9
$DIMTFAC
 40
1.0
  9
$DIMGAP
 40
0.09
  9
$DIMJUST
 70
     0
  9
$DIMSD1
 70
     0
  9
$DIMSD2
 70
     0
  9
$DIMTOLJ
 70
     1
  9
$DIMTZIN
 70
     0
  9
$DIMALTZ
 70
     0
  9
$DIMALTTZ
 70
     0
  9
$DIMUPT
 70
     0
  9
$DIMDEC
 70
     4
  9
$DIMTDEC
 70
     4
  9
$DIMALTU
 70
     2
  9
$DIMALTTD
 70
     2
  9
$DIMTXSTY
  7
Standard
  9
$DIMAUNIT
 70
     0
  9
$DIMADEC
 70
     0
  9
$DIMALTRND
 40
0.0
  9
$DIMAZIN
 70
     0
  9
$DIMDSEP
 70
    46
  9
$DIMATFIT
 70
     3
  9
$DIMFRAC
 70
     0
  9
$DIMLDRBLK
  1

  9
$DIMLUNIT
 70
     2
  9
$DIMLWD
 70
    -2
  9
$DIMLWE
 70
    -2
  9
$DIMTMOVE
 70
     0
  9
$DIMFXL
 40
1.0
  9
$DIMFXLON
 70
     0
  9
$DIMJOGANG
 40
0.7853981633974483
  9
$DIMTFILL
 70
     0
  9
$DIMTFILLCLR
 70
     0
  9
$DIMARCSYM
 70
     0
  9
$DIMLTYPE
  6
ByBlock
  9
$DIMLTEX1
  6
ByBlock
  9
$DIMLTEX2
  6
ByBlock
  9
$DIMTXTDIRECTION
 70
     0
  9
$LUNITS
 70
     2
  9
$LUPREC
 70
     4
  9
$SKETCHINC
 40
0.1
  9
$FILLETRAD
 40
0.0
  9
$AUNITS
 70
     0
  9
$AUPREC
 70
     0
  9
$MENU
  1
.
  9
$ELEVATION
 40
0.0
  9
$PELEVATION
 40
0.0
  9
$THICKNESS
 40
0.0
  9
$LIMCHECK
 70
     0
  9
$CHAMFERA
 40
0.0
  9
$CHAMFERB
 40
0.0
  9
$CHAMFERC
 40
0.0
  9
$CHAMFERD
 40
0.0
  9
$SKPOLY
 70
     0
  9
$TDCREATE
 40
2460902.525590278
  9
$TDUCREATE
 40
2460902.108927419
  9
$TDUPDATE
 40
2460903.013796297
  9
$TDUUPDATE
 40
2460902.597129630
  9
$TDINDWG
 40
0.1011025579
  9
$TDUSRTIMER
 40
0.1011025579
  9
$USRTIMER
 70
     1
  9
$ANGBASE
 50
0.0
  9
$ANGDIR
 70
     0
  9
$PDMODE
 70
    33
  9
$PDSIZE
 40
0.75
  9
$PLINEWID
 40
0.0
  9
$SPLFRAME
 70
     0
  9
$SPLINETYPE
 70
     6
  9
$SPLINESEGS
 70
     8
  9
$HANDSEED
  5
9C7
  9
$SURFTAB1
 70
     6
  9
$SURFTAB2
 70
     6
  9
$SURFTYPE
 70
     6
  9
$SURFU
 70
     6
  9
$SURFV
 70
     6
  9
$UCSBASE
  2

  9
$UCSNAME
  2

  9
$UCSORG
 10
0.0
 20
0.0
 30
0.0
  9
$UCSXDIR
 10
1.0
 20
0.0
 30
0.0
  9
$UCSYDIR
 10
0.0
 20
1.0
 30
0.0
  9
$UCSORTHOREF
  2

  9
$UCSORTHOVIEW
 70
     0
  9
$UCSORGTOP
 10
0.0
 20
0.0
 30
0.0
  9
$UCSORGBOTTOM
 10
0.0
 20
0.0
 30
0.0
  9
$UCSORGLEFT
 10
0.0
 20
0.0
 30
0.0
  9
$UCSORGRIGHT
 10
0.0
 20
0.0
 30
0.0
  9
$UCSORGFRONT
 10
0.0
 20
0.0
 30
0.0
  9
$UCSORGBACK
 10
0.0
 20
0.0
 30
0.0
  9
$PUCSBASE
  2

  9
$PUCSNAME
  2

  9
$PUCSORG
 10
0.0
 20
0.0
 30
0.0
  9
$PUCSXDIR
 10
1.0
 20
0.0
 30
0.0
  9
$PUCSYDIR
 10
0.0
 20
1.0
 30
0.0
  9
$PUCSORTHOREF
  2

  9
$PUCSORTHOVIEW
 70
     0
  9
$PUCSORGTOP
 10
0.0
 20
0.0
 30
0.0
  9
$PUCSORGBOTTOM
 10
0.0
 20
0.0
 30
0.0
  9
$PUCSORGLEFT
 10
0.0
 20
0.0
 30
0.0
  9
$PUCSORGRIGHT
 10
0.0
 20
0.0
 30
0.0
  9
$PUCSORGFRONT
 10
0.0
 20
0.0
 30
0.0
  9
$PUCSORGBACK
 10
0.0
 20
0.0
 30
0.0
  9
$USERI1
 70
     0
  9
$USERI2
 70
     0
  9
$USERI3
 70
     0
  9
$USERI4
 70
     0
  9
$USERI5
 70
     0
  9
$USERR1
 40
0.0
  9
$USERR2
 40
0.0
  9
$USERR3
 40
0.0
  9
$USERR4
 40
0.0
  9
$USERR5
 40
0.0
  9
$WORLDVIEW
 70
     1
  9
$SHADEDGE
 70
     3
  9
$SHADEDIF
 70
    70
  9
$TILEMODE
 70
     1
  9
$MAXACTVP
 70
    64
  9
$PINSBASE
 10
0.0
 20
0.0
 30
0.0
  9
$PLIMCHECK
 70
     0
  9
$PEXTMIN
 10
1.000000000000000E+20
 20
1.000000000000000E+20
 30
1.000000000000000E+20
  9
$PEXTMAX
 10
-1.000000000000000E+20
 20
-1.000000000000000E+20
 30
-1.000000000000000E+20
  9
$PLIMMIN
 10
0.0
 20
0.0
  9
$PLIMMAX
 10
12.0
 20
9.0
  9
$UNITMODE
 70
     0
  9
$VISRETAIN
 70
     1
  9
$PLINEGEN
 70
     0
  9
$PSLTSCALE
 70
     1
  9
$TREEDEPTH
 70
  3020
  9
$CMLSTYLE
  2
Standard
  9
$CMLJUST
 70
     0
  9
$CMLSCALE
 40
20.0
  9
$PROXYGRAPHICS
 70
     1
  9
$MEASUREMENT
 70
     0
  9
$CELWEIGHT
370
    -1
  9
$ENDCAPS
280
     0
  9
$JOINSTYLE
280
     0
  9
$LWDISPLAY
290
     0
  9
$INSUNITS
 70
     0
  9
$HYPERLINKBASE
  1

  9
$STYLESHEET
  1

  9
$XEDIT
290
     1
  9
$CEPSNTYPE
380
     0
  9
$PSTYLEMODE
290
     1
  9
$FINGERPRINTGUID
  2
{3EEA27AE-FC72-4A47-BAAA-489EA8A3C03F}
  9
$VERSIONGUID
  2
{E39C9710-9694-8048-AFC4-92D72AAF1009}
  9
$EXTNAMES
290
     1
  9
$PSVPSCALE
 40
0.0
  9
$OLESTARTUP
290
     0
  9
$SORTENTS
280
   127
  9
$INDEXCTL
280
     0
  9
$HIDETEXT
280
     1
  9
$XCLIPFRAME
280
     2
  9
$HALOGAP
280
     0
  9
$OBSCOLOR
 70
   257
  9
$OBSLTYPE
280
     0
  9
$INTERSECTIONDISPLAY
280
     0
  9
$INTERSECTIONCOLOR
 70
   257
  9
$DIMASSOC
280
     2
  9
$PROJECTNAME
  1

  9
$CAMERADISPLAY
290
     0
  9
$LENSLENGTH
 40
50.0
  9
$CAMERAHEIGHT
 40
0.0
  9
$STEPSPERSEC
 40
2.0
  9
$STEPSIZE
 40
6.0
  9
$3DDWFPREC
 40
2.0
  9
$PSOLWIDTH
 40
0.25
  9
$PSOLHEIGHT
 40
4.0
  9
$LOFTANG1
 40
1.570796326794896
  9
$LOFTANG2
 40
1.570796326794896
  9
$LOFTMAG1
 40
0.0
  9
$LOFTMAG2
 40
0.0
  9
$LOFTPARAM
 70
     7
  9
$LOFTNORMALS
280
     1
  9
$LATITUDE
 40
37.795
  9
$LONGITUDE
 40
-122.394
  9
$NORTHDIRECTION
 40
0.0
  9
$TIMEZONE
 70
 -8000
  9
$LIGHTGLYPHDISPLAY
280
     1
  9
$TILEMODELIGHTSYNCH
280
     1
  9
$CMATERIAL
347
8F0
  9
$SOLIDHIST
280
     0
  9
$SHOWHIST
280
     1
  9
$DWFFRAME
280
     2
  9
$DGNFRAME
280
     0
  9
$REALWORLDSCALE
290
     1
  9
$INTERFERECOLOR
 62
     1
  9
$INTERFEREOBJVS
345
912
  9
$INTERFEREVPVS
346
90F
  9
$CSHADOW
280
     0
  9
$SHADOWPLANELOCATION
 40
0.0
  0
ENDSEC
  0
SECTION
  2
CLASSES
  0
CLASS
  1
RASTERVARIABLES
  2
AcDbRasterVariables
  3
ISM
 90
        0
 91
        1
280
     0
281
     0
  0
CLASS
  1
ACDBDICTIONARYWDFLT
  2
AcDbDictionaryWithDefault
  3
ObjectDBX Classes
 90
        0
 91
        1
280
     0
281
     0
  0
CLASS
  1
MATERIAL
  2
AcDbMaterial
  3
ObjectDBX Classes
 90
     1153
 91
        3
280
     0
281
     0
  0
CLASS
  1
VISUALSTYLE
  2
AcDbVisualStyle
  3
ObjectDBX Classes
 90
     4095
 91
       24
280
     0
281
     0
  0
CLASS
  1
TABLESTYLE
  2
AcDbTableStyle
  3
ObjectDBX Classes
 90
     4095
 91
        1
280
     0
281
     0
  0
CLASS
  1
SCALE
  2
AcDbScale
  3
ObjectDBX Classes
 90
     1153
 91
       17
280
     0
281
     0
  0
CLASS
  1
MLEADERSTYLE
  2
AcDbMLeaderStyle
  3
ACDB_MLEADERSTYLE_CLASS
 90
     4095
 91
        1
280
     0
281
     0
  0
CLASS
  1
ACDBSECTIONVIEWSTYLE
  2
AcDbSectionViewStyle
  3
ObjectDBX Classes
 90
     1025
 91
        1
280
     0
281
     0
  0
CLASS
  1
ACDBDETAILVIEWSTYLE
  2
AcDbDetailViewStyle
  3
ObjectDBX Classes
 90
     1025
 91
        1
280
     0
281
     0
  0
CLASS
  1
DICTIONARYVAR
  2
AcDbDictionaryVar
  3
ObjectDBX Classes
 90
        0
 91
        5
280
     0
281
     0
  0
CLASS
  1
SORTENTSTABLE
  2
AcDbSortentsTable
  3
ObjectDBX Classes
 90
        0
 91
        1
280
     0
281
     0
  0
CLASS
  1
CELLSTYLEMAP
  2
AcDbCellStyleMap
  3
ObjectDBX Classes
 90
     1152
 91
        7
280
     0
281
     0
  0
ENDSEC
  0
SECTION
  2
TABLES
  0
TABLE
  2
VPORT
  5
1
330
0
100
AcDbSymbolTable
 70
     1
  0
VPORT
  5
2
330
1
100
AcDbSymbolTableRecord
100
AcDbViewportTableRecord
  2
*Active
 70
     0
 10
0.0
 20
0.0
 11
1.0
 21
1.0
 12
12793.33161271407
 22
18458.60587012159
 13
0.0
 23
0.0
 14
0.5
 24
0.5
 15
10.0
 25
10.0
 16
0.0
 26
0.0
 36
1.0
 17
1385264.28830591
 27
339116.894073843
 37
0.0
 40
10546.30127706687
 41
1.565580618212197
 42
50.0
 43
0.0
 44
0.0
 50
0.0
 51
0.0
 71
     0
 72
   100
 73
     1
 74
     1
 75
     0
 76
     1
 77
     0
 78
     0
281
     0
 65
     1
110
0.0
120
0.0
130
0.0
111
1.0
121
0.0
131
0.0
112
0.0
122
1.0
132
0.0
 79
     0
146
0.0
348
90E
 60
     3
 61
     5
292
     1
282
     1
141
0.0
142
0.0
 63
   250
421
  3355443
1001
ACAD_NAV_VCDISPLAY
1070
     3
  0
ENDTAB
  0
TABLE
  2
LTYPE
  5
7
330
0
100
AcDbSymbolTable
 70
     2
  0
LTYPE
  5
17
330
7
100
AcDbSymbolTableRecord
100
AcDbLinetypeTableRecord
  2
ByBlock
 70
     0
  3

 72
    65
 73
     0
 40
0.0
  0
LTYPE
  5
16
330
7
100
AcDbSymbolTableRecord
100
AcDbLinetypeTableRecord
  2
ByLayer
 70
     0
  3

 72
    65
 73
     0
 40
0.0
  0
LTYPE
  5
15
330
7
100
AcDbSymbolTableRecord
100
AcDbLinetypeTableRecord
  2
Continuous
 70
     0
  3
Solid line
 72
    65
 73
     0
 40
0.0
  0
ENDTAB
  0
TABLE
  2
LAYER
  5
5
102
{ACAD_XDICTIONARY
360
6
102
}
330
0
100
AcDbSymbolTable
 70
    16
  0
LAYER
  5
14
330
5
100
AcDbSymbolTableRecord
100
AcDbLayerTableRecord
  2
0
 70
     0
 62
    -7
  6
Continuous
370
    -3
390
8EE
347
900
348
0
  0
LAYER
  5
22
330
5
100
AcDbSymbolTableRecord
100
AcDbLayerTableRecord
  2
Контура исторический центр для сайта
 70
     0
 62
    -7
  6
Continuous
370
    -3
390
8EE
347
900
348
0
  0
LAYER
  5
956
330
5
100
AcDbSymbolTableRecord
100
AcDbLayerTableRecord
  2
Р-1
 70
     0
 62
    40
  6
Continuous
370
    -3
390
8EE
347
900
348
0
1001
AcAecLayerStandard
1000

1000

1001
AcCmTransparency
1071
        0
  0
LAYER
  5
95F
330
5
100
AcDbSymbolTableRecord
100
AcDbLayerTableRecord
  2
Р-2
 70
     0
 62
   140
  6
Continuous
370
    -3
390
8EE
347
900
348
0
1001
AcAecLayerStandard
1000

1000

1001
AcCmTransparency
1071
        0
  0
LAYER
  5
960
330
5
100
AcDbSymbolTableRecord
100
AcDbLayerTableRecord
  2
РЦИ
 70
     0
 62
    30
  6
Continuous
370
    -3
390
8EE
347
900
348
0
1001
AcAecLayerStandard
1000

1000

1001
AcCmTransparency
1071
        0
  0
LAYER
  5
961
330
5
100
AcDbSymbolTableRecord
100
AcDbLayerTableRecord
  2
Р-4
 70
     0
 62
   190
  6
Continuous
370
    -3
390
8EE
347
900
348
0
1001
AcAecLayerStandard
1000

1000

1001
AcCmTransparency
1071
        0
  0
LAYER
  5
962
330
5
100
AcDbSymbolTableRecord
100
AcDbLayerTableRecord
  2
РОКН
 70
     0
 62
    12
  6
Continuous
370
    -3
390
8EE
347
900
348
0
1001
AcAecLayerStandard
1000

1000

1001
AcCmTransparency
1071
        0
  0
LAYER
  5
963
330
5
100
AcDbSymbolTableRecord
100
AcDbLayerTableRecord
  2
РИП
 70
     0
 62
    42
  6
Continuous
370
    -3
390
8EE
347
900
348
0
1001
AcAecLayerStandard
1000

1000

1001
AcCmTransparency
1071
        0
  0
LAYER
  5
964
330
5
100
AcDbSymbolTableRecord
100
AcDbLayerTableRecord
  2
РПЛ
 70
     0
 62
    70
  6
Continuous
370
    -3
390
8EE
347
900
348
0
1001
AcAecLayerStandard
1000

1000

1001
AcCmTransparency
1071
        0
  0
LAYER
  5
965
330
5
100
AcDbSymbolTableRecord
100
AcDbLayerTableRecord
  2
РГЛ
 70
     0
 62
    74
  6
Continuous
370
    -3
390
8EE
347
900
348
0
1001
AcAecLayerStandard
1000

1000

1001
AcCmTransparency
1071
        0
  0
LAYER
  5
966
330
5
100
AcDbSymbolTableRecord
100
AcDbLayerTableRecord
  2
Р-3
 70
     0
 62
   142
  6
Continuous
370
    -3
390
8EE
347
900
348
0
1001
AcAecLayerStandard
1000

1000

1001
AcCmTransparency
1071
        0
  0
LAYER
  5
967
330
5
100
AcDbSymbolTableRecord
100
AcDbLayerTableRecord
  2
РТ
 70
     0
 62
     8
  6
Continuous
370
    -3
390
8EE
347
900
348
0
1001
AcAecLayerStandard
1000

1000

1001
AcCmTransparency
1071
        0
  0
LAYER
  5
975
330
5
100
AcDbSymbolTableRecord
100
AcDbLayerTableRecord
  2
Ранее утвержденные зоны охраняемоего природного ландшафта
 70
     0
 62
   105
  6
Continuous
370
    -3
390
8EE
347
900
348
0
1001
AcAecLayerStandard
1000

1000

1001
AcCmTransparency
1071
        0
  0
LAYER
  5
992
330
5
100
AcDbSymbolTableRecord
100
AcDbLayerTableRecord
  2
д
 70
     0
 62
    -7
  6
Continuous
370
    -3
390
8EE
347
900
348
0
1001
AcAecLayerStandard
1000

1000

1001
AcCmTransparency
1071
        0
  0
LAYER
  5
993
330
5
100
AcDbSymbolTableRecord
100
AcDbLayerTableRecord
  2
Ранее утвержденные зоны регулирования застройки
 70
     0
 62
    52
  6
Continuous
370
    -3
390
8EE
347
900
348
0
1001
AcAecLayerStandard
1000

1000

1001
AcCmTransparency
1071
        0
  0
LAYER
  5
994
330
5
100
AcDbSymbolTableRecord
100
AcDbLayerTableRecord
  2
Ранее утвержденные охранные зоны
 70
     0
 62
     7
  6
Continuous
370
    -3
390
8EE
347
900
348
0
1001
AcAecLayerStandard
1000

1000

1001
AcCmTransparency
1071
        0
  0
ENDTAB
  0
TABLE
  2
STYLE
  5
8
330
0
100
AcDbSymbolTable
 70
     1
  0
STYLE
  5
18
330
8
100
AcDbSymbolTableRecord
100
AcDbTextStyleTableRecord
  2
Standard
 70
     0
 40
0.0
 41
1.0
 50
0.0
 71
     0
 42
0.0
  3
simplex.shx
  4

  0
ENDTAB
  0
TABLE
  2
VIEW
  5
3
330
0
100
AcDbSymbolTable
 70
     0
  0
ENDTAB
  0
TABLE
  2
UCS
  5
C
330
0
100
AcDbSymbolTable
 70
     0
  0
ENDTAB
  0
TABLE
  2
APPID
  5
4
330
0
100
AcDbSymbolTable
 70
    10
  0
APPID
  5
19
330
4
100
AcDbSymbolTableRecord
100
AcDbRegAppTableRecord
  2
ACAD
 70
     0
  0
APPID
  5
8E3
330
4
100
AcDbSymbolTableRecord
100
AcDbRegAppTableRecord
  2
AcCmTransparency
 70
     0
  0
APPID
  5
8E4
330
4
100
AcDbSymbolTableRecord
100
AcDbRegAppTableRecord
  2
GradientColor1ACI
 70
     0
  0
APPID
  5
8E5
330
4
100
AcDbSymbolTableRecord
100
AcDbRegAppTableRecord
  2
GradientColor2ACI
 70
     0
  0
APPID
  5
93E
330
4
100
AcDbSymbolTableRecord
100
AcDbRegAppTableRecord
  2
ACAD_NAV_VCDISPLAY
 70
     0
  0
APPID
  5
957
330
4
100
AcDbSymbolTableRecord
100
AcDbRegAppTableRecord
  2
AcAecLayerStandard
 70
     0
  0
APPID
  5
958
330
4
100
AcDbSymbolTableRecord
100
AcDbRegAppTableRecord
  2
ACAD_EXEMPT_FROM_CAD_STANDARDS
 70
     0
  0
APPID
  5
977
330
4
100
AcDbSymbolTableRecord
100
AcDbRegAppTableRecord
  2
AcadAnnotative
 70
     0
  0
APPID
  5
978
330
4
100
AcDbSymbolTableRecord
100
AcDbRegAppTableRecord
  2
ACAD_DSTYLE_DIMJAG
 70
     0
  0
APPID
  5
979
330
4
100
AcDbSymbolTableRecord
100
AcDbRegAppTableRecord
  2
ACAD_DSTYLE_DIMTALN
 70
     0
  0
ENDTAB
  0
TABLE
  2
DIMSTYLE
  5
A
330
0
100
AcDbSymbolTable
 70
     3
100
AcDbDimStyleTable
 71
     1
340
1A
  0
DIMSTYLE
105
1A
330
A
100
AcDbSymbolTableRecord
100
AcDbDimStyleTableRecord
  2
Standard
 70
     0
 73
     0
 74
     0
340
18
345
17
346
17
347
17
  0
DIMSTYLE
105
976
330
A
100
AcDbSymbolTableRecord
100
AcDbDimStyleTableRecord
  2
Аннотативный
 70
     0
 40
0.0
340
18
1001
AcadAnnotative
1000
AnnotativeData
1002
{
1070
     1
1070
     1
1002
}
1001
ACAD_DSTYLE_DIMJAG
1070
   388
1040
1.5
1001
ACAD_DSTYLE_DIMTALN
1070
   392
1070
     0
  0
ENDTAB
  0
TABLE
  2
BLOCK_RECORD
  5
D
330
0
100
AcDbSymbolTable
 70
     1
  0
BLOCK_RECORD
  5
1C
102
{ACAD_XDICTIONARY
360
9BC
102
}
330
D
100
AcDbSymbolTableRecord
100
AcDbBlockTableRecord
  2
*Model_Space
340
20
 70
     0
280
     1
281
     0
  0
BLOCK_RECORD
  5
8DD
330
D
100
AcDbSymbolTableRecord
100
AcDbBlockTableRecord
  2
*Paper_Space
340
8E2
 70
     0
280
     1
281
     0
  0
ENDTAB
  0
ENDSEC
  0
SECTION
  2
BLOCKS
  0
BLOCK
  5
1E
330
1C
100
AcDbEntity
  8
0
100
AcDbBlockBegin
  2
*Model_Space
 70
     0
 10
0.0
 20
0.0
 30
0.0
  3
*Model_Space
  1

  0
ENDBLK
  5
1D
330
1C
100
AcDbEntity
  8
0
100
AcDbBlockEnd
  0
BLOCK
  5
8DF
330
8DD
100
AcDbEntity
 67
     1
  8
0
100
AcDbBlockBegin
  2
*Paper_Space
 70
     0
 10
0.0
 20
0.0
 30
0.0
  3
*Paper_Space
  1

  0
ENDBLK
  5
8DE
330
8DD
100
AcDbEntity
 67
     1
  8
0
100
AcDbBlockEnd
  0
ENDSEC
  0
SECTION
  2
ENTITIES
  0
LWPOLYLINE
  5
239
330
1C
100
AcDbEntity
  8
Ранее утвержденные охранные зоны
370
    20
100
AcDbPolyline
 90
       93
 70
     0
 43
0.0
 10
1397627.97698342
 20
359391.509760411
 10
1397657.30007366
 20
359384.0061497451
 10
1397705.23253373
 20
359377.0232882421
 10
1397872.9239532
 20
359375.9104332371
 10
1397885.53898587
 20
359372.2436519221
 10
1397961.73301817
 20
359372.7153573571
 10
1397961.74843695
 20
359366.0847079779
 10
1398039.84098707
 20
359364.609618428
 10
1398039.97842684
 20
359383.284689474
 10
1398040.01842786
 20
359388.444688577
 10
1398042.0184275
 20
359388.414688183
 10
1398042.22843095
 20
359405.914685119
 10
1398042.58446075
 20
359450.202665558
 10
1398052.22843805
 20
359450.374675448
 10
1398052.21843966
 20
359458.5346740379
 10
1398052.18844462
 20
359483.46466973
 10
1398056.65844437
 20
359486.154668377
 10
1398056.84844514
 20
359490.1346676571
 10
1398057.048446
 20
359494.65466684
 10
1398057.44844768
 20
359503.494665227
 10
1398055.9184483
 20
359505.294665224
 10
1398056.2584488
 20
359508.0746646761
 10
1398057.19845017
 20
359515.834663145
 10
1398063.09845212
 20
359530.774659393
 10
1398067.79496978
 20
359561.797050656
 10
1398109.90522923
 20
359562.346968901
 10
1398135.72635837
 20
359577.190884284
 10
1398151.72844898
 20
359592.1346311821
 10
1398162.41844906
 20
359601.824627389
 10
1398170.90324574
 20
359610.2510836021
 10
1398131.47017215
 20
359638.5702902661
 10
1398166.56642827
 20
359692.534800056
 10
1398194.25344245
 20
359717.5214530051
 10
1398218.69609005
 20
359736.154095593
 10
1398248.10624116
 20
359755.8280105601
 10
1398263.48774348
 20
359766.86142222
 10
1398288.97040208
 20
359787.19442386
 10
1398299.58406411
 20
359790.995560144
 10
1398299.21846317
 20
359792.034567349
 10
1398286.35847146
 20
359822.6145646201
 10
1398284.43847302
 20
359828.7845639311
 10
1398285.81582147
 20
359846.307142778
 10
1398291.35313519
 20
359916.7527564661
 10
1398285.57193503
 20
359978.1693929271
 10
1398282.6062062
 20
360009.6758017301
 10
1398308.35610671
 20
360039.40580917
 10
1398273.82962664
 20
360065.01763422
 10
1398261.99984966
 20
360071.68763126
 10
1398231.83539254
 20
360080.364742404
 10
1398180.28119076
 20
360088.301860969
 10
1398140.40698873
 20
360085.527827694
 10
1398110.50750083
 20
360078.764591734
 10
1398039.95856295
 20
360069.004570951
 10
1398025.06856515
 20
360067.174574219
 10
1398022.60856553
 20
360066.904574761
 10
1398014.43856677
 20
360066.0445765271
 10
1397981.5885718
 20
360062.814583609
 10
1397981.60857205
 20
360064.09458338
 10
1397974.34138646
 20
360067.434274523
 10
1397967.27900892
 20
360068.2068675811
 10
1397948.50600571
 20
360056.0525361021
 10
1397893.83666271
 20
360035.837984844
 10
1397874.80503179
 20
360031.272999362
 10
1397842.59384502
 20
360027.695516041
 10
1397784.77851081
 20
360024.12152832
 10
1397758.56638341
 20
360022.50116561
 10
1397755.74451939
 20
360022.360572463
 10
1397703.2878711
 20
360013.3977408911
 10
1397682.9826743
 20
360009.439702879
 10
1397667.75902772
 20
360004.984121184
 10
1397631.608376199
 20
359993.5845671811
 10
1397640.81695677
 20
359947.903674159
 10
1397634.07860456
 20
359925.364676828
 10
1397647.79859061
 20
359867.014684198
 10
1397679.52955446
 20
359777.114369859
 10
1397649.42856221
 20
359725.3347083571
 10
1397642.26974057
 20
359715.876499738
 10
1397642.67746681
 20
359700.003045618
 10
1397634.5326092
 20
359660.389321802
 10
1397633.04402029
 20
359649.659597925
 10
1397620.40855052
 20
359641.174728669
 10
1397622.17164945
 20
359626.44553963
 10
1397612.05051307
 20
359579.735514878
 10
1397618.97828911
 20
359578.031114088
 10
1397616.5449153
 20
359567.4913823029
 10
1397603.61247811
 20
359511.476821295
 10
1397590.16766114
 20
359453.243016928
 10
1397586.36439206
 20
359436.769848812
 10
1397627.19850656
 20
359425.584764124
 10
1397634.85850482
 20
359423.4947629561
 10
1397636.64850441
 20
359423.0047626901
 10
1397629.27850041
 20
359396.394768759
 10
1397627.97698342
 20
359391.509760411
  0
LWPOLYLINE
  5
23A
330
1C
100
AcDbEntity
  8
Ранее утвержденные охранные зоны
370
    20
100
AcDbPolyline
 90
      148
 70
     0
 43
0.0
 10
1396378.10476066
 20
359425.767761515
 10
1396682.85468786
 20
359323.797716204
 10
1396740.09467491
 20
359308.2077070821
 10
1396809.61466299
 20
359308.607692553
 10
1396865.61464737
 20
359278.477686288
 10
1396866.81464651
 20
359275.187686585
 10
1397037.30459906
 20
359184.63766697
 10
1397208.66456456
 20
359159.447635958
 10
1397430.00451789
 20
359116.947597549
 10
1397764.43443377
 20
358983.467551593
 10
1397757.69443155
 20
358966.5875558051
 10
1397770.30442837
 20
358961.587554117
 10
1397777.20443088
 20
358979.827549522
 10
1397801.31442523
 20
358972.4775458661
 10
1397808.01442915
 20
358998.287539989
 10
1397809.90443307
 20
359019.5275359221
 10
1397807.19443563
 20
359029.887534704
 10
1397807.50443659
 20
359035.337533673
 10
1397808.04443839
 20
359044.887531872
 10
1397810.34444367
 20
359073.247526565
 10
1397814.18444293
 20
359073.097525808
 10
1397817.96444235
 20
359073.047525003
 10
1397822.26444154
 20
359072.897524096
 10
1397827.78444041
 20
359072.10752315
 10
1397828.18444315
 20
359086.047520684
 10
1397833.51446191
 20
359185.407502343
 10
1397817.96446475
 20
359186.377505455
 10
1397814.48446534
 20
359186.0475062321
 10
1397813.73446553
 20
359186.137506384
 10
1397708.34448962
 20
359216.077522905
 10
1397665.43449935
 20
359228.0675297471
 10
1397634.68450655
 20
359237.287534446
 10
1397600.15451434
 20
359246.73753996
 10
1397604.23451627
 20
359260.1975367671
 10
1397588.64451996
 20
359264.9275392461
 10
1397547.87452925
 20
359276.457545634
 10
1397532.81453293
 20
359281.8175477971
 10
1397506.19453892
 20
359288.9675520811
 10
1397497.154541
 20
359291.447553588
 10
1397492.16454209
 20
359292.837554313
 10
1397487.08454319
 20
359294.0475551479
 10
1397481.85454439
 20
359295.4475559561
 10
1397450.21455167
 20
359304.267560996
 10
1397393.84456441
 20
359319.967569963
 10
1397381.27456743
 20
359324.1575717821
 10
1397379.11456789
 20
359324.717572182
 10
1397385.01457117
 20
359346.027567253
 10
1397377.98457275
 20
359347.95756839
 10
1397382.08457487
 20
359362.457565045
 10
1397383.67457566
 20
359367.427563888
 10
1397400.03458295
 20
359418.567551589
 10
1397401.55458389
 20
359424.667550306
 10
1397400.41458529
 20
359430.877549447
 10
1397209.88462916
 20
359485.987579249
 10
1397190.62463343
 20
359491.137582351
 10
1397188.84463386
 20
359491.547582649
 10
1397188.39463356
 20
359489.5875830501
 10
1397132.80464687
 20
359508.177591393
 10
1397132.31464667
 20
359506.757591728
 10
1397131.13464617
 20
359503.357592573
 10
1397125.26464362
 20
359485.2175969279
 10
1397124.59464327
 20
359483.177597319
 10
1397124.37464317
 20
359482.517597522
 10
1397121.4046439
 20
359483.487597997
 10
1397116.08464141
 20
359466.417602004
 10
1397097.81464574
 20
359472.0676048311
 10
1397092.22464247
 20
359450.917609653
 10
1397087.16464172
 20
359442.937611999
 10
1397084.54464162
 20
359439.977613129
 10
1397070.03464617
 20
359450.317614345
 10
1397050.72465234
 20
359464.667615809
 10
1396992.96467078
 20
359507.227620423
 10
1396989.41467188
 20
359509.837620708
 10
1396982.10467431
 20
359515.4676212761
 10
1396979.08467519
 20
359517.5776215
 10
1396972.97467712
 20
359521.8276219811
 10
1396966.814679
 20
359526.137622525
 10
1396963.77468001
 20
359528.2476228121
 10
1396962.82468026
 20
359528.927622892
 10
1396952.00468368
 20
359536.927623755
 10
1396945.93468564
 20
359541.56762416
 10
1396934.19468936
 20
359549.9676251421
 10
1396929.66469078
 20
359553.207625568
 10
1396920.09469385
 20
359560.357626318
 10
1396910.5246969
 20
359567.497627038
 10
1396908.66469749
 20
359568.7976271661
 10
1396904.74469877
 20
359571.547627493
 10
1396901.43469978
 20
359573.857627789
 10
1396893.97470231
 20
359580.2076282851
 10
1396890.45470363
 20
359583.897628328
 10
1396885.81470577
 20
359590.327628228
 10
1396881.62470793
 20
359597.91762777
 10
1396878.34470995
 20
359604.86762719
 10
1396877.50471075
 20
359608.2776267701
 10
1396875.82471265
 20
359616.2976257921
 10
1396875.36471443
 20
359624.867624385
 10
1396873.51471661
 20
359634.497623065
 10
1396873.01471851
 20
359643.527621608
 10
1396859.51472254
 20
359652.327622908
 10
1396810.95473419
 20
359668.52763016
 10
1396795.70473725
 20
359670.9476328921
 10
1396792.12473675
 20
359665.1076346101
 10
1396763.58473717
 20
359642.607644377
 10
1396758.88473763
 20
359640.5576457251
 10
1396756.17473841
 20
359642.3276459461
 10
1396756.09473882
 20
359644.567645657
 10
1396746.39474046
 20
359644.1876477351
 10
1396742.16473647
 20
359620.427652703
 10
1396740.1347354
 20
359612.997654367
 10
1396737.08473369
 20
359602.0176569429
 10
1396724.43473646
 20
359604.727658995
 10
1396725.2847366
 20
359606.407658569
 10
1396718.33473849
 20
359610.087659372
 10
1396717.87473854
 20
359609.457659603
 10
1396703.17474275
 20
359618.047661143
 10
1396702.57474273
 20
359617.267661341
 10
1396658.78475528
 20
359642.727666057
 10
1396660.14475733
 20
359654.057663775
 10
1396639.38476177
 20
359658.3576673931
 10
1396610.6547677
 20
359663.5976724061
 10
1396598.73477013
 20
359665.3376745911
 10
1396593.61477174
 20
359669.1776749061
 10
1396593.73477211
 20
359670.887674625
 10
1396588.41477314
 20
359671.457675573
 10
1396588.68477353
 20
359673.607675143
 10
1396584.54477428
 20
359673.737676015
 10
1396583.20477444
 20
359673.7776762851
 10
1396565.34477766
 20
359674.3176799011
 10
1396562.48477818
 20
359674.2876804711
 10
1396559.78477794
 20
359670.817681653
 10
1396555.11477759
 20
359664.817683632
 10
1396559.39477587
 20
359659.8276836021
 10
1396558.02477559
 20
359657.3876842771
 10
1396556.61477534
 20
359654.8976850961
 10
1396547.76477375
 20
359639.1976895521
 10
1396542.45477294
 20
359630.347692185
 10
1396543.61477258
 20
359629.787692026
 10
1396523.72476958
 20
359597.2977018101
 10
1396491.65477346
 20
359588.80770985
 10
1396459.90477785
 20
359583.547717396
 10
1396450.53477648
 20
359568.387721948
 10
1396439.06477377
 20
359544.7977283321
 10
1396434.80477405
 20
359542.417729695
 10
1396426.96477117
 20
359521.217734893
 10
1396423.61477078
 20
359516.337736451
 10
1396416.37476918
 20
359501.847740481
 10
1396397.72477105
 20
359495.307745469
 10
1396378.10476066
 20
359425.767761515
  0
LWPOLYLINE
  5
242
330
1C
100
AcDbEntity
  8
Ранее утвержденные охранные зоны
370
    20
100
AcDbPolyline
 90
       41
 70
     0
 43
0.0
 10
1397081.66864781
 20
359981.005410414
 10
1397083.98865311
 20
360010.1654049171
 10
1397035.53866353
 20
360020.495413071
 10
1397013.64866853
 20
360026.495416579
 10
1397010.21866932
 20
360027.6054170571
 10
1396994.88867297
 20
360032.565419391
 10
1396974.40867785
 20
360039.205422499
 10
1396961.59868085
 20
360043.675424415
 10
1396973.75868593
 20
360079.515415699
 10
1396968.34868719
 20
360081.235416529
 10
1396962.18868861
 20
360083.105417492
 10
1396948.55869177
 20
360087.255419558
 10
1396947.4386921
 20
360088.0454196821
 10
1396944.6286929
 20
360089.395419974
 10
1396941.0586938
 20
360090.725420495
 10
1396929.24868917
 20
360057.295428691
 10
1396876.54870201
 20
360076.165436334
 10
1396817.17870994
 20
360064.395450686
 10
1396806.42871037
 20
360057.555454011
 10
1396794.99871168
 20
360054.155456946
 10
1396739.21871994
 20
360047.0654697339
 10
1396674.6187303
 20
360043.135483728
 10
1396615.95874041
 20
360043.37549588
 10
1396615.28873765
 20
360028.8354985301
 10
1396691.83872439
 20
360028.215482813
 10
1396729.69871783
 20
360028.1354749921
 10
1396770.96871149
 20
360032.285465715
 10
1396798.58870733
 20
360035.205459565
 10
1396817.14870459
 20
360037.515455266
 10
1396834.34870217
 20
360040.505451233
 10
1396844.72870074
 20
360042.185448831
 10
1396855.25869921
 20
360043.6054464061
 10
1396875.48869537
 20
360041.945442458
 10
1396927.90868219
 20
360021.0954352191
 10
1396929.68868181
 20
360020.3154350201
 10
1396936.44868095
 20
360021.905433373
 10
1396997.45866613
 20
360000.615424449
 10
1396999.45866585
 20
360000.515423976
 10
1397017.33866169
 20
359995.0654212411
 10
1397049.48865428
 20
359985.695416188
 10
1397081.66864781
 20
359981.005410414
  0
LWPOLYLINE
  5
243
330
1C
100
AcDbEntity
  8
Ранее утвержденные охранные зоны
370
    20
100
AcDbPolyline
 90
       26
 70
     0
 43
0.0
 10
1396598.48683285
 20
359883.6912368561
 10
1396690.48751905
 20
359915.9369967951
 10
1396688.96876681
 20
359920.004864945
 10
1396705.82876493
 20
359925.224860699
 10
1396723.03876085
 20
359919.624858254
 10
1396743.11875724
 20
359918.944854383
 10
1396752.24875551
 20
359918.194852697
 10
1396759.666537
 20
359918.3135697621
 10
1396759.98875162
 20
359905.334853386
 10
1396764.00874966
 20
359898.9548536891
 10
1396776.25821692
 20
359893.549148045
 10
1396799.18970481
 20
359894.940696001
 10
1396799.71560068
 20
359877.933027979
 10
1396779.56874294
 20
359878.65485411
 10
1396766.69174193
 20
359860.378507779
 10
1396779.24149202
 20
359837.7820071921
 10
1396803.32127372
 20
359819.5987446871
 10
1396791.26048503
 20
359802.9773375421
 10
1396764.48166039
 20
359819.5543071371
 10
1396744.78873964
 20
359831.744869123
 10
1396719.67874685
 20
359846.214871607
 10
1396673.3487548
 20
359845.924880858
 10
1396649.52207226
 20
359845.061680865
 10
1396616.14823037
 20
359830.8090102721
 10
1396612.2619451
 20
359848.484552936
 10
1396598.48683285
 20
359883.6912368561
  0
LWPOLYLINE
  5
244
330
1C
100
AcDbEntity
  8
Ранее утвержденные охранные зоны
370
    20
100
AcDbPolyline
 90
       24
 70
     0
 43
0.0
 10
1397618.98843382
 20
359369.825405006
 10
1397635.75842912
 20
359360.685403108
 10
1397637.65842864
 20
359359.8854028
 10
1397636.97842842
 20
359358.2954032171
 10
1397638.75842794
 20
359357.525403003
 10
1397639.3284281
 20
359358.915402591
 10
1397639.75842803
 20
359358.755402528
 10
1397645.51842672
 20
359357.365401638
 10
1397663.07842282
 20
359352.885398822
 10
1397666.16842222
 20
359352.315398274
 10
1397672.3384209
 20
359351.2453972011
 10
1397679.23841948
 20
359350.205395924
 10
1397685.48841823
 20
359349.335394713
 10
1397690.93841728
 20
359349.1553936911
 10
1397797.23839308
 20
359319.695376778
 10
1397805.36839751
 20
359349.0453700221
 10
1397826.87839384
 20
359349.175365595
 10
1397840.14839251
 20
359353.935361964
 10
1397869.30838745
 20
359353.9053559791
 10
1397872.92839124
 20
359375.9153514001
 10
1397705.22842037
 20
359377.015385876
 10
1397657.29842997
 20
359384.005394626
 10
1397627.97843655
 20
359391.5053993791
 10
1397618.98843382
 20
359369.825405006
  0
LWPOLYLINE
  5
245
330
1C
100
AcDbEntity
  8
Ранее утвержденные охранные зоны
370
    20
100
AcDbPolyline
 90
       28
 70
     0
 43
0.0
 10
1395631.05898009
 20
360394.9356387211
 10
1395639.57898772
 20
360440.8756290431
 10
1395631.32898947
 20
360442.595630384
 10
1395620.87899177
 20
360445.205632154
 10
1395613.63899309
 20
360445.295633644
 10
1395601.62899595
 20
360449.695635291
 10
1395595.39899737
 20
360451.2056363351
 10
1395582.68900016
 20
360454.285638487
 10
1395580.02900078
 20
360454.925638923
 10
1395571.11900739
 20
360480.7756362671
 10
1395543.86901464
 20
360493.735639645
 10
1395523.92901627
 20
360484.615645364
 10
1395520.31901216
 20
360460.6256502571
 10
1395519.44901122
 20
360454.8356514371
 10
1395533.869008
 20
360451.2656490101
 10
1395548.54900459
 20
360446.7456468421
 10
1395552.63900302
 20
360442.845646664
 10
1395552.28900214
 20
360438.005647498
 10
1395546.4589983
 20
360413.645652934
 10
1395578.69899148
 20
360406.985647395
 10
1395580.56899113
 20
360406.725647119
 10
1395582.40899066
 20
360406.405646743
 10
1395584.37899031
 20
360406.055646468
 10
1395585.05898998
 20
360405.175646408
 10
1395606.16898533
 20
360400.24564293
 10
1395621.56898205
 20
360396.645640364
 10
1395627.64898071
 20
360395.545639328
 10
1395631.05898009
 20
360394.9356387211
  0
LWPOLYLINE
  5
246
330
1C
100
AcDbEntity
  8
Ранее утвержденные охранные зоны
370
    20
100
AcDbPolyline
 90
       29
 70
     0
 43
0.0
 10
1395624.38897477
 20
360362.5456456401
 10
1395627.08897658
 20
360373.8556431171
 10
1395627.14897657
 20
360374.075643101
 10
1395627.35897672
 20
360375.0256429421
 10
1395631.05898009
 20
360394.9356387211
 10
1395627.64898071
 20
360395.545639328
 10
1395621.56898205
 20
360396.645640364
 10
1395606.16898533
 20
360400.24564293
 10
1395585.05898998
 20
360405.175646408
 10
1395584.37899031
 20
360406.055646468
 10
1395582.40899066
 20
360406.405646743
 10
1395580.56899113
 20
360406.725647119
 10
1395578.69899148
 20
360406.985647395
 10
1395546.4589983
 20
360413.645652934
 10
1395542.09899542
 20
360395.275657044
 10
1395551.17899349
 20
360393.085655488
 10
1395537.34898448
 20
360335.7156683
 10
1395539.14898405
 20
360335.2856679979
 10
1395562.87897884
 20
360329.8156640029
 10
1395567.79898247
 20
360352.505659117
 10
1395575.9889808
 20
360350.935657645
 10
1395582.44898525
 20
360378.785651552
 10
1395593.92898267
 20
360376.0256495761
 10
1395593.26898203
 20
360372.035650486
 10
1395602.22898004
 20
360369.915648968
 10
1395609.02897817
 20
360366.3056481841
 10
1395614.44897697
 20
360364.915647361
 10
1395622.23897518
 20
360362.9856460051
 10
1395624.38897477
 20
360362.5456456401
  0
LWPOLYLINE
  5
247
330
1C
100
AcDbEntity
  8
Ранее утвержденные охранные зоны
370
    20
100
AcDbPolyline
 90
       20
 70
     0
 43
0.0
 10
1395669.27896771
 20
360365.985635823
 10
1395688.82896699
 20
360379.255629478
 10
1395688.44896844
 20
360386.2756283561
 10
1395688.19896942
 20
360390.865627613
 10
1395686.34897644
 20
360425.065622046
 10
1395686.17897714
 20
360428.195621554
 10
1395666.48898142
 20
360432.675624817
 10
1395660.64898261
 20
360433.8256258051
 10
1395658.32898313
 20
360434.3356262179
 10
1395644.05898629
 20
360437.5156286871
 10
1395644.56898662
 20
360439.825628157
 10
1395639.57898772
 20
360440.8756290431
 10
1395631.05898009
 20
360394.9356387211
 10
1395627.35897672
 20
360375.0256429421
 10
1395629.71897619
 20
360374.4656424821
 10
1395631.86897574
 20
360373.925642148
 10
1395644.56897293
 20
360370.8656400401
 10
1395648.808972
 20
360369.8456393721
 10
1395660.31896971
 20
360368.1356372711
 10
1395669.27896771
 20
360365.985635823
  0
LWPOLYLINE
  5
248
330
1C
100
AcDbEntity
  8
Ранее утвержденные охранные зоны
370
    20
100
AcDbPolyline
 90
       49
 70
     0
 43
0.0
 10
1394137.53906638
 20
359532.6160963811
 10
1394171.35907025
 20
359581.28608093
 10
1394230.00907685
 20
359665.6960543021
 10
1394274.56907929
 20
359716.786036175
 10
1394284.2290758
 20
359707.6360358161
 10
1394285.95907519
 20
359705.7660357811
 10
1394279.09907484
 20
359698.3160385221
 10
1394270.28907439
 20
359688.106042084
 10
1394266.29907411
 20
359683.506043694
 10
1394255.74907353
 20
359671.406047936
 10
1394253.19907339
 20
359668.486049011
 10
1394249.80907326
 20
359664.6160503321
 10
1394245.94907303
 20
359660.046051901
 10
1394241.49907255
 20
359654.006053935
 10
1394235.59907176
 20
359644.906056646
 10
1394230.0790711
 20
359636.866059257
 10
1394222.04907024
 20
359625.586062793
 10
1394222.9790699
 20
359624.3860628411
 10
1394226.10906867
 20
359621.136062798
 10
1394231.02906646
 20
359614.3060629251
 10
1394232.4590658
 20
359612.306062939
 10
1394235.30906452
 20
359608.3460631091
 10
1394240.13906233
 20
359601.416063253
 10
1394240.47906222
 20
359600.986063292
 10
1394243.40906098
 20
359597.276063301
 10
1394247.57905918
 20
359591.99606331
 10
1394251.48905749
 20
359587.046063365
 10
1394248.88905706
 20
359582.506064749
 10
1394244.48905695
 20
359577.9960664211
 10
1394233.26905578
 20
359562.4560714501
 10
1394231.78905565
 20
359560.3660721321
 10
1394222.95905891
 20
359569.156072406
 10
1394222.66906012
 20
359575.126071383
 10
1394216.34906457
 20
359591.9960697911
 10
1394213.90906537
 20
359593.856069943
 10
1394208.01906717
 20
359598.126070511
 10
1394192.14906557
 20
359576.1760775321
 10
1394190.02906631
 20
359578.1560776301
 10
1394175.17906477
 20
359557.386084269
 10
1394170.2190642
 20
359550.226086559
 10
1394168.23906399
 20
359547.316087489
 10
1394165.26906366
 20
359542.946088842
 10
1394164.00906342
 20
359540.846089434
 10
1394162.41906313
 20
359537.806090362
 10
1394160.43906254
 20
359532.996091528
 10
1394158.45906163
 20
359526.956092968
 10
1394157.18906078
 20
359521.646094236
 10
1394139.50906588
 20
359531.846096051
 10
1394137.53906638
 20
359532.6160963811
  0
LWPOLYLINE
  5
249
330
1C
100
AcDbEntity
  8
Ранее утвержденные охранные зоны
370
    20
100
AcDbPolyline
 90
       19
 70
     0
 43
0.0
 10
1393831.15246209
 20
358279.1411436271
 10
1393793.10542129
 20
358245.483733025
 10
1393774.94893739
 20
358243.0757332921
 10
1393766.29893865
 20
358241.915735211
 10
1393755.17012656
 20
358239.335841775
 10
1393710.23553098
 20
358197.328651331
 10
1393703.56894185
 20
358203.445754319
 10
1393686.10786519
 20
358222.253561186
 10
1393695.52894865
 20
358230.695751198
 10
1393700.7589487
 20
358235.475749334
 10
1393715.36894883
 20
358248.8457441271
 10
1393721.16894891
 20
358254.345742019
 10
1393730.81894926
 20
358264.485738359
 10
1393735.72894935
 20
358269.2257365671
 10
1393761.97894953
 20
358292.955727245
 10
1393766.91894961
 20
358297.645725458
 10
1393788.54895015
 20
358319.245717439
 10
1393790.7178223
 20
358321.398414023
 10
1393831.15246209
 20
358279.1411436271
  0
LWPOLYLINE
  5
24A
330
1C
100
AcDbEntity
  8
Ранее утвержденные охранные зоны
370
    20
100
AcDbPolyline
 90
        9
 70
     0
 43
0.0
 10
1393831.15246209
 20
358279.1411436271
 10
1393790.7178223
 20
358321.398414023
 10
1393829.25895024
 20
358355.0857031581
 10
1393833.2489503
 20
358358.885701707
 10
1393836.45895038
 20
358362.0757005271
 10
1393865.78452015
 20
358387.724569786
 10
1393903.96800873
 20
358347.069222466
 10
1393881.41893548
 20
358326.115697805
 10
1393831.15246209
 20
358279.1411436271
  0
LWPOLYLINE
  5
24B
330
1C
100
AcDbEntity
  8
Ранее утвержденные охранные зоны
370
    20
100
AcDbPolyline
 90
       12
 70
     0
 43
0.0
 10
1394080.24890713
 20
358680.2762554111
 10
1394128.80890521
 20
358712.846239708
 10
1394132.25890371
 20
358708.456239745
 10
1394139.81890138
 20
358703.366239026
 10
1394159.34889414
 20
358683.6262384821
 10
1394145.32889395
 20
358670.726243605
 10
1394135.74889295
 20
358657.326247828
 10
1394118.94889167
 20
358636.1562550401
 10
1394099.18889935
 20
358657.636255329
 10
1394085.33890476
 20
358672.696255618
 10
1394082.32890564
 20
358674.8562558471
 10
1394080.24890713
 20
358680.2762554111
  0
LWPOLYLINE
  5
24C
330
1C
100
AcDbEntity
  8
Ранее утвержденные охранные зоны
370
    20
100
AcDbPolyline
 90
       11
 70
     0
 43
0.0
 10
1393179.00890576
 20
357890.856577985
 10
1393190.59890726
 20
357908.176572609
 10
1393223.84890952
 20
357948.69655874
 10
1393221.26891047
 20
357951.4165587871
 10
1393267.37891413
 20
358009.706539163
 10
1393299.38891345
 20
358034.3265283261
 10
1393344.48890305
 20
358020.626521419
 10
1393439.01887158
 20
357944.58651498
 10
1393297.50886955
 20
357811.366567278
 10
1393250.74888545
 20
357850.8765700461
 10
1393179.00890576
 20
357890.856577985
  0
LWPOLYLINE
  5
24D
330
1C
100
AcDbEntity
  8
Ранее утвержденные охранные зоны
370
    20
100
AcDbPolyline
 90
       21
 70
     0
 43
0.0
 10
1392222.53239575
 20
356281.07686446
 10
1392206.26726527
 20
356294.149210284
 10
1392178.62456722
 20
356334.6789330161
 10
1392184.11036076
 20
356387.4013202111
 10
1392137.28602302
 20
356427.138366574
 10
1392117.72151053
 20
356416.078230179
 10
1392114.52976118
 20
356446.4502572721
 10
1392133.8633199
 20
356469.934177778
 10
1392173.61701411
 20
356489.916952594
 10
1392247.2188507
 20
356476.5563417771
 10
1392237.59461591
 20
356457.739513193
 10
1392257.94884087
 20
356436.376346586
 10
1392270.29883622
 20
356423.6663463311
 10
1392287.76883033
 20
356409.206345362
 10
1392318.25882248
 20
356396.1463415701
 10
1392342.21881603
 20
356384.49633883
 10
1392325.46880973
 20
356338.1763501521
 10
1392327.40879765
 20
356278.986359992
 10
1392320.08879298
 20
356249.076366608
 10
1392294.50979835
 20
356253.9243708501
 10
1392222.53239575
 20
356281.07686446
  0
LWPOLYLINE
  5
24E
330
1C
100
AcDbEntity
  8
Ранее утвержденные охранные зоны
370
    20
100
AcDbPolyline
 90
       27
 70
     0
 43
0.0
 10
1392495.75218423
 20
356215.4485432401
 10
1392526.60490484
 20
356244.0058498771
 10
1392559.95273582
 20
356255.1914803761
 10
1392640.9138363
 20
356258.54958173
 10
1392611.14188849
 20
356224.1559616101
 10
1392611.59233348
 20
356212.4540915661
 10
1392631.87093005
 20
356201.954067113
 10
1392642.27872807
 20
356202.386310733
 10
1392698.46402933
 20
356182.728601598
 10
1392726.97412991
 20
356183.963474645
 10
1392739.97302588
 20
356228.048551616
 10
1392712.96406496
 20
356235.5374604511
 10
1392717.21922983
 20
356258.882463484
 10
1392797.6244498
 20
356255.1501456171
 10
1392822.29869842
 20
356209.646273745
 10
1392800.42723412
 20
356195.7910299211
 10
1392756.200630899
 20
356189.6703079101
 10
1392752.92521748
 20
356183.25080131
 10
1392753.95775345
 20
356164.7971790421
 10
1392783.95452073
 20
356129.2590882671
 10
1392691.72822186
 20
356059.703374474
 10
1392659.3377448
 20
356090.179164134
 10
1392625.98872147
 20
356154.9963221461
 10
1392594.04002592
 20
356186.625936324
 10
1392579.01381295
 20
356168.8918192161
 10
1392514.10609398
 20
356212.9842587571
 10
1392495.75218423
 20
356215.4485432401
  0
LWPOLYLINE
  5
24F
330
1C
100
AcDbEntity
  8
Ранее утвержденные охранные зоны
370
    20
100
AcDbPolyline
 90
        5
 70
     0
 43
0.0
 10
1395366.98883969
 20
359458.335854996
 10
1395404.91883062
 20
359445.595849445
 10
1395398.81882812
 20
359427.955853653
 10
1395360.98883726
 20
359440.895859237
 10
1395366.98883969
 20
359458.335854996
  0
LWPOLYLINE
  5
2C7
330
1C
100
AcDbEntity
  8
Ранее утвержденные охранные зоны
370
    20
100
AcDbPolyline
 90
       13
 70
     0
 43
0.0
 10
1395034.89894855
 20
360512.845148408
 10
1395060.408943
 20
360506.7551441871
 10
1395083.69893787
 20
360501.1651403071
 10
1395079.12893513
 20
360483.555144315
 10
1395076.57893377
 20
360474.3351463821
 10
1395072.03893141
 20
360458.695150079
 10
1395066.17892825
 20
360437.335154945
 10
1394971.7889493
 20
360461.815170283
 10
1394977.37895271
 20
360483.785165263
 10
1395025.20894217
 20
360472.015157395
 10
1395030.04894508
 20
360491.1451531811
 10
1395031.7189465
 20
360499.5451513401
 10
1395034.89894855
 20
360512.845148408
  0
LWPOLYLINE
  5
2E4
330
1C
100
AcDbEntity
  8
Ранее утвержденные охранные зоны
370
    20
100
AcDbPolyline
 90
       21
 70
     0
 43
0.0
 10
1392222.53239575
 20
356281.07686446
 10
1392206.26726527
 20
356294.149210284
 10
1392178.62456722
 20
356334.6789330161
 10
1392184.11036076
 20
356387.4013202111
 10
1392137.28602302
 20
356427.138366574
 10
1392117.72151053
 20
356416.078230179
 10
1392114.52976118
 20
356446.4502572721
 10
1392133.8633199
 20
356469.934177778
 10
1392173.61701411
 20
356489.916952594
 10
1392247.2188507
 20
356476.5563417771
 10
1392237.59461591
 20
356457.739513193
 10
1392257.94884087
 20
356436.376346586
 10
1392270.29883622
 20
356423.6663463311
 10
1392287.76883033
 20
356409.206345362
 10
1392318.25882248
 20
356396.1463415701
 10
1392342.21881603
 20
356384.49633883
 10
1392325.46880973
 20
356338.1763501521
 10
1392327.40879765
 20
356278.986359992
 10
1392320.08879298
 20
356249.076366608
 10
1392294.50979835
 20
356253.9243708501
 10
1392222.53239575
 20
356281.07686446
  0
LWPOLYLINE
  5
2E5
330
1C
100
AcDbEntity
  8
Ранее утвержденные охранные зоны
370
    20
100
AcDbPolyline
 90
       27
 70
     0
 43
0.0
 10
1392495.75218423
 20
356215.4485432401
 10
1392526.60490484
 20
356244.0058498771
 10
1392559.95273582
 20
356255.1914803761
 10
1392640.9138363
 20
356258.54958173
 10
1392611.14188849
 20
356224.1559616101
 10
1392611.59233348
 20
356212.4540915661
 10
1392631.87093005
 20
356201.954067113
 10
1392642.27872807
 20
356202.386310733
 10
1392698.46402933
 20
356182.728601598
 10
1392726.97412991
 20
356183.963474645
 10
1392739.97302588
 20
356228.048551616
 10
1392712.96406496
 20
356235.5374604511
 10
1392717.21922983
 20
356258.882463484
 10
1392797.6244498
 20
356255.1501456171
 10
1392822.29869842
 20
356209.646273745
 10
1392800.42723412
 20
356195.7910299211
 10
1392756.200630899
 20
356189.6703079101
 10
1392752.92521748
 20
356183.25080131
 10
1392753.95775345
 20
356164.7971790421
 10
1392783.95452073
 20
356129.2590882671
 10
1392691.72822186
 20
356059.703374474
 10
1392659.3377448
 20
356090.179164134
 10
1392625.98872147
 20
356154.9963221461
 10
1392594.04002592
 20
356186.625936324
 10
1392579.01381295
 20
356168.8918192161
 10
1392514.10609398
 20
356212.9842587571
 10
1392495.75218423
 20
356215.4485432401
  0
LWPOLYLINE
  5
2E6
330
1C
100
AcDbEntity
  8
Ранее утвержденные охранные зоны
370
    20
100
AcDbPolyline
 90
       19
 70
     0
 43
0.0
 10
1393831.15246209
 20
358279.1411436271
 10
1393793.10542129
 20
358245.483733025
 10
1393774.94893739
 20
358243.0757332921
 10
1393766.29893865
 20
358241.915735211
 10
1393755.17012656
 20
358239.335841775
 10
1393710.23553098
 20
358197.328651331
 10
1393703.56894185
 20
358203.445754319
 10
1393686.10786519
 20
358222.253561186
 10
1393695.52894865
 20
358230.695751198
 10
1393700.7589487
 20
358235.475749334
 10
1393715.36894883
 20
358248.8457441271
 10
1393721.16894891
 20
358254.345742019
 10
1393730.81894926
 20
358264.485738359
 10
1393735.72894935
 20
358269.2257365671
 10
1393761.97894953
 20
358292.955727245
 10
1393766.91894961
 20
358297.645725458
 10
1393788.54895015
 20
358319.245717439
 10
1393790.7178223
 20
358321.398414023
 10
1393831.15246209
 20
358279.1411436271
  0
LWPOLYLINE
  5
2E7
330
1C
100
AcDbEntity
  8
Ранее утвержденные охранные зоны
370
    20
100
AcDbPolyline
 90
        9
 70
     0
 43
0.0
 10
1393831.15246209
 20
358279.1411436271
 10
1393790.7178223
 20
358321.398414023
 10
1393829.25895024
 20
358355.0857031581
 10
1393833.2489503
 20
358358.885701707
 10
1393836.45895038
 20
358362.0757005271
 10
1393865.78452015
 20
358387.724569786
 10
1393903.96800873
 20
358347.069222466
 10
1393881.41893548
 20
358326.115697805
 10
1393831.15246209
 20
358279.1411436271
  0
LWPOLYLINE
  5
2E8
330
1C
100
AcDbEntity
  8
Ранее утвержденные охранные зоны
370
    20
100
AcDbPolyline
 90
       12
 70
     0
 43
0.0
 10
1394080.24890713
 20
358680.2762554111
 10
1394128.80890521
 20
358712.846239708
 10
1394132.25890371
 20
358708.456239745
 10
1394139.81890138
 20
358703.366239026
 10
1394159.34889414
 20
358683.6262384821
 10
1394145.32889395
 20
358670.726243605
 10
1394135.74889295
 20
358657.326247828
 10
1394118.94889167
 20
358636.1562550401
 10
1394099.18889935
 20
358657.636255329
 10
1394085.33890476
 20
358672.696255618
 10
1394082.32890564
 20
358674.8562558471
 10
1394080.24890713
 20
358680.2762554111
  0
LWPOLYLINE
  5
2E9
330
1C
100
AcDbEntity
  8
Ранее утвержденные охранные зоны
370
    20
100
AcDbPolyline
 90
       11
 70
     0
 43
0.0
 10
1393179.00890576
 20
357890.856577985
 10
1393190.59890726
 20
357908.176572609
 10
1393223.84890952
 20
357948.69655874
 10
1393221.26891047
 20
357951.4165587871
 10
1393267.37891413
 20
358009.706539163
 10
1393299.38891345
 20
358034.3265283261
 10
1393344.48890305
 20
358020.626521419
 10
1393439.01887158
 20
357944.58651498
 10
1393297.50886955
 20
357811.366567278
 10
1393250.74888545
 20
357850.8765700461
 10
1393179.00890576
 20
357890.856577985
  0
LWPOLYLINE
  5
2EA
330
1C
100
AcDbEntity
  8
Ранее утвержденные охранные зоны
370
    20
100
AcDbPolyline
 90
       35
 70
     0
 43
0.0
 10
1397172.75160217
 20
359639.668328053
 10
1397175.88060149
 20
359638.953327454
 10
1397219.88059103
 20
359624.5373211071
 10
1397224.75958976
 20
359622.4143205041
 10
1397223.32958889
 20
359616.777321761
 10
1397218.19759006
 20
359618.2183225371
 10
1397215.90958885
 20
359610.1443243821
 10
1397213.70958935
 20
359610.694324717
 10
1397211.36158814
 20
359602.587326588
 10
1397208.02858891
 20
359603.505327093
 10
1397207.01658825
 20
359599.336328016
 10
1397197.50158301
 20
359564.6483360001
 10
1397193.50858083
 20
359550.2053392871
 10
1397191.94657999
 20
359544.606340568
 10
1397188.48157806
 20
359531.813343466
 10
1397190.75857725
 20
359529.7233433771
 10
1397189.03157621
 20
359522.996344878
 10
1397187.27157525
 20
359516.644346329
 10
1397187.04057514
 20
359515.8573465091
 10
1397180.25857677
 20
359518.206347451
 10
1397178.32857722
 20
359518.7453477421
 10
1397172.8615785
 20
359520.4663485301
 10
1397169.67157936
 20
359522.0233489901
 10
1397162.856581
 20
359524.36634994
 10
1397161.11858452
 20
359540.5473474911
 10
1397154.59058643
 20
359544.523348101
 10
1397154.0185866
 20
359544.875348151
 10
1397153.58958687
 20
359545.8433480671
 10
1397152.95658827
 20
359552.3943470651
 10
1397149.92658911
 20
359553.978347394
 10
1397174.46759877
 20
359623.9873303121
 10
1397173.19160085
 20
359633.376329047
 10
1397172.0086018
 20
359637.1163286371
 10
1397172.36060203
 20
359638.595328314
 10
1397172.75160217
 20
359639.668328053
  0
LWPOLYLINE
  5
2EB
330
1C
100
AcDbEntity
  8
Ранее утвержденные охранные зоны
370
    20
100
AcDbPolyline
 90
       23
 70
     0
 43
0.0
 10
1395380.71890461
 20
359797.3657936851
 10
1395386.05890845
 20
359821.635788332
 10
1395394.55891484
 20
359860.775779864
 10
1395394.54891633
 20
359868.625778493
 10
1395392.64891851
 20
359877.6257773361
 10
1395388.99892126
 20
359888.425776214
 10
1395388.60892151
 20
359889.555776095
 10
1395381.08892546
 20
359902.955775372
 10
1395380.99892552
 20
359903.22577525
 10
1395378.44892791
 20
359912.645774234
 10
1395336.02893262
 20
359899.825785154
 10
1395331.32893214
 20
359893.3957872551
 10
1395321.47892628
 20
359855.335795826
 10
1395313.46892094
 20
359821.1658034479
 10
1395322.83891891
 20
359819.065801888
 10
1395323.51891873
 20
359818.895801762
 10
1395341.83891476
 20
359814.695798698
 10
1395340.68891405
 20
359810.1157996711
 10
1395349.68891198
 20
359807.7857983021
 10
1395359.98890977
 20
359805.215796615
 10
1395359.45890938
 20
359803.0957970701
 10
1395375.31890579
 20
359798.695794494
 10
1395380.71890461
 20
359797.3657936851
  0
LWPOLYLINE
  5
2EC
330
1C
100
AcDbEntity
  8
Ранее утвержденные охранные зоны
370
    20
100
AcDbPolyline
 90
       26
 70
     0
 43
0.0
 10
1395331.32893214
 20
359893.3957872551
 10
1395336.02893262
 20
359899.825785154
 10
1395339.08759288
 20
359900.7501602911
 10
1395335.1179367
 20
359919.409781945
 10
1395325.2869379
 20
359917.064784455
 10
1395267.46695083
 20
359931.94779376
 10
1395261.52094763
 20
359910.638798755
 10
1395251.56894199
 20
359873.828807096
 10
1395251.07894056
 20
359865.6868086511
 10
1395250.21693985
 20
359861.832809533
 10
1395277.84993359
 20
359854.315805049
 10
1395277.98193374
 20
359855.1148048521
 10
1395284.64893232
 20
359853.452803789
 10
1395284.34193212
 20
359852.231804098
 10
1395298.60692893
 20
359848.641801769
 10
1395293.22892545
 20
359826.3178067661
 10
1395294.53392512
 20
359825.9888064771
 10
1395286.70192043
 20
359795.386813436
 10
1395316.7109137
 20
359787.851808504
 10
1395320.02891585
 20
359801.43180546
 10
1395319.36091602
 20
359801.6918056031
 10
1395321.5699174
 20
359810.2748036511
 10
1395323.6235266
 20
359818.849330542
 10
1395313.46877992
 20
359821.165201868
 10
1395321.47892628
 20
359855.335795826
 10
1395331.32893214
 20
359893.3957872551
  0
LWPOLYLINE
  5
2ED
330
1C
100
AcDbEntity
  8
Ранее утвержденные охранные зоны
370
    20
100
AcDbPolyline
 90
       23
 70
     0
 43
0.0
 10
1395576.11134996
 20
359659.784412253
 10
1395579.77135229
 20
359674.644408955
 10
1395581.78135355
 20
359682.814407153
 10
1395535.58174051
 20
359675.4844779511
 10
1395536.40129478
 20
359668.77506506
 10
1395522.99154235
 20
359666.0051190479
 10
1395519.18135813
 20
359651.404425013
 10
1395514.10135507
 20
359631.5644294501
 10
1395489.65136046
 20
359637.424433299
 10
1395474.69136393
 20
359641.8844354971
 10
1395475.35136439
 20
359644.764434868
 10
1395462.60136724
 20
359648.0444368371
 10
1395462.59977564
 20
359648.038154655
 10
1395456.27129874
 20
359619.335090115
 10
1395455.38071835
 20
359619.543860353
 10
1395454.85136251
 20
359617.4544436629
 10
1395451.43136041
 20
359603.9244466721
 10
1395539.21134078
 20
359581.45443313
 10
1395542.2413431
 20
359595.784430046
 10
1395543.21134385
 20
359600.3544290571
 10
1395560.14134007
 20
359596.0844264371
 10
1395562.08134159
 20
359605.424424443
 10
1395576.11134996
 20
359659.784412253
  0
LWPOLYLINE
  5
2EE
330
1C
100
AcDbEntity
  8
Ранее утвержденные охранные зоны
370
    20
100
AcDbPolyline
 90
       71
 70
     0
 43
0.0
 10
1397147.12996133
 20
359727.0737496029
 10
1397142.42159955
 20
359713.333892255
 10
1397119.86865287
 20
359721.054813773
 10
1397094.64865894
 20
359729.684817299
 10
1397099.19362474
 20
359743.339776489
 10
1397097.89361604
 20
359743.860050464
 10
1397078.67866579
 20
359750.274816908
 10
1397072.08980065
 20
359752.300135821
 10
1397069.16866803
 20
359753.294818273
 10
1397064.82866906
 20
359754.704818896
 10
1397048.07472933
 20
359760.435214869
 10
1397048.79220565
 20
359762.549926138
 10
1397051.38813731
 20
359770.2012535071
 10
1397053.25513676
 20
359776.060335692
 10
1397056.5786768
 20
359786.544815026
 10
1397055.58057455
 20
359793.173147086
 10
1397042.34868159
 20
359798.274815827
 10
1397041.19868186
 20
359798.644815989
 10
1397046.10868415
 20
359814.494812275
 10
1397049.83868498
 20
359821.8548102661
 10
1397051.31868635
 20
359830.074808551
 10
1397054.6163792
 20
359841.124807934
 10
1396967.59747908
 20
359869.332612059
 10
1396894.15789236
 20
359889.190739943
 10
1396894.26156858
 20
359898.1150273
 10
1396894.31372764
 20
359901.3548274
 10
1396983.48996644
 20
359876.545680354
 10
1397013.7587004
 20
359868.12480943
 10
1397028.38869682
 20
359862.854807435
 10
1397048.80575976
 20
359856.2288672801
 10
1397075.76120953
 20
359850.860815116
 10
1397118.44718546
 20
359865.421044213
 10
1397129.1086817
 20
359874.354785448
 10
1397141.93868213
 20
359887.734780588
 10
1397144.56868296
 20
359894.1847789521
 10
1397146.2143258
 20
359897.259219451
 10
1397150.7886842
 20
359905.804775704
 10
1397149.46868456
 20
359906.484775857
 10
1397139.28276159
 20
359911.290469698
 10
1397140.96715888
 20
359915.938547093
 10
1397145.08868946
 20
359927.3547731201
 10
1397152.94605835
 20
359970.718330985
 10
1397194.8089906
 20
359971.737423444
 10
1397191.64757165
 20
359962.1516344821
 10
1397186.22868625
 20
359946.99476155
 10
1397188.04868588
 20
359946.734761233
 10
1397176.18868206
 20
359917.1847687041
 10
1397167.56867706
 20
359884.424776073
 10
1397172.05867391
 20
359872.514777239
 10
1397170.76689756
 20
359860.012453565
 10
1397169.78866994
 20
359850.5447814871
 10
1397168.53866922
 20
359845.804782549
 10
1397167.60737592
 20
359841.610841449
 10
1397184.55866461
 20
359836.534780979
 10
1397188.1886638
 20
359835.6147804131
 10
1397202.8586605
 20
359831.744778166
 10
1397213.45865784
 20
359827.564776784
 10
1397231.56865412
 20
359824.554773714
 10
1397239.31864686
 20
359794.784777323
 10
1397246.52864447
 20
359788.9547768911
 10
1397228.21863792
 20
359740.044788988
 10
1397228.86863776
 20
359739.804788895
 10
1397220.5486343
 20
359715.124794808
 10
1397219.08863368
 20
359710.774795856
 10
1397217.43863288
 20
359705.284797134
 10
1397216.58667453
 20
359702.7793637211
 10
1397205.24863525
 20
359706.6347993151
 10
1397198.09863697
 20
359709.064800322
 10
1397196.40863748
 20
359710.144800468
 10
1397190.79230119
 20
359711.9434112791
 10
1397147.12996133
 20
359727.0737496029
  0
LWPOLYLINE
  5
2EF
330
1C
100
AcDbEntity
  8
Ранее утвержденные охранные зоны
370
    20
100
AcDbPolyline
 90
       18
 70
     0
 43
0.0
 10
1395543.22240492
 20
359600.399010761
 10
1395727.89957944
 20
359553.758157403
 10
1395744.89266501
 20
359549.768120841
 10
1395730.93580374
 20
359493.73542836
 10
1395716.07512266
 20
359461.796479496
 10
1395711.90053916
 20
359440.2242339211
 10
1395687.26188161
 20
359442.748949381
 10
1395678.29457328
 20
359359.840359198
 10
1395595.23688577
 20
359380.6828430071
 10
1395566.29960503
 20
359297.83401974
 10
1395412.24845213
 20
359351.636684778
 10
1395460.20240051
 20
359481.5130626461
 10
1395465.35342457
 20
359483.4680120551
 10
1395472.4426638
 20
359505.266095276
 10
1395467.78673216
 20
359506.7133352961
 10
1395474.80463204
 20
359533.603318788
 10
1395526.25566007
 20
359520.21822562
 10
1395543.22240492
 20
359600.399010761
  0
LWPOLYLINE
  5
2F0
330
1C
100
AcDbEntity
  8
Ранее утвержденные охранные зоны
370
    20
100
AcDbPolyline
 90
       18
 70
     0
 43
0.0
 10
1394845.0888995
 20
359306.575989144
 10
1394860.63889555
 20
359300.135986988
 10
1394882.0489021
 20
359351.6759736711
 10
1394910.89889473
 20
359339.825969787
 10
1394966.80888085
 20
359318.445961908
 10
1394869.21884618
 20
359058.546026979
 10
1394748.42887524
 20
359100.346044673
 10
1394676.52889035
 20
359113.8760571951
 10
1394715.8189108
 20
359251.146025408
 10
1394622.64893112
 20
359272.5160409471
 10
1394625.04893282
 20
359282.956038663
 10
1394436.05897488
 20
359331.106069455
 10
1394440.34897792
 20
359349.896065298
 10
1394689.63892316
 20
359290.4460240261
 10
1394723.86891561
 20
359282.076018434
 10
1394721.55891421
 20
359273.4260203631
 10
1394818.81889237
 20
359247.6560047511
 10
1394845.0888995
 20
359306.575989144
  0
LWPOLYLINE
  5
2F1
330
1C
100
AcDbEntity
  8
Ранее утвержденные охранные зоны
370
    20
100
AcDbPolyline
 90
       19
 70
     0
 43
0.0
 10
1394703.26895136
 20
359444.2959946201
 10
1394721.59894655
 20
359436.355992205
 10
1394751.77894
 20
359429.515987186
 10
1394748.01893659
 20
359408.8559915061
 10
1394738.44893836
 20
359409.815993319
 10
1394737.1289375
 20
359403.855994658
 10
1394788.35892626
 20
359391.8159861721
 10
1394750.25892324
 20
359343.526002355
 10
1394741.66891881
 20
359313.9860092311
 10
1394721.74892331
 20
359319.14601244
 10
1394711.64891767
 20
359281.906020953
 10
1394613.8589392
 20
359305.416037135
 10
1394623.99894507
 20
359344.006028319
 10
1394651.27893902
 20
359337.256023901
 10
1394654.18894088
 20
359348.956021248
 10
1394673.14893676
 20
359344.7460180551
 10
1394684.65894385
 20
359390.266007878
 10
1394690.63894245
 20
359388.846006874
 10
1394703.26895136
 20
359444.2959946201
  0
LWPOLYLINE
  5
2F2
330
1C
100
AcDbEntity
  8
Ранее утвержденные охранные зоны
370
    20
100
AcDbPolyline
 90
       29
 70
     0
 43
0.0
 10
1394731.8690141
 20
359785.285929842
 10
1394786.53900189
 20
359771.5159209029
 10
1394767.73898976
 20
359693.9159382291
 10
1394829.5689761
 20
359679.145928008
 10
1394783.71895303
 20
359522.705964509
 10
1394824.31894381
 20
359511.40595799
 10
1394832.84894913
 20
359545.645950331
 10
1394826.35895058
 20
359547.455951413
 10
1394829.36895234
 20
359558.855948841
 10
1394862.66894469
 20
359549.185943544
 10
1394847.48893538
 20
359489.105957088
 10
1394839.46893723
 20
359491.4259583361
 10
1394803.66892828
 20
359415.23597892
 10
1394751.77894
 20
359429.515987186
 10
1394721.59894655
 20
359436.355992205
 10
1394703.26895136
 20
359444.2959946201
 10
1394680.66895629
 20
359449.8459983121
 10
1394693.36896375
 20
359498.095987418
 10
1394668.23896928
 20
359504.575991503
 10
1394673.63897256
 20
359525.495986796
 10
1394661.24897529
 20
359528.665988751
 10
1394667.06897958
 20
359555.365982912
 10
1394681.68897645
 20
359552.015980463
 10
1394702.49898975
 20
359637.225961508
 10
1394707.20898865
 20
359636.0859606861
 10
1394725.43900452
 20
359731.7459404761
 10
1394728.00900647
 20
359743.6159378421
 10
1394721.69900788
 20
359745.085938866
 10
1394731.8690141
 20
359785.285929842
  0
LWPOLYLINE
  5
2F3
330
1C
100
AcDbEntity
  8
Ранее утвержденные охранные зоны
370
    20
100
AcDbPolyline
 90
       20
 70
     0
 43
0.0
 10
1396844.1587254
 20
359846.5048468361
 10
1396889.77871471
 20
359832.314840233
 10
1396912.67870933
 20
359825.204836914
 10
1396913.35870918
 20
359825.0048368121
 10
1396907.97870695
 20
359809.1248406261
 10
1396914.33870553
 20
359807.454839651
 10
1396945.81869844
 20
359799.164834835
 10
1396940.29869586
 20
359781.3648390129
 10
1396910.65870324
 20
359792.754842926
 10
1396905.6987013
 20
359778.6048463611
 10
1396904.88870086
 20
359775.7348470171
 10
1396901.63870037
 20
359770.374848584
 10
1396897.73869901
 20
359760.154851126
 10
1396896.19869834
 20
359755.4448522441
 10
1396895.48869793
 20
359752.794852848
 10
1396887.54869994
 20
359755.964853867
 10
1396867.69870641
 20
359771.2948551701
 10
1396876.79871012
 20
359797.934848748
 10
1396832.04872277
 20
359822.7148533571
 10
1396844.1587254
 20
359846.5048468361
  0
LWPOLYLINE
  5
2F4
330
1C
100
AcDbEntity
  8
Ранее утвержденные охранные зоны
370
    20
100
AcDbPolyline
 90
       26
 70
     0
 43
0.0
 10
1396598.48683285
 20
359883.6912368561
 10
1396690.48751905
 20
359915.9369967951
 10
1396688.96876681
 20
359920.004864945
 10
1396705.82876493
 20
359925.224860699
 10
1396723.03876085
 20
359919.624858254
 10
1396743.11875724
 20
359918.944854383
 10
1396752.24875551
 20
359918.194852697
 10
1396759.666537
 20
359918.3135697621
 10
1396759.98875162
 20
359905.334853386
 10
1396764.00874966
 20
359898.9548536891
 10
1396776.25821692
 20
359893.549148045
 10
1396799.18970481
 20
359894.940696001
 10
1396799.71560068
 20
359877.933027979
 10
1396779.56874294
 20
359878.65485411
 10
1396766.69174193
 20
359860.378507779
 10
1396779.24149202
 20
359837.7820071921
 10
1396803.32127372
 20
359819.5987446871
 10
1396791.26048503
 20
359802.9773375421
 10
1396764.48166039
 20
359819.5543071371
 10
1396744.78873964
 20
359831.744869123
 10
1396719.67874685
 20
359846.214871607
 10
1396673.3487548
 20
359845.924880858
 10
1396649.52207226
 20
359845.061680865
 10
1396616.14823037
 20
359830.8090102721
 10
1396612.2619451
 20
359848.484552936
 10
1396598.48683285
 20
359883.6912368561
  0
LWPOLYLINE
  5
2F5
330
1C
100
AcDbEntity
  8
Ранее утвержденные охранные зоны
370
    20
100
AcDbPolyline
 90
       22
 70
     0
 43
0.0
 10
1395193.89917009
 20
360650.4650355731
 10
1395192.94916949
 20
360646.615036425
 10
1395189.72916784
 20
360635.525038986
 10
1395189.41916745
 20
360633.255039438
 10
1395186.82916547
 20
360621.045042059
 10
1395186.34916529
 20
360619.705042387
 10
1395190.91916275
 20
360610.865043012
 10
1395191.19916152
 20
360604.915043979
 10
1395187.46915897
 20
360588.825047503
 10
1395184.16915726
 20
360577.345050141
 10
1395180.90915513
 20
360563.785053133
 10
1395177.85915315
 20
360551.155055924
 10
1395240.9091391
 20
360535.285046145
 10
1395241.38913939
 20
360537.105045735
 10
1395261.35913476
 20
360531.1550427911
 10
1395277.48914528
 20
360598.2650279911
 10
1395277.71914564
 20
360600.265027601
 10
1395278.14914556
 20
360600.205027526
 10
1395286.98915117
 20
360636.175019562
 10
1395287.78915152
 20
360638.6450189761
 10
1395266.46915635
 20
360644.36502222
 10
1395193.89917009
 20
360650.4650355731
  0
LWPOLYLINE
  5
2F6
330
1C
100
AcDbEntity
  8
Ранее утвержденные охранные зоны
370
    20
100
AcDbPolyline
 90
       23
 70
     0
 43
0.0
 10
1395285.76917311
 20
360745.6750008771
 10
1395276.31916829
 20
360713.115008376
 10
1395209.8391828
 20
360728.345018951
 10
1395202.13917756
 20
360695.245026205
 10
1395134.19919247
 20
360711.235036923
 10
1395090.85920184
 20
360720.765043882
 10
1395078.61919409
 20
360671.035054913
 10
1395087.45918484
 20
360632.155059869
 10
1395137.29917789
 20
360640.525048531
 10
1395139.6191778
 20
360642.065047805
 10
1395151.06917637
 20
360644.82504505
 10
1395167.47917393
 20
360646.825041453
 10
1395193.89917009
 20
360650.4650355731
 10
1395266.46915635
 20
360644.36502222
 10
1395287.78915152
 20
360638.6450189761
 10
1395298.94915639
 20
360672.875010839
 10
1395299.36915667
 20
360674.615010454
 10
1395301.51915806
 20
360683.5350084901
 10
1395302.7891589
 20
360688.8950073101
 10
1395313.1891649
 20
360728.1449984571
 10
1395314.96916558
 20
360733.0949972521
 10
1395318.13916638
 20
360739.8849954471
 10
1395285.76917311
 20
360745.6750008771
  0
LWPOLYLINE
  5
2F7
330
1C
100
AcDbEntity
  8
Ранее утвержденные охранные зоны
370
    20
100
AcDbPolyline
 90
       15
 70
     0
 43
0.0
 10
1395494.75206319
 20
360040.370124553
 10
1395505.4432495
 20
360038.389903971
 10
1395553.46858196
 20
360029.518914249
 10
1395581.051647
 20
360022.6081429461
 10
1395613.03520337
 20
360015.0572988351
 10
1395606.13442863
 20
359977.8531609131
 10
1395597.02340462
 20
359940.669027373
 10
1395593.92305602
 20
359929.717810445
 10
1395502.40289625
 20
359954.1905596311
 10
1395494.94206988
 20
359959.6411666541
 10
1395488.83139381
 20
359966.7219539661
 10
1395485.4010148
 20
359972.852634996
 10
1395483.23077582
 20
359980.3034620721
 10
1395483.11076383
 20
359986.2541222171
 10
1395494.75206319
 20
360040.370124553
  0
LWPOLYLINE
  5
2F8
330
1C
100
AcDbEntity
  8
Ранее утвержденные охранные зоны
370
    20
100
AcDbPolyline
 90
       30
 70
     0
 43
0.0
 10
1399212.89177932
 20
359893.06524188
 10
1399179.18713257
 20
359808.278945231
 10
1399197.33831029
 20
359803.794387269
 10
1399199.70830961
 20
359802.4143870301
 10
1399205.00830783
 20
359798.0143867461
 10
1399208.31830655
 20
359794.4343867091
 10
1399213.2183051
 20
359791.424386247
 10
1399214.78830474
 20
359791.0143860171
 10
1399244.60829785
 20
359782.264381596
 10
1399248.61483846
 20
359772.39696541
 10
1399263.09438768
 20
359772.322335588
 10
1399284.8185097
 20
359748.5243436421
 10
1399310.94827955
 20
359747.8243743751
 10
1399325.988279
 20
359758.1743695921
 10
1399333.63827761
 20
359757.794368147
 10
1399349.93827577
 20
359762.704364056
 10
1399354.51828408
 20
359808.554355223
 10
1399298.39829319
 20
359805.5943668811
 10
1399290.29829463
 20
359805.814368449
 10
1399282.6482961
 20
359806.564369846
 10
1399274.85829772
 20
359807.904371155
 10
1399270.84829859
 20
359808.864371789
 10
1399267.10829955
 20
359810.4143722671
 10
1399257.48830265
 20
359817.634372923
 10
1399242.81830785
 20
359831.054373521
 10
1399231.58831336
 20
359849.0443726411
 10
1399227.41831506
 20
359853.9543726211
 10
1399217.8183205
 20
359873.054371225
 10
1399224.18128782
 20
359888.377133664
 10
1399212.89177932
 20
359893.06524188
  0
LWPOLYLINE
  5
2F9
330
1C
100
AcDbEntity
  8
Ранее утвержденные охранные зоны
370
    20
100
AcDbPolyline
 90
       62
 70
     0
 43
0.0
 10
1398562.38834002
 20
359400.664582755
 10
1398598.24833471
 20
359405.1545748511
 10
1398674.86832367
 20
359416.2445577261
 10
1398685.02832345
 20
359423.974554368
 10
1398742.89831683
 20
359441.004539931
 10
1398756.82831521
 20
359444.974536487
 10
1398772.38831408
 20
359452.8145320371
 10
1398778.86831408
 20
359458.4945297741
 10
1398780.84831355
 20
359457.504529549
 10
1398787.80831236
 20
359457.5745281561
 10
1398787.958312
 20
359455.924528414
 10
1398792.22831191
 20
359459.154527007
 10
1398816.12830937
 20
359467.174520873
 10
1398846.278304699
 20
359469.914514413
 10
1398887.35829959
 20
359479.9445045211
 10
1398896.62829825
 20
359481.2545024601
 10
1398912.77829558
 20
359481.8644991521
 10
1398920.1782945
 20
359482.884497503
 10
1398938.96829264
 20
359489.8344925671
 10
1398953.80829065
 20
359492.754489119
 10
1398980.74828542
 20
359489.874484268
 10
1398994.74828074
 20
359478.46448346
 10
1399001.41827838
 20
359472.374483186
 10
1399016.24827944
 20
359490.614477084
 10
1399054.9282676
 20
359464.654473891
 10
1399150.00825293
 20
359473.544453482
 10
1399152.66824754
 20
359448.684457251
 10
1399141.41824912
 20
359446.8944598
 10
1399140.60824926
 20
359446.8144599721
 10
1399115.89825303
 20
359444.354465304
 10
1399109.988253899
 20
359443.594466604
 10
1399105.3882546
 20
359443.094467606
 10
1399100.52825531
 20
359442.444468679
 10
1399090.71825685
 20
359441.6444707701
 10
1399088.11825723
 20
359441.314471345
 10
1399042.86826401
 20
359436.074481229
 10
1399039.37826454
 20
359435.704481995
 10
1399015.1682682
 20
359433.0644872491
 10
1398993.13827129
 20
359429.434492252
 10
1398980.35827324
 20
359428.1844950101
 10
1398975.65827397
 20
359427.734496016
 10
1398943.45827891
 20
359424.624502947
 10
1398855.0082925
 20
359416.0545219921
 10
1398813.14829893
 20
359412.0145310021
 10
1398763.96830653
 20
359407.444541553
 10
1398714.06831416
 20
359402.464552323
 10
1398714.01831477
 20
359405.524551803
 10
1398691.88831808
 20
359402.904556653
 10
1398667.6983217
 20
359400.1045619421
 10
1398641.75832557
 20
359397.0045676271
 10
1398632.53832696
 20
359395.984569633
 10
1398632.8783258
 20
359390.414570524
 10
1398621.81832763
 20
359389.984572794
 10
1398614.83832867
 20
359389.214574316
 10
1398600.7383308
 20
359387.664577385
 10
1398597.19833136
 20
359387.354578136
 10
1398586.15833298
 20
359385.9045805851
 10
1398582.40833355
 20
359385.514581399
 10
1398571.89831363
 20
359384.274533725
 10
1398568.3383356
 20
359383.584584523
 10
1398557.39833724
 20
359382.314586915
 10
1398562.38834002
 20
359400.664582755
  0
LWPOLYLINE
  5
2FA
330
1C
100
AcDbEntity
  8
Ранее утвержденные охранные зоны
370
    20
100
AcDbPolyline
 90
       51
 70
     0
 43
0.0
 10
1394829.439108
 20
360020.435216818
 10
1394834.53910652
 20
360017.4452163161
 10
1394837.11910541
 20
360014.085216382
 10
1394839.43910404
 20
360009.2352167651
 10
1394839.66910295
 20
360003.90521764
 10
1394835.63910019
 20
359986.545221434
 10
1394838.83909949
 20
359985.755220943
 10
1394833.10909605
 20
359963.4552259361
 10
1394848.93909264
 20
359960.045223373
 10
1394823.18907671
 20
359857.365246235
 10
1394817.93907334
 20
359835.885250989
 10
1394804.38906465
 20
359780.265263293
 10
1394849.75905457
 20
359768.9452562401
 10
1394842.07904971
 20
359737.795263149
 10
1394906.47903544
 20
359721.935253099
 10
1394914.63904071
 20
359755.605245654
 10
1394917.88904475
 20
359778.775241011
 10
1394917.14905313
 20
359820.3652339711
 10
1394910.52905424
 20
359820.1452353261
 10
1394891.29905854
 20
359825.115238278
 10
1394885.62905982
 20
359826.6252391451
 10
1394884.95905941
 20
359823.995239736
 10
1394868.16906328
 20
359828.8652422271
 10
1394873.52906681
 20
359851.295237286
 10
1394873.68906677
 20
359851.2652372561
 10
1394891.94906275
 20
359846.89523439
 10
1394895.8390619
 20
359845.965233784
 10
1394896.87906249
 20
359849.8352329071
 10
1394899.97906204
 20
359850.3252322061
 10
1394901.6590631
 20
359857.115230698
 10
1394902.10906303
 20
359857.125230603
 10
1394902.25906329
 20
359858.5752303271
 10
1394907.19906222
 20
359857.465229533
 10
1394910.4990615
 20
359856.725229013
 10
1394916.23906027
 20
359855.535228072
 10
1394916.13906249
 20
359866.615226184
 10
1394952.39905452
 20
359858.015220463
 10
1394944.45906077
 20
359882.6252177901
 10
1394913.17906772
 20
359890.3752226561
 10
1394904.43906955
 20
359892.0352241121
 10
1394899.63907345
 20
359907.5052223871
 10
1394900.79907457
 20
359914.155221013
 10
1394896.94907857
 20
359930.955218868
 10
1394893.77907891
 20
359929.885219692
 10
1394891.42907944
 20
359930.505220047
 10
1394886.63908436
 20
359951.175217418
 10
1394868.39908841
 20
359955.685220264
 10
1394877.51909422
 20
359992.905212028
 10
1394861.29909783
 20
359996.9752145411
 10
1394864.68909998
 20
360010.735211488
 10
1394829.439108
 20
360020.435216818
  0
LWPOLYLINE
  5
2FB
330
1C
100
AcDbEntity
  8
Ранее утвержденные охранные зоны
370
    20
100
AcDbPolyline
 90
       26
 70
     0
 43
0.0
 10
1395313.46898483
 20
359821.165155139
 10
1395341.83897864
 20
359814.695150626
 10
1395340.68897793
 20
359810.11515165
 10
1395359.98897362
 20
359805.215148664
 10
1395359.4589733
 20
359803.0951491291
 10
1395375.31896968
 20
359798.6951467451
 10
1395374.96896952
 20
359797.585147005
 10
1395373.83896744
 20
359786.1251492091
 10
1395373.79896738
 20
359785.765149284
 10
1395367.67896469
 20
359766.8951537571
 10
1395366.36896412
 20
359762.875154709
 10
1395364.56896332
 20
359757.3251560321
 10
1395379.27895902
 20
359748.425154644
 10
1395387.27895668
 20
359743.5851539
 10
1395387.88895653
 20
359743.345153813
 10
1395388.44895639
 20
359743.125153744
 10
1395372.76895362
 20
359715.545161619
 10
1395371.78895348
 20
359713.995162083
 10
1395356.90895689
 20
359718.215164308
 10
1395360.8389591
 20
359732.745161018
 10
1395363.5089606
 20
359742.615158776
 10
1395364.56896118
 20
359746.5351578871
 10
1395339.97896688
 20
359753.845161516
 10
1395309.61897392
 20
359762.865165977
 10
1395300.44897604
 20
359765.5851673321
 10
1395313.46898483
 20
359821.165155139
  0
LWPOLYLINE
  5
2FC
330
1C
100
AcDbEntity
  8
Ранее утвержденные охранные зоны
370
    20
100
AcDbPolyline
 90
       23
 70
     0
 43
0.0
 10
1399072.52829213
 20
359603.584446382
 10
1399102.71828759
 20
359606.964439808
 10
1399106.16828818
 20
359612.974438083
 10
1399134.45828387
 20
359615.9044319661
 10
1399140.09827559
 20
359579.064437212
 10
1399140.87827451
 20
359574.294437877
 10
1399141.83827261
 20
359565.544439203
 10
1399142.64827062
 20
359556.254440642
 10
1399143.39826921
 20
359549.804441613
 10
1399143.89826789
 20
359543.5944425871
 10
1399140.61826846
 20
359543.594443239
 10
1399139.99826796
 20
359540.564443884
 10
1399137.34826852
 20
359541.054444322
 10
1399129.22826989
 20
359540.8544459679
 10
1399117.80827201
 20
359541.624448104
 10
1399113.72827262
 20
359541.154448999
 10
1399054.9082676
 20
359464.654473903
 10
1399016.24827944
 20
359490.614477084
 10
1399071.80828257
 20
359554.794454959
 10
1399071.64828388
 20
359561.2244538791
 10
1399072.35828726
 20
359578.874450694
 10
1399071.56828932
 20
359588.5444491751
 10
1399072.52829213
 20
359603.584446382
  0
LWPOLYLINE
  5
2FD
330
1C
100
AcDbEntity
  8
Ранее утвержденные охранные зоны
370
    20
100
AcDbPolyline
 90
       27
 70
     0
 43
0.0
 10
1394613.92923949
 20
360495.385177527
 10
1394647.10923155
 20
360484.225172875
 10
1394647.13923156
 20
360484.3351728521
 10
1394656.44922935
 20
360481.245171531
 10
1394655.46922873
 20
360477.2951724071
 10
1394653.20922741
 20
360468.655174348
 10
1394656.62922664
 20
360467.7651738251
 10
1394656.28922639
 20
360466.215174166
 10
1394658.22922596
 20
360465.795173852
 10
1394654.78922345
 20
360450.1251772371
 10
1394652.54922201
 20
360440.915179275
 10
1394650.70922083
 20
360433.3351809571
 10
1394650.65922079
 20
360433.0951810021
 10
1394646.41921739
 20
360412.305185439
 10
1394609.70922577
 20
360422.595190948
 10
1394602.43922147
 20
360394.565197235
 10
1394597.87922154
 20
360391.015198754
 10
1394580.01922983
 20
360417.175197779
 10
1394581.18923007
 20
360419.405197164
 10
1394587.33923459
 20
360447.525191089
 10
1394598.31923218
 20
360444.9751893421
 10
1394599.54923266
 20
360448.425188499
 10
1394603.39923468
 20
360461.9651854011
 10
1394604.97923456
 20
360462.7351849521
 10
1394609.04923672
 20
360477.185181645
 10
1394613.49923921
 20
360493.575177936
 10
1394613.92923949
 20
360495.385177527
  0
LWPOLYLINE
  5
2FE
330
1C
100
AcDbEntity
  8
Ранее утвержденные охранные зоны
370
    20
100
AcDbPolyline
 90
       11
 70
     0
 43
0.0
 10
1395792.94800502
 20
359619.6639416341
 10
1395806.83879516
 20
359616.345736858
 10
1395830.52885389
 20
359611.545088703
 10
1395851.36884945
 20
359607.3150852951
 10
1395852.66781857
 20
359606.9919615241
 10
1395856.26900455
 20
359615.833076824
 10
1395860.586887589
 20
359615.6575457711
 10
1395864.01008872
 20
359636.0882945761
 10
1395855.14662541
 20
359659.749267197
 10
1395804.70018679
 20
359670.937144281
 10
1395792.94800502
 20
359619.6639416341
  0
LWPOLYLINE
  5
2FF
330
1C
100
AcDbEntity
  8
Ранее утвержденные охранные зоны
370
    20
100
AcDbPolyline
 90
       14
 70
     0
 43
0.0
 10
1395852.66781857
 20
359606.9919615241
 10
1395851.36884945
 20
359607.3150852951
 10
1395830.52885389
 20
359611.545088703
 10
1395806.83879516
 20
359616.345736858
 10
1395792.94800502
 20
359619.6639416341
 10
1395783.13138881
 20
359577.59468749
 10
1395798.20885199
 20
359573.845101638
 10
1395804.17885068
 20
359572.455100689
 10
1395825.12884602
 20
359567.145097451
 10
1395839.72884292
 20
359564.265095047
 10
1395843.77878006
 20
359572.355736842
 10
1395846.25170107
 20
359581.992812598
 10
1395852.34095592
 20
359605.651438973
 10
1395852.66781857
 20
359606.9919615241
  0
LWPOLYLINE
  5
300
330
1C
100
AcDbEntity
  8
Ранее утвержденные охранные зоны
370
    20
100
AcDbPolyline
 90
       22
 70
     0
 43
0.0
 10
1395846.25170107
 20
359581.992812598
 10
1395843.77878006
 20
359572.355736842
 10
1395839.72884292
 20
359564.265095047
 10
1395853.8234495
 20
359560.3329147451
 10
1395865.77779605
 20
359556.9596061621
 10
1395866.22883728
 20
359558.925090707
 10
1395887.72410751
 20
359554.606943409
 10
1395889.82184355
 20
359565.049246976
 10
1395904.01196254
 20
359563.82595072
 10
1395917.10287631
 20
359563.048572384
 10
1395957.61619365
 20
359563.059607249
 10
1395955.54879499
 20
359589.8652192211
 10
1395975.60540985
 20
359597.891920256
 10
1395963.31883606
 20
359637.2950578921
 10
1395948.53546992
 20
359630.318004333
 10
1395920.1426659
 20
359630.094455134
 10
1395911.2375552
 20
359613.598489143
 10
1395860.586887589
 20
359615.6575457711
 10
1395856.26900455
 20
359615.833076824
 10
1395852.66800418
 20
359606.991924134
 10
1395852.34095592
 20
359605.651438973
 10
1395846.25170107
 20
359581.992812598
  0
LWPOLYLINE
  5
301
330
1C
100
AcDbEntity
  8
Ранее утвержденные охранные зоны
370
    20
100
AcDbPolyline
 90
       41
 70
     0
 43
0.0
 10
1397081.66864781
 20
359981.005410414
 10
1397083.98865311
 20
360010.1654049171
 10
1397035.53866353
 20
360020.495413071
 10
1397013.64866853
 20
360026.495416579
 10
1397010.21866932
 20
360027.6054170571
 10
1396994.88867297
 20
360032.565419391
 10
1396974.40867785
 20
360039.205422499
 10
1396961.59868085
 20
360043.675424415
 10
1396973.75868593
 20
360079.515415699
 10
1396968.34868719
 20
360081.235416529
 10
1396962.18868861
 20
360083.105417492
 10
1396948.55869177
 20
360087.255419558
 10
1396947.4386921
 20
360088.0454196821
 10
1396944.6286929
 20
360089.395419974
 10
1396941.0586938
 20
360090.725420495
 10
1396929.24868917
 20
360057.295428691
 10
1396876.54870201
 20
360076.165436334
 10
1396817.17870994
 20
360064.395450686
 10
1396806.42871037
 20
360057.555454011
 10
1396794.99871168
 20
360054.155456946
 10
1396739.21871994
 20
360047.0654697339
 10
1396674.6187303
 20
360043.135483728
 10
1396615.95874041
 20
360043.37549588
 10
1396615.28873765
 20
360028.8354985301
 10
1396691.83872439
 20
360028.215482813
 10
1396729.69871783
 20
360028.1354749921
 10
1396770.96871149
 20
360032.285465715
 10
1396798.58870733
 20
360035.205459565
 10
1396817.14870459
 20
360037.515455266
 10
1396834.34870217
 20
360040.505451233
 10
1396844.72870074
 20
360042.185448831
 10
1396855.25869921
 20
360043.6054464061
 10
1396875.48869537
 20
360041.945442458
 10
1396927.90868219
 20
360021.0954352191
 10
1396929.68868181
 20
360020.3154350201
 10
1396936.44868095
 20
360021.905433373
 10
1396997.45866613
 20
360000.615424449
 10
1396999.45866585
 20
360000.515423976
 10
1397017.33866169
 20
359995.0654212411
 10
1397049.48865428
 20
359985.695416188
 10
1397081.66864781
 20
359981.005410414
  0
LWPOLYLINE
  5
302
330
1C
100
AcDbEntity
  8
Ранее утвержденные охранные зоны
370
    20
100
AcDbPolyline
 90
       54
 70
     0
 43
0.0
 10
1395657.01884196
 20
359722.025749523
 10
1395660.54884432
 20
359736.705746321
 10
1395672.99885239
 20
359788.335734755
 10
1395685.31886045
 20
359839.38572345
 10
1395760.14884353
 20
359819.395711365
 10
1395733.18885699
 20
359863.515709324
 10
1395742.47886173
 20
359895.6257018461
 10
1395743.55886249
 20
359900.165700859
 10
1395747.32886481
 20
359915.465697486
 10
1395714.50887207
 20
359923.50570289
 10
1395717.03887373
 20
359933.92570059
 10
1395714.38887442
 20
359935.235700864
 10
1395705.75887638
 20
359937.735702264
 10
1395701.27887746
 20
359939.245702836
 10
1395679.32888235
 20
359944.575706462
 10
1395678.46888174
 20
359941.075707229
 10
1395646.4488889
 20
359948.9657124961
 10
1395648.25889016
 20
359956.91571076
 10
1395631.45889384
 20
359961.195713494
 10
1395633.05889506
 20
359968.4457119021
 10
1395631.00889675
 20
359975.0757112601
 10
1395605.21890234
 20
359980.9457155421
 10
1395593.13889382
 20
359927.845727179
 10
1395511.05891256
 20
359950.965740188
 10
1395500.88891559
 20
359957.095741166
 10
1395492.6189184
 20
359964.3357416721
 10
1395476.68891576
 20
359936.905749699
 10
1395475.73891554
 20
359935.2757502221
 10
1395473.6589152
 20
359931.5057512771
 10
1395469.21891239
 20
359913.655755236
 10
1395557.66889284
 20
359891.9757407221
 10
1395556.7988923
 20
359888.5057414871
 10
1395547.42888561
 20
359846.5557507151
 10
1395546.48888512
 20
359843.145751436
 10
1395548.72888461
 20
359842.475751153
 10
1395547.12888364
 20
359836.275752521
 10
1395541.21888064
 20
359816.125757235
 10
1395536.72887837
 20
359800.795760784
 10
1395544.47887648
 20
359797.9957596711
 10
1395553.02887386
 20
359791.955758996
 10
1395554.9688733
 20
359790.965758725
 10
1395566.20887121
 20
359790.075756576
 10
1395569.1188706
 20
359789.8557559901
 10
1395569.33887072
 20
359790.6057558371
 10
1395577.33886917
 20
359789.7957543421
 10
1395610.41886321
 20
359788.335747737
 10
1395610.51886282
 20
359786.50574798
 10
1395612.51885549
 20
359751.2857536761
 10
1395614.55885394
 20
359745.0457543021
 10
1395623.95885122
 20
359739.495753354
 10
1395625.63884988
 20
359734.475753867
 10
1395628.2288475
 20
359724.725755054
 10
1395643.18884506
 20
359725.5457517701
 10
1395657.01884196
 20
359722.025749523
  0
LWPOLYLINE
  5
303
330
1C
100
AcDbEntity
  8
Ранее утвержденные охранные зоны
370
    20
100
AcDbPolyline
 90
       30
 70
     0
 43
0.0
 10
1395522.99885403
 20
359666.035786896
 10
1395536.40885224
 20
359668.8057836761
 10
1395530.56886275
 20
359716.6157766271
 10
1395526.39886338
 20
359716.255777568
 10
1395520.6688664
 20
359726.655776938
 10
1395502.02886895
 20
359722.995781437
 10
1395502.75886801
 20
359718.875781944
 10
1395429.98887849
 20
359708.575798754
 10
1395422.12888065
 20
359712.565799705
 10
1395411.36888423
 20
359721.575800404
 10
1395402.95888851
 20
359735.525799695
 10
1395388.63889252
 20
359743.465801291
 10
1395372.76888971
 20
359715.545809401
 10
1395370.66889014
 20
359716.04580973
 10
1395363.78888647
 20
359691.225815431
 10
1395360.07888388
 20
359675.1058190771
 10
1395357.85888432
 20
359675.2358195001
 10
1395356.0088828
 20
359666.165821399
 10
1395360.30888187
 20
359665.0158207271
 10
1395358.47888063
 20
359657.0958224871
 10
1395359.31888045
 20
359656.8958223251
 10
1395355.98887822
 20
359642.87582546
 10
1395456.27885621
 20
359619.365808723
 10
1395462.60886088
 20
359648.07580252
 10
1395463.32886145
 20
359651.7258017311
 10
1395464.31886257
 20
359658.325800334
 10
1395465.04886318
 20
359661.915799588
 10
1395511.56885641
 20
359668.2357888911
 10
1395511.94885568
 20
359664.985789425
 10
1395522.99885403
 20
359666.035786896
  0
LWPOLYLINE
  5
304
330
1C
100
AcDbEntity
  8
Ранее утвержденные охранные зоны
370
    20
100
AcDbPolyline
 90
        8
 70
     0
 43
0.0
 10
1396095.97877228
 20
359751.955653689
 10
1396124.39876912
 20
359761.035646242
 10
1396127.7287666
 20
359751.095647208
 10
1396134.54876137
 20
359730.725649304
 10
1396114.85876339
 20
359723.565654604
 10
1396109.79876396
 20
359721.8856559539
 10
1396106.03876432
 20
359720.525657029
 10
1396095.97877228
 20
359751.955653689
  0
LWPOLYLINE
  5
305
330
1C
100
AcDbEntity
  8
Ранее утвержденные охранные зоны
370
    20
100
AcDbPolyline
 90
       80
 70
     0
 43
0.0
 10
1394161.73899092
 20
359173.386153407
 10
1394122.04900803
 20
359225.076152714
 10
1394115.31900806
 20
359219.5861550511
 10
1394104.6690125
 20
359232.596154985
 10
1394090.31901315
 20
359223.4661595441
 10
1394087.07901595
 20
359234.7161582221
 10
1394086.45901611
 20
359235.136158293
 10
1394086.25901652
 20
359236.7361580671
 10
1394084.71901805
 20
359243.166157222
 10
1394087.82901763
 20
359243.876156464
 10
1394086.37901919
 20
359250.45615569
 10
1394080.28901996
 20
359249.0361571961
 10
1394074.62902464
 20
359267.7861551111
 10
1394092.02902763
 20
359297.756146303
 10
1394095.02902745
 20
359299.796145298
 10
1394100.10902711
 20
359302.336143892
 10
1394104.63902716
 20
359306.326142242
 10
1394107.54902636
 20
359305.15614181
 10
1394112.04902472
 20
359300.5261416511
 10
1394121.46901957
 20
359283.056142778
 10
1394157.18901787
 20
359305.346131504
 10
1394163.43901767
 20
359309.506129566
 10
1394164.47901723
 20
359308.456129514
 10
1394172.70901698
 20
359314.11612681
 10
1394173.78901693
 20
359314.846126468
 10
1394182.45901661
 20
359320.8061236671
 10
1394199.05901401
 20
359322.376119971
 10
1394213.84901293
 20
359329.71611565
 10
1394209.76901806
 20
359352.196112533
 10
1394224.9890153
 20
359351.506109503
 10
1394269.92901072
 20
359367.4160974871
 10
1394281.59900959
 20
359371.5560944261
 10
1394303.88900472
 20
359366.2860906721
 10
1394301.73900333
 20
359357.6660926561
 10
1394297.96900331
 20
359354.346093931
 10
1394303.4490011
 20
359347.80609398
 10
1394324.5189927
 20
359323.656093828
 10
1394345.24899241
 20
359340.286086655
 10
1394359.23898644
 20
359322.326086874
 10
1394351.27898173
 20
359292.006093685
 10
1394349.04898034
 20
359282.696095819
 10
1394356.39897868
 20
359280.9260945671
 10
1394356.02897836
 20
359279.196094943
 10
1394361.59897721
 20
359277.8360940061
 10
1394362.51897779
 20
359281.5560932301
 10
1394368.88897642
 20
359280.156092159
 10
1394379.00897415
 20
359277.9160904561
 10
1394383.2989769
 20
359295.4160865121
 10
1394386.2889763
 20
359294.7960860061
 10
1394388.47897774
 20
359304.1660839729
 10
1394425.31896965
 20
359295.2160778611
 10
1394426.33896941
 20
359295.0060776451
 10
1394422.42896675
 20
359278.066081384
 10
1394419.57896363
 20
359260.016085156
 10
1394416.7389615
 20
359246.7360879671
 10
1394431.07895844
 20
359243.756085535
 10
1394435.29895546
 20
359232.266086692
 10
1394427.48894821
 20
359188.906095746
 10
1394425.0989467
 20
359179.386097888
 10
1394421.5789443
 20
359164.526101246
 10
1394418.63894239
 20
359152.116103966
 10
1394378.89895121
 20
359161.9961104161
 10
1394373.79895228
 20
359163.05611134
 10
1394371.11895291
 20
359163.70611173
 10
1394369.37895328
 20
359164.146112075
 10
1394341.8989594
 20
359170.8961165261
 10
1394336.23896065
 20
359172.396117507
 10
1394330.01895675
 20
359147.736123011
 10
1394294.92896445
 20
359155.9661288571
 10
1394286.45896602
 20
359156.326130595
 10
1394284.6789671
 20
359160.1261302761
 10
1394280.35896875
 20
359164.6661303271
 10
1394278.4689696
 20
359167.2561303571
 10
1394250.82898285
 20
359210.256128553
 10
1394246.84898454
 20
359215.3061285851
 10
1394239.69898729
 20
359223.1161286721
 10
1394234.03898954
 20
359229.27612884
 10
1394229.01899086
 20
359231.486129405
 10
1394205.74899085
 20
359211.396137734
 10
1394161.73899092
 20
359173.386153407
  0
LWPOLYLINE
  5
306
330
1C
100
AcDbEntity
  8
Ранее утвержденные охранные зоны
370
    20
100
AcDbPolyline
 90
       21
 70
     0
 43
0.0
 10
1394726.34917626
 20
360597.8157906821
 10
1394753.0491701
 20
360589.6657865271
 10
1394760.24917329
 20
360611.955781232
 10
1394771.49917105
 20
360610.66577914
 10
1394794.29916589
 20
360604.5357754671
 10
1394797.26916749
 20
360615.345772942
 10
1394803.01916864
 20
360626.145769953
 10
1394859.54915974
 20
360630.3657575121
 10
1394864.18915537
 20
360612.005759779
 10
1394887.11915213
 20
360615.925754313
 10
1394945.12914322
 20
360621.4357413171
 10
1394962.49913853
 20
360612.755739318
 10
1395004.42912711
 20
360591.805734221
 10
1394968.91910164
 20
360432.4557690461
 10
1394945.60910691
 20
360438.9057728421
 10
1394952.89911149
 20
360468.115766268
 10
1394812.54914294
 20
360504.935788893
 10
1394811.34914247
 20
360501.185789835
 10
1394710.08916464
 20
360525.095806625
 10
1394718.34916961
 20
360557.1357993701
 10
1394726.34917626
 20
360597.8157906821
  0
LWPOLYLINE
  5
307
330
1C
100
AcDbEntity
  8
Ранее утвержденные охранные зоны
370
    20
100
AcDbPolyline
 90
       24
 70
     0
 43
0.0
 10
1397618.98843382
 20
359369.825405006
 10
1397635.75842912
 20
359360.685403108
 10
1397637.65842864
 20
359359.8854028
 10
1397636.97842842
 20
359358.2954032171
 10
1397638.75842794
 20
359357.525403003
 10
1397639.3284281
 20
359358.915402591
 10
1397639.75842803
 20
359358.755402528
 10
1397645.51842672
 20
359357.365401638
 10
1397663.07842282
 20
359352.885398822
 10
1397666.16842222
 20
359352.315398274
 10
1397672.3384209
 20
359351.2453972011
 10
1397679.23841948
 20
359350.205395924
 10
1397685.48841823
 20
359349.335394713
 10
1397690.93841728
 20
359349.1553936911
 10
1397797.23839308
 20
359319.695376778
 10
1397805.36839751
 20
359349.0453700221
 10
1397826.87839384
 20
359349.175365595
 10
1397840.14839251
 20
359353.935361964
 10
1397869.30838745
 20
359353.9053559791
 10
1397872.92839124
 20
359375.9153514001
 10
1397705.22842037
 20
359377.015385876
 10
1397657.29842997
 20
359384.005394626
 10
1397627.97843655
 20
359391.5053993791
 10
1397618.98843382
 20
359369.825405006
  0
LWPOLYLINE
  5
308
330
1C
100
AcDbEntity
  8
Ранее утвержденные охранные зоны
370
    20
100
AcDbPolyline
 90
       35
 70
     0
 43
0.0
 10
1398303.98092009
 20
359392.0470595651
 10
1398304.68092283
 20
359406.5161569871
 10
1398308.99972217
 20
359407.109555925
 10
1398320.62412056
 20
359408.706853269
 10
1398320.4563213
 20
359412.668352638
 10
1398327.68722016
 20
359413.080451046
 10
1398327.64542025
 20
359413.646851005
 10
1398369.57031387
 20
359417.831341614
 10
1398370.04251259
 20
359411.886642566
 10
1398461.29589838
 20
359419.555322348
 10
1398461.59699786
 20
359417.1781226871
 10
1398465.19158789
 20
359369.9153300941
 10
1398420.35829473
 20
359365.635240102
 10
1398401.54829766
 20
359363.685244353
 10
1398400.18829501
 20
359349.415247124
 10
1398397.4182904
 20
359323.475252117
 10
1398396.57058858
 20
359313.9049540261
 10
1398291.66381226
 20
359342.206570755
 10
1398294.76541842
 20
359375.677264386
 10
1398294.90551883
 20
359378.04546387
 10
1398299.35891804
 20
359377.984062976
 10
1398303.29831737
 20
359377.935262146
 10
1398315.72831545
 20
359379.135259461
 10
1398334.73831235
 20
359379.905255387
 10
1398335.14831203
 20
359378.515255499
 10
1398342.61831075
 20
359378.655453919
 10
1398342.65831075
 20
359378.555253905
 10
1398344.35831044
 20
359378.5652536011
 10
1398349.17080971
 20
359378.9799525711
 10
1398349.50830963
 20
359379.015252434
 10
1398349.30831054
 20
359383.555251687
 10
1398346.94831353
 20
359396.385249945
 10
1398341.34831435
 20
359395.8152512421
 10
1398338.18831485
 20
359395.3652519611
 10
1398303.98092009
 20
359392.0470595651
  0
LWPOLYLINE
  5
309
330
1C
100
AcDbEntity
  8
Ранее утвержденные охранные зоны
370
    20
100
AcDbPolyline
 90
       14
 70
     0
 43
0.0
 10
1398564.3963569
 20
359300.252421668
 10
1398561.23826283
 20
359326.9652177621
 10
1398571.12826167
 20
359329.695215225
 10
1398575.75826109
 20
359331.135213999
 10
1398583.38826044
 20
359334.4352118001
 10
1398609.9582562
 20
359335.885206075
 10
1398609.01825843
 20
359346.52520443
 10
1398714.45854253
 20
359357.9490807111
 10
1398715.34823948
 20
359343.425183037
 10
1398715.57823889
 20
359340.545183516
 10
1398717.05823538
 20
359324.395185981
 10
1398717.2682349
 20
359321.915186368
 10
1398717.72703364
 20
359316.3411871791
 10
1398564.3963569
 20
359300.252421668
  0
LWPOLYLINE
  5
30A
330
1C
100
AcDbEntity
  8
Ранее утвержденные охранные зоны
370
    20
100
AcDbPolyline
 90
       24
 70
     0
 43
0.0
 10
1395480.12887577
 20
359738.265783341
 10
1395479.44887664
 20
359742.0057827451
 10
1395475.62887797
 20
359745.765782945
 10
1395475.01887915
 20
359751.245782073
 10
1395482.70887945
 20
359759.4557790971
 10
1395495.05887897
 20
359767.505775168
 10
1395500.95887731
 20
359764.435774485
 10
1395512.21887681
 20
359771.5257709551
 10
1395524.8488763
 20
359780.235766782
 10
1395529.28887715
 20
359787.8857646021
 10
1395487.28888625
 20
359797.64577157
 10
1395469.40888936
 20
359797.735775269
 10
1395464.69889098
 20
359801.5157755321
 10
1395449.5488901
 20
359784.3057816811
 10
1395429.85889345
 20
359783.70578588
 10
1395428.51889101
 20
359770.285788448
 10
1395426.4788893
 20
359760.2757905561
 10
1395426.62888738
 20
359750.665792198
 10
1395429.94888534
 20
359743.2457928351
 10
1395436.02888342
 20
359738.4757923371
 10
1395447.00888094
 20
359735.905790542
 10
1395456.59887915
 20
359735.375788707
 10
1395464.01887796
 20
359735.455787117
 10
1395480.12887577
 20
359738.265783341
  0
LWPOLYLINE
  5
30B
330
1C
100
AcDbEntity
  8
Ранее утвержденные охранные зоны
370
    20
100
AcDbPolyline
 90
       25
 70
     0
 43
0.0
 10
1396150.42876632
 20
359769.195639409
 10
1396180.02876305
 20
359778.485631714
 10
1396218.19875875
 20
359790.31562178
 10
1396232.76875688
 20
359793.2056182311
 10
1396233.83875612
 20
359790.455618543
 10
1396239.3787523
 20
359776.095619843
 10
1396237.55875246
 20
359775.3756203621
 10
1396240.24875054
 20
359767.965621048
 10
1396240.71875022
 20
359766.655621161
 10
1396242.2587491
 20
359762.405621588
 10
1396244.13874775
 20
359757.2056221571
 10
1396244.32874762
 20
359756.7056221321
 10
1396246.75874584
 20
359749.965622845
 10
1396219.51874876
 20
359740.8856299971
 10
1396217.44875038
 20
359747.4956293551
 10
1396200.47875217
 20
359741.7156338021
 10
1396191.58875313
 20
359738.6956361911
 10
1396192.19875273
 20
359736.9356364071
 10
1396193.32875183
 20
359733.7056366971
 10
1396163.93875511
 20
359724.615644358
 10
1396162.84875604
 20
359728.215643953
 10
1396160.36875808
 20
359736.395643081
 10
1396157.80876014
 20
359744.835642153
 10
1396157.1387607
 20
359747.0556418379
 10
1396150.42876632
 20
359769.195639409
  0
LWPOLYLINE
  5
30C
330
1C
100
AcDbEntity
  8
Ранее утвержденные охранные зоны
370
    20
100
AcDbPolyline
 90
       21
 70
     0
 43
0.0
 10
1396387.56062747
 20
359746.887016324
 10
1396356.76829911
 20
359776.305023045
 10
1396349.17705379
 20
359780.181791073
 10
1396337.30278604
 20
359784.408122255
 10
1396286.90376069
 20
359796.8998344831
 10
1396273.62261683
 20
359800.836281006
 10
1396286.83829995
 20
359764.832225924
 10
1396217.57971984
 20
359742.520644124
 10
1396216.55483256
 20
359745.8802483141
 10
1396189.66349326
 20
359737.9647450551
 10
1396191.3861468
 20
359732.081811758
 10
1396160.88063319
 20
359722.5597300151
 10
1396169.30528035
 20
359696.8317912541
 10
1396131.86951432
 20
359683.82747182
 10
1396175.95170364
 20
359561.35858922
 10
1396217.99755907
 20
359573.177039299
 10
1396234.18487987
 20
359579.123219999
 10
1396336.65479662
 20
359617.9171687501
 10
1396421.67813847
 20
359725.4039597201
 10
1396407.87309365
 20
359756.2591043971
 10
1396387.56062747
 20
359746.887016324
  0
LWPOLYLINE
  5
30D
330
1C
100
AcDbEntity
  8
Ранее утвержденные охранные зоны
370
    20
100
AcDbPolyline
 90
       12
 70
     0
 43
0.0
 10
1395793.46046696
 20
359848.877120683
 10
1395841.47889679
 20
359837.215047528
 10
1395858.1788102
 20
359833.604662513
 10
1395881.71856927
 20
359828.175624454
 10
1395889.58412157
 20
359862.285162369
 10
1395823.9289078
 20
359877.425044063
 10
1395822.7872948
 20
359877.704726779
 10
1395827.17072162
 20
359894.841957078
 10
1395832.27839182
 20
359893.418655269
 10
1395835.06891123
 20
359904.3650371961
 10
1395809.83831861
 20
359911.073365108
 10
1395793.46046696
 20
359848.877120683
  0
LWPOLYLINE
  5
30E
330
1C
100
AcDbEntity
  8
Ранее утвержденные охранные зоны
370
    20
100
AcDbPolyline
 90
       13
 70
     0
 43
0.0
 10
1395747.32129841
 20
359915.4647233161
 10
1395743.56067586
 20
359900.164353149
 10
1395742.47657501
 20
359895.6222972481
 10
1395733.18892073
 20
359863.51506448
 10
1395793.46046696
 20
359848.877120683
 10
1395809.83831861
 20
359911.073365108
 10
1395817.87335443
 20
359945.102628994
 10
1395798.8548048
 20
359949.3176770621
 10
1395782.67231539
 20
359952.904173873
 10
1395773.83261113
 20
359915.6844010251
 10
1395758.67497037
 20
359918.905919126
 10
1395757.30810567
 20
359913.105162434
 10
1395747.32129841
 20
359915.4647233161
  0
LWPOLYLINE
  5
30F
330
1C
100
AcDbEntity
  8
Ранее утвержденные охранные зоны
370
    20
100
AcDbPolyline
 90
        5
 70
     0
 43
0.0
 10
1395733.18885699
 20
359863.515709324
 10
1395808.4788195
 20
359740.285715083
 10
1395818.02881764
 20
359739.05571332
 10
1395841.4788331
 20
359837.215691523
 10
1395733.18885699
 20
359863.515709324
  0
LWPOLYLINE
  5
310
330
1C
100
AcDbEntity
  8
Ранее утвержденные охранные зоны
370
    20
100
AcDbPolyline
 90
       28
 70
     0
 43
0.0
 10
1395631.05898009
 20
360394.9356387211
 10
1395639.57898772
 20
360440.8756290431
 10
1395631.32898947
 20
360442.595630384
 10
1395620.87899177
 20
360445.205632154
 10
1395613.63899309
 20
360445.295633644
 10
1395601.62899595
 20
360449.695635291
 10
1395595.39899737
 20
360451.2056363351
 10
1395582.68900016
 20
360454.285638487
 10
1395580.02900078
 20
360454.925638923
 10
1395571.11900739
 20
360480.7756362671
 10
1395543.86901464
 20
360493.735639645
 10
1395523.92901627
 20
360484.615645364
 10
1395520.31901216
 20
360460.6256502571
 10
1395519.44901122
 20
360454.8356514371
 10
1395533.869008
 20
360451.2656490101
 10
1395548.54900459
 20
360446.7456468421
 10
1395552.63900302
 20
360442.845646664
 10
1395552.28900214
 20
360438.005647498
 10
1395546.4589983
 20
360413.645652934
 10
1395578.69899148
 20
360406.985647395
 10
1395580.56899113
 20
360406.725647119
 10
1395582.40899066
 20
360406.405646743
 10
1395584.37899031
 20
360406.055646468
 10
1395585.05898998
 20
360405.175646408
 10
1395606.16898533
 20
360400.24564293
 10
1395621.56898205
 20
360396.645640364
 10
1395627.64898071
 20
360395.545639328
 10
1395631.05898009
 20
360394.9356387211
  0
LWPOLYLINE
  5
311
330
1C
100
AcDbEntity
  8
Ранее утвержденные охранные зоны
370
    20
100
AcDbPolyline
 90
       29
 70
     0
 43
0.0
 10
1395624.38897477
 20
360362.5456456401
 10
1395627.08897658
 20
360373.8556431171
 10
1395627.14897657
 20
360374.075643101
 10
1395627.35897672
 20
360375.0256429421
 10
1395631.05898009
 20
360394.9356387211
 10
1395627.64898071
 20
360395.545639328
 10
1395621.56898205
 20
360396.645640364
 10
1395606.16898533
 20
360400.24564293
 10
1395585.05898998
 20
360405.175646408
 10
1395584.37899031
 20
360406.055646468
 10
1395582.40899066
 20
360406.405646743
 10
1395580.56899113
 20
360406.725647119
 10
1395578.69899148
 20
360406.985647395
 10
1395546.4589983
 20
360413.645652934
 10
1395542.09899542
 20
360395.275657044
 10
1395551.17899349
 20
360393.085655488
 10
1395537.34898448
 20
360335.7156683
 10
1395539.14898405
 20
360335.2856679979
 10
1395562.87897884
 20
360329.8156640029
 10
1395567.79898247
 20
360352.505659117
 10
1395575.9889808
 20
360350.935657645
 10
1395582.44898525
 20
360378.785651552
 10
1395593.92898267
 20
360376.0256495761
 10
1395593.26898203
 20
360372.035650486
 10
1395602.22898004
 20
360369.915648968
 10
1395609.02897817
 20
360366.3056481841
 10
1395614.44897697
 20
360364.915647361
 10
1395622.23897518
 20
360362.9856460051
 10
1395624.38897477
 20
360362.5456456401
  0
LWPOLYLINE
  5
312
330
1C
100
AcDbEntity
  8
Ранее утвержденные охранные зоны
370
    20
100
AcDbPolyline
 90
       20
 70
     0
 43
0.0
 10
1395669.27896771
 20
360365.985635823
 10
1395688.82896699
 20
360379.255629478
 10
1395688.44896844
 20
360386.2756283561
 10
1395688.19896942
 20
360390.865627613
 10
1395686.34897644
 20
360425.065622046
 10
1395686.17897714
 20
360428.195621554
 10
1395666.48898142
 20
360432.675624817
 10
1395660.64898261
 20
360433.8256258051
 10
1395658.32898313
 20
360434.3356262179
 10
1395644.05898629
 20
360437.5156286871
 10
1395644.56898662
 20
360439.825628157
 10
1395639.57898772
 20
360440.8756290431
 10
1395631.05898009
 20
360394.9356387211
 10
1395627.35897672
 20
360375.0256429421
 10
1395629.71897619
 20
360374.4656424821
 10
1395631.86897574
 20
360373.925642148
 10
1395644.56897293
 20
360370.8656400401
 10
1395648.808972
 20
360369.8456393721
 10
1395660.31896971
 20
360368.1356372711
 10
1395669.27896771
 20
360365.985635823
  0
LWPOLYLINE
  5
313
330
1C
100
AcDbEntity
  8
Ранее утвержденные охранные зоны
370
    20
100
AcDbPolyline
 90
       24
 70
     0
 43
0.0
 10
1395350.90098845
 20
360108.3140640071
 10
1395345.49133684
 20
360074.160514782
 10
1395366.0720163
 20
360035.611060449
 10
1395366.22695885
 20
360004.605037624
 10
1395340.08831637
 20
359993.2478253421
 10
1395336.89209484
 20
359999.764224255
 10
1395340.5774904
 20
360002.3384667711
 10
1395337.83281222
 20
360009.355105281
 10
1395333.59848137
 20
360008.184190188
 10
1395326.13251303
 20
360023.547749355
 10
1395320.38639503
 20
360033.27364929
 10
1395284.54621606
 20
360015.6944271971
 10
1395274.5790515
 20
360033.315697334
 10
1395185.68031934
 20
359989.642145054
 10
1395164.36482194
 20
360005.2513786611
 10
1395172.0676165
 20
360031.888004485
 10
1395129.6535428
 20
360040.2149822321
 10
1395143.36360121
 20
360098.649984129
 10
1395194.13566697
 20
360085.5021425461
 10
1395193.00017178
 20
360079.718402571
 10
1395270.71436027
 20
360062.2233444421
 10
1395279.58586375
 20
360066.0172006011
 10
1395292.94178012
 20
360122.048473603
 10
1395350.90098845
 20
360108.3140640071
  0
LWPOLYLINE
  5
314
330
1C
100
AcDbEntity
  8
Ранее утвержденные охранные зоны
370
    20
100
AcDbPolyline
 90
        8
 70
     0
 43
0.0
 10
1395395.03420316
 20
360096.576826219
 10
1395387.72816063
 20
360065.954985598
 10
1395393.46262262
 20
360064.2318431511
 10
1395365.0447631
 20
359957.5147480261
 10
1395378.33596825
 20
359926.333495393
 10
1395464.81317993
 20
359954.552980476
 10
1395489.45735655
 20
360071.96639316
 10
1395395.03420316
 20
360096.576826219
  0
LWPOLYLINE
  5
315
330
1C
100
AcDbEntity
  8
Ранее утвержденные охранные зоны
370
    20
100
AcDbPolyline
 90
       16
 70
     0
 43
0.0
 10
1396327.94870191
 20
359599.005632157
 10
1396376.22869709
 20
359616.605619084
 10
1396380.25869575
 20
359613.5956187691
 10
1396381.79114541
 20
359610.905847965
 10
1396388.81868923
 20
359588.195621404
 10
1396417.27868632
 20
359597.8056138311
 10
1396419.68868591
 20
359597.875613368
 10
1396467.28868089
 20
359614.225600721
 10
1396469.64867903
 20
359606.6956015621
 10
1396430.53867303
 20
359542.715620665
 10
1396387.40868221
 20
359551.6156280311
 10
1396365.36868664
 20
359554.495632134
 10
1396347.96868957
 20
359554.1656357421
 10
1396345.85869209
 20
359565.165634278
 10
1396339.43869296
 20
359563.735635823
 10
1396327.94870191
 20
359599.005632157
  0
LWPOLYLINE
  5
316
330
1C
100
AcDbEntity
  8
Ранее утвержденные охранные зоны
370
    20
100
AcDbPolyline
 90
       74
 70
     0
 43
0.0
 10
1396326.05870669
 20
359621.475628619
 10
1396303.39872311
 20
359684.515622399
 10
1396301.30872457
 20
359689.825621938
 10
1396297.94872718
 20
359700.075620861
 10
1396297.46872756
 20
359701.605620692
 10
1396291.64873204
 20
359719.52561883
 10
1396286.09873266
 20
359717.765620223
 10
1396251.31875801
 20
359814.845610644
 10
1396249.59875939
 20
359820.355610054
 10
1396245.43876258
 20
359833.1556087361
 10
1396234.238771
 20
359865.475605513
 10
1396220.84877247
 20
359861.3156089561
 10
1396199.13878901
 20
359926.245602233
 10
1396234.95878543
 20
359939.195592632
 10
1396261.86878141
 20
359942.3355864661
 10
1396278.39877947
 20
359946.695582278
 10
1396281.92985393
 20
359931.622137581
 10
1396265.80503515
 20
359919.2824636511
 10
1396250.49877346
 20
359892.25559748
 10
1396252.64877125
 20
359882.945598694
 10
1396255.32877087
 20
359883.475598002
 10
1396277.5137892
 20
359821.549204069
 10
1396300.05875158
 20
359824.965598865
 10
1396364.16874508
 20
359847.775581696
 10
1396397.06874342
 20
359868.385571324
 10
1396421.04874318
 20
359887.595563053
 10
1396449.87874356
 20
359914.7155524071
 10
1396501.10874098
 20
359946.365536324
 10
1396506.02874071
 20
359949.415534813
 10
1396528.8887384
 20
359957.545528684
 10
1396555.66873714
 20
359974.155520249
 10
1396586.38873341
 20
359982.405512515
 10
1396649.25872315
 20
359985.1354990079
 10
1396651.89756635
 20
359954.3307472951
 10
1396580.32893181
 20
359932.9102443471
 10
1396559.29872678
 20
359925.44552798
 10
1396567.29872109
 20
359903.395530092
 10
1396587.918719
 20
359910.705524553
 10
1396612.26870237
 20
359848.4955302471
 10
1396616.14869826
 20
359830.805532497
 10
1396572.13870227
 20
359812.7555447311
 10
1396577.70869887
 20
359800.515545726
 10
1396588.28869505
 20
359790.6655452101
 10
1396600.68869068
 20
359779.575544562
 10
1396631.84868777
 20
359791.9855359771
 10
1396656.80875161
 20
359730.254136743
 10
1396645.71617584
 20
359732.2147936261
 10
1396624.4571556
 20
359733.78974147
 10
1396558.02868408
 20
359708.905565645
 10
1396473.97869218
 20
359677.005588459
 10
1396467.95869276
 20
359674.735590156
 10
1396465.60869443
 20
359680.7655895611
 10
1396451.58870435
 20
359718.5255859471
 10
1396449.29870589
 20
359724.5555853561
 10
1396450.36870576
 20
359724.965585023
 10
1396445.37870899
 20
359736.8455840501
 10
1396450.51870862
 20
359739.5255825511
 10
1396451.09870866
 20
359739.765582333
 10
1396444.65871327
 20
359757.5455806111
 10
1396440.26871317
 20
359753.055582303
 10
1396437.87871293
 20
359750.025583308
 10
1396433.60871254
 20
359744.455585215
 10
1396429.27871205
 20
359738.065587179
 10
1396434.54870817
 20
359723.0955886661
 10
1396431.43871041
 20
359731.525587833
 10
1396437.77870568
 20
359713.405589671
 10
1396436.55870577
 20
359712.955589991
 10
1396410.06870842
 20
359703.415597134
 10
1396414.35870549
 20
359691.905598203
 10
1396399.25870689
 20
359686.285602318
 10
1396408.41870048
 20
359661.8356045971
 10
1396409.01870005
 20
359660.235604843
 10
1396411.47869832
 20
359653.5256054421
 10
1396326.05870669
 20
359621.475628619
  0
LWPOLYLINE
  5
317
330
1C
100
AcDbEntity
  8
Ранее утвержденные охранные зоны
370
    20
100
AcDbPolyline
 90
       13
 70
     0
 43
0.0
 10
1395034.89910619
 20
360512.8457415921
 10
1395060.40910064
 20
360506.755737369
 10
1395083.69909551
 20
360501.165733488
 10
1395079.12909277
 20
360483.555737494
 10
1395076.57909141
 20
360474.335739564
 10
1395072.03908906
 20
360458.6957432621
 10
1395066.17908589
 20
360437.335748132
 10
1394971.78910695
 20
360461.815763467
 10
1394977.37911035
 20
360483.785758446
 10
1395025.20909981
 20
360472.0157505771
 10
1395030.04910272
 20
360491.14574636
 10
1395031.71910415
 20
360499.545744521
 10
1395034.89910619
 20
360512.8457415921
  0
LWPOLYLINE
  5
318
330
1C
100
AcDbEntity
  8
Ранее утвержденные охранные зоны
370
    20
100
AcDbPolyline
 90
       28
 70
     0
 43
0.0
 10
1395098.64098937
 20
359979.3928205111
 10
1395126.37698338
 20
359973.446815828
 10
1395118.90197843
 20
359941.975822783
 10
1395114.87297587
 20
359925.6558264421
 10
1395125.44997348
 20
359922.8938247171
 10
1395127.16097448
 20
359929.366823261
 10
1395169.1929653
 20
359919.5678162471
 10
1395175.37496239
 20
359910.391816616
 10
1395166.42296281
 20
359904.269819442
 10
1395168.45296043
 20
359894.4728207161
 10
1395134.22496471
 20
359885.9428293391
 10
1395134.57496434
 20
359884.352829509
 10
1395129.91996012
 20
359859.2348348051
 10
1395121.602962
 20
359861.510836164
 10
1395120.55196131
 20
359857.409837051
 10
1395111.80996335
 20
359859.811838436
 10
1395099.47496614
 20
359863.199840399
 10
1395095.30196326
 20
359845.044844365
 10
1395067.70396955
 20
359852.85384879
 10
1395071.98297195
 20
359868.804845156
 10
1395070.7179723
 20
359869.130845369
 10
1395073.51997416
 20
359880.8198427021
 10
1395074.41797393
 20
359880.597842603
 10
1395075.45297466
 20
359885.071841614
 10
1395076.10997503
 20
359887.452841047
 10
1395089.4559836
 20
359942.1598288021
 10
1395097.53498865
 20
359974.8938215171
 10
1395098.64098937
 20
359979.3928205111
  0
LWPOLYLINE
  5
319
330
1C
100
AcDbEntity
  8
Ранее утвержденные охранные зоны
370
    20
100
AcDbPolyline
 90
       49
 70
     0
 43
0.0
 10
1394137.53906638
 20
359532.6160963811
 10
1394171.35907025
 20
359581.28608093
 10
1394230.00907685
 20
359665.6960543021
 10
1394274.56907929
 20
359716.786036175
 10
1394284.2290758
 20
359707.6360358161
 10
1394285.95907519
 20
359705.7660357811
 10
1394279.09907484
 20
359698.3160385221
 10
1394270.28907439
 20
359688.106042084
 10
1394266.29907411
 20
359683.506043694
 10
1394255.74907353
 20
359671.406047936
 10
1394253.19907339
 20
359668.486049011
 10
1394249.80907326
 20
359664.6160503321
 10
1394245.94907303
 20
359660.046051901
 10
1394241.49907255
 20
359654.006053935
 10
1394235.59907176
 20
359644.906056646
 10
1394230.0790711
 20
359636.866059257
 10
1394222.04907024
 20
359625.586062793
 10
1394222.9790699
 20
359624.3860628411
 10
1394226.10906867
 20
359621.136062798
 10
1394231.02906646
 20
359614.3060629251
 10
1394232.4590658
 20
359612.306062939
 10
1394235.30906452
 20
359608.3460631091
 10
1394240.13906233
 20
359601.416063253
 10
1394240.47906222
 20
359600.986063292
 10
1394243.40906098
 20
359597.276063301
 10
1394247.57905918
 20
359591.99606331
 10
1394251.48905749
 20
359587.046063365
 10
1394248.88905706
 20
359582.506064749
 10
1394244.48905695
 20
359577.9960664211
 10
1394233.26905578
 20
359562.4560714501
 10
1394231.78905565
 20
359560.3660721321
 10
1394222.95905891
 20
359569.156072406
 10
1394222.66906012
 20
359575.126071383
 10
1394216.34906457
 20
359591.9960697911
 10
1394213.90906537
 20
359593.856069943
 10
1394208.01906717
 20
359598.126070511
 10
1394192.14906557
 20
359576.1760775321
 10
1394190.02906631
 20
359578.1560776301
 10
1394175.17906477
 20
359557.386084269
 10
1394170.2190642
 20
359550.226086559
 10
1394168.23906399
 20
359547.316087489
 10
1394165.26906366
 20
359542.946088842
 10
1394164.00906342
 20
359540.846089434
 10
1394162.41906313
 20
359537.806090362
 10
1394160.43906254
 20
359532.996091528
 10
1394158.45906163
 20
359526.956092968
 10
1394157.18906078
 20
359521.646094236
 10
1394139.50906588
 20
359531.846096051
 10
1394137.53906638
 20
359532.6160963811
  0
LWPOLYLINE
  5
31A
330
1C
100
AcDbEntity
  8
Ранее утвержденные охранные зоны
370
    20
100
AcDbPolyline
 90
        5
 70
     0
 43
0.0
 10
1395366.98883969
 20
359458.335854996
 10
1395404.91883062
 20
359445.595849445
 10
1395398.81882812
 20
359427.955853653
 10
1395360.98883726
 20
359440.895859237
 10
1395366.98883969
 20
359458.335854996
  0
LWPOLYLINE
  5
31B
330
1C
100
AcDbEntity
  8
Ранее утвержденные охранные зоны
370
    20
100
AcDbPolyline
 90
       12
 70
     0
 43
0.0
 10
1396074.7287854
 20
359799.665649813
 10
1396091.11878507
 20
359812.495644222
 10
1396093.44878505
 20
359814.365643438
 10
1396112.558784819
 20
359829.66563683
 10
1396118.51878502
 20
359835.7956345211
 10
1396158.30878623
 20
359876.685619201
 10
1396183.02877115
 20
359821.85562359
 10
1396167.66877267
 20
359816.5156276851
 10
1396119.46877774
 20
359799.7656405171
 10
1396098.41878015
 20
359794.005645868
 10
1396076.20878277
 20
359787.9256515529
 10
1396074.7287854
 20
359799.665649813
  0
LWPOLYLINE
  5
31C
330
1C
100
AcDbEntity
  8
Ранее утвержденные охранные зоны
370
    20
100
AcDbPolyline
 90
       18
 70
     0
 43
0.0
 10
1394947.30899927
 20
359898.025865818
 10
1394980.67899196
 20
359890.255860252
 10
1394975.86898918
 20
359871.865864441
 10
1395069.64896827
 20
359847.9458492131
 10
1395066.25896608
 20
359833.915852317
 10
1395037.0189726
 20
359841.465857067
 10
1395026.70896652
 20
359802.005865986
 10
1395031.31896555
 20
359800.7958652571
 10
1395025.8089625
 20
359780.6058698671
 10
1394985.41897146
 20
359790.745876479
 10
1394986.72897221
 20
359795.585875433
 10
1394957.72897854
 20
359802.475880145
 10
1394955.79897731
 20
359794.745881909
 10
1394946.52897941
 20
359797.165883396
 10
1394947.11898323
 20
359817.085879869
 10
1394948.30899134
 20
359858.935872419
 10
1394950.45899529
 20
359880.425868281
 10
1394947.30899927
 20
359898.025865818
  0
LWPOLYLINE
  5
31D
330
1C
100
AcDbEntity
  8
Ранее утвержденные охранные зоны
370
    20
100
AcDbPolyline
 90
      114
 70
     0
 43
0.0
 10
1394312.58908243
 20
359765.706019863
 10
1394338.38908363
 20
359793.8860097301
 10
1394376.85908599
 20
359839.3459938561
 10
1394376.61908611
 20
359839.545993958
 10
1394385.32908647
 20
359849.165990425
 10
1394389.63908668
 20
359853.915988771
 10
1394404.71908719
 20
359869.495982916
 10
1394409.07908707
 20
359872.825981419
 10
1394415.50908663
 20
359876.135979562
 10
1394421.52908589
 20
359877.785978044
 10
1394429.29908455
 20
359877.735976423
 10
1394458.98907805
 20
359870.4959715071
 10
1394526.04906317
 20
359854.145960488
 10
1394537.32906234
 20
359859.7659572241
 10
1394548.15906921
 20
359903.3959474751
 10
1394551.2390685
 20
359902.635946898
 10
1394570.51906423
 20
359897.895943768
 10
1394591.90905951
 20
359892.885940248
 10
1394614.86905447
 20
359887.125936474
 10
1394619.22905755
 20
359906.425932198
 10
1394623.27906033
 20
359924.1059283571
 10
1394626.07905967
 20
359923.425927822
 10
1394626.91905954
 20
359923.225927773
 10
1394629.82906147
 20
359935.545925009
 10
1394629.91906158
 20
359935.935924887
 10
1394629.08906173
 20
359936.1359250841
 10
1394610.90906555
 20
359939.87592813
 10
1394581.97907193
 20
359946.625932945
 10
1394562.0390763
 20
359951.385936292
 10
1394563.90907753
 20
359959.235934544
 10
1394521.46908695
 20
359969.935941466
 10
1394524.40908916
 20
359983.6159384679
 10
1394526.98909106
 20
359995.2359359841
 10
1394531.93908996
 20
359994.005935093
 10
1394533.83909121
 20
360002.005933339
 10
1394536.96909331
 20
360015.3259304221
 10
1394573.54908537
 20
360007.105924281
 10
1394584.50909255
 20
360052.6859141741
 10
1394573.79909881
 20
360075.115912517
 10
1394588.07910703
 20
360128.8759002911
 10
1394624.76909879
 20
360119.135894319
 10
1394618.60909573
 20
360098.305899265
 10
1394630.89909287
 20
360094.52589732
 10
1394671.83908327
 20
360082.015891008
 10
1394691.55907883
 20
360076.695887884
 10
1394712.5590741
 20
360071.025884498
 10
1394792.21905586
 20
360048.4858719151
 10
1394788.0190532
 20
360031.305875784
 10
1394784.42905113
 20
360017.815878789
 10
1394782.21904991
 20
360009.7558806451
 10
1394788.90904836
 20
360007.9258795811
 10
1394787.80904732
 20
360001.525880967
 10
1394788.92904671
 20
359999.315881101
 10
1394789.19904659
 20
359999.2358810211
 10
1394788.97904648
 20
359998.285881278
 10
1394786.11904483
 20
359987.485883724
 10
1394785.88904467
 20
359986.555883931
 10
1394783.74904336
 20
359977.695885874
 10
1394785.32904294
 20
359977.325885611
 10
1394815.1890363
 20
359969.5658808439
 10
1394820.40903961
 20
359990.6858760451
 10
1394824.17903874
 20
359989.665875519
 10
1394834.49903637
 20
359986.8258738321
 10
1394835.63903613
 20
359986.545873599
 10
1394838.8990354
 20
359985.745873068
 10
1394833.10903193
 20
359963.4558781311
 10
1394850.57902822
 20
359959.695875156
 10
1394833.55901787
 20
359892.6958902371
 10
1394807.32900066
 20
359783.3559145771
 10
1394850.69899108
 20
359772.745907493
 10
1394827.82897664
 20
359679.9759281611
 10
1394791.19898458
 20
359688.5459343429
 10
1394764.36899046
 20
359694.635938816
 10
1394745.088994699
 20
359699.435941967
 10
1394744.03899499
 20
359699.6659420951
 10
1394745.9789962
 20
359707.6059403111
 10
1394739.16899774
 20
359709.3359414921
 10
1394742.85899995
 20
359723.845938203
 10
1394729.4090029
 20
359727.035940398
 10
1394720.92900472
 20
359728.8459418511
 10
1394707.19900774
 20
359731.795944168
 10
1394707.95900832
 20
359735.8059433521
 10
1394704.63900908
 20
359736.5459438871
 10
1394704.48900909
 20
359736.575943904
 10
1394702.09900963
 20
359737.1759443471
 10
1394690.76901193
 20
359739.03594632
 10
1394693.31901352
 20
359749.3459440471
 10
1394680.88901621
 20
359752.11594615
 10
1394678.20901433
 20
359740.085948724
 10
1394649.1190207
 20
359747.015953543
 10
1394651.43902432
 20
359767.205949619
 10
1394608.18903379
 20
359777.385956826
 10
1394603.54903168
 20
359762.4259603171
 10
1394593.00903408
 20
359765.715961903
 10
1394589.73903488
 20
359766.7259624361
 10
1394587.20903321
 20
359756.215964734
 10
1394575.20903645
 20
359762.135966238
 10
1394561.58903933
 20
359764.8359685871
 10
1394537.76904469
 20
359770.775972469
 10
1394528.01903839
 20
359730.865981401
 10
1394508.37904274
 20
359735.66598461
 10
1394507.86904293
 20
359735.9159846971
 10
1394486.8790478
 20
359742.2359879121
 10
1394476.17905044
 20
359746.3259894411
 10
1394472.73905117
 20
359747.2759899491
 10
1394471.94905148
 20
359747.835990095
 10
1394463.85905142
 20
359740.7459929331
 10
1394456.98905137
 20
359734.765995455
 10
1394435.54905685
 20
359743.2859983891
 10
1394422.39906042
 20
359750.2659999101
 10
1394402.50906354
 20
359748.6860042311
 10
1394366.42907119
 20
359755.516010578
 10
1394354.90907337
 20
359756.5960127151
 10
1394312.58908243
 20
359765.706019863
  0
LWPOLYLINE
  5
31E
330
1C
100
AcDbEntity
  8
Ранее утвержденные охранные зоны
370
    20
100
AcDbPolyline
 90
       33
 70
     0
 43
0.0
 10
1394624.26909847
 20
360117.305894761
 10
1394650.04911268
 20
360211.065873221
 10
1394659.80911035
 20
360207.88587174
 10
1394659.65911031
 20
360207.445871863
 10
1394674.71910659
 20
360202.0258696561
 10
1394674.23910643
 20
360200.49587009
 10
1394687.10910321
 20
360195.465868263
 10
1394690.93910357
 20
360200.91586659
 10
1394694.65910398
 20
360205.98586486
 10
1394700.44910452
 20
360213.9858623371
 10
1394701.50910459
 20
360214.905861968
 10
1394704.94910457
 20
360217.9658606701
 10
1394706.92910447
 20
360219.245860112
 10
1394735.28909253
 20
360183.735860309
 10
1394732.31909272
 20
360181.815861265
 10
1394745.44908644
 20
360161.7558619861
 10
1394735.58908051
 20
360123.305870759
 10
1394734.57908006
 20
360120.345871413
 10
1394730.04907784
 20
360104.845875088
 10
1394726.37907573
 20
360091.305878118
 10
1394723.27907612
 20
360090.2858789271
 10
1394722.46907556
 20
360086.875879703
 10
1394717.22907674
 20
360088.2758805221
 10
1394712.5590741
 20
360071.025884498
 10
1394671.83908327
 20
360082.015891008
 10
1394672.98908392
 20
360085.865890133
 10
1394674.34908474
 20
360091.2458888711
 10
1394675.95908575
 20
360097.925887423
 10
1394654.32909084
 20
360104.815890713
 10
1394625.60909724
 20
360112.255895325
 10
1394626.87909795
 20
360116.56589439
 10
1394625.36909824
 20
360117.0358946151
 10
1394624.26909847
 20
360117.305894761
  0
LWPOLYLINE
  5
31F
330
1C
100
AcDbEntity
  8
Ранее утвержденные охранные зоны
370
    20
100
AcDbPolyline
 90
       54
 70
     0
 43
0.0
 10
1394906.64397902
 20
359760.5798980151
 10
1394936.42697252
 20
359753.63589307
 10
1394944.72097065
 20
359751.55189167
 10
1394977.31796338
 20
359743.243886348
 10
1395020.63309886
 20
359732.382505958
 10
1395022.06695458
 20
359737.88487803
 10
1395033.882954
 20
359745.1058743471
 10
1395039.35195274
 20
359743.634873483
 10
1395042.54595454
 20
359755.494870771
 10
1395049.51595955
 20
359786.659863907
 10
1395055.43496335
 20
359811.0288585461
 10
1395058.29096513
 20
359822.4348559651
 10
1395065.07496991
 20
359852.29984938
 10
1395097.10396278
 20
359844.3858441
 10
1395162.37994811
 20
359826.9708336461
 10
1395176.574945
 20
359823.729831314
 10
1395210.17393738
 20
359814.597825936
 10
1395223.46293449
 20
359811.6168237
 10
1395257.43792703
 20
359803.2368180871
 10
1395315.614914
 20
359788.119808669
 10
1395311.22591093
 20
359768.798812938
 10
1395306.21090809
 20
359750.271817131
 10
1395326.64390336
 20
359744.247814001
 10
1395319.05489888
 20
359715.022820599
 10
1395366.43188721
 20
359697.334813822
 10
1395356.62088351
 20
359670.142820595
 10
1395354.0408841
 20
359670.7828210301
 10
1395352.79688325
 20
359665.7588221531
 10
1395360.2968816
 20
359663.857820941
 10
1395355.78287893
 20
359646.159824891
 10
1395350.5638756
 20
359625.160829625
 10
1395341.48187759
 20
359627.3468311351
 10
1395336.9968747
 20
359608.5748353051
 10
1395334.07687197
 20
359592.314838699
 10
1395324.6528741
 20
359594.753840228
 10
1395322.34487251
 20
359584.844842434
 10
1395318.50887
 20
359568.8468459471
 10
1395320.46686949
 20
359568.2968456229
 10
1395317.08786748
 20
359554.9528486571
 10
1395314.70186795
 20
359555.5488490021
 10
1395314.03686757
 20
359552.788849641
 10
1395316.51886695
 20
359552.1078492691
 10
1395312.06486411
 20
359533.593853382
 10
1395272.55987324
 20
359545.337859519
 10
1395281.48287917
 20
359583.118851145
 10
1395139.49491072
 20
359618.881874315
 10
1395120.92991202
 20
359609.0878798971
 10
1395106.56891087
 20
359590.605886009
 10
1394957.10894052
 20
359610.5259134511
 10
1394956.36894017
 20
359608.195914071
 10
1394879.87895546
 20
359618.4759280941
 10
1394906.48897266
 20
359728.495903535
 10
1394900.00397409
 20
359730.111904659
 10
1394906.64397902
 20
359760.5798980151
  0
LWPOLYLINE
  5
320
330
1C
100
AcDbEntity
  8
Ранее утвержденные охранные зоны
370
    20
100
AcDbPolyline
 90
       33
 70
     0
 43
0.0
 10
1395354.75894214
 20
359642.025177903
 10
1395383.19893584
 20
359635.0451734629
 10
1395384.64893552
 20
359634.695173237
 10
1395437.36892384
 20
359621.7751650061
 10
1395444.57892225
 20
359620.005163876
 10
1395451.71892067
 20
359618.255162758
 10
1395454.85891998
 20
359617.485162274
 10
1395451.90891816
 20
359605.81516487
 10
1395451.43891788
 20
359603.955165281
 10
1395448.17891652
 20
359594.2751676021
 10
1395441.648918
 20
359596.07516859
 10
1395441.07891765
 20
359593.785169104
 10
1395439.73891682
 20
359588.435170296
 10
1395437.59891549
 20
359579.8351722011
 10
1395435.69891429
 20
359572.2151739021
 10
1395434.64891365
 20
359568.005174833
 10
1395387.51892381
 20
359578.2151824251
 10
1395388.06892431
 20
359581.1951818021
 10
1395381.14892583
 20
359582.845182886
 10
1395375.90892831
 20
359590.7351825661
 10
1395373.98892873
 20
359591.255182859
 10
1395356.93893258
 20
359595.7851854621
 10
1395357.09893276
 20
359596.805185253
 10
1395347.68893481
 20
359598.965186747
 10
1395345.13893579
 20
359601.715186782
 10
1395335.76893742
 20
359601.715188637
 10
1395335.86893752
 20
359602.315188515
 10
1395336.99893856
 20
359608.575187209
 10
1395341.47894152
 20
359627.34518308
 10
1395350.56893951
 20
359625.165181653
 10
1395351.38894003
 20
359628.4951809141
 10
1395353.7289415
 20
359637.895178819
 10
1395354.75894214
 20
359642.025177903
  0
LWPOLYLINE
  5
321
330
1C
100
AcDbEntity
  8
Ранее утвержденные охранные зоны
370
    20
100
AcDbPolyline
 90
      148
 70
     0
 43
0.0
 10
1396378.10476066
 20
359425.767761515
 10
1396682.85468786
 20
359323.797716204
 10
1396740.09467491
 20
359308.2077070821
 10
1396809.61466299
 20
359308.607692553
 10
1396865.61464737
 20
359278.477686288
 10
1396866.81464651
 20
359275.187686585
 10
1397037.30459906
 20
359184.63766697
 10
1397208.66456456
 20
359159.447635958
 10
1397430.00451789
 20
359116.947597549
 10
1397764.43443377
 20
358983.467551593
 10
1397757.69443155
 20
358966.5875558051
 10
1397770.30442837
 20
358961.587554117
 10
1397777.20443088
 20
358979.827549522
 10
1397801.31442523
 20
358972.4775458661
 10
1397808.01442915
 20
358998.287539989
 10
1397809.90443307
 20
359019.5275359221
 10
1397807.19443563
 20
359029.887534704
 10
1397807.50443659
 20
359035.337533673
 10
1397808.04443839
 20
359044.887531872
 10
1397810.34444367
 20
359073.247526565
 10
1397814.18444293
 20
359073.097525808
 10
1397817.96444235
 20
359073.047525003
 10
1397822.26444154
 20
359072.897524096
 10
1397827.78444041
 20
359072.10752315
 10
1397828.18444315
 20
359086.047520684
 10
1397833.51446191
 20
359185.407502343
 10
1397817.96446475
 20
359186.377505455
 10
1397814.48446534
 20
359186.0475062321
 10
1397813.73446553
 20
359186.137506384
 10
1397708.34448962
 20
359216.077522905
 10
1397665.43449935
 20
359228.0675297471
 10
1397634.68450655
 20
359237.287534446
 10
1397600.15451434
 20
359246.73753996
 10
1397604.23451627
 20
359260.1975367671
 10
1397588.64451996
 20
359264.9275392461
 10
1397547.87452925
 20
359276.457545634
 10
1397532.81453293
 20
359281.8175477971
 10
1397506.19453892
 20
359288.9675520811
 10
1397497.154541
 20
359291.447553588
 10
1397492.16454209
 20
359292.837554313
 10
1397487.08454319
 20
359294.0475551479
 10
1397481.85454439
 20
359295.4475559561
 10
1397450.21455167
 20
359304.267560996
 10
1397393.84456441
 20
359319.967569963
 10
1397381.27456743
 20
359324.1575717821
 10
1397379.11456789
 20
359324.717572182
 10
1397385.01457117
 20
359346.027567253
 10
1397377.98457275
 20
359347.95756839
 10
1397382.08457487
 20
359362.457565045
 10
1397383.67457566
 20
359367.427563888
 10
1397400.03458295
 20
359418.567551589
 10
1397401.55458389
 20
359424.667550306
 10
1397400.41458529
 20
359430.877549447
 10
1397209.88462916
 20
359485.987579249
 10
1397190.62463343
 20
359491.137582351
 10
1397188.84463386
 20
359491.547582649
 10
1397188.39463356
 20
359489.5875830501
 10
1397132.80464687
 20
359508.177591393
 10
1397132.31464667
 20
359506.757591728
 10
1397131.13464617
 20
359503.357592573
 10
1397125.26464362
 20
359485.2175969279
 10
1397124.59464327
 20
359483.177597319
 10
1397124.37464317
 20
359482.517597522
 10
1397121.4046439
 20
359483.487597997
 10
1397116.08464141
 20
359466.417602004
 10
1397097.81464574
 20
359472.0676048311
 10
1397092.22464247
 20
359450.917609653
 10
1397087.16464172
 20
359442.937611999
 10
1397084.54464162
 20
359439.977613129
 10
1397070.03464617
 20
359450.317614345
 10
1397050.72465234
 20
359464.667615809
 10
1396992.96467078
 20
359507.227620423
 10
1396989.41467188
 20
359509.837620708
 10
1396982.10467431
 20
359515.4676212761
 10
1396979.08467519
 20
359517.5776215
 10
1396972.97467712
 20
359521.8276219811
 10
1396966.814679
 20
359526.137622525
 10
1396963.77468001
 20
359528.2476228121
 10
1396962.82468026
 20
359528.927622892
 10
1396952.00468368
 20
359536.927623755
 10
1396945.93468564
 20
359541.56762416
 10
1396934.19468936
 20
359549.9676251421
 10
1396929.66469078
 20
359553.207625568
 10
1396920.09469385
 20
359560.357626318
 10
1396910.5246969
 20
359567.497627038
 10
1396908.66469749
 20
359568.7976271661
 10
1396904.74469877
 20
359571.547627493
 10
1396901.43469978
 20
359573.857627789
 10
1396893.97470231
 20
359580.2076282851
 10
1396890.45470363
 20
359583.897628328
 10
1396885.81470577
 20
359590.327628228
 10
1396881.62470793
 20
359597.91762777
 10
1396878.34470995
 20
359604.86762719
 10
1396877.50471075
 20
359608.2776267701
 10
1396875.82471265
 20
359616.2976257921
 10
1396875.36471443
 20
359624.867624385
 10
1396873.51471661
 20
359634.497623065
 10
1396873.01471851
 20
359643.527621608
 10
1396859.51472254
 20
359652.327622908
 10
1396810.95473419
 20
359668.52763016
 10
1396795.70473725
 20
359670.9476328921
 10
1396792.12473675
 20
359665.1076346101
 10
1396763.58473717
 20
359642.607644377
 10
1396758.88473763
 20
359640.5576457251
 10
1396756.17473841
 20
359642.3276459461
 10
1396756.09473882
 20
359644.567645657
 10
1396746.39474046
 20
359644.1876477351
 10
1396742.16473647
 20
359620.427652703
 10
1396740.1347354
 20
359612.997654367
 10
1396737.08473369
 20
359602.0176569429
 10
1396724.43473646
 20
359604.727658995
 10
1396725.2847366
 20
359606.407658569
 10
1396718.33473849
 20
359610.087659372
 10
1396717.87473854
 20
359609.457659603
 10
1396703.17474275
 20
359618.047661143
 10
1396702.57474273
 20
359617.267661341
 10
1396658.78475528
 20
359642.727666057
 10
1396660.14475733
 20
359654.057663775
 10
1396639.38476177
 20
359658.3576673931
 10
1396610.6547677
 20
359663.5976724061
 10
1396598.73477013
 20
359665.3376745911
 10
1396593.61477174
 20
359669.1776749061
 10
1396593.73477211
 20
359670.887674625
 10
1396588.41477314
 20
359671.457675573
 10
1396588.68477353
 20
359673.607675143
 10
1396584.54477428
 20
359673.737676015
 10
1396583.20477444
 20
359673.7776762851
 10
1396565.34477766
 20
359674.3176799011
 10
1396562.48477818
 20
359674.2876804711
 10
1396559.78477794
 20
359670.817681653
 10
1396555.11477759
 20
359664.817683632
 10
1396559.39477587
 20
359659.8276836021
 10
1396558.02477559
 20
359657.3876842771
 10
1396556.61477534
 20
359654.8976850961
 10
1396547.76477375
 20
359639.1976895521
 10
1396542.45477294
 20
359630.347692185
 10
1396543.61477258
 20
359629.787692026
 10
1396523.72476958
 20
359597.2977018101
 10
1396491.65477346
 20
359588.80770985
 10
1396459.90477785
 20
359583.547717396
 10
1396450.53477648
 20
359568.387721948
 10
1396439.06477377
 20
359544.7977283321
 10
1396434.80477405
 20
359542.417729695
 10
1396426.96477117
 20
359521.217734893
 10
1396423.61477078
 20
359516.337736451
 10
1396416.37476918
 20
359501.847740481
 10
1396397.72477105
 20
359495.307745469
 10
1396378.10476066
 20
359425.767761515
  0
LWPOLYLINE
  5
322
330
1C
100
AcDbEntity
  8
Ранее утвержденные охранные зоны
370
    20
100
AcDbPolyline
 90
       93
 70
     0
 43
0.0
 10
1397627.97698342
 20
359391.509760411
 10
1397657.30007366
 20
359384.0061497451
 10
1397705.23253373
 20
359377.0232882421
 10
1397872.9239532
 20
359375.9104332371
 10
1397885.53898587
 20
359372.2436519221
 10
1397961.73301817
 20
359372.7153573571
 10
1397961.74843695
 20
359366.0847079779
 10
1398039.84098707
 20
359364.609618428
 10
1398039.97842684
 20
359383.284689474
 10
1398040.01842786
 20
359388.444688577
 10
1398042.0184275
 20
359388.414688183
 10
1398042.22843095
 20
359405.914685119
 10
1398042.58446075
 20
359450.202665558
 10
1398052.22843805
 20
359450.374675448
 10
1398052.21843966
 20
359458.5346740379
 10
1398052.18844462
 20
359483.46466973
 10
1398056.65844437
 20
359486.154668377
 10
1398056.84844514
 20
359490.1346676571
 10
1398057.048446
 20
359494.65466684
 10
1398057.44844768
 20
359503.494665227
 10
1398055.9184483
 20
359505.294665224
 10
1398056.2584488
 20
359508.0746646761
 10
1398057.19845017
 20
359515.834663145
 10
1398063.09845212
 20
359530.774659393
 10
1398067.79496978
 20
359561.797050656
 10
1398109.90522923
 20
359562.346968901
 10
1398135.72635837
 20
359577.190884284
 10
1398151.72844898
 20
359592.1346311821
 10
1398162.41844906
 20
359601.824627389
 10
1398170.90324574
 20
359610.2510836021
 10
1398131.47017215
 20
359638.5702902661
 10
1398166.56642827
 20
359692.534800056
 10
1398194.25344245
 20
359717.5214530051
 10
1398218.69609005
 20
359736.154095593
 10
1398248.10624116
 20
359755.8280105601
 10
1398263.48774348
 20
359766.86142222
 10
1398288.97040208
 20
359787.19442386
 10
1398299.58406411
 20
359790.995560144
 10
1398299.21846317
 20
359792.034567349
 10
1398286.35847146
 20
359822.6145646201
 10
1398284.43847302
 20
359828.7845639311
 10
1398285.81582147
 20
359846.307142778
 10
1398291.35313519
 20
359916.7527564661
 10
1398285.57193503
 20
359978.1693929271
 10
1398282.6062062
 20
360009.6758017301
 10
1398308.35610671
 20
360039.40580917
 10
1398273.82962664
 20
360065.01763422
 10
1398261.99984966
 20
360071.68763126
 10
1398231.83539254
 20
360080.364742404
 10
1398180.28119076
 20
360088.301860969
 10
1398140.40698873
 20
360085.527827694
 10
1398110.50750083
 20
360078.764591734
 10
1398039.95856295
 20
360069.004570951
 10
1398025.06856515
 20
360067.174574219
 10
1398022.60856553
 20
360066.904574761
 10
1398014.43856677
 20
360066.0445765271
 10
1397981.5885718
 20
360062.814583609
 10
1397981.60857205
 20
360064.09458338
 10
1397974.34138646
 20
360067.434274523
 10
1397967.27900892
 20
360068.2068675811
 10
1397948.50600571
 20
360056.0525361021
 10
1397893.83666271
 20
360035.837984844
 10
1397874.80503179
 20
360031.272999362
 10
1397842.59384502
 20
360027.695516041
 10
1397784.77851081
 20
360024.12152832
 10
1397758.56638341
 20
360022.50116561
 10
1397755.74451939
 20
360022.360572463
 10
1397703.2878711
 20
360013.3977408911
 10
1397682.9826743
 20
360009.439702879
 10
1397667.75902772
 20
360004.984121184
 10
1397631.608376199
 20
359993.5845671811
 10
1397640.81695677
 20
359947.903674159
 10
1397634.07860456
 20
359925.364676828
 10
1397647.79859061
 20
359867.014684198
 10
1397679.52955446
 20
359777.114369859
 10
1397649.42856221
 20
359725.3347083571
 10
1397642.26974057
 20
359715.876499738
 10
1397642.67746681
 20
359700.003045618
 10
1397634.5326092
 20
359660.389321802
 10
1397633.04402029
 20
359649.659597925
 10
1397620.40855052
 20
359641.174728669
 10
1397622.17164945
 20
359626.44553963
 10
1397612.05051307
 20
359579.735514878
 10
1397618.97828911
 20
359578.031114088
 10
1397616.5449153
 20
359567.4913823029
 10
1397603.61247811
 20
359511.476821295
 10
1397590.16766114
 20
359453.243016928
 10
1397586.36439206
 20
359436.769848812
 10
1397627.19850656
 20
359425.584764124
 10
1397634.85850482
 20
359423.4947629561
 10
1397636.64850441
 20
359423.0047626901
 10
1397629.27850041
 20
359396.394768759
 10
1397627.97698342
 20
359391.509760411
  0
LWPOLYLINE
  5
8DB
330
1C
100
AcDbEntity
  8
Ранее утвержденные охранные зоны
370
    20
100
AcDbPolyline
 90
       22
 70
     1
 43
0.0
 10
1396152.78878967
 20
359888.925618221
 10
1396157.49878944
 20
359891.815616784
 10
1396181.288789
 20
359910.485608621
 10
1396183.68878895
 20
359912.2556078361
 10
1396184.47878896
 20
359912.835607531
 10
1396199.48878897
 20
359926.2456021641
 10
1396220.84877247
 20
359861.3156089561
 10
1396234.238771
 20
359865.475605513
 10
1396245.43876258
 20
359833.1556087361
 10
1396249.59875939
 20
359820.355610054
 10
1396251.31875801
 20
359814.845610644
 10
1396259.09875261
 20
359794.475612602
 10
1396251.9187539
 20
359795.175613943
 10
1396245.02875512
 20
359795.14561537
 10
1396239.05875604
 20
359794.4556167621
 10
1396232.76875688
 20
359793.2056182311
 10
1396218.19875875
 20
359790.31562178
 10
1396180.02876305
 20
359778.485631714
 10
1396167.66877267
 20
359816.5156276851
 10
1396183.02877115
 20
359821.85562359
 10
1396158.30878623
 20
359876.685619201
 10
1396152.78878967
 20
359888.925618221
  0
VIEWPORT
  5
8E1
330
8DD
100
AcDbEntity
 67
     1
  8
0
100
AcDbViewport
 10
0.0
 20
0.0
 30
0.0
 40
297.0
 41
210.0
 68
     1
 69
     1
 12
50.0
 22
100.0
 13
0.0
 23
0.0
 14
10.0
 24
10.0
 15
10.0
 25
10.0
 16
0.0
 26
0.0
 36
1.0
 17
0.0
 27
0.0
 37
0.0
 42
50.0
 43
0.0
 44
0.0
 45
250.0
 50
0.0
 51
0.0
 72
  1000
 90
   819232
  1

281
     0
 71
     1
 74
     0
110
0.0
120
0.0
130
0.0
111
1.0
121
0.0
131
0.0
112
0.0
122
1.0
132
0.0
 79
     0
146
0.0
170
     0
 61
     5
292
     1
282
     1
141
0.0
142
0.0
 63
   250
421
  3355443
  0
ENDSEC
  0
SECTION
  2
OBJECTS
  0
DICTIONARY
  5
8E6
330
0
100
AcDbDictionary
280
     1
281
     1
  3
ACAD_CIP_PREVIOUS_PRODUCT_INFO
360
93D
  3
ACAD_COLOR
360
921
  3
ACAD_DETAILVIEWSTYLE
360
93A
  3
ACAD_DGNDEFINITIONS
360
F
  3
ACAD_DWFDEFINITIONS
360
10
  3
ACAD_GROUP
360
12
  3
ACAD_IMAGE_DICT
360
E
  3
ACAD_IMAGE_VARS
360
21
  3
ACAD_LAYOUT
360
8E0
  3
ACAD_MATERIAL
360
8EF
  3
ACAD_MLEADERSTYLE
360
936
  3
ACAD_MLINESTYLE
360
B
  3
ACAD_PDFDEFINITIONS
360
11
  3
ACAD_PLOTSETTINGS
360
93C
  3
ACAD_PLOTSTYLENAME
360
8ED
  3
ACAD_SCALELIST
360
924
  3
ACAD_SECTIONVIEWSTYLE
360
938
  3
ACAD_TABLESTYLE
360
922
  3
ACAD_VISUALSTYLE
360
908
  3
ACDB_RECOMPOSE_DATA
360
9C6
  3
AcDbVariableDictionary
360
944
  0
DICTIONARY
  5
6
330
5
100
AcDbDictionary
280
     1
281
     1
  3
ACAD_LAYERSTATES
360
8E7
  0
DICTIONARY
  5
9BC
330
1C
100
AcDbDictionary
280
     1
281
     1
  3
ACAD_SORTENTS
360
9BD
  0
XRECORD
  5
93D
102
{ACAD_REACTORS
330
8E6
102
}
330
8E6
100
AcDbXrecord
280
     1
300
ACD
300
2020
300
ACD_F_S
  0
DICTIONARY
  5
921
102
{ACAD_REACTORS
330
8E6
102
}
330
8E6
100
AcDbDictionary
281
     1
  0
DICTIONARY
  5
93A
102
{ACAD_REACTORS
330
8E6
102
}
330
8E6
100
AcDbDictionary
281
     1
  3
Imperial24
350
93B
  0
DICTIONARY
  5
F
330
8E6
100
AcDbDictionary
280
     1
281
     1
  0
DICTIONARY
  5
10
330
8E6
100
AcDbDictionary
280
     1
281
     1
  0
DICTIONARY
  5
12
330
8E6
100
AcDbDictionary
280
     1
281
     1
  0
DICTIONARY
  5
E
330
8E6
100
AcDbDictionary
280
     1
281
     1
  0
RASTERVARIABLES
  5
21
330
E
100
AcDbRasterVariables
 90
        0
 70
     1
 71
     1
 72
     0
  0
DICTIONARY
  5
8E0
330
8E6
100
AcDbDictionary
280
     1
281
     1
  3
Layout1
360
8E2
  3
Model
360
20
  0
DICTIONARY
  5
8EF
102
{ACAD_REACTORS
330
8E6
102
}
330
8E6
100
AcDbDictionary
281
     1
  3
ByBlock
350
8F8
  3
ByLayer
350
8F0
  3
Global
350
900
  0
DICTIONARY
  5
936
102
{ACAD_REACTORS
330
8E6
102
}
330
8E6
100
AcDbDictionary
281
     1
  3
Standard
350
937
  0
DICTIONARY
  5
B
330
8E6
100
AcDbDictionary
280
     1
281
     1
  3
Standard
360
1B
  0
DICTIONARY
  5
11
330
8E6
100
AcDbDictionary
280
     1
281
     1
  0
DICTIONARY
  5
93C
102
{ACAD_REACTORS
330
8E6
102
}
330
8E6
100
AcDbDictionary
281
     1
  0
ACDBDICTIONARYWDFLT
  5
8ED
102
{ACAD_REACTORS
330
8E6
102
}
330
8E6
100
AcDbDictionary
281
     1
  3
Normal
350
8EE
100
AcDbDictionaryWithDefault
340
8EE
  0
DICTIONARY
  5
924
102
{ACAD_REACTORS
330
8E6
102
}
330
8E6
100
AcDbDictionary
281
     1
  3
A0
350
925
  3
A1
350
926
  3
A2
350
927
  3
A3
350
928
  3
A4
350
929
  3
A5
350
92A
  3
A6
350
92B
  3
A7
350
92C
  3
A8
350
92D
  3
A9
350
92E
  3
B0
350
92F
  3
B1
350
930
  3
B2
350
931
  3
B3
350
932
  3
B4
350
933
  3
B5
350
934
  3
B6
350
935
  0
DICTIONARY
  5
938
102
{ACAD_REACTORS
330
8E6
102
}
330
8E6
100
AcDbDictionary
281
     1
  3
Imperial24
350
939
  0
DICTIONARY
  5
922
102
{ACAD_REACTORS
330
8E6
102
}
330
8E6
100
AcDbDictionary
281
     1
  3
Standard
350
923
  0
DICTIONARY
  5
908
102
{ACAD_REACTORS
330
8E6
102
}
330
8E6
100
AcDbDictionary
281
     1
  3
2dWireframe
350
90E
  3
Basic
350
90D
  3
Brighten
350
914
  3
ColorChange
350
918
  3
Conceptual
350
911
  3
Dim
350
913
  3
EdgeColorOff
350
920
  3
Facepattern
350
917
  3
Flat
350
909
  3
FlatWithEdges
350
90A
  3
Gouraud
350
90B
  3
GouraudWithEdges
350
90C
  3
Hidden
350
910
  3
JitterOff
350
91E
  3
Linepattern
350
916
  3
OverhangOff
350
91F
  3
Realistic
350
912
  3
Shaded
350
91D
  3
Shaded with edges
350
91C
  3
Shades of Gray
350
919
  3
Sketchy
350
91A
  3
Thicken
350
915
  3
Wireframe
350
90F
  3
X-Ray
350
91B
  0
XRECORD
  5
9C6
102
{ACAD_REACTORS
330
8E6
102
}
330
8E6
100
AcDbXrecord
280
     1
 90
        1
330
923
  0
DICTIONARY
  5
944
102
{ACAD_REACTORS
330
8E6
102
}
330
8E6
100
AcDbDictionary
281
     1
  3
CANNOSCALE
350
949
  3
CMLEADERSTYLE
350
946
  3
CTABLESTYLE
350
945
  3
CVIEWDETAILSTYLE
350
947
  3
CVIEWSECTIONSTYLE
350
948
  0
DICTIONARY
  5
8E7
330
6
100
AcDbDictionary
280
     1
281
     1
  0
SORTENTSTABLE
  5
9BD
102
{ACAD_REACTORS
330
9BC
102
}
330
9BC
100
AcDbSortentsTable
330
1C
331
239
  5
23B
331
23A
  5
23C
331
242
  5
244
331
243
  5
245
331
244
  5
246
331
245
  5
247
331
246
  5
248
331
247
  5
249
331
248
  5
24A
331
249
  5
24B
331
24A
  5
24C
331
24B
  5
24D
331
24C
  5
24E
331
24D
  5
24F
331
24E
  5
250
331
24F
  5
251
  0
ACDBDETAILVIEWSTYLE
  5
93B
102
{ACAD_REACTORS
330
93A
102
}
330
93A
100
AcDbModelDocViewStyle
 70
     0
  3
Imperial24
290
     0
300
Imperial24
 90
        0
100
AcDbDetailViewStyle
 70
     0
 71
     0
 90
        3
 71
     1
340
18
 62
   256
 40
0.24
340
0
 62
   256
 40
0.24
300

 40
0.36
280
     3
 71
     2
340
15
 90
       25
 62
   256
 71
     3
340
18
 62
   256
 40
0.24
 90
        1
 40
0.75
 90
        1
300
%<\AcVar ViewType \f "%tc1">% %<\AcVar ViewDetailId>%\PМАСШТАБ %<\AcVar ViewScale \f "%sn">%
 71
     4
340
15
 90
       25
 62
   256
340
15
 90
       25
 62
   256
280
     0
  0
LAYOUT
  5
8E2
330
8E0
100
AcDbPlotSettings
  1

  2
none_device
  4
ISO_A4_(210.00_x_297.00_MM)
  6

 40
7.5
 41
20.0
 42
7.5
 43
20.0
 44
210.0
 45
297.0
 46
0.0
 47
0.0
 48
0.0
 49
0.0
140
0.0
141
0.0
142
1.0
143
1.0
 70
   688
 72
     1
 73
     1
 74
     1
  7

 75
     0
147
1.0
 76
     0
 77
     2
 78
   300
148
0.0
149
0.0
100
AcDbLayout
  1
Layout1
 70
     1
 71
     1
 10
0.0
 20
0.0
 11
12.0
 21
9.0
 12
0.0
 22
0.0
 32
0.0
 14
1.000000000000000E+20
 24
1.000000000000000E+20
 34
1.000000000000000E+20
 15
-1.000000000000000E+20
 25
-1.000000000000000E+20
 35
-1.000000000000000E+20
146
0.0
 13
0.0
 23
0.0
 33
0.0
 16
1.0
 26
0.0
 36
0.0
 17
0.0
 27
1.0
 37
0.0
 76
     0
330
8DD
331
8E1
  0
LAYOUT
  5
20
330
8E0
100
AcDbPlotSettings
  1

  2
none_device
  4
ISO_A4_(210.00_x_297.00_MM)
  6

 40
7.5
 41
20.0
 42
7.5
 43
20.0
 44
210.0
 45
297.0
 46
0.0
 47
0.0
 48
0.0
 49
0.0
140
0.0
141
0.0
142
1.0
143
1.0
 70
 11952
 72
     1
 73
     1
 74
     1
  7

 75
     0
147
1.0
 76
     0
 77
     2
 78
   300
148
0.0
149
0.0
100
AcDbLayout
  1
Model
 70
     1
 71
     0
 10
1370580.19114949
 20
317189.6127665851
 11
1399948.38546234
 21
361044.1753811011
 12
0.0
 22
0.0
 32
0.0
 14
1399948.38546234
 24
361044.1753811011
 34
0.0
 15
231.3
 25
175.5
 35
0.0
146
0.0
 13
0.0
 23
0.0
 33
0.0
 16
1.0
 26
0.0
 36
0.0
 17
0.0
 27
1.0
 37
0.0
 76
     0
330
1C
331
2
  0
MATERIAL
  5
8F8
102
{ACAD_XDICTIONARY
360
8F9
102
}
102
{ACAD_REACTORS
330
8EF
102
}
330
8EF
100
AcDbMaterial
  1
ByBlock
 72
     0
 43
0.0208333333333333
 43
0.0
 43
0.0
 43
0.0
 43
0.0
 43
0.0208333333333333
 43
0.0
 43
0.0
 43
0.0
 43
0.0
 43
1.0
 43
0.0
 43
0.0
 43
0.0
 43
0.0
 43
1.0
 77
     0
 47
0.0208333333333333
 47
0.0
 47
0.0
 47
0.0
 47
0.0
 47
0.0208333333333333
 47
0.0
 47
0.0
 47
0.0
 47
0.0
 47
1.0
 47
0.0
 47
0.0
 47
0.0
 47
0.0
 47
1.0
171
     0
 49
0.0208333333333333
 49
0.0
 49
0.0
 49
0.0
 49
0.0
 49
0.0208333333333333
 49
0.0
 49
0.0
 49
0.0
 49
0.0
 49
1.0
 49
0.0
 49
0.0
 49
0.0
 49
0.0
 49
1.0
175
     0
142
0.0208333333333333
142
0.0
142
0.0
142
0.0
142
0.0
142
0.0208333333333333
142
0.0
142
0.0
142
0.0
142
0.0
142
1.0
142
0.0
142
0.0
142
0.0
142
0.0
142
1.0
179
     0
144
0.0208333333333333
144
0.0
144
0.0
144
0.0
144
0.0
144
0.0208333333333333
144
0.0
144
0.0
144
0.0
144
0.0
144
1.0
144
0.0
144
0.0
144
0.0
144
0.0
144
1.0
147
0.0208333333333333
147
0.0
147
0.0
147
0.0
147
0.0
147
0.0208333333333333
147
0.0
147
0.0
147
0.0
147
0.0
147
1.0
147
0.0
147
0.0
147
0.0
147
0.0
147
1.0
  0
MATERIAL
  5
8F0
102
{ACAD_XDICTIONARY
360
8F1
102
}
102
{ACAD_REACTORS
330
8EF
102
}
330
8EF
100
AcDbMaterial
  1
ByLayer
 72
     0
 43
0.0208333333333333
 43
0.0
 43
0.0
 43
0.0
 43
0.0
 43
0.0208333333333333
 43
0.0
 43
0.0
 43
0.0
 43
0.0
 43
1.0
 43
0.0
 43
0.0
 43
0.0
 43
0.0
 43
1.0
 77
     0
 47
0.0208333333333333
 47
0.0
 47
0.0
 47
0.0
 47
0.0
 47
0.0208333333333333
 47
0.0
 47
0.0
 47
0.0
 47
0.0
 47
1.0
 47
0.0
 47
0.0
 47
0.0
 47
0.0
 47
1.0
171
     0
 49
0.0208333333333333
 49
0.0
 49
0.0
 49
0.0
 49
0.0
 49
0.0208333333333333
 49
0.0
 49
0.0
 49
0.0
 49
0.0
 49
1.0
 49
0.0
 49
0.0
 49
0.0
 49
0.0
 49
1.0
175
     0
142
0.0208333333333333
142
0.0
142
0.0
142
0.0
142
0.0
142
0.0208333333333333
142
0.0
142
0.0
142
0.0
142
0.0
142
1.0
142
0.0
142
0.0
142
0.0
142
0.0
142
1.0
179
     0
144
0.0208333333333333
144
0.0
144
0.0
144
0.0
144
0.0
144
0.0208333333333333
144
0.0
144
0.0
144
0.0
144
0.0
144
1.0
144
0.0
144
0.0
144
0.0
144
0.0
144
1.0
147
0.0208333333333333
147
0.0
147
0.0
147
0.0
147
0.0
147
0.0208333333333333
147
0.0
147
0.0
147
0.0
147
0.0
147
1.0
147
0.0
147
0.0
147
0.0
147
0.0
147
1.0
  0
MATERIAL
  5
900
102
{ACAD_XDICTIONARY
360
901
102
}
102
{ACAD_REACTORS
330
8EF
102
}
330
8EF
100
AcDbMaterial
  1
Global
 72
     0
 43
0.0208333333333333
 43
0.0
 43
0.0
 43
0.0
 43
0.0
 43
0.0208333333333333
 43
0.0
 43
0.0
 43
0.0
 43
0.0
 43
1.0
 43
0.0
 43
0.0
 43
0.0
 43
0.0
 43
1.0
 77
     0
 47
0.0208333333333333
 47
0.0
 47
0.0
 47
0.0
 47
0.0
 47
0.0208333333333333
 47
0.0
 47
0.0
 47
0.0
 47
0.0
 47
1.0
 47
0.0
 47
0.0
 47
0.0
 47
0.0
 47
1.0
171
     0
 49
0.0208333333333333
 49
0.0
 49
0.0
 49
0.0
 49
0.0
 49
0.0208333333333333
 49
0.0
 49
0.0
 49
0.0
 49
0.0
 49
1.0
 49
0.0
 49
0.0
 49
0.0
 49
0.0
 49
1.0
175
     0
142
0.0208333333333333
142
0.0
142
0.0
142
0.0
142
0.0
142
0.0208333333333333
142
0.0
142
0.0
142
0.0
142
0.0
142
1.0
142
0.0
142
0.0
142
0.0
142
0.0
142
1.0
179
     0
144
0.0208333333333333
144
0.0
144
0.0
144
0.0
144
0.0
144
0.0208333333333333
144
0.0
144
0.0
144
0.0
144
0.0
144
1.0
144
0.0
144
0.0
144
0.0
144
0.0
144
1.0
147
0.0208333333333333
147
0.0
147
0.0
147
0.0
147
0.0
147
0.0208333333333333
147
0.0
147
0.0
147
0.0
147
0.0
147
1.0
147
0.0
147
0.0
147
0.0
147
0.0
147
1.0
  0
MLEADERSTYLE
  5
937
102
{ACAD_REACTORS
330
936
102
}
330
936
100
AcDbMLeaderStyle
179
     2
170
     2
171
     1
172
     0
 90
        2
 40
0.0
 41
0.0
173
     1
 91
-1056964608
340
17
 92
       -2
290
     1
 42
0.09
291
     1
 43
0.36
  3
Standard
 44
0.18
300

342
18
174
     1
178
     6
175
     1
176
     0
 93
-1056964608
 45
0.18
292
     0
297
     0
 46
0.18
 94
-1056964608
 47
1.0
 49
1.0
140
1.0
293
     1
141
0.0
294
     1
177
     0
142
1.0
295
     0
296
     0
143
0.125
271
     0
272
     9
273
     9
298
     0
  0
MLINESTYLE
  5
1B
330
B
100
AcDbMlineStyle
  2
STANDARD
 70
     0
  3

 62
   256
 51
90.0
 52
90.0
 71
     2
 49
0.5
 62
   256
  6
BYLAYER
 49
-0.5
 62
   256
  6
BYLAYER
  0
ACDBPLACEHOLDER
  5
8EE
102
{ACAD_REACTORS
330
8ED
102
}
330
8ED
  0
SCALE
  5
925
102
{ACAD_REACTORS
330
924
102
}
330
924
100
AcDbScale
 70
     0
300
1:1
140
1.0
141
1.0
290
     1
  0
SCALE
  5
926
102
{ACAD_REACTORS
330
924
102
}
330
924
100
AcDbScale
 70
     0
300
1/128" = 1'-0"
140
0.0078125
141
12.0
290
     0
  0
SCALE
  5
927
102
{ACAD_REACTORS
330
924
102
}
330
924
100
AcDbScale
 70
     0
300
1/64" = 1'-0"
140
0.015625
141
12.0
290
     0
  0
SCALE
  5
928
102
{ACAD_REACTORS
330
924
102
}
330
924
100
AcDbScale
 70
     0
300
1/32" = 1'-0"
140
0.03125
141
12.0
290
     0
  0
SCALE
  5
929
102
{ACAD_REACTORS
330
924
102
}
330
924
100
AcDbScale
 70
     0
300
1/16" = 1'-0"
140
0.0625
141
12.0
290
     0
  0
SCALE
  5
92A
102
{ACAD_REACTORS
330
924
102
}
330
924
100
AcDbScale
 70
     0
300
3/32" = 1'-0"
140
0.09375
141
12.0
290
     0
  0
SCALE
  5
92B
102
{ACAD_REACTORS
330
924
102
}
330
924
100
AcDbScale
 70
     0
300
1/8" = 1'-0"
140
0.125
141
12.0
290
     0
  0
SCALE
  5
92C
102
{ACAD_REACTORS
330
924
102
}
330
924
100
AcDbScale
 70
     0
300
3/16" = 1'-0"
140
0.1875
141
12.0
290
     0
  0
SCALE
  5
92D
102
{ACAD_REACTORS
330
924
102
}
330
924
100
AcDbScale
 70
     0
300
1/4" = 1'-0"
140
0.25
141
12.0
290
     0
  0
SCALE
  5
92E
102
{ACAD_REACTORS
330
924
102
}
330
924
100
AcDbScale
 70
     0
300
3/8" = 1'-0"
140
0.375
141
12.0
290
     0
  0
SCALE
  5
92F
102
{ACAD_REACTORS
330
924
102
}
330
924
100
AcDbScale
 70
     0
300
1/2" = 1'-0"
140
0.5
141
12.0
290
     0
  0
SCALE
  5
930
102
{ACAD_REACTORS
330
924
102
}
330
924
100
AcDbScale
 70
     0
300
3/4" = 1'-0"
140
0.75
141
12.0
290
     0
  0
SCALE
  5
931
102
{ACAD_REACTORS
330
924
102
}
330
924
100
AcDbScale
 70
     0
300
1" = 1'-0"
140
1.0
141
12.0
290
     0
  0
SCALE
  5
932
102
{ACAD_REACTORS
330
924
102
}
330
924
100
AcDbScale
 70
     0
300
1-1/2" = 1'-0"
140
1.5
141
12.0
290
     0
  0
SCALE
  5
933
102
{ACAD_REACTORS
330
924
102
}
330
924
100
AcDbScale
 70
     0
300
3" = 1'-0"
140
3.0
141
12.0
290
     0
  0
SCALE
  5
934
102
{ACAD_REACTORS
330
924
102
}
330
924
100
AcDbScale
 70
     0
300
6" = 1'-0"
140
6.0
141
12.0
290
     0
  0
SCALE
  5
935
102
{ACAD_REACTORS
330
924
102
}
330
924
100
AcDbScale
 70
     0
300
1'-0" = 1'-0"
140
12.0
141
12.0
290
     0
  0
ACDBSECTIONVIEWSTYLE
  5
939
102
{ACAD_REACTORS
330
938
102
}
330
938
100
AcDbModelDocViewStyle
 70
     0
  3
Imperial24
290
     0
300
Imperial24
 90
        0
100
AcDbSectionViewStyle
 70
     0
 71
     0
 90
       78
 71
     1
340
18
 62
   256
 40
0.24
340
0
340
0
 62
   256
 40
0.24
300
I, O, Q, S, X, Z
 40
0.48
 90
        3
 40
0.18
 90
        1
 71
     2
340
15
 90
       25
 62
   256
340
15
 90
       50
 62
   256
 40
0.24
 40
0.0
 40
0.24
 71
     3
340
18
 62
   256
 40
0.24
 90
        1
 40
0.75
 90
        1
300
%<\AcVar ViewType \f "%tc1">% %<\AcVar ViewSectionStartId>%-%<\AcVar ViewSectionEndId>%\PМАСШТАБ %<\AcVar ViewScale \f "%sn">%
 71
     4
 62
   256
 62
   257
300
ANSI31
 40
1.0
 90
        0
290
     0
290
     0
 90
        6
 40
0.0
 40
1.570796326794896
 40
0.2617993877991494
 40
1.308996938995747
 40
-0.2617993877991494
 40
1.832595714594046
  0
TABLESTYLE
  5
923
102
{ACAD_XDICTIONARY
360
9C4
102
}
102
{ACAD_REACTORS
330
922
102
}
330
922
100
AcDbTableStyle
280
     0
  3
Standard
 70
     0
 71
     0
 40
0.06
 41
0.06
280
     0
281
     0
  7
Standard
140
0.18
170
     2
 62
     0
 63
     7
283
     0
 90
      512
 91
        0
  1

274
    -2
284
     1
 64
     0
275
    -2
285
     1
 65
     0
276
    -2
286
     1
 66
     0
277
    -2
287
     1
 67
     0
278
    -2
288
     1
 68
     0
279
    -2
289
     1
 69
     0
  7
Standard
140
0.25
170
     5
 62
     0
 63
     7
283
     0
 90
      512
 91
        0
  1

274
    -2
284
     1
 64
     0
275
    -2
285
     1
 65
     0
276
    -2
286
     1
 66
     0
277
    -2
287
     1
 67
     0
278
    -2
288
     1
 68
     0
279
    -2
289
     1
 69
     0
  7
Standard
140
0.18
170
     5
 62
     0
 63
     7
283
     0
 90
      512
 91
        0
  1

274
    -2
284
     1
 64
     0
275
    -2
285
     1
 65
     0
276
    -2
286
     1
 66
     0
277
    -2
287
     1
 67
     0
278
    -2
288
     1
 68
     0
279
    -2
289
     1
 69
     0
  0
VISUALSTYLE
  5
90E
102
{ACAD_REACTORS
330
908
102
}
330
908
100
AcDbVisualStyle
  2
2dWireframe
 70
     4
177
     3
291
     0
 70
    58
 90
        0
176
     1
 90
        2
176
     1
 90
        0
176
     1
 90
        0
176
     1
 40
0.6
176
     1
 40
30.0
176
     1
 62
     7
420
 16777215
176
     1
 90
        1
176
     1
 90
        4
176
     1
 62
     7
176
     1
 62
   257
176
     1
 90
        1
176
     1
 90
        1
176
     1
 40
1.0
176
     1
 90
        0
176
     1
 62
   257
176
     1
 40
1.0
176
     1
 90
        1
176
     1
 90
        6
176
     1
 90
        2
176
     1
 62
     7
176
     1
 90
        5
176
     1
 90
        0
176
     1
 90
        0
176
     1
290
     0
176
     1
 90
        1
176
     1
 40
0.0
176
     1
 90
        0
176
     1
290
     1
176
     1
290
     1
176
     1
290
     0
176
     1
290
     0
176
     1
290
     0
176
     1
290
     0
176
     1
290
     0
176
     1
290
     0
176
     1
290
     0
176
     1
 90
       50
176
     1
 40
0.0
176
     1
 40
1.0
176
     1
 90
        0
176
     1
 62
    18
420
        0
176
     1
 90
       50
176
     1
 90
        3
176
     1
 62
     5
420
      255
176
     1
290
     0
176
     1
 90
       50
176
     1
 90
       50
176
     1
 90
       50
176
     1
290
     0
176
     1
 90
       50
176
     1
 62
   256
176
     0
 40
1.0
176
     0
 90
        2
176
     1
  1
strokes_ogs.tif
176
     1
290
     0
176
     1
 40
1.0
176
     1
 40
1.0
176
     1
  0
VISUALSTYLE
  5
90D
102
{ACAD_REACTORS
330
908
102
}
330
908
100
AcDbVisualStyle
  2
Basic
 70
     7
177
     3
291
     1
 70
    58
 90
        1
176
     1
 90
        0
176
     1
 90
        1
176
     1
 90
        0
176
     1
 40
0.6
176
     1
 40
30.0
176
     1
 62
     7
420
 16777215
176
     1
 90
        0
176
     1
 90
        4
176
     1
 62
     7
176
     1
 62
   257
176
     1
 90
        1
176
     1
 90
        1
176
     1
 40
1.0
176
     1
 90
        8
176
     1
 62
     7
176
     1
 40
1.0
176
     1
 90
        1
176
     1
 90
        6
176
     1
 90
        2
176
     1
 62
     7
176
     1
 90
        5
176
     1
 90
        0
176
     1
 90
        0
176
     1
290
     0
176
     1
 90
        1
176
     1
 40
0.0
176
     1
 90
        0
176
     1
290
     0
176
     1
290
     1
176
     1
290
     1
176
     1
290
     0
176
     1
290
     0
176
     1
290
     0
176
     1
290
     0
176
     1
290
     0
176
     1
290
     0
176
     1
 90
       50
176
     1
 40
0.0
176
     1
 40
1.0
176
     1
 90
        0
176
     1
 62
    18
420
        0
176
     1
 90
       50
176
     1
 90
        3
176
     1
 62
     5
420
      255
176
     1
290
     0
176
     1
 90
       50
176
     1
 90
       50
176
     1
 90
       50
176
     1
290
     0
176
     1
 90
       50
176
     1
 62
   256
176
     0
 40
1.0
176
     0
 90
        2
176
     1
  1
strokes_ogs.tif
176
     1
290
     0
176
     1
 40
1.0
176
     1
 40
1.0
176
     1
  0
VISUALSTYLE
  5
914
102
{ACAD_REACTORS
330
908
102
}
330
908
100
AcDbVisualStyle
  2
Brighten
 70
    12
177
     3
291
     1
 70
    58
 90
        2
176
     1
 90
        2
176
     1
 90
        0
176
     1
 90
        0
176
     1
 40
0.6
176
     1
 40
30.0
176
     1
 62
     7
420
 16777215
176
     1
 90
        1
176
     1
 90
        4
176
     1
 62
     7
176
     1
 62
   257
176
     1
 90
        1
176
     1
 90
        1
176
     1
 40
1.0
176
     1
 90
        8
176
     1
 62
     7
176
     1
 40
1.0
176
     1
 90
        1
176
     1
 90
        6
176
     1
 90
        2
176
     1
 62
     7
176
     1
 90
        5
176
     1
 90
        0
176
     1
 90
        0
176
     1
290
     0
176
     1
 90
        1
176
     1
 40
50.0
176
     1
 90
        0
176
     1
290
     0
176
     1
290
     1
176
     1
290
     1
176
     1
290
     0
176
     1
290
     0
176
     1
290
     0
176
     1
290
     0
176
     1
290
     0
176
     1
290
     0
176
     1
 90
       50
176
     1
 40
0.0
176
     1
 40
1.0
176
     1
 90
        0
176
     1
 62
    18
420
        0
176
     1
 90
       50
176
     1
 90
        3
176
     1
 62
     5
420
      255
176
     1
290
     0
176
     1
 90
       50
176
     1
 90
       50
176
     1
 90
       50
176
     1
290
     0
176
     1
 90
       50
176
     1
 62
   256
176
     0
 40
1.0
176
     0
 90
        2
176
     1
  1
strokes_ogs.tif
176
     1
290
     0
176
     1
 40
1.0
176
     1
 40
1.0
176
     1
  0
VISUALSTYLE
  5
918
102
{ACAD_REACTORS
330
908
102
}
330
908
100
AcDbVisualStyle
  2
ColorChange
 70
    16
177
     3
291
     1
 70
    58
 90
        2
176
     1
 90
        2
176
     1
 90
        3
176
     1
 90
        0
176
     1
 40
0.6
176
     1
 40
30.0
176
     1
 62
     8
420
  8421504
176
     1
 90
        1
176
     1
 90
        4
176
     1
 62
     7
176
     1
 62
   257
176
     1
 90
        1
176
     1
 90
        1
176
     1
 40
1.0
176
     1
 90
        8
176
     1
 62
     8
420
  8421504
176
     1
 40
1.0
176
     1
 90
        1
176
     1
 90
        6
176
     1
 90
        2
176
     1
 62
     7
176
     1
 90
        5
176
     1
 90
        0
176
     1
 90
        0
176
     1
290
     0
176
     1
 90
        1
176
     1
 40
0.0
176
     1
 90
        0
176
     1
290
     0
176
     1
290
     1
176
     1
290
     1
176
     1
290
     0
176
     1
290
     0
176
     1
290
     0
176
     1
290
     0
176
     1
290
     0
176
     1
290
     0
176
     1
 90
       50
176
     1
 40
0.0
176
     1
 40
1.0
176
     1
 90
        0
176
     1
 62
    18
420
        0
176
     1
 90
       50
176
     1
 90
        3
176
     1
 62
     5
420
      255
176
     1
290
     0
176
     1
 90
       50
176
     1
 90
       50
176
     1
 90
       50
176
     1
290
     0
176
     1
 90
       50
176
     1
 62
   256
176
     0
 40
1.0
176
     0
 90
        2
176
     1
  1
strokes_ogs.tif
176
     1
290
     0
176
     1
 40
1.0
176
     1
 40
1.0
176
     1
  0
VISUALSTYLE
  5
911
102
{ACAD_REACTORS
330
908
102
}
330
908
100
AcDbVisualStyle
  2
Conceptual
 70
     9
177
     3
291
     0
 70
    58
 90
        3
176
     1
 90
        2
176
     1
 90
        0
176
     1
 90
        0
176
     1
 40
0.6
176
     1
 40
30.0
176
     1
 62
     7
420
 16777215
176
     1
 90
        2
176
     1
 90
        2
176
     1
 62
     7
176
     1
 62
   257
176
     1
 90
        1
176
     1
 90
        1
176
     1
 40
179.0
176
     1
 90
        8
176
     1
 62
     7
176
     1
 40
1.0
176
     1
 90
        1
176
     1
 90
        6
176
     1
 90
        2
176
     1
 62
     7
176
     1
 90
        3
176
     1
 90
        0
176
     1
 90
        0
176
     1
290
     0
176
     1
 90
        1
176
     1
 40
0.0
176
     1
 90
        0
176
     1
290
     0
176
     1
290
     1
176
     1
290
     1
176
     1
290
     0
176
     1
290
     0
176
     1
290
     0
176
     1
290
     0
176
     1
290
     0
176
     1
290
     0
176
     1
 90
       50
176
     1
 40
0.0
176
     1
 40
1.0
176
     1
 90
        0
176
     1
 62
    18
420
        0
176
     1
 90
       50
176
     1
 90
        3
176
     1
 62
     5
420
      255
176
     1
290
     0
176
     1
 90
       50
176
     1
 90
       50
176
     1
 90
       50
176
     1
290
     0
176
     1
 90
       50
176
     1
 62
   256
176
     0
 40
1.0
176
     0
 90
        2
176
     1
  1
strokes_ogs.tif
176
     1
290
     0
176
     1
 40
1.0
176
     1
 40
1.0
176
     1
  0
VISUALSTYLE
  5
913
102
{ACAD_REACTORS
330
908
102
}
330
908
100
AcDbVisualStyle
  2
Dim
 70
    11
177
     3
291
     1
 70
    58
 90
        2
176
     1
 90
        2
176
     1
 90
        0
176
     1
 90
        0
176
     1
 40
0.6
176
     1
 40
30.0
176
     1
 62
     7
420
 16777215
176
     1
 90
        1
176
     1
 90
        4
176
     1
 62
     7
176
     1
 62
   257
176
     1
 90
        1
176
     1
 90
        1
176
     1
 40
1.0
176
     1
 90
        8
176
     1
 62
     7
176
     1
 40
1.0
176
     1
 90
        1
176
     1
 90
        6
176
     1
 90
        2
176
     1
 62
     7
176
     1
 90
        5
176
     1
 90
        0
176
     1
 90
        0
176
     1
290
     0
176
     1
 90
        1
176
     1
 40
-50.0
176
     1
 90
        0
176
     1
290
     0
176
     1
290
     1
176
     1
290
     1
176
     1
290
     0
176
     1
290
     0
176
     1
290
     0
176
     1
290
     0
176
     1
290
     0
176
     1
290
     0
176
     1
 90
       50
176
     1
 40
0.0
176
     1
 40
1.0
176
     1
 90
        0
176
     1
 62
    18
420
        0
176
     1
 90
       50
176
     1
 90
        3
176
     1
 62
     5
420
      255
176
     1
290
     0
176
     1
 90
       50
176
     1
 90
       50
176
     1
 90
       50
176
     1
290
     0
176
     1
 90
       50
176
     1
 62
   256
176
     0
 40
1.0
176
     0
 90
        2
176
     1
  1
strokes_ogs.tif
176
     1
290
     0
176
     1
 40
1.0
176
     1
 40
1.0
176
     1
  0
VISUALSTYLE
  5
920
102
{ACAD_REACTORS
330
908
102
}
330
908
100
AcDbVisualStyle
  2
EdgeColorOff
 70
    22
177
     3
291
     1
 70
    58
 90
        2
176
     0
 90
        2
176
     0
 90
        0
176
     0
 90
        0
176
     0
 40
0.6
176
     0
 40
30.0
176
     0
 62
     7
420
 16777215
176
     0
 90
        1
176
     0
 90
        4
176
     0
 62
     7
176
     0
 62
   257
176
     0
 90
        1
176
     0
 90
        1
176
     0
 40
1.0
176
     0
 90
        8
176
     2
 62
     7
176
     0
 40
1.0
176
     0
 90
        1
176
     0
 90
        6
176
     0
 90
        2
176
     0
 62
     7
176
     0
 90
        5
176
     0
 90
        0
176
     0
 90
        0
176
     0
290
     0
176
     0
 90
        1
176
     0
 40
0.0
176
     0
 90
        0
176
     0
290
     0
176
     1
290
     1
176
     1
290
     1
176
     1
290
     0
176
     1
290
     0
176
     1
290
     0
176
     1
290
     0
176
     1
290
     0
176
     1
290
     0
176
     1
 90
       50
176
     0
 40
0.0
176
     0
 40
1.0
176
     0
 90
        0
176
     0
 62
    18
420
        0
176
     0
 90
       50
176
     0
 90
        3
176
     0
 62
     5
420
      255
176
     0
290
     0
176
     1
 90
       50
176
     0
 90
       50
176
     0
 90
       50
176
     0
290
     0
176
     1
 90
       50
176
     0
 62
   256
176
     0
 40
1.0
176
     0
 90
        2
176
     0
  1
strokes_ogs.tif
176
     0
290
     0
176
     1
 40
1.0
176
     0
 40
1.0
176
     0
  0
VISUALSTYLE
  5
917
102
{ACAD_REACTORS
330
908
102
}
330
908
100
AcDbVisualStyle
  2
Facepattern
 70
    15
177
     3
291
     1
 70
    58
 90
        2
176
     1
 90
        2
176
     1
 90
        0
176
     1
 90
        0
176
     1
 40
0.6
176
     1
 40
30.0
176
     1
 62
     7
420
 16777215
176
     1
 90
        1
176
     1
 90
        4
176
     1
 62
     7
176
     1
 62
   257
176
     1
 90
        1
176
     1
 90
        1
176
     1
 40
1.0
176
     1
 90
        8
176
     1
 62
     7
176
     1
 40
1.0
176
     1
 90
        1
176
     1
 90
        6
176
     1
 90
        2
176
     1
 62
     7
176
     1
 90
        5
176
     1
 90
        0
176
     1
 90
        0
176
     1
290
     0
176
     1
 90
        1
176
     1
 40
0.0
176
     1
 90
        0
176
     1
290
     0
176
     1
290
     1
176
     1
290
     1
176
     1
290
     0
176
     1
290
     0
176
     1
290
     0
176
     1
290
     0
176
     1
290
     0
176
     1
290
     0
176
     1
 90
       50
176
     1
 40
0.0
176
     1
 40
1.0
176
     1
 90
        0
176
     1
 62
    18
420
        0
176
     1
 90
       50
176
     1
 90
        3
176
     1
 62
     5
420
      255
176
     1
290
     0
176
     1
 90
       50
176
     1
 90
       50
176
     1
 90
       50
176
     1
290
     0
176
     1
 90
       50
176
     1
 62
   256
176
     0
 40
1.0
176
     0
 90
        2
176
     1
  1
strokes_ogs.tif
176
     1
290
     0
176
     1
 40
1.0
176
     1
 40
1.0
176
     1
  0
VISUALSTYLE
  5
909
102
{ACAD_REACTORS
330
908
102
}
330
908
100
AcDbVisualStyle
  2
Flat
 70
     0
177
     3
291
     1
 70
    58
 90
        2
176
     1
 90
        1
176
     1
 90
        1
176
     1
 90
        2
176
     1
 40
0.6
176
     1
 40
30.0
176
     1
 62
     7
420
 16777215
176
     1
 90
        0
176
     1
 90
        0
176
     1
 62
     7
176
     1
 62
   257
176
     1
 90
        1
176
     1
 90
        1
176
     1
 40
1.0
176
     1
 90
        8
176
     1
 62
     7
176
     1
 40
1.0
176
     1
 90
        1
176
     1
 90
        6
176
     1
 90
        2
176
     1
 62
     7
176
     1
 90
        5
176
     1
 90
        0
176
     1
 90
        0
176
     1
290
     0
176
     1
 90
       13
176
     1
 40
0.0
176
     1
 90
        0
176
     1
290
     0
176
     1
290
     1
176
     1
290
     1
176
     1
290
     0
176
     1
290
     0
176
     1
290
     0
176
     1
290
     0
176
     1
290
     0
176
     1
290
     0
176
     1
 90
       50
176
     1
 40
0.0
176
     1
 40
1.0
176
     1
 90
        0
176
     1
 62
    18
420
        0
176
     1
 90
       50
176
     1
 90
        3
176
     1
 62
     5
420
      255
176
     1
290
     0
176
     1
 90
       50
176
     1
 90
       50
176
     1
 90
       50
176
     1
290
     0
176
     1
 90
       50
176
     1
 62
   256
176
     0
 40
1.0
176
     0
 90
        2
176
     1
  1
strokes_ogs.tif
176
     1
290
     0
176
     1
 40
1.0
176
     1
 40
1.0
176
     1
  0
VISUALSTYLE
  5
90A
102
{ACAD_REACTORS
330
908
102
}
330
908
100
AcDbVisualStyle
  2
FlatWithEdges
 70
     1
177
     3
291
     1
 70
    58
 90
        2
176
     1
 90
        1
176
     1
 90
        1
176
     1
 90
        2
176
     1
 40
0.6
176
     1
 40
30.0
176
     1
 62
     7
420
 16777215
176
     1
 90
        1
176
     1
 90
        0
176
     1
 62
     7
176
     1
 62
   257
176
     1
 90
        1
176
     1
 90
        1
176
     1
 40
1.0
176
     1
 90
        0
176
     1
 62
   257
176
     1
 40
1.0
176
     1
 90
        1
176
     1
 90
        6
176
     1
 90
        2
176
     1
 62
     7
176
     1
 90
        5
176
     1
 90
        0
176
     1
 90
        0
176
     1
290
     0
176
     1
 90
       13
176
     1
 40
0.0
176
     1
 90
        0
176
     1
290
     0
176
     1
290
     1
176
     1
290
     1
176
     1
290
     0
176
     1
290
     0
176
     1
290
     0
176
     1
290
     0
176
     1
290
     0
176
     1
290
     0
176
     1
 90
       50
176
     1
 40
0.0
176
     1
 40
1.0
176
     1
 90
        0
176
     1
 62
    18
420
        0
176
     1
 90
       50
176
     1
 90
        3
176
     1
 62
     5
420
      255
176
     1
290
     0
176
     1
 90
       50
176
     1
 90
       50
176
     1
 90
       50
176
     1
290
     0
176
     1
 90
       50
176
     1
 62
   256
176
     0
 40
1.0
176
     0
 90
        2
176
     1
  1
strokes_ogs.tif
176
     1
290
     0
176
     1
 40
1.0
176
     1
 40
1.0
176
     1
  0
VISUALSTYLE
  5
90B
102
{ACAD_REACTORS
330
908
102
}
330
908
100
AcDbVisualStyle
  2
Gouraud
 70
     2
177
     3
291
     1
 70
    58
 90
        2
176
     1
 90
        2
176
     1
 90
        1
176
     1
 90
        2
176
     1
 40
0.6
176
     1
 40
30.0
176
     1
 62
     7
420
 16777215
176
     1
 90
        0
176
     1
 90
        0
176
     1
 62
     7
176
     1
 62
   257
176
     1
 90
        1
176
     1
 90
        1
176
     1
 40
1.0
176
     1
 90
        0
176
     1
 62
     7
176
     1
 40
1.0
176
     1
 90
        1
176
     1
 90
        6
176
     1
 90
        2
176
     1
 62
     7
176
     1
 90
        5
176
     1
 90
        0
176
     1
 90
        0
176
     1
290
     0
176
     1
 90
       13
176
     1
 40
0.0
176
     1
 90
        0
176
     1
290
     0
176
     1
290
     1
176
     1
290
     1
176
     1
290
     0
176
     1
290
     0
176
     1
290
     0
176
     1
290
     0
176
     1
290
     0
176
     1
290
     0
176
     1
 90
       50
176
     1
 40
0.0
176
     1
 40
1.0
176
     1
 90
        0
176
     1
 62
    18
420
        0
176
     1
 90
       50
176
     1
 90
        3
176
     1
 62
     5
420
      255
176
     1
290
     0
176
     1
 90
       50
176
     1
 90
       50
176
     1
 90
       50
176
     1
290
     0
176
     1
 90
       50
176
     1
 62
   256
176
     0
 40
1.0
176
     0
 90
        2
176
     1
  1
strokes_ogs.tif
176
     1
290
     0
176
     1
 40
1.0
176
     1
 40
1.0
176
     1
  0
VISUALSTYLE
  5
90C
102
{ACAD_REACTORS
330
908
102
}
330
908
100
AcDbVisualStyle
  2
GouraudWithEdges
 70
     3
177
     3
291
     1
 70
    58
 90
        2
176
     1
 90
        2
176
     1
 90
        1
176
     1
 90
        2
176
     1
 40
0.6
176
     1
 40
30.0
176
     1
 62
     7
420
 16777215
176
     1
 90
        1
176
     1
 90
        0
176
     1
 62
     7
176
     1
 62
   257
176
     1
 90
        1
176
     1
 90
        1
176
     1
 40
1.0
176
     1
 90
        0
176
     1
 62
   257
176
     1
 40
1.0
176
     1
 90
        1
176
     1
 90
        6
176
     1
 90
        2
176
     1
 62
     7
176
     1
 90
        5
176
     1
 90
        0
176
     1
 90
        0
176
     1
290
     0
176
     1
 90
       13
176
     1
 40
0.0
176
     1
 90
        0
176
     1
290
     0
176
     1
290
     1
176
     1
290
     1
176
     1
290
     0
176
     1
290
     0
176
     1
290
     0
176
     1
290
     0
176
     1
290
     0
176
     1
290
     0
176
     1
 90
       50
176
     1
 40
0.0
176
     1
 40
1.0
176
     1
 90
        0
176
     1
 62
    18
420
        0
176
     1
 90
       50
176
     1
 90
        3
176
     1
 62
     5
420
      255
176
     1
290
     0
176
     1
 90
       50
176
     1
 90
       50
176
     1
 90
       50
176
     1
290
     0
176
     1
 90
       50
176
     1
 62
   256
176
     0
 40
1.0
176
     0
 90
        2
176
     1
  1
strokes_ogs.tif
176
     1
290
     0
176
     1
 40
1.0
176
     1
 40
1.0
176
     1
  0
VISUALSTYLE
  5
910
102
{ACAD_REACTORS
330
908
102
}
330
908
100
AcDbVisualStyle
  2
Hidden
 70
     6
177
     3
291
     0
 70
    58
 90
        1
176
     1
 90
        2
176
     1
 90
        2
176
     1
 90
        0
176
     1
 40
0.6
176
     1
 40
30.0
176
     1
 62
     7
420
 16777215
176
     1
 90
        2
176
     1
 90
        2
176
     1
 62
     7
176
     1
 62
   257
176
     1
 90
        2
176
     1
 90
        1
176
     1
 40
40.0
176
     1
 90
        0
176
     1
 62
   257
176
     1
 40
1.0
176
     1
 90
        1
176
     1
 90
        6
176
     1
 90
        2
176
     1
 62
     7
176
     1
 90
        3
176
     1
 90
        0
176
     1
 90
        0
176
     1
290
     0
176
     1
 90
        1
176
     1
 40
0.0
176
     1
 90
        0
176
     1
290
     0
176
     1
290
     1
176
     1
290
     1
176
     1
290
     0
176
     1
290
     0
176
     1
290
     0
176
     1
290
     0
176
     1
290
     0
176
     1
290
     0
176
     1
 90
       50
176
     1
 40
0.0
176
     1
 40
1.0
176
     1
 90
        0
176
     1
 62
    18
420
        0
176
     1
 90
       50
176
     1
 90
        3
176
     1
 62
     5
420
      255
176
     1
290
     0
176
     1
 90
       50
176
     1
 90
       50
176
     1
 90
       50
176
     1
290
     0
176
     1
 90
       50
176
     1
 62
   256
176
     0
 40
1.0
176
     0
 90
        2
176
     1
  1
strokes_ogs.tif
176
     1
290
     0
176
     1
 40
1.0
176
     1
 40
1.0
176
     1
  0
VISUALSTYLE
  5
91E
102
{ACAD_REACTORS
330
908
102
}
330
908
100
AcDbVisualStyle
  2
JitterOff
 70
    20
177
     3
291
     1
 70
    58
 90
        2
176
     0
 90
        2
176
     0
 90
        0
176
     0
 90
        0
176
     0
 40
0.6
176
     0
 40
30.0
176
     0
 62
     7
420
 16777215
176
     0
 90
        1
176
     0
 90
        4
176
     0
 62
     7
176
     0
 62
   257
176
     0
 90
        1
176
     0
 90
        1
176
     0
 40
1.0
176
     0
 90
       10
176
     2
 62
     7
176
     0
 40
1.0
176
     0
 90
        1
176
     0
 90
        6
176
     0
 90
        2
176
     0
 62
     7
176
     0
 90
        5
176
     0
 90
        0
176
     0
 90
        0
176
     0
290
     0
176
     0
 90
        1
176
     0
 40
0.0
176
     0
 90
        0
176
     0
290
     0
176
     1
290
     1
176
     1
290
     1
176
     1
290
     0
176
     1
290
     0
176
     1
290
     0
176
     1
290
     0
176
     1
290
     0
176
     1
290
     0
176
     1
 90
       50
176
     0
 40
0.0
176
     0
 40
1.0
176
     0
 90
        0
176
     0
 62
    18
420
        0
176
     0
 90
       50
176
     0
 90
        3
176
     0
 62
     5
420
      255
176
     0
290
     0
176
     1
 90
       50
176
     0
 90
       50
176
     0
 90
       50
176
     0
290
     0
176
     1
 90
       50
176
     0
 62
   256
176
     0
 40
1.0
176
     0
 90
        2
176
     0
  1
strokes_ogs.tif
176
     0
290
     0
176
     1
 40
1.0
176
     0
 40
1.0
176
     0
  0
VISUALSTYLE
  5
916
102
{ACAD_REACTORS
330
908
102
}
330
908
100
AcDbVisualStyle
  2
Linepattern
 70
    14
177
     3
291
     1
 70
    58
 90
        2
176
     1
 90
        2
176
     1
 90
        0
176
     1
 90
        0
176
     1
 40
0.6
176
     1
 40
30.0
176
     1
 62
     7
420
 16777215
176
     1
 90
        1
176
     1
 90
        4
176
     1
 62
     7
176
     1
 62
   257
176
     1
 90
        7
176
     1
 90
        7
176
     1
 40
1.0
176
     1
 90
        8
176
     1
 62
     7
176
     1
 40
1.0
176
     1
 90
        1
176
     1
 90
        6
176
     1
 90
        2
176
     1
 62
     7
176
     1
 90
        5
176
     1
 90
        0
176
     1
 90
        0
176
     1
290
     0
176
     1
 90
        1
176
     1
 40
0.0
176
     1
 90
        0
176
     1
290
     0
176
     1
290
     1
176
     1
290
     1
176
     1
290
     0
176
     1
290
     0
176
     1
290
     0
176
     1
290
     0
176
     1
290
     0
176
     1
290
     0
176
     1
 90
       50
176
     1
 40
0.0
176
     1
 40
1.0
176
     1
 90
        0
176
     1
 62
    18
420
        0
176
     1
 90
       50
176
     1
 90
        3
176
     1
 62
     5
420
      255
176
     1
290
     0
176
     1
 90
       50
176
     1
 90
       50
176
     1
 90
       50
176
     1
290
     0
176
     1
 90
       50
176
     1
 62
   256
176
     0
 40
1.0
176
     0
 90
        2
176
     1
  1
strokes_ogs.tif
176
     1
290
     0
176
     1
 40
1.0
176
     1
 40
1.0
176
     1
  0
VISUALSTYLE
  5
91F
102
{ACAD_REACTORS
330
908
102
}
330
908
100
AcDbVisualStyle
  2
OverhangOff
 70
    21
177
     3
291
     1
 70
    58
 90
        2
176
     0
 90
        2
176
     0
 90
        0
176
     0
 90
        0
176
     0
 40
0.6
176
     0
 40
30.0
176
     0
 62
     7
420
 16777215
176
     0
 90
        1
176
     0
 90
        4
176
     0
 62
     7
176
     0
 62
   257
176
     0
 90
        1
176
     0
 90
        1
176
     0
 40
1.0
176
     0
 90
        9
176
     2
 62
     7
176
     0
 40
1.0
176
     0
 90
        1
176
     0
 90
        6
176
     0
 90
        2
176
     0
 62
     7
176
     0
 90
        5
176
     0
 90
        0
176
     0
 90
        0
176
     0
290
     0
176
     0
 90
        1
176
     0
 40
0.0
176
     0
 90
        0
176
     0
290
     0
176
     1
290
     1
176
     1
290
     1
176
     1
290
     0
176
     1
290
     0
176
     1
290
     0
176
     1
290
     0
176
     1
290
     0
176
     1
290
     0
176
     1
 90
       50
176
     0
 40
0.0
176
     0
 40
1.0
176
     0
 90
        0
176
     0
 62
    18
420
        0
176
     0
 90
       50
176
     0
 90
        3
176
     0
 62
     5
420
      255
176
     0
290
     0
176
     1
 90
       50
176
     0
 90
       50
176
     0
 90
       50
176
     0
290
     0
176
     1
 90
       50
176
     0
 62
   256
176
     0
 40
1.0
176
     0
 90
        2
176
     0
  1
strokes_ogs.tif
176
     0
290
     0
176
     1
 40
1.0
176
     0
 40
1.0
176
     0
  0
VISUALSTYLE
  5
912
102
{ACAD_REACTORS
330
908
102
}
330
908
100
AcDbVisualStyle
  2
Realistic
 70
     8
177
     3
291
     0
 70
    58
 90
        2
176
     1
 90
        3
176
     1
 90
        0
176
     1
 90
        2
176
     1
 40
0.6
176
     1
 40
30.0
176
     1
 62
     7
420
 16777215
176
     1
 90
        0
176
     1
 90
        0
176
     1
 62
     7
176
     1
 62
   257
176
     1
 90
        1
176
     1
 90
        1
176
     1
 40
1.0
176
     1
 90
        8
176
     1
 62
   257
176
     1
 40
1.0
176
     1
 90
        1
176
     1
 90
        6
176
     1
 90
        2
176
     1
 62
     7
176
     1
 90
        3
176
     1
 90
        0
176
     1
 90
        0
176
     1
290
     0
176
     1
 90
       13
176
     1
 40
0.0
176
     1
 90
        0
176
     1
290
     0
176
     1
290
     1
176
     1
290
     1
176
     1
290
     0
176
     1
290
     0
176
     1
290
     0
176
     1
290
     0
176
     1
290
     0
176
     1
290
     0
176
     1
 90
       50
176
     1
 40
0.0
176
     1
 40
1.0
176
     1
 90
        0
176
     1
 62
    18
420
        0
176
     1
 90
       50
176
     1
 90
        3
176
     1
 62
     5
420
      255
176
     1
290
     0
176
     1
 90
       50
176
     1
 90
       50
176
     1
 90
       50
176
     1
290
     0
176
     1
 90
       50
176
     1
 62
   256
176
     0
 40
1.0
176
     0
 90
        2
176
     1
  1
strokes_ogs.tif
176
     1
290
     0
176
     1
 40
1.0
176
     1
 40
1.0
176
     1
  0
VISUALSTYLE
  5
91D
102
{ACAD_REACTORS
330
908
102
}
330
908
100
AcDbVisualStyle
  2
Shaded
 70
    27
177
     3
291
     0
 70
    58
 90
        2
176
     1
 90
        2
176
     1
 90
        1
176
     1
 90
        2
176
     1
 40
0.6
176
     1
 40
30.0
176
     1
 62
     7
420
 16777215
176
     1
 90
        0
176
     1
 90
        4
176
     1
 62
     7
176
     1
 62
   257
176
     1
 90
        1
176
     1
 90
        1
176
     1
 40
1.0
176
     1
 90
        8
176
     1
 62
   257
176
     1
 40
1.0
176
     1
 90
        1
176
     1
 90
        6
176
     1
 90
        2
176
     1
 62
     8
420
  7895160
176
     1
 90
        3
176
     1
 90
        0
176
     1
 90
        0
176
     1
290
     0
176
     1
 90
        5
176
     1
 40
0.0
176
     1
 90
        0
176
     1
290
     0
176
     1
290
     1
176
     1
290
     1
176
     1
290
     0
176
     1
290
     0
176
     1
290
     0
176
     1
290
     0
176
     1
290
     0
176
     1
290
     0
176
     1
 90
       50
176
     1
 40
0.0
176
     1
 40
1.0
176
     1
 90
        0
176
     1
 62
    18
420
        0
176
     1
 90
       50
176
     1
 90
        3
176
     1
 62
     5
420
      255
176
     1
290
     0
176
     1
 90
       50
176
     1
 90
       50
176
     1
 90
       50
176
     1
290
     0
176
     1
 90
       50
176
     1
 62
   256
176
     0
 40
1.0
176
     0
 90
        2
176
     1
  1
strokes_ogs.tif
176
     1
290
     0
176
     1
 40
1.0
176
     1
 40
1.0
176
     1
  0
VISUALSTYLE
  5
91C
102
{ACAD_REACTORS
330
908
102
}
330
908
100
AcDbVisualStyle
  2
Shaded with edges
 70
    26
177
     3
291
     0
 70
    58
 90
        2
176
     1
 90
        2
176
     1
 90
        1
176
     1
 90
        2
176
     1
 40
0.6
176
     1
 40
30.0
176
     1
 62
     7
420
 16777215
176
     1
 90
        1
176
     1
 90
        2
176
     1
 62
     7
176
     1
 62
   257
176
     1
 90
        2
176
     1
 90
        1
176
     1
 40
1.0
176
     1
 90
        8
176
     1
 62
   257
176
     1
 40
1.0
176
     1
 90
        1
176
     1
 90
        6
176
     1
 90
        2
176
     1
 62
     7
176
     1
 90
        3
176
     1
 90
        0
176
     1
 90
        0
176
     1
290
     0
176
     1
 90
        5
176
     1
 40
0.0
176
     1
 90
        0
176
     1
290
     0
176
     1
290
     1
176
     1
290
     1
176
     1
290
     0
176
     1
290
     0
176
     1
290
     0
176
     1
290
     0
176
     1
290
     0
176
     1
290
     0
176
     1
 90
       50
176
     1
 40
0.0
176
     1
 40
1.0
176
     1
 90
        0
176
     1
 62
    18
420
        0
176
     1
 90
       50
176
     1
 90
        3
176
     1
 62
     5
420
      255
176
     1
290
     0
176
     1
 90
       50
176
     1
 90
       50
176
     1
 90
       50
176
     1
290
     0
176
     1
 90
       50
176
     1
 62
   256
176
     0
 40
1.0
176
     0
 90
        2
176
     1
  1
strokes_ogs.tif
176
     1
290
     0
176
     1
 40
1.0
176
     1
 40
1.0
176
     1
  0
VISUALSTYLE
  5
919
102
{ACAD_REACTORS
330
908
102
}
330
908
100
AcDbVisualStyle
  2
Shades of Gray
 70
    23
177
     3
291
     0
 70
    58
 90
        2
176
     1
 90
        2
176
     1
 90
        3
176
     1
 90
        0
176
     1
 40
0.6
176
     1
 40
30.0
176
     1
 62
     7
420
 16777215
176
     1
 90
        2
176
     1
 90
        2
176
     1
 62
     7
176
     1
 62
     7
176
     1
 90
        1
176
     1
 90
        1
176
     1
 40
40.0
176
     1
 90
        8
176
     1
 62
     7
176
     1
 40
1.0
176
     1
 90
        1
176
     1
 90
        6
176
     1
 90
        2
176
     1
 62
     7
176
     1
 90
        3
176
     1
 90
        0
176
     1
 90
        0
176
     1
290
     0
176
     1
 90
        1
176
     1
 40
0.0
176
     1
 90
        0
176
     1
290
     0
176
     1
290
     1
176
     1
290
     1
176
     1
290
     0
176
     1
290
     0
176
     1
290
     0
176
     1
290
     0
176
     1
290
     0
176
     1
290
     0
176
     1
 90
       50
176
     1
 40
0.0
176
     1
 40
1.0
176
     1
 90
        0
176
     1
 62
    18
420
        0
176
     1
 90
       50
176
     1
 90
        3
176
     1
 62
     5
420
      255
176
     1
290
     0
176
     1
 90
       50
176
     1
 90
       50
176
     1
 90
       50
176
     1
290
     0
176
     1
 90
       50
176
     1
 62
   256
176
     0
 40
1.0
176
     0
 90
        2
176
     1
  1
strokes_ogs.tif
176
     1
290
     0
176
     1
 40
1.0
176
     1
 40
1.0
176
     1
  0
VISUALSTYLE
  5
91A
102
{ACAD_REACTORS
330
908
102
}
330
908
100
AcDbVisualStyle
  2
Sketchy
 70
    24
177
     3
291
     0
 70
    58
 90
        1
176
     1
 90
        2
176
     1
 90
        2
176
     1
 90
        0
176
     1
 40
0.6
176
     1
 40
30.0
176
     1
 62
     7
420
 16777215
176
     1
 90
        2
176
     1
 90
        2
176
     1
 62
     7
176
     1
 62
     7
176
     1
 90
        1
176
     1
 90
        1
176
     1
 40
40.0
176
     1
 90
       11
176
     1
 62
     7
176
     1
 40
1.0
176
     1
 90
        1
176
     1
 90
        6
176
     1
 90
        2
176
     1
 62
     7
176
     1
 90
        6
176
     1
 90
        0
176
     1
 90
        0
176
     1
290
     0
176
     1
 90
        1
176
     1
 40
0.0
176
     1
 90
        0
176
     1
290
     0
176
     1
290
     1
176
     1
290
     1
176
     1
290
     0
176
     1
290
     0
176
     1
290
     0
176
     1
290
     0
176
     1
290
     0
176
     1
290
     0
176
     1
 90
       50
176
     1
 40
0.0
176
     1
 40
1.0
176
     1
 90
        0
176
     1
 62
    18
420
        0
176
     1
 90
       50
176
     1
 90
        3
176
     1
 62
     5
420
      255
176
     1
290
     0
176
     1
 90
       50
176
     1
 90
       50
176
     1
 90
       50
176
     1
290
     0
176
     1
 90
       50
176
     1
 62
   256
176
     0
 40
1.0
176
     0
 90
        2
176
     1
  1
strokes_ogs.tif
176
     1
290
     0
176
     1
 40
1.0
176
     1
 40
1.0
176
     1
  0
VISUALSTYLE
  5
915
102
{ACAD_REACTORS
330
908
102
}
330
908
100
AcDbVisualStyle
  2
Thicken
 70
    13
177
     3
291
     1
 70
    58
 90
        2
176
     1
 90
        2
176
     1
 90
        0
176
     1
 90
        0
176
     1
 40
0.6
176
     1
 40
30.0
176
     1
 62
     7
420
 16777215
176
     1
 90
        1
176
     1
 90
        4
176
     1
 62
     7
176
     1
 62
   257
176
     1
 90
        1
176
     1
 90
        1
176
     1
 40
1.0
176
     1
 90
       12
176
     1
 62
     7
176
     1
 40
1.0
176
     1
 90
        1
176
     1
 90
        6
176
     1
 90
        2
176
     1
 62
     7
176
     1
 90
        5
176
     1
 90
        0
176
     1
 90
        0
176
     1
290
     0
176
     1
 90
        1
176
     1
 40
0.0
176
     1
 90
        0
176
     1
290
     0
176
     1
290
     1
176
     1
290
     1
176
     1
290
     0
176
     1
290
     0
176
     1
290
     0
176
     1
290
     0
176
     1
290
     0
176
     1
290
     0
176
     1
 90
       50
176
     1
 40
0.0
176
     1
 40
1.0
176
     1
 90
        0
176
     1
 62
    18
420
        0
176
     1
 90
       50
176
     1
 90
        3
176
     1
 62
     5
420
      255
176
     1
290
     0
176
     1
 90
       50
176
     1
 90
       50
176
     1
 90
       50
176
     1
290
     0
176
     1
 90
       50
176
     1
 62
   256
176
     0
 40
1.0
176
     0
 90
        2
176
     1
  1
strokes_ogs.tif
176
     1
290
     0
176
     1
 40
1.0
176
     1
 40
1.0
176
     1
  0
VISUALSTYLE
  5
90F
102
{ACAD_REACTORS
330
908
102
}
330
908
100
AcDbVisualStyle
  2
Wireframe
 70
     5
177
     3
291
     0
 70
    58
 90
        0
176
     1
 90
        2
176
     1
 90
        0
176
     1
 90
        0
176
     1
 40
0.6
176
     1
 40
30.0
176
     1
 62
     7
420
 16777215
176
     1
 90
        1
176
     1
 90
        4
176
     1
 62
     7
176
     1
 62
   257
176
     1
 90
        1
176
     1
 90
        1
176
     1
 40
1.0
176
     1
 90
        0
176
     1
 62
   257
176
     1
 40
1.0
176
     1
 90
        1
176
     1
 90
        6
176
     1
 90
        2
176
     1
 62
     7
176
     1
 90
        3
176
     1
 90
        0
176
     1
 90
        0
176
     1
290
     0
176
     1
 90
        1
176
     1
 40
0.0
176
     1
 90
        0
176
     1
290
     0
176
     1
290
     1
176
     1
290
     1
176
     1
290
     0
176
     1
290
     0
176
     1
290
     0
176
     1
290
     0
176
     1
290
     0
176
     1
290
     0
176
     1
 90
       50
176
     1
 40
0.0
176
     1
 40
1.0
176
     1
 90
        0
176
     1
 62
    18
420
        0
176
     1
 90
       50
176
     1
 90
        3
176
     1
 62
     5
420
      255
176
     1
290
     0
176
     1
 90
       50
176
     1
 90
       50
176
     1
 90
       50
176
     1
290
     0
176
     1
 90
       50
176
     1
 62
   256
176
     0
 40
1.0
176
     0
 90
        2
176
     1
  1
strokes_ogs.tif
176
     1
290
     0
176
     1
 40
1.0
176
     1
 40
1.0
176
     1
  0
VISUALSTYLE
  5
91B
102
{ACAD_REACTORS
330
908
102
}
330
908
100
AcDbVisualStyle
  2
X-Ray
 70
    25
177
     3
291
     0
 70
    58
 90
        2
176
     1
 90
        2
176
     1
 90
        1
176
     1
 90
        1
176
     1
 40
0.5
176
     1
 40
30.0
176
     1
 62
     7
420
 16777215
176
     1
 90
        1
176
     1
 90
        0
176
     1
 62
     7
176
     1
 62
   257
176
     1
 90
        1
176
     1
 90
        1
176
     1
 40
1.0
176
     1
 90
        8
176
     1
 62
     7
176
     1
 40
1.0
176
     1
 90
        1
176
     1
 90
        6
176
     1
 90
        2
176
     1
 62
     7
176
     1
 90
        3
176
     1
 90
        0
176
     1
 90
        0
176
     1
290
     0
176
     1
 90
       13
176
     1
 40
0.0
176
     1
 90
        0
176
     1
290
     0
176
     1
290
     1
176
     1
290
     1
176
     1
290
     0
176
     1
290
     0
176
     1
290
     0
176
     1
290
     0
176
     1
290
     0
176
     1
290
     0
176
     1
 90
       50
176
     1
 40
0.0
176
     1
 40
1.0
176
     1
 90
        0
176
     1
 62
    18
420
        0
176
     1
 90
       50
176
     1
 90
        3
176
     1
 62
     5
420
      255
176
     1
290
     0
176
     1
 90
       50
176
     1
 90
       50
176
     1
 90
       50
176
     1
290
     0
176
     1
 90
       50
176
     1
 62
   256
176
     0
 40
1.0
176
     0
 90
        2
176
     1
  1
strokes_ogs.tif
176
     1
290
     0
176
     1
 40
1.0
176
     1
 40
1.0
176
     1
  0
DICTIONARYVAR
  5
949
102
{ACAD_REACTORS
330
944
102
}
330
944
100
DictionaryVariables
280
     0
  1
1:1
  0
DICTIONARYVAR
  5
946
102
{ACAD_REACTORS
330
944
102
}
330
944
100
DictionaryVariables
280
     0
  1
STANDARD
  0
DICTIONARYVAR
  5
945
102
{ACAD_REACTORS
330
944
102
}
330
944
100
DictionaryVariables
280
     0
  1
STANDARD
  0
DICTIONARYVAR
  5
947
102
{ACAD_REACTORS
330
944
102
}
330
944
100
DictionaryVariables
280
     0
  1
Imperial24
  0
DICTIONARYVAR
  5
948
102
{ACAD_REACTORS
330
944
102
}
330
944
100
DictionaryVariables
280
     0
  1
Imperial24
  0
DICTIONARY
  5
8F9
330
8F8
100
AcDbDictionary
280
     1
281
     1
  3
BUMPTILE
360
8FB
  3
DIFFUSETILE
360
8FA
  3
OPACITYTILE
360
8FE
  3
REFLECTIONTILE
360
8FD
  3
REFRACTIONTILE
360
8FF
  3
SPECULARTILE
360
8FC
  0
DICTIONARY
  5
8F1
330
8F0
100
AcDbDictionary
280
     1
281
     1
  3
BUMPTILE
360
8F3
  3
DIFFUSETILE
360
8F2
  3
OPACITYTILE
360
8F6
  3
REFLECTIONTILE
360
8F5
  3
REFRACTIONTILE
360
8F7
  3
SPECULARTILE
360
8F4
  0
DICTIONARY
  5
901
330
900
100
AcDbDictionary
280
     1
281
     1
  3
BUMPTILE
360
903
  3
DIFFUSETILE
360
902
  3
OPACITYTILE
360
906
  3
REFLECTIONTILE
360
905
  3
REFRACTIONTILE
360
907
  3
SPECULARTILE
360
904
  0
DICTIONARY
  5
9C4
330
923
100
AcDbDictionary
280
     1
281
     1
  3
ACAD_ROUNDTRIP_2008_TABLESTYLE_CELLSTYLEMAP
360
9C5
  0
XRECORD
  5
8FB
102
{ACAD_REACTORS
330
8F9
102
}
330
8F9
100
AcDbXrecord
280
     1
270
     1
271
     1
  0
XRECORD
  5
8FA
102
{ACAD_REACTORS
330
8F9
102
}
330
8F9
100
AcDbXrecord
280
     1
270
     1
271
     1
  0
XRECORD
  5
8FE
102
{ACAD_REACTORS
330
8F9
102
}
330
8F9
100
AcDbXrecord
280
     1
270
     1
271
     1
  0
XRECORD
  5
8FD
102
{ACAD_REACTORS
330
8F9
102
}
330
8F9
100
AcDbXrecord
280
     1
270
     1
271
     1
  0
XRECORD
  5
8FF
102
{ACAD_REACTORS
330
8F9
102
}
330
8F9
100
AcDbXrecord
280
     1
270
     1
271
     1
  0
XRECORD
  5
8FC
102
{ACAD_REACTORS
330
8F9
102
}
330
8F9
100
AcDbXrecord
280
     1
270
     1
271
     1
  0
XRECORD
  5
8F3
102
{ACAD_REACTORS
330
8F1
102
}
330
8F1
100
AcDbXrecord
280
     1
270
     1
271
     1
  0
XRECORD
  5
8F2
102
{ACAD_REACTORS
330
8F1
102
}
330
8F1
100
AcDbXrecord
280
     1
270
     1
271
     1
  0
XRECORD
  5
8F6
102
{ACAD_REACTORS
330
8F1
102
}
330
8F1
100
AcDbXrecord
280
     1
270
     1
271
     1
  0
XRECORD
  5
8F5
102
{ACAD_REACTORS
330
8F1
102
}
330
8F1
100
AcDbXrecord
280
     1
270
     1
271
     1
  0
XRECORD
  5
8F7
102
{ACAD_REACTORS
330
8F1
102
}
330
8F1
100
AcDbXrecord
280
     1
270
     1
271
     1
  0
XRECORD
  5
8F4
102
{ACAD_REACTORS
330
8F1
102
}
330
8F1
100
AcDbXrecord
280
     1
270
     1
271
     1
  0
XRECORD
  5
903
102
{ACAD_REACTORS
330
901
102
}
330
901
100
AcDbXrecord
280
     1
270
     1
271
     1
  0
XRECORD
  5
902
102
{ACAD_REACTORS
330
901
102
}
330
901
100
AcDbXrecord
280
     1
270
     1
271
     1
  0
XRECORD
  5
906
102
{ACAD_REACTORS
330
901
102
}
330
901
100
AcDbXrecord
280
     1
270
     1
271
     1
  0
XRECORD
  5
905
102
{ACAD_REACTORS
330
901
102
}
330
901
100
AcDbXrecord
280
     1
270
     1
271
     1
  0
XRECORD
  5
907
102
{ACAD_REACTORS
330
901
102
}
330
901
100
AcDbXrecord
280
     1
270
     1
271
     1
  0
XRECORD
  5
904
102
{ACAD_REACTORS
330
901
102
}
330
901
100
AcDbXrecord
280
     1
270
     1
271
     1
  0
CELLSTYLEMAP
  5
9C5
102
{ACAD_REACTORS
330
9C4
102
}
330
9C4
100
AcDbCellStyleMap
 90
        3
300
CELLSTYLE
  1
TABLEFORMAT_BEGIN
 90
        5
170
     1
 91
        0
 92
    32768
 62
   257
 93
        1
300
CONTENTFORMAT
  1
CONTENTFORMAT_BEGIN
 90
        0
 91
        0
 92
      512
 93
        0
300

 40
0.0
140
1.0
 94
        5
 62
     0
340
18
144
0.25
309
CONTENTFORMAT_END
171
     0
 94
        0
309
TABLEFORMAT_END
  1
CELLSTYLE_BEGIN
 90
        1
 91
        1
300
_TITLE
309
CELLSTYLE_END
300
CELLSTYLE
  1
TABLEFORMAT_BEGIN
 90
        5
170
     1
 91
        0
 92
        0
 62
   257
 93
        1
300
CONTENTFORMAT
  1
CONTENTFORMAT_BEGIN
 90
        0
 91
        0
 92
      512
 93
        0
300

 40
0.0
140
1.0
 94
        5
 62
     0
340
18
144
0.18
309
CONTENTFORMAT_END
171
     0
 94
        0
309
TABLEFORMAT_END
  1
CELLSTYLE_BEGIN
 90
        2
 91
        1
300
_HEADER
309
CELLSTYLE_END
300
CELLSTYLE
  1
TABLEFORMAT_BEGIN
 90
        5
170
     1
 91
        0
 92
        0
 62
   257
 93
        1
300
CONTENTFORMAT
  1
CONTENTFORMAT_BEGIN
 90
        0
 91
        0
 92
      512
 93
        0
300

 40
0.0
140
1.0
 94
        2
 62
     0
340
18
144
0.18
309
CONTENTFORMAT_END
171
     0
 94
        0
309
TABLEFORMAT_END
  1
CELLSTYLE_BEGIN
 90
        3
 91
        2
300
_DATA
309
CELLSTYLE_END
  0
ENDSEC
  0
SECTION
  2
ACDSDATA
 70
     2
 71
     8
  0
ACDSSCHEMA
 90
        0
  1
AcDb_Thumbnail_Schema
  2
AcDbDs::ID
280
    10
 91
        8
  2
Thumbnail_Data
280
    15
 91
        0
101
ACDSRECORD
 95
        0
 90
        1
  2
AcDbDs::TreatedAsObjectData
280
     1
291
     1
101
ACDSRECORD
 95
        0
 90
        2
  2
AcDbDs::Legacy
280
     1
291
     1
101
ACDSRECORD
  1
AcDbDs::ID
 90
        3
  2
AcDs:Indexable
280
     1
291
     1
101
ACDSRECORD
  1
AcDbDs::ID
 90
        4
  2
AcDbDs::HandleAttribute
280
     7
282
     1
  0
ACDSSCHEMA
 90
        1
  1
AcDbDs::TreatedAsObjectDataSchema
  2
AcDbDs::TreatedAsObjectData
280
     1
 91
        0
  0
ACDSSCHEMA
 90
        2
  1
AcDbDs::LegacySchema
  2
AcDbDs::Legacy
280
     1
 91
        0
  0
ACDSSCHEMA
 90
        3
  1
AcDbDs::IndexedPropertySchema
  2
AcDs:Indexable
280
     1
 91
        0
  0
ACDSSCHEMA
 90
        4
  1
AcDbDs::HandleAttributeSchema
  2
AcDbDs::HandleAttribute
280
     7
 91
        1
284
     1
  0
ACDSRECORD
 90
        0
  2
AcDbDs::ID
280
    10
320
20
  2
Thumbnail_Data
280
    15
 94
     2420
310
89504E470D0A1A0A0000000D4948445200000100000000A30803000000525330A000000300504C5445212830FFFFFF2128300000000000000000000000000000000000000000000000000000330000660000990000CC0000FF0033000033330033660033990033CC0033FF0066000066330066660066990066CC0066FF0099
310
000099330099660099990099CC0099FF00CC0000CC3300CC6600CC9900CCCC00CCFF00FF0000FF3300FF6600FF9900FFCC00FFFF3300003300333300663300993300CC3300FF3333003333333333663333993333CC3333FF3366003366333366663366993366CC3366FF3399003399333399663399993399CC3399FF33CC00
310
33CC3333CC6633CC9933CCCC33CCFF33FF0033FF3333FF6633FF9933FFCC33FFFF6600006600336600666600996600CC6600FF6633006633336633666633996633CC6633FF6666006666336666666666996666CC6666FF6699006699336699666699996699CC6699FF66CC0066CC3366CC6666CC9966CCCC66CCFF66FF0066
310
FF3366FF6666FF9966FFCC66FFFF9900009900339900669900999900CC9900FF9933009933339933669933999933CC9933FF9966009966339966669966999966CC9966FF9999009999339999669999999999CC9999FF99CC0099CC3399CC6699CC9999CCCC99CCFF99FF0099FF3399FF6699FF9999FFCC99FFFFCC0000CC00
310
33CC0066CC0099CC00CCCC00FFCC3300CC3333CC3366CC3399CC33CCCC33FFCC6600CC6633CC6666CC6699CC66CCCC66FFCC9900CC9933CC9966CC9999CC99CCCC99FFCCCC00CCCC33CCCC66CCCC99CCCCCCCCCCFFCCFF00CCFF33CCFF66CCFF99CCFFCCCCFFFFFF0000FF0033FF0066FF0099FF00CCFF00FFFF3300FF3333
310
FF3366FF3399FF33CCFF33FFFF6600FF6633FF6666FF6699FF66CCFF66FFFF9900FF9933FF9966FF9999FF99CCFF99FFFFCC00FFCC33FFCC66FFCC99FFCCCCFFCCFFFFFF00FFFF33FFFF66FFFF99FFFFCCFFFFFF0000000D0D0D1A1A1A2828283535354343435050505D5D5D6B6B6B787878868686939393A1A1A1AEAEAEBB
310
BBBBC9C9C9D6D6D6E4E4E4F1F1F1FFFFFF0000000000000000000000000000000000000000000000000000000000002E4550F1000001284944415478DAEDD94B8AC330100450DFFF6875AAD98C3D03218218052CD57B9B6CD3E5D6FF38000000E0A6A43E806102E94E20296890419115F50FFABCA6FEB7936371FDDD1FBFBE
310
FE54AC7E2F4BE1F5CDCFAF9FAE8ECFD5F6D74FBAEAFFADF8AFFFBB127899FDD23A11FE8F22A5B5D71C833E3B17EE7F5ABC13405C271CA0FB6B4F8C0ECCDB3447EE7CFEE15DE2F6DD9C41132CB789BEFB7FF79904323D51EB437303344C817B2570DE8419B6D5FBE4CCCE336BAD0AF972004F8F20D303586C6FF8F5BFF7F000
310
263E062E79999E696F00E713D372011C330358AF07527E7CC9BC0E58F634DCFEBE11CF1B009D0B6079FDF5CBBFF5DFBEAFB3F1230043003001D8FC690030F6ED7F4D7E00A6413B8182048C0200000000000000000000000000000000000078841F1F56E1ADFFF7731A0000000049454E44AE426082FC2C037C42FB4BDDC3A6
310
C320270AFC22017CD24F3609809756BFC60137E38FC684E9094986ABD6E501017E2F21240DD0FA73E115D3F307CAC0B603FC6495E42C806A4E5C644C16E5B4170069A076A64C9E0BBB3705407D3162BB8D46A78976E2DF3475EA9AF7B38029AE0F5300E96FD8FABD1507908B7DA6006CF60C36464CC2697350D08C1A3FCA00
310
4A4F64937C692CA203029239D90601B06949B9BEB5E85EF3F9AF20A0A885CB40906532AE6EBA1CA0521093D3C52A96D4AF662665889039E2CDFAF3E9FE979D0F204FC390E62494A7C5F3A31304698C309BAF6EAF394264A38C15B2EBFC8180DEA5540D810B02170CC96E682264990CC9FBF465701E99E82445262BF560ED0F
310
04F4ADA5BA4ACE0134EC25089631083448CAF4961C427791D2299A335D6459EEB84E003A47C8ECBD4513CC792CCA79A7C44DCCD3C1ECD04BEF5064504AC78B7D256B892E13808E6512ABFC5AF1D7C84F259D9BE46EF5CEC74E55DF735AF80F023AB9C0226BF31EA8F9BFDA50F42BEA17FE7234E61D03297B224D5835687C4F
310
0CBE1C025B5B94AF700094298FDD96B80F89F472CA078B092278D501B4534CDC4027CC396BB89E788D8063E3B8471858476B2E9B7DBACE09BA6942DA0E1149E1CFFB285A129D20CAF2C25A62BE9C014F72F447FBA5E6174D2A5A4924C52FEF8D65BDC7559F54956D90B655DA1DF195F5EF3A51D0B547238856D2A2D5355873
310
07D2C448DA28547A42CEF3FB077C2DFFF5D3D330976D4622BCA2589D54B6980717116AC2D10710E0E603CC17D69FBA12804D02C0BE15D0645FAB052E9D23BF94B9682CDC6885F9688DFAC580E89EDA7EAF0FE12480A54AB32B978EEA4ABD0BEC5BCBDB1A9DA85F0F900B6C91668A9658321EEBA830E7792FE7796B9AEA1AEB
310
1D73DBF71542ABF3C0C8F2FA2A011045C3A52BF27A54F246723F20A09D29D41B923D9550B3B5A9F16B054F74AD4B00EB6989B786CC9573AC13304D30C1ACBEAF9D595F02D078C0ECF4396FEBA00BFEDEA1B3043849C81BA7E9A471829BCE597BCAD4A909A6F2BFAB8775D5C60ECA6E7FD57EA67D916339738D00D57C286E54
310
722D682F2D046A6240C53E8A5B2518FB0E70DCABAEFA80CE9A298BEE527AF56C0665F5AB4E40EF0B44710FA4CD3B98B73B935D5F5DD396F90DD3949BEDAA9EF6EE84919A36D8F846465BDEED84275B3D1C9AB97384B59052ABC253B4C99E4A1B9FAFCE7F3A0414E6ADBF6BB6082BD980DDD2BA31F7362991A7AE754D36EDFF
310
865D55588B95F34C4DC289BA79C915D28C6D6763FDAD3BA9C59E27C3CF7876FBF3B3D7C8BC9727BE60CB34DD179DAEE7612E79EA3302FF430135B71F7F8E02D2D9C7831F7BC5EA3F28D826E13B088006FEE3F50E5064C54B63B03732A0B5A68F03340DD697D96F443CAAE5EA74798E82EF22E06A57FB827FF9BB097803B9E3
310
1240077DC620148C6DFFE8EB1F087C4F03343C0118DD7E8CBEFE837F45C8B7CC253E360CE0B407363403437F490C40C37F4F50B442814020101A6834F3C79EC8E997438DDBFF52FED4D7B0EB3FB00644F1A9D011D1F3A6BB1F6160F8416808C04060B8C43FB8FDC3DF8B30B813BCFEB6BFB0FF0713E0E877648D5E06E286AC
310
4020100804028140201008040281402010080402814020100804EE857F30685FAF35FE3FDA0000000049454E44AE426082C6CE362F017944C08D6C3B60BBDDC87608DCC805B0AD00C81B2F0337E3654014B81917C078168402D60570381C0E87C3E170381C0E87C3E170381C0E87633EFC0F791B2DE715C1FAE90000000049
310
454E44AE426082
  0
ENDSEC
  0
EOF
