  0
SECTION
  2
HEADER
  9
$ACADVER
  1
AC1032
  9
$ACADMAINTVER
 90
      155
  9
$DWGCODEPAGE
  3
ANSI_1251
  9
$LASTSAVEDBY
  1
ALEXANDER
  9
$REQUIREDVERSIONS
160
                 0
  9
$INSBASE
 10
0.0
 20
0.0
 30
0.0
  9
$EXTMIN
 10
1391339.698945382
 20
354857.4607999773
 30
-0.0015258207003583
  9
$EXTMAX
 10
1399991.111756123
 20
361055.1944155641
 30
0.0000000349246037
  9
$LIMMIN
 10
0.0
 20
0.0
  9
$LIMMAX
 10
12.0
 20
9.0
  9
$ORTHOMODE
 70
     0
  9
$REGENMODE
 70
     1
  9
$FILLMODE
 70
     1
  9
$QTEXTMODE
 70
     0
  9
$MIRRTEXT
 70
     0
  9
$LTSCALE
 40
1.0
  9
$ATTMODE
 70
     1
  9
$TEXTSIZE
 40
0.0
  9
$TRACEWID
 40
0.05
  9
$TEXTSTYLE
  7
Standard
  9
$CLAYER
  8
Ранее утвержденные зоны охраняемоего природного ландшафта
  9
$CELTYPE
  6
ByLayer
  9
$CECOLOR
 62
   256
  9
$CELTSCALE
 40
1.0
  9
$DISPSILH
 70
     0
  9
$DIMSCALE
 40
1.0
  9
$DIMASZ
 40
0.18
  9
$DIMEXO
 40
0.0625
  9
$DIMDLI
 40
0.38
  9
$DIMRND
 40
0.0
  9
$DIMDLE
 40
0.0
  9
$DIMEXE
 40
0.18
  9
$DIMTP
 40
0.0
  9
$DIMTM
 40
0.0
  9
$DIMTXT
 40
0.18
  9
$DIMCEN
 40
0.09
  9
$DIMTSZ
 40
0.0
  9
$DIMTOL
 70
     0
  9
$DIMLIM
 70
     0
  9
$DIMTIH
 70
     0
  9
$DIMTOH
 70
     0
  9
$DIMSE1
 70
     0
  9
$DIMSE2
 70
     0
  9
$DIMTAD
 70
     0
  9
$DIMZIN
 70
     0
  9
$DIMBLK
  1

  9
$DIMASO
 70
     1
  9
$DIMSHO
 70
     1
  9
$DIMPOST
  1

  9
$DIMAPOST
  1

  9
$DIMALT
 70
     0
  9
$DIMALTD
 70
     2
  9
$DIMALTF
 40
25.4
  9
$DIMLFAC
 40
1.0
  9
$DIMTOFL
 70
     0
  9
$DIMTVP
 40
0.0
  9
$DIMTIX
 70
     0
  9
$DIMSOXD
 70
     0
  9
$DIMSAH
 70
     0
  9
$DIMBLK1
  1

  9
$DIMBLK2
  1

  9
$DIMSTYLE
  2
Standard
  9
$DIMCLRD
 70
     0
  9
$DIMCLRE
 70
     0
  9
$DIMCLRT
 70
     0
  9
$DIMTFAC
 40
1.0
  9
$DIMGAP
 40
0.09
  9
$DIMJUST
 70
     0
  9
$DIMSD1
 70
     0
  9
$DIMSD2
 70
     0
  9
$DIMTOLJ
 70
     1
  9
$DIMTZIN
 70
     0
  9
$DIMALTZ
 70
     0
  9
$DIMALTTZ
 70
     0
  9
$DIMUPT
 70
     0
  9
$DIMDEC
 70
     4
  9
$DIMTDEC
 70
     4
  9
$DIMALTU
 70
     2
  9
$DIMALTTD
 70
     2
  9
$DIMTXSTY
  7
Standard
  9
$DIMAUNIT
 70
     0
  9
$DIMADEC
 70
     0
  9
$DIMALTRND
 40
0.0
  9
$DIMAZIN
 70
     0
  9
$DIMDSEP
 70
    46
  9
$DIMATFIT
 70
     3
  9
$DIMFRAC
 70
     0
  9
$DIMLDRBLK
  1

  9
$DIMLUNIT
 70
     2
  9
$DIMLWD
 70
    -2
  9
$DIMLWE
 70
    -2
  9
$DIMTMOVE
 70
     0
  9
$DIMFXL
 40
1.0
  9
$DIMFXLON
 70
     0
  9
$DIMJOGANG
 40
0.7853981633974483
  9
$DIMTFILL
 70
     0
  9
$DIMTFILLCLR
 70
     0
  9
$DIMARCSYM
 70
     0
  9
$DIMLTYPE
  6
ByBlock
  9
$DIMLTEX1
  6
ByBlock
  9
$DIMLTEX2
  6
ByBlock
  9
$DIMTXTDIRECTION
 70
     0
  9
$LUNITS
 70
     2
  9
$LUPREC
 70
     4
  9
$SKETCHINC
 40
0.1
  9
$FILLETRAD
 40
0.0
  9
$AUNITS
 70
     0
  9
$AUPREC
 70
     0
  9
$MENU
  1
.
  9
$ELEVATION
 40
0.0
  9
$PELEVATION
 40
0.0
  9
$THICKNESS
 40
0.0
  9
$LIMCHECK
 70
     0
  9
$CHAMFERA
 40
0.0
  9
$CHAMFERB
 40
0.0
  9
$CHAMFERC
 40
0.0
  9
$CHAMFERD
 40
0.0
  9
$SKPOLY
 70
     0
  9
$TDCREATE
 40
2460902.525590278
  9
$TDUCREATE
 40
2460902.108927419
  9
$TDUPDATE
 40
2460903.014872685
  9
$TDUUPDATE
 40
2460902.598206018
  9
$TDINDWG
 40
0.1021789468
  9
$TDUSRTIMER
 40
0.1021789468
  9
$USRTIMER
 70
     1
  9
$ANGBASE
 50
0.0
  9
$ANGDIR
 70
     0
  9
$PDMODE
 70
    33
  9
$PDSIZE
 40
0.75
  9
$PLINEWID
 40
0.0
  9
$SPLFRAME
 70
     0
  9
$SPLINETYPE
 70
     6
  9
$SPLINESEGS
 70
     8
  9
$HANDSEED
  5
9D0
  9
$SURFTAB1
 70
     6
  9
$SURFTAB2
 70
     6
  9
$SURFTYPE
 70
     6
  9
$SURFU
 70
     6
  9
$SURFV
 70
     6
  9
$UCSBASE
  2

  9
$UCSNAME
  2

  9
$UCSORG
 10
0.0
 20
0.0
 30
0.0
  9
$UCSXDIR
 10
1.0
 20
0.0
 30
0.0
  9
$UCSYDIR
 10
0.0
 20
1.0
 30
0.0
  9
$UCSORTHOREF
  2

  9
$UCSORTHOVIEW
 70
     0
  9
$UCSORGTOP
 10
0.0
 20
0.0
 30
0.0
  9
$UCSORGBOTTOM
 10
0.0
 20
0.0
 30
0.0
  9
$UCSORGLEFT
 10
0.0
 20
0.0
 30
0.0
  9
$UCSORGRIGHT
 10
0.0
 20
0.0
 30
0.0
  9
$UCSORGFRONT
 10
0.0
 20
0.0
 30
0.0
  9
$UCSORGBACK
 10
0.0
 20
0.0
 30
0.0
  9
$PUCSBASE
  2

  9
$PUCSNAME
  2

  9
$PUCSORG
 10
0.0
 20
0.0
 30
0.0
  9
$PUCSXDIR
 10
1.0
 20
0.0
 30
0.0
  9
$PUCSYDIR
 10
0.0
 20
1.0
 30
0.0
  9
$PUCSORTHOREF
  2

  9
$PUCSORTHOVIEW
 70
     0
  9
$PUCSORGTOP
 10
0.0
 20
0.0
 30
0.0
  9
$PUCSORGBOTTOM
 10
0.0
 20
0.0
 30
0.0
  9
$PUCSORGLEFT
 10
0.0
 20
0.0
 30
0.0
  9
$PUCSORGRIGHT
 10
0.0
 20
0.0
 30
0.0
  9
$PUCSORGFRONT
 10
0.0
 20
0.0
 30
0.0
  9
$PUCSORGBACK
 10
0.0
 20
0.0
 30
0.0
  9
$USERI1
 70
     0
  9
$USERI2
 70
     0
  9
$USERI3
 70
     0
  9
$USERI4
 70
     0
  9
$USERI5
 70
     0
  9
$USERR1
 40
0.0
  9
$USERR2
 40
0.0
  9
$USERR3
 40
0.0
  9
$USERR4
 40
0.0
  9
$USERR5
 40
0.0
  9
$WORLDVIEW
 70
     1
  9
$SHADEDGE
 70
     3
  9
$SHADEDIF
 70
    70
  9
$TILEMODE
 70
     1
  9
$MAXACTVP
 70
    64
  9
$PINSBASE
 10
0.0
 20
0.0
 30
0.0
  9
$PLIMCHECK
 70
     0
  9
$PEXTMIN
 10
1.000000000000000E+20
 20
1.000000000000000E+20
 30
1.000000000000000E+20
  9
$PEXTMAX
 10
-1.000000000000000E+20
 20
-1.000000000000000E+20
 30
-1.000000000000000E+20
  9
$PLIMMIN
 10
0.0
 20
0.0
  9
$PLIMMAX
 10
12.0
 20
9.0
  9
$UNITMODE
 70
     0
  9
$VISRETAIN
 70
     1
  9
$PLINEGEN
 70
     0
  9
$PSLTSCALE
 70
     1
  9
$TREEDEPTH
 70
  3020
  9
$CMLSTYLE
  2
Standard
  9
$CMLJUST
 70
     0
  9
$CMLSCALE
 40
20.0
  9
$PROXYGRAPHICS
 70
     1
  9
$MEASUREMENT
 70
     0
  9
$CELWEIGHT
370
    -1
  9
$ENDCAPS
280
     0
  9
$JOINSTYLE
280
     0
  9
$LWDISPLAY
290
     0
  9
$INSUNITS
 70
     0
  9
$HYPERLINKBASE
  1

  9
$STYLESHEET
  1

  9
$XEDIT
290
     1
  9
$CEPSNTYPE
380
     0
  9
$PSTYLEMODE
290
     1
  9
$FINGERPRINTGUID
  2
{3EEA27AE-FC72-4A47-BAAA-489EA8A3C03F}
  9
$VERSIONGUID
  2
{D35B4065-2E9D-1040-BFA2-D522C45130BA}
  9
$EXTNAMES
290
     1
  9
$PSVPSCALE
 40
0.0
  9
$OLESTARTUP
290
     0
  9
$SORTENTS
280
   127
  9
$INDEXCTL
280
     0
  9
$HIDETEXT
280
     1
  9
$XCLIPFRAME
280
     2
  9
$HALOGAP
280
     0
  9
$OBSCOLOR
 70
   257
  9
$OBSLTYPE
280
     0
  9
$INTERSECTIONDISPLAY
280
     0
  9
$INTERSECTIONCOLOR
 70
   257
  9
$DIMASSOC
280
     2
  9
$PROJECTNAME
  1

  9
$CAMERADISPLAY
290
     0
  9
$LENSLENGTH
 40
50.0
  9
$CAMERAHEIGHT
 40
0.0
  9
$STEPSPERSEC
 40
2.0
  9
$STEPSIZE
 40
6.0
  9
$3DDWFPREC
 40
2.0
  9
$PSOLWIDTH
 40
0.25
  9
$PSOLHEIGHT
 40
4.0
  9
$LOFTANG1
 40
1.570796326794896
  9
$LOFTANG2
 40
1.570796326794896
  9
$LOFTMAG1
 40
0.0
  9
$LOFTMAG2
 40
0.0
  9
$LOFTPARAM
 70
     7
  9
$LOFTNORMALS
280
     1
  9
$LATITUDE
 40
37.795
  9
$LONGITUDE
 40
-122.394
  9
$NORTHDIRECTION
 40
0.0
  9
$TIMEZONE
 70
 -8000
  9
$LIGHTGLYPHDISPLAY
280
     1
  9
$TILEMODELIGHTSYNCH
280
     1
  9
$CMATERIAL
347
8F0
  9
$SOLIDHIST
280
     0
  9
$SHOWHIST
280
     1
  9
$DWFFRAME
280
     2
  9
$DGNFRAME
280
     0
  9
$REALWORLDSCALE
290
     1
  9
$INTERFERECOLOR
 62
     1
  9
$INTERFEREOBJVS
345
912
  9
$INTERFEREVPVS
346
90F
  9
$CSHADOW
280
     0
  9
$SHADOWPLANELOCATION
 40
0.0
  0
ENDSEC
  0
SECTION
  2
CLASSES
  0
CLASS
  1
RASTERVARIABLES
  2
AcDbRasterVariables
  3
ISM
 90
        0
 91
        1
280
     0
281
     0
  0
CLASS
  1
ACDBDICTIONARYWDFLT
  2
AcDbDictionaryWithDefault
  3
ObjectDBX Classes
 90
        0
 91
        1
280
     0
281
     0
  0
CLASS
  1
MATERIAL
  2
AcDbMaterial
  3
ObjectDBX Classes
 90
     1153
 91
        3
280
     0
281
     0
  0
CLASS
  1
VISUALSTYLE
  2
AcDbVisualStyle
  3
ObjectDBX Classes
 90
     4095
 91
       24
280
     0
281
     0
  0
CLASS
  1
TABLESTYLE
  2
AcDbTableStyle
  3
ObjectDBX Classes
 90
     4095
 91
        1
280
     0
281
     0
  0
CLASS
  1
SCALE
  2
AcDbScale
  3
ObjectDBX Classes
 90
     1153
 91
       17
280
     0
281
     0
  0
CLASS
  1
MLEADERSTYLE
  2
AcDbMLeaderStyle
  3
ACDB_MLEADERSTYLE_CLASS
 90
     4095
 91
        1
280
     0
281
     0
  0
CLASS
  1
ACDBSECTIONVIEWSTYLE
  2
AcDbSectionViewStyle
  3
ObjectDBX Classes
 90
     1025
 91
        1
280
     0
281
     0
  0
CLASS
  1
ACDBDETAILVIEWSTYLE
  2
AcDbDetailViewStyle
  3
ObjectDBX Classes
 90
     1025
 91
        1
280
     0
281
     0
  0
CLASS
  1
DICTIONARYVAR
  2
AcDbDictionaryVar
  3
ObjectDBX Classes
 90
        0
 91
        5
280
     0
281
     0
  0
CLASS
  1
SORTENTSTABLE
  2
AcDbSortentsTable
  3
ObjectDBX Classes
 90
        0
 91
        1
280
     0
281
     0
  0
CLASS
  1
CELLSTYLEMAP
  2
AcDbCellStyleMap
  3
ObjectDBX Classes
 90
     1152
 91
       10
280
     0
281
     0
  0
ENDSEC
  0
SECTION
  2
TABLES
  0
TABLE
  2
VPORT
  5
1
330
0
100
AcDbSymbolTable
 70
     1
  0
VPORT
  5
2
330
1
100
AcDbSymbolTableRecord
100
AcDbViewportTableRecord
  2
*Active
 70
     0
 10
0.0
 20
0.0
 11
1.0
 21
1.0
 12
12388.04358111284
 22
18440.98482678536
 13
0.0
 23
0.0
 14
0.5
 24
0.5
 15
10.0
 25
10.0
 16
0.0
 26
0.0
 36
1.0
 17
1385264.28830591
 27
339116.894073843
 37
0.0
 40
10546.30127706687
 41
1.565580618212197
 42
50.0
 43
0.0
 44
0.0
 50
0.0
 51
0.0
 71
     0
 72
   100
 73
     1
 74
     1
 75
     0
 76
     1
 77
     0
 78
     0
281
     0
 65
     1
110
0.0
120
0.0
130
0.0
111
1.0
121
0.0
131
0.0
112
0.0
122
1.0
132
0.0
 79
     0
146
0.0
348
90E
 60
     3
 61
     5
292
     1
282
     1
141
0.0
142
0.0
 63
   250
421
  3355443
1001
ACAD_NAV_VCDISPLAY
1070
     3
  0
ENDTAB
  0
TABLE
  2
LTYPE
  5
7
330
0
100
AcDbSymbolTable
 70
     2
  0
LTYPE
  5
17
330
7
100
AcDbSymbolTableRecord
100
AcDbLinetypeTableRecord
  2
ByBlock
 70
     0
  3

 72
    65
 73
     0
 40
0.0
  0
LTYPE
  5
16
330
7
100
AcDbSymbolTableRecord
100
AcDbLinetypeTableRecord
  2
ByLayer
 70
     0
  3

 72
    65
 73
     0
 40
0.0
  0
LTYPE
  5
15
330
7
100
AcDbSymbolTableRecord
100
AcDbLinetypeTableRecord
  2
Continuous
 70
     0
  3
Solid line
 72
    65
 73
     0
 40
0.0
  0
ENDTAB
  0
TABLE
  2
LAYER
  5
5
102
{ACAD_XDICTIONARY
360
6
102
}
330
0
100
AcDbSymbolTable
 70
    16
  0
LAYER
  5
14
330
5
100
AcDbSymbolTableRecord
100
AcDbLayerTableRecord
  2
0
 70
     0
 62
    -7
  6
Continuous
370
    -3
390
8EE
347
900
348
0
  0
LAYER
  5
22
330
5
100
AcDbSymbolTableRecord
100
AcDbLayerTableRecord
  2
Контура исторический центр для сайта
 70
     0
 62
    -7
  6
Continuous
370
    -3
390
8EE
347
900
348
0
  0
LAYER
  5
956
330
5
100
AcDbSymbolTableRecord
100
AcDbLayerTableRecord
  2
Р-1
 70
     0
 62
    40
  6
Continuous
370
    -3
390
8EE
347
900
348
0
1001
AcAecLayerStandard
1000

1000

1001
AcCmTransparency
1071
        0
  0
LAYER
  5
95F
330
5
100
AcDbSymbolTableRecord
100
AcDbLayerTableRecord
  2
Р-2
 70
     0
 62
   140
  6
Continuous
370
    -3
390
8EE
347
900
348
0
1001
AcAecLayerStandard
1000

1000

1001
AcCmTransparency
1071
        0
  0
LAYER
  5
960
330
5
100
AcDbSymbolTableRecord
100
AcDbLayerTableRecord
  2
РЦИ
 70
     0
 62
    30
  6
Continuous
370
    -3
390
8EE
347
900
348
0
1001
AcAecLayerStandard
1000

1000

1001
AcCmTransparency
1071
        0
  0
LAYER
  5
961
330
5
100
AcDbSymbolTableRecord
100
AcDbLayerTableRecord
  2
Р-4
 70
     0
 62
   190
  6
Continuous
370
    -3
390
8EE
347
900
348
0
1001
AcAecLayerStandard
1000

1000

1001
AcCmTransparency
1071
        0
  0
LAYER
  5
962
330
5
100
AcDbSymbolTableRecord
100
AcDbLayerTableRecord
  2
РОКН
 70
     0
 62
    12
  6
Continuous
370
    -3
390
8EE
347
900
348
0
1001
AcAecLayerStandard
1000

1000

1001
AcCmTransparency
1071
        0
  0
LAYER
  5
963
330
5
100
AcDbSymbolTableRecord
100
AcDbLayerTableRecord
  2
РИП
 70
     0
 62
    42
  6
Continuous
370
    -3
390
8EE
347
900
348
0
1001
AcAecLayerStandard
1000

1000

1001
AcCmTransparency
1071
        0
  0
LAYER
  5
964
330
5
100
AcDbSymbolTableRecord
100
AcDbLayerTableRecord
  2
РПЛ
 70
     0
 62
    70
  6
Continuous
370
    -3
390
8EE
347
900
348
0
1001
AcAecLayerStandard
1000

1000

1001
AcCmTransparency
1071
        0
  0
LAYER
  5
965
330
5
100
AcDbSymbolTableRecord
100
AcDbLayerTableRecord
  2
РГЛ
 70
     0
 62
    74
  6
Continuous
370
    -3
390
8EE
347
900
348
0
1001
AcAecLayerStandard
1000

1000

1001
AcCmTransparency
1071
        0
  0
LAYER
  5
966
330
5
100
AcDbSymbolTableRecord
100
AcDbLayerTableRecord
  2
Р-3
 70
     0
 62
   142
  6
Continuous
370
    -3
390
8EE
347
900
348
0
1001
AcAecLayerStandard
1000

1000

1001
AcCmTransparency
1071
        0
  0
LAYER
  5
967
330
5
100
AcDbSymbolTableRecord
100
AcDbLayerTableRecord
  2
РТ
 70
     0
 62
     8
  6
Continuous
370
    -3
390
8EE
347
900
348
0
1001
AcAecLayerStandard
1000

1000

1001
AcCmTransparency
1071
        0
  0
LAYER
  5
975
330
5
100
AcDbSymbolTableRecord
100
AcDbLayerTableRecord
  2
Ранее утвержденные зоны охраняемоего природного ландшафта
 70
     0
 62
   105
  6
Continuous
370
    -3
390
8EE
347
900
348
0
1001
AcAecLayerStandard
1000

1000

1001
AcCmTransparency
1071
        0
  0
LAYER
  5
992
330
5
100
AcDbSymbolTableRecord
100
AcDbLayerTableRecord
  2
д
 70
     0
 62
    -7
  6
Continuous
370
    -3
390
8EE
347
900
348
0
1001
AcAecLayerStandard
1000

1000

1001
AcCmTransparency
1071
        0
  0
LAYER
  5
993
330
5
100
AcDbSymbolTableRecord
100
AcDbLayerTableRecord
  2
Ранее утвержденные зоны регулирования застройки
 70
     0
 62
    52
  6
Continuous
370
    -3
390
8EE
347
900
348
0
1001
AcAecLayerStandard
1000

1000

1001
AcCmTransparency
1071
        0
  0
LAYER
  5
994
330
5
100
AcDbSymbolTableRecord
100
AcDbLayerTableRecord
  2
Ранее утвержденные охранные зоны
 70
     0
 62
     7
  6
Continuous
370
    -3
390
8EE
347
900
348
0
1001
AcAecLayerStandard
1000

1000

1001
AcCmTransparency
1071
        0
  0
ENDTAB
  0
TABLE
  2
STYLE
  5
8
330
0
100
AcDbSymbolTable
 70
     1
  0
STYLE
  5
18
330
8
100
AcDbSymbolTableRecord
100
AcDbTextStyleTableRecord
  2
Standard
 70
     0
 40
0.0
 41
1.0
 50
0.0
 71
     0
 42
0.0
  3
simplex.shx
  4

  0
ENDTAB
  0
TABLE
  2
VIEW
  5
3
330
0
100
AcDbSymbolTable
 70
     0
  0
ENDTAB
  0
TABLE
  2
UCS
  5
C
330
0
100
AcDbSymbolTable
 70
     0
  0
ENDTAB
  0
TABLE
  2
APPID
  5
4
330
0
100
AcDbSymbolTable
 70
    10
  0
APPID
  5
19
330
4
100
AcDbSymbolTableRecord
100
AcDbRegAppTableRecord
  2
ACAD
 70
     0
  0
APPID
  5
8E3
330
4
100
AcDbSymbolTableRecord
100
AcDbRegAppTableRecord
  2
AcCmTransparency
 70
     0
  0
APPID
  5
8E4
330
4
100
AcDbSymbolTableRecord
100
AcDbRegAppTableRecord
  2
GradientColor1ACI
 70
     0
  0
APPID
  5
8E5
330
4
100
AcDbSymbolTableRecord
100
AcDbRegAppTableRecord
  2
GradientColor2ACI
 70
     0
  0
APPID
  5
93E
330
4
100
AcDbSymbolTableRecord
100
AcDbRegAppTableRecord
  2
ACAD_NAV_VCDISPLAY
 70
     0
  0
APPID
  5
957
330
4
100
AcDbSymbolTableRecord
100
AcDbRegAppTableRecord
  2
AcAecLayerStandard
 70
     0
  0
APPID
  5
958
330
4
100
AcDbSymbolTableRecord
100
AcDbRegAppTableRecord
  2
ACAD_EXEMPT_FROM_CAD_STANDARDS
 70
     0
  0
APPID
  5
977
330
4
100
AcDbSymbolTableRecord
100
AcDbRegAppTableRecord
  2
AcadAnnotative
 70
     0
  0
APPID
  5
978
330
4
100
AcDbSymbolTableRecord
100
AcDbRegAppTableRecord
  2
ACAD_DSTYLE_DIMJAG
 70
     0
  0
APPID
  5
979
330
4
100
AcDbSymbolTableRecord
100
AcDbRegAppTableRecord
  2
ACAD_DSTYLE_DIMTALN
 70
     0
  0
ENDTAB
  0
TABLE
  2
DIMSTYLE
  5
A
330
0
100
AcDbSymbolTable
 70
     3
100
AcDbDimStyleTable
 71
     1
340
1A
  0
DIMSTYLE
105
1A
330
A
100
AcDbSymbolTableRecord
100
AcDbDimStyleTableRecord
  2
Standard
 70
     0
 73
     0
 74
     0
340
18
345
17
346
17
347
17
  0
DIMSTYLE
105
976
330
A
100
AcDbSymbolTableRecord
100
AcDbDimStyleTableRecord
  2
Аннотативный
 70
     0
 40
0.0
340
18
1001
AcadAnnotative
1000
AnnotativeData
1002
{
1070
     1
1070
     1
1002
}
1001
ACAD_DSTYLE_DIMJAG
1070
   388
1040
1.5
1001
ACAD_DSTYLE_DIMTALN
1070
   392
1070
     0
  0
ENDTAB
  0
TABLE
  2
BLOCK_RECORD
  5
D
330
0
100
AcDbSymbolTable
 70
     1
  0
BLOCK_RECORD
  5
1C
102
{ACAD_XDICTIONARY
360
9BC
102
}
330
D
100
AcDbSymbolTableRecord
100
AcDbBlockTableRecord
  2
*Model_Space
340
20
 70
     0
280
     1
281
     0
  0
BLOCK_RECORD
  5
8DD
330
D
100
AcDbSymbolTableRecord
100
AcDbBlockTableRecord
  2
*Paper_Space
340
8E2
 70
     0
280
     1
281
     0
  0
ENDTAB
  0
ENDSEC
  0
SECTION
  2
BLOCKS
  0
BLOCK
  5
1E
330
1C
100
AcDbEntity
  8
0
100
AcDbBlockBegin
  2
*Model_Space
 70
     0
 10
0.0
 20
0.0
 30
0.0
  3
*Model_Space
  1

  0
ENDBLK
  5
1D
330
1C
100
AcDbEntity
  8
0
100
AcDbBlockEnd
  0
BLOCK
  5
8DF
330
8DD
100
AcDbEntity
 67
     1
  8
0
100
AcDbBlockBegin
  2
*Paper_Space
 70
     0
 10
0.0
 20
0.0
 30
0.0
  3
*Paper_Space
  1

  0
ENDBLK
  5
8DE
330
8DD
100
AcDbEntity
 67
     1
  8
0
100
AcDbBlockEnd
  0
ENDSEC
  0
SECTION
  2
ENTITIES
  0
LWPOLYLINE
  5
C5
330
1C
100
AcDbEntity
  8
РОКН
370
    20
100
AcDbPolyline
 90
       36
 70
     0
 43
0.0
 10
1394284.22935109
 20
359707.63652049
 10
1394331.50131078
 20
359761.6354256401
 10
1394354.90934866
 20
359756.596497391
 10
1394366.42941068
 20
359755.505839206
 10
1394402.50940314
 20
359748.685833215
 10
1394422.38939998
 20
359750.265828997
 10
1394435.54933214
 20
359743.2864830621
 10
1394444.46932984
 20
359739.686481789
 10
1394450.47932732
 20
359732.046481915
 10
1394455.11127037
 20
359735.512797744
 10
1394456.98932667
 20
359734.766480128
 10
1394463.85932671
 20
359740.7464776101
 10
1394471.94932677
 20
359747.8364747671
 10
1394472.73932645
 20
359747.276474623
 10
1394476.17932573
 20
359746.326474114
 10
1394486.87932309
 20
359742.236472588
 10
1394507.86931822
 20
359735.916469374
 10
1394508.37931803
 20
359735.666469285
 10
1394506.07938167
 20
359730.8758157311
 10
1394500.99938106
 20
359723.385818037
 10
1394494.25938075
 20
359715.955820656
 10
1394488.14938068
 20
359710.245822857
 10
1394473.87938059
 20
359697.4158279051
 10
1394455.47938051
 20
359680.9758344001
 10
1394439.15357434
 20
359667.7310589361
 10
1394432.99763557
 20
359698.0377957051
 10
1394425.25924798
 20
359711.319817986
 10
1394402.21206487
 20
359710.650785375
 10
1394402.2693952
 20
359708.675840178
 10
1394399.00939509
 20
359705.315841409
 10
1394399.08939481
 20
359703.985841624
 10
1394367.58129906
 20
359702.6802484471
 10
1394363.72939975
 20
359698.0958496611
 10
1394342.51940326
 20
359697.2758540101
 10
1394318.57940213
 20
359670.7658633421
 10
1394284.22935109
 20
359707.63652049
  0
LWPOLYLINE
  5
C6
330
1C
100
AcDbEntity
  8
РОКН
370
    20
100
AcDbPolyline
 90
        6
 70
     0
 43
0.0
 10
1393353.25306601
 20
357185.6480758461
 10
1393335.14230123
 20
357133.621768018
 10
1393390.50621896
 20
357115.809978266
 10
1393414.79198621
 20
357186.559301876
 10
1393389.53906948
 20
357185.996477119
 10
1393353.25306601
 20
357185.6480758461
  0
LWPOLYLINE
  5
C7
330
1C
100
AcDbEntity
  8
РОКН
370
    20
100
AcDbPolyline
 90
        7
 70
     0
 43
0.0
 10
1393290.28783685
 20
357205.992446989
 10
1393349.3440977
 20
357205.5364387321
 10
1393350.04789359
 20
357233.4340833671
 10
1393350.24519433
 20
357241.254867597
 10
1393294.67011545
 20
357241.112042837
 10
1393290.48388102
 20
357232.710588598
 10
1393290.28783685
 20
357205.992446989
  0
LWPOLYLINE
  5
C8
330
1C
100
AcDbEntity
  8
РОКН
370
    20
100
AcDbPolyline
 90
        9
 70
     0
 43
0.0
 10
1393268.48644296
 20
357376.717758063
 10
1393321.72388379
 20
357337.1427726441
 10
1393362.30948141
 20
357383.407967713
 10
1393362.89911401
 20
357387.2364476379
 10
1393366.60525706
 20
357391.5777682679
 10
1393318.69868789
 20
357428.074853938
 10
1393312.4191296
 20
357421.876451675
 10
1393301.91912902
 20
357409.796455849
 10
1393268.48644296
 20
357376.717758063
  0
LWPOLYLINE
  5
C9
330
1C
100
AcDbEntity
  8
РОКН
370
    20
100
AcDbPolyline
 90
        9
 70
     0
 43
0.0
 10
1393349.25846994
 20
357354.460469721
 10
1393377.93895031
 20
357329.4593681441
 10
1393381.23910044
 20
357334.826453056
 10
1393427.87910319
 20
357389.2264344021
 10
1393442.04910466
 20
357409.0064281711
 10
1393444.92910532
 20
357414.816426588
 10
1393460.33910721
 20
357437.796419565
 10
1393419.64911388
 20
357435.92642796
 10
1393349.25846994
 20
357354.460469721
  0
LWPOLYLINE
  5
CA
330
1C
100
AcDbEntity
  8
РОКН
370
    20
100
AcDbPolyline
 90
        5
 70
     0
 43
0.0
 10
1391701.48875537
 20
356011.846504145
 10
1391726.86604593
 20
356033.7324416201
 10
1391741.97043684
 20
356016.0207735361
 10
1391716.45102495
 20
355994.257993678
 10
1391701.48875537
 20
356011.846504145
  0
LWPOLYLINE
  5
CB
330
1C
100
AcDbEntity
  8
РОКН
370
    20
100
AcDbPolyline
 90
       10
 70
     0
 43
0.0
 10
1391590.065515
 20
355652.890484558
 10
1391577.81842402
 20
355650.521192667
 10
1391563.9090786
 20
355642.977106081
 10
1391556.46907883
 20
355637.6871084721
 10
1391541.73907809
 20
355621.1471142621
 10
1391538.8839716
 20
355608.24978345
 10
1391604.30858071
 20
355610.2309159451
 10
1391604.59907008
 20
355635.457099308
 10
1391597.7790716
 20
355637.197100353
 10
1391590.065515
 20
355652.890484558
  0
LWPOLYLINE
  5
CC
330
1C
100
AcDbEntity
  8
РОКН
370
    20
100
AcDbPolyline
 90
       75
 70
     0
 43
0.0
 10
1392028.40906491
 20
355978.2469559639
 10
1392023.50906426
 20
355970.736958235
 10
1391958.40907538
 20
355970.136971259
 10
1391916.28037775
 20
355954.829643726
 10
1391842.88321174
 20
355951.234910878
 10
1391842.29908829
 20
355934.5970004461
 10
1391854.03908623
 20
355918.277001458
 10
1391864.75012224
 20
355914.594799669
 10
1391878.63907694
 20
355908.5269977361
 10
1391896.19095698
 20
355902.012298182
 10
1391901.48001352
 20
355900.324646044
 10
1391902.5790296
 20
355890.9669233111
 10
1391917.66906547
 20
355884.726994105
 10
1391945.32906252
 20
355893.886987031
 10
1391960.26906154
 20
355901.9669826671
 10
1392000.0190584
 20
355920.746971538
 10
1392016.11905804
 20
355932.95696623
 10
1392018.11905761
 20
355932.546965908
 10
1392034.84191783
 20
355936.5938948071
 10
1392051.70613702
 20
355941.9159082839
 10
1392051.35378232
 20
355957.0779538201
 10
1392066.25905825
 20
355977.266948633
 10
1392085.35905521
 20
355978.9669445371
 10
1392118.29905351
 20
355999.076934523
 10
1392131.58275828
 20
356007.344286872
 10
1392147.29905225
 20
356017.9369255071
 10
1392181.11348982
 20
356014.7999362621
 10
1392191.44843178
 20
355997.391957759
 10
1392093.00502246
 20
355937.25201253
 10
1392100.05432799
 20
355928.253157354
 10
1392120.04879905
 20
355909.945866385
 10
1392126.14894289
 20
355920.594785014
 10
1392133.50908849
 20
355916.462238635
 10
1392168.01191273
 20
355914.682685899
 10
1392166.46860632
 20
355892.764282728
 10
1392167.70902387
 20
355892.676943099
 10
1392171.88902325
 20
355893.176942182
 10
1392178.02893257
 20
355895.476776384
 10
1392172.27546908
 20
355907.7594807471
 10
1392174.02061495
 20
355914.410940645
 10
1392230.97930893
 20
355947.844756231
 10
1392239.37901262
 20
355948.9269384271
 10
1392247.71908741
 20
355934.126960426
 10
1392265.90901725
 20
355944.7669146071
 10
1392254.12222154
 20
355968.3023216801
 10
1392268.79902315
 20
355977.046908456
 10
1392280.64902275
 20
355985.2869046851
 10
1392293.88857166
 20
355962.0962156861
 10
1392319.90900658
 20
355937.9969050621
 10
1392349.79899931
 20
355927.396900966
 10
1392362.08900011
 20
355942.106895975
 10
1392375.23919604
 20
355985.0635669621
 10
1392346.22726174
 20
355993.944900663
 10
1392339.20445335
 20
356013.108513227
 10
1392353.9359465
 20
356058.002305946
 10
1392408.02360917
 20
356081.6632132701
 10
1392422.22902482
 20
356119.0068534721
 10
1392401.05902988
 20
356126.0768564621
 10
1392375.08902644
 20
356086.1268685091
 10
1392352.47312529
 20
356100.556072504
 10
1392304.10853302
 20
356132.6461252701
 10
1392299.40904598
 20
356118.7568779071
 10
1392286.85829365
 20
356126.9282894261
 10
1392269.23938473
 20
356100.4453676061
 10
1392220.52038316
 20
356125.9026850529
 10
1392184.20241033
 20
356127.7553788591
 10
1392184.96011247
 20
356113.420936585
 10
1392175.31906568
 20
356110.036904041
 10
1392171.04906116
 20
356083.53690946
 10
1392165.96905957
 20
356071.1169126231
 10
1392152.15169283
 20
356046.516890764
 10
1392114.29657253
 20
356029.598530078
 10
1392088.13404136
 20
356036.299324031
 10
1392044.11906284
 20
355981.476952289
 10
1392028.40906491
 20
355978.2469559639
  0
LWPOLYLINE
  5
CD
330
1C
100
AcDbEntity
  8
РОКН
370
    20
100
AcDbPolyline
 90
       10
 70
     0
 43
0.0
 10
1392262.52117926
 20
356578.576109511
 10
1392336.70252994
 20
356583.5024004901
 10
1392356.64912444
 20
356563.976789621
 10
1392357.05912353
 20
356559.7367902781
 10
1392356.68912285
 20
356555.986790999
 10
1392349.58911846
 20
356527.656797299
 10
1392295.33985746
 20
356524.812653181
 10
1392259.4559204
 20
356516.330890852
 10
1392258.62371028
 20
356570.066638783
 10
1392262.52117926
 20
356578.576109511
  0
LWPOLYLINE
  5
CE
330
1C
100
AcDbEntity
  8
РОКН
370
    20
100
AcDbPolyline
 90
       10
 70
     0
 43
0.0
 10
1391616.19907551
 20
355672.917090534
 10
1391605.62907695
 20
355671.00709296
 10
1391577.94784334
 20
355672.0656160579
 10
1391552.86908963
 20
355688.937100333
 10
1391562.55848511
 20
355717.022969016
 10
1391580.93908909
 20
355710.707091003
 10
1391620.43893932
 20
355710.9621688861
 10
1391629.77257436
 20
355714.976688949
 10
1391639.47907383
 20
355684.71708387
 10
1391616.19907551
 20
355672.917090534
  0
LWPOLYLINE
  5
CF
330
1C
100
AcDbEntity
  8
РОКН
370
    20
100
AcDbPolyline
 90
       24
 70
     0
 43
0.0
 10
1393063.92906166
 20
356863.1965975291
 10
1393084.97905527
 20
356849.336595751
 10
1393152.63583231
 20
356837.8046984129
 10
1393181.18905078
 20
356910.4565660871
 10
1393202.98165495
 20
356981.472727448
 10
1393240.79675951
 20
356969.1047980771
 10
1393261.34488304
 20
357037.006193066
 10
1393274.28646014
 20
357087.5234378571
 10
1393268.3702328
 20
357090.2103399561
 10
1393289.07289008
 20
357138.0370564061
 10
1393253.02747223
 20
357158.198166528
 10
1393263.19572866
 20
357186.287227938
 10
1393253.94044335
 20
357189.969644714
 10
1393170.43960538
 20
357087.107046847
 10
1393211.09620021
 20
357071.9096640821
 10
1393197.76118242
 20
357031.918792089
 10
1393172.04563062
 20
357041.031585653
 10
1393177.87845839
 20
357058.5266795761
 10
1393148.25908804
 20
357069.5165451461
 10
1393139.71909081
 20
357076.0665457051
 10
1393135.17921442
 20
357069.811739694
 10
1393129.03089501
 20
357055.944854389
 10
1393066.29268702
 20
356871.47790574
 10
1393063.92906166
 20
356863.1965975291
  0
LWPOLYLINE
  5
DA
330
1C
100
AcDbEntity
  8
РОКН
370
    20
100
AcDbPolyline
 90
        5
 70
     0
 43
0.0
 10
1394371.57937461
 20
358960.255469951
 10
1394394.21864438
 20
359069.022356412
 10
1394367.9546305
 20
359075.01425684
 10
1394342.81493491
 20
358966.5566236761
 10
1394371.57937461
 20
358960.255469951
  0
LWPOLYLINE
  5
DB
330
1C
100
AcDbEntity
  8
РОКН
370
    20
100
AcDbPolyline
 90
       18
 70
     0
 43
0.0
 10
1394235.35920847
 20
358622.6260609811
 10
1394243.32920543
 20
358614.206060856
 10
1394248.89920306
 20
358607.0660609831
 10
1394260.28919813
 20
358592.166061298
 10
1394282.21919623
 20
358601.716055293
 10
1394303.94919515
 20
358615.1460486511
 10
1394322.88919452
 20
358628.436042594
 10
1394308.25919898
 20
358638.216043819
 10
1394306.83919945
 20
358639.346043898
 10
1394303.85920344
 20
358656.86604147
 10
1394301.77787951
 20
358658.5291774341
 10
1394282.87920846
 20
358663.93604441
 10
1394280.15920898
 20
358664.126044909
 10
1394277.39920935
 20
358663.596045557
 10
1394269.8792099
 20
358659.836047695
 10
1394264.98921018
 20
358656.9760491651
 10
1394255.73920924
 20
358644.2060532061
 10
1394235.35920847
 20
358622.6260609811
  0
LWPOLYLINE
  5
DE
330
1C
100
AcDbEntity
  8
РОКН
370
    20
100
AcDbPolyline
 90
       31
 70
     0
 43
0.0
 10
1393876.91104198
 20
358397.9350917751
 10
1393891.44916037
 20
358405.4568264861
 10
1393922.93922539
 20
358435.976155259
 10
1393919.35922763
 20
358444.076154567
 10
1393924.55922752
 20
358448.0861528251
 10
1393918.1792286
 20
358447.946154135
 10
1393897.78258429
 20
358465.8332877129
 10
1393869.08482965
 20
358443.0707670271
 10
1393844.8681527
 20
358474.5165361871
 10
1393858.05642646
 20
358487.1806771821
 10
1393854.51925146
 20
358507.736156443
 10
1393834.39217656
 20
358532.943870396
 10
1393825.73919506
 20
358522.9468198621
 10
1393823.17919475
 20
358519.196821049
 10
1393818.39919423
 20
358512.7868230701
 10
1393817.13919418
 20
358511.116823616
 10
1393794.46919423
 20
358491.976831614
 10
1393787.20919442
 20
358486.426834069
 10
1393782.91919441
 20
358482.866835558
 10
1393755.76419381
 20
358460.5317718791
 10
1393777.85046299
 20
358432.293769225
 10
1393805.27918506
 20
358454.726835876
 10
1393820.81924925
 20
358467.236170128
 10
1393828.36924702
 20
358462.606169434
 10
1393847.35923861
 20
358436.756170128
 10
1393860.7292331
 20
358420.586170269
 10
1393860.88269866
 20
358417.497384549
 10
1393865.48923055
 20
358411.92617082
 10
1393869.81922887
 20
358407.216170774
 10
1393875.39922643
 20
358399.78617095
 10
1393876.91104198
 20
358397.9350917751
  0
LWPOLYLINE
  5
E1
330
1C
100
AcDbEntity
  8
РОКН
370
    20
100
AcDbPolyline
 90
       14
 70
     0
 43
0.0
 10
1394155.85169795
 20
358533.118840438
 10
1394172.22001231
 20
358504.628283535
 10
1394182.69919579
 20
358512.846090404
 10
1394194.71919472
 20
358517.56608724
 10
1394197.60919445
 20
358519.076086366
 10
1394225.21185054
 20
358538.819403863
 10
1394231.51919334
 20
358542.9760755051
 10
1394235.5591951
 20
358555.426072554
 10
1394229.68017631
 20
358567.473220413
 10
1394191.8378397
 20
358550.2639253621
 10
1394171.05874605
 20
358538.2977689221
 10
1394159.44920391
 20
358533.536091441
 10
1394155.85169795
 20
358533.118840438
 10
1394155.85169795
 20
358533.118840438
  0
LWPOLYLINE
  5
E6
330
1C
100
AcDbEntity
  8
РОКН
370
    20
100
AcDbPolyline
 90
       27
 70
     0
 43
0.0
 10
1394447.14927806
 20
359157.555926493
 10
1394476.60927152
 20
359150.245921911
 10
1394477.54927216
 20
359154.2759210301
 10
1394481.86927117
 20
359153.0659203851
 10
1394500.09596275
 20
359148.5758524591
 10
1394503.98760227
 20
359147.61716359
 10
1394516.89391799
 20
359199.92198481
 10
1394532.35928484
 20
359265.8758908661
 10
1394541.61129144
 20
359304.2144720871
 10
1394436.05925017
 20
359331.106554129
 10
1394429.96400271
 20
359332.415940632
 10
1394423.69924686
 20
359303.356561456
 10
1394427.91924592
 20
359302.466560695
 10
1394439.81924332
 20
359299.936558689
 10
1394445.61924209
 20
359298.5665577091
 10
1394440.25923837
 20
359275.166562933
 10
1394438.43923854
 20
359274.436563441
 10
1394470.71638858
 20
359266.8641977911
 10
1394469.97923096
 20
359263.616558761
 10
1394468.96922923
 20
359254.0465605701
 10
1394467.86922832
 20
359248.7365617421
 10
1394465.91922879
 20
359249.136562098
 10
1394462.19922554
 20
359229.666566176
 10
1394460.72803656
 20
359213.319157695
 10
1394450.33928032
 20
359171.7159234161
 10
1394447.73927875
 20
359161.5659256911
 10
1394447.14927806
 20
359157.555926493
  0
LWPOLYLINE
  5
E7
330
1C
100
AcDbEntity
  8
РОКН
370
    20
100
AcDbPolyline
 90
        8
 70
     0
 43
0.0
 10
1394631.30217532
 20
359076.1121267071
 10
1394645.36349691
 20
359139.0413619521
 10
1394638.8865758
 20
359140.641607113
 10
1394600.47094791
 20
359150.132909828
 10
1394595.23924703
 20
359130.1159018421
 10
1394592.21924485
 20
359116.505904793
 10
1394584.8496366
 20
359086.9063619911
 10
1394631.30217532
 20
359076.1121267071
  0
LWPOLYLINE
  5
EA
330
1C
100
AcDbEntity
  8
РОКН
370
    20
100
AcDbPolyline
 90
       10
 70
     0
 43
0.0
 10
1394640.72903654
 20
359008.796964612
 10
1394670.73419133
 20
359002.98460072
 10
1394684.5347265
 20
359054.386193124
 10
1394695.0842822
 20
359110.3848729671
 10
1394698.06356378
 20
359126.1993702801
 10
1394664.61792735
 20
359133.017767425
 10
1394661.50308271
 20
359119.396363689
 10
1394654.37922689
 20
359080.135898729
 10
1394646.67922037
 20
359040.515907108
 10
1394640.72903654
 20
359008.796964612
  0
LWPOLYLINE
  5
EE
330
1C
100
AcDbEntity
  8
РОКН
370
    20
100
AcDbPolyline
 90
       27
 70
     0
 43
0.0
 10
1394351.73937023
 20
359538.885879548
 10
1394339.69934569
 20
359528.7107451071
 10
1394325.92936874
 20
359508.955889846
 10
1394306.44936873
 20
359491.945896649
 10
1394304.05755674
 20
359487.63855791
 10
1394312.46874939
 20
359481.7769383461
 10
1394289.64929839
 20
359446.8065644271
 10
1394298.64929487
 20
359437.036564213
 10
1394319.04907867
 20
359442.4574785111
 10
1394327.01914311
 20
359458.4255669761
 10
1394343.54208048
 20
359465.4627367621
 10
1394375.16827167
 20
359474.1830237421
 10
1394452.96584016
 20
359480.7020602571
 10
1394502.2723563
 20
359473.9120209541
 10
1394528.50932661
 20
359472.985855837
 10
1394532.91476332
 20
359473.716265324
 10
1394553.40503949
 20
359493.911841945
 10
1394571.79999185
 20
359546.100210263
 10
1394574.74934037
 20
359582.5858277239
 10
1394552.39335792
 20
359599.6443112971
 10
1394505.31757806
 20
359580.969200115
 10
1394503.85314213
 20
359561.218640795
 10
1394486.34035192
 20
359554.7487320729
 10
1394422.21739113
 20
359545.115561843
 10
1394411.8293611
 20
359545.215866524
 10
1394373.28936742
 20
359543.4958744711
 10
1394351.73937023
 20
359538.885879548
  0
LWPOLYLINE
  5
EF
330
1C
100
AcDbEntity
  8
РОКН
370
    20
100
AcDbPolyline
 90
        5
 70
     0
 43
0.0
 10
1393112.18810944
 20
357447.2085682361
 10
1393058.0414903
 20
357398.978579361
 10
1393051.31728775
 20
357407.0366935441
 10
1393092.32415568
 20
357464.650759235
 10
1393112.18810944
 20
357447.2085682361
  0
LWPOLYLINE
  5
116
330
1C
100
AcDbEntity
  8
РОКН
370
    20
100
AcDbPolyline
 90
        5
 70
     0
 43
0.0
 10
1393112.18810944
 20
357447.2085682361
 10
1393058.0414903
 20
357398.978579361
 10
1393051.31728775
 20
357407.0366935441
 10
1393092.32415568
 20
357464.650759235
 10
1393112.18810944
 20
357447.2085682361
  0
LWPOLYLINE
  5
1D6
330
1C
100
AcDbEntity
  8
РОКН
370
    20
100
AcDbPolyline
 90
       25
 70
     0
 43
0.0
 10
1397351.9842663
 20
359631.016972873
 10
1397355.46886938
 20
359630.015267415
 10
1397362.01886854
 20
359631.50526636
 10
1397386.06199049
 20
359619.655442156
 10
1397415.0088554
 20
359611.425259303
 10
1397457.04545627
 20
359607.561928509
 10
1397455.79884281
 20
359583.475255541
 10
1397454.18127033
 20
359575.487802385
 10
1397432.80885704
 20
359575.2006410361
 10
1397414.8574654
 20
359576.064546926
 10
1397420.70717903
 20
359575.783031037
 10
1397420.92884749
 20
359576.685263634
 10
1397421.64884772
 20
359578.485263185
 10
1397423.38884961
 20
359589.505260938
 10
1397423.5388502
 20
359592.6252603601
 10
1397424.84885125
 20
359599.095258988
 10
1397425.65431762
 20
359603.083405533
 10
1397411.7388552
 20
359607.535260123
 10
1397408.10885531
 20
359604.9652612911
 10
1397405.72885456
 20
359599.045262792
 10
1397401.0388534
 20
359589.15526543
 10
1397398.16885213
 20
359580.235267539
 10
1397389.33703486
 20
359581.080309818
 10
1397340.15471406
 20
359596.039063998
 10
1397351.9842663
 20
359631.016972873
  0
LWPOLYLINE
  5
1D9
330
1C
100
AcDbEntity
  8
РОКН
370
    20
100
AcDbPolyline
 90
       20
 70
     0
 43
0.0
 10
1395142.39938105
 20
360281.545594226
 10
1395141.19110313
 20
360276.790790026
 10
1395138.13937839
 20
360264.435598034
 10
1395133.0257719
 20
360265.779851477
 10
1395132.45937916
 20
360263.3655993421
 10
1395129.89854886
 20
360264.032408844
 10
1395127.07937807
 20
360253.2056021701
 10
1395121.92937504
 20
360233.4656066011
 10
1395120.73408581
 20
360228.120127525
 10
1395115.06762625
 20
360202.440568323
 10
1395117.03906018
 20
360199.1099913141
 10
1395113.11137051
 20
360183.8764036771
 10
1395111.78660113
 20
360178.339472689
 10
1395110.75066154
 20
360173.668527474
 10
1395142.30674802
 20
360166.319365499
 10
1395146.48425702
 20
360168.5038128561
 10
1395173.86830528
 20
360277.522960296
 10
1395138.809382689
 20
360286.6855940551
 10
1395137.89938205
 20
360282.685594929
 10
1395142.39938105
 20
360281.545594226
  0
LWPOLYLINE
  5
1DA
330
1C
100
AcDbEntity
  8
РОКН
370
    20
100
AcDbPolyline
 90
       10
 70
     0
 43
0.0
 10
1395036.21939973
 20
360283.2356150179
 10
1395041.66939854
 20
360282.025614149
 10
1395068.37939275
 20
360276.055609873
 10
1395069.02939308
 20
360278.275609363
 10
1395071.19589855
 20
360287.1159897571
 10
1395074.00939624
 20
360298.575604863
 10
1395075.31295437
 20
360303.320011014
 10
1395027.02792997
 20
360315.38429967
 10
1395020.30941201
 20
360287.284219879
 10
1395036.21939973
 20
360283.2356150179
  0
LWPOLYLINE
  5
1DB
330
1C
100
AcDbEntity
  8
РОКН
370
    20
100
AcDbPolyline
 90
       40
 70
     0
 43
0.0
 10
1397840.14354851
 20
359353.9357567621
 10
1397869.05872583
 20
359353.915213175
 10
1397869.08872557
 20
359352.5552133991
 10
1397869.17872437
 20
359346.645214396
 10
1397869.5087219
 20
359334.485216435
 10
1397869.71872036
 20
359326.8952177111
 10
1397869.87871958
 20
359323.0752183321
 10
1397878.20871808
 20
359322.785216728
 10
1398018.58179706
 20
359315.3562461021
 10
1398018.06415819
 20
359304.886329123
 10
1398064.53120977
 20
359302.119784599
 10
1398112.53273142
 20
359299.261880798
 10
1398167.13128834
 20
359296.9501615871
 10
1398167.70866495
 20
359307.105161961
 10
1398195.216254
 20
359307.157851924
 10
1398194.97204152
 20
359334.7646662591
 10
1398227.24865952
 20
359331.6351459001
 10
1398224.1489468
 20
359259.903839959
 10
1398212.64904029
 20
359178.776153294
 10
1398211.6586319
 20
359178.915175396
 10
1398183.58863723
 20
359181.255180566
 10
1398154.81864253
 20
359182.935185993
 10
1398112.23865038
 20
359185.445194014
 10
1398099.57308618
 20
359186.2792339761
 10
1398030.38428762
 20
359188.941643224
 10
1398029.28866427
 20
359183.1752108661
 10
1398025.62866072
 20
359162.1352152291
 10
1398025.72865878
 20
359152.43521689
 10
1398023.84865912
 20
359152.5052172501
 10
1398023.68162583
 20
359143.723328479
 10
1397932.88353692
 20
359151.249780738
 10
1397932.15971311
 20
359137.4924497561
 10
1397891.32137915
 20
359138.7931815429
 10
1397892.38026863
 20
359154.691812705
 10
1397831.80208399
 20
359153.2101740551
 10
1397833.52863548
 20
359185.39587714
 10
1397822.65863754
 20
359186.185879284
 10
1397828.88641772
 20
359310.922023113
 10
1397831.52094558
 20
359353.738201997
 10
1397840.14354851
 20
359353.9357567621
  0
LWPOLYLINE
  5
1DC
330
1C
100
AcDbEntity
  8
РОКН
370
    20
100
AcDbPolyline
 90
       13
 70
     0
 43
0.0
 10
1396110.02291857
 20
359653.2475409571
 10
1396081.46591447
 20
359643.138938817
 10
1396080.66786672
 20
359645.5081579921
 10
1396016.03909995
 20
359625.735534102
 10
1395998.36911325
 20
359677.365528679
 10
1395987.59911755
 20
359689.655528695
 10
1395993.18912119
 20
359712.845523577
 10
1396025.5591182
 20
359725.915514894
 10
1396045.77522885
 20
359733.491140415
 10
1396055.56904566
 20
359707.4161543611
 10
1396061.42115814
 20
359687.5184127111
 10
1396093.18903744
 20
359698.506148096
 10
1396110.02291857
 20
359653.2475409571
  0
LWPOLYLINE
  5
1DD
330
1C
100
AcDbEntity
  8
РОКН
370
    20
100
AcDbPolyline
 90
       10
 70
     0
 43
0.0
 10
1395851.24196424
 20
359814.137221074
 10
1395872.15909106
 20
359808.610241058
 10
1395866.05345341
 20
359781.2841232979
 10
1395870.492784
 20
359780.269191088
 10
1395867.71349072
 20
359757.300435405
 10
1395861.41639747
 20
359728.3526101811
 10
1395863.28844399
 20
359724.424340084
 10
1395853.90521653
 20
359719.952692925
 10
1395829.8411238
 20
359725.0814421951
 10
1395851.24196424
 20
359814.137221074
  0
LWPOLYLINE
  5
1DE
330
1C
100
AcDbEntity
  8
РОКН
370
    20
100
AcDbPolyline
 90
       15
 70
     0
 43
0.0
 10
1395856.19655122
 20
359834.0624662671
 10
1395881.71884456
 20
359828.176109129
 10
1395912.68915657
 20
359821.0355208611
 10
1395929.8691527
 20
359816.485518246
 10
1395934.41915144
 20
359814.0755177571
 10
1395939.40914984
 20
359810.3555174001
 10
1395942.84239098
 20
359803.588366154
 10
1395919.59459272
 20
359808.814684039
 10
1395916.58153974
 20
359796.255293925
 10
1395909.63440248
 20
359797.702727294
 10
1395900.26915446
 20
359799.595527033
 10
1395876.40915978
 20
359805.605530731
 10
1395880.23283572
 20
359821.7848558851
 10
1395854.59605931
 20
359828.083078034
 10
1395856.19655122
 20
359834.0624662671
  0
LWPOLYLINE
  5
1DF
330
1C
100
AcDbEntity
  8
РОКН
370
    20
100
AcDbPolyline
 90
       44
 70
     0
 43
0.0
 10
1396873.02889205
 20
359643.515996455
 10
1396884.55525291
 20
359642.546896415
 10
1396933.92203428
 20
359626.8479406601
 10
1396980.86070695
 20
359611.654997147
 10
1396988.53075466
 20
359608.207644634
 10
1397045.74868793
 20
359567.249238382
 10
1397097.86703577
 20
359528.756899474
 10
1397111.97305977
 20
359520.388175969
 10
1397132.81882042
 20
359508.165966222
 10
1397131.14881971
 20
359503.3459674071
 10
1397125.27881717
 20
359485.2059717611
 10
1397124.60881682
 20
359483.165972148
 10
1397124.38881672
 20
359482.505972349
 10
1397121.41881745
 20
359483.4759728261
 10
1397116.09881496
 20
359466.4059768351
 10
1397097.82881928
 20
359472.055979663
 10
1397092.23881602
 20
359450.9059844821
 10
1397084.69888261
 20
359460.925350404
 10
1397062.1788903
 20
359480.105351558
 10
1397048.96889479
 20
359491.195352261
 10
1397016.80890455
 20
359512.3853549871
 10
1397005.00890835
 20
359521.225355805
 10
1396994.70891173
 20
359529.315356454
 10
1396990.528913
 20
359532.095356796
 10
1396975.73891778
 20
359543.315357797
 10
1396971.14891921
 20
359546.4953581571
 10
1396967.23892106
 20
359552.415357907
 10
1396961.74892264
 20
359555.595358445
 10
1396969.30710045
 20
359569.700701693
 10
1396957.01892762
 20
359576.585355768
 10
1396922.75893694
 20
359593.7253596061
 10
1396909.34893429
 20
359568.69536659
 10
1396904.75887232
 20
359571.5360023311
 10
1396901.44887333
 20
359573.8460026311
 10
1396893.98887586
 20
359580.196003127
 10
1396890.46887717
 20
359583.886003169
 10
1396885.82887931
 20
359590.316003068
 10
1396881.63888148
 20
359597.9060026111
 10
1396878.3588835
 20
359604.856002036
 10
1396877.51888429
 20
359608.2660016131
 10
1396875.83888619
 20
359616.2860006351
 10
1396875.37888797
 20
359624.8559992261
 10
1396873.52889015
 20
359634.485997909
 10
1396873.02889205
 20
359643.515996455
  0
LWPOLYLINE
  5
1E0
330
1C
100
AcDbEntity
  8
РОКН
370
    20
100
AcDbPolyline
 90
       15
 70
     0
 43
0.0
 10
1397569.96001894
 20
359383.169630752
 10
1397618.98870911
 20
359369.825889683
 10
1397621.73858357
 20
359368.327150014
 10
1397635.75876749
 20
359360.685258316
 10
1397635.35870404
 20
359358.375888269
 10
1397631.7787021
 20
359345.61589122
 10
1397625.77869887
 20
359324.435896039
 10
1397621.93869719
 20
359312.635898869
 10
1397604.28876478
 20
359319.6252716661
 10
1397568.1454988
 20
359330.1073745211
 10
1397557.9087767
 20
359339.2552774761
 10
1397559.82409749
 20
359351.8305032
 10
1397561.99877925
 20
359355.7152738191
 10
1397569.64878319
 20
359382.19526773
 10
1397569.96001894
 20
359383.169630752
  0
LWPOLYLINE
  5
1E2
330
1C
100
AcDbEntity
  8
РОКН
370
    20
100
AcDbPolyline
 90
       17
 70
     0
 43
0.0
 10
1397029.98892006
 20
359602.0053368861
 10
1397040.25892368
 20
359629.195330143
 10
1397045.01892675
 20
359648.785325815
 10
1397005.23893614
 20
359661.455331524
 10
1396988.35894018
 20
359667.115333893
 10
1396992.14675446
 20
359676.52739428
 10
1396984.12894346
 20
359679.955332509
 10
1396988.50894539
 20
359693.5253292971
 10
1396985.91627853
 20
359694.326699628
 10
1396987.50894669
 20
359699.205328515
 10
1396893.06896909
 20
359729.835341966
 10
1396889.34211561
 20
359730.677217263
 10
1396869.59609635
 20
359676.168531455
 10
1396872.47911956
 20
359668.876862934
 10
1396992.07564347
 20
359627.227680515
 10
1397028.77474346
 20
359599.45649245
 10
1397029.98892006
 20
359602.0053368861
  0
LWPOLYLINE
  5
1E3
330
1C
100
AcDbEntity
  8
РОКН
370
    20
100
AcDbPolyline
 90
       41
 70
     0
 43
0.0
 10
1397498.60880364
 20
359423.3752747101
 10
1397501.12880492
 20
359432.035272712
 10
1397503.24880441
 20
359431.325272412
 10
1397508.1088069
 20
359448.105268547
 10
1397485.62881208
 20
359454.6352718911
 10
1397487.37881298
 20
359460.6352705091
 10
1397485.10881631
 20
359475.455268393
 10
1397484.40156006
 20
359484.298794363
 10
1397425.15828142
 20
359502.256888211
 10
1397415.80802169
 20
359468.9660149471
 10
1397342.50598662
 20
359490.785877224
 10
1397344.81551127
 20
359499.5698165031
 10
1397347.78910717
 20
359510.879454861
 10
1397251.94744915
 20
359536.473371365
 10
1397253.73886981
 20
359543.5953025471
 10
1397256.41887153
 20
359554.585300115
 10
1397267.67886899
 20
359551.615298399
 10
1397271.14887104
 20
359564.9552954041
 10
1397283.69973126
 20
359571.669052433
 10
1397291.8632135
 20
359596.6628586661
 10
1397285.1950358
 20
359599.6425338851
 10
1397218.39889209
 20
359625.095295484
 10
1397175.90890218
 20
359638.965301518
 10
1397172.75890287
 20
359639.6853020201
 10
1397140.94993348
 20
359649.508390519
 10
1397134.41890784
 20
359631.3553110721
 10
1397120.13911254
 20
359587.5887614261
 10
1397120.13911254
 20
359587.5887614261
 10
1397101.9341545
 20
359597.276965204
 10
1397095.94890526
 20
359584.845326745
 10
1397081.41890989
 20
359595.5253277871
 10
1397074.13890868
 20
359583.1153313811
 10
1397066.42890794
 20
359572.6653347211
 10
1397096.96889817
 20
359550.0153325611
 10
1397095.23373801
 20
359547.7480587471
 10
1397114.11216438
 20
359535.8162551729
 10
1397145.18214226
 20
359522.9898539221
 10
1397200.23106153
 20
359505.77916726
 10
1397408.95692031
 20
359444.6263430071
 10
1397497.84360638
 20
359420.596652571
 10
1397498.60880364
 20
359423.3752747101
  0
LWPOLYLINE
  5
1E4
330
1C
100
AcDbEntity
  8
РОКН
370
    20
100
AcDbPolyline
 90
       14
 70
     0
 43
0.0
 10
1399016.41120559
 20
359328.001782199
 10
1399012.72425441
 20
359284.545811187
 10
1399015.90144862
 20
359275.1081021921
 10
1399032.18850711
 20
359264.584997679
 10
1399147.37105958
 20
359189.55411614
 10
1399163.58847337
 20
359208.994981198
 10
1399178.94847504
 20
359230.7549743929
 10
1399189.94167032
 20
359250.387492389
 10
1399186.34949756
 20
359275.7385843761
 10
1399184.06582429
 20
359296.0854980461
 10
1399176.01645818
 20
359342.5300052971
 10
1399161.68484772
 20
359341.063960996
 10
1399053.84311168
 20
359330.0323509561
 10
1399016.41120559
 20
359328.001782199
  0
LWPOLYLINE
  5
1E5
330
1C
100
AcDbEntity
  8
РОКН
370
    20
100
AcDbPolyline
 90
       13
 70
     0
 43
0.0
 10
1395950.69799678
 20
359509.257270971
 10
1396044.08924737
 20
359525.045851343
 10
1396173.27309871
 20
359568.8015268351
 10
1396155.40684355
 20
359618.43746485
 10
1396060.26885598
 20
359587.548038393
 10
1396052.17908725
 20
359593.185532552
 10
1396043.8228522
 20
359620.4454917951
 10
1396012.90909747
 20
359610.505537352
 10
1395975.60568515
 20
359597.892404933
 10
1395955.54907028
 20
359589.865703895
 10
1395957.61646894
 20
359563.060091929
 10
1395950.42830979
 20
359563.058134045
 10
1395950.69799678
 20
359509.257270971
  0
LWPOLYLINE
  5
1E6
330
1C
100
AcDbEntity
  8
РОКН
370
    20
100
AcDbPolyline
 90
       14
 70
     0
 43
0.0
 10
1394913.70505451
 20
360210.5706043551
 10
1394909.80840257
 20
360208.589688529
 10
1394898.40282864
 20
360161.72744537
 10
1394893.00939348
 20
360127.0856704411
 10
1394922.77938696
 20
360120.175665724
 10
1394945.40938376
 20
360123.71566062
 10
1394977.38797381
 20
360130.122675935
 10
1395045.72104731
 20
360143.767743555
 10
1395093.64598309
 20
360153.616174415
 10
1395091.08465142
 20
360166.752742393
 10
1395054.35291622
 20
360175.42674076
 10
1395020.23424706
 20
360184.1142393811
 10
1394964.25746967
 20
360198.6219436051
 10
1394913.70505451
 20
360210.5706043551
  0
LWPOLYLINE
  5
1E7
330
1C
100
AcDbEntity
  8
РОКН
370
    20
100
AcDbPolyline
 90
       37
 70
     0
 43
0.0
 10
1394955.60936196
 20
360022.815676023
 10
1394951.98936051
 20
360012.385678543
 10
1394952.05898973
 20
360007.8810360371
 10
1395074.71810771
 20
359976.961846285
 10
1395075.57933287
 20
359980.665659487
 10
1395080.06933554
 20
359998.0256556011
 10
1395079.61295768
 20
360001.0270508921
 10
1395085.32369844
 20
360023.746851301
 10
1395108.3181607
 20
360017.836180689
 10
1395111.46623197
 20
360017.07140724
 10
1395118.24448554
 20
360045.132537185
 10
1395115.18933897
 20
360045.8556403579
 10
1395101.11934173
 20
360047.5156428629
 10
1395098.03934242
 20
360048.305643337
 10
1395095.1893427
 20
360047.23564409
 10
1395081.49632701
 20
360041.3071397271
 10
1395080.25934295
 20
360035.4756490951
 10
1395065.97048245
 20
360038.7825417671
 10
1395064.94934542
 20
360034.645652273
 10
1395060.80934358
 20
360021.72565533
 10
1395043.7693474
 20
360026.15565795
 10
1395041.04934522
 20
360012.815660789
 10
1395028.84934783
 20
360015.3656627801
 10
1395030.48934888
 20
360022.055661288
 10
1395022.28935066
 20
360023.905662603
 10
1395005.32935421
 20
360027.045665427
 10
1395011.03935882
 20
360055.185659427
 10
1395006.92936376
 20
360076.565656548
 10
1395008.02936526
 20
360085.035654864
 10
1395019.82936357
 20
360086.785652223
 10
1395015.66937158
 20
360123.5156466961
 10
1394989.49029016
 20
360118.934556304
 10
1394947.73938062
 20
360109.9456625301
 10
1394932.17938261
 20
360106.4556662301
 10
1394937.80937657
 20
360080.955669519
 10
1394941.32751529
 20
360081.680196354
 10
1394955.60936196
 20
360022.815676023
  0
LWPOLYLINE
  5
1E8
330
1C
100
AcDbEntity
  8
РОКН
370
    20
100
AcDbPolyline
 90
       41
 70
     0
 43
0.0
 10
1395189.25357129
 20
360275.698424196
 10
1395193.27324987
 20
360291.430237619
 10
1395206.87242616
 20
360345.444348849
 10
1395210.49938181
 20
360344.655569801
 10
1395240.35834573
 20
360338.165456608
 10
1395256.49937292
 20
360339.875561494
 10
1395255.93769558
 20
360337.916901533
 10
1395248.78936886
 20
360312.725567719
 10
1395246.86265561
 20
360313.231689823
 10
1395239.3775726
 20
360279.794147959
 10
1395227.30984524
 20
360283.479643623
 10
1395224.05389074
 20
360284.2825074161
 10
1395220.8907802
 20
360271.454748329
 10
1395219.93967506
 20
360267.678125298
 10
1395212.83465359
 20
360239.46570002
 10
1395221.64935859
 20
360237.355586134
 10
1395231.22935635
 20
360234.395584742
 10
1395245.37858956
 20
360230.0365756811
 10
1395244.99935286
 20
360228.805582974
 10
1395247.23935234
 20
360228.165582631
 10
1395240.03934833
 20
360201.675588641
 10
1395237.81911313
 20
360194.3678699861
 10
1395249.06592345
 20
360191.152158923
 10
1395254.33077563
 20
360190.0343778621
 10
1395255.80568904
 20
360197.155835125
 10
1395262.58201832
 20
360201.078478808
 10
1395272.68143547
 20
360198.559456212
 10
1395290.31421924
 20
360194.161441782
 10
1395311.23188766
 20
360189.372346313
 10
1395310.73933307
 20
360186.295577261
 10
1395308.0593312
 20
360174.565579823
 10
1395296.40933176
 20
360167.275583395
 10
1395295.3693311
 20
360163.025584334
 10
1395279.79724979
 20
360158.707411625
 10
1395274.67459453
 20
360137.1915938579
 10
1395226.58934018
 20
360148.875600439
 10
1395167.73735512
 20
360162.737852885
 10
1395163.22947536
 20
360169.689009574
 10
1395175.57230367
 20
360220.981720753
 10
1395181.70474292
 20
360246.8478124861
 10
1395189.25357129
 20
360275.698424196
  0
LWPOLYLINE
  5
1E9
330
1C
100
AcDbEntity
  8
РОКН
370
    20
100
AcDbPolyline
 90
       26
 70
     0
 43
0.0
 10
1395313.91912604
 20
360250.290674874
 10
1395359.42933513
 20
360239.135558464
 10
1395400.38932616
 20
360229.5355519891
 10
1395442.73925282
 20
360218.646192708
 10
1395474.12874493
 20
360210.522829165
 10
1395509.64641166
 20
360202.0255188401
 10
1395515.59367464
 20
360228.410239573
 10
1395521.71991886
 20
360226.9566362171
 10
1395528.90643645
 20
360260.280876654
 10
1395523.06918672
 20
360261.574969268
 10
1395499.6926121
 20
360268.269645933
 10
1395492.96918092
 20
360270.194977382
 10
1395490.08722451
 20
360274.6151292801
 10
1395446.18545176
 20
360284.626746944
 10
1395441.15146359
 20
360273.958552059
 10
1395422.65950714
 20
360277.5664253111
 10
1395415.99919492
 20
360273.7749920481
 10
1395409.28988454
 20
360275.434822848
 10
1395409.3591944
 20
360275.7149847221
 10
1395403.32919781
 20
360277.274993957
 10
1395399.68956544
 20
360276.631742328
 10
1395361.85441514
 20
360284.66566446
 10
1395359.64647407
 20
360278.655228809
 10
1395322.71144605
 20
360288.410070721
 10
1395315.95934639
 20
360257.975563839
 10
1395313.91912604
 20
360250.290674874
  0
LWPOLYLINE
  5
1EA
330
1C
100
AcDbEntity
  8
РОКН
370
    20
100
AcDbPolyline
 90
       11
 70
     0
 43
0.0
 10
1395970.99984283
 20
359836.167029065
 10
1395963.52163946
 20
359795.056538682
 10
1395971.57429868
 20
359771.7712602829
 10
1395985.72913516
 20
359776.7455140171
 10
1396008.71164793
 20
359784.954195255
 10
1396007.0981393
 20
359788.938575944
 10
1396008.35913476
 20
359794.405506478
 10
1396007.2291373
 20
359806.215504653
 10
1396003.97914186
 20
359826.355501825
 10
1395995.64914692
 20
359844.645500313
 10
1395970.99984283
 20
359836.167029065
  0
LWPOLYLINE
  5
1EB
330
1C
100
AcDbEntity
  8
РОКН
370
    20
100
AcDbPolyline
 90
        9
 70
     0
 43
0.0
 10
1394734.30887733
 20
360274.365048893
 10
1394793.58696529
 20
360258.634253302
 10
1394802.28944263
 20
360295.785659304
 10
1394803.71888965
 20
360302.7663103821
 10
1394769.9594253
 20
360311.3561814311
 10
1394766.42900714
 20
360296.920484741
 10
1394764.21181153
 20
360289.6751220271
 10
1394739.93013951
 20
360295.97118655
 10
1394734.30887733
 20
360274.365048893
  0
LWPOLYLINE
  5
1EC
330
1C
100
AcDbEntity
  8
РОКН
370
    20
100
AcDbPolyline
 90
       26
 70
     0
 43
0.0
 10
1394745.44936173
 20
360161.7563466601
 10
1394764.11941798
 20
360138.385694079
 10
1394776.03941322
 20
360124.805694053
 10
1394788.45940781
 20
360108.285694448
 10
1394794.22940573
 20
360102.8956942321
 10
1394791.90940502
 20
360097.235695673
 10
1394788.04940598
 20
360098.735696178
 10
1394787.22940569
 20
360096.555696716
 10
1394774.54129618
 20
360101.400641036
 10
1394770.0794073
 20
360089.7157013061
 10
1394770.80940711
 20
360089.43570121
 10
1394770.13940664
 20
360086.465701853
 10
1394769.13940616
 20
360083.225702614
 10
1394768.49940578
 20
360080.725703165
 10
1394756.77940846
 20
360084.025704928
 10
1394753.89117862
 20
360081.509786934
 10
1394748.14650469
 20
360060.956885583
 10
1394712.55934939
 20
360071.026369176
 10
1394717.22935203
 20
360088.276365195
 10
1394722.46935085
 20
360086.8763643801
 10
1394723.2820285
 20
360090.286570259
 10
1394726.37941515
 20
360091.305709703
 10
1394730.04935313
 20
360104.8463597641
 10
1394734.5794195
 20
360120.3457030611
 10
1394735.58935581
 20
360123.306355435
 10
1394745.44936173
 20
360161.7563466601
  0
LWPOLYLINE
  5
1EE
330
1C
100
AcDbEntity
  8
РОКН
370
    20
100
AcDbPolyline
 90
       19
 70
     0
 43
0.0
 10
1394857.63657161
 20
360062.707542854
 10
1394894.76122144
 20
360213.717979636
 10
1394893.41792794
 20
360216.420018478
 10
1394868.16775872
 20
360223.063689389
 10
1394867.44858731
 20
360220.0746747421
 10
1394866.72941587
 20
360217.085660099
 10
1394862.2794129
 20
360198.265664234
 10
1394858.81114262
 20
360183.53719204
 10
1394862.73940981
 20
360183.035666776
 10
1394859.56940846
 20
360173.505669058
 10
1394852.95940478
 20
360149.235674563
 10
1394842.2994046
 20
360139.015678445
 10
1394840.66818579
 20
360133.8420099111
 10
1394824.45019031
 20
360140.152757933
 10
1394811.50594095
 20
360130.347309389
 10
1394813.03587017
 20
360128.4380523561
 10
1394844.99939278
 20
360081.795687799
 10
1394857.6360811
 20
360062.705155143
 10
1394857.63657161
 20
360062.707542854
  0
LWPOLYLINE
  5
1EF
330
1C
100
AcDbEntity
  8
РОКН
370
    20
100
AcDbPolyline
 90
       53
 70
     0
 43
0.0
 10
1396621.07310419
 20
359714.145930539
 10
1396710.26128297
 20
359700.665969586
 10
1396728.18881136
 20
359696.258614323
 10
1396796.65258654
 20
359673.795523772
 10
1396796.23984403
 20
359672.537553159
 10
1396795.71891079
 20
359670.936007739
 10
1396792.1389103
 20
359665.096009458
 10
1396763.59897414
 20
359642.595382749
 10
1396758.89891117
 20
359640.546020568
 10
1396756.18895746
 20
359642.315991076
 10
1396756.10897582
 20
359644.555383911
 10
1396746.40879941
 20
359644.175378923
 10
1396742.1640383
 20
359620.415799858
 10
1396740.14897232
 20
359612.975392532
 10
1396737.09913404
 20
359602.005983198
 10
1396724.44897339
 20
359604.715397073
 10
1396725.29866943
 20
359606.395557666
 10
1396718.34891203
 20
359610.0760342161
 10
1396717.88891209
 20
359609.446034446
 10
1396703.18891629
 20
359618.0360359911
 10
1396702.58891627
 20
359617.256036193
 10
1396658.79892881
 20
359642.71604091
 10
1396660.15893086
 20
359654.046038624
 10
1396639.27899876
 20
359658.365404716
 10
1396610.66894123
 20
359663.586047258
 10
1396598.78268167
 20
359665.3007459321
 10
1396593.61145324
 20
359669.162320803
 10
1396593.74894565
 20
359670.876049475
 10
1396588.42901013
 20
359671.44541255
 10
1396588.69901051
 20
359673.595412119
 10
1396583.21901149
 20
359673.765413186
 10
1396562.49895172
 20
359674.276055322
 10
1396555.12901457
 20
359664.805420309
 10
1396548.85901711
 20
359672.105420294
 10
1396516.03902014
 20
359658.835429098
 10
1396503.36901987
 20
359646.445433756
 10
1396502.16901953
 20
359643.715434468
 10
1396500.62901865
 20
359637.885435778
 10
1396498.63901791
 20
359632.4154371221
 10
1396484.93901882
 20
359625.1154411
 10
1396465.83913767
 20
359618.2732102311
 10
1396467.28895618
 20
359614.226085399
 10
1396419.6889612
 20
359597.876098045
 10
1396417.27896162
 20
359597.806098509
 10
1396388.81896453
 20
359588.1961060801
 10
1396381.7914207
 20
359610.9063326421
 10
1396380.25897104
 20
359613.59610345
 10
1396376.22897238
 20
359616.606103761
 10
1396375.93903617
 20
359617.6354640411
 10
1396403.25144624
 20
359628.1663218951
 10
1396445.52753203
 20
359643.324908938
 10
1396575.86744164
 20
359695.6855680229
 10
1396621.07310419
 20
359714.145930539
  0
LWPOLYLINE
  5
1F0
330
1C
100
AcDbEntity
  8
РОКН
370
    20
100
AcDbPolyline
 90
       16
 70
     0
 43
0.0
 10
1394311.72962122
 20
360768.6356750001
 10
1394318.47914248
 20
360766.574896204
 10
1394324.74961802
 20
360763.8156732451
 10
1394324.51961792
 20
360763.1356734051
 10
1394340.7096138
 20
360756.455671354
 10
1394341.53961406
 20
360758.465670834
 10
1394347.47961254
 20
360756.00567008
 10
1394377.33960506
 20
360744.265666184
 10
1394377.51430035
 20
360755.0337480351
 10
1394390.50385217
 20
360755.183192325
 10
1394375.84994495
 20
360815.822451959
 10
1394307.10769951
 20
360830.515099105
 10
1394300.20814775
 20
360797.042393255
 10
1394297.13962643
 20
360782.155675556
 10
1394299.37962439
 20
360773.855676545
 10
1394311.72962122
 20
360768.6356750001
  0
LWPOLYLINE
  5
1F2
330
1C
100
AcDbEntity
  8
РОКН
370
    20
100
AcDbPolyline
 90
       42
 70
     0
 43
0.0
 10
1394303.90647518
 20
360354.81797281
 10
1394306.86640322
 20
360367.2391987521
 10
1394298.62872894
 20
360369.209079003
 10
1394303.52387435
 20
360389.783132909
 10
1394335.11466112
 20
360412.896971743
 10
1394322.62370783
 20
360420.048013545
 10
1394353.17034155
 20
360471.528297371
 10
1394360.53144457
 20
360482.999256859
 10
1394356.49539095
 20
360486.9721646111
 10
1394358.55240218
 20
360495.8338951841
 10
1394369.2856444
 20
360503.267326646
 10
1394372.84926584
 20
360519.1680596221
 10
1394365.72664568
 20
360522.013730344
 10
1394361.01956407
 20
360523.545707561
 10
1394349.96956642
 20
360525.7857093721
 10
1394327.55957119
 20
360530.31571303
 10
1394330.99836064
 20
360544.762159643
 10
1394314.67689761
 20
360548.281948809
 10
1394311.0577786
 20
360528.518555943
 10
1394303.57988114
 20
360505.9031546161
 10
1394292.42956731
 20
360480.1857286721
 10
1394288.63956661
 20
360473.395730603
 10
1394282.93596673
 20
360458.939650519
 10
1394274.3602111
 20
360460.5979564551
 10
1394250.13698733
 20
360429.8146256311
 10
1394240.4795606
 20
360401.2557526301
 10
1394237.25955751
 20
360382.865756449
 10
1394235.50955659
 20
360376.6957578621
 10
1394237.81955392
 20
360365.2057593801
 10
1394242.10611191
 20
360352.21871101
 10
1394212.76955374
 20
360342.535768275
 10
1394214.86955263
 20
360338.72576852
 10
1394238.59978716
 20
360305.295290758
 10
1394247.439993
 20
360339.914595994
 10
1394258.31323768
 20
360347.269475537
 10
1394271.65594753
 20
360326.2495443371
 10
1394290.56552522
 20
360322.164338018
 10
1394296.19874443
 20
360341.752988256
 10
1394308.18784888
 20
360338.153636655
 10
1394311.32953762
 20
360347.07574792
 10
1394313.22743584
 20
360352.553051016
 10
1394303.90647518
 20
360354.81797281
  0
LWPOLYLINE
  5
1F3
330
1C
100
AcDbEntity
  8
РОКН
370
    20
100
AcDbPolyline
 90
       12
 70
     0
 43
0.0
 10
1397550.0588178
 20
359539.515244426
 10
1397557.6988237
 20
359575.905236615
 10
1397560.46904018
 20
359590.696152945
 10
1397617.09505407
 20
359603.015771013
 10
1397612.08560227
 20
359579.896669064
 10
1397619.03854622
 20
359578.291399513
 10
1397617.43825033
 20
359571.35999842
 10
1397597.99484958
 20
359575.5756231201
 10
1397590.89291644
 20
359567.926091393
 10
1397581.16883548
 20
359554.982103698
 10
1397575.67288532
 20
359533.121291282
 10
1397550.0588178
 20
359539.515244426
  0
LWPOLYLINE
  5
1F4
330
1C
100
AcDbEntity
  8
РОКН
370
    20
100
AcDbPolyline
 90
       32
 70
     0
 43
0.0
 10
1398526.44162297
 20
359262.969478104
 10
1398527.79740493
 20
359248.298778953
 10
1398521.95931483
 20
359241.5393300821
 10
1398493.15957919
 20
359238.6360684201
 10
1398500.21228178
 20
359192.454944921
 10
1398483.51293573
 20
359187.3507566611
 10
1398486.82823619
 20
359167.225497963
 10
1398488.4979635
 20
359157.089553206
 10
1398501.33999202
 20
359149.208621885
 10
1398512.64198077
 20
359150.837008424
 10
1398517.16856129
 20
359089.145130259
 10
1398522.76856001
 20
359087.5351294271
 10
1398532.4585584
 20
359087.86512744
 10
1398542.36855586
 20
359083.695126194
 10
1398546.03855565
 20
359085.78512511
 10
1398554.77855378
 20
359084.0351236721
 10
1398558.17672918
 20
359079.511044939
 10
1398638.19574077
 20
359084.956908574
 10
1398635.57032161
 20
359110.9979879301
 10
1398614.27078434
 20
359108.2029640329
 10
1398612.32029253
 20
359134.9886516621
 10
1398727.7505866
 20
359149.780912723
 10
1398813.16916854
 20
359158.1229305311
 10
1398912.81474012
 20
359164.9499154261
 10
1398922.36850877
 20
359177.305034575
 10
1398949.51249268
 20
359234.762200248
 10
1398949.04714432
 20
359241.8325329911
 10
1398945.58467737
 20
359294.439927036
 10
1398938.57853015
 20
359299.1650102861
 10
1398895.51853776
 20
359299.945018698
 10
1398699.59907909
 20
359282.66699271
 10
1398526.44162297
 20
359262.969478104
  0
LWPOLYLINE
  5
1F5
330
1C
100
AcDbEntity
  8
РОКН
370
    20
100
AcDbPolyline
 90
        6
 70
     0
 43
0.0
 10
1398295.15431661
 20
359142.7534503011
 10
1398294.95860628
 20
359122.325168643
 10
1398295.21582821
 20
359105.523328518
 10
1398319.83996695
 20
359105.9003026861
 10
1398319.30190531
 20
359143.088820224
 10
1398295.15431661
 20
359142.7534503011
  0
LWPOLYLINE
  5
1F6
330
1C
100
AcDbEntity
  8
РОКН
370
    20
100
AcDbPolyline
 90
       14
 70
     0
 43
0.0
 10
1395798.01972339
 20
359573.892688813
 10
1395789.08912201
 20
359539.325594084
 10
1395789.60542354
 20
359535.322626178
 10
1395913.09698029
 20
359504.70379062
 10
1395919.97679741
 20
359509.898145768
 10
1395921.43078988
 20
359562.996992012
 10
1395920.69696135
 20
359567.52359295
 10
1395889.02904725
 20
359570.706212445
 10
1395888.09670559
 20
359562.0659165871
 10
1395867.34971829
 20
359565.052874269
 10
1395865.77807134
 20
359556.960090838
 10
1395839.72911821
 20
359564.265579723
 10
1395825.12912131
 20
359567.14558213
 10
1395798.01972339
 20
359573.892688813
  0
LWPOLYLINE
  5
1F7
330
1C
100
AcDbEntity
  8
РОКН
370
    20
100
AcDbPolyline
 90
       16
 70
     0
 43
0.0
 10
1395804.70046208
 20
359670.9376289571
 10
1395792.94828031
 20
359619.6644263101
 10
1395783.1316641
 20
359577.595172166
 10
1395774.82383261
 20
359542.652378574
 10
1395769.34348154
 20
359539.665245694
 10
1395621.80523917
 20
359577.265271983
 10
1395619.97916056
 20
359586.365619541
 10
1395645.50917651
 20
359688.925596741
 10
1395648.39374098
 20
359700.7011807871
 10
1395651.68911381
 20
359699.946239168
 10
1395709.06916496
 20
359686.085584616
 10
1395712.89916457
 20
359687.375583633
 10
1395755.94909156
 20
359678.336221359
 10
1395799.81908204
 20
359668.236213973
 10
1395800.82891374
 20
359671.795618284
 10
1395804.70046208
 20
359670.9376289571
  0
LWPOLYLINE
  5
1F9
330
1C
100
AcDbEntity
  8
РОКН
370
    20
100
AcDbPolyline
 90
       18
 70
     0
 43
0.0
 10
1397025.07817775
 20
359772.162822263
 10
1397020.59895266
 20
359758.045311772
 10
1397017.54530549
 20
359759.004616643
 10
1397015.04895235
 20
359751.6853139761
 10
1396996.00810659
 20
359758.5982373121
 10
1396990.8758851
 20
359744.38252469
 10
1396997.41073256
 20
359742.023284063
 10
1396988.57214017
 20
359717.541318917
 10
1397002.98888331
 20
359712.445957745
 10
1397019.31887942
 20
359707.055955303
 10
1397040.87887426
 20
359699.9359520271
 10
1397048.99605286
 20
359697.2496329061
 10
1397063.3474999
 20
359741.2788488731
 10
1397038.32968609
 20
359749.666920209
 10
1397043.19407905
 20
359764.398955486
 10
1397039.8580789
 20
359765.626035443
 10
1397038.77895136
 20
359767.3653065601
 10
1397025.07817775
 20
359772.162822263
  0
LWPOLYLINE
  5
1FB
330
1C
100
AcDbEntity
  8
РОКН
370
    20
100
AcDbPolyline
 90
       12
 70
     0
 43
0.0
 10
1399561.30859104
 20
360148.1347398741
 10
1399570.00529984
 20
360176.1834380071
 10
1399551.57859922
 20
360180.874736143
 10
1399508.47864153
 20
360191.70494077
 10
1399506.50860679
 20
360179.78474529
 10
1399503.8486057
 20
360171.814747267
 10
1399497.85860262
 20
360151.254751936
 10
1399493.24859887
 20
360128.374756801
 10
1399489.91859676
 20
360114.804759813
 10
1399487.2679165
 20
360097.6924304471
 10
1399541.85891459
 20
360087.440162984
 10
1399561.30859104
 20
360148.1347398741
  0
LWPOLYLINE
  5
1FD
330
1C
100
AcDbEntity
  8
РОКН
370
    20
100
AcDbPolyline
 90
       12
 70
     0
 43
0.0
 10
1395433.39459168
 20
360097.6505193901
 10
1395404.89953649
 20
360104.646759947
 10
1395379.24150678
 20
360111.053791097
 10
1395386.50877983
 20
360137.870502029
 10
1395389.53930969
 20
360137.10557011
 10
1395394.4593086
 20
360135.9455693351
 10
1395395.37930858
 20
360136.615569041
 10
1395410.02647164
 20
360132.867042999
 10
1395416.31617684
 20
360138.64423949
 10
1395448.69421713
 20
360131.1911063961
 10
1395439.5028078
 20
360096.3448987271
 10
1395433.39459168
 20
360097.6505193901
  0
LWPOLYLINE
  5
200
330
1C
100
AcDbEntity
  8
РОКН
370
    20
100
AcDbPolyline
 90
       10
 70
     0
 43
0.0
 10
1394898.76939268
 20
360450.5962651521
 10
1394922.96166005
 20
360444.798315247
 10
1394950.28165393
 20
360437.718310746
 10
1394943.88164981
 20
360411.398316635
 10
1394940.74694614
 20
360412.2315930391
 10
1394928.17939103
 20
360358.602312701
 10
1394881.58535122
 20
360370.448340303
 10
1394887.37433106
 20
360394.2269044971
 10
1394884.49938404
 20
360394.946277709
 10
1394898.76939268
 20
360450.5962651521
  0
LWPOLYLINE
  5
201
330
1C
100
AcDbEntity
  8
РОКН
370
    20
100
AcDbPolyline
 90
       14
 70
     0
 43
0.0
 10
1394946.292294
 20
360337.844215224
 10
1394941.26727924
 20
360334.652772418
 10
1394915.90255857
 20
360230.733578393
 10
1394916.94208011
 20
360227.530640489
 10
1394939.54503791
 20
360221.973784325
 10
1394945.42824281
 20
360244.213999319
 10
1394953.76677215
 20
360242.1924278071
 10
1394958.40606465
 20
360260.6764501651
 10
1394988.01940208
 20
360253.135629789
 10
1394994.6506827
 20
360251.668336323
 10
1395001.24111987
 20
360278.418747245
 10
1394986.51141797
 20
360282.1938519221
 10
1394997.50922914
 20
360325.157176151
 10
1394946.292294
 20
360337.844215224
  0
LWPOLYLINE
  5
202
330
1C
100
AcDbEntity
  8
РОКН
370
    20
100
AcDbPolyline
 90
       19
 70
     0
 43
0.0
 10
1394741.44896755
 20
360387.4134368771
 10
1394736.59946793
 20
360366.0556601971
 10
1394734.56946817
 20
360365.505660698
 10
1394732.13946682
 20
360356.6056627161
 10
1394733.18946614
 20
360354.0856629471
 10
1394730.31178421
 20
360342.569225439
 10
1394728.47946312
 20
360334.775667218
 10
1394737.22946117
 20
360332.585665854
 10
1394795.73944809
 20
360317.58565683
 10
1394819.10944292
 20
360311.875653181
 10
1394820.75944259
 20
360311.6756528821
 10
1394829.39944066
 20
360309.45565155
 10
1394829.50944072
 20
360309.845651464
 10
1394846.46943694
 20
360305.5956488351
 10
1394855.15796291
 20
360303.434788503
 10
1394868.91259692
 20
360357.7508728071
 10
1394862.53938074
 20
360359.466288328
 10
1394833.67938733
 20
360367.116292998
 10
1394742.41286706
 20
360391.042228544
  0
LWPOLYLINE
  5
203
330
1C
100
AcDbEntity
  8
РОКН
370
    20
100
AcDbPolyline
 90
       16
 70
     0
 43
0.0
 10
1395554.34293955
 20
360153.5610468071
 10
1395558.86477084
 20
360176.583045869
 10
1395597.83927951
 20
360166.335523703
 10
1395637.33499912
 20
360159.926481539
 10
1395646.66926583
 20
360139.915518571
 10
1395652.58530518
 20
360122.351890646
 10
1395651.24554195
 20
360105.3864479411
 10
1395636.07767874
 20
360101.5635279721
 10
1395587.1181926
 20
360112.1264279721
 10
1395585.41569228
 20
360106.066094878
 10
1395550.57927738
 20
360114.4855420461
 10
1395549.58630226
 20
360129.351259033
 10
1395551.31262868
 20
360138.132997158
 10
1395526.44661963
 20
360143.204675754
 10
1395529.40526155
 20
360158.679680414
 10
1395554.34293955
 20
360153.5610468071
  0
LWPOLYLINE
  5
207
330
1C
100
AcDbEntity
  8
РОКН
370
    20
100
AcDbPolyline
 90
       17
 70
     0
 43
0.0
 10
1395531.91913555
 20
359705.5362629271
 10
1395568.71555693
 20
359711.0632460461
 10
1395585.74912809
 20
359714.5162502751
 10
1395597.96912685
 20
359718.8362470211
 10
1395628.2291228
 20
359724.726239733
 10
1395643.18912035
 20
359725.5462364471
 10
1395620.10917493
 20
359629.1814954061
 10
1395610.64972099
 20
359588.4479558041
 10
1395601.70064799
 20
359581.683369132
 10
1395559.03917213
 20
359591.575630733
 10
1395560.14773462
 20
359596.115992468
 10
1395562.08349944
 20
359605.4520586711
 10
1395576.11918272
 20
359659.815615549
 10
1395579.77918504
 20
359674.6756122541
 10
1395581.78138797
 20
359682.8148182451
 10
1395535.58919284
 20
359675.515620888
 10
1395531.91913555
 20
359705.5362629271
  0
LWPOLYLINE
  5
208
330
1C
100
AcDbEntity
  8
РОКН
370
    20
100
AcDbPolyline
 90
        6
 70
     0
 43
0.0
 10
1398745.81116616
 20
359648.100293966
 10
1398749.10898173
 20
359622.4240608961
 10
1398793.43163694
 20
359629.722287112
 10
1398791.01277838
 20
359646.3318307821
 10
1398760.49131599
 20
359649.875480034
 10
1398745.81116616
 20
359648.100293966
  0
LWPOLYLINE
  5
20D
330
1C
100
AcDbEntity
  8
РОКН
370
    20
100
AcDbPolyline
 90
       13
 70
     0
 43
0.0
 10
1397283.20896196
 20
360033.5352120211
 10
1397280.52896245
 20
360033.645212534
 10
1397275.59896363
 20
360035.29521322
 10
1397268.37896506
 20
360036.2552144871
 10
1397266.34022187
 20
360010.0184369451
 10
1397274.81895838
 20
360008.225218051
 10
1397285.27895641
 20
360007.3952161201
 10
1397293.14895482
 20
360006.195214765
 10
1397295.06895445
 20
360006.0152144179
 10
1397297.41711964
 20
360020.866379458
 10
1397299.61424493
 20
360035.687714395
 10
1397285.22896288
 20
360039.945210509
 10
1397283.20896196
 20
360033.5352120211
  0
LWPOLYLINE
  5
20E
330
1C
100
AcDbEntity
  8
РОКН
370
    20
100
AcDbPolyline
 90
       33
 70
     0
 43
0.0
 10
1396799.1899801
 20
359894.94118068
 10
1396829.71901358
 20
359898.8653253389
 10
1396894.27900228
 20
359898.115312642
 10
1396894.36120464
 20
359901.342180394
 10
1396912.1532209
 20
359920.702616153
 10
1396917.63900582
 20
359936.2453014161
 10
1396924.48469223
 20
359957.0092750221
 10
1396901.59021993
 20
359964.24538929
 10
1396897.10901563
 20
359967.795300047
 10
1396891.51901807
 20
359975.245299861
 10
1396893.8390201
 20
359987.5252972821
 10
1396894.91901988
 20
359987.325297101
 10
1396896.20902121
 20
359995.1852954871
 10
1396885.37267011
 20
359996.88481907
 10
1396894.89182889
 20
360034.228456391
 10
1396875.48897066
 20
360041.945927135
 10
1396855.3564339
 20
360043.5979339021
 10
1396844.72897603
 20
360042.1859335101
 10
1396834.34897746
 20
360040.5059359121
 10
1396817.14897988
 20
360037.515939943
 10
1396798.58898262
 20
360035.205944242
 10
1396770.96905022
 20
360032.295313944
 10
1396754.94322733
 20
360012.019170628
 10
1396737.0490505
 20
360004.215325527
 10
1396751.18091613
 20
359970.415438231
 10
1396770.66676203
 20
359970.444577516
 10
1396774.68478492
 20
359965.294098768
 10
1396776.84876801
 20
359953.625331343
 10
1396759.66681229
 20
359918.314054438
 10
1396760.04559837
 20
359905.3383487091
 10
1396764.00902496
 20
359898.955338366
 10
1396776.25849221
 20
359893.549632723
 10
1396799.1899801
 20
359894.94118068
  0
LWPOLYLINE
  5
20F
330
1C
100
AcDbEntity
  8
РОКН
370
    20
100
AcDbPolyline
 90
       11
 70
     0
 43
0.0
 10
1395228.00186555
 20
360413.5204021361
 10
1395342.82637418
 20
360383.929003639
 10
1395348.1666458
 20
360404.9664443051
 10
1395333.78651682
 20
360433.844274062
 10
1395321.65938139
 20
360439.31553137
 10
1395300.94949873
 20
360444.81131548
 10
1395281.15939102
 20
360452.575537118
 10
1395270.57939339
 20
360455.3055387451
 10
1395271.79537414
 20
360463.420539083
 10
1395243.95049099
 20
360471.020004131
 10
1395228.00186555
 20
360413.5204021361
  0
LWPOLYLINE
  5
21B
330
1C
100
AcDbEntity
  8
РОКН
370
    20
100
AcDbPolyline
 90
       24
 70
     0
 43
0.0
 10
1396089.16663105
 20
359447.6201421821
 10
1396210.34903763
 20
359480.885520556
 10
1396211.78903791
 20
359483.495519807
 10
1396208.73904089
 20
359495.895518271
 10
1396222.4590402
 20
359504.3655140921
 10
1396228.51903973
 20
359507.27551238
 10
1396235.79903978
 20
359513.835509803
 10
1396236.42904036
 20
359517.335509073
 10
1396234.81904173
 20
359522.84550844
 10
1396224.59904551
 20
359532.9955087211
 10
1396217.16904928
 20
359545.495508031
 10
1396212.7827639
 20
359552.869913222
 10
1396209.78573126
 20
359558.8822113791
 10
1396042.10570122
 20
359504.9216105851
 10
1395949.98246592
 20
359482.721701309
 10
1395909.24437191
 20
359485.170549233
 10
1395908.33908696
 20
359466.475583007
 10
1395907.2966871
 20
359464.0896890171
 10
1395897.39908387
 20
359441.435589501
 10
1395896.39908164
 20
359429.295591803
 10
1395900.26908037
 20
359426.3155915501
 10
1395902.21202548
 20
359408.460179414
 10
1395950.48907015
 20
359418.525582923
 10
1396089.16663105
 20
359447.6201421821
  0
LWPOLYLINE
  5
21E
330
1C
100
AcDbEntity
  8
РОКН
370
    20
100
AcDbPolyline
 90
       27
 70
     0
 43
0.0
 10
1394351.73937023
 20
359538.885879548
 10
1394339.69934569
 20
359528.710745108
 10
1394325.92936874
 20
359508.955889846
 10
1394306.44936873
 20
359491.945896649
 10
1394304.05755674
 20
359487.63855791
 10
1394312.46874939
 20
359481.7769383461
 10
1394289.64929839
 20
359446.806564428
 10
1394298.64929487
 20
359437.036564213
 10
1394319.04907867
 20
359442.4574785111
 10
1394327.01914311
 20
359458.4255669761
 10
1394343.54208048
 20
359465.4627367621
 10
1394375.16827167
 20
359474.1830237421
 10
1394452.96584016
 20
359480.7020602571
 10
1394502.2723563
 20
359473.912020955
 10
1394528.50932661
 20
359472.985855837
 10
1394532.91476332
 20
359473.716265324
 10
1394553.40503949
 20
359493.911841945
 10
1394571.79999185
 20
359546.1002102651
 10
1394574.74934037
 20
359582.5858277239
 10
1394552.39335792
 20
359599.6443112971
 10
1394505.31757806
 20
359580.969200115
 10
1394503.85314213
 20
359561.218640795
 10
1394486.34035192
 20
359554.748732074
 10
1394422.21739113
 20
359545.115561843
 10
1394411.8293611
 20
359545.215866524
 10
1394373.28936742
 20
359543.4958744711
 10
1394351.73937023
 20
359538.885879548
  0
LWPOLYLINE
  5
21F
330
1C
100
AcDbEntity
  8
РОКН
370
    20
100
AcDbPolyline
 90
       11
 70
     0
 43
0.0
 10
1394628.75931524
 20
359502.955830756
 10
1394634.71312823
 20
359501.415621964
 10
1394641.1072966
 20
359526.132847065
 10
1394665.97144034
 20
359520.016753794
 10
1394659.09986178
 20
359492.4424337921
 10
1394665.48930645
 20
359490.625825598
 10
1394658.82930188
 20
359461.795831901
 10
1394657.31398373
 20
359455.236286293
 10
1394619.41781636
 20
359464.023815448
 10
1394620.65930988
 20
359468.8658382561
 10
1394628.75931524
 20
359502.955830756
  0
LWPOLYLINE
  5
223
330
1C
100
AcDbEntity
  8
РОКН
370
    20
100
AcDbPolyline
 90
       13
 70
     0
 43
0.0
 10
1394906.86877709
 20
360005.0043460671
 10
1394932.32935204
 20
359952.515692793
 10
1394939.19529562
 20
359917.144075258
 10
1394947.32005539
 20
359897.993576524
 10
1394980.67926725
 20
359890.2563449271
 10
1394975.86926447
 20
359871.866349119
 10
1395069.64924356
 20
359847.9463338871
 10
1395078.59771449
 20
359884.411588733
 10
1395075.50287771
 20
359885.18294703
 10
1395093.49576174
 20
359958.527309667
 10
1394971.26928851
 20
359988.906329919
 10
1394927.75388401
 20
359999.9366853621
 10
1394906.86877709
 20
360005.0043460671
  0
LWPOLYLINE
  5
224
330
1C
100
AcDbEntity
  8
РОКН
370
    20
100
AcDbPolyline
 90
       20
 70
     0
 43
0.0
 10
1395071.30825664
 20
360455.84975975
 10
1395095.34807212
 20
360449.686388321
 10
1395117.27657296
 20
360444.230854565
 10
1395186.05752702
 20
360426.899887739
 10
1395190.92909954
 20
360445.983457239
 10
1395189.86303972
 20
360446.192533332
 10
1395192.29597485
 20
360455.181823409
 10
1395189.689099199
 20
360455.867887679
 10
1395198.14934854
 20
360488.726196633
 10
1395204.28935261
 20
360514.1261910461
 10
1395210.76935619
 20
360537.846185614
 10
1395192.36936028
 20
360542.6461885511
 10
1395191.20866887
 20
360538.1240686771
 10
1395183.8694193
 20
360510.345546458
 10
1395177.27941577
 20
360486.855551823
 10
1395131.64942587
 20
360498.0355589491
 10
1395093.46943441
 20
360507.8155648461
 10
1395086.34888889
 20
360509.1737085
 10
1395079.39943243
 20
360485.575571482
 10
1395071.30825664
 20
360455.84975975
  0
LWPOLYLINE
  5
229
330
1C
100
AcDbEntity
  8
РОКН
370
    20
100
AcDbPolyline
 90
       15
 70
     0
 43
0.0
 10
1399182.41386554
 20
359519.0403261771
 10
1399198.06966667
 20
359413.492986163
 10
1399198.83850703
 20
359409.274939584
 10
1399202.78850643
 20
359409.684938719
 10
1399220.71120433
 20
359416.9793643521
 10
1399288.30998314
 20
359423.160325068
 10
1399293.75300519
 20
359423.33574957
 10
1399301.1059899
 20
359423.3427801861
 10
1399302.27849677
 20
359447.594912419
 10
1399304.73781959
 20
359522.257631323
 10
1399272.25658125
 20
359528.005885553
 10
1399262.78227097
 20
359527.817893239
 10
1399250.97852112
 20
359525.65490911
 10
1399208.91152044
 20
359520.982441201
 10
1399182.41386554
 20
359519.0403261771
  0
LWPOLYLINE
  5
22F
330
1C
100
AcDbEntity
  8
РОКН
370
    20
100
AcDbPolyline
 90
       10
 70
     0
 43
0.0
 10
1394641.03485917
 20
359682.755798202
 10
1394634.96851947
 20
359688.298574979
 10
1394626.9193538
 20
359695.625797827
 10
1394617.14860083
 20
359713.481068226
 10
1394613.62227165
 20
359723.675914578
 10
1394617.88936144
 20
359726.225794333
 10
1394620.71936147
 20
359728.835793318
 10
1394642.35935658
 20
359723.085790015
 10
1394648.67935468
 20
359721.565789154
 10
1394641.03485917
 20
359682.755798202
  0
LWPOLYLINE
  5
235
330
1C
100
AcDbEntity
  8
РОКН
370
    20
100
AcDbPolyline
 90
       16
 70
     0
 43
0.0
 10
1396347.96896486
 20
359554.16612042
 10
1396334.86902977
 20
359549.655483939
 10
1396321.74903144
 20
359546.635487069
 10
1396312.349032
 20
359541.265489863
 10
1396256.85904117
 20
359539.2155012421
 10
1396244.47904408
 20
359543.0655030261
 10
1396237.35904596
 20
359546.365503873
 10
1396233.46904722
 20
359549.335504127
 10
1396229.81904865
 20
359553.355504163
 10
1396224.07905221
 20
359566.275503072
 10
1396225.08361876
 20
359568.6722209071
 10
1396327.88090569
 20
359602.6214664141
 10
1396329.0522339
 20
359599.408297943
 10
1396341.2474236
 20
359564.138938053
 10
1396345.85896738
 20
359565.166118955
 10
1396347.96896486
 20
359554.16612042
  0
LWPOLYLINE
  5
236
330
1C
100
AcDbEntity
  8
РОКН
370
    20
100
AcDbPolyline
 90
       36
 70
     0
 43
0.0
 10
1399496.79847197
 20
360831.102699002
 10
1399482.73872618
 20
360760.554649595
 10
1399514.15350578
 20
360744.129600708
 10
1399563.05625166
 20
360696.6324746871
 10
1399539.04193849
 20
360585.861246463
 10
1399447.05557678
 20
360461.1990530371
 10
1399418.05261429
 20
360474.683314323
 10
1399384.83683735
 20
360409.1421947371
 10
1399362.93398591
 20
360360.91443064
 10
1399411.49940137
 20
360338.83653855
 10
1399438.27523056
 20
360397.560244304
 10
1399540.76840427
 20
360352.549015193
 10
1399610.31284619
 20
360322.0703222161
 10
1399656.82790174
 20
360417.880021496
 10
1399624.05785733
 20
360434.253679499
 10
1399649.30103277
 20
360494.446705487
 10
1399723.47609802
 20
360560.2054992561
 10
1399800.43218926
 20
360536.682512641
 10
1399820.91726943
 20
360601.244072998
 10
1399757.02265926
 20
360661.490561725
 10
1399778.81677187
 20
360716.407939358
 10
1399737.49768836
 20
360763.6449355461
 10
1399731.75888079
 20
360758.179284178
 10
1399644.37307671
 20
360737.544304169
 10
1399664.28700431
 20
360653.211989693
 10
1399584.50300288
 20
360591.261603424
 10
1399602.62316707
 20
360568.356086243
 10
1399558.48233059
 20
360472.077715493
 10
1399521.96416879
 20
360484.957200403
 10
1399557.9455831
 20
360579.118498314
 10
1399552.99617841
 20
360581.0077762521
 10
1399585.75015674
 20
360741.7278917411
 10
1399614.3401137
 20
360756.126026202
 10
1399597.80942293
 20
360829.498752239
 10
1399521.6983064
 20
360836.400176773
 10
1399496.79847197
 20
360831.102699002
  0
LWPOLYLINE
  5
238
330
1C
100
AcDbEntity
  8
РОКН
370
    20
100
AcDbPolyline
 90
       12
 70
     0
 43
0.0
 10
1395821.18338289
 20
359482.6250065941
 10
1395815.04598164
 20
359487.633382449
 10
1395907.2966871
 20
359464.0896890171
 10
1395897.39908387
 20
359441.435589501
 10
1395878.14908805
 20
359445.785592575
 10
1395873.92908915
 20
359447.605593098
 10
1395869.30909014
 20
359448.5855938501
 10
1395868.78908983
 20
359446.585594288
 10
1395819.42910089
 20
359459.275601905
 10
1395819.90320638
 20
359460.852574464
 10
1395824.17910415
 20
359479.855597402
 10
1395821.18338289
 20
359482.6250065941
  0
LWPOLYLINE
  5
327
330
1C
100
AcDbEntity
  8
РОКН
370
    20
100
AcDbPolyline
 90
       17
 70
     0
 43
0.0
 10
1393195.32921872
 20
357768.9864149461
 10
1393229.98919316
 20
357807.6063712121
 10
1393228.13619876
 20
357809.7809148321
 10
1393259.22121767
 20
357843.718562885
 10
1393250.74916075
 20
357850.877054719
 10
1393231.56619902
 20
357861.567537672
 10
1393203.65244604
 20
357830.227813843
 10
1393169.20923929
 20
357849.936406153
 10
1393158.84699194
 20
357855.019571136
 10
1393139.38857902
 20
357823.8634421
 10
1393103.60499101
 20
357840.1677795711
 10
1393093.81136931
 20
357810.915053709
 10
1393107.664508089
 20
357809.5112645061
 10
1393133.07923698
 20
357806.856420759
 10
1393143.70923484
 20
357805.3264189151
 10
1393162.31922978
 20
357796.016416834
 10
1393195.32921872
 20
357768.9864149461
  0
LWPOLYLINE
  5
328
330
1C
100
AcDbEntity
  8
РОКН
370
    20
100
AcDbPolyline
 90
        7
 70
     0
 43
0.0
 10
1394544.09432822
 20
359240.0053658761
 10
1394596.25926598
 20
359226.45588499
 10
1394587.72722672
 20
359190.8215570251
 10
1394620.46998974
 20
359183.113672496
 10
1394644.71186398
 20
359279.718784786
 10
1394558.60624711
 20
359301.5026139721
 10
1394544.09432822
 20
359240.0053658761
  0
LWPOLYLINE
  5
32B
330
1C
100
AcDbEntity
  8
РОКН
370
    20
100
AcDbPolyline
 90
       26
 70
     0
 43
0.0
 10
1394776.02977908
 20
358853.3218084811
 10
1394796.78250168
 20
358956.267511735
 10
1394770.98532227
 20
358963.09919499
 10
1394764.25353678
 20
358968.048023793
 10
1394757.10993511
 20
358970.694772267
 10
1394735.06083431
 20
358974.928880386
 10
1394719.8099422
 20
358974.0247790941
 10
1394718.87023598
 20
358942.462642969
 10
1394687.27409602
 20
358943.21888785
 10
1394680.15142908
 20
358944.201958867
 10
1394674.77994154
 20
358931.474795392
 10
1394658.84993929
 20
358906.2948028991
 10
1394669.48993649
 20
358901.404801634
 10
1394684.86993201
 20
358892.2148001711
 10
1394694.62992994
 20
358890.2947985611
 10
1394708.88789741
 20
358885.8918066821
 10
1394707.07119711
 20
358875.643492302
 10
1394688.43728253
 20
358853.5452309461
 10
1394667.92227083
 20
358863.801418619
 10
1394649.54302563
 20
358839.799697347
 10
1394652.52781797
 20
358820.094723986
 10
1394672.08548162
 20
358816.424424005
 10
1394703.39518839
 20
358846.0672386921
 10
1394709.72663316
 20
358856.217034071
 10
1394756.58992574
 20
358856.223776134
 10
1394776.02977908
 20
358853.3218084811
  0
LWPOLYLINE
  5
32C
330
1C
100
AcDbEntity
  8
РОКН
370
    20
100
AcDbPolyline
 90
       18
 70
     0
 43
0.0
 10
1391497.73638484
 20
355082.6445791179
 10
1391642.23380731
 20
354865.221065809
 10
1391719.71529228
 20
354905.79133692
 10
1391666.51671974
 20
355594.513894684
 10
1391612.9927875
 20
355538.501838804
 10
1391581.96436192
 20
355552.26668911
 10
1391580.11980366
 20
355543.255995107
 10
1391536.0698078
 20
355525.776006868
 10
1391525.02980765
 20
355515.396010858
 10
1391499.83980479
 20
355479.046022135
 10
1391485.96979496
 20
355417.396035543
 10
1391465.44977917
 20
355319.9860564421
 10
1391493.89977305
 20
355313.906051848
 10
1391480.46976307
 20
355251.906065211
 10
1391455.93976834
 20
355257.136069183
 10
1391441.61494873
 20
355189.902602474
 10
1391450.31056611
 20
355154.006827804
 10
1391497.73638484
 20
355082.6445791179
  0
MTEXT
  5
3EF
330
1C
100
AcDbEntity
  8
РОКН
100
AcDbMText
 10
1394419.860131293
 20
359533.515733354
 30
0.0
 40
4.66666666665
 41
4.66666666665
 46
0.0
 71
     2
 72
     5
  1
РОКН\Pуч.22
 73
     1
 44
1.0
  0
MTEXT
  5
3F0
330
1C
100
AcDbEntity
  8
РОКН
100
AcDbMText
 10
1394648.529126933
 20
359516.2297396071
 30
0.0
 40
4.66666666665
 41
4.66666666665
 46
0.0
 71
     2
 72
     5
  1
РОКН\Pуч.23
 73
     1
 44
1.0
  0
MTEXT
  5
3F1
330
1C
100
AcDbEntity
  8
РОКН
100
AcDbMText
 10
1394479.115441287
 20
359734.419910938
 30
0.0
 40
6.533333333309999
 41
6.533333333309999
 46
0.0
 71
     2
 72
     5
  1
РОКН\Pуч.24
 73
     1
 44
1.0
  0
MTEXT
  5
3F2
330
1C
100
AcDbEntity
  8
РОКН
100
AcDbMText
 10
1394377.760438716
 20
360496.925205595
 30
0.0
 40
6.533333333309999
 41
6.533333333309999
 46
0.0
 71
     2
 72
     5
  1
РОКН\Pуч.26
 73
     1
 44
1.0
  0
MTEXT
  5
3F3
330
1C
100
AcDbEntity
  8
РОКН
100
AcDbMText
 10
1394324.338926326
 20
360814.820446771
 30
0.0
 40
6.533333333309999
 41
6.533333333309999
 46
0.0
 71
     2
 72
     5
  1
РОКН\Pуч.27
 73
     1
 44
1.0
  0
MTEXT
  5
3F4
330
1C
100
AcDbEntity
  8
РОКН
100
AcDbMText
 10
1394785.222809036
 20
360302.131717113
 30
0.0
 40
6.533333333309999
 41
6.533333333309999
 46
0.0
 71
     2
 72
     5
  1
РОКН\Pуч.30
 73
     1
 44
1.0
  0
MTEXT
  5
3F5
330
1C
100
AcDbEntity
  8
РОКН
100
AcDbMText
 10
1394788.586918156
 20
360350.313857384
 30
0.0
 40
6.533333333309999
 41
6.533333333309999
 46
0.0
 71
     2
 72
     5
  1
РОКН\Pуч.31
 73
     1
 44
1.0
  0
MTEXT
  5
3F6
330
1C
100
AcDbEntity
  8
РОКН
100
AcDbMText
 10
1394908.009451297
 20
360396.477503029
 30
0.0
 40
6.533333333309999
 41
6.533333333309999
 46
0.0
 71
     2
 72
     5
  1
РОКН\Pуч.32
 73
     1
 44
1.0
  0
MTEXT
  5
3F7
330
1C
100
AcDbEntity
  8
РОКН
100
AcDbMText
 10
1394963.140786017
 20
359945.649848329
 30
0.0
 40
6.533333333309999
 41
6.533333333309999
 46
0.0
 71
     2
 72
     5
  1
РОКН\Pуч.33
 73
     1
 44
1.0
  0
MTEXT
  5
3F8
330
1C
100
AcDbEntity
  8
РОКН
100
AcDbMText
 10
1394916.506886546
 20
360148.911086679
 30
0.0
 40
6.533333333309999
 41
6.533333333309999
 46
0.0
 71
     2
 72
     5
  1
РОКН\Pуч.35
 73
     1
 44
1.0
  0
MTEXT
  5
3F9
330
1C
100
AcDbEntity
  8
РОКН
100
AcDbMText
 10
1394956.909421486
 20
360320.441257506
 30
0.0
 40
6.533333333309999
 41
6.533333333309999
 46
0.0
 71
     2
 72
     5
  1
РОКН\Pуч.36
 73
     1
 44
1.0
  0
MTEXT
  5
3FA
330
1C
100
AcDbEntity
  8
РОКН
100
AcDbMText
 10
1395040.571388767
 20
360360.122687633
 30
0.0
 40
6.533333333309999
 41
6.533333333309999
 46
0.0
 71
     2
 72
     5
  1
РОКН\Pуч.37
 73
     1
 44
1.0
  0
MTEXT
  5
3FB
330
1C
100
AcDbEntity
  8
РОКН
100
AcDbMText
 10
1395147.386537487
 20
360259.462534186
 30
0.0
 40
6.533333333309999
 41
6.533333333309999
 46
0.0
 71
     2
 72
     5
  1
РОКН\Pуч.38
 73
     1
 44
1.0
  0
MTEXT
  5
3FC
330
1C
100
AcDbEntity
  8
РОКН
100
AcDbMText
 10
1395134.139321606
 20
360489.3215221021
 30
0.0
 40
6.533333333309999
 41
6.533333333309999
 46
0.0
 71
     2
 72
     5
  1
РОКН\Pуч.39
 73
     1
 44
1.0
  0
MTEXT
  5
3FD
330
1C
100
AcDbEntity
  8
РОКН
100
AcDbMText
 10
1395220.434333786
 20
360216.023132968
 30
0.0
 40
6.533333333309999
 41
6.533333333309999
 46
0.0
 71
     2
 72
     5
  1
РОКН\Pуч.40
 73
     1
 44
1.0
  0
MTEXT
  5
3FE
330
1C
100
AcDbEntity
  8
РОКН
100
AcDbMText
 10
1395276.647197497
 20
360444.5568978151
 30
0.0
 40
6.533333333309999
 41
6.533333333309999
 46
0.0
 71
     2
 72
     5
  1
РОКН\Pуч.41
 73
     1
 44
1.0
  0
MTEXT
  5
3FF
330
1C
100
AcDbEntity
  8
РОКН
100
AcDbMText
 10
1395361.915813176
 20
360150.5200920211
 30
0.0
 40
6.533333333309999
 41
6.533333333309999
 46
0.0
 71
     2
 72
     5
  1
РОКН\Pуч.42
 73
     1
 44
1.0
  0
MTEXT
  5
400
330
1C
100
AcDbEntity
  8
РОКН
100
AcDbMText
 10
1395339.963342187
 20
360274.1105267261
 30
0.0
 40
6.533333333309999
 41
6.533333333309999
 46
0.0
 71
     2
 72
     5
  1
РОКН\Pуч.43
 73
     1
 44
1.0
  0
MTEXT
  5
401
330
1C
100
AcDbEntity
  8
РОКН
100
AcDbMText
 10
1395603.401206426
 20
359683.030084138
 30
0.0
 40
6.533333333309999
 41
6.533333333309999
 46
0.0
 71
     2
 72
     5
  1
РОКН\Pуч.48
 73
     1
 44
1.0
  0
MTEXT
  5
402
330
1C
100
AcDbEntity
  8
РОКН
100
AcDbMText
 10
1395865.936111536
 20
359471.628779824
 30
0.0
 40
6.533333333309999
 41
6.533333333309999
 46
0.0
 71
     2
 72
     5
  1
РОКН\Pуч.45
 73
     1
 44
1.0
  0
MTEXT
  5
403
330
1C
100
AcDbEntity
  8
РОКН
100
AcDbMText
 10
1395836.155027026
 20
359556.110466653
 30
0.0
 40
6.533333333309999
 41
6.533333333309999
 46
0.0
 71
     2
 72
     5
  1
РОКН\Pуч.46
 73
     1
 44
1.0
  0
MTEXT
  5
404
330
1C
100
AcDbEntity
  8
РОКН
100
AcDbMText
 10
1395720.844629017
 20
359648.582976813
 30
0.0
 40
6.533333333309999
 41
6.533333333309999
 46
0.0
 71
     2
 72
     5
  1
РОКН\Pуч.47
 73
     1
 44
1.0
  0
MTEXT
  5
405
330
1C
100
AcDbEntity
  8
РОКН
100
AcDbMText
 10
1396185.778663487
 20
359506.440707463
 30
0.0
 40
6.533333333309999
 41
6.533333333309999
 46
0.0
 71
     2
 72
     5
  1
РОКН\Pуч.51
 73
     1
 44
1.0
  0
MTEXT
  5
406
330
1C
100
AcDbEntity
  8
РОКН
100
AcDbMText
 10
1396025.125811416
 20
359594.0638924601
 30
0.0
 40
6.533333333309999
 41
6.533333333309999
 46
0.0
 71
     2
 72
     5
  1
РОКН\Pуч.52
 73
     1
 44
1.0
  0
MTEXT
  5
407
330
1C
100
AcDbEntity
  8
РОКН
100
AcDbMText
 10
1396038.925015747
 20
359705.475401853
 30
0.0
 40
6.533333333309999
 41
6.533333333309999
 46
0.0
 71
     2
 72
     5
  1
РОКН\Pуч.53
 73
     1
 44
1.0
  0
MTEXT
  5
408
330
1C
100
AcDbEntity
  8
РОКН
100
AcDbMText
 10
1396303.131819586
 20
359569.2688800041
 30
0.0
 40
6.533333333309999
 41
6.533333333309999
 46
0.0
 71
     2
 72
     5
  1
РОКН\Pуч.55
 73
     1
 44
1.0
  0
MTEXT
  5
409
330
1C
100
AcDbEntity
  8
РОКН
100
AcDbMText
 10
1396435.929648316
 20
359629.5033594851
 30
0.0
 40
6.533333333309999
 41
6.533333333309999
 46
0.0
 71
     2
 72
     5
  1
РОКН\Pуч.56
 73
     1
 44
1.0
  0
MTEXT
  5
40A
330
1C
100
AcDbEntity
  8
РОКН
100
AcDbMText
 10
1396695.367395976
 20
359660.475206865
 30
0.0
 40
6.533333333309999
 41
6.533333333309999
 46
0.0
 71
     2
 72
     5
  1
РОКН\Pуч.56
 73
     1
 44
1.0
  0
MTEXT
  5
40B
330
1C
100
AcDbEntity
  8
РОКН
100
AcDbMText
 10
1396722.453825197
 20
359980.111705433
 30
0.0
 40
6.533333333309999
 41
6.533333333309999
 46
0.0
 71
     2
 72
     5
  1
РОКН\Pуч.57
 73
     1
 44
1.0
  0
MTEXT
  5
40C
330
1C
100
AcDbEntity
  8
РОКН
100
AcDbMText
 10
1396858.107321427
 20
359580.1040124501
 30
0.0
 40
6.533333333309999
 41
6.533333333309999
 46
0.0
 71
     2
 72
     5
  1
РОКН\Pуч.58
 73
     1
 44
1.0
  0
MTEXT
  5
40D
330
1C
100
AcDbEntity
  8
РОКН
100
AcDbMText
 10
1397015.168335606
 20
359571.332898085
 30
0.0
 40
6.533333333309999
 41
6.533333333309999
 46
0.0
 71
     2
 72
     5
  1
РОКН\Pуч.58
 73
     1
 44
1.0
  0
MTEXT
  5
40E
330
1C
100
AcDbEntity
  8
РОКН
100
AcDbMText
 10
1397039.152510667
 20
359735.720877765
 30
0.0
 40
6.533333333309999
 41
6.533333333309999
 46
0.0
 71
     2
 72
     5
  1
РОКН\Pуч.60
 73
     1
 44
1.0
  0
MTEXT
  5
40F
330
1C
100
AcDbEntity
  8
РОКН
100
AcDbMText
 10
1397263.451031906
 20
360062.500077666
 30
0.0
 40
6.533333333309999
 41
6.533333333309999
 46
0.0
 71
     2
 72
     5
  1
РОКН\Pуч.61
 73
     1
 44
1.0
  0
MTEXT
  5
410
330
1C
100
AcDbEntity
  8
РОКН
100
AcDbMText
 10
1397396.707342076
 20
359472.084822503
 30
0.0
 40
6.533333333309999
 41
6.533333333309999
 46
0.0
 71
     2
 72
     5
  1
РОКН\Pуч.62
 73
     1
 44
1.0
  0
MTEXT
  5
411
330
1C
100
AcDbEntity
  8
РОКН
100
AcDbMText
 10
1397237.443864337
 20
359566.516934865
 30
0.0
 40
6.533333333309999
 41
6.533333333309999
 46
0.0
 71
     2
 72
     5
  1
РОКН\Pуч.62
 73
     1
 44
1.0
  0
MTEXT
  5
412
330
1C
100
AcDbEntity
  8
РОКН
100
AcDbMText
 10
1398067.965325147
 20
359224.424169672
 30
0.0
 40
6.533333333309999
 41
6.533333333309999
 46
0.0
 71
     2
 72
     5
  1
РОКН\Pуч.66
 73
     1
 44
1.0
  0
MTEXT
  5
413
330
1C
100
AcDbEntity
  8
РОКН
100
AcDbMText
 10
1398535.584324397
 20
359139.687392283
 30
0.0
 40
6.533333333309999
 41
6.533333333309999
 46
0.0
 71
     2
 72
     5
  1
РОКН\Pуч.74
 73
     1
 44
1.0
  0
MTEXT
  5
414
330
1C
100
AcDbEntity
  8
РОКН
100
AcDbMText
 10
1398920.069026396
 20
359224.9975413551
 30
0.0
 40
6.533333333309999
 41
6.533333333309999
 46
0.0
 71
     2
 72
     5
  1
РОКН\Pуч.74
 73
     1
 44
1.0
  0
MTEXT
  5
415
330
1C
100
AcDbEntity
  8
РОКН
100
AcDbMText
 10
1398817.830235536
 20
359647.421556998
 30
0.0
 40
6.533333333309999
 41
6.533333333309999
 46
0.0
 71
     2
 72
     5
  1
РОКН\Pуч.68
 73
     1
 44
1.0
  0
MTEXT
  5
416
330
1C
100
AcDbEntity
  8
РОКН
100
AcDbMText
 10
1399215.316051847
 20
359481.02158063
 30
0.0
 40
6.533333333309999
 41
6.533333333309999
 46
0.0
 71
     2
 72
     5
  1
РОКН\Pуч.70
 73
     1
 44
1.0
  0
MTEXT
  5
417
330
1C
100
AcDbEntity
  8
РОКН
100
AcDbMText
 10
1399564.656443887
 20
360734.4997568821
 30
0.0
 40
6.533333333309999
 41
6.533333333309999
 46
0.0
 71
     2
 72
     5
  1
РОКН\Pуч.72
 73
     1
 44
1.0
  0
MTEXT
  5
418
330
1C
100
AcDbEntity
  8
РОКН
100
AcDbMText
 10
1399498.269905176
 20
360409.286848942
 30
0.0
 40
6.533333333309999
 41
6.533333333309999
 46
0.0
 71
     2
 72
     5
  1
РОКН\Pуч.72
 73
     1
 44
1.0
  0
MTEXT
  5
419
330
1C
100
AcDbEntity
  8
РОКН
100
AcDbMText
 10
1399515.216959817
 20
360529.6551540551
 30
0.0
 40
6.533333333309999
 41
6.533333333309999
 46
0.0
 71
     2
 72
     5
  1
РОКН\Pуч.72
 73
     1
 44
1.0
  0
MTEXT
  5
41A
330
1C
100
AcDbEntity
  8
РОКН
100
AcDbMText
 10
1399533.914430696
 20
360115.0546930421
 30
0.0
 40
6.533333333309999
 41
6.533333333309999
 46
0.0
 71
     2
 72
     5
  1
РОКН\Pуч.71
 73
     1
 44
1.0
  0
MTEXT
  5
4A6
330
1C
100
AcDbEntity
  8
РОКН
100
AcDbMText
 10
1398343.512931917
 20
359139.063519476
 30
0.0
 40
6.533333333309999
 41
6.533333333309999
 46
0.0
 71
     2
 72
     5
  1
РОКН\Pуч.67
 73
     1
 44
1.0
  0
MTEXT
  5
4B7
330
1C
100
AcDbEntity
  8
РОКН
100
AcDbMText
 10
1395629.643996786
 20
360137.868209598
 30
0.0
 40
6.533333333309999
 41
6.533333333309999
 46
0.0
 71
     2
 72
     5
  1
РОКН\Pуч.44
 73
     1
 44
1.0
  0
MTEXT
  5
4BD
330
1C
100
AcDbEntity
  8
РОКН
100
AcDbMText
 10
1396869.702718746
 20
359936.5085914441
 30
0.0
 40
6.533333333309999
 41
6.533333333309999
 46
0.0
 71
     2
 72
     5
  1
РОКН\Pуч.57
 73
     1
 44
1.0
  0
MTEXT
  5
509
330
1C
100
AcDbEntity
  8
РОКН
100
AcDbMText
 10
1399089.773222526
 20
359322.157121788
 30
0.0
 40
6.533333333309999
 41
6.533333333309999
 46
0.0
 71
     2
 72
     5
  1
РОКН\Pуч.69
 73
     1
 44
1.0
  0
MTEXT
  5
50C
330
1C
100
AcDbEntity
  8
РОКН
100
AcDbMText
 10
1394805.963777316
 20
360116.9025121841
 30
0.0
 40
6.533333333309999
 41
6.533333333309999
 46
0.0
 71
     2
 72
     5
  1
РОКН\Pуч.28
 73
     1
 44
1.0
  0
MTEXT
  5
50D
330
1C
100
AcDbEntity
  8
РОКН
100
AcDbMText
 10
1394628.608032046
 20
359757.104162227
 30
0.0
 40
6.533333333309999
 41
6.533333333309999
 46
0.0
 71
     2
 72
     5
  1
РОКН\Pуч.25
 73
     1
 44
1.0
  0
MTEXT
  5
50E
330
1C
100
AcDbEntity
  8
РОКН
100
AcDbMText
 10
1394837.184229006
 20
360185.8084663211
 30
0.0
 40
6.533333333309999
 41
6.533333333309999
 46
0.0
 71
     2
 72
     5
  1
РОКН\Pуч.29
 73
     1
 44
1.0
  0
MTEXT
  5
50F
330
1C
100
AcDbEntity
  8
РОКН
100
AcDbMText
 10
1397659.557968736
 20
359341.601094363
 30
0.0
 40
6.533333333309999
 41
6.533333333309999
 46
0.0
 71
     2
 72
     5
  1
РОКН\Pуч.64
 73
     1
 44
1.0
  0
MTEXT
  5
516
330
1C
100
AcDbEntity
  8
РОКН
100
AcDbMText
 10
1397644.413839636
 20
359607.75949602
 30
0.0
 40
6.533333333309999
 41
6.533333333309999
 46
0.0
 71
     2
 72
     5
  1
РОКН\Pуч.65
 73
     1
 44
1.0
  0
MTEXT
  5
517
330
1C
100
AcDbEntity
  8
РОКН
100
AcDbMText
 10
1397410.831588896
 20
359642.742711189
 30
0.0
 40
6.533333333309999
 41
6.533333333309999
 46
0.0
 71
     2
 72
     5
  1
РОКН\Pуч.63
 73
     1
 44
1.0
  0
MTEXT
  5
519
330
1C
100
AcDbEntity
  8
РОКН
100
AcDbMText
 10
1396950.891302506
 20
359699.018054771
 30
0.0
 40
6.533333333309999
 41
6.533333333309999
 46
0.0
 71
     2
 72
     5
  1
РОКН\Pуч.59
 73
     1
 44
1.0
  0
MTEXT
  5
529
330
1C
100
AcDbEntity
  8
РОКН
100
AcDbMText
 10
1395868.151198357
 20
359862.0337780761
 30
0.0
 40
6.533333333309999
 41
6.533333333309999
 46
0.0
 71
     2
 72
     5
  1
РОКН\Pуч.50
 73
     1
 44
1.0
  0
MTEXT
  5
52A
330
1C
100
AcDbEntity
  8
РОКН
100
AcDbMText
 10
1395864.678460626
 20
359710.6596860821
 30
0.0
 40
6.533333333309999
 41
6.533333333309999
 46
0.0
 71
     2
 72
     5
  1
РОКН\Pуч.49
 73
     1
 44
1.0
  0
MTEXT
  5
52B
330
1C
100
AcDbEntity
  8
РОКН
100
AcDbMText
 10
1395965.492146497
 20
359446.718973777
 30
0.0
 40
6.533333333309999
 41
6.533333333309999
 46
0.0
 71
     2
 72
     5
  1
РОКН\Pуч.51
 73
     1
 44
1.0
  0
MTEXT
  5
530
330
1C
100
AcDbEntity
  8
РОКН
100
AcDbMText
 10
1394966.610384596
 20
360051.393845559
 30
0.0
 40
6.533333333309999
 41
6.533333333309999
 46
0.0
 71
     2
 72
     5
  1
РОКН\Pуч.34
 73
     1
 44
1.0
  0
MTEXT
  5
536
330
1C
100
AcDbEntity
  8
РОКН
100
AcDbMText
 10
1396029.795798846
 20
359836.680757012
 30
0.0
 40
6.533333333309999
 41
6.533333333309999
 46
0.0
 71
     2
 72
     5
  1
РОКН\Pуч.54
 73
     1
 44
1.0
  0
MTEXT
  5
549
330
1C
100
AcDbEntity
  8
РОКН
100
AcDbMText
 10
1391643.052082176
 20
355095.825703429
 30
0.0
 40
6.533333333309999
 41
6.533333333309999
 46
0.0
 71
     2
 72
     5
  1
РОКН\Pуч.1
 73
     1
 44
1.0
  0
MTEXT
  5
54A
330
1C
100
AcDbEntity
  8
РОКН
100
AcDbMText
 10
1391540.5991987
 20
355722.438888226
 30
0.0
 40
5.59999999998
 41
5.59999999998
 46
0.0
 71
     2
 72
     5
  1
РОКН\Pуч.3
 73
     1
 44
1.0
  0
MTEXT
  5
54B
330
1C
100
AcDbEntity
  8
РОКН
100
AcDbMText
 10
1391869.348716776
 20
355942.06356713
 30
0.0
 40
6.533333333309999
 41
6.533333333309999
 46
0.0
 71
     2
 72
     5
  1
РОКН\Pуч.4
 73
     1
 44
1.0
  0
MTEXT
  5
54C
330
1C
100
AcDbEntity
  8
РОКН
100
AcDbMText
 10
1392315.813888297
 20
356054.4679564451
 30
0.0
 40
6.533333333309999
 41
6.533333333309999
 46
0.0
 71
     2
 72
     5
  1
РОКН\Pуч.4
 73
     1
 44
1.0
  0
MTEXT
  5
54D
330
1C
100
AcDbEntity
  8
РОКН
100
AcDbMText
 10
1392314.395560716
 20
356568.791295868
 30
0.0
 40
6.533333333309999
 41
6.533333333309999
 46
0.0
 71
     2
 72
     5
  1
РОКН\Pуч.5
 73
     1
 44
1.0
  0
MTEXT
  5
54E
330
1C
100
AcDbEntity
  8
РОКН
100
AcDbMText
 10
1393130.628337456
 20
356926.150334454
 30
0.0
 40
6.533333333309999
 41
6.533333333309999
 46
0.0
 71
     2
 72
     5
  1
РОКН\Pуч.6
 73
     1
 44
1.0
  0
MTEXT
  5
54F
330
1C
100
AcDbEntity
  8
РОКН
100
AcDbMText
 10
1393252.890471396
 20
357141.318052204
 30
0.0
 40
6.533333333309999
 41
6.533333333309999
 46
0.0
 71
     2
 72
     5
  1
РОКН\Pуч.6
 73
     1
 44
1.0
  0
MTEXT
  5
550
330
1C
100
AcDbEntity
  8
РОКН
100
AcDbMText
 10
1393228.434931746
 20
357840.299535427
 30
0.0
 40
6.533333333309999
 41
6.533333333309999
 46
0.0
 71
     2
 72
     5
  1
РОКН\Pуч.12
 73
     1
 44
1.0
  0
MTEXT
  5
551
330
1C
100
AcDbEntity
  8
РОКН
100
AcDbMText
 10
1394261.629995677
 20
358633.315715666
 30
0.0
 40
6.533333333309999
 41
6.533333333309999
 46
0.0
 71
     2
 72
     5
  1
РОКН\Pуч.15
 73
     1
 44
1.0
  0
MTEXT
  5
552
330
1C
100
AcDbEntity
  8
РОКН
100
AcDbMText
 10
1394321.469288207
 20
359042.484065981
 30
0.0
 40
6.533333333309999
 41
6.533333333309999
 46
0.0
 71
     2
 72
     5
  1
РОКН\Pуч.16
 73
     1
 44
1.0
  0
MTEXT
  5
553
330
1C
100
AcDbEntity
  8
РОКН
100
AcDbMText
 10
1394770.476385737
 20
358949.965775063
 30
0.0
 40
6.533333333309999
 41
6.533333333309999
 46
0.0
 71
     2
 72
     5
  1
РОКН\Pуч.17
 73
     1
 44
1.0
  0
MTEXT
  5
554
330
1C
100
AcDbEntity
  8
РОКН
100
AcDbMText
 10
1394694.699425687
 20
359028.7463114471
 30
0.0
 40
6.533333333309999
 41
6.533333333309999
 46
0.0
 71
     2
 72
     5
  1
РОКН\Pуч.18
 73
     1
 44
1.0
  0
MTEXT
  5
555
330
1C
100
AcDbEntity
  8
РОКН
100
AcDbMText
 10
1394575.403207836
 20
359262.097914228
 30
0.0
 40
6.533333333309999
 41
6.533333333309999
 46
0.0
 71
     2
 72
     5
  1
РОКН\Pуч.20
 73
     1
 44
1.0
  0
MTEXT
  5
556
330
1C
100
AcDbEntity
  8
РОКН
100
AcDbMText
 10
1394486.436817276
 20
359238.51782494
 30
0.0
 40
6.533333333309999
 41
6.533333333309999
 46
0.0
 71
     2
 72
     5
  1
РОКН\Pуч.21
 73
     1
 44
1.0
  0
MTEXT
  5
557
330
1C
100
AcDbEntity
  8
РОКН
100
AcDbMText
 10
1394528.757333727
 20
359530.60846662
 30
0.0
 40
6.533333333309999
 41
6.533333333309999
 46
0.0
 71
     2
 72
     5
  1
РОКН\Pуч.22
 73
     1
 44
1.0
  0
MTEXT
  5
558
330
1C
100
AcDbEntity
  8
РОКН
100
AcDbMText
 10
1394645.101891156
 20
359556.643660911
 30
0.0
 40
6.533333333309999
 41
6.533333333309999
 46
0.0
 71
     2
 72
     5
  1
РОКН\Pуч.23
 73
     1
 44
1.0
  0
MTEXT
  5
559
330
1C
100
AcDbEntity
  8
РОКН
100
AcDbMText
 10
1394566.227530036
 20
359117.805284649
 30
0.0
 40
6.533333333309999
 41
6.533333333309999
 46
0.0
 71
     2
 72
     5
  1
РОКН\Pуч.19
 73
     1
 44
1.0
  0
MTEXT
  5
5B5
330
1C
100
AcDbEntity
  8
РОКН
100
AcDbMText
 10
1391763.202602346
 20
356053.786951505
 30
0.0
 40
6.533333333309999
 41
6.533333333309999
 46
0.0
 71
     2
 72
     5
  1
РОКН\Pуч.73
 73
     1
 44
1.0
  0
MTEXT
  5
5B6
330
1C
100
AcDbEntity
  8
РОКН
100
AcDbMText
 10
1391531.44894855
 20
355659.5267245021
 30
0.0
 40
5.59999999998
 41
5.59999999998
 46
0.0
 71
     2
 72
     5
  1
РОКН\Pуч.2
 73
     1
 44
1.0
  0
MTEXT
  5
5B8
330
1C
100
AcDbEntity
  8
РОКН
100
AcDbMText
 10
1393030.802549857
 20
357438.614489154
 30
0.0
 40
6.533333333309999
 41
6.533333333309999
 46
0.0
 71
     2
 72
     5
  1
РОКН\Pуч.11
 73
     1
 44
1.0
  0
MTEXT
  5
5B9
330
1C
100
AcDbEntity
  8
РОКН
100
AcDbMText
 10
1393381.013219866
 20
357142.513544628
 30
0.0
 40
6.533333333309999
 41
6.533333333309999
 46
0.0
 71
     2
 72
     5
  1
РОКН\Pуч.7
 73
     1
 44
1.0
  0
MTEXT
  5
5BA
330
1C
100
AcDbEntity
  8
РОКН
100
AcDbMText
 10
1393377.038603356
 20
357231.125381468
 30
0.0
 40
6.533333333309999
 41
6.533333333309999
 46
0.0
 71
     2
 72
     5
  1
РОКН\Pуч.8
 73
     1
 44
1.0
  0
MTEXT
  5
5C0
330
1C
100
AcDbEntity
  8
РОКН
100
AcDbMText
 10
1393811.238822246
 20
358441.6868029171
 30
0.0
 40
6.533333333309999
 41
6.533333333309999
 46
0.0
 71
     2
 72
     5
  1
РОКН\Pуч.13
 73
     1
 44
1.0
  0
MTEXT
  5
5C8
330
1C
100
AcDbEntity
  8
РОКН
100
AcDbMText
 10
1393429.647915526
 20
357364.1326836101
 30
0.0
 40
6.533333333309999
 41
6.533333333309999
 46
0.0
 71
     2
 72
     5
  1
РОКН\Pуч.10
 73
     1
 44
1.0
  0
MTEXT
  5
5CE
330
1C
100
AcDbEntity
  8
РОКН
100
AcDbMText
 10
1394259.176348427
 20
358560.9858887121
 30
0.0
 40
6.533333333309999
 41
6.533333333309999
 46
0.0
 71
     2
 72
     5
  1
РОКН\Pуч.14
 73
     1
 44
1.0
  0
MTEXT
  5
5D5
330
1C
100
AcDbEntity
  8
РОКН
100
AcDbMText
 10
1391594.821255417
 20
355501.516335941
 30
0.0
 40
6.533333333309999
 41
6.533333333309999
 46
0.0
 71
     2
 72
     5
  1
РОКН\Pуч.1
 73
     1
 44
1.0
  0
MTEXT
  5
5F1
330
1C
100
AcDbEntity
  8
РОКН
100
AcDbMText
 10
1393278.795069097
 20
357424.904413396
 30
0.0
 40
6.533333333309999
 41
6.533333333309999
 46
0.0
 71
     2
 72
     5
  1
РОКН\Pуч.9
 73
     1
 44
1.0
  0
CIRCLE
  5
6C7
330
1C
100
AcDbEntity
  8
РОКН
370
     0
100
AcDbCircle
 10
1394421.35086412
 20
359526.5658747321
 30
0.0
 40
12.1055889129639
  0
CIRCLE
  5
6C9
330
1C
100
AcDbEntity
  8
РОКН
370
     0
100
AcDbCircle
 10
1394478.66922835
 20
359724.973827146
 30
0.0
 40
17.0
  0
CIRCLE
  5
6CA
330
1C
100
AcDbEntity
  8
РОКН
370
     0
100
AcDbCircle
 10
1394649.89297449
 20
359509.7954371011
 30
0.0
 40
12.1055889129639
  0
CIRCLE
  5
6CB
330
1C
100
AcDbEntity
  8
РОКН
370
     0
100
AcDbCircle
 10
1394378.60626119
 20
360485.522180328
 30
0.0
 40
16.0
  0
CIRCLE
  5
6CC
330
1C
100
AcDbEntity
  8
РОКН
370
     0
100
AcDbCircle
 10
1394323.99641472
 20
360805.689472876
 30
0.0
 40
17.0
  0
CIRCLE
  5
6CD
330
1C
100
AcDbEntity
  8
РОКН
370
     0
100
AcDbCircle
 10
1394785.06272595
 20
360292.8455892711
 30
0.0
 40
16.0
  0
CIRCLE
  5
6CE
330
1C
100
AcDbEntity
  8
РОКН
370
     0
100
AcDbCircle
 10
1394788.43231537
 20
360340.667869631
 30
0.0
 40
17.0
  0
CIRCLE
  5
6CF
330
1C
100
AcDbEntity
  8
РОКН
370
     0
100
AcDbCircle
 10
1394907.66783242
 20
360387.288171205
 30
0.0
 40
16.0
  0
CIRCLE
  5
6D0
330
1C
100
AcDbEntity
  8
РОКН
370
     0
100
AcDbCircle
 10
1394962.5134147
 20
359936.912346068
 30
0.0
 40
16.0
  0
CIRCLE
  5
6D1
330
1C
100
AcDbEntity
  8
РОКН
370
     0
100
AcDbCircle
 10
1394915.81213062
 20
360139.457183516
 30
0.0
 40
16.0
  0
CIRCLE
  5
6D2
330
1C
100
AcDbEntity
  8
РОКН
370
     0
100
AcDbCircle
 10
1394956.53351016
 20
360313.491401749
 30
0.0
 40
17.0
  0
CIRCLE
  5
6D3
330
1C
100
AcDbEntity
  8
РОКН
370
     0
100
AcDbCircle
 10
1395040.23530995
 20
360350.571629095
 30
0.0
 40
16.0
  0
CIRCLE
  5
6D4
330
1C
100
AcDbEntity
  8
РОКН
370
     0
100
AcDbCircle
 10
1395147.15052839
 20
360251.3018244501
 30
0.0
 40
16.0
  0
CIRCLE
  5
6D5
330
1C
100
AcDbEntity
  8
РОКН
370
     0
100
AcDbCircle
 10
1395133.68263945
 20
360479.3076784361
 30
0.0
 40
17.0
  0
CIRCLE
  5
6D6
330
1C
100
AcDbEntity
  8
РОКН
370
     0
100
AcDbCircle
 10
1395219.96869217
 20
360207.009792584
 30
0.0
 40
16.0
  0
CIRCLE
  5
6D7
330
1C
100
AcDbEntity
  8
РОКН
370
     0
100
AcDbCircle
 10
1395276.11048201
 20
360435.4778898301
 30
0.0
 40
16.0
  0
CIRCLE
  5
6D8
330
1C
100
AcDbEntity
  8
РОКН
370
     0
100
AcDbCircle
 10
1395361.19888275
 20
360141.3123746971
 30
0.0
 40
16.0
  0
CIRCLE
  5
6D9
330
1C
100
AcDbEntity
  8
РОКН
370
     0
100
AcDbCircle
 10
1395339.55411465
 20
360264.824091113
 30
0.0
 40
17.0
  0
CIRCLE
  5
6DA
330
1C
100
AcDbEntity
  8
РОКН
370
     0
100
AcDbCircle
 10
1395602.55198235
 20
359673.5107907301
 30
0.0
 40
16.0
  0
CIRCLE
  5
6DB
330
1C
100
AcDbEntity
  8
РОКН
370
     0
100
AcDbCircle
 10
1395865.85769563
 20
359462.103914214
 30
0.0
 40
16.0
  0
CIRCLE
  5
6DC
330
1C
100
AcDbEntity
  8
РОКН
370
     0
100
AcDbCircle
 10
1395835.8144121
 20
359546.8551920811
 30
0.0
 40
16.0
  0
CIRCLE
  5
6DD
330
1C
100
AcDbEntity
  8
РОКН
370
     0
100
AcDbCircle
 10
1395719.99540581
 20
359639.06368003
 30
0.0
 40
16.0
  0
CIRCLE
  5
6DE
330
1C
100
AcDbEntity
  8
РОКН
370
     0
100
AcDbCircle
 10
1396185.43814851
 20
359497.1791802271
 30
0.0
 40
16.0
  0
CIRCLE
  5
6DF
330
1C
100
AcDbEntity
  8
РОКН
370
     0
100
AcDbCircle
 10
1396024.65105303
 20
359584.448705848
 30
0.0
 40
16.0
  0
CIRCLE
  5
6E0
330
1C
100
AcDbEntity
  8
РОКН
370
     0
100
AcDbCircle
 10
1396038.0710933
 20
359696.263418179
 30
0.0
 40
16.0
  0
CIRCLE
  5
6E1
330
1C
100
AcDbEntity
  8
РОКН
370
     0
100
AcDbCircle
 10
1396302.75591609
 20
359562.3189883271
 30
0.0
 40
17.0
  0
CIRCLE
  5
6E2
330
1C
100
AcDbEntity
  8
РОКН
370
     0
100
AcDbCircle
 10
1396435.81371898
 20
359621.129153994
 30
0.0
 40
17.0
  0
CIRCLE
  5
6E3
330
1C
100
AcDbEntity
  8
РОКН
370
     0
100
AcDbCircle
 10
1396694.6720918
 20
359651.0166826951
 30
0.0
 40
17.0
  0
CIRCLE
  5
6E4
330
1C
100
AcDbEntity
  8
РОКН
370
     0
100
AcDbCircle
 10
1396722.29122838
 20
359971.449731237
 30
0.0
 40
17.0
  0
CIRCLE
  5
6E5
330
1C
100
AcDbEntity
  8
РОКН
370
     0
100
AcDbCircle
 10
1396858.44150582
 20
359571.1513103371
 30
0.0
 40
17.0
  0
CIRCLE
  5
6E6
330
1C
100
AcDbEntity
  8
РОКН
370
     0
100
AcDbCircle
 10
1397014.562635
 20
359561.172636548
 30
0.0
 40
17.0
  0
CIRCLE
  5
6E7
330
1C
100
AcDbEntity
  8
РОКН
370
     0
100
AcDbCircle
 10
1397038.77662177
 20
359728.7709755701
 30
0.0
 40
17.0
  0
CIRCLE
  5
6E8
330
1C
100
AcDbEntity
  8
РОКН
370
     0
100
AcDbCircle
 10
1397263.0751524
 20
360055.550176624
 30
0.0
 40
17.0
  0
CIRCLE
  5
6E9
330
1C
100
AcDbEntity
  8
РОКН
370
     0
100
AcDbCircle
 10
1397396.37156114
 20
359462.515257903
 30
0.0
 40
17.0
  0
CIRCLE
  5
6EA
330
1C
100
AcDbEntity
  8
РОКН
370
     0
100
AcDbCircle
 10
1397236.55546011
 20
359556.784621373
 30
0.0
 40
17.0
  0
CIRCLE
  5
6EB
330
1C
100
AcDbEntity
  8
РОКН
370
     0
100
AcDbCircle
 10
1398068.7327164
 20
359214.633408606
 30
0.0
 40
17.0
  0
CIRCLE
  5
6EC
330
1C
100
AcDbEntity
  8
РОКН
370
     0
100
AcDbCircle
 10
1398535.38119939
 20
359130.4101798441
 30
0.0
 40
17.0
  0
CIRCLE
  5
6ED
330
1C
100
AcDbEntity
  8
РОКН
370
     0
100
AcDbCircle
 10
1398920.29668334
 20
359215.2541235291
 30
0.0
 40
17.0
  0
CIRCLE
  5
6EE
330
1C
100
AcDbEntity
  8
РОКН
370
     0
100
AcDbCircle
 10
1398817.49244531
 20
359637.984952729
 30
0.0
 40
17.0
  0
CIRCLE
  5
6EF
330
1C
100
AcDbEntity
  8
РОКН
370
     0
100
AcDbCircle
 10
1399215.54372033
 20
359471.2781598551
 30
0.0
 40
17.0
  0
CIRCLE
  5
6F0
330
1C
100
AcDbEntity
  8
РОКН
370
     0
100
AcDbCircle
 10
1399564.34063172
 20
360723.6304206951
 30
0.0
 40
16.0
  0
CIRCLE
  5
6F1
330
1C
100
AcDbEntity
  8
РОКН
370
     0
100
AcDbCircle
 10
1399498.07754943
 20
360399.9063014541
 30
0.0
 40
17.0
  0
CIRCLE
  5
6F2
330
1C
100
AcDbEntity
  8
РОКН
370
     0
100
AcDbCircle
 10
1399514.48778482
 20
360520.2143037291
 30
0.0
 40
16.0
  0
CIRCLE
  5
6F3
330
1C
100
AcDbEntity
  8
РОКН
370
     0
100
AcDbCircle
 10
1399533.60717386
 20
360103.6254414621
 30
0.0
 40
17.0
  0
CIRCLE
  5
77F
330
1C
100
AcDbEntity
  8
РОКН
370
     0
100
AcDbCircle
 10
1398343.13705298
 20
359132.113584549
 30
0.0
 40
17.0
  0
CIRCLE
  5
790
330
1C
100
AcDbEntity
  8
РОКН
370
     0
100
AcDbCircle
 10
1395628.90728076
 20
360129.0439455301
 30
0.0
 40
16.0
  0
CIRCLE
  5
793
330
1C
100
AcDbEntity
  8
РОКН
370
     0
100
AcDbCircle
 10
1396869.21518134
 20
359926.566375106
 30
0.0
 40
17.0
  0
CIRCLE
  5
7DF
330
1C
100
AcDbEntity
  8
РОКН
370
     0
100
AcDbCircle
 10
1399090.00088486
 20
359312.4137014021
 30
0.0
 40
17.0
  0
CIRCLE
  5
7E2
330
1C
100
AcDbEntity
  8
РОКН
370
     0
100
AcDbCircle
 10
1394805.01981431
 20
360107.906821168
 30
0.0
 40
16.0
  0
CIRCLE
  5
7E3
330
1C
100
AcDbEntity
  8
РОКН
370
     0
100
AcDbCircle
 10
1394628.05089659
 20
359747.7551640171
 30
0.0
 40
16.0
  0
CIRCLE
  5
7E4
330
1C
100
AcDbEntity
  8
РОКН
370
     0
100
AcDbCircle
 10
1394836.8224426
 20
360176.3115521921
 30
0.0
 40
16.0
  0
CIRCLE
  5
7E5
330
1C
100
AcDbEntity
  8
РОКН
370
     0
100
AcDbCircle
 10
1397659.48812518
 20
359332.7211343
 30
0.0
 40
17.0
  0
CIRCLE
  5
7EC
330
1C
100
AcDbEntity
  8
РОКН
370
     0
100
AcDbCircle
 10
1397643.6286911
 20
359597.5952394411
 30
0.0
 40
17.0
  0
CIRCLE
  5
7ED
330
1C
100
AcDbEntity
  8
РОКН
370
     0
100
AcDbCircle
 10
1397410.35626533
 20
359633.327295888
 30
0.0
 40
17.0
  0
CIRCLE
  5
7EF
330
1C
100
AcDbEntity
  8
РОКН
370
     0
100
AcDbCircle
 10
1396949.8302631
 20
359690.1841382261
 30
0.0
 40
17.0
  0
CIRCLE
  5
7FF
330
1C
100
AcDbEntity
  8
РОКН
370
     0
100
AcDbCircle
 10
1395867.34746207
 20
359852.917831828
 30
0.0
 40
16.0
  0
CIRCLE
  5
800
330
1C
100
AcDbEntity
  8
РОКН
370
     0
100
AcDbCircle
 10
1395864.32779773
 20
359702.060954984
 30
0.0
 40
16.0
  0
CIRCLE
  5
801
330
1C
100
AcDbEntity
  8
РОКН
370
     0
100
AcDbCircle
 10
1395965.11623549
 20
359439.769086198
 30
0.0
 40
17.0
  0
CIRCLE
  5
806
330
1C
100
AcDbEntity
  8
РОКН
370
     0
100
AcDbCircle
 10
1394966.26774959
 20
360042.27039931
 30
0.0
 40
16.0
  0
CIRCLE
  5
80C
330
1C
100
AcDbEntity
  8
РОКН
370
     0
100
AcDbCircle
 10
1396028.80302434
 20
359826.9177286061
 30
0.0
 40
16.0
  0
CIRCLE
  5
81F
330
1C
100
AcDbEntity
  8
РОКН
370
     0
100
AcDbCircle
 10
1391643.35054342
 20
355087.7667463601
 30
0.0
 40
17.0
  0
CIRCLE
  5
820
330
1C
100
AcDbEntity
  8
РОКН
370
     0
100
AcDbCircle
 10
1391540.85986819
 20
355715.008248124
 30
0.0
 40
16.0
  0
CIRCLE
  5
821
330
1C
100
AcDbEntity
  8
РОКН
370
     0
100
AcDbCircle
 10
1391869.1813332
 20
355933.725748283
 30
0.0
 40
16.0
  0
CIRCLE
  5
822
330
1C
100
AcDbEntity
  8
РОКН
370
     0
100
AcDbCircle
 10
1392315.40298622
 20
356046.029928323
 30
0.0
 40
17.0
  0
CIRCLE
  5
823
330
1C
100
AcDbEntity
  8
РОКН
370
     0
100
AcDbCircle
 10
1392313.65595107
 20
356560.482993033
 30
0.0
 40
17.0
  0
CIRCLE
  5
824
330
1C
100
AcDbEntity
  8
РОКН
370
     0
100
AcDbCircle
 10
1393130.28456691
 20
356920.015362345
 30
0.0
 40
16.0
  0
CIRCLE
  5
825
330
1C
100
AcDbEntity
  8
РОКН
370
     0
100
AcDbCircle
 10
1393253.11189946
 20
357134.9119544521
 30
0.0
 40
17.0
  0
CIRCLE
  5
826
330
1C
100
AcDbEntity
  8
РОКН
370
     0
100
AcDbCircle
 10
1393228.04386909
 20
357831.4755711229
 30
0.0
 40
17.0
  0
CIRCLE
  5
827
330
1C
100
AcDbEntity
  8
РОКН
370
     0
100
AcDbCircle
 10
1394260.77761413
 20
358624.139696214
 30
0.0
 40
17.0
  0
CIRCLE
  5
828
330
1C
100
AcDbEntity
  8
РОКН
370
     0
100
AcDbCircle
 10
1394321.13487218
 20
359033.8776665041
 30
0.0
 40
17.0
  0
CIRCLE
  5
829
330
1C
100
AcDbEntity
  8
РОКН
370
     0
100
AcDbCircle
 10
1394770.60515996
 20
358940.147651376
 30
0.0
 40
17.0
  0
CIRCLE
  5
82A
330
1C
100
AcDbEntity
  8
РОКН
370
     0
100
AcDbCircle
 10
1394693.84165771
 20
359019.1739362771
 30
0.0
 40
16.0
  0
CIRCLE
  5
82B
330
1C
100
AcDbEntity
  8
РОКН
370
     0
100
AcDbCircle
 10
1394575.31515833
 20
359253.288440297
 30
0.0
 40
17.0
  0
CIRCLE
  5
82C
330
1C
100
AcDbEntity
  8
РОКН
370
     0
100
AcDbCircle
 10
1394486.3065923
 20
359228.983811843
 30
0.0
 40
17.0
  0
CIRCLE
  5
82D
330
1C
100
AcDbEntity
  8
РОКН
370
     0
100
AcDbCircle
 10
1394528.55760031
 20
359520.862140674
 30
0.0
 40
17.0
  0
CIRCLE
  5
82E
330
1C
100
AcDbEntity
  8
РОКН
370
     0
100
AcDbCircle
 10
1394644.88963889
 20
359549.9260448991
 30
0.0
 40
17.0
  0
CIRCLE
  5
82F
330
1C
100
AcDbEntity
  8
РОКН
370
     0
100
AcDbCircle
 10
1394566.17578604
 20
359109.402492202
 30
0.0
 40
17.0
  0
CIRCLE
  5
88C
330
1C
100
AcDbEntity
  8
РОКН
370
     0
100
AcDbCircle
 10
1391762.12365082
 20
356044.294929081
 30
0.0
 40
17.0
  0
CIRCLE
  5
88D
330
1C
100
AcDbEntity
  8
РОКН
370
     0
100
AcDbCircle
 10
1391532.82737453
 20
355651.4889605361
 30
0.0
 40
16.0
  0
CIRCLE
  5
88F
330
1C
100
AcDbEntity
  8
РОКН
370
     0
100
AcDbCircle
 10
1393030.03457524
 20
357429.6873871551
 30
0.0
 40
17.0
  0
CIRCLE
  5
890
330
1C
100
AcDbEntity
  8
РОКН
370
     0
100
AcDbCircle
 10
1393379.93993018
 20
357134.6593877471
 30
0.0
 40
16.0
  0
CIRCLE
  5
891
330
1C
100
AcDbEntity
  8
РОКН
370
     0
100
AcDbCircle
 10
1393377.15111405
 20
357223.2769694891
 30
0.0
 40
16.0
  0
CIRCLE
  5
897
330
1C
100
AcDbEntity
  8
РОКН
370
     0
100
AcDbCircle
 10
1393810.19026585
 20
358432.640262683
 30
0.0
 40
17.0
  0
CIRCLE
  5
89F
330
1C
100
AcDbEntity
  8
РОКН
370
     0
100
AcDbCircle
 10
1393428.67192073
 20
357354.789187515
 30
0.0
 40
16.0
  0
CIRCLE
  5
8A5
330
1C
100
AcDbEntity
  8
РОКН
370
     0
100
AcDbCircle
 10
1394258.17179621
 20
358552.260892494
 30
0.0
 40
17.0
  0
CIRCLE
  5
8AC
330
1C
100
AcDbEntity
  8
РОКН
370
     0
100
AcDbCircle
 10
1391595.11972423
 20
355493.457386979
 30
0.0
 40
17.0
  0
CIRCLE
  5
8C8
330
1C
100
AcDbEntity
  8
РОКН
370
     0
100
AcDbCircle
 10
1393278.05883502
 20
357416.974979086
 30
0.0
 40
17.0
  0
VIEWPORT
  5
8E1
330
8DD
100
AcDbEntity
 67
     1
  8
0
100
AcDbViewport
 10
0.0
 20
0.0
 30
0.0
 40
297.0
 41
210.0
 68
     1
 69
     1
 12
50.0
 22
100.0
 13
0.0
 23
0.0
 14
10.0
 24
10.0
 15
10.0
 25
10.0
 16
0.0
 26
0.0
 36
1.0
 17
0.0
 27
0.0
 37
0.0
 42
50.0
 43
0.0
 44
0.0
 45
250.0
 50
0.0
 51
0.0
 72
  1000
 90
   819232
  1

281
     0
 71
     1
 74
     0
110
0.0
120
0.0
130
0.0
111
1.0
121
0.0
131
0.0
112
0.0
122
1.0
132
0.0
 79
     0
146
0.0
170
     0
 61
     5
292
     1
282
     1
141
0.0
142
0.0
 63
   250
421
  3355443
  0
ENDSEC
  0
SECTION
  2
OBJECTS
  0
DICTIONARY
  5
8E6
330
0
100
AcDbDictionary
280
     1
281
     1
  3
ACAD_CIP_PREVIOUS_PRODUCT_INFO
360
93D
  3
ACAD_COLOR
360
921
  3
ACAD_DETAILVIEWSTYLE
360
93A
  3
ACAD_DGNDEFINITIONS
360
F
  3
ACAD_DWFDEFINITIONS
360
10
  3
ACAD_GROUP
360
12
  3
ACAD_IMAGE_DICT
360
E
  3
ACAD_IMAGE_VARS
360
21
  3
ACAD_LAYOUT
360
8E0
  3
ACAD_MATERIAL
360
8EF
  3
ACAD_MLEADERSTYLE
360
936
  3
ACAD_MLINESTYLE
360
B
  3
ACAD_PDFDEFINITIONS
360
11
  3
ACAD_PLOTSETTINGS
360
93C
  3
ACAD_PLOTSTYLENAME
360
8ED
  3
ACAD_SCALELIST
360
924
  3
ACAD_SECTIONVIEWSTYLE
360
938
  3
ACAD_TABLESTYLE
360
922
  3
ACAD_VISUALSTYLE
360
908
  3
ACDB_RECOMPOSE_DATA
360
9CF
  3
AcDbVariableDictionary
360
944
  0
DICTIONARY
  5
6
330
5
100
AcDbDictionary
280
     1
281
     1
  3
ACAD_LAYERSTATES
360
8E7
  0
DICTIONARY
  5
9BC
330
1C
100
AcDbDictionary
280
     1
281
     1
  3
ACAD_SORTENTS
360
9BD
  0
XRECORD
  5
93D
102
{ACAD_REACTORS
330
8E6
102
}
330
8E6
100
AcDbXrecord
280
     1
300
ACD
300
2020
300
ACD_F_S
  0
DICTIONARY
  5
921
102
{ACAD_REACTORS
330
8E6
102
}
330
8E6
100
AcDbDictionary
281
     1
  0
DICTIONARY
  5
93A
102
{ACAD_REACTORS
330
8E6
102
}
330
8E6
100
AcDbDictionary
281
     1
  3
Imperial24
350
93B
  0
DICTIONARY
  5
F
330
8E6
100
AcDbDictionary
280
     1
281
     1
  0
DICTIONARY
  5
10
330
8E6
100
AcDbDictionary
280
     1
281
     1
  0
DICTIONARY
  5
12
330
8E6
100
AcDbDictionary
280
     1
281
     1
  0
DICTIONARY
  5
E
330
8E6
100
AcDbDictionary
280
     1
281
     1
  0
RASTERVARIABLES
  5
21
330
E
100
AcDbRasterVariables
 90
        0
 70
     1
 71
     1
 72
     0
  0
DICTIONARY
  5
8E0
330
8E6
100
AcDbDictionary
280
     1
281
     1
  3
Layout1
360
8E2
  3
Model
360
20
  0
DICTIONARY
  5
8EF
102
{ACAD_REACTORS
330
8E6
102
}
330
8E6
100
AcDbDictionary
281
     1
  3
ByBlock
350
8F8
  3
ByLayer
350
8F0
  3
Global
350
900
  0
DICTIONARY
  5
936
102
{ACAD_REACTORS
330
8E6
102
}
330
8E6
100
AcDbDictionary
281
     1
  3
Standard
350
937
  0
DICTIONARY
  5
B
330
8E6
100
AcDbDictionary
280
     1
281
     1
  3
Standard
360
1B
  0
DICTIONARY
  5
11
330
8E6
100
AcDbDictionary
280
     1
281
     1
  0
DICTIONARY
  5
93C
102
{ACAD_REACTORS
330
8E6
102
}
330
8E6
100
AcDbDictionary
281
     1
  0
ACDBDICTIONARYWDFLT
  5
8ED
102
{ACAD_REACTORS
330
8E6
102
}
330
8E6
100
AcDbDictionary
281
     1
  3
Normal
350
8EE
100
AcDbDictionaryWithDefault
340
8EE
  0
DICTIONARY
  5
924
102
{ACAD_REACTORS
330
8E6
102
}
330
8E6
100
AcDbDictionary
281
     1
  3
A0
350
925
  3
A1
350
926
  3
A2
350
927
  3
A3
350
928
  3
A4
350
929
  3
A5
350
92A
  3
A6
350
92B
  3
A7
350
92C
  3
A8
350
92D
  3
A9
350
92E
  3
B0
350
92F
  3
B1
350
930
  3
B2
350
931
  3
B3
350
932
  3
B4
350
933
  3
B5
350
934
  3
B6
350
935
  0
DICTIONARY
  5
938
102
{ACAD_REACTORS
330
8E6
102
}
330
8E6
100
AcDbDictionary
281
     1
  3
Imperial24
350
939
  0
DICTIONARY
  5
922
102
{ACAD_REACTORS
330
8E6
102
}
330
8E6
100
AcDbDictionary
281
     1
  3
Standard
350
923
  0
DICTIONARY
  5
908
102
{ACAD_REACTORS
330
8E6
102
}
330
8E6
100
AcDbDictionary
281
     1
  3
2dWireframe
350
90E
  3
Basic
350
90D
  3
Brighten
350
914
  3
ColorChange
350
918
  3
Conceptual
350
911
  3
Dim
350
913
  3
EdgeColorOff
350
920
  3
Facepattern
350
917
  3
Flat
350
909
  3
FlatWithEdges
350
90A
  3
Gouraud
350
90B
  3
GouraudWithEdges
350
90C
  3
Hidden
350
910
  3
JitterOff
350
91E
  3
Linepattern
350
916
  3
OverhangOff
350
91F
  3
Realistic
350
912
  3
Shaded
350
91D
  3
Shaded with edges
350
91C
  3
Shades of Gray
350
919
  3
Sketchy
350
91A
  3
Thicken
350
915
  3
Wireframe
350
90F
  3
X-Ray
350
91B
  0
XRECORD
  5
9CF
102
{ACAD_REACTORS
330
8E6
102
}
330
8E6
100
AcDbXrecord
280
     1
 90
        1
330
923
  0
DICTIONARY
  5
944
102
{ACAD_REACTORS
330
8E6
102
}
330
8E6
100
AcDbDictionary
281
     1
  3
CANNOSCALE
350
949
  3
CMLEADERSTYLE
350
946
  3
CTABLESTYLE
350
945
  3
CVIEWDETAILSTYLE
350
947
  3
CVIEWSECTIONSTYLE
350
948
  0
DICTIONARY
  5
8E7
330
6
100
AcDbDictionary
280
     1
281
     1
  0
SORTENTSTABLE
  5
9BD
102
{ACAD_REACTORS
330
9BC
102
}
330
9BC
100
AcDbSortentsTable
330
1C
331
C5
  5
C8
331
C6
  5
C9
331
C7
  5
CA
331
C8
  5
CB
331
C9
  5
CC
331
CA
  5
CD
331
CB
  5
CE
331
CC
  5
CF
331
CD
  5
D0
331
CE
  5
D1
331
CF
  5
D2
331
DA
  5
DD
331
DB
  5
DE
331
DE
  5
E1
331
E1
  5
E4
331
E6
  5
E9
331
E7
  5
EA
331
EA
  5
EE
331
EE
  5
F1
331
EF
  5
F2
331
116
  5
119
331
1D6
  5
1D8
331
1D9
  5
1DB
331
1DA
  5
1DC
331
1DB
  5
1DD
331
1DC
  5
1DE
331
1DD
  5
1DF
331
1DE
  5
1E0
331
1DF
  5
1E1
331
1E0
  5
1E2
331
1E2
  5
1E4
331
1E3
  5
1E5
331
1E4
  5
1E6
331
1E5
  5
1E7
331
1E6
  5
1E8
331
1E7
  5
1E9
331
1E8
  5
1EA
331
1E9
  5
1EB
331
1EA
  5
1EC
331
1EB
  5
1ED
331
1EC
  5
1EE
331
1EE
  5
1F0
331
1EF
  5
1F1
331
1F0
  5
1F2
331
1F2
  5
1F4
331
1F3
  5
1F5
331
1F4
  5
1F6
331
1F5
  5
1F7
331
1F6
  5
1F8
331
1F7
  5
1F9
331
1F9
  5
1FB
331
1FB
  5
1FD
331
1FD
  5
1FF
331
200
  5
202
331
201
  5
203
331
202
  5
204
331
203
  5
205
331
207
  5
209
331
208
  5
20A
331
20D
  5
20F
331
20E
  5
210
331
20F
  5
211
331
21B
  5
21D
331
21E
  5
220
331
21F
  5
221
331
223
  5
225
331
224
  5
226
331
229
  5
22B
331
22F
  5
231
331
235
  5
237
331
236
  5
238
331
238
  5
23A
  0
ACDBDETAILVIEWSTYLE
  5
93B
102
{ACAD_REACTORS
330
93A
102
}
330
93A
100
AcDbModelDocViewStyle
 70
     0
  3
Imperial24
290
     0
300
Imperial24
 90
        0
100
AcDbDetailViewStyle
 70
     0
 71
     0
 90
        3
 71
     1
340
18
 62
   256
 40
0.24
340
0
 62
   256
 40
0.24
300

 40
0.36
280
     3
 71
     2
340
15
 90
       25
 62
   256
 71
     3
340
18
 62
   256
 40
0.24
 90
        1
 40
0.75
 90
        1
300
%<\AcVar ViewType \f "%tc1">% %<\AcVar ViewDetailId>%\PМАСШТАБ %<\AcVar ViewScale \f "%sn">%
 71
     4
340
15
 90
       25
 62
   256
340
15
 90
       25
 62
   256
280
     0
  0
LAYOUT
  5
8E2
330
8E0
100
AcDbPlotSettings
  1

  2
none_device
  4
ISO_A4_(210.00_x_297.00_MM)
  6

 40
7.5
 41
20.0
 42
7.5
 43
20.0
 44
210.0
 45
297.0
 46
0.0
 47
0.0
 48
0.0
 49
0.0
140
0.0
141
0.0
142
1.0
143
1.0
 70
   688
 72
     1
 73
     1
 74
     1
  7

 75
     0
147
1.0
 76
     0
 77
     2
 78
   300
148
0.0
149
0.0
100
AcDbLayout
  1
Layout1
 70
     1
 71
     1
 10
0.0
 20
0.0
 11
12.0
 21
9.0
 12
0.0
 22
0.0
 32
0.0
 14
1.000000000000000E+20
 24
1.000000000000000E+20
 34
1.000000000000000E+20
 15
-1.000000000000000E+20
 25
-1.000000000000000E+20
 35
-1.000000000000000E+20
146
0.0
 13
0.0
 23
0.0
 33
0.0
 16
1.0
 26
0.0
 36
0.0
 17
0.0
 27
1.0
 37
0.0
 76
     0
330
8DD
331
8E1
  0
LAYOUT
  5
20
330
8E0
100
AcDbPlotSettings
  1

  2
none_device
  4
ISO_A4_(210.00_x_297.00_MM)
  6

 40
7.5
 41
20.0
 42
7.5
 43
20.0
 44
210.0
 45
297.0
 46
0.0
 47
0.0
 48
0.0
 49
0.0
140
0.0
141
0.0
142
1.0
143
1.0
 70
 11952
 72
     1
 73
     1
 74
     1
  7

 75
     0
147
1.0
 76
     0
 77
     2
 78
   300
148
0.0
149
0.0
100
AcDbLayout
  1
Model
 70
     1
 71
     0
 10
1370580.19114949
 20
317189.6127665851
 11
1399948.38546234
 21
361044.1753811011
 12
0.0
 22
0.0
 32
0.0
 14
1399948.38546234
 24
361044.1753811011
 34
0.0
 15
231.3
 25
175.5
 35
0.0
146
0.0
 13
0.0
 23
0.0
 33
0.0
 16
1.0
 26
0.0
 36
0.0
 17
0.0
 27
1.0
 37
0.0
 76
     0
330
1C
331
2
  0
MATERIAL
  5
8F8
102
{ACAD_XDICTIONARY
360
8F9
102
}
102
{ACAD_REACTORS
330
8EF
102
}
330
8EF
100
AcDbMaterial
  1
ByBlock
 72
     0
 43
0.0208333333333333
 43
0.0
 43
0.0
 43
0.0
 43
0.0
 43
0.0208333333333333
 43
0.0
 43
0.0
 43
0.0
 43
0.0
 43
1.0
 43
0.0
 43
0.0
 43
0.0
 43
0.0
 43
1.0
 77
     0
 47
0.0208333333333333
 47
0.0
 47
0.0
 47
0.0
 47
0.0
 47
0.0208333333333333
 47
0.0
 47
0.0
 47
0.0
 47
0.0
 47
1.0
 47
0.0
 47
0.0
 47
0.0
 47
0.0
 47
1.0
171
     0
 49
0.0208333333333333
 49
0.0
 49
0.0
 49
0.0
 49
0.0
 49
0.0208333333333333
 49
0.0
 49
0.0
 49
0.0
 49
0.0
 49
1.0
 49
0.0
 49
0.0
 49
0.0
 49
0.0
 49
1.0
175
     0
142
0.0208333333333333
142
0.0
142
0.0
142
0.0
142
0.0
142
0.0208333333333333
142
0.0
142
0.0
142
0.0
142
0.0
142
1.0
142
0.0
142
0.0
142
0.0
142
0.0
142
1.0
179
     0
144
0.0208333333333333
144
0.0
144
0.0
144
0.0
144
0.0
144
0.0208333333333333
144
0.0
144
0.0
144
0.0
144
0.0
144
1.0
144
0.0
144
0.0
144
0.0
144
0.0
144
1.0
147
0.0208333333333333
147
0.0
147
0.0
147
0.0
147
0.0
147
0.0208333333333333
147
0.0
147
0.0
147
0.0
147
0.0
147
1.0
147
0.0
147
0.0
147
0.0
147
0.0
147
1.0
  0
MATERIAL
  5
8F0
102
{ACAD_XDICTIONARY
360
8F1
102
}
102
{ACAD_REACTORS
330
8EF
102
}
330
8EF
100
AcDbMaterial
  1
ByLayer
 72
     0
 43
0.0208333333333333
 43
0.0
 43
0.0
 43
0.0
 43
0.0
 43
0.0208333333333333
 43
0.0
 43
0.0
 43
0.0
 43
0.0
 43
1.0
 43
0.0
 43
0.0
 43
0.0
 43
0.0
 43
1.0
 77
     0
 47
0.0208333333333333
 47
0.0
 47
0.0
 47
0.0
 47
0.0
 47
0.0208333333333333
 47
0.0
 47
0.0
 47
0.0
 47
0.0
 47
1.0
 47
0.0
 47
0.0
 47
0.0
 47
0.0
 47
1.0
171
     0
 49
0.0208333333333333
 49
0.0
 49
0.0
 49
0.0
 49
0.0
 49
0.0208333333333333
 49
0.0
 49
0.0
 49
0.0
 49
0.0
 49
1.0
 49
0.0
 49
0.0
 49
0.0
 49
0.0
 49
1.0
175
     0
142
0.0208333333333333
142
0.0
142
0.0
142
0.0
142
0.0
142
0.0208333333333333
142
0.0
142
0.0
142
0.0
142
0.0
142
1.0
142
0.0
142
0.0
142
0.0
142
0.0
142
1.0
179
     0
144
0.0208333333333333
144
0.0
144
0.0
144
0.0
144
0.0
144
0.0208333333333333
144
0.0
144
0.0
144
0.0
144
0.0
144
1.0
144
0.0
144
0.0
144
0.0
144
0.0
144
1.0
147
0.0208333333333333
147
0.0
147
0.0
147
0.0
147
0.0
147
0.0208333333333333
147
0.0
147
0.0
147
0.0
147
0.0
147
1.0
147
0.0
147
0.0
147
0.0
147
0.0
147
1.0
  0
MATERIAL
  5
900
102
{ACAD_XDICTIONARY
360
901
102
}
102
{ACAD_REACTORS
330
8EF
102
}
330
8EF
100
AcDbMaterial
  1
Global
 72
     0
 43
0.0208333333333333
 43
0.0
 43
0.0
 43
0.0
 43
0.0
 43
0.0208333333333333
 43
0.0
 43
0.0
 43
0.0
 43
0.0
 43
1.0
 43
0.0
 43
0.0
 43
0.0
 43
0.0
 43
1.0
 77
     0
 47
0.0208333333333333
 47
0.0
 47
0.0
 47
0.0
 47
0.0
 47
0.0208333333333333
 47
0.0
 47
0.0
 47
0.0
 47
0.0
 47
1.0
 47
0.0
 47
0.0
 47
0.0
 47
0.0
 47
1.0
171
     0
 49
0.0208333333333333
 49
0.0
 49
0.0
 49
0.0
 49
0.0
 49
0.0208333333333333
 49
0.0
 49
0.0
 49
0.0
 49
0.0
 49
1.0
 49
0.0
 49
0.0
 49
0.0
 49
0.0
 49
1.0
175
     0
142
0.0208333333333333
142
0.0
142
0.0
142
0.0
142
0.0
142
0.0208333333333333
142
0.0
142
0.0
142
0.0
142
0.0
142
1.0
142
0.0
142
0.0
142
0.0
142
0.0
142
1.0
179
     0
144
0.0208333333333333
144
0.0
144
0.0
144
0.0
144
0.0
144
0.0208333333333333
144
0.0
144
0.0
144
0.0
144
0.0
144
1.0
144
0.0
144
0.0
144
0.0
144
0.0
144
1.0
147
0.0208333333333333
147
0.0
147
0.0
147
0.0
147
0.0
147
0.0208333333333333
147
0.0
147
0.0
147
0.0
147
0.0
147
1.0
147
0.0
147
0.0
147
0.0
147
0.0
147
1.0
  0
MLEADERSTYLE
  5
937
102
{ACAD_REACTORS
330
936
102
}
330
936
100
AcDbMLeaderStyle
179
     2
170
     2
171
     1
172
     0
 90
        2
 40
0.0
 41
0.0
173
     1
 91
-1056964608
340
17
 92
       -2
290
     1
 42
0.09
291
     1
 43
0.36
  3
Standard
 44
0.18
300

342
18
174
     1
178
     6
175
     1
176
     0
 93
-1056964608
 45
0.18
292
     0
297
     0
 46
0.18
 94
-1056964608
 47
1.0
 49
1.0
140
1.0
293
     1
141
0.0
294
     1
177
     0
142
1.0
295
     0
296
     0
143
0.125
271
     0
272
     9
273
     9
298
     0
  0
MLINESTYLE
  5
1B
330
B
100
AcDbMlineStyle
  2
STANDARD
 70
     0
  3

 62
   256
 51
90.0
 52
90.0
 71
     2
 49
0.5
 62
   256
  6
BYLAYER
 49
-0.5
 62
   256
  6
BYLAYER
  0
ACDBPLACEHOLDER
  5
8EE
102
{ACAD_REACTORS
330
8ED
102
}
330
8ED
  0
SCALE
  5
925
102
{ACAD_REACTORS
330
924
102
}
330
924
100
AcDbScale
 70
     0
300
1:1
140
1.0
141
1.0
290
     1
  0
SCALE
  5
926
102
{ACAD_REACTORS
330
924
102
}
330
924
100
AcDbScale
 70
     0
300
1/128" = 1'-0"
140
0.0078125
141
12.0
290
     0
  0
SCALE
  5
927
102
{ACAD_REACTORS
330
924
102
}
330
924
100
AcDbScale
 70
     0
300
1/64" = 1'-0"
140
0.015625
141
12.0
290
     0
  0
SCALE
  5
928
102
{ACAD_REACTORS
330
924
102
}
330
924
100
AcDbScale
 70
     0
300
1/32" = 1'-0"
140
0.03125
141
12.0
290
     0
  0
SCALE
  5
929
102
{ACAD_REACTORS
330
924
102
}
330
924
100
AcDbScale
 70
     0
300
1/16" = 1'-0"
140
0.0625
141
12.0
290
     0
  0
SCALE
  5
92A
102
{ACAD_REACTORS
330
924
102
}
330
924
100
AcDbScale
 70
     0
300
3/32" = 1'-0"
140
0.09375
141
12.0
290
     0
  0
SCALE
  5
92B
102
{ACAD_REACTORS
330
924
102
}
330
924
100
AcDbScale
 70
     0
300
1/8" = 1'-0"
140
0.125
141
12.0
290
     0
  0
SCALE
  5
92C
102
{ACAD_REACTORS
330
924
102
}
330
924
100
AcDbScale
 70
     0
300
3/16" = 1'-0"
140
0.1875
141
12.0
290
     0
  0
SCALE
  5
92D
102
{ACAD_REACTORS
330
924
102
}
330
924
100
AcDbScale
 70
     0
300
1/4" = 1'-0"
140
0.25
141
12.0
290
     0
  0
SCALE
  5
92E
102
{ACAD_REACTORS
330
924
102
}
330
924
100
AcDbScale
 70
     0
300
3/8" = 1'-0"
140
0.375
141
12.0
290
     0
  0
SCALE
  5
92F
102
{ACAD_REACTORS
330
924
102
}
330
924
100
AcDbScale
 70
     0
300
1/2" = 1'-0"
140
0.5
141
12.0
290
     0
  0
SCALE
  5
930
102
{ACAD_REACTORS
330
924
102
}
330
924
100
AcDbScale
 70
     0
300
3/4" = 1'-0"
140
0.75
141
12.0
290
     0
  0
SCALE
  5
931
102
{ACAD_REACTORS
330
924
102
}
330
924
100
AcDbScale
 70
     0
300
1" = 1'-0"
140
1.0
141
12.0
290
     0
  0
SCALE
  5
932
102
{ACAD_REACTORS
330
924
102
}
330
924
100
AcDbScale
 70
     0
300
1-1/2" = 1'-0"
140
1.5
141
12.0
290
     0
  0
SCALE
  5
933
102
{ACAD_REACTORS
330
924
102
}
330
924
100
AcDbScale
 70
     0
300
3" = 1'-0"
140
3.0
141
12.0
290
     0
  0
SCALE
  5
934
102
{ACAD_REACTORS
330
924
102
}
330
924
100
AcDbScale
 70
     0
300
6" = 1'-0"
140
6.0
141
12.0
290
     0
  0
SCALE
  5
935
102
{ACAD_REACTORS
330
924
102
}
330
924
100
AcDbScale
 70
     0
300
1'-0" = 1'-0"
140
12.0
141
12.0
290
     0
  0
ACDBSECTIONVIEWSTYLE
  5
939
102
{ACAD_REACTORS
330
938
102
}
330
938
100
AcDbModelDocViewStyle
 70
     0
  3
Imperial24
290
     0
300
Imperial24
 90
        0
100
AcDbSectionViewStyle
 70
     0
 71
     0
 90
       78
 71
     1
340
18
 62
   256
 40
0.24
340
0
340
0
 62
   256
 40
0.24
300
I, O, Q, S, X, Z
 40
0.48
 90
        3
 40
0.18
 90
        1
 71
     2
340
15
 90
       25
 62
   256
340
15
 90
       50
 62
   256
 40
0.24
 40
0.0
 40
0.24
 71
     3
340
18
 62
   256
 40
0.24
 90
        1
 40
0.75
 90
        1
300
%<\AcVar ViewType \f "%tc1">% %<\AcVar ViewSectionStartId>%-%<\AcVar ViewSectionEndId>%\PМАСШТАБ %<\AcVar ViewScale \f "%sn">%
 71
     4
 62
   256
 62
   257
300
ANSI31
 40
1.0
 90
        0
290
     0
290
     0
 90
        6
 40
0.0
 40
1.570796326794896
 40
0.2617993877991494
 40
1.308996938995747
 40
-0.2617993877991494
 40
1.832595714594046
  0
TABLESTYLE
  5
923
102
{ACAD_XDICTIONARY
360
9CD
102
}
102
{ACAD_REACTORS
330
922
102
}
330
922
100
AcDbTableStyle
280
     0
  3
Standard
 70
     0
 71
     0
 40
0.06
 41
0.06
280
     0
281
     0
  7
Standard
140
0.18
170
     2
 62
     0
 63
     7
283
     0
 90
      512
 91
        0
  1

274
    -2
284
     1
 64
     0
275
    -2
285
     1
 65
     0
276
    -2
286
     1
 66
     0
277
    -2
287
     1
 67
     0
278
    -2
288
     1
 68
     0
279
    -2
289
     1
 69
     0
  7
Standard
140
0.25
170
     5
 62
     0
 63
     7
283
     0
 90
      512
 91
        0
  1

274
    -2
284
     1
 64
     0
275
    -2
285
     1
 65
     0
276
    -2
286
     1
 66
     0
277
    -2
287
     1
 67
     0
278
    -2
288
     1
 68
     0
279
    -2
289
     1
 69
     0
  7
Standard
140
0.18
170
     5
 62
     0
 63
     7
283
     0
 90
      512
 91
        0
  1

274
    -2
284
     1
 64
     0
275
    -2
285
     1
 65
     0
276
    -2
286
     1
 66
     0
277
    -2
287
     1
 67
     0
278
    -2
288
     1
 68
     0
279
    -2
289
     1
 69
     0
  0
VISUALSTYLE
  5
90E
102
{ACAD_REACTORS
330
908
102
}
330
908
100
AcDbVisualStyle
  2
2dWireframe
 70
     4
177
     3
291
     0
 70
    58
 90
        0
176
     1
 90
        2
176
     1
 90
        0
176
     1
 90
        0
176
     1
 40
0.6
176
     1
 40
30.0
176
     1
 62
     7
420
 16777215
176
     1
 90
        1
176
     1
 90
        4
176
     1
 62
     7
176
     1
 62
   257
176
     1
 90
        1
176
     1
 90
        1
176
     1
 40
1.0
176
     1
 90
        0
176
     1
 62
   257
176
     1
 40
1.0
176
     1
 90
        1
176
     1
 90
        6
176
     1
 90
        2
176
     1
 62
     7
176
     1
 90
        5
176
     1
 90
        0
176
     1
 90
        0
176
     1
290
     0
176
     1
 90
        1
176
     1
 40
0.0
176
     1
 90
        0
176
     1
290
     1
176
     1
290
     1
176
     1
290
     0
176
     1
290
     0
176
     1
290
     0
176
     1
290
     0
176
     1
290
     0
176
     1
290
     0
176
     1
290
     0
176
     1
 90
       50
176
     1
 40
0.0
176
     1
 40
1.0
176
     1
 90
        0
176
     1
 62
    18
420
        0
176
     1
 90
       50
176
     1
 90
        3
176
     1
 62
     5
420
      255
176
     1
290
     0
176
     1
 90
       50
176
     1
 90
       50
176
     1
 90
       50
176
     1
290
     0
176
     1
 90
       50
176
     1
 62
   256
176
     0
 40
1.0
176
     0
 90
        2
176
     1
  1
strokes_ogs.tif
176
     1
290
     0
176
     1
 40
1.0
176
     1
 40
1.0
176
     1
  0
VISUALSTYLE
  5
90D
102
{ACAD_REACTORS
330
908
102
}
330
908
100
AcDbVisualStyle
  2
Basic
 70
     7
177
     3
291
     1
 70
    58
 90
        1
176
     1
 90
        0
176
     1
 90
        1
176
     1
 90
        0
176
     1
 40
0.6
176
     1
 40
30.0
176
     1
 62
     7
420
 16777215
176
     1
 90
        0
176
     1
 90
        4
176
     1
 62
     7
176
     1
 62
   257
176
     1
 90
        1
176
     1
 90
        1
176
     1
 40
1.0
176
     1
 90
        8
176
     1
 62
     7
176
     1
 40
1.0
176
     1
 90
        1
176
     1
 90
        6
176
     1
 90
        2
176
     1
 62
     7
176
     1
 90
        5
176
     1
 90
        0
176
     1
 90
        0
176
     1
290
     0
176
     1
 90
        1
176
     1
 40
0.0
176
     1
 90
        0
176
     1
290
     0
176
     1
290
     1
176
     1
290
     1
176
     1
290
     0
176
     1
290
     0
176
     1
290
     0
176
     1
290
     0
176
     1
290
     0
176
     1
290
     0
176
     1
 90
       50
176
     1
 40
0.0
176
     1
 40
1.0
176
     1
 90
        0
176
     1
 62
    18
420
        0
176
     1
 90
       50
176
     1
 90
        3
176
     1
 62
     5
420
      255
176
     1
290
     0
176
     1
 90
       50
176
     1
 90
       50
176
     1
 90
       50
176
     1
290
     0
176
     1
 90
       50
176
     1
 62
   256
176
     0
 40
1.0
176
     0
 90
        2
176
     1
  1
strokes_ogs.tif
176
     1
290
     0
176
     1
 40
1.0
176
     1
 40
1.0
176
     1
  0
VISUALSTYLE
  5
914
102
{ACAD_REACTORS
330
908
102
}
330
908
100
AcDbVisualStyle
  2
Brighten
 70
    12
177
     3
291
     1
 70
    58
 90
        2
176
     1
 90
        2
176
     1
 90
        0
176
     1
 90
        0
176
     1
 40
0.6
176
     1
 40
30.0
176
     1
 62
     7
420
 16777215
176
     1
 90
        1
176
     1
 90
        4
176
     1
 62
     7
176
     1
 62
   257
176
     1
 90
        1
176
     1
 90
        1
176
     1
 40
1.0
176
     1
 90
        8
176
     1
 62
     7
176
     1
 40
1.0
176
     1
 90
        1
176
     1
 90
        6
176
     1
 90
        2
176
     1
 62
     7
176
     1
 90
        5
176
     1
 90
        0
176
     1
 90
        0
176
     1
290
     0
176
     1
 90
        1
176
     1
 40
50.0
176
     1
 90
        0
176
     1
290
     0
176
     1
290
     1
176
     1
290
     1
176
     1
290
     0
176
     1
290
     0
176
     1
290
     0
176
     1
290
     0
176
     1
290
     0
176
     1
290
     0
176
     1
 90
       50
176
     1
 40
0.0
176
     1
 40
1.0
176
     1
 90
        0
176
     1
 62
    18
420
        0
176
     1
 90
       50
176
     1
 90
        3
176
     1
 62
     5
420
      255
176
     1
290
     0
176
     1
 90
       50
176
     1
 90
       50
176
     1
 90
       50
176
     1
290
     0
176
     1
 90
       50
176
     1
 62
   256
176
     0
 40
1.0
176
     0
 90
        2
176
     1
  1
strokes_ogs.tif
176
     1
290
     0
176
     1
 40
1.0
176
     1
 40
1.0
176
     1
  0
VISUALSTYLE
  5
918
102
{ACAD_REACTORS
330
908
102
}
330
908
100
AcDbVisualStyle
  2
ColorChange
 70
    16
177
     3
291
     1
 70
    58
 90
        2
176
     1
 90
        2
176
     1
 90
        3
176
     1
 90
        0
176
     1
 40
0.6
176
     1
 40
30.0
176
     1
 62
     8
420
  8421504
176
     1
 90
        1
176
     1
 90
        4
176
     1
 62
     7
176
     1
 62
   257
176
     1
 90
        1
176
     1
 90
        1
176
     1
 40
1.0
176
     1
 90
        8
176
     1
 62
     8
420
  8421504
176
     1
 40
1.0
176
     1
 90
        1
176
     1
 90
        6
176
     1
 90
        2
176
     1
 62
     7
176
     1
 90
        5
176
     1
 90
        0
176
     1
 90
        0
176
     1
290
     0
176
     1
 90
        1
176
     1
 40
0.0
176
     1
 90
        0
176
     1
290
     0
176
     1
290
     1
176
     1
290
     1
176
     1
290
     0
176
     1
290
     0
176
     1
290
     0
176
     1
290
     0
176
     1
290
     0
176
     1
290
     0
176
     1
 90
       50
176
     1
 40
0.0
176
     1
 40
1.0
176
     1
 90
        0
176
     1
 62
    18
420
        0
176
     1
 90
       50
176
     1
 90
        3
176
     1
 62
     5
420
      255
176
     1
290
     0
176
     1
 90
       50
176
     1
 90
       50
176
     1
 90
       50
176
     1
290
     0
176
     1
 90
       50
176
     1
 62
   256
176
     0
 40
1.0
176
     0
 90
        2
176
     1
  1
strokes_ogs.tif
176
     1
290
     0
176
     1
 40
1.0
176
     1
 40
1.0
176
     1
  0
VISUALSTYLE
  5
911
102
{ACAD_REACTORS
330
908
102
}
330
908
100
AcDbVisualStyle
  2
Conceptual
 70
     9
177
     3
291
     0
 70
    58
 90
        3
176
     1
 90
        2
176
     1
 90
        0
176
     1
 90
        0
176
     1
 40
0.6
176
     1
 40
30.0
176
     1
 62
     7
420
 16777215
176
     1
 90
        2
176
     1
 90
        2
176
     1
 62
     7
176
     1
 62
   257
176
     1
 90
        1
176
     1
 90
        1
176
     1
 40
179.0
176
     1
 90
        8
176
     1
 62
     7
176
     1
 40
1.0
176
     1
 90
        1
176
     1
 90
        6
176
     1
 90
        2
176
     1
 62
     7
176
     1
 90
        3
176
     1
 90
        0
176
     1
 90
        0
176
     1
290
     0
176
     1
 90
        1
176
     1
 40
0.0
176
     1
 90
        0
176
     1
290
     0
176
     1
290
     1
176
     1
290
     1
176
     1
290
     0
176
     1
290
     0
176
     1
290
     0
176
     1
290
     0
176
     1
290
     0
176
     1
290
     0
176
     1
 90
       50
176
     1
 40
0.0
176
     1
 40
1.0
176
     1
 90
        0
176
     1
 62
    18
420
        0
176
     1
 90
       50
176
     1
 90
        3
176
     1
 62
     5
420
      255
176
     1
290
     0
176
     1
 90
       50
176
     1
 90
       50
176
     1
 90
       50
176
     1
290
     0
176
     1
 90
       50
176
     1
 62
   256
176
     0
 40
1.0
176
     0
 90
        2
176
     1
  1
strokes_ogs.tif
176
     1
290
     0
176
     1
 40
1.0
176
     1
 40
1.0
176
     1
  0
VISUALSTYLE
  5
913
102
{ACAD_REACTORS
330
908
102
}
330
908
100
AcDbVisualStyle
  2
Dim
 70
    11
177
     3
291
     1
 70
    58
 90
        2
176
     1
 90
        2
176
     1
 90
        0
176
     1
 90
        0
176
     1
 40
0.6
176
     1
 40
30.0
176
     1
 62
     7
420
 16777215
176
     1
 90
        1
176
     1
 90
        4
176
     1
 62
     7
176
     1
 62
   257
176
     1
 90
        1
176
     1
 90
        1
176
     1
 40
1.0
176
     1
 90
        8
176
     1
 62
     7
176
     1
 40
1.0
176
     1
 90
        1
176
     1
 90
        6
176
     1
 90
        2
176
     1
 62
     7
176
     1
 90
        5
176
     1
 90
        0
176
     1
 90
        0
176
     1
290
     0
176
     1
 90
        1
176
     1
 40
-50.0
176
     1
 90
        0
176
     1
290
     0
176
     1
290
     1
176
     1
290
     1
176
     1
290
     0
176
     1
290
     0
176
     1
290
     0
176
     1
290
     0
176
     1
290
     0
176
     1
290
     0
176
     1
 90
       50
176
     1
 40
0.0
176
     1
 40
1.0
176
     1
 90
        0
176
     1
 62
    18
420
        0
176
     1
 90
       50
176
     1
 90
        3
176
     1
 62
     5
420
      255
176
     1
290
     0
176
     1
 90
       50
176
     1
 90
       50
176
     1
 90
       50
176
     1
290
     0
176
     1
 90
       50
176
     1
 62
   256
176
     0
 40
1.0
176
     0
 90
        2
176
     1
  1
strokes_ogs.tif
176
     1
290
     0
176
     1
 40
1.0
176
     1
 40
1.0
176
     1
  0
VISUALSTYLE
  5
920
102
{ACAD_REACTORS
330
908
102
}
330
908
100
AcDbVisualStyle
  2
EdgeColorOff
 70
    22
177
     3
291
     1
 70
    58
 90
        2
176
     0
 90
        2
176
     0
 90
        0
176
     0
 90
        0
176
     0
 40
0.6
176
     0
 40
30.0
176
     0
 62
     7
420
 16777215
176
     0
 90
        1
176
     0
 90
        4
176
     0
 62
     7
176
     0
 62
   257
176
     0
 90
        1
176
     0
 90
        1
176
     0
 40
1.0
176
     0
 90
        8
176
     2
 62
     7
176
     0
 40
1.0
176
     0
 90
        1
176
     0
 90
        6
176
     0
 90
        2
176
     0
 62
     7
176
     0
 90
        5
176
     0
 90
        0
176
     0
 90
        0
176
     0
290
     0
176
     0
 90
        1
176
     0
 40
0.0
176
     0
 90
        0
176
     0
290
     0
176
     1
290
     1
176
     1
290
     1
176
     1
290
     0
176
     1
290
     0
176
     1
290
     0
176
     1
290
     0
176
     1
290
     0
176
     1
290
     0
176
     1
 90
       50
176
     0
 40
0.0
176
     0
 40
1.0
176
     0
 90
        0
176
     0
 62
    18
420
        0
176
     0
 90
       50
176
     0
 90
        3
176
     0
 62
     5
420
      255
176
     0
290
     0
176
     1
 90
       50
176
     0
 90
       50
176
     0
 90
       50
176
     0
290
     0
176
     1
 90
       50
176
     0
 62
   256
176
     0
 40
1.0
176
     0
 90
        2
176
     0
  1
strokes_ogs.tif
176
     0
290
     0
176
     1
 40
1.0
176
     0
 40
1.0
176
     0
  0
VISUALSTYLE
  5
917
102
{ACAD_REACTORS
330
908
102
}
330
908
100
AcDbVisualStyle
  2
Facepattern
 70
    15
177
     3
291
     1
 70
    58
 90
        2
176
     1
 90
        2
176
     1
 90
        0
176
     1
 90
        0
176
     1
 40
0.6
176
     1
 40
30.0
176
     1
 62
     7
420
 16777215
176
     1
 90
        1
176
     1
 90
        4
176
     1
 62
     7
176
     1
 62
   257
176
     1
 90
        1
176
     1
 90
        1
176
     1
 40
1.0
176
     1
 90
        8
176
     1
 62
     7
176
     1
 40
1.0
176
     1
 90
        1
176
     1
 90
        6
176
     1
 90
        2
176
     1
 62
     7
176
     1
 90
        5
176
     1
 90
        0
176
     1
 90
        0
176
     1
290
     0
176
     1
 90
        1
176
     1
 40
0.0
176
     1
 90
        0
176
     1
290
     0
176
     1
290
     1
176
     1
290
     1
176
     1
290
     0
176
     1
290
     0
176
     1
290
     0
176
     1
290
     0
176
     1
290
     0
176
     1
290
     0
176
     1
 90
       50
176
     1
 40
0.0
176
     1
 40
1.0
176
     1
 90
        0
176
     1
 62
    18
420
        0
176
     1
 90
       50
176
     1
 90
        3
176
     1
 62
     5
420
      255
176
     1
290
     0
176
     1
 90
       50
176
     1
 90
       50
176
     1
 90
       50
176
     1
290
     0
176
     1
 90
       50
176
     1
 62
   256
176
     0
 40
1.0
176
     0
 90
        2
176
     1
  1
strokes_ogs.tif
176
     1
290
     0
176
     1
 40
1.0
176
     1
 40
1.0
176
     1
  0
VISUALSTYLE
  5
909
102
{ACAD_REACTORS
330
908
102
}
330
908
100
AcDbVisualStyle
  2
Flat
 70
     0
177
     3
291
     1
 70
    58
 90
        2
176
     1
 90
        1
176
     1
 90
        1
176
     1
 90
        2
176
     1
 40
0.6
176
     1
 40
30.0
176
     1
 62
     7
420
 16777215
176
     1
 90
        0
176
     1
 90
        0
176
     1
 62
     7
176
     1
 62
   257
176
     1
 90
        1
176
     1
 90
        1
176
     1
 40
1.0
176
     1
 90
        8
176
     1
 62
     7
176
     1
 40
1.0
176
     1
 90
        1
176
     1
 90
        6
176
     1
 90
        2
176
     1
 62
     7
176
     1
 90
        5
176
     1
 90
        0
176
     1
 90
        0
176
     1
290
     0
176
     1
 90
       13
176
     1
 40
0.0
176
     1
 90
        0
176
     1
290
     0
176
     1
290
     1
176
     1
290
     1
176
     1
290
     0
176
     1
290
     0
176
     1
290
     0
176
     1
290
     0
176
     1
290
     0
176
     1
290
     0
176
     1
 90
       50
176
     1
 40
0.0
176
     1
 40
1.0
176
     1
 90
        0
176
     1
 62
    18
420
        0
176
     1
 90
       50
176
     1
 90
        3
176
     1
 62
     5
420
      255
176
     1
290
     0
176
     1
 90
       50
176
     1
 90
       50
176
     1
 90
       50
176
     1
290
     0
176
     1
 90
       50
176
     1
 62
   256
176
     0
 40
1.0
176
     0
 90
        2
176
     1
  1
strokes_ogs.tif
176
     1
290
     0
176
     1
 40
1.0
176
     1
 40
1.0
176
     1
  0
VISUALSTYLE
  5
90A
102
{ACAD_REACTORS
330
908
102
}
330
908
100
AcDbVisualStyle
  2
FlatWithEdges
 70
     1
177
     3
291
     1
 70
    58
 90
        2
176
     1
 90
        1
176
     1
 90
        1
176
     1
 90
        2
176
     1
 40
0.6
176
     1
 40
30.0
176
     1
 62
     7
420
 16777215
176
     1
 90
        1
176
     1
 90
        0
176
     1
 62
     7
176
     1
 62
   257
176
     1
 90
        1
176
     1
 90
        1
176
     1
 40
1.0
176
     1
 90
        0
176
     1
 62
   257
176
     1
 40
1.0
176
     1
 90
        1
176
     1
 90
        6
176
     1
 90
        2
176
     1
 62
     7
176
     1
 90
        5
176
     1
 90
        0
176
     1
 90
        0
176
     1
290
     0
176
     1
 90
       13
176
     1
 40
0.0
176
     1
 90
        0
176
     1
290
     0
176
     1
290
     1
176
     1
290
     1
176
     1
290
     0
176
     1
290
     0
176
     1
290
     0
176
     1
290
     0
176
     1
290
     0
176
     1
290
     0
176
     1
 90
       50
176
     1
 40
0.0
176
     1
 40
1.0
176
     1
 90
        0
176
     1
 62
    18
420
        0
176
     1
 90
       50
176
     1
 90
        3
176
     1
 62
     5
420
      255
176
     1
290
     0
176
     1
 90
       50
176
     1
 90
       50
176
     1
 90
       50
176
     1
290
     0
176
     1
 90
       50
176
     1
 62
   256
176
     0
 40
1.0
176
     0
 90
        2
176
     1
  1
strokes_ogs.tif
176
     1
290
     0
176
     1
 40
1.0
176
     1
 40
1.0
176
     1
  0
VISUALSTYLE
  5
90B
102
{ACAD_REACTORS
330
908
102
}
330
908
100
AcDbVisualStyle
  2
Gouraud
 70
     2
177
     3
291
     1
 70
    58
 90
        2
176
     1
 90
        2
176
     1
 90
        1
176
     1
 90
        2
176
     1
 40
0.6
176
     1
 40
30.0
176
     1
 62
     7
420
 16777215
176
     1
 90
        0
176
     1
 90
        0
176
     1
 62
     7
176
     1
 62
   257
176
     1
 90
        1
176
     1
 90
        1
176
     1
 40
1.0
176
     1
 90
        0
176
     1
 62
     7
176
     1
 40
1.0
176
     1
 90
        1
176
     1
 90
        6
176
     1
 90
        2
176
     1
 62
     7
176
     1
 90
        5
176
     1
 90
        0
176
     1
 90
        0
176
     1
290
     0
176
     1
 90
       13
176
     1
 40
0.0
176
     1
 90
        0
176
     1
290
     0
176
     1
290
     1
176
     1
290
     1
176
     1
290
     0
176
     1
290
     0
176
     1
290
     0
176
     1
290
     0
176
     1
290
     0
176
     1
290
     0
176
     1
 90
       50
176
     1
 40
0.0
176
     1
 40
1.0
176
     1
 90
        0
176
     1
 62
    18
420
        0
176
     1
 90
       50
176
     1
 90
        3
176
     1
 62
     5
420
      255
176
     1
290
     0
176
     1
 90
       50
176
     1
 90
       50
176
     1
 90
       50
176
     1
290
     0
176
     1
 90
       50
176
     1
 62
   256
176
     0
 40
1.0
176
     0
 90
        2
176
     1
  1
strokes_ogs.tif
176
     1
290
     0
176
     1
 40
1.0
176
     1
 40
1.0
176
     1
  0
VISUALSTYLE
  5
90C
102
{ACAD_REACTORS
330
908
102
}
330
908
100
AcDbVisualStyle
  2
GouraudWithEdges
 70
     3
177
     3
291
     1
 70
    58
 90
        2
176
     1
 90
        2
176
     1
 90
        1
176
     1
 90
        2
176
     1
 40
0.6
176
     1
 40
30.0
176
     1
 62
     7
420
 16777215
176
     1
 90
        1
176
     1
 90
        0
176
     1
 62
     7
176
     1
 62
   257
176
     1
 90
        1
176
     1
 90
        1
176
     1
 40
1.0
176
     1
 90
        0
176
     1
 62
   257
176
     1
 40
1.0
176
     1
 90
        1
176
     1
 90
        6
176
     1
 90
        2
176
     1
 62
     7
176
     1
 90
        5
176
     1
 90
        0
176
     1
 90
        0
176
     1
290
     0
176
     1
 90
       13
176
     1
 40
0.0
176
     1
 90
        0
176
     1
290
     0
176
     1
290
     1
176
     1
290
     1
176
     1
290
     0
176
     1
290
     0
176
     1
290
     0
176
     1
290
     0
176
     1
290
     0
176
     1
290
     0
176
     1
 90
       50
176
     1
 40
0.0
176
     1
 40
1.0
176
     1
 90
        0
176
     1
 62
    18
420
        0
176
     1
 90
       50
176
     1
 90
        3
176
     1
 62
     5
420
      255
176
     1
290
     0
176
     1
 90
       50
176
     1
 90
       50
176
     1
 90
       50
176
     1
290
     0
176
     1
 90
       50
176
     1
 62
   256
176
     0
 40
1.0
176
     0
 90
        2
176
     1
  1
strokes_ogs.tif
176
     1
290
     0
176
     1
 40
1.0
176
     1
 40
1.0
176
     1
  0
VISUALSTYLE
  5
910
102
{ACAD_REACTORS
330
908
102
}
330
908
100
AcDbVisualStyle
  2
Hidden
 70
     6
177
     3
291
     0
 70
    58
 90
        1
176
     1
 90
        2
176
     1
 90
        2
176
     1
 90
        0
176
     1
 40
0.6
176
     1
 40
30.0
176
     1
 62
     7
420
 16777215
176
     1
 90
        2
176
     1
 90
        2
176
     1
 62
     7
176
     1
 62
   257
176
     1
 90
        2
176
     1
 90
        1
176
     1
 40
40.0
176
     1
 90
        0
176
     1
 62
   257
176
     1
 40
1.0
176
     1
 90
        1
176
     1
 90
        6
176
     1
 90
        2
176
     1
 62
     7
176
     1
 90
        3
176
     1
 90
        0
176
     1
 90
        0
176
     1
290
     0
176
     1
 90
        1
176
     1
 40
0.0
176
     1
 90
        0
176
     1
290
     0
176
     1
290
     1
176
     1
290
     1
176
     1
290
     0
176
     1
290
     0
176
     1
290
     0
176
     1
290
     0
176
     1
290
     0
176
     1
290
     0
176
     1
 90
       50
176
     1
 40
0.0
176
     1
 40
1.0
176
     1
 90
        0
176
     1
 62
    18
420
        0
176
     1
 90
       50
176
     1
 90
        3
176
     1
 62
     5
420
      255
176
     1
290
     0
176
     1
 90
       50
176
     1
 90
       50
176
     1
 90
       50
176
     1
290
     0
176
     1
 90
       50
176
     1
 62
   256
176
     0
 40
1.0
176
     0
 90
        2
176
     1
  1
strokes_ogs.tif
176
     1
290
     0
176
     1
 40
1.0
176
     1
 40
1.0
176
     1
  0
VISUALSTYLE
  5
91E
102
{ACAD_REACTORS
330
908
102
}
330
908
100
AcDbVisualStyle
  2
JitterOff
 70
    20
177
     3
291
     1
 70
    58
 90
        2
176
     0
 90
        2
176
     0
 90
        0
176
     0
 90
        0
176
     0
 40
0.6
176
     0
 40
30.0
176
     0
 62
     7
420
 16777215
176
     0
 90
        1
176
     0
 90
        4
176
     0
 62
     7
176
     0
 62
   257
176
     0
 90
        1
176
     0
 90
        1
176
     0
 40
1.0
176
     0
 90
       10
176
     2
 62
     7
176
     0
 40
1.0
176
     0
 90
        1
176
     0
 90
        6
176
     0
 90
        2
176
     0
 62
     7
176
     0
 90
        5
176
     0
 90
        0
176
     0
 90
        0
176
     0
290
     0
176
     0
 90
        1
176
     0
 40
0.0
176
     0
 90
        0
176
     0
290
     0
176
     1
290
     1
176
     1
290
     1
176
     1
290
     0
176
     1
290
     0
176
     1
290
     0
176
     1
290
     0
176
     1
290
     0
176
     1
290
     0
176
     1
 90
       50
176
     0
 40
0.0
176
     0
 40
1.0
176
     0
 90
        0
176
     0
 62
    18
420
        0
176
     0
 90
       50
176
     0
 90
        3
176
     0
 62
     5
420
      255
176
     0
290
     0
176
     1
 90
       50
176
     0
 90
       50
176
     0
 90
       50
176
     0
290
     0
176
     1
 90
       50
176
     0
 62
   256
176
     0
 40
1.0
176
     0
 90
        2
176
     0
  1
strokes_ogs.tif
176
     0
290
     0
176
     1
 40
1.0
176
     0
 40
1.0
176
     0
  0
VISUALSTYLE
  5
916
102
{ACAD_REACTORS
330
908
102
}
330
908
100
AcDbVisualStyle
  2
Linepattern
 70
    14
177
     3
291
     1
 70
    58
 90
        2
176
     1
 90
        2
176
     1
 90
        0
176
     1
 90
        0
176
     1
 40
0.6
176
     1
 40
30.0
176
     1
 62
     7
420
 16777215
176
     1
 90
        1
176
     1
 90
        4
176
     1
 62
     7
176
     1
 62
   257
176
     1
 90
        7
176
     1
 90
        7
176
     1
 40
1.0
176
     1
 90
        8
176
     1
 62
     7
176
     1
 40
1.0
176
     1
 90
        1
176
     1
 90
        6
176
     1
 90
        2
176
     1
 62
     7
176
     1
 90
        5
176
     1
 90
        0
176
     1
 90
        0
176
     1
290
     0
176
     1
 90
        1
176
     1
 40
0.0
176
     1
 90
        0
176
     1
290
     0
176
     1
290
     1
176
     1
290
     1
176
     1
290
     0
176
     1
290
     0
176
     1
290
     0
176
     1
290
     0
176
     1
290
     0
176
     1
290
     0
176
     1
 90
       50
176
     1
 40
0.0
176
     1
 40
1.0
176
     1
 90
        0
176
     1
 62
    18
420
        0
176
     1
 90
       50
176
     1
 90
        3
176
     1
 62
     5
420
      255
176
     1
290
     0
176
     1
 90
       50
176
     1
 90
       50
176
     1
 90
       50
176
     1
290
     0
176
     1
 90
       50
176
     1
 62
   256
176
     0
 40
1.0
176
     0
 90
        2
176
     1
  1
strokes_ogs.tif
176
     1
290
     0
176
     1
 40
1.0
176
     1
 40
1.0
176
     1
  0
VISUALSTYLE
  5
91F
102
{ACAD_REACTORS
330
908
102
}
330
908
100
AcDbVisualStyle
  2
OverhangOff
 70
    21
177
     3
291
     1
 70
    58
 90
        2
176
     0
 90
        2
176
     0
 90
        0
176
     0
 90
        0
176
     0
 40
0.6
176
     0
 40
30.0
176
     0
 62
     7
420
 16777215
176
     0
 90
        1
176
     0
 90
        4
176
     0
 62
     7
176
     0
 62
   257
176
     0
 90
        1
176
     0
 90
        1
176
     0
 40
1.0
176
     0
 90
        9
176
     2
 62
     7
176
     0
 40
1.0
176
     0
 90
        1
176
     0
 90
        6
176
     0
 90
        2
176
     0
 62
     7
176
     0
 90
        5
176
     0
 90
        0
176
     0
 90
        0
176
     0
290
     0
176
     0
 90
        1
176
     0
 40
0.0
176
     0
 90
        0
176
     0
290
     0
176
     1
290
     1
176
     1
290
     1
176
     1
290
     0
176
     1
290
     0
176
     1
290
     0
176
     1
290
     0
176
     1
290
     0
176
     1
290
     0
176
     1
 90
       50
176
     0
 40
0.0
176
     0
 40
1.0
176
     0
 90
        0
176
     0
 62
    18
420
        0
176
     0
 90
       50
176
     0
 90
        3
176
     0
 62
     5
420
      255
176
     0
290
     0
176
     1
 90
       50
176
     0
 90
       50
176
     0
 90
       50
176
     0
290
     0
176
     1
 90
       50
176
     0
 62
   256
176
     0
 40
1.0
176
     0
 90
        2
176
     0
  1
strokes_ogs.tif
176
     0
290
     0
176
     1
 40
1.0
176
     0
 40
1.0
176
     0
  0
VISUALSTYLE
  5
912
102
{ACAD_REACTORS
330
908
102
}
330
908
100
AcDbVisualStyle
  2
Realistic
 70
     8
177
     3
291
     0
 70
    58
 90
        2
176
     1
 90
        3
176
     1
 90
        0
176
     1
 90
        2
176
     1
 40
0.6
176
     1
 40
30.0
176
     1
 62
     7
420
 16777215
176
     1
 90
        0
176
     1
 90
        0
176
     1
 62
     7
176
     1
 62
   257
176
     1
 90
        1
176
     1
 90
        1
176
     1
 40
1.0
176
     1
 90
        8
176
     1
 62
   257
176
     1
 40
1.0
176
     1
 90
        1
176
     1
 90
        6
176
     1
 90
        2
176
     1
 62
     7
176
     1
 90
        3
176
     1
 90
        0
176
     1
 90
        0
176
     1
290
     0
176
     1
 90
       13
176
     1
 40
0.0
176
     1
 90
        0
176
     1
290
     0
176
     1
290
     1
176
     1
290
     1
176
     1
290
     0
176
     1
290
     0
176
     1
290
     0
176
     1
290
     0
176
     1
290
     0
176
     1
290
     0
176
     1
 90
       50
176
     1
 40
0.0
176
     1
 40
1.0
176
     1
 90
        0
176
     1
 62
    18
420
        0
176
     1
 90
       50
176
     1
 90
        3
176
     1
 62
     5
420
      255
176
     1
290
     0
176
     1
 90
       50
176
     1
 90
       50
176
     1
 90
       50
176
     1
290
     0
176
     1
 90
       50
176
     1
 62
   256
176
     0
 40
1.0
176
     0
 90
        2
176
     1
  1
strokes_ogs.tif
176
     1
290
     0
176
     1
 40
1.0
176
     1
 40
1.0
176
     1
  0
VISUALSTYLE
  5
91D
102
{ACAD_REACTORS
330
908
102
}
330
908
100
AcDbVisualStyle
  2
Shaded
 70
    27
177
     3
291
     0
 70
    58
 90
        2
176
     1
 90
        2
176
     1
 90
        1
176
     1
 90
        2
176
     1
 40
0.6
176
     1
 40
30.0
176
     1
 62
     7
420
 16777215
176
     1
 90
        0
176
     1
 90
        4
176
     1
 62
     7
176
     1
 62
   257
176
     1
 90
        1
176
     1
 90
        1
176
     1
 40
1.0
176
     1
 90
        8
176
     1
 62
   257
176
     1
 40
1.0
176
     1
 90
        1
176
     1
 90
        6
176
     1
 90
        2
176
     1
 62
     8
420
  7895160
176
     1
 90
        3
176
     1
 90
        0
176
     1
 90
        0
176
     1
290
     0
176
     1
 90
        5
176
     1
 40
0.0
176
     1
 90
        0
176
     1
290
     0
176
     1
290
     1
176
     1
290
     1
176
     1
290
     0
176
     1
290
     0
176
     1
290
     0
176
     1
290
     0
176
     1
290
     0
176
     1
290
     0
176
     1
 90
       50
176
     1
 40
0.0
176
     1
 40
1.0
176
     1
 90
        0
176
     1
 62
    18
420
        0
176
     1
 90
       50
176
     1
 90
        3
176
     1
 62
     5
420
      255
176
     1
290
     0
176
     1
 90
       50
176
     1
 90
       50
176
     1
 90
       50
176
     1
290
     0
176
     1
 90
       50
176
     1
 62
   256
176
     0
 40
1.0
176
     0
 90
        2
176
     1
  1
strokes_ogs.tif
176
     1
290
     0
176
     1
 40
1.0
176
     1
 40
1.0
176
     1
  0
VISUALSTYLE
  5
91C
102
{ACAD_REACTORS
330
908
102
}
330
908
100
AcDbVisualStyle
  2
Shaded with edges
 70
    26
177
     3
291
     0
 70
    58
 90
        2
176
     1
 90
        2
176
     1
 90
        1
176
     1
 90
        2
176
     1
 40
0.6
176
     1
 40
30.0
176
     1
 62
     7
420
 16777215
176
     1
 90
        1
176
     1
 90
        2
176
     1
 62
     7
176
     1
 62
   257
176
     1
 90
        2
176
     1
 90
        1
176
     1
 40
1.0
176
     1
 90
        8
176
     1
 62
   257
176
     1
 40
1.0
176
     1
 90
        1
176
     1
 90
        6
176
     1
 90
        2
176
     1
 62
     7
176
     1
 90
        3
176
     1
 90
        0
176
     1
 90
        0
176
     1
290
     0
176
     1
 90
        5
176
     1
 40
0.0
176
     1
 90
        0
176
     1
290
     0
176
     1
290
     1
176
     1
290
     1
176
     1
290
     0
176
     1
290
     0
176
     1
290
     0
176
     1
290
     0
176
     1
290
     0
176
     1
290
     0
176
     1
 90
       50
176
     1
 40
0.0
176
     1
 40
1.0
176
     1
 90
        0
176
     1
 62
    18
420
        0
176
     1
 90
       50
176
     1
 90
        3
176
     1
 62
     5
420
      255
176
     1
290
     0
176
     1
 90
       50
176
     1
 90
       50
176
     1
 90
       50
176
     1
290
     0
176
     1
 90
       50
176
     1
 62
   256
176
     0
 40
1.0
176
     0
 90
        2
176
     1
  1
strokes_ogs.tif
176
     1
290
     0
176
     1
 40
1.0
176
     1
 40
1.0
176
     1
  0
VISUALSTYLE
  5
919
102
{ACAD_REACTORS
330
908
102
}
330
908
100
AcDbVisualStyle
  2
Shades of Gray
 70
    23
177
     3
291
     0
 70
    58
 90
        2
176
     1
 90
        2
176
     1
 90
        3
176
     1
 90
        0
176
     1
 40
0.6
176
     1
 40
30.0
176
     1
 62
     7
420
 16777215
176
     1
 90
        2
176
     1
 90
        2
176
     1
 62
     7
176
     1
 62
     7
176
     1
 90
        1
176
     1
 90
        1
176
     1
 40
40.0
176
     1
 90
        8
176
     1
 62
     7
176
     1
 40
1.0
176
     1
 90
        1
176
     1
 90
        6
176
     1
 90
        2
176
     1
 62
     7
176
     1
 90
        3
176
     1
 90
        0
176
     1
 90
        0
176
     1
290
     0
176
     1
 90
        1
176
     1
 40
0.0
176
     1
 90
        0
176
     1
290
     0
176
     1
290
     1
176
     1
290
     1
176
     1
290
     0
176
     1
290
     0
176
     1
290
     0
176
     1
290
     0
176
     1
290
     0
176
     1
290
     0
176
     1
 90
       50
176
     1
 40
0.0
176
     1
 40
1.0
176
     1
 90
        0
176
     1
 62
    18
420
        0
176
     1
 90
       50
176
     1
 90
        3
176
     1
 62
     5
420
      255
176
     1
290
     0
176
     1
 90
       50
176
     1
 90
       50
176
     1
 90
       50
176
     1
290
     0
176
     1
 90
       50
176
     1
 62
   256
176
     0
 40
1.0
176
     0
 90
        2
176
     1
  1
strokes_ogs.tif
176
     1
290
     0
176
     1
 40
1.0
176
     1
 40
1.0
176
     1
  0
VISUALSTYLE
  5
91A
102
{ACAD_REACTORS
330
908
102
}
330
908
100
AcDbVisualStyle
  2
Sketchy
 70
    24
177
     3
291
     0
 70
    58
 90
        1
176
     1
 90
        2
176
     1
 90
        2
176
     1
 90
        0
176
     1
 40
0.6
176
     1
 40
30.0
176
     1
 62
     7
420
 16777215
176
     1
 90
        2
176
     1
 90
        2
176
     1
 62
     7
176
     1
 62
     7
176
     1
 90
        1
176
     1
 90
        1
176
     1
 40
40.0
176
     1
 90
       11
176
     1
 62
     7
176
     1
 40
1.0
176
     1
 90
        1
176
     1
 90
        6
176
     1
 90
        2
176
     1
 62
     7
176
     1
 90
        6
176
     1
 90
        0
176
     1
 90
        0
176
     1
290
     0
176
     1
 90
        1
176
     1
 40
0.0
176
     1
 90
        0
176
     1
290
     0
176
     1
290
     1
176
     1
290
     1
176
     1
290
     0
176
     1
290
     0
176
     1
290
     0
176
     1
290
     0
176
     1
290
     0
176
     1
290
     0
176
     1
 90
       50
176
     1
 40
0.0
176
     1
 40
1.0
176
     1
 90
        0
176
     1
 62
    18
420
        0
176
     1
 90
       50
176
     1
 90
        3
176
     1
 62
     5
420
      255
176
     1
290
     0
176
     1
 90
       50
176
     1
 90
       50
176
     1
 90
       50
176
     1
290
     0
176
     1
 90
       50
176
     1
 62
   256
176
     0
 40
1.0
176
     0
 90
        2
176
     1
  1
strokes_ogs.tif
176
     1
290
     0
176
     1
 40
1.0
176
     1
 40
1.0
176
     1
  0
VISUALSTYLE
  5
915
102
{ACAD_REACTORS
330
908
102
}
330
908
100
AcDbVisualStyle
  2
Thicken
 70
    13
177
     3
291
     1
 70
    58
 90
        2
176
     1
 90
        2
176
     1
 90
        0
176
     1
 90
        0
176
     1
 40
0.6
176
     1
 40
30.0
176
     1
 62
     7
420
 16777215
176
     1
 90
        1
176
     1
 90
        4
176
     1
 62
     7
176
     1
 62
   257
176
     1
 90
        1
176
     1
 90
        1
176
     1
 40
1.0
176
     1
 90
       12
176
     1
 62
     7
176
     1
 40
1.0
176
     1
 90
        1
176
     1
 90
        6
176
     1
 90
        2
176
     1
 62
     7
176
     1
 90
        5
176
     1
 90
        0
176
     1
 90
        0
176
     1
290
     0
176
     1
 90
        1
176
     1
 40
0.0
176
     1
 90
        0
176
     1
290
     0
176
     1
290
     1
176
     1
290
     1
176
     1
290
     0
176
     1
290
     0
176
     1
290
     0
176
     1
290
     0
176
     1
290
     0
176
     1
290
     0
176
     1
 90
       50
176
     1
 40
0.0
176
     1
 40
1.0
176
     1
 90
        0
176
     1
 62
    18
420
        0
176
     1
 90
       50
176
     1
 90
        3
176
     1
 62
     5
420
      255
176
     1
290
     0
176
     1
 90
       50
176
     1
 90
       50
176
     1
 90
       50
176
     1
290
     0
176
     1
 90
       50
176
     1
 62
   256
176
     0
 40
1.0
176
     0
 90
        2
176
     1
  1
strokes_ogs.tif
176
     1
290
     0
176
     1
 40
1.0
176
     1
 40
1.0
176
     1
  0
VISUALSTYLE
  5
90F
102
{ACAD_REACTORS
330
908
102
}
330
908
100
AcDbVisualStyle
  2
Wireframe
 70
     5
177
     3
291
     0
 70
    58
 90
        0
176
     1
 90
        2
176
     1
 90
        0
176
     1
 90
        0
176
     1
 40
0.6
176
     1
 40
30.0
176
     1
 62
     7
420
 16777215
176
     1
 90
        1
176
     1
 90
        4
176
     1
 62
     7
176
     1
 62
   257
176
     1
 90
        1
176
     1
 90
        1
176
     1
 40
1.0
176
     1
 90
        0
176
     1
 62
   257
176
     1
 40
1.0
176
     1
 90
        1
176
     1
 90
        6
176
     1
 90
        2
176
     1
 62
     7
176
     1
 90
        3
176
     1
 90
        0
176
     1
 90
        0
176
     1
290
     0
176
     1
 90
        1
176
     1
 40
0.0
176
     1
 90
        0
176
     1
290
     0
176
     1
290
     1
176
     1
290
     1
176
     1
290
     0
176
     1
290
     0
176
     1
290
     0
176
     1
290
     0
176
     1
290
     0
176
     1
290
     0
176
     1
 90
       50
176
     1
 40
0.0
176
     1
 40
1.0
176
     1
 90
        0
176
     1
 62
    18
420
        0
176
     1
 90
       50
176
     1
 90
        3
176
     1
 62
     5
420
      255
176
     1
290
     0
176
     1
 90
       50
176
     1
 90
       50
176
     1
 90
       50
176
     1
290
     0
176
     1
 90
       50
176
     1
 62
   256
176
     0
 40
1.0
176
     0
 90
        2
176
     1
  1
strokes_ogs.tif
176
     1
290
     0
176
     1
 40
1.0
176
     1
 40
1.0
176
     1
  0
VISUALSTYLE
  5
91B
102
{ACAD_REACTORS
330
908
102
}
330
908
100
AcDbVisualStyle
  2
X-Ray
 70
    25
177
     3
291
     0
 70
    58
 90
        2
176
     1
 90
        2
176
     1
 90
        1
176
     1
 90
        1
176
     1
 40
0.5
176
     1
 40
30.0
176
     1
 62
     7
420
 16777215
176
     1
 90
        1
176
     1
 90
        0
176
     1
 62
     7
176
     1
 62
   257
176
     1
 90
        1
176
     1
 90
        1
176
     1
 40
1.0
176
     1
 90
        8
176
     1
 62
     7
176
     1
 40
1.0
176
     1
 90
        1
176
     1
 90
        6
176
     1
 90
        2
176
     1
 62
     7
176
     1
 90
        3
176
     1
 90
        0
176
     1
 90
        0
176
     1
290
     0
176
     1
 90
       13
176
     1
 40
0.0
176
     1
 90
        0
176
     1
290
     0
176
     1
290
     1
176
     1
290
     1
176
     1
290
     0
176
     1
290
     0
176
     1
290
     0
176
     1
290
     0
176
     1
290
     0
176
     1
290
     0
176
     1
 90
       50
176
     1
 40
0.0
176
     1
 40
1.0
176
     1
 90
        0
176
     1
 62
    18
420
        0
176
     1
 90
       50
176
     1
 90
        3
176
     1
 62
     5
420
      255
176
     1
290
     0
176
     1
 90
       50
176
     1
 90
       50
176
     1
 90
       50
176
     1
290
     0
176
     1
 90
       50
176
     1
 62
   256
176
     0
 40
1.0
176
     0
 90
        2
176
     1
  1
strokes_ogs.tif
176
     1
290
     0
176
     1
 40
1.0
176
     1
 40
1.0
176
     1
  0
DICTIONARYVAR
  5
949
102
{ACAD_REACTORS
330
944
102
}
330
944
100
DictionaryVariables
280
     0
  1
1:1
  0
DICTIONARYVAR
  5
946
102
{ACAD_REACTORS
330
944
102
}
330
944
100
DictionaryVariables
280
     0
  1
STANDARD
  0
DICTIONARYVAR
  5
945
102
{ACAD_REACTORS
330
944
102
}
330
944
100
DictionaryVariables
280
     0
  1
STANDARD
  0
DICTIONARYVAR
  5
947
102
{ACAD_REACTORS
330
944
102
}
330
944
100
DictionaryVariables
280
     0
  1
Imperial24
  0
DICTIONARYVAR
  5
948
102
{ACAD_REACTORS
330
944
102
}
330
944
100
DictionaryVariables
280
     0
  1
Imperial24
  0
DICTIONARY
  5
8F9
330
8F8
100
AcDbDictionary
280
     1
281
     1
  3
BUMPTILE
360
8FB
  3
DIFFUSETILE
360
8FA
  3
OPACITYTILE
360
8FE
  3
REFLECTIONTILE
360
8FD
  3
REFRACTIONTILE
360
8FF
  3
SPECULARTILE
360
8FC
  0
DICTIONARY
  5
8F1
330
8F0
100
AcDbDictionary
280
     1
281
     1
  3
BUMPTILE
360
8F3
  3
DIFFUSETILE
360
8F2
  3
OPACITYTILE
360
8F6
  3
REFLECTIONTILE
360
8F5
  3
REFRACTIONTILE
360
8F7
  3
SPECULARTILE
360
8F4
  0
DICTIONARY
  5
901
330
900
100
AcDbDictionary
280
     1
281
     1
  3
BUMPTILE
360
903
  3
DIFFUSETILE
360
902
  3
OPACITYTILE
360
906
  3
REFLECTIONTILE
360
905
  3
REFRACTIONTILE
360
907
  3
SPECULARTILE
360
904
  0
DICTIONARY
  5
9CD
330
923
100
AcDbDictionary
280
     1
281
     1
  3
ACAD_ROUNDTRIP_2008_TABLESTYLE_CELLSTYLEMAP
360
9CE
  0
XRECORD
  5
8FB
102
{ACAD_REACTORS
330
8F9
102
}
330
8F9
100
AcDbXrecord
280
     1
270
     1
271
     1
  0
XRECORD
  5
8FA
102
{ACAD_REACTORS
330
8F9
102
}
330
8F9
100
AcDbXrecord
280
     1
270
     1
271
     1
  0
XRECORD
  5
8FE
102
{ACAD_REACTORS
330
8F9
102
}
330
8F9
100
AcDbXrecord
280
     1
270
     1
271
     1
  0
XRECORD
  5
8FD
102
{ACAD_REACTORS
330
8F9
102
}
330
8F9
100
AcDbXrecord
280
     1
270
     1
271
     1
  0
XRECORD
  5
8FF
102
{ACAD_REACTORS
330
8F9
102
}
330
8F9
100
AcDbXrecord
280
     1
270
     1
271
     1
  0
XRECORD
  5
8FC
102
{ACAD_REACTORS
330
8F9
102
}
330
8F9
100
AcDbXrecord
280
     1
270
     1
271
     1
  0
XRECORD
  5
8F3
102
{ACAD_REACTORS
330
8F1
102
}
330
8F1
100
AcDbXrecord
280
     1
270
     1
271
     1
  0
XRECORD
  5
8F2
102
{ACAD_REACTORS
330
8F1
102
}
330
8F1
100
AcDbXrecord
280
     1
270
     1
271
     1
  0
XRECORD
  5
8F6
102
{ACAD_REACTORS
330
8F1
102
}
330
8F1
100
AcDbXrecord
280
     1
270
     1
271
     1
  0
XRECORD
  5
8F5
102
{ACAD_REACTORS
330
8F1
102
}
330
8F1
100
AcDbXrecord
280
     1
270
     1
271
     1
  0
XRECORD
  5
8F7
102
{ACAD_REACTORS
330
8F1
102
}
330
8F1
100
AcDbXrecord
280
     1
270
     1
271
     1
  0
XRECORD
  5
8F4
102
{ACAD_REACTORS
330
8F1
102
}
330
8F1
100
AcDbXrecord
280
     1
270
     1
271
     1
  0
XRECORD
  5
903
102
{ACAD_REACTORS
330
901
102
}
330
901
100
AcDbXrecord
280
     1
270
     1
271
     1
  0
XRECORD
  5
902
102
{ACAD_REACTORS
330
901
102
}
330
901
100
AcDbXrecord
280
     1
270
     1
271
     1
  0
XRECORD
  5
906
102
{ACAD_REACTORS
330
901
102
}
330
901
100
AcDbXrecord
280
     1
270
     1
271
     1
  0
XRECORD
  5
905
102
{ACAD_REACTORS
330
901
102
}
330
901
100
AcDbXrecord
280
     1
270
     1
271
     1
  0
XRECORD
  5
907
102
{ACAD_REACTORS
330
901
102
}
330
901
100
AcDbXrecord
280
     1
270
     1
271
     1
  0
XRECORD
  5
904
102
{ACAD_REACTORS
330
901
102
}
330
901
100
AcDbXrecord
280
     1
270
     1
271
     1
  0
CELLSTYLEMAP
  5
9CE
102
{ACAD_REACTORS
330
9CD
102
}
330
9CD
100
AcDbCellStyleMap
 90
        3
300
CELLSTYLE
  1
TABLEFORMAT_BEGIN
 90
        5
170
     1
 91
        0
 92
    32768
 62
   257
 93
        1
300
CONTENTFORMAT
  1
CONTENTFORMAT_BEGIN
 90
        0
 91
        0
 92
      512
 93
        0
300

 40
0.0
140
1.0
 94
        5
 62
     0
340
18
144
0.25
309
CONTENTFORMAT_END
171
     0
 94
        0
309
TABLEFORMAT_END
  1
CELLSTYLE_BEGIN
 90
        1
 91
        1
300
_TITLE
309
CELLSTYLE_END
300
CELLSTYLE
  1
TABLEFORMAT_BEGIN
 90
        5
170
     1
 91
        0
 92
        0
 62
   257
 93
        1
300
CONTENTFORMAT
  1
CONTENTFORMAT_BEGIN
 90
        0
 91
        0
 92
      512
 93
        0
300

 40
0.0
140
1.0
 94
        5
 62
     0
340
18
144
0.18
309
CONTENTFORMAT_END
171
     0
 94
        0
309
TABLEFORMAT_END
  1
CELLSTYLE_BEGIN
 90
        2
 91
        1
300
_HEADER
309
CELLSTYLE_END
300
CELLSTYLE
  1
TABLEFORMAT_BEGIN
 90
        5
170
     1
 91
        0
 92
        0
 62
   257
 93
        1
300
CONTENTFORMAT
  1
CONTENTFORMAT_BEGIN
 90
        0
 91
        0
 92
      512
 93
        0
300

 40
0.0
140
1.0
 94
        2
 62
     0
340
18
144
0.18
309
CONTENTFORMAT_END
171
     0
 94
        0
309
TABLEFORMAT_END
  1
CELLSTYLE_BEGIN
 90
        3
 91
        2
300
_DATA
309
CELLSTYLE_END
  0
ENDSEC
  0
SECTION
  2
ACDSDATA
 70
     2
 71
     8
  0
ACDSSCHEMA
 90
        0
  1
AcDb_Thumbnail_Schema
  2
AcDbDs::ID
280
    10
 91
        8
  2
Thumbnail_Data
280
    15
 91
        0
101
ACDSRECORD
 95
        0
 90
        1
  2
AcDbDs::TreatedAsObjectData
280
     1
291
     1
101
ACDSRECORD
 95
        0
 90
        2
  2
AcDbDs::Legacy
280
     1
291
     1
101
ACDSRECORD
  1
AcDbDs::ID
 90
        3
  2
AcDs:Indexable
280
     1
291
     1
101
ACDSRECORD
  1
AcDbDs::ID
 90
        4
  2
AcDbDs::HandleAttribute
280
     7
282
     1
  0
ACDSSCHEMA
 90
        1
  1
AcDbDs::TreatedAsObjectDataSchema
  2
AcDbDs::TreatedAsObjectData
280
     1
 91
        0
  0
ACDSSCHEMA
 90
        2
  1
AcDbDs::LegacySchema
  2
AcDbDs::Legacy
280
     1
 91
        0
  0
ACDSSCHEMA
 90
        3
  1
AcDbDs::IndexedPropertySchema
  2
AcDs:Indexable
280
     1
 91
        0
  0
ACDSSCHEMA
 90
        4
  1
AcDbDs::HandleAttributeSchema
  2
AcDbDs::HandleAttribute
280
     7
 91
        1
284
     1
  0
ACDSRECORD
 90
        0
  2
AcDbDs::ID
280
    10
320
20
  2
Thumbnail_Data
280
    15
 94
     2420
310
89504E470D0A1A0A0000000D4948445200000100000000A30803000000525330A000000300504C5445212830FFFFFF2128300000000000000000000000000000000000000000000000000000330000660000990000CC0000FF0033000033330033660033990033CC0033FF0066000066330066660066990066CC0066FF0099
310
000099330099660099990099CC0099FF00CC0000CC3300CC6600CC9900CCCC00CCFF00FF0000FF3300FF6600FF9900FFCC00FFFF3300003300333300663300993300CC3300FF3333003333333333663333993333CC3333FF3366003366333366663366993366CC3366FF3399003399333399663399993399CC3399FF33CC00
310
33CC3333CC6633CC9933CCCC33CCFF33FF0033FF3333FF6633FF9933FFCC33FFFF6600006600336600666600996600CC6600FF6633006633336633666633996633CC6633FF6666006666336666666666996666CC6666FF6699006699336699666699996699CC6699FF66CC0066CC3366CC6666CC9966CCCC66CCFF66FF0066
310
FF3366FF6666FF9966FFCC66FFFF9900009900339900669900999900CC9900FF9933009933339933669933999933CC9933FF9966009966339966669966999966CC9966FF9999009999339999669999999999CC9999FF99CC0099CC3399CC6699CC9999CCCC99CCFF99FF0099FF3399FF6699FF9999FFCC99FFFFCC0000CC00
310
33CC0066CC0099CC00CCCC00FFCC3300CC3333CC3366CC3399CC33CCCC33FFCC6600CC6633CC6666CC6699CC66CCCC66FFCC9900CC9933CC9966CC9999CC99CCCC99FFCCCC00CCCC33CCCC66CCCC99CCCCCCCCCCFFCCFF00CCFF33CCFF66CCFF99CCFFCCCCFFFFFF0000FF0033FF0066FF0099FF00CCFF00FFFF3300FF3333
310
FF3366FF3399FF33CCFF33FFFF6600FF6633FF6666FF6699FF66CCFF66FFFF9900FF9933FF9966FF9999FF99CCFF99FFFFCC00FFCC33FFCC66FFCC99FFCCCCFFCCFFFFFF00FFFF33FFFF66FFFF99FFFFCCFFFFFF0000000D0D0D1A1A1A2828283535354343435050505D5D5D6B6B6B787878868686939393A1A1A1AEAEAEBB
310
BBBBC9C9C9D6D6D6E4E4E4F1F1F1FFFFFF0000000000000000000000000000000000000000000000000000000000002E4550F1000001284944415478DAEDD94B8AC330100450DFFF6875AAD98C3D03218218052CD57B9B6CD3E5D6FF38000000E0A6A43E806102E94E20296890419115F50FFABCA6FEB7936371FDDD1FBFBE
310
FE54AC7E2F4BE1F5CDCFAF9FAE8ECFD5F6D74FBAEAFFADF8AFFFBB127899FDD23A11FE8F22A5B5D71C833E3B17EE7F5ABC13405C271CA0FB6B4F8C0ECCDB3447EE7CFEE15DE2F6DD9C41132CB789BEFB7FF79904323D51EB437303344C817B2570DE8419B6D5FBE4CCCE336BAD0AF972004F8F20D303586C6FF8F5BFF7F000
310
263E062E79999E696F00E713D372011C330358AF07527E7CC9BC0E58F634DCFEBE11CF1B009D0B6079FDF5CBBFF5DFBEAFB3F1230043003001D8FC690030F6ED7F4D7E00A6413B8182048C0200000000000000000000000000000000000078841F1F56E1ADFFF7731A0000000049454E44AE426082FC2C037C42FB4BDDC3A6
310
C320270AFC22017CD24F3609809756BFC60137E38FC684E9094986ABD6E501017E2F21240DD0FA73E115D3F307CAC0B603FC6495E42C806A4E5C644C16E5B4170069A076A64C9E0BBB3705407D3162BB8D46A78976E2DF3475EA9AF7B38029AE0F5300E96FD8FABD1507908B7DA6006CF60C36464CC2697350D08C1A3FCA00
310
4A4F64937C692CA203029239D90601B06949B9BEB5E85EF3F9AF20A0A885CB40906532AE6EBA1CA0521093D3C52A96D4AF662665889039E2CDFAF3E9FE979D0F204FC390E62494A7C5F3A31304698C309BAF6EAF394264A38C15B2EBFC8180DEA5540D810B02170CC96E682264990CC9FBF465701E99E82445262BF560ED0F
310
04F4ADA5BA4ACE0134EC25089631083448CAF4961C427791D2299A335D6459EEB84E003A47C8ECBD4513CC792CCA79A7C44DCCD3C1ECD04BEF5064504AC78B7D256B892E13808E6512ABFC5AF1D7C84F259D9BE46EF5CEC74E55DF735AF80F023AB9C0226BF31EA8F9BFDA50F42BEA17FE7234E61D03297B224D5835687C4F
310
0CBE1C025B5B94AF700094298FDD96B80F89F472CA078B092278D501B4534CDC4027CC396BB89E788D8063E3B8471858476B2E9B7DBACE09BA6942DA0E1149E1CFFB285A129D20CAF2C25A62BE9C014F72F447FBA5E6174D2A5A4924C52FEF8D65BDC7559F54956D90B655DA1DF195F5EF3A51D0B547238856D2A2D5355873
310
07D2C448DA28547A42CEF3FB077C2DFFF5D3D330976D4622BCA2589D54B6980717116AC2D10710E0E603CC17D69FBA12804D02C0BE15D0645FAB052E9D23BF94B9682CDC6885F9688DFAC580E89EDA7EAF0FE12480A54AB32B978EEA4ABD0BEC5BCBDB1A9DA85F0F900B6C91668A9658321EEBA830E7792FE7796B9AEA1AEB
310
1D73DBF71542ABF3C0C8F2FA2A011045C3A52BF27A54F246723F20A09D29D41B923D9550B3B5A9F16B054F74AD4B00EB6989B786CC9573AC13304D30C1ACBEAF9D595F02D078C0ECF4396FEBA00BFEDEA1B3043849C81BA7E9A471829BCE597BCAD4A909A6F2BFAB8775D5C60ECA6E7FD57EA67D916339738D00D57C286E54
310
722D682F2D046A6240C53E8A5B2518FB0E70DCABAEFA80CE9A298BEE527AF56C0665F5AB4E40EF0B44710FA4CD3B98B73B935D5F5DD396F90DD3949BEDAA9EF6EE84919A36D8F846465BDEED84275B3D1C9AB97384B59052ABC253B4C99E4A1B9FAFCE7F3A0414E6ADBF6BB6082BD980DDD2BA31F7362991A7AE754D36EDFF
310
865D55588B95F34C4DC289BA79C915D28C6D6763FDAD3BA9C59E27C3CF7876FBF3B3D7C8BC9727BE60CB34DD179DAEE7612E79EA3302FF430135B71F7F8E02D2D9C7831F7BC5EA3F28D826E13B088006FEE3F50E5064C54B63B03732A0B5A68F03340DD697D96F443CAAE5EA74798E82EF22E06A57FB827FF9BB097803B9E3
310
1240077DC620148C6DFFE8EB1F087C4F03343C0118DD7E8CBEFE837F45C8B7CC253E360CE0B407363403437F490C40C37F4F50B442814020101A6834F3C79EC8E997438DDBFF52FED4D7B0EB3FB00644F1A9D011D1F3A6BB1F6160F8416808C04060B8C43FB8FDC3DF8B30B813BCFEB6BFB0FF0713E0E877648D5E06E286AC
310
4020100804028140201008040281402010080402814020100804EE857F30685FAF35FE3FDA0000000049454E44AE426082C6CE362F017944C08D6C3B60BBDDC87608DCC805B0AD00C81B2F0337E3654014B81917C078168402D60570381C0E87C3E170381C0E87C3E170381C0E87633EFC0F791B2DE715C1FAE90000000049
310
454E44AE426082
  0
ENDSEC
  0
EOF
