  0
SECTION
  2
HEADER
  9
$ACADVER
  1
AC1018
  9
$ACADMAINTVER
 70
0
  9
$DWGCODEPAGE
  3
ANSI_1252
  9
$LASTSAVEDBY
  1
ezdxf
  9
$INSBASE
 10
0.0
 20
0.0
 30
0.0
  9
$EXTMIN
 10
1e+20
 20
1e+20
 30
1e+20
  9
$EXTMAX
 10
-1e+20
 20
-1e+20
 30
-1e+20
  9
$LIMMIN
 10
0.0
 20
0.0
  9
$LIMMAX
 10
420.0
 20
297.0
  9
$ORTHOMODE
 70
0
  9
$REGENMODE
 70
1
  9
$FILLMODE
 70
1
  9
$QTEXTMODE
 70
0
  9
$MIRRTEXT
 70
1
  9
$LTSCALE
 40
1.0
  9
$ATTMODE
 70
1
  9
$TEXTSIZE
 40
2.5
  9
$TRACEWID
 40
1.0
  9
$TEXTSTYLE
  7
Standard
  9
$CLAYER
  8
0
  9
$CELTYPE
  6
ByLayer
  9
$CECOLOR
 62
256
  9
$CELTSCALE
 40
1.0
  9
$DISPSILH
 70
0
  9
$DIMSCALE
 40
1.0
  9
$DIMASZ
 40
2.5
  9
$DIMEXO
 40
0.625
  9
$DIMDLI
 40
3.75
  9
$DIMRND
 40
0.0
  9
$DIMDLE
 40
0.0
  9
$DIMEXE
 40
1.25
  9
$DIMTP
 40
0.0
  9
$DIMTM
 40
0.0
  9
$DIMTXT
 40
2.5
  9
$DIMCEN
 40
2.5
  9
$DIMTSZ
 40
0.0
  9
$DIMTOL
 70
0
  9
$DIMLIM
 70
0
  9
$DIMTIH
 70
0
  9
$DIMTOH
 70
0
  9
$DIMSE1
 70
0
  9
$DIMSE2
 70
0
  9
$DIMTAD
 70
1
  9
$DIMZIN
 70
8
  9
$DIMBLK
  1

  9
$DIMASO
 70
1
  9
$DIMSHO
 70
1
  9
$DIMPOST
  1

  9
$DIMAPOST
  1

  9
$DIMALT
 70
0
  9
$DIMALTD
 70
3
  9
$DIMALTF
 40
0.03937007874
  9
$DIMLFAC
 40
1.0
  9
$DIMTOFL
 70
1
  9
$DIMTVP
 40
0.0
  9
$DIMTIX
 70
0
  9
$DIMSOXD
 70
0
  9
$DIMSAH
 70
0
  9
$DIMBLK1
  1

  9
$DIMBLK2
  1

  9
$DIMSTYLE
  2
ISO-25
  9
$DIMCLRD
 70
0
  9
$DIMCLRE
 70
0
  9
$DIMCLRT
 70
0
  9
$DIMTFAC
 40
1.0
  9
$DIMGAP
 40
0.625
  9
$DIMJUST
 70
0
  9
$DIMSD1
 70
0
  9
$DIMSD2
 70
0
  9
$DIMTOLJ
 70
0
  9
$DIMTZIN
 70
8
  9
$DIMALTZ
 70
0
  9
$DIMALTTZ
 70
0
  9
$DIMUPT
 70
0
  9
$DIMDEC
 70
2
  9
$DIMTDEC
 70
2
  9
$DIMALTU
 70
2
  9
$DIMALTTD
 70
3
  9
$DIMTXSTY
  7
Standard
  9
$DIMAUNIT
 70
0
  9
$DIMADEC
 70
0
  9
$DIMALTRND
 40
0.0
  9
$DIMAZIN
 70
0
  9
$DIMDSEP
 70
44
  9
$DIMATFIT
 70
3
  9
$DIMFRAC
 70
0
  9
$DIMLDRBLK
  1

  9
$DIMLUNIT
 70
2
  9
$DIMLWD
 70
-2
  9
$DIMLWE
 70
-2
  9
$DIMTMOVE
 70
0
  9
$LUNITS
 70
2
  9
$LUPREC
 70
4
  9
$SKETCHINC
 40
1.0
  9
$FILLETRAD
 40
10.0
  9
$AUNITS
 70
0
  9
$AUPREC
 70
2
  9
$MENU
  1
.
  9
$ELEVATION
 40
0.0
  9
$PELEVATION
 40
0.0
  9
$THICKNESS
 40
0.0
  9
$LIMCHECK
 70
0
  9
$CHAMFERA
 40
0.0
  9
$CHAMFERB
 40
0.0
  9
$CHAMFERC
 40
0.0
  9
$CHAMFERD
 40
0.0
  9
$SKPOLY
 70
0
  9
$TDCREATE
 40
2460873.4776273146
  9
$TDUCREATE
 40
2458532.153996898
  9
$TDUPDATE
 40
2460873.4776273146
  9
$TDUUPDATE
 40
2458532.1544311
  9
$TDINDWG
 40
0.0
  9
$TDUSRTIMER
 40
0.0
  9
$USRTIMER
 70
1
  9
$ANGBASE
 50
0.0
  9
$ANGDIR
 70
0
  9
$PDMODE
 70
0
  9
$PDSIZE
 40
0.0
  9
$PLINEWID
 40
0.0
  9
$SPLFRAME
 70
0
  9
$SPLINETYPE
 70
6
  9
$SPLINESEGS
 70
8
  9
$HANDSEED
  5
144
  9
$SURFTAB1
 70
6
  9
$SURFTAB2
 70
6
  9
$SURFTYPE
 70
6
  9
$SURFU
 70
6
  9
$SURFV
 70
6
  9
$UCSBASE
  2

  9
$UCSNAME
  2

  9
$UCSORG
 10
0.0
 20
0.0
 30
0.0
  9
$UCSXDIR
 10
1.0
 20
0.0
 30
0.0
  9
$UCSYDIR
 10
0.0
 20
1.0
 30
0.0
  9
$UCSORTHOREF
  2

  9
$UCSORTHOVIEW
 70
0
  9
$UCSORGTOP
 10
0.0
 20
0.0
 30
0.0
  9
$UCSORGBOTTOM
 10
0.0
 20
0.0
 30
0.0
  9
$UCSORGLEFT
 10
0.0
 20
0.0
 30
0.0
  9
$UCSORGRIGHT
 10
0.0
 20
0.0
 30
0.0
  9
$UCSORGFRONT
 10
0.0
 20
0.0
 30
0.0
  9
$UCSORGBACK
 10
0.0
 20
0.0
 30
0.0
  9
$PUCSBASE
  2

  9
$PUCSNAME
  2

  9
$PUCSORG
 10
0.0
 20
0.0
 30
0.0
  9
$PUCSXDIR
 10
1.0
 20
0.0
 30
0.0
  9
$PUCSYDIR
 10
0.0
 20
1.0
 30
0.0
  9
$PUCSORTHOREF
  2

  9
$PUCSORTHOVIEW
 70
0
  9
$PUCSORGTOP
 10
0.0
 20
0.0
 30
0.0
  9
$PUCSORGBOTTOM
 10
0.0
 20
0.0
 30
0.0
  9
$PUCSORGLEFT
 10
0.0
 20
0.0
 30
0.0
  9
$PUCSORGRIGHT
 10
0.0
 20
0.0
 30
0.0
  9
$PUCSORGFRONT
 10
0.0
 20
0.0
 30
0.0
  9
$PUCSORGBACK
 10
0.0
 20
0.0
 30
0.0
  9
$USERI1
 70
0
  9
$USERI2
 70
0
  9
$USERI3
 70
0
  9
$USERI4
 70
0
  9
$USERI5
 70
0
  9
$USERR1
 40
0.0
  9
$USERR2
 40
0.0
  9
$USERR3
 40
0.0
  9
$USERR4
 40
0.0
  9
$USERR5
 40
0.0
  9
$WORLDVIEW
 70
1
  9
$SHADEDGE
 70
3
  9
$SHADEDIF
 70
70
  9
$TILEMODE
 70
1
  9
$MAXACTVP
 70
64
  9
$PINSBASE
 10
0.0
 20
0.0
 30
0.0
  9
$PLIMCHECK
 70
0
  9
$PEXTMIN
 10
1e+20
 20
1e+20
 30
1e+20
  9
$PEXTMAX
 10
-1e+20
 20
-1e+20
 30
-1e+20
  9
$PLIMMIN
 10
0.0
 20
0.0
  9
$PLIMMAX
 10
420.0
 20
297.0
  9
$UNITMODE
 70
0
  9
$VISRETAIN
 70
1
  9
$PLINEGEN
 70
0
  9
$PSLTSCALE
 70
1
  9
$TREEDEPTH
 70
3020
  9
$CMLSTYLE
  2
Standard
  9
$CMLJUST
 70
0
  9
$CMLSCALE
 40
20.0
  9
$PROXYGRAPHICS
 70
1
  9
$MEASUREMENT
 70
1
  9
$CELWEIGHT
370
-1
  9
$ENDCAPS
280
0
  9
$JOINSTYLE
280
0
  9
$LWDISPLAY
290
0
  9
$INSUNITS
 70
6
  9
$HYPERLINKBASE
  1

  9
$STYLESHEET
  1

  9
$XEDIT
290
1
  9
$CEPSNTYPE
380
0
  9
$PSTYLEMODE
290
1
  9
$FINGERPRINTGUID
  2
{9F0E50C5-E46C-4C42-95C8-08ECE086F796}
  9
$VERSIONGUID
  2
{E4E5B647-5EFD-46CA-89A1-9D65F9AB3A78}
  9
$EXTNAMES
290
1
  9
$PSVPSCALE
 40
0.0
  9
$OLESTARTUP
290
0
  9
$SORTENTS
280
127
  9
$INDEXCTL
280
0
  9
$HIDETEXT
280
1
  9
$XCLIPFRAME
290
1
  9
$HALOGAP
280
0
  9
$OBSCOLOR
 70
257
  9
$OBSLTYPE
280
0
  9
$INTERSECTIONDISPLAY
280
0
  9
$INTERSECTIONCOLOR
 70
257
  9
$DIMASSOC
280
2
  9
$PROJECTNAME
  1

  0
ENDSEC
  0
SECTION
  2
CLASSES
  0
CLASS
  1
ACDBDICTIONARYWDFLT
  2
AcDbDictionaryWithDefault
  3
ObjectDBX Classes
 90
0
 91
0
280
0
281
0
  0
CLASS
  1
SUN
  2
AcDbSun
  3
SCENEOE
 90
1153
 91
0
280
0
281
0
  0
CLASS
  1
VISUALSTYLE
  2
AcDbVisualStyle
  3
ObjectDBX Classes
 90
4095
 91
0
280
0
281
0
  0
CLASS
  1
MATERIAL
  2
AcDbMaterial
  3
ObjectDBX Classes
 90
1153
 91
0
280
0
281
0
  0
CLASS
  1
SCALE
  2
AcDbScale
  3
ObjectDBX Classes
 90
1153
 91
0
280
0
281
0
  0
CLASS
  1
TABLESTYLE
  2
AcDbTableStyle
  3
ObjectDBX Classes
 90
4095
 91
0
280
0
281
0
  0
CLASS
  1
MLEADERSTYLE
  2
AcDbMLeaderStyle
  3
ACDB_MLEADERSTYLE_CLASS
 90
4095
 91
0
280
0
281
0
  0
CLASS
  1
DICTIONARYVAR
  2
AcDbDictionaryVar
  3
ObjectDBX Classes
 90
0
 91
0
280
0
281
0
  0
CLASS
  1
CELLSTYLEMAP
  2
AcDbCellStyleMap
  3
ObjectDBX Classes
 90
1152
 91
0
280
0
281
0
  0
CLASS
  1
MENTALRAYRENDERSETTINGS
  2
AcDbMentalRayRenderSettings
  3
SCENEOE
 90
1024
 91
0
280
0
281
0
  0
CLASS
  1
ACDBDETAILVIEWSTYLE
  2
AcDbDetailViewStyle
  3
ObjectDBX Classes
 90
1025
 91
0
280
0
281
0
  0
CLASS
  1
ACDBSECTIONVIEWSTYLE
  2
AcDbSectionViewStyle
  3
ObjectDBX Classes
 90
1025
 91
0
280
0
281
0
  0
CLASS
  1
RASTERVARIABLES
  2
AcDbRasterVariables
  3
ISM
 90
0
 91
0
280
0
281
0
  0
CLASS
  1
ACDBPLACEHOLDER
  2
AcDbPlaceHolder
  3
ObjectDBX Classes
 90
0
 91
0
280
0
281
0
  0
CLASS
  1
LAYOUT
  2
AcDbLayout
  3
ObjectDBX Classes
 90
0
 91
0
280
0
281
0
  0
ENDSEC
  0
SECTION
  2
TABLES
  0
TABLE
  2
VPORT
  5
8
330
0
100
AcDbSymbolTable
 70
1
  0
VPORT
  5
23
330
8
100
AcDbSymbolTableRecord
100
AcDbViewportTableRecord
  2
*Active
 70
0
 10
0.0
 20
0.0
 11
1.0
 21
1.0
 12
0.0
 22
0.0
 13
0.0
 23
0.0
 14
0.5
 24
0.5
 15
0.5
 25
0.5
 16
0.0
 26
0.0
 36
1.0
 17
0.0
 27
0.0
 37
0.0
 40
1000.0
 41
1.34
 42
50.0
 43
0.0
 44
0.0
 50
0.0
 51
0.0
 71
0
 72
1000
 73
1
 74
3
 75
0
 76
0
 77
0
 78
0
281
0
 65
0
146
0.0
  0
ENDTAB
  0
TABLE
  2
LTYPE
  5
2
330
0
100
AcDbSymbolTable
 70
3
  0
LTYPE
  5
24
330
2
100
AcDbSymbolTableRecord
100
AcDbLinetypeTableRecord
  2
ByBlock
 70
0
  3

 72
65
 73
0
 40
0.0
  0
LTYPE
  5
25
330
2
100
AcDbSymbolTableRecord
100
AcDbLinetypeTableRecord
  2
ByLayer
 70
0
  3

 72
65
 73
0
 40
0.0
  0
LTYPE
  5
26
330
2
100
AcDbSymbolTableRecord
100
AcDbLinetypeTableRecord
  2
Continuous
 70
0
  3

 72
65
 73
0
 40
0.0
  0
ENDTAB
  0
TABLE
  2
LAYER
  5
1
330
0
100
AcDbSymbolTable
 70
2
  0
LAYER
  5
27
330
1
100
AcDbSymbolTableRecord
100
AcDbLayerTableRecord
  2
0
 70
0
 62
7
  6
Continuous
370
-3
390
13
  0
LAYER
  5
28
330
1
100
AcDbSymbolTableRecord
100
AcDbLayerTableRecord
  2
Defpoints
 70
0
 62
7
  6
Continuous
290
0
370
-3
390
13
  0
ENDTAB
  0
TABLE
  2
STYLE
  5
5
330
0
100
AcDbSymbolTable
 70
1
  0
STYLE
  5
29
330
5
100
AcDbSymbolTableRecord
100
AcDbTextStyleTableRecord
  2
Standard
 70
0
 40
0.0
 41
1.0
 50
0.0
 71
0
 42
2.5
  3
txt
  4

  0
ENDTAB
  0
TABLE
  2
VIEW
  5
7
330
0
100
AcDbSymbolTable
 70
0
  0
ENDTAB
  0
TABLE
  2
UCS
  5
6
330
0
100
AcDbSymbolTable
 70
0
  0
ENDTAB
  0
TABLE
  2
APPID
  5
3
330
0
100
AcDbSymbolTable
 70
3
  0
APPID
  5
2A
330
3
100
AcDbSymbolTableRecord
100
AcDbRegAppTableRecord
  2
ACAD
 70
0
  0
APPID
  5
141
330
3
100
AcDbSymbolTableRecord
100
AcDbRegAppTableRecord
  2
HATCHBACKGROUNDCOLOR
 70
0
  0
APPID
  5
142
330
3
100
AcDbSymbolTableRecord
100
AcDbRegAppTableRecord
  2
EZDXF
 70
0
  0
ENDTAB
  0
TABLE
  2
DIMSTYLE
  5
4
330
0
100
AcDbSymbolTable
 70
1
100
AcDbDimStyleTable
  0
DIMSTYLE
105
2B
330
4
100
AcDbSymbolTableRecord
100
AcDbDimStyleTableRecord
  2
Standard
 70
0
  3

  4

 40
1.0
 41
2.5
 42
0.625
 43
3.75
 44
1.25
 45
0.0
 46
0.0
 47
0.0
 48
0.0
140
2.5
141
2.5
142
0.0
143
0.03937007874
144
1.0
145
0.0
146
1.0
147
0.625
148
0.0
 71
0
 72
0
 73
0
 74
0
 75
0
 76
0
 77
1
 78
8
 79
3
170
0
171
3
172
1
173
0
174
0
175
0
176
0
177
0
178
0
179
2
271
2
272
2
273
2
274
3
275
0
276
0
277
2
278
44
279
0
280
0
281
0
282
0
283
0
284
8
285
0
286
0
288
0
289
3
371
-2
372
-2
  0
ENDTAB
  0
TABLE
  2
BLOCK_RECORD
  5
9
330
0
100
AcDbSymbolTable
 70
2
  0
BLOCK_RECORD
  5
17
330
9
100
AcDbSymbolTableRecord
100
AcDbBlockTableRecord
  2
*Model_Space
340
1A
  0
BLOCK_RECORD
  5
1B
330
9
100
AcDbSymbolTableRecord
100
AcDbBlockTableRecord
  2
*Paper_Space
340
1E
  0
ENDTAB
  0
ENDSEC
  0
SECTION
  2
BLOCKS
  0
BLOCK
  5
18
330
17
100
AcDbEntity
  8
0
100
AcDbBlockBegin
  2
*Model_Space
 70
0
 10
0.0
 20
0.0
 30
0.0
  3
*Model_Space
  1

  0
ENDBLK
  5
19
330
17
100
AcDbEntity
  8
0
100
AcDbBlockEnd
  0
BLOCK
  5
1C
330
1B
100
AcDbEntity
  8
0
100
AcDbBlockBegin
  2
*Paper_Space
 70
0
 10
0.0
 20
0.0
 30
0.0
  3
*Paper_Space
  1

  0
ENDBLK
  5
1D
330
1B
100
AcDbEntity
  8
0
100
AcDbBlockEnd
  0
ENDSEC
  0
SECTION
  2
ENTITIES
  0
LWPOLYLINE
  5
2F
330
17
100
AcDbEntity
  8
0
100
AcDbPolyline
 90
9
 70
1
 10
1394663.65
 20
359118.58
 10
1394686.57
 20
359114.0
 10
1394673.84
 20
359057.62
 10
1394666.11
 20
359059.21
 10
1394664.85
 20
359053.25
 10
1394653.45
 20
359055.18
 10
1394653.61
 20
359055.97
 10
1394651.59
 20
359056.37
 10
1394663.65
 20
359118.58
  0
LWPOLYLINE
  5
30
330
17
100
AcDbEntity
  8
0
100
AcDbPolyline
 90
11
 70
1
 10
1394612.62
 20
359134.54
 10
1394617.03
 20
359133.39
 10
1394619.42
 20
359142.81
 10
1394636.96
 20
359137.94
 10
1394643.37
 20
359136.09
 10
1394639.04
 20
359117.42
 10
1394639.76
 20
359117.14
 10
1394629.72
 20
359077.51
 10
1394620.12
 20
359079.58
 10
1394599.29
 20
359085.21
 10
1394612.62
 20
359134.54
  0
LWPOLYLINE
  5
31
330
17
100
AcDbEntity
  8
0
100
AcDbPolyline
 90
13
 70
1
 10
1394193.08
 20
359256.14
 10
1394190.93
 20
359259.06
 10
1394181.83
 20
359272.56
 10
1394175.96
 20
359276.73
 10
1394172.89
 20
359278.78
 10
1394168.09
 20
359282.59
 10
1394169.76
 20
359287.89
 10
1394185.58
 20
359299.1
 10
1394183.21
 20
359302.49
 10
1394188.06
 20
359306.0
 10
1394207.34
 20
359279.37
 10
1394205.4
 20
359262.5
 10
1394193.08
 20
359256.14
  0
LWPOLYLINE
  5
32
330
17
100
AcDbEntity
  8
0
100
AcDbPolyline
 90
18
 70
1
 10
1394264.3
 20
359304.76
 10
1394246.76
 20
359325.92
 10
1394238.32
 20
359336.51
 10
1394242.07
 20
359338.79
 10
1394244.79
 20
359340.48
 10
1394249.97
 20
359342.92
 10
1394254.01
 20
359344.64
 10
1394262.48
 20
359348.9
 10
1394270.91
 20
359355.35
 10
1394272.64
 20
359351.76
 10
1394273.55
 20
359352.24
 10
1394273.02
 20
359347.4
 10
1394277.94
 20
359338.93
 10
1394288.61
 20
359326.06
 10
1394288.43
 20
359325.74
 10
1394286.25
 20
359322.45
 10
1394277.17
 20
359315.43
 10
1394264.3
 20
359304.76
  0
LWPOLYLINE
  5
33
330
17
100
AcDbEntity
  8
0
100
AcDbPolyline
 90
12
 70
1
 10
1394302.13
 20
359301.07
 10
1394300.69
 20
359303.03
 10
1394286.25
 20
359322.45
 10
1394288.43
 20
359325.74
 10
1394288.61
 20
359326.06
 10
1394289.6
 20
359327.5
 10
1394296.43
 20
359333.27
 10
1394301.49
 20
359337.55
 10
1394309.17
 20
359336.17
 10
1394322.23
 20
359320.27
 10
1394323.9
 20
359318.22
 10
1394302.13
 20
359301.07
  0
LWPOLYLINE
  5
34
330
17
100
AcDbEntity
  8
0
100
AcDbPolyline
 90
26
 70
1
 10
1394121.35
 20
359227.77
 10
1394111.24
 20
359243.24
 10
1394101.25
 20
359244.36
 10
1394087.08
 20
359234.71
 10
1394085.33
 20
359242.81
 10
1394088.65
 20
359243.58
 10
1394087.12
 20
359250.72
 10
1394086.38
 20
359250.46
 10
1394087.0
 20
359257.45
 10
1394093.35
 20
359265.98
 10
1394100.5
 20
359288.27
 10
1394107.11
 20
359285.8
 10
1394108.94
 20
359281.52
 10
1394113.57
 20
359273.45
 10
1394110.99
 20
359271.69
 10
1394112.57
 20
359269.38
 10
1394112.24
 20
359269.15
 10
1394120.88
 20
359258.38
 10
1394121.99
 20
359256.98
 10
1394123.67
 20
359255.09
 10
1394125.01
 20
359253.6
 10
1394130.97
 20
359246.74
 10
1394134.34
 20
359242.95
 10
1394134.8
 20
359242.43
 10
1394137.38
 20
359239.54
 10
1394121.35
 20
359227.77
  0
LWPOLYLINE
  5
35
330
17
100
AcDbEntity
  8
0
100
AcDbPolyline
 90
25
 70
1
 10
1394357.3
 20
359232.71
 10
1394359.75
 20
359241.77
 10
1394360.49
 20
359244.46
 10
1394362.15
 20
359250.6
 10
1394359.0
 20
359251.45
 10
1394359.69
 20
359254.29
 10
1394361.21
 20
359260.55
 10
1394362.56
 20
359266.11
 10
1394363.23
 20
359268.89
 10
1394363.97
 20
359271.95
 10
1394375.61
 20
359269.36
 10
1394378.69
 20
359271.2
 10
1394396.26
 20
359266.9
 10
1394400.46
 20
359265.88
 10
1394401.1
 20
359265.72
 10
1394399.14
 20
359257.29
 10
1394395.73
 20
359242.79
 10
1394393.22
 20
359231.97
 10
1394391.55
 20
359224.81
 10
1394389.22
 20
359225.37
 10
1394387.73
 20
359225.71
 10
1394385.76
 20
359226.17
 10
1394371.64
 20
359229.48
 10
1394367.56
 20
359229.58
 10
1394357.3
 20
359232.71
  0
LWPOLYLINE
  5
36
330
17
100
AcDbEntity
  8
0
100
AcDbPolyline
 90
24
 70
1
 10
1394312.32
 20
359214.29
 10
1394305.25
 20
359222.2
 10
1394294.86
 20
359233.92
 10
1394295.72
 20
359234.73
 10
1394292.87
 20
359237.9
 10
1394277.37
 20
359256.75
 10
1394275.47
 20
359259.16
 10
1394286.59
 20
359268.1
 10
1394311.85
 20
359292.39
 10
1394316.45
 20
359294.39
 10
1394317.42
 20
359293.79
 10
1394332.99
 20
359281.18
 10
1394334.02
 20
359280.5
 10
1394335.83
 20
359279.78
 10
1394336.4
 20
359279.6
 10
1394331.27
 20
359262.04
 10
1394337.21
 20
359260.5
 10
1394335.58
 20
359253.5
 10
1394342.49
 20
359251.82
 10
1394343.05
 20
359239.73
 10
1394332.42
 20
359218.57
 10
1394320.34
 20
359206.35
 10
1394319.37
 20
359207.41
 10
1394312.32
 20
359214.29
  0
LWPOLYLINE
  5
37
330
17
100
AcDbEntity
  8
0
100
AcDbPolyline
 90
8
 70
1
 10
1394234.04
 20
359229.27
 10
1394232.26
 20
359230.37
 10
1394225.44
 20
359234.53
 10
1394219.91
 20
359237.39
 10
1394223.56
 20
359241.06
 10
1394226.42
 20
359243.48
 10
1394236.5
 20
359231.44
 10
1394234.04
 20
359229.27
  0
LWPOLYLINE
  5
38
330
17
100
AcDbEntity
  8
0
100
AcDbPolyline
 90
11
 70
1
 10
1394651.59
 20
359056.37
 10
1394653.61
 20
359055.97
 10
1394653.45
 20
359055.18
 10
1394664.85
 20
359053.25
 10
1394666.11
 20
359059.21
 10
1394673.84
 20
359057.62
 10
1394681.45
 20
359056.06
 10
1394678.01
 20
359041.56
 10
1394673.9
 20
359025.87
 10
1394646.75
 20
359031.39
 10
1394651.59
 20
359056.37
  0
LWPOLYLINE
  5
39
330
17
100
AcDbEntity
  8
0
100
AcDbPolyline
 90
5
 70
1
 10
1394846.8
 20
359302.32
 10
1394902.43
 20
359279.26
 10
1394836.28
 20
359122.26
 10
1394781.16
 20
359145.5
 10
1394846.8
 20
359302.32
  0
LWPOLYLINE
  5
3A
330
17
100
AcDbEntity
  8
0
100
AcDbPolyline
 90
11
 70
1
 10
1394722.42
 20
358964.84
 10
1394727.93
 20
358964.77
 10
1394727.91
 20
358966.54
 10
1394750.08
 20
358966.4
 10
1394748.93
 20
358887.92
 10
1394737.78
 20
358888.2
 10
1394737.65
 20
358864.76
 10
1394716.48
 20
358865.04
 10
1394717.04
 20
358929.68
 10
1394721.86
 20
358929.6
 10
1394722.42
 20
358964.84
  0
LWPOLYLINE
  5
3B
330
17
100
AcDbEntity
  8
0
100
AcDbPolyline
 90
5
 70
1
 10
1394119.16
 20
358672.2
 10
1394098.5
 20
358686.59
 10
1394120.0
 20
358701.55
 10
1394132.84
 20
358689.37
 10
1394119.16
 20
358672.2
  0
LWPOLYLINE
  5
3C
330
17
100
AcDbEntity
  8
0
100
AcDbPolyline
 90
49
 70
1
 10
1392277.97
 20
356002.47
 10
1392278.48
 20
355999.3
 10
1392280.6
 20
355985.29
 10
1392268.81
 20
355977.06
 10
1392254.13
 20
355968.31
 10
1392228.75
 20
355948.48
 10
1392210.9
 20
355944.41
 10
1392211.55
 20
355943.22
 10
1392210.99
 20
355940.87
 10
1392209.98
 20
355938.35
 10
1392208.01
 20
355937.11
 10
1392205.4
 20
355936.78
 10
1392202.26
 20
355937.15
 10
1392199.26
 20
355938.53
 10
1392180.73
 20
355925.07
 10
1392178.95
 20
355922.42
 10
1392162.62
 20
355923.03
 10
1392161.12
 20
355923.19
 10
1392136.31
 20
355923.06
 10
1392124.32
 20
355923.68
 10
1392121.3
 20
355918.57
 10
1392104.79
 20
355933.65
 10
1392110.71
 20
355937.75
 10
1392114.98
 20
355940.71
 10
1392117.45
 20
355942.17
 10
1392119.45
 20
355938.98
 10
1392121.86
 20
355938.49
 10
1392123.98
 20
355939.73
 10
1392125.24
 20
355937.8
 10
1392132.62
 20
355942.6
 10
1392131.91
 20
355943.73
 10
1392135.36
 20
355945.57
 10
1392134.71
 20
355946.62
 10
1392140.84
 20
355950.24
 10
1392146.28
 20
355953.74
 10
1392159.56
 20
355961.8
 10
1392169.83
 20
355968.12
 10
1392172.13
 20
355964.02
 10
1392183.42
 20
355970.6
 10
1392176.28
 20
355982.79
 10
1392192.66
 20
355992.93
 10
1392189.34
 20
356035.31
 10
1392204.04
 20
356082.98
 10
1392200.39
 20
356084.19
 10
1392208.91
 20
356103.25
 10
1392238.1
 20
356093.41
 10
1392280.6
 20
356062.35
 10
1392278.29
 20
356057.74
 10
1392277.97
 20
356002.47
  0
LWPOLYLINE
  5
3D
330
17
100
AcDbEntity
  8
0
100
AcDbPolyline
 90
11
 70
1
 10
1391617.32
 20
355696.53
 10
1391614.4
 20
355684.72
 10
1391610.38
 20
355682.34
 10
1391612.63
 20
355675.96
 10
1391602.09
 20
355675.14
 10
1391583.72
 20
355675.64
 10
1391578.82
 20
355682.27
 10
1391585.87
 20
355689.08
 10
1391587.89
 20
355695.9
 10
1391589.89
 20
355702.71
 10
1391617.32
 20
355696.53
  0
LWPOLYLINE
  5
3E
330
17
100
AcDbEntity
  8
0
100
AcDbPolyline
 90
14
 70
1
 10
1393285.49
 20
358009.04
 10
1393292.54
 20
358014.04
 10
1393308.82
 20
357997.82
 10
1393309.16
 20
357990.03
 10
1393294.91
 20
357961.31
 10
1393308.81
 20
357954.85
 10
1393341.96
 20
357927.52
 10
1393286.45
 20
357859.22
 10
1393248.53
 20
357892.69
 10
1393237.37
 20
357880.06
 10
1393218.68
 20
357894.02
 10
1393252.61
 20
357946.64
 10
1393270.05
 20
357985.42
 10
1393285.49
 20
358009.04
  0
LWPOLYLINE
  5
3F
330
17
100
AcDbEntity
  8
0
100
AcDbPolyline
 90
6
 70
1
 10
1392268.43
 20
356574.27
 10
1392328.73
 20
356577.93
 10
1392323.9
 20
356542.39
 10
1392282.27
 20
356535.51
 10
1392268.85
 20
356539.57
 10
1392268.43
 20
356574.27
  0
LWPOLYLINE
  5
40
330
17
100
AcDbEntity
  8
0
100
AcDbPolyline
 90
10
 70
1
 10
1391866.55
 20
355917.2
 10
1391894.7
 20
355934.06
 10
1391906.74
 20
355936.94
 10
1391917.6
 20
355945.85
 10
1391942.54
 20
355954.72
 10
1392022.44
 20
355955.03
 10
1392017.57
 20
355934.81
 10
1391949.95
 20
355900.28
 10
1391920.98
 20
355895.28
 10
1391866.55
 20
355917.2
  0
LWPOLYLINE
  5
41
330
17
100
AcDbEntity
  8
0
100
AcDbPolyline
 90
13
 70
1
 10
1393837.6
 20
358330.88
 10
1393813.84
 20
358307.94
 10
1393810.92
 20
358305.04
 10
1393828.38
 20
358287.23
 10
1393832.91
 20
358291.54
 10
1393844.95
 20
358303.5
 10
1393851.93
 20
358311.15
 10
1393853.01
 20
358312.29
 10
1393852.13
 20
358315.45
 10
1393850.27
 20
358317.61
 10
1393843.54
 20
358324.65
 10
1393839.39
 20
358329.01
 10
1393837.6
 20
358330.88
  0
LWPOLYLINE
  5
42
330
17
100
AcDbEntity
  8
0
100
AcDbPolyline
 90
8
 70
1
 10
1393790.53
 20
358250.75
 10
1393820.69
 20
358276.63
 10
1393804.72
 20
358294.53
 10
1393802.38
 20
358297.13
 10
1393783.47
 20
358279.44
 10
1393768.3
 20
358264.06
 10
1393782.26
 20
358250.12
 10
1393790.53
 20
358250.75
  0
LWPOLYLINE
  5
43
330
17
100
AcDbEntity
  8
0
100
AcDbPolyline
 90
16
 70
1
 10
1392660.28
 20
356161.86
 10
1392652.01
 20
356154.01
 10
1392670.33
 20
356132.0
 10
1392673.76
 20
356125.4
 10
1392681.98
 20
356126.32
 10
1392689.15
 20
356126.71
 10
1392698.72
 20
356125.92
 10
1392708.79
 20
356126.79
 10
1392715.11
 20
356129.01
 10
1392721.65
 20
356134.49
 10
1392721.23
 20
356141.19
 10
1392713.35
 20
356162.74
 10
1392712.4
 20
356165.4
 10
1392709.55
 20
356167.21
 10
1392674.52
 20
356165.41
 10
1392660.28
 20
356161.86
  0
LWPOLYLINE
  5
44
330
17
100
AcDbEntity
  8
0
100
AcDbPolyline
 90
5
 70
1
 10
1392594.83
 20
356207.82
 10
1392583.59
 20
356213.97
 10
1392577.25
 20
356202.49
 10
1392590.03
 20
356196.42
 10
1392594.83
 20
356207.82
  0
LWPOLYLINE
  5
45
330
17
100
AcDbEntity
  8
0
100
AcDbPolyline
 90
5
 70
1
 10
1392213.66
 20
356396.6
 10
1392223.07
 20
356414.69
 10
1392241.38
 20
356405.16
 10
1392231.97
 20
356387.07
 10
1392213.66
 20
356396.6
  0
LWPOLYLINE
  5
46
330
17
100
AcDbEntity
  8
0
100
AcDbPolyline
 90
6
 70
1
 10
1393180.92
 20
357087.38
 10
1393194.3
 20
357109.05
 10
1393218.3
 20
357134.66
 10
1393231.8
 20
357127.84
 10
1393212.75
 20
357076.9
 10
1393180.92
 20
357087.38
  0
LWPOLYLINE
  5
47
330
17
100
AcDbEntity
  8
0
100
AcDbPolyline
 90
6
 70
1
 10
1393228.8
 20
357066.78
 10
1393239.41
 20
357103.3
 10
1393266.32
 20
357090.26
 10
1393252.25
 20
357048.89
 10
1393232.47
 20
357056.23
 10
1393228.8
 20
357066.78
  0
LWPOLYLINE
  5
48
330
17
100
AcDbEntity
  8
0
100
AcDbPolyline
 90
7
 70
1
 10
1393135.11
 20
356924.11
 10
1393167.99
 20
357026.65
 10
1393189.84
 20
357019.87
 10
1393193.16
 20
357011.04
 10
1393192.35
 20
356973.54
 10
1393171.5
 20
356911.64
 10
1393135.11
 20
356924.11
  0
LWPOLYLINE
  5
49
330
17
100
AcDbEntity
  8
0
100
AcDbPolyline
 90
11
 70
1
 10
1393198.92
 20
356991.54
 10
1393201.78
 20
357023.89
 10
1393206.05
 20
357040.07
 10
1393218.17
 20
357035.99
 10
1393224.46
 20
357052.29
 10
1393231.2
 20
357049.63
 10
1393238.64
 20
357037.88
 10
1393239.6
 20
357021.11
 10
1393231.38
 20
356994.49
 10
1393216.6
 20
356982.26
 10
1393198.92
 20
356991.54
  0
LWPOLYLINE
  5
4A
330
17
100
AcDbEntity
  8
0
100
AcDbPolyline
 90
7
 70
1
 10
1393108.31
 20
356855.0
 10
1393132.04
 20
356925.17
 10
1393171.5
 20
356911.64
 10
1393150.22
 20
356849.11
 10
1393144.29
 20
356851.42
 10
1393141.25
 20
356845.76
 10
1393108.31
 20
356855.0
  0
LWPOLYLINE
  5
4B
330
17
100
AcDbEntity
  8
0
100
AcDbPolyline
 90
12
 70
1
 10
1393065.9
 20
356863.84
 10
1393125.56
 20
357040.62
 10
1393137.52
 20
357069.95
 10
1393164.52
 20
357061.34
 10
1393162.83
 20
357047.79
 10
1393167.99
 20
357026.65
 10
1393135.11
 20
356924.11
 10
1393132.04
 20
356925.17
 10
1393108.31
 20
356855.0
 10
1393104.65
 20
356851.61
 10
1393097.82
 20
356849.53
 10
1393065.9
 20
356863.84
  0
LWPOLYLINE
  5
4C
330
17
100
AcDbEntity
  8
0
100
AcDbPolyline
 90
17
 70
1
 10
1393890.81
 20
358405.24
 10
1393891.45
 20
358405.46
 10
1393894.88
 20
358408.79
 10
1393919.97
 20
358433.34
 10
1393922.94
 20
358435.98
 10
1393910.79
 20
358446.31
 10
1393900.71
 20
358456.16
 10
1393898.3
 20
358458.38
 10
1393878.76
 20
358442.02
 10
1393872.3
 20
358436.15
 10
1393871.54
 20
358430.31
 10
1393871.2
 20
358427.27
 10
1393874.34
 20
358422.69
 10
1393878.2
 20
358418.01
 10
1393887.64
 20
358408.0
 10
1393890.16
 20
358405.49
 10
1393890.81
 20
358405.24
  0
LWPOLYLINE
  5
4D
330
17
100
AcDbEntity
  8
0
100
AcDbPolyline
 90
18
 70
1
 10
1393805.28
 20
358454.73
 10
1393812.26
 20
358460.37
 10
1393820.82
 20
358467.24
 10
1393823.24
 20
358469.35
 10
1393828.97
 20
358474.28
 10
1393835.84
 20
358480.65
 10
1393845.1
 20
358489.71
 10
1393848.94
 20
358493.89
 10
1393849.78
 20
358502.66
 10
1393831.39
 20
358525.8
 10
1393825.74
 20
358522.95
 10
1393823.18
 20
358519.2
 10
1393818.4
 20
358512.79
 10
1393817.14
 20
358511.12
 10
1393794.47
 20
358491.98
 10
1393787.21
 20
358486.43
 10
1393782.92
 20
358482.87
 10
1393805.28
 20
358454.73
  0
LWPOLYLINE
  5
4E
330
17
100
AcDbEntity
  8
0
100
AcDbPolyline
 90
6
 70
1
 10
1394613.64
 20
359287.25
 10
1394637.36
 20
359281.2
 10
1394628.37
 20
359245.41
 10
1394613.63
 20
359250.52
 10
1394602.85
 20
359255.36
 10
1394613.64
 20
359287.25
  0
LWPOLYLINE
  5
4F
330
17
100
AcDbEntity
  8
0
100
AcDbPolyline
 90
9
 70
1
 10
1394599.84
 20
359228.75
 10
1394606.74
 20
359251.88
 10
1394631.25
 20
359244.66
 10
1394625.87
 20
359225.64
 10
1394626.55
 20
359225.44
 10
1394625.29
 20
359221.09
 10
1394616.62
 20
359223.6
 10
1394614.84
 20
359224.69
 10
1394599.84
 20
359228.75
  0
LWPOLYLINE
  5
50
330
17
100
AcDbEntity
  8
0
100
AcDbPolyline
 90
10
 70
1
 10
1394218.84
 20
359603.08
 10
1394229.02
 20
359615.37
 10
1394246.46
 20
359591.25
 10
1394244.16
 20
359589.75
 10
1394232.13
 20
359580.93
 10
1394230.41
 20
359580.9
 10
1394226.8
 20
359584.55
 10
1394225.24
 20
359587.11
 10
1394223.58
 20
359589.82
 10
1394218.84
 20
359603.08
  0
LWPOLYLINE
  5
51
330
17
100
AcDbEntity
  8
0
100
AcDbPolyline
 90
2
 70
0
 10
1390724.31
 20
354791.28
 10
1390710.31
 20
354791.07
  0
LWPOLYLINE
  5
52
330
17
100
AcDbEntity
  8
0
100
AcDbPolyline
 90
31
 70
1
 10
1394479.87
 20
359477.95
 10
1394521.58
 20
359487.77
 10
1394521.6
 20
359486.86
 10
1394535.84
 20
359483.79
 10
1394547.6
 20
359492.64
 10
1394561.65
 20
359526.11
 10
1394555.15
 20
359528.55
 10
1394560.44
 20
359543.99
 10
1394566.3
 20
359542.28
 10
1394569.4
 20
359552.91
 10
1394569.62
 20
359565.85
 10
1394552.19
 20
359571.76
 10
1394511.9
 20
359558.32
 10
1394511.83
 20
359549.09
 10
1394409.35
 20
359537.76
 10
1394408.54
 20
359530.99
 10
1394379.12
 20
359530.39
 10
1394360.97
 20
359527.2
 10
1394358.38
 20
359534.2
 10
1394350.16
 20
359532.79
 10
1394342.75
 20
359529.13
 10
1394330.77
 20
359513.0
 10
1394309.3
 20
359494.05
 10
1394320.0
 20
359476.91
 10
1394300.07
 20
359452.53
 10
1394304.37
 20
359442.48
 10
1394315.14
 20
359443.44
 10
1394338.76
 20
359469.85
 10
1394374.47
 20
359478.58
 10
1394453.94
 20
359482.75
 10
1394479.87
 20
359477.95
  0
LWPOLYLINE
  5
53
330
17
100
AcDbEntity
  8
0
100
AcDbPolyline
 90
8
 70
1
 10
1395403.27
 20
359615.53
 10
1395443.96
 20
359605.37
 10
1395441.08
 20
359593.78
 10
1395434.76
 20
359568.47
 10
1395402.22
 20
359576.67
 10
1395406.5
 20
359593.98
 10
1395398.07
 20
359596.0
 10
1395403.27
 20
359615.53
  0
LWPOLYLINE
  5
54
330
17
100
AcDbEntity
  8
0
100
AcDbPolyline
 90
10
 70
1
 10
1395342.62
 20
359630.68
 10
1395390.83
 20
359618.64
 10
1395387.23
 20
359603.84
 10
1395383.55
 20
359588.7
 10
1395356.94
 20
359595.78
 10
1395357.1
 20
359596.8
 10
1395335.77
 20
359601.71
 10
1395337.14
 20
359608.48
 10
1395341.79
 20
359627.35
 10
1395342.62
 20
359630.68
  0
LWPOLYLINE
  5
55
330
17
100
AcDbEntity
  8
0
100
AcDbPolyline
 90
6
 70
1
 10
1394817.94
 20
359835.88
 10
1394851.29
 20
359830.84
 10
1394868.44
 20
359829.87
 10
1394852.46
 20
359768.27
 10
1394804.39
 20
359780.26
 10
1394817.94
 20
359835.88
  0
LWPOLYLINE
  5
56
330
17
100
AcDbEntity
  8
0
100
AcDbPolyline
 90
2
 70
0
 10
1390473.45
 20
355116.37
 10
1390459.45
 20
355116.16
  0
LWPOLYLINE
  5
57
330
17
100
AcDbEntity
  8
0
100
AcDbPolyline
 90
2
 70
0
 10
1390474.82
 20
355085.55
 10
1390460.82
 20
355085.34
  0
LWPOLYLINE
  5
58
330
17
100
AcDbEntity
  8
0
100
AcDbPolyline
 90
5
 70
1
 10
1394158.83
 20
359387.97
 10
1394163.01
 20
359387.77
 10
1394162.31
 20
359381.92
 10
1394158.16
 20
359382.39
 10
1394158.83
 20
359387.97
  0
LWPOLYLINE
  5
59
330
17
100
AcDbEntity
  8
0
100
AcDbPolyline
 90
2
 70
0
 10
1390715.89
 20
355153.97
 10
1390701.89
 20
355153.75
  0
LWPOLYLINE
  5
5A
330
17
100
AcDbEntity
  8
0
100
AcDbPolyline
 90
5
 70
1
 10
1390715.97
 20
355149.01
 10
1390701.97
 20
355148.8
 10
1390702.08
 20
355141.43
 10
1390716.08
 20
355141.64
 10
1390715.97
 20
355149.01
  0
LWPOLYLINE
  5
5B
330
17
100
AcDbEntity
  8
0
100
AcDbPolyline
 90
2
 70
0
 10
1390716.29
 20
355127.51
 10
1390702.29
 20
355127.3
  0
LWPOLYLINE
  5
5C
330
17
100
AcDbEntity
  8
0
100
AcDbPolyline
 90
8
 70
1
 10
1394745.03
 20
359328.34
 10
1394749.28
 20
359343.31
 10
1394787.07
 20
359390.53
 10
1394735.46
 20
359403.74
 10
1394733.69
 20
359396.24
 10
1394720.78
 20
359399.12
 10
1394705.42
 20
359339.24
 10
1394745.03
 20
359328.34
  0
LWPOLYLINE
  5
5D
330
17
100
AcDbEntity
  8
0
100
AcDbPolyline
 90
5
 70
1
 10
1394781.13
 20
359522.41
 10
1394792.97
 20
359565.48
 10
1394756.21
 20
359574.85
 10
1394746.16
 20
359532.73
 10
1394781.13
 20
359522.41
  0
LWPOLYLINE
  5
5E
330
17
100
AcDbEntity
  8
0
100
AcDbPolyline
 90
5
 70
1
 10
1394793.29
 20
359575.75
 10
1394797.54
 20
359594.95
 10
1394764.19
 20
359602.82
 10
1394759.48
 20
359583.93
 10
1394793.29
 20
359575.75
  0
LWPOLYLINE
  5
5F
330
17
100
AcDbEntity
  8
0
100
AcDbPolyline
 90
7
 70
1
 10
1394850.35
 20
359501.18
 10
1394862.67
 20
359549.19
 10
1394829.37
 20
359558.85
 10
1394826.36
 20
359547.45
 10
1394832.85
 20
359545.65
 10
1394823.52
 20
359508.69
 10
1394850.35
 20
359501.18
  0
LWPOLYLINE
  5
60
330
17
100
AcDbEntity
  8
0
100
AcDbPolyline
 90
8
 70
1
 10
1394803.33
 20
359472.95
 10
1394811.66
 20
359492.55
 10
1394791.68
 20
359498.65
 10
1394789.55
 20
359492.82
 10
1394787.87
 20
359485.28
 10
1394780.91
 20
359487.13
 10
1394779.1
 20
359480.95
 10
1394803.33
 20
359472.95
  0
LWPOLYLINE
  5
61
330
17
100
AcDbEntity
  8
0
100
AcDbPolyline
 90
8
 70
1
 10
1394787.87
 20
359485.28
 10
1394789.55
 20
359492.82
 10
1394791.68
 20
359498.65
 10
1394811.66
 20
359492.55
 10
1394820.21
 20
359512.64
 10
1394790.83
 20
359521.06
 10
1394780.84
 20
359487.15
 10
1394787.87
 20
359485.28
  0
LWPOLYLINE
  5
62
330
17
100
AcDbEntity
  8
0
100
AcDbPolyline
 90
5
 70
1
 10
1394867.81
 20
359308.08
 10
1394883.14
 20
359344.76
 10
1394922.82
 20
359328.06
 10
1394907.23
 20
359290.63
 10
1394867.81
 20
359308.08
  0
LWPOLYLINE
  5
63
330
17
100
AcDbEntity
  8
0
100
AcDbPolyline
 90
7
 70
1
 10
1394733.69
 20
359396.24
 10
1394737.0
 20
359410.24
 10
1394748.38
 20
359408.39
 10
1394754.26
 20
359430.7
 10
1394720.39
 20
359438.44
 10
1394712.46
 20
359400.98
 10
1394733.69
 20
359396.24
  0
LWPOLYLINE
  5
64
330
17
100
AcDbEntity
  8
0
100
AcDbPolyline
 90
5
 70
1
 10
1394752.7
 20
359461.86
 10
1394759.3
 20
359481.71
 10
1394731.16
 20
359489.17
 10
1394725.42
 20
359468.13
 10
1394752.7
 20
359461.86
  0
LWPOLYLINE
  5
65
330
17
100
AcDbEntity
  8
0
100
AcDbPolyline
 90
5
 70
1
 10
1396042.27
 20
359502.36
 10
1396050.59
 20
359474.05
 10
1396076.53
 20
359481.4
 10
1396068.51
 20
359509.87
 10
1396042.27
 20
359502.36
  0
LWPOLYLINE
  5
66
330
17
100
AcDbEntity
  8
0
100
AcDbPolyline
 90
7
 70
1
 10
1398551.45
 20
359495.1
 10
1398554.24
 20
359495.37
 10
1398556.72
 20
359495.66
 10
1398574.12
 20
359497.73
 10
1398577.19
 20
359470.11
 10
1398554.49
 20
359467.72
 10
1398551.45
 20
359495.1
  0
LWPOLYLINE
  5
67
330
17
100
AcDbEntity
  8
0
100
AcDbPolyline
 90
10
 70
1
 10
1394568.52
 20
359970.91
 10
1394543.17
 20
359976.43
 10
1394543.86
 20
359979.2
 10
1394549.48
 20
360002.17
 10
1394551.4
 20
360002.04
 10
1394558.27
 20
360002.34
 10
1394558.91
 20
360005.05
 10
1394567.72
 20
360002.95
 10
1394575.46
 20
360001.01
 10
1394568.52
 20
359970.91
  0
LWPOLYLINE
  5
68
330
17
100
AcDbEntity
  8
0
100
AcDbPolyline
 90
18
 70
1
 10
1394617.32
 20
359962.43
 10
1394616.93
 20
359960.87
 10
1394585.9
 20
359968.41
 10
1394604.0
 20
360040.02
 10
1394605.79
 20
360039.54
 10
1394617.69
 20
360036.41
 10
1394617.9
 20
360037.24
 10
1394620.54
 20
360036.54
 10
1394620.36
 20
360035.71
 10
1394616.22
 20
360019.58
 10
1394615.69
 20
360017.51
 10
1394617.37
 20
360017.08
 10
1394621.42
 20
360016.16
 10
1394614.94
 20
359991.51
 10
1394623.07
 20
359987.6
 10
1394620.05
 20
359974.7
 10
1394620.42
 20
359974.6
 10
1394617.32
 20
359962.43
  0
LWPOLYLINE
  5
69
330
17
100
AcDbEntity
  8
0
100
AcDbPolyline
 90
10
 70
1
 10
1394656.12
 20
359953.35
 10
1394655.65
 20
359951.39
 10
1394680.02
 20
359945.18
 10
1394680.45
 20
359947.06
 10
1394683.49
 20
359959.49
 10
1394684.11
 20
359962.04
 10
1394680.62
 20
359962.84
 10
1394659.84
 20
359967.66
 10
1394658.89
 20
359964.27
 10
1394656.12
 20
359953.35
  0
LWPOLYLINE
  5
6A
330
17
100
AcDbEntity
  8
0
100
AcDbPolyline
 90
18
 70
1
 10
1394680.02
 20
359945.18
 10
1394680.45
 20
359947.06
 10
1394684.11
 20
359962.04
 10
1394680.62
 20
359962.84
 10
1394682.95
 20
359972.11
 10
1394686.67
 20
359987.3
 10
1394688.86
 20
359997.62
 10
1394690.5
 20
359997.16
 10
1394700.77
 20
359994.78
 10
1394705.21
 20
359997.82
 10
1394709.72
 20
359996.62
 10
1394710.97
 20
359995.26
 10
1394707.93
 20
359983.27
 10
1394711.16
 20
359982.49
 10
1394708.27
 20
359970.7
 10
1394700.82
 20
359940.14
 10
1394700.77
 20
359939.9
 10
1394680.02
 20
359945.18
  0
LWPOLYLINE
  5
6B
330
17
100
AcDbEntity
  8
0
100
AcDbPolyline
 90
9
 70
1
 10
1394629.23
 20
359937.15
 10
1394652.75
 20
359931.63
 10
1394648.18
 20
359911.69
 10
1394645.64
 20
359912.23
 10
1394645.92
 20
359913.42
 10
1394628.7
 20
359917.23
 10
1394628.2
 20
359914.82
 10
1394624.16
 20
359915.65
 10
1394629.23
 20
359937.15
  0
LWPOLYLINE
  5
6C
330
17
100
AcDbEntity
  8
0
100
AcDbPolyline
 90
7
 70
1
 10
1394652.75
 20
359931.63
 10
1394674.48
 20
359926.46
 10
1394669.29
 20
359904.66
 10
1394660.89
 20
359906.76
 10
1394661.28
 20
359908.41
 10
1394648.18
 20
359911.69
 10
1394652.75
 20
359931.63
  0
LWPOLYLINE
  5
6D
330
17
100
AcDbEntity
  8
0
100
AcDbPolyline
 90
17
 70
1
 10
1394674.48
 20
359926.46
 10
1394682.13
 20
359924.45
 10
1394688.45
 20
359922.85
 10
1394688.11
 20
359921.62
 10
1394721.27
 20
359913.21
 10
1394717.1
 20
359897.7
 10
1394710.79
 20
359899.29
 10
1394706.4
 20
359899.08
 10
1394696.66
 20
359901.64
 10
1394695.17
 20
359896.49
 10
1394697.39
 20
359892.32
 10
1394696.78
 20
359888.97
 10
1394674.64
 20
359894.07
 10
1394675.98
 20
359899.33
 10
1394668.43
 20
359901.29
 10
1394669.29
 20
359904.66
 10
1394674.48
 20
359926.46
  0
LWPOLYLINE
  5
6E
330
17
100
AcDbEntity
  8
0
100
AcDbPolyline
 90
5
 70
1
 10
1394668.43
 20
359901.29
 10
1394675.98
 20
359899.33
 10
1394669.15
 20
359872.53
 10
1394661.7
 20
359874.45
 10
1394668.43
 20
359901.29
  0
LWPOLYLINE
  5
6F
330
17
100
AcDbEntity
  8
0
100
AcDbPolyline
 90
5
 70
1
 10
1394707.46
 20
359862.39
 10
1394669.17
 20
359873.08
 10
1394671.12
 20
359881.12
 10
1394709.68
 20
359870.86
 10
1394707.46
 20
359862.39
  0
LWPOLYLINE
  5
70
330
17
100
AcDbEntity
  8
0
100
AcDbPolyline
 90
9
 70
1
 10
1394722.32
 20
359834.89
 10
1394740.59
 20
359829.7
 10
1394738.59
 20
359822.08
 10
1394744.38
 20
359820.48
 10
1394743.74
 20
359817.94
 10
1394745.56
 20
359813.79
 10
1394742.06
 20
359799.64
 10
1394715.02
 20
359806.32
 10
1394722.32
 20
359834.89
  0
LWPOLYLINE
  5
71
330
17
100
AcDbEntity
  8
0
100
AcDbPolyline
 90
7
 70
1
 10
1394689.51
 20
359942.75
 10
1394700.77
 20
359939.9
 10
1394700.82
 20
359940.14
 10
1394708.27
 20
359970.7
 10
1394697.05
 20
359973.45
 10
1394689.96
 20
359944.58
 10
1394689.51
 20
359942.75
  0
LWPOLYLINE
  5
72
330
17
100
AcDbEntity
  8
0
100
AcDbPolyline
 90
12
 70
1
 10
1394731.61
 20
359965.44
 10
1394710.62
 20
359970.04
 10
1394708.27
 20
359970.7
 10
1394711.16
 20
359982.49
 10
1394707.93
 20
359983.27
 10
1394710.97
 20
359995.26
 10
1394738.19
 20
359988.27
 10
1394736.22
 20
359980.59
 10
1394735.63
 20
359978.59
 10
1394735.15
 20
359976.8
 10
1394734.52
 20
359976.97
 10
1394731.61
 20
359965.44
  0
LWPOLYLINE
  5
73
330
17
100
AcDbEntity
  8
0
100
AcDbPolyline
 90
9
 70
1
 10
1394725.5
 20
359935.19
 10
1394725.17
 20
359933.78
 10
1394714.67
 20
359936.36
 10
1394703.52
 20
359939.2
 10
1394709.68
 20
359964.47
 10
1394730.18
 20
359959.75
 10
1394728.41
 20
359952.7
 10
1394729.98
 20
359952.3
 10
1394725.5
 20
359935.19
  0
LWPOLYLINE
  5
74
330
17
100
AcDbEntity
  8
0
100
AcDbPolyline
 90
22
 70
1
 10
1394725.5
 20
359935.19
 10
1394725.17
 20
359933.78
 10
1394771.72
 20
359922.34
 10
1394772.07
 20
359923.8
 10
1394772.47
 20
359925.19
 10
1394775.05
 20
359935.56
 10
1394768.87
 20
359937.01
 10
1394769.2
 20
359938.58
 10
1394764.17
 20
359939.87
 10
1394761.99
 20
359940.42
 10
1394762.24
 20
359941.6
 10
1394742.43
 20
359946.64
 10
1394748.12
 20
359973.37
 10
1394743.31
 20
359974.7
 10
1394736.34
 20
359976.5
 10
1394735.15
 20
359976.8
 10
1394734.52
 20
359976.97
 10
1394731.61
 20
359965.44
 10
1394730.18
 20
359959.75
 10
1394728.41
 20
359952.7
 10
1394729.98
 20
359952.3
 10
1394725.5
 20
359935.19
  0
LWPOLYLINE
  5
75
330
17
100
AcDbEntity
  8
0
100
AcDbPolyline
 90
14
 70
1
 10
1394767.26
 20
359981.37
 10
1394763.17
 20
359982.41
 10
1394738.33
 20
359988.79
 10
1394738.19
 20
359988.27
 10
1394736.22
 20
359980.59
 10
1394735.63
 20
359978.59
 10
1394735.15
 20
359976.8
 10
1394736.34
 20
359976.5
 10
1394743.31
 20
359974.7
 10
1394748.12
 20
359973.37
 10
1394764.1
 20
359968.98
 10
1394764.63
 20
359971.14
 10
1394766.74
 20
359979.47
 10
1394767.26
 20
359981.37
  0
LWPOLYLINE
  5
76
330
17
100
AcDbEntity
  8
0
100
AcDbPolyline
 90
10
 70
1
 10
1394782.03
 20
359964.51
 10
1394782.4
 20
359966.14
 10
1394785.33
 20
359977.33
 10
1394783.68
 20
359977.37
 10
1394767.26
 20
359981.37
 10
1394766.74
 20
359979.47
 10
1394764.63
 20
359971.14
 10
1394764.1
 20
359968.98
 10
1394771.09
 20
359966.95
 10
1394782.03
 20
359964.51
  0
LWPOLYLINE
  5
77
330
17
100
AcDbEntity
  8
0
100
AcDbPolyline
 90
8
 70
1
 10
1394764.1
 20
359968.98
 10
1394748.12
 20
359973.37
 10
1394742.43
 20
359946.64
 10
1394762.24
 20
359941.6
 10
1394761.99
 20
359940.42
 10
1394764.17
 20
359939.87
 10
1394771.09
 20
359966.95
 10
1394764.1
 20
359968.98
  0
LWPOLYLINE
  5
78
330
17
100
AcDbEntity
  8
0
100
AcDbPolyline
 90
9
 70
1
 10
1394775.05
 20
359935.56
 10
1394776.56
 20
359940.73
 10
1394781.8
 20
359963.52
 10
1394782.03
 20
359964.51
 10
1394771.09
 20
359966.95
 10
1394764.17
 20
359939.87
 10
1394769.2
 20
359938.58
 10
1394768.87
 20
359937.01
 10
1394775.05
 20
359935.56
  0
LWPOLYLINE
  5
79
330
17
100
AcDbEntity
  8
0
100
AcDbPolyline
 90
10
 70
1
 10
1394770.95
 20
359874.58
 10
1394778.73
 20
359876.81
 10
1394783.64
 20
359875.59
 10
1394793.21
 20
359873.25
 10
1394792.86
 20
359871.83
 10
1394780.86
 20
359819.37
 10
1394761.92
 20
359824.56
 10
1394770.21
 20
359857.1
 10
1394766.89
 20
359857.97
 10
1394770.95
 20
359874.58
  0
LWPOLYLINE
  5
7A
330
17
100
AcDbEntity
  8
0
100
AcDbPolyline
 90
9
 70
1
 10
1394788.8
 20
359895.56
 10
1394812.29
 20
359889.78
 10
1394808.27
 20
359873.08
 10
1394798.13
 20
359875.65
 10
1394796.99
 20
359870.75
 10
1394792.86
 20
359871.83
 10
1394793.21
 20
359873.25
 10
1394783.64
 20
359875.59
 10
1394788.8
 20
359895.56
  0
LWPOLYLINE
  5
7B
330
17
100
AcDbEntity
  8
0
100
AcDbPolyline
 90
8
 70
1
 10
1394798.13
 20
359875.65
 10
1394805.91
 20
359873.67
 10
1394791.63
 20
359814.45
 10
1394783.49
 20
359816.28
 10
1394780.35
 20
359817.12
 10
1394792.86
 20
359871.83
 10
1394796.99
 20
359870.75
 10
1394798.13
 20
359875.65
  0
LWPOLYLINE
  5
7C
330
17
100
AcDbEntity
  8
0
100
AcDbPolyline
 90
5
 70
1
 10
1394767.22
 20
359901.41
 10
1394788.8
 20
359895.56
 10
1394784.87
 20
359880.37
 10
1394763.17
 20
359885.47
 10
1394767.22
 20
359901.41
  0
LWPOLYLINE
  5
7D
330
17
100
AcDbEntity
  8
0
100
AcDbPolyline
 90
8
 70
1
 10
1394746.67
 20
359829.13
 10
1394761.92
 20
359824.56
 10
1394778.23
 20
359820.1
 10
1394775.66
 20
359810.08
 10
1394756.48
 20
359814.79
 10
1394743.74
 20
359817.94
 10
1394744.38
 20
359820.48
 10
1394746.67
 20
359829.13
  0
LWPOLYLINE
  5
7E
330
17
100
AcDbEntity
  8
0
100
AcDbPolyline
 90
10
 70
1
 10
1394778.23
 20
359820.1
 10
1394780.86
 20
359819.37
 10
1394780.35
 20
359817.12
 10
1394783.49
 20
359816.28
 10
1394791.63
 20
359814.45
 10
1394793.96
 20
359813.95
 10
1394792.02
 20
359806.06
 10
1394779.34
 20
359809.18
 10
1394775.66
 20
359810.08
 10
1394778.23
 20
359820.1
  0
LWPOLYLINE
  5
7F
330
17
100
AcDbEntity
  8
0
100
AcDbPolyline
 90
11
 70
1
 10
1394761.09
 20
359877.26
 10
1394770.95
 20
359874.58
 10
1394766.89
 20
359857.97
 10
1394770.21
 20
359857.1
 10
1394761.92
 20
359824.56
 10
1394746.67
 20
359829.13
 10
1394751.99
 20
359849.4
 10
1394756.82
 20
359867.79
 10
1394758.76
 20
359868.36
 10
1394760.12
 20
359873.42
 10
1394761.09
 20
359877.26
  0
LWPOLYLINE
  5
80
330
17
100
AcDbEntity
  8
0
100
AcDbPolyline
 90
6
 70
1
 10
1394782.4
 20
359966.14
 10
1394785.33
 20
359977.33
 10
1394808.1
 20
359971.15
 10
1394805.25
 20
359960.18
 10
1394793.91
 20
359963.4
 10
1394782.4
 20
359966.14
  0
LWPOLYLINE
  5
81
330
17
100
AcDbEntity
  8
0
100
AcDbPolyline
 90
5
 70
1
 10
1394788.04
 20
359938.25
 10
1394793.91
 20
359963.4
 10
1394805.25
 20
359960.18
 10
1394799.43
 20
359935.39
 10
1394788.04
 20
359938.25
  0
LWPOLYLINE
  5
82
330
17
100
AcDbEntity
  8
0
100
AcDbPolyline
 90
7
 70
1
 10
1394776.56
 20
359940.73
 10
1394781.8
 20
359963.52
 10
1394782.03
 20
359964.51
 10
1394782.4
 20
359966.14
 10
1394793.91
 20
359963.4
 10
1394788.04
 20
359938.25
 10
1394776.56
 20
359940.73
  0
LWPOLYLINE
  5
83
330
17
100
AcDbEntity
  8
0
100
AcDbPolyline
 90
10
 70
1
 10
1394771.72
 20
359922.34
 10
1394772.07
 20
359923.8
 10
1394772.48
 20
359925.2
 10
1394775.05
 20
359935.56
 10
1394776.56
 20
359940.73
 10
1394788.04
 20
359938.25
 10
1394799.43
 20
359935.39
 10
1394795.21
 20
359918.0
 10
1394794.86
 20
359916.66
 10
1394771.72
 20
359922.34
  0
LWPOLYLINE
  5
84
330
17
100
AcDbEntity
  8
0
100
AcDbPolyline
 90
11
 70
1
 10
1394844.2
 20
359874.29
 10
1394830.88
 20
359877.72
 10
1394832.94
 20
359886.47
 10
1394879.23
 20
359875.59
 10
1394874.63
 20
359855.25
 10
1394857.82
 20
359859.2
 10
1394855.94
 20
359851.0
 10
1394843.62
 20
359853.99
 10
1394847.35
 20
359869.19
 10
1394843.21
 20
359870.34
 10
1394844.2
 20
359874.29
  0
LWPOLYLINE
  5
85
330
17
100
AcDbEntity
  8
0
100
AcDbPolyline
 90
14
 70
1
 10
1394880.63
 20
359881.03
 10
1394916.08
 20
359872.6
 10
1394916.24
 20
359855.54
 10
1394910.5
 20
359856.72
 10
1394907.2
 20
359857.46
 10
1394902.26
 20
359858.57
 10
1394902.11
 20
359857.12
 10
1394901.66
 20
359857.11
 10
1394899.98
 20
359850.32
 10
1394896.88
 20
359849.83
 10
1394895.84
 20
359845.97
 10
1394891.95
 20
359846.89
 10
1394873.69
 20
359851.27
 10
1394880.63
 20
359881.03
  0
LWPOLYLINE
  5
86
330
17
100
AcDbEntity
  8
0
100
AcDbPolyline
 90
19
 70
1
 10
1394916.24
 20
359855.54
 10
1394910.5
 20
359856.72
 10
1394907.2
 20
359857.46
 10
1394902.26
 20
359858.57
 10
1394902.11
 20
359857.12
 10
1394901.66
 20
359857.11
 10
1394899.98
 20
359850.32
 10
1394896.88
 20
359849.83
 10
1394895.84
 20
359845.97
 10
1394891.95
 20
359846.89
 10
1394873.69
 20
359851.27
 10
1394873.53
 20
359851.3
 10
1394868.17
 20
359828.87
 10
1394884.96
 20
359824.0
 10
1394885.63
 20
359826.63
 10
1394891.3
 20
359825.12
 10
1394910.53
 20
359820.15
 10
1394917.15
 20
359820.37
 10
1394916.24
 20
359855.54
  0
LWPOLYLINE
  5
87
330
17
100
AcDbEntity
  8
0
100
AcDbPolyline
 90
7
 70
1
 10
1394851.85
 20
359929.38
 10
1394850.2
 20
359922.54
 10
1394840.09
 20
359924.75
 10
1394834.37
 20
359901.94
 10
1394859.05
 20
359895.79
 10
1394865.53
 20
359925.88
 10
1394851.85
 20
359929.38
  0
LWPOLYLINE
  5
88
330
17
100
AcDbEntity
  8
0
100
AcDbPolyline
 90
9
 70
1
 10
1394844.59
 20
359942.72
 10
1394841.89
 20
359931.94
 10
1394865.53
 20
359925.88
 10
1394866.25
 20
359925.6
 10
1394867.3
 20
359930.02
 10
1394867.06
 20
359930.1
 10
1394868.55
 20
359936.48
 10
1394859.06
 20
359938.95
 10
1394844.59
 20
359942.72
  0
LWPOLYLINE
  5
89
330
17
100
AcDbEntity
  8
0
100
AcDbPolyline
 90
7
 70
1
 10
1394865.18
 20
359924.23
 10
1394859.05
 20
359895.79
 10
1394882.11
 20
359890.04
 10
1394886.88
 20
359910.13
 10
1394887.45
 20
359912.53
 10
1394870.21
 20
359922.99
 10
1394865.18
 20
359924.23
  0
LWPOLYLINE
  5
8A
330
17
100
AcDbEntity
  8
0
100
AcDbPolyline
 90
6
 70
1
 10
1394886.88
 20
359910.13
 10
1394882.11
 20
359890.04
 10
1394902.67
 20
359884.92
 10
1394904.44
 20
359892.03
 10
1394899.64
 20
359907.5
 10
1394886.88
 20
359910.13
  0
LWPOLYLINE
  5
8B
330
17
100
AcDbEntity
  8
0
100
AcDbPolyline
 90
7
 70
1
 10
1394890.08
 20
359923.59
 10
1394886.88
 20
359910.13
 10
1394899.64
 20
359907.5
 10
1394900.8
 20
359914.15
 10
1394898.66
 20
359923.48
 10
1394894.47
 20
359922.4
 10
1394890.08
 20
359923.59
  0
LWPOLYLINE
  5
8C
330
17
100
AcDbEntity
  8
0
100
AcDbPolyline
 90
5
 70
1
 10
1395031.53
 20
359837.15
 10
1395022.03
 20
359798.64
 10
1395050.24
 20
359791.33
 10
1395060.41
 20
359830.69
 10
1395031.53
 20
359837.15
  0
LWPOLYLINE
  5
8D
330
17
100
AcDbEntity
  8
0
100
AcDbPolyline
 90
8
 70
1
 10
1394745.03
 20
359328.34
 10
1394749.28
 20
359343.31
 10
1394787.07
 20
359390.53
 10
1394735.46
 20
359403.74
 10
1394733.69
 20
359396.24
 10
1394720.78
 20
359399.12
 10
1394705.42
 20
359339.24
 10
1394745.03
 20
359328.34
  0
LWPOLYLINE
  5
8E
330
17
100
AcDbEntity
  8
0
100
AcDbPolyline
 90
5
 70
1
 10
1394781.13
 20
359522.41
 10
1394792.97
 20
359565.48
 10
1394756.21
 20
359574.85
 10
1394746.16
 20
359532.73
 10
1394781.13
 20
359522.41
  0
LWPOLYLINE
  5
8F
330
17
100
AcDbEntity
  8
0
100
AcDbPolyline
 90
5
 70
1
 10
1394793.29
 20
359575.75
 10
1394797.54
 20
359594.95
 10
1394764.19
 20
359602.82
 10
1394759.48
 20
359583.93
 10
1394793.29
 20
359575.75
  0
LWPOLYLINE
  5
90
330
17
100
AcDbEntity
  8
0
100
AcDbPolyline
 90
8
 70
1
 10
1394849.06
 20
359960.54
 10
1394844.59
 20
359942.72
 10
1394859.06
 20
359938.95
 10
1394862.52
 20
359953.54
 10
1394869.69
 20
359951.68
 10
1394870.4
 20
359955.18
 10
1394868.4
 20
359955.68
 10
1394849.06
 20
359960.54
  0
LWPOLYLINE
  5
91
330
17
100
AcDbEntity
  8
0
100
AcDbPolyline
 90
9
 70
1
 10
1394891.43
 20
359930.5
 10
1394886.64
 20
359951.17
 10
1394870.4
 20
359955.18
 10
1394869.69
 20
359951.68
 10
1394862.52
 20
359953.54
 10
1394861.14
 20
359947.7
 10
1394882.22
 20
359942.43
 10
1394884.15
 20
359932.44
 10
1394891.43
 20
359930.5
  0
LWPOLYLINE
  5
92
330
17
100
AcDbEntity
  8
0
100
AcDbPolyline
 90
5
 70
1
 10
1394861.14
 20
359947.7
 10
1394859.06
 20
359938.95
 10
1394884.15
 20
359932.44
 10
1394882.22
 20
359942.43
 10
1394861.14
 20
359947.7
  0
LWPOLYLINE
  5
93
330
17
100
AcDbEntity
  8
0
100
AcDbPolyline
 90
10
 70
1
 10
1394802.11
 20
359942.05
 10
1394808.69
 20
359969.92
 10
1394818.54
 20
359967.7
 10
1394818.77
 20
359967.67
 10
1394820.71
 20
359967.18
 10
1394825.51
 20
359966.02
 10
1394830.3
 20
359964.83
 10
1394831.57
 20
359964.6
 10
1394824.71
 20
359936.51
 10
1394802.11
 20
359942.05
  0
LWPOLYLINE
  5
94
330
17
100
AcDbEntity
  8
0
100
AcDbPolyline
 90
15
 70
1
 10
1394894.36
 20
360423.72
 10
1394900.98
 20
360450.15
 10
1394922.97
 20
360444.8
 10
1394930.44
 20
360442.86
 10
1394945.61
 20
360438.91
 10
1394950.29
 20
360437.72
 10
1394943.89
 20
360411.4
 10
1394939.15
 20
360412.65
 10
1394926.04
 20
360415.81
 10
1394926.07
 20
360415.95
 10
1394924.58
 20
360416.33
 10
1394918.19
 20
360417.96
 10
1394908.72
 20
360420.35
 10
1394895.11
 20
360423.52
 10
1394894.36
 20
360423.72
  0
LWPOLYLINE
  5
95
330
17
100
AcDbEntity
  8
0
100
AcDbPolyline
 90
16
 70
1
 10
1394856.77
 20
360627.19
 10
1394863.48
 20
360594.2
 10
1394948.44
 20
360606.78
 10
1394965.4
 20
360595.45
 10
1394971.43
 20
360544.58
 10
1394960.57
 20
360499.82
 10
1394957.04
 20
360485.29
 10
1394939.76
 20
360489.82
 10
1394808.23
 20
360524.36
 10
1394773.97
 20
360533.29
 10
1394769.58
 20
360534.26
 10
1394741.63
 20
360542.06
 10
1394759.37
 20
360600.53
 10
1394797.01
 20
360589.87
 10
1394806.12
 20
360620.78
 10
1394856.77
 20
360627.19
  0
LWPOLYLINE
  5
96
330
17
100
AcDbEntity
  8
0
100
AcDbPolyline
 90
8
 70
1
 10
1396672.79
 20
359901.76
 10
1396717.75
 20
359919.92
 10
1396735.6
 20
359916.48
 10
1396742.15
 20
359910.21
 10
1396742.28
 20
359904.89
 10
1396719.84
 20
359896.1
 10
1396678.4
 20
359888.22
 10
1396672.79
 20
359901.76
  0
LWPOLYLINE
  5
97
330
17
100
AcDbEntity
  8
0
100
AcDbPolyline
 90
7
 70
1
 10
1396776.9
 20
359909.1
 10
1396788.05
 20
359913.41
 10
1396793.46
 20
359907.4
 10
1396786.47
 20
359895.07
 10
1396776.76
 20
359894.43
 10
1396772.29
 20
359896.96
 10
1396776.9
 20
359909.1
  0
LWPOLYLINE
  5
98
330
17
100
AcDbEntity
  8
0
100
AcDbPolyline
 90
21
 70
1
 10
1397092.14
 20
359841.74
 10
1397104.35
 20
359849.21
 10
1397129.96
 20
359857.18
 10
1397139.69
 20
359847.46
 10
1397198.17
 20
359829.1
 10
1397198.32
 20
359813.39
 10
1397157.97
 20
359764.49
 10
1397149.19
 20
359761.87
 10
1397147.26
 20
359754.64
 10
1397133.94
 20
359759.01
 10
1397108.74
 20
359762.71
 10
1397108.01
 20
359770.15
 10
1397103.54
 20
359785.81
 10
1397107.37
 20
359803.07
 10
1397093.29
 20
359806.7
 10
1397095.86
 20
359809.63
 10
1397098.96
 20
359816.45
 10
1397100.65
 20
359825.85
 10
1397093.63
 20
359828.46
 10
1397088.2
 20
359832.35
 10
1397092.14
 20
359841.74
  0
LWPOLYLINE
  5
99
330
17
100
AcDbEntity
  8
0
100
AcDbPolyline
 90
8
 70
1
 10
1396091.12
 20
359812.5
 10
1396093.45
 20
359814.37
 10
1396095.74
 20
359815.14
 10
1396109.49
 20
359819.85
 10
1396112.34
 20
359821.55
 10
1396119.47
 20
359799.77
 10
1396098.42
 20
359794.01
 10
1396091.12
 20
359812.5
  0
LWPOLYLINE
  5
9A
330
17
100
AcDbEntity
  8
0
100
AcDbPolyline
 90
8
 70
1
 10
1396103.55
 20
359740.96
 10
1396107.92
 20
359742.63
 10
1396127.73
 20
359751.1
 10
1396134.55
 20
359730.73
 10
1396114.86
 20
359723.57
 10
1396109.8
 20
359721.89
 10
1396109.31
 20
359723.56
 10
1396103.55
 20
359740.96
  0
LWPOLYLINE
  5
9B
330
17
100
AcDbEntity
  8
0
100
AcDbPolyline
 90
7
 70
1
 10
1396112.34
 20
359821.55
 10
1396126.16
 20
359828.66
 10
1396132.42
 20
359815.67
 10
1396137.0
 20
359807.07
 10
1396129.78
 20
359803.66
 10
1396119.47
 20
359799.77
 10
1396112.34
 20
359821.55
  0
LWPOLYLINE
  5
9C
330
17
100
AcDbEntity
  8
0
100
AcDbPolyline
 90
5
 70
1
 10
1396154.42
 20
359842.46
 10
1396168.75
 20
359848.95
 10
1396177.4
 20
359829.65
 10
1396163.12
 20
359823.69
 10
1396154.42
 20
359842.46
  0
LWPOLYLINE
  5
9D
330
17
100
AcDbEntity
  8
0
100
AcDbPolyline
 90
11
 70
1
 10
1397145.55
 20
359453.57
 10
1397151.04
 20
359474.18
 10
1397160.21
 20
359471.37
 10
1397162.9
 20
359470.58
 10
1397167.93
 20
359469.09
 10
1397181.28
 20
359465.24
 10
1397184.67
 20
359464.33
 10
1397178.75
 20
359442.57
 10
1397162.17
 20
359446.83
 10
1397162.79
 20
359449.25
 10
1397145.55
 20
359453.57
  0
LWPOLYLINE
  5
9E
330
17
100
AcDbEntity
  8
0
100
AcDbPolyline
 90
6
 70
1
 10
1398615.2
 20
359315.83
 10
1398620.06
 20
359319.25
 10
1398633.28
 20
359320.38
 10
1398633.85
 20
359311.32
 10
1398615.68
 20
359310.2
 10
1398615.2
 20
359315.83
  0
LWPOLYLINE
  5
9F
330
17
100
AcDbEntity
  8
0
100
AcDbPolyline
 90
93
 70
1
 10
1397627.98
 20
359391.51
 10
1397657.3
 20
359384.01
 10
1397705.23
 20
359377.02
 10
1397872.93
 20
359375.91
 10
1397885.54
 20
359372.24
 10
1397961.73
 20
359372.71
 10
1397961.75
 20
359366.08
 10
1398039.84
 20
359364.61
 10
1398039.98
 20
359383.28
 10
1398040.02
 20
359388.44
 10
1398042.02
 20
359388.41
 10
1398042.23
 20
359405.91
 10
1398042.59
 20
359450.2
 10
1398052.23
 20
359450.37
 10
1398052.22
 20
359458.53
 10
1398052.19
 20
359483.46
 10
1398056.66
 20
359486.15
 10
1398056.85
 20
359490.13
 10
1398057.05
 20
359494.65
 10
1398057.45
 20
359503.49
 10
1398055.92
 20
359505.29
 10
1398056.26
 20
359508.07
 10
1398057.2
 20
359515.83
 10
1398063.1
 20
359530.77
 10
1398067.8
 20
359561.8
 10
1398109.91
 20
359562.35
 10
1398135.73
 20
359577.19
 10
1398151.73
 20
359592.13
 10
1398162.42
 20
359601.82
 10
1398170.9
 20
359610.25
 10
1398131.47
 20
359638.57
 10
1398166.57
 20
359692.53
 10
1398194.25
 20
359717.52
 10
1398218.7
 20
359736.15
 10
1398248.11
 20
359755.83
 10
1398263.49
 20
359766.86
 10
1398288.97
 20
359787.19
 10
1398299.59
 20
359791.0
 10
1398299.22
 20
359792.03
 10
1398286.36
 20
359822.61
 10
1398284.44
 20
359828.78
 10
1398285.82
 20
359846.31
 10
1398291.35
 20
359916.75
 10
1398285.57
 20
359978.17
 10
1398282.61
 20
360009.68
 10
1398308.36
 20
360039.41
 10
1398273.83
 20
360065.02
 10
1398262.0
 20
360071.69
 10
1398231.84
 20
360080.36
 10
1398180.28
 20
360088.3
 10
1398140.41
 20
360085.53
 10
1398110.51
 20
360078.76
 10
1398039.96
 20
360069.0
 10
1398025.07
 20
360067.17
 10
1398022.61
 20
360066.9
 10
1398014.44
 20
360066.04
 10
1397981.59
 20
360062.81
 10
1397981.61
 20
360064.09
 10
1397974.34
 20
360067.43
 10
1397967.28
 20
360068.21
 10
1397948.51
 20
360056.05
 10
1397893.84
 20
360035.84
 10
1397874.81
 20
360031.27
 10
1397842.6
 20
360027.69
 10
1397784.78
 20
360024.12
 10
1397758.57
 20
360022.5
 10
1397755.75
 20
360022.36
 10
1397703.29
 20
360013.4
 10
1397682.98
 20
360009.44
 10
1397667.76
 20
360004.98
 10
1397631.61
 20
359993.58
 10
1397640.82
 20
359947.9
 10
1397634.08
 20
359925.36
 10
1397647.8
 20
359867.01
 10
1397679.53
 20
359777.11
 10
1397649.43
 20
359725.33
 10
1397642.27
 20
359715.88
 10
1397642.68
 20
359700.0
 10
1397634.54
 20
359660.39
 10
1397633.04
 20
359649.65
 10
1397620.41
 20
359641.17
 10
1397622.17
 20
359626.45
 10
1397612.05
 20
359579.73
 10
1397618.98
 20
359578.03
 10
1397616.55
 20
359567.49
 10
1397603.61
 20
359511.48
 10
1397590.17
 20
359453.24
 10
1397586.37
 20
359436.77
 10
1397627.2
 20
359425.58
 10
1397634.86
 20
359423.49
 10
1397636.65
 20
359423.0
 10
1397629.28
 20
359396.39
 10
1397627.98
 20
359391.51
  0
LWPOLYLINE
  5
A0
330
17
100
AcDbEntity
  8
0
100
AcDbPolyline
 90
6
 70
1
 10
1397790.98
 20
359497.38
 10
1397802.6
 20
359497.4
 10
1397805.55
 20
359493.01
 10
1397805.76
 20
359476.29
 10
1397791.61
 20
359476.07
 10
1397790.98
 20
359497.38
  0
LWPOLYLINE
  5
A1
330
17
100
AcDbEntity
  8
0
100
AcDbPolyline
 90
7
 70
1
 10
1397942.07
 20
359443.26
 10
1397958.68
 20
359442.34
 10
1397957.15
 20
359421.65
 10
1397955.34
 20
359421.62
 10
1397955.4
 20
359417.27
 10
1397940.96
 20
359417.84
 10
1397942.07
 20
359443.26
  0
LWPOLYLINE
  5
A2
330
17
100
AcDbEntity
  8
0
100
AcDbPolyline
 90
10
 70
1
 10
1397999.93
 20
359494.57
 10
1397999.94
 20
359497.09
 10
1398000.01
 20
359519.37
 10
1397972.83
 20
359519.73
 10
1397972.02
 20
359519.72
 10
1397971.76
 20
359498.44
 10
1397986.01
 20
359498.19
 10
1397986.06
 20
359495.13
 10
1397998.53
 20
359494.54
 10
1397999.93
 20
359494.57
  0
LWPOLYLINE
  5
A3
330
17
100
AcDbEntity
  8
0
100
AcDbPolyline
 90
11
 70
1
 10
1398001.23
 20
359449.5
 10
1398001.17
 20
359455.56
 10
1398000.35
 20
359455.58
 10
1398000.49
 20
359463.94
 10
1397999.83
 20
359463.95
 10
1397999.52
 20
359471.51
 10
1397971.76
 20
359471.06
 10
1397972.08
 20
359450.55
 10
1397992.32
 20
359450.73
 10
1397992.33
 20
359449.4
 10
1398001.23
 20
359449.5
  0
LWPOLYLINE
  5
A4
330
17
100
AcDbEntity
  8
0
100
AcDbPolyline
 90
14
 70
1
 10
1397704.14
 20
359423.11
 10
1397704.25
 20
359426.22
 10
1397703.96
 20
359438.02
 10
1397703.78
 20
359445.26
 10
1397703.29
 20
359457.67
 10
1397703.25
 20
359463.09
 10
1397690.83
 20
359463.01
 10
1397690.75
 20
359474.91
 10
1397668.08
 20
359475.02
 10
1397657.67
 20
359430.99
 10
1397660.64
 20
359430.29
 10
1397689.68
 20
359430.22
 10
1397689.72
 20
359423.03
 10
1397704.14
 20
359423.11
  0
LWPOLYLINE
  5
A5
330
17
100
AcDbEntity
  8
0
100
AcDbPolyline
 90
38
 70
1
 10
1397963.56
 20
359409.38
 10
1397964.06
 20
359409.34
 10
1397970.76
 20
359409.11
 10
1397982.78
 20
359409.05
 10
1398010.44
 20
359408.74
 10
1398013.26
 20
359409.89
 10
1398017.27
 20
359419.84
 10
1398012.16
 20
359419.76
 10
1398011.69
 20
359430.43
 10
1397992.92
 20
359430.14
 10
1397992.85
 20
359434.51
 10
1397992.8
 20
359449.41
 10
1398001.23
 20
359449.5
 10
1398001.17
 20
359455.56
 10
1398000.35
 20
359455.58
 10
1398000.49
 20
359463.94
 10
1397999.83
 20
359463.95
 10
1397999.52
 20
359471.51
 10
1397998.53
 20
359494.54
 10
1397999.93
 20
359494.57
 10
1397999.94
 20
359497.09
 10
1398000.01
 20
359519.37
 10
1398005.02
 20
359519.3
 10
1398005.18
 20
359534.18
 10
1398005.21
 20
359536.98
 10
1398005.17
 20
359539.63
 10
1397972.83
 20
359539.14
 10
1397970.81
 20
359539.11
 10
1397971.11
 20
359519.74
 10
1397972.02
 20
359519.72
 10
1397971.76
 20
359498.44
 10
1397968.54
 20
359498.5
 10
1397968.81
 20
359471.01
 10
1397971.76
 20
359471.06
 10
1397972.08
 20
359450.55
 10
1397966.28
 20
359450.53
 10
1397965.09
 20
359429.72
 10
1397963.56
 20
359409.38
  0
LWPOLYLINE
  5
A6
330
17
100
AcDbEntity
  8
0
100
AcDbPolyline
 90
13
 70
1
 10
1397954.7
 20
359381.3
 10
1397956.82
 20
359417.21
 10
1397958.68
 20
359442.34
 10
1397942.07
 20
359443.26
 10
1397941.01
 20
359419.09
 10
1397911.92
 20
359418.73
 10
1397912.4
 20
359436.25
 10
1397885.72
 20
359436.88
 10
1397885.66
 20
359418.25
 10
1397908.26
 20
359418.66
 10
1397908.94
 20
359381.59
 10
1397952.62
 20
359381.28
 10
1397954.7
 20
359381.3
  0
LWPOLYLINE
  5
A7
330
17
100
AcDbEntity
  8
0
100
AcDbPolyline
 90
12
 70
1
 10
1397822.28
 20
359446.76
 10
1397822.22
 20
359455.83
 10
1397828.51
 20
359455.93
 10
1397827.95
 20
359476.63
 10
1397808.66
 20
359476.34
 10
1397805.76
 20
359476.29
 10
1397805.55
 20
359493.01
 10
1397802.6
 20
359497.4
 10
1397790.98
 20
359497.38
 10
1397791.61
 20
359476.07
 10
1397791.72
 20
359446.6
 10
1397822.28
 20
359446.76
  0
LWPOLYLINE
  5
A8
330
17
100
AcDbEntity
  8
0
100
AcDbPolyline
 90
6
 70
1
 10
1397830.29
 20
359604.25
 10
1397829.8
 20
359638.62
 10
1397830.2
 20
359649.28
 10
1397796.98
 20
359650.42
 10
1397795.3
 20
359604.29
 10
1397830.29
 20
359604.25
  0
LWPOLYLINE
  5
A9
330
17
100
AcDbEntity
  8
0
100
AcDbPolyline
 90
11
 70
1
 10
1397817.89
 20
359550.05
 10
1397818.59
 20
359561.09
 10
1397818.84
 20
359565.09
 10
1397819.84
 20
359564.99
 10
1397820.05
 20
359567.99
 10
1397819.03
 20
359568.05
 10
1397819.48
 20
359575.22
 10
1397820.6
 20
359592.98
 10
1397794.3
 20
359593.22
 10
1397793.79
 20
359551.72
 10
1397817.89
 20
359550.05
  0
LWPOLYLINE
  5
AA
330
17
100
AcDbEntity
  8
0
100
AcDbPolyline
 90
8
 70
1
 10
1397917.29
 20
359522.01
 10
1397918.55
 20
359539.2
 10
1397921.16
 20
359539.15
 10
1397921.86
 20
359553.69
 10
1397908.5
 20
359554.97
 10
1397882.5
 20
359555.61
 10
1397882.33
 20
359524.55
 10
1397917.29
 20
359522.01
  0
LWPOLYLINE
  5
AB
330
17
100
AcDbEntity
  8
0
100
AcDbPolyline
 90
6
 70
1
 10
1397864.07
 20
359699.78
 10
1397863.95
 20
359718.09
 10
1397829.33
 20
359717.24
 10
1397829.76
 20
359699.71
 10
1397844.5
 20
359699.68
 10
1397864.07
 20
359699.78
  0
LWPOLYLINE
  5
AC
330
17
100
AcDbEntity
  8
0
100
AcDbPolyline
 90
9
 70
1
 10
1397919.0
 20
359683.26
 10
1397919.07
 20
359703.58
 10
1397896.26
 20
359705.45
 10
1397896.4
 20
359707.61
 10
1397880.1
 20
359707.56
 10
1397879.71
 20
359685.0
 10
1397903.14
 20
359685.74
 10
1397907.32
 20
359684.44
 10
1397919.0
 20
359683.26
  0
LWPOLYLINE
  5
AD
330
17
100
AcDbEntity
  8
0
100
AcDbPolyline
 90
17
 70
1
 10
1397866.52
 20
359729.98
 10
1397863.15
 20
359772.95
 10
1397860.33
 20
359772.9
 10
1397853.71
 20
359772.66
 10
1397836.53
 20
359773.55
 10
1397836.64
 20
359761.95
 10
1397836.42
 20
359758.14
 10
1397836.08
 20
359752.1
 10
1397836.0
 20
359750.66
 10
1397836.15
 20
359736.25
 10
1397837.64
 20
359735.81
 10
1397840.41
 20
359731.9
 10
1397849.23
 20
359730.08
 10
1397854.34
 20
359730.17
 10
1397861.27
 20
359730.07
 10
1397864.86
 20
359730.02
 10
1397866.52
 20
359729.98
  0
LWPOLYLINE
  5
AE
330
17
100
AcDbEntity
  8
0
100
AcDbPolyline
 90
32
 70
1
 10
1397924.64
 20
359774.43
 10
1397923.87
 20
359790.82
 10
1397921.96
 20
359801.65
 10
1397913.53
 20
359812.97
 10
1397908.68
 20
359815.12
 10
1397905.3
 20
359815.42
 10
1397904.55
 20
359819.0
 10
1397895.3
 20
359818.7
 10
1397885.65
 20
359819.18
 10
1397885.9
 20
359825.66
 10
1397886.82
 20
359828.85
 10
1397886.66
 20
359830.28
 10
1397887.14
 20
359850.68
 10
1397872.13
 20
359852.68
 10
1397852.08
 20
359841.82
 10
1397861.44
 20
359825.2
 10
1397861.75
 20
359822.88
 10
1397859.59
 20
359822.9
 10
1397853.29
 20
359821.21
 10
1397853.76
 20
359819.26
 10
1397852.2
 20
359816.62
 10
1397857.35
 20
359806.86
 10
1397854.32
 20
359804.85
 10
1397858.97
 20
359797.83
 10
1397865.22
 20
359801.98
 10
1397873.33
 20
359790.16
 10
1397874.77
 20
359787.7
 10
1397880.98
 20
359779.08
 10
1397886.68
 20
359774.85
 10
1397899.78
 20
359772.19
 10
1397902.08
 20
359771.94
 10
1397924.64
 20
359774.43
  0
LWPOLYLINE
  5
AF
330
17
100
AcDbEntity
  8
0
100
AcDbPolyline
 90
8
 70
1
 10
1397664.21
 20
359619.72
 10
1397670.14
 20
359642.56
 10
1397689.62
 20
359637.69
 10
1397691.45
 20
359637.22
 10
1397684.92
 20
359613.33
 10
1397683.17
 20
359613.73
 10
1397671.96
 20
359617.9
 10
1397664.21
 20
359619.72
  0
LWPOLYLINE
  5
B0
330
17
100
AcDbEntity
  8
0
100
AcDbPolyline
 90
7
 70
1
 10
1397670.14
 20
359642.56
 10
1397678.42
 20
359672.37
 10
1397679.21
 20
359674.62
 10
1397699.96
 20
359668.09
 10
1397691.45
 20
359637.22
 10
1397689.62
 20
359637.69
 10
1397670.14
 20
359642.56
  0
LWPOLYLINE
  5
B1
330
17
100
AcDbEntity
  8
0
100
AcDbPolyline
 90
7
 70
1
 10
1397649.9
 20
359650.81
 10
1397656.4
 20
359670.72
 10
1397666.59
 20
359674.74
 10
1397679.21
 20
359674.62
 10
1397678.42
 20
359672.37
 10
1397670.63
 20
359644.32
 10
1397649.9
 20
359650.81
  0
LWPOLYLINE
  5
B2
330
17
100
AcDbEntity
  8
0
100
AcDbPolyline
 90
11
 70
1
 10
1397630.17
 20
359623.26
 10
1397634.2
 20
359638.26
 10
1397641.16
 20
359636.38
 10
1397649.9
 20
359650.81
 10
1397670.63
 20
359644.32
 10
1397670.14
 20
359642.56
 10
1397664.21
 20
359619.72
 10
1397642.37
 20
359624.86
 10
1397640.83
 20
359620.08
 10
1397633.71
 20
359622.22
 10
1397630.17
 20
359623.26
  0
LWPOLYLINE
  5
B3
330
17
100
AcDbEntity
  8
0
100
AcDbPolyline
 90
5
 70
1
 10
1395806.84
 20
359616.35
 10
1395852.67
 20
359607.0
 10
1395843.78
 20
359572.36
 10
1395798.44
 20
359583.23
 10
1395806.84
 20
359616.35
  0
LWPOLYLINE
  5
B4
330
17
100
AcDbEntity
  8
0
100
AcDbPolyline
 90
7
 70
1
 10
1395828.08
 20
359639.33
 10
1395856.17
 20
359633.57
 10
1395851.37
 20
359607.31
 10
1395830.53
 20
359611.54
 10
1395833.33
 20
359624.92
 10
1395825.62
 20
359626.97
 10
1395828.08
 20
359639.33
  0
LWPOLYLINE
  5
B5
330
17
100
AcDbEntity
  8
0
100
AcDbPolyline
 90
7
 70
1
 10
1394850.35
 20
359501.18
 10
1394862.67
 20
359549.19
 10
1394829.37
 20
359558.85
 10
1394826.36
 20
359547.45
 10
1394832.85
 20
359545.65
 10
1394823.52
 20
359508.69
 10
1394850.35
 20
359501.18
  0
LWPOLYLINE
  5
B6
330
17
100
AcDbEntity
  8
0
100
AcDbPolyline
 90
13
 70
1
 10
1399079.13
 20
359582.52
 10
1399084.64
 20
359583.94
 10
1399120.81
 20
359581.49
 10
1399121.44
 20
359572.89
 10
1399122.05
 20
359564.08
 10
1399120.7
 20
359563.97
 10
1399121.06
 20
359558.63
 10
1399120.7
 20
359551.89
 10
1399121.52
 20
359551.25
 10
1399119.18
 20
359551.05
 10
1399086.36
 20
359548.36
 10
1399080.5
 20
359548.6
 10
1399079.13
 20
359582.52
  0
LWPOLYLINE
  5
B7
330
17
100
AcDbEntity
  8
0
100
AcDbPolyline
 90
6
 70
1
 10
1395097.02
 20
359863.87
 10
1395112.02
 20
359926.4
 10
1395125.45
 20
359922.89
 10
1395136.55
 20
359919.85
 10
1395120.55
 20
359857.41
 10
1395097.02
 20
359863.87
  0
LWPOLYLINE
  5
B8
330
17
100
AcDbEntity
  8
0
100
AcDbPolyline
 90
11
 70
1
 10
1395226.72
 20
360645.24
 10
1395252.72
 20
360641.85
 10
1395254.91
 20
360636.87
 10
1395264.89
 20
360636.18
 10
1395264.36
 20
360631.26
 10
1395263.28
 20
360625.71
 10
1395242.54
 20
360547.44
 10
1395216.87
 20
360553.72
 10
1395227.85
 20
360597.4
 10
1395218.01
 20
360615.66
 10
1395226.72
 20
360645.24
  0
LWPOLYLINE
  5
B9
330
17
100
AcDbEntity
  8
0
100
AcDbPolyline
 90
13
 70
1
 10
1395209.84
 20
360728.34
 10
1395276.32
 20
360713.11
 10
1395273.48
 20
360702.43
 10
1395271.8
 20
360698.42
 10
1395269.47
 20
360694.74
 10
1395266.56
 20
360691.52
 10
1395263.13
 20
360688.83
 10
1395259.31
 20
360686.77
 10
1395255.18
 20
360685.38
 10
1395250.89
 20
360684.71
 10
1395246.93
 20
360684.82
 10
1395202.14
 20
360695.25
 10
1395209.84
 20
360728.34
  0
LWPOLYLINE
  5
BA
330
17
100
AcDbEntity
  8
0
100
AcDbPolyline
 90
9
 70
1
 10
1395603.86
 20
359432.44
 10
1395618.13
 20
359429.83
 10
1395618.91
 20
359432.97
 10
1395632.04
 20
359437.12
 10
1395654.26
 20
359433.35
 10
1395644.29
 20
359395.87
 10
1395636.71
 20
359390.35
 10
1395597.23
 20
359399.93
 10
1395603.86
 20
359432.44
  0
LWPOLYLINE
  5
BB
330
17
100
AcDbEntity
  8
0
100
AcDbPolyline
 90
10
 70
1
 10
1395609.26
 20
359463.61
 10
1395636.26
 20
359458.97
 10
1395642.73
 20
359450.67
 10
1395658.11
 20
359447.67
 10
1395654.26
 20
359433.35
 10
1395632.04
 20
359437.12
 10
1395618.92
 20
359432.89
 10
1395618.19
 20
359429.73
 10
1395602.5
 20
359432.75
 10
1395609.26
 20
359463.61
  0
LWPOLYLINE
  5
BC
330
17
100
AcDbEntity
  8
0
100
AcDbPolyline
 90
8
 70
1
 10
1395618.38
 20
359505.43
 10
1395670.92
 20
359495.46
 10
1395658.05
 20
359447.67
 10
1395642.73
 20
359450.67
 10
1395636.26
 20
359458.97
 10
1395609.18
 20
359463.67
 10
1395618.41
 20
359505.54
 10
1395618.38
 20
359505.43
  0
LWPOLYLINE
  5
BD
330
17
100
AcDbEntity
  8
0
100
AcDbPolyline
 90
5
 70
1
 10
1395619.74
 20
359525.53
 10
1395675.58
 20
359515.58
 10
1395669.85
 20
359494.5
 10
1395615.36
 20
359504.78
 10
1395619.74
 20
359525.53
  0
LWPOLYLINE
  5
BE
330
17
100
AcDbEntity
  8
0
100
AcDbPolyline
 90
6
 70
1
 10
1394570.52
 20
359897.9
 10
1394591.91
 20
359892.89
 10
1394615.91
 20
359886.86
 10
1394611.15
 20
359864.3
 10
1394565.09
 20
359875.68
 10
1394570.52
 20
359897.9
  0
LWPOLYLINE
  5
BF
330
17
100
AcDbEntity
  8
0
100
AcDbPolyline
 90
16
 70
1
 10
1394647.05
 20
360215.59
 10
1394654.72
 20
360212.9
 10
1394659.49
 20
360211.24
 10
1394671.55
 20
360207.02
 10
1394670.36
 20
360203.62
 10
1394674.72
 20
360202.05
 10
1394674.24
 20
360200.52
 10
1394673.38
 20
360200.78
 10
1394669.43
 20
360190.42
 10
1394658.6
 20
360154.89
 10
1394661.98
 20
360153.85
 10
1394659.73
 20
360144.63
 10
1394650.62
 20
360147.19
 10
1394634.37
 20
360151.33
 10
1394630.61
 20
360152.29
 10
1394647.05
 20
360215.59
  0
LWPOLYLINE
  5
C0
330
17
100
AcDbEntity
  8
0
100
AcDbPolyline
 90
20
 70
1
 10
1394691.56
 20
360076.7
 10
1394699.1
 20
360104.99
 10
1394697.64
 20
360105.4
 10
1394699.45
 20
360112.43
 10
1394702.34
 20
360111.69
 10
1394706.92
 20
360129.18
 10
1394708.95
 20
360136.4
 10
1394686.65
 20
360143.62
 10
1394685.45
 20
360138.89
 10
1394685.02
 20
360137.18
 10
1394683.29
 20
360130.38
 10
1394681.98
 20
360124.91
 10
1394680.66
 20
360119.17
 10
1394677.96
 20
360106.78
 10
1394677.02
 20
360102.35
 10
1394675.96
 20
360097.93
 10
1394674.35
 20
360091.24
 10
1394672.99
 20
360085.87
 10
1394671.84
 20
360082.02
 10
1394691.56
 20
360076.7
  0
LWPOLYLINE
  5
C1
330
17
100
AcDbEntity
  8
0
100
AcDbPolyline
 90
6
 70
1
 10
1394585.82
 20
360434.93
 10
1394607.66
 20
360428.93
 10
1394602.02
 20
360407.81
 10
1394583.24
 20
360412.24
 10
1394580.87
 20
360415.6
 10
1394585.82
 20
360434.93
  0
LWPOLYLINE
  5
C2
330
17
100
AcDbEntity
  8
0
100
AcDbPolyline
 90
16
 70
1
 10
1394597.58
 20
360441.12
 10
1394599.55
 20
360448.42
 10
1394603.4
 20
360461.96
 10
1394605.19
 20
360463.15
 10
1394609.05
 20
360477.19
 10
1394613.5
 20
360493.57
 10
1394613.93
 20
360495.38
 10
1394647.11
 20
360484.22
 10
1394646.8
 20
360483.07
 10
1394645.12
 20
360476.89
 10
1394639.55
 20
360454.42
 10
1394654.79
 20
360450.13
 10
1394650.71
 20
360433.33
 10
1394650.66
 20
360433.1
 10
1394649.47
 20
360428.14
 10
1394597.58
 20
360441.12
  0
LWPOLYLINE
  5
C3
330
17
100
AcDbEntity
  8
0
100
AcDbPolyline
 90
13
 70
1
 10
1394639.55
 20
360454.42
 10
1394645.12
 20
360476.89
 10
1394646.8
 20
360483.07
 10
1394647.11
 20
360484.22
 10
1394647.14
 20
360484.34
 10
1394656.45
 20
360481.25
 10
1394655.47
 20
360477.3
 10
1394653.21
 20
360468.66
 10
1394656.63
 20
360467.77
 10
1394656.29
 20
360466.22
 10
1394658.23
 20
360465.8
 10
1394654.79
 20
360450.13
 10
1394639.55
 20
360454.42
  0
LWPOLYLINE
  5
C4
330
17
100
AcDbEntity
  8
0
100
AcDbPolyline
 90
26
 70
1
 10
1394819.55
 20
360311.97
 10
1394820.45
 20
360315.4
 10
1394827.69
 20
360342.89
 10
1394829.59
 20
360342.42
 10
1394831.2
 20
360348.89
 10
1394829.27
 20
360349.36
 10
1394829.44
 20
360350.11
 10
1394831.5
 20
360358.28
 10
1394832.96
 20
360364.17
 10
1394833.68
 20
360367.12
 10
1394862.54
 20
360359.47
 10
1394857.9
 20
360340.61
 10
1394849.21
 20
360304.93
 10
1394846.47
 20
360305.59
 10
1394837.96
 20
360307.73
 10
1394837.81
 20
360307.79
 10
1394838.23
 20
360309.52
 10
1394835.92
 20
360310.09
 10
1394835.48
 20
360308.35
 10
1394833.59
 20
360308.82
 10
1394831.58
 20
360309.33
 10
1394829.5
 20
360309.85
 10
1394829.4
 20
360309.45
 10
1394826.78
 20
360310.09
 10
1394820.76
 20
360311.67
 10
1394819.55
 20
360311.97
  0
LWPOLYLINE
  5
C5
330
17
100
AcDbEntity
  8
0
100
AcDbPolyline
 90
5
 70
1
 10
1394769.96
 20
360311.36
 10
1394758.5
 20
360267.82
 10
1394793.48
 20
360258.44
 10
1394803.72
 20
360302.77
 10
1394769.96
 20
360311.36
  0
LWPOLYLINE
  5
C6
330
17
100
AcDbEntity
  8
0
100
AcDbPolyline
 90
26
 70
1
 10
1394819.55
 20
360311.97
 10
1394820.45
 20
360315.4
 10
1394827.69
 20
360342.89
 10
1394829.59
 20
360342.42
 10
1394831.2
 20
360348.89
 10
1394829.27
 20
360349.36
 10
1394829.44
 20
360350.11
 10
1394831.5
 20
360358.28
 10
1394832.96
 20
360364.17
 10
1394833.68
 20
360367.12
 10
1394862.54
 20
360359.47
 10
1394857.9
 20
360340.61
 10
1394849.21
 20
360304.93
 10
1394846.47
 20
360305.59
 10
1394837.96
 20
360307.73
 10
1394837.81
 20
360307.79
 10
1394838.23
 20
360309.52
 10
1394835.92
 20
360310.09
 10
1394835.48
 20
360308.35
 10
1394833.59
 20
360308.82
 10
1394831.58
 20
360309.33
 10
1394829.5
 20
360309.85
 10
1394829.4
 20
360309.45
 10
1394826.78
 20
360310.09
 10
1394820.76
 20
360311.67
 10
1394819.55
 20
360311.97
  0
LWPOLYLINE
  5
C7
330
17
100
AcDbEntity
  8
0
100
AcDbPolyline
 90
7
 70
1
 10
1395403.37
 20
359677.72
 10
1395404.75
 20
359677.24
 10
1395403.27
 20
359671.9
 10
1395458.4
 20
359656.81
 10
1395467.17
 20
359689.66
 10
1395412.03
 20
359702.8
 10
1395403.37
 20
359677.72
  0
LWPOLYLINE
  5
C8
330
17
100
AcDbEntity
  8
0
100
AcDbPolyline
 90
5
 70
1
 10
1395100.79
 20
360475.24
 10
1395123.0
 20
360469.07
 10
1395117.28
 20
360444.23
 10
1395095.35
 20
360449.69
 10
1395100.79
 20
360475.24
  0
LWPOLYLINE
  5
C9
330
17
100
AcDbEntity
  8
0
100
AcDbPolyline
 90
5
 70
1
 10
1395033.91
 20
360491.72
 10
1395055.02
 20
360485.72
 10
1395048.52
 20
360461.95
 10
1395026.93
 20
360467.89
 10
1395033.91
 20
360491.72
  0
LWPOLYLINE
  5
CA
330
17
100
AcDbEntity
  8
0
100
AcDbPolyline
 90
7
 70
1
 10
1395054.82
 20
360485.01
 10
1395065.13
 20
360482.06
 10
1395066.6
 20
360487.22
 10
1395079.13
 20
360483.56
 10
1395071.31
 20
360455.85
 10
1395048.52
 20
360461.95
 10
1395054.82
 20
360485.01
  0
LWPOLYLINE
  5
CB
330
17
100
AcDbEntity
  8
0
100
AcDbPolyline
 90
5
 70
1
 10
1395153.72
 20
360492.44
 10
1395177.2
 20
360486.74
 10
1395163.16
 20
360433.29
 10
1395139.85
 20
360439.8
 10
1395153.72
 20
360492.44
  0
LWPOLYLINE
  5
CC
330
17
100
AcDbEntity
  8
0
100
AcDbPolyline
 90
7
 70
1
 10
1395170.42
 20
360460.94
 10
1395192.3
 20
360455.18
 10
1395189.86
 20
360446.19
 10
1395190.93
 20
360445.99
 10
1395186.06
 20
360426.9
 10
1395163.16
 20
360433.29
 10
1395170.42
 20
360460.94
  0
LWPOLYLINE
  5
CD
330
17
100
AcDbEntity
  8
0
100
AcDbPolyline
 90
12
 70
1
 10
1395262.09
 20
360423.67
 10
1395273.12
 20
360420.69
 10
1395268.69
 20
360404.21
 10
1395265.64
 20
360405.07
 10
1395246.3
 20
360410.55
 10
1395245.7
 20
360410.71
 10
1395246.23
 20
360412.69
 10
1395246.73
 20
360412.6
 10
1395246.91
 20
360413.34
 10
1395248.8
 20
360421.07
 10
1395250.19
 20
360426.74
 10
1395262.09
 20
360423.67
  0
LWPOLYLINE
  5
CE
330
17
100
AcDbEntity
  8
0
100
AcDbPolyline
 90
9
 70
1
 10
1395293.86
 20
360397.83
 10
1395283.32
 20
360400.05
 10
1395268.69
 20
360404.21
 10
1395273.12
 20
360420.69
 10
1395273.43
 20
360421.93
 10
1395287.89
 20
360418.19
 10
1395287.48
 20
360416.79
 10
1395298.08
 20
360413.66
 10
1395293.86
 20
360397.83
  0
LWPOLYLINE
  5
CF
330
17
100
AcDbEntity
  8
0
100
AcDbPolyline
 90
11
 70
1
 10
1395852.34
 20
359605.65
 10
1395863.0
 20
359603.86
 10
1395885.04
 20
359603.14
 10
1395913.52
 20
359603.29
 10
1395915.21
 20
359595.76
 10
1395916.48
 20
359591.83
 10
1395917.65
 20
359574.4
 10
1395889.42
 20
359577.97
 10
1395849.17
 20
359581.38
 10
1395846.25
 20
359581.99
 10
1395852.34
 20
359605.65
  0
LWPOLYLINE
  5
D0
330
17
100
AcDbEntity
  8
0
100
AcDbPolyline
 90
11
 70
1
 10
1396128.67
 20
359685.17
 10
1396141.88
 20
359691.13
 10
1396153.56
 20
359699.08
 10
1396170.32
 20
359704.8
 10
1396172.58
 20
359697.41
 10
1396172.35
 20
359697.32
 10
1396178.44
 20
359679.87
 10
1396139.26
 20
359666.4
 10
1396133.93
 20
359681.5
 10
1396130.42
 20
359680.26
 10
1396128.67
 20
359685.17
  0
LWPOLYLINE
  5
D1
330
17
100
AcDbEntity
  8
0
100
AcDbPolyline
 90
22
 70
1
 10
1394383.34
 20
359795.51
 10
1394397.78
 20
359811.02
 10
1394414.58
 20
359830.83
 10
1394407.83
 20
359836.78
 10
1394412.78
 20
359842.16
 10
1394433.96
 20
359848.63
 10
1394434.31
 20
359846.97
 10
1394462.89
 20
359853.43
 10
1394457.12
 20
359834.06
 10
1394461.45
 20
359823.72
 10
1394470.11
 20
359793.34
 10
1394472.12
 20
359762.08
 10
1394471.7
 20
359747.93
 10
1394450.48
 20
359732.05
 10
1394444.47
 20
359739.69
 10
1394440.41
 20
359742.03
 10
1394431.66
 20
359751.08
 10
1394427.82
 20
359758.32
 10
1394423.46
 20
359770.12
 10
1394422.23
 20
359775.89
 10
1394398.91
 20
359770.54
 10
1394383.34
 20
359795.51
  0
LWPOLYLINE
  5
D2
330
17
100
AcDbEntity
  8
0
100
AcDbPolyline
 90
5
 70
1
 10
1394158.83
 20
359387.97
 10
1394163.01
 20
359387.77
 10
1394162.31
 20
359381.92
 10
1394158.16
 20
359382.39
 10
1394158.83
 20
359387.97
  0
LWPOLYLINE
  5
D3
330
17
100
AcDbEntity
  8
0
100
AcDbPolyline
 90
5
 70
1
 10
1394846.8
 20
359302.32
 10
1394902.43
 20
359279.26
 10
1394836.28
 20
359122.26
 10
1394781.16
 20
359145.5
 10
1394846.8
 20
359302.32
  0
LWPOLYLINE
  5
D4
330
17
100
AcDbEntity
  8
0
100
AcDbPolyline
 90
25
 70
1
 10
1397006.36
 20
359751.48
 10
1397020.68
 20
359746.62
 10
1397022.62
 20
359753.37
 10
1397035.41
 20
359749.45
 10
1397035.63
 20
359748.06
 10
1397044.61
 20
359744.4
 10
1397046.58
 20
359743.07
 10
1397047.91
 20
359741.63
 10
1397048.46
 20
359740.05
 10
1397048.74
 20
359737.42
 10
1397055.82
 20
359735.08
 10
1397056.46
 20
359736.81
 10
1397059.46
 20
359735.83
 10
1397057.71
 20
359730.48
 10
1397050.78
 20
359732.75
 10
1397050.42
 20
359731.56
 10
1397048.55
 20
359726.54
 10
1397039.35
 20
359729.13
 10
1397039.59
 20
359729.95
 10
1397028.01
 20
359733.29
 10
1397025.91
 20
359726.62
 10
1397009.45
 20
359732.04
 10
1397010.76
 20
359737.42
 10
1397001.81
 20
359740.35
 10
1397006.36
 20
359751.48
  0
LWPOLYLINE
  5
D5
330
17
100
AcDbEntity
  8
0
100
AcDbPolyline
 90
5
 70
1
 10
1397009.45
 20
359732.04
 10
1397025.91
 20
359726.62
 10
1397019.32
 20
359707.05
 10
1397002.99
 20
359712.44
 10
1397009.45
 20
359732.04
  0
LWPOLYLINE
  5
D6
330
17
100
AcDbEntity
  8
0
100
AcDbPolyline
 90
11
 70
1
 10
1397028.01
 20
359733.29
 10
1397039.59
 20
359729.95
 10
1397039.35
 20
359729.13
 10
1397048.55
 20
359726.54
 10
1397050.42
 20
359731.56
 10
1397055.65
 20
359729.83
 10
1397040.88
 20
359699.93
 10
1397019.32
 20
359707.05
 10
1397023.04
 20
359718.08
 10
1397025.91
 20
359726.62
 10
1397028.01
 20
359733.29
  0
LWPOLYLINE
  5
D7
330
17
100
AcDbEntity
  8
0
100
AcDbPolyline
 90
17
 70
1
 10
1397649.56
 20
359544.67
 10
1397649.4
 20
359545.03
 10
1397647.98
 20
359548.11
 10
1397647.35
 20
359547.82
 10
1397641.76
 20
359561.64
 10
1397622.46
 20
359566.42
 10
1397621.03
 20
359559.03
 10
1397618.71
 20
359547.17
 10
1397617.7
 20
359540.75
 10
1397621.65
 20
359531.6
 10
1397621.91
 20
359531.28
 10
1397622.23
 20
359531.07
 10
1397622.51
 20
359530.94
 10
1397623.29
 20
359530.84
 10
1397630.93
 20
359533.34
 10
1397641.83
 20
359539.1
 10
1397649.56
 20
359544.67
  0
LWPOLYLINE
  5
D8
330
17
100
AcDbEntity
  8
0
100
AcDbPolyline
 90
16
 70
1
 10
1394741.5
 20
360001.09
 10
1394745.44
 20
360016.55
 10
1394747.2
 20
360016.06
 10
1394749.13
 20
360023.61
 10
1394748.53
 20
360023.79
 10
1394752.57
 20
360039.95
 10
1394753.24
 20
360042.54
 10
1394777.66
 20
360036.38
 10
1394777.12
 20
360034.05
 10
1394776.45
 20
360031.3
 10
1394774.35
 20
360022.6
 10
1394773.96
 20
360020.96
 10
1394769.65
 20
360003.7
 10
1394767.48
 20
359994.65
 10
1394757.16
 20
359997.11
 10
1394741.5
 20
360001.09
  0
LWPOLYLINE
  5
D9
330
17
100
AcDbEntity
  8
0
100
AcDbPolyline
 90
8
 70
1
 10
1394565.09
 20
359875.68
 10
1394581.66
 20
359871.59
 10
1394611.15
 20
359864.3
 10
1394603.83
 20
359834.19
 10
1394581.59
 20
359839.78
 10
1394581.46
 20
359839.26
 10
1394557.59
 20
359845.45
 10
1394565.09
 20
359875.68
  0
LWPOLYLINE
  5
DA
330
17
100
AcDbEntity
  8
0
100
AcDbPolyline
 90
10
 70
1
 10
1394452.01
 20
359828.01
 10
1394457.06
 20
359847.64
 10
1394457.11
 20
359847.86
 10
1394457.69
 20
359850.06
 10
1394489.36
 20
359842.54
 10
1394488.97
 20
359840.77
 10
1394488.84
 20
359840.26
 10
1394483.72
 20
359819.28
 10
1394466.36
 20
359824.33
 10
1394452.01
 20
359828.01
  0
LWPOLYLINE
  5
DB
330
17
100
AcDbEntity
  8
0
100
AcDbPolyline
 90
11
 70
1
 10
1394483.72
 20
359819.28
 10
1394488.84
 20
359840.26
 10
1394488.97
 20
359840.77
 10
1394489.36
 20
359842.54
 10
1394506.49
 20
359838.45
 10
1394505.99
 20
359836.38
 10
1394502.49
 20
359821.76
 10
1394502.3
 20
359820.95
 10
1394500.88
 20
359815.05
 10
1394492.78
 20
359816.99
 10
1394483.72
 20
359819.28
  0
LWPOLYLINE
  5
DC
330
17
100
AcDbEntity
  8
0
100
AcDbPolyline
 90
9
 70
1
 10
1394478.32
 20
359799.51
 10
1394481.81
 20
359815.12
 10
1394482.64
 20
359815.02
 10
1394483.72
 20
359819.28
 10
1394492.78
 20
359816.99
 10
1394500.88
 20
359815.05
 10
1394499.99
 20
359811.38
 10
1394496.53
 20
359796.88
 10
1394478.32
 20
359799.51
  0
LWPOLYLINE
  5
DD
330
17
100
AcDbEntity
  8
0
100
AcDbPolyline
 90
12
 70
1
 10
1394502.3
 20
359820.95
 10
1394502.49
 20
359821.76
 10
1394505.99
 20
359836.38
 10
1394506.49
 20
359838.45
 10
1394534.72
 20
359831.75
 10
1394528.92
 20
359807.95
 10
1394510.45
 20
359812.39
 10
1394511.07
 20
359815.09
 10
1394510.72
 20
359815.72
 10
1394507.78
 20
359816.47
 10
1394508.48
 20
359819.45
 10
1394502.3
 20
359820.95
  0
LWPOLYLINE
  5
DE
330
17
100
AcDbEntity
  8
0
100
AcDbPolyline
 90
8
 70
1
 10
1394661.7
 20
359874.45
 10
1394707.94
 20
359862.53
 10
1394696.45
 20
359811.95
 10
1394688.53
 20
359813.49
 10
1394676.37
 20
359815.96
 10
1394669.21
 20
359818.25
 10
1394649.04
 20
359823.16
 10
1394661.7
 20
359874.45
  0
LWPOLYLINE
  5
DF
330
17
100
AcDbEntity
  8
0
100
AcDbPolyline
 90
12
 70
1
 10
1394636.45
 20
359881.41
 10
1394661.95
 20
359875.46
 10
1394653.02
 20
359839.52
 10
1394648.13
 20
359840.67
 10
1394648.94
 20
359843.73
 10
1394642.39
 20
359845.47
 10
1394639.67
 20
359849.33
 10
1394630.73
 20
359851.3
 10
1394631.31
 20
359853.68
 10
1394634.28
 20
359867.87
 10
1394634.66
 20
359873.05
 10
1394636.45
 20
359881.41
  0
LWPOLYLINE
  5
E0
330
17
100
AcDbEntity
  8
0
100
AcDbPolyline
 90
9
 70
1
 10
1394630.73
 20
359851.3
 10
1394639.67
 20
359849.33
 10
1394642.39
 20
359845.47
 10
1394648.94
 20
359843.73
 10
1394648.13
 20
359840.67
 10
1394653.02
 20
359839.52
 10
1394649.04
 20
359823.16
 10
1394625.03
 20
359829.1
 10
1394630.73
 20
359851.3
  0
LWPOLYLINE
  5
E1
330
17
100
AcDbEntity
  8
0
100
AcDbPolyline
 90
7
 70
1
 10
1394704.67
 20
359848.13
 10
1394714.44
 20
359845.56
 10
1394712.27
 20
359837.55
 10
1394722.32
 20
359834.89
 10
1394715.02
 20
359806.32
 10
1394696.16
 20
359810.68
 10
1394704.67
 20
359848.13
  0
LWPOLYLINE
  5
E2
330
17
100
AcDbEntity
  8
0
100
AcDbPolyline
 90
5
 70
1
 10
1394742.12
 20
359799.75
 10
1394746.82
 20
359817.24
 10
1394792.08
 20
359805.75
 10
1394787.33
 20
359787.59
 10
1394742.12
 20
359799.75
  0
LWPOLYLINE
  5
E3
330
17
100
AcDbEntity
  8
0
100
AcDbPolyline
 90
9
 70
1
 10
1394604.8
 20
359816.67
 10
1394664.36
 20
359801.99
 10
1394659.95
 20
359779.33
 10
1394630.28
 20
359786.81
 10
1394629.92
 20
359785.49
 10
1394604.84
 20
359792.0
 10
1394604.3
 20
359790.04
 10
1394598.38
 20
359791.78
 10
1394604.8
 20
359816.67
  0
LWPOLYLINE
  5
E4
330
17
100
AcDbEntity
  8
0
100
AcDbPolyline
 90
8
 70
1
 10
1394668.33
 20
359758.61
 10
1394677.35
 20
359796.39
 10
1394695.74
 20
359792.1
 10
1394695.35
 20
359790.53
 10
1394686.2
 20
359754.56
 10
1394671.18
 20
359758.11
 10
1394669.72
 20
359758.33
 10
1394668.33
 20
359758.61
  0
LWPOLYLINE
  5
E5
330
17
100
AcDbEntity
  8
0
100
AcDbPolyline
 90
8
 70
1
 10
1394686.2
 20
359754.56
 10
1394695.35
 20
359790.53
 10
1394695.74
 20
359792.1
 10
1394712.51
 20
359788.22
 10
1394712.01
 20
359786.3
 10
1394707.09
 20
359765.69
 10
1394703.37
 20
359750.49
 10
1394686.2
 20
359754.56
  0
LWPOLYLINE
  5
E6
330
17
100
AcDbEntity
  8
0
100
AcDbPolyline
 90
8
 70
1
 10
1394707.09
 20
359765.69
 10
1394712.01
 20
359786.3
 10
1394712.51
 20
359788.22
 10
1394732.06
 20
359783.18
 10
1394731.61
 20
359781.35
 10
1394726.53
 20
359760.98
 10
1394712.36
 20
359764.41
 10
1394707.09
 20
359765.69
  0
LWPOLYLINE
  5
E7
330
17
100
AcDbEntity
  8
0
100
AcDbPolyline
 90
8
 70
1
 10
1394703.13
 20
359749.36
 10
1394703.37
 20
359750.49
 10
1394707.09
 20
359765.69
 10
1394712.36
 20
359764.41
 10
1394726.53
 20
359760.98
 10
1394722.61
 20
359744.72
 10
1394707.07
 20
359748.39
 10
1394703.13
 20
359749.36
  0
LWPOLYLINE
  5
E8
330
17
100
AcDbEntity
  8
0
100
AcDbPolyline
 90
12
 70
1
 10
1394722.61
 20
359744.72
 10
1394726.53
 20
359760.98
 10
1394731.61
 20
359781.35
 10
1394732.06
 20
359783.18
 10
1394785.46
 20
359770.08
 10
1394775.93
 20
359731.35
 10
1394773.79
 20
359731.84
 10
1394773.45
 20
359731.94
 10
1394744.26
 20
359739.53
 10
1394736.25
 20
359741.41
 10
1394732.75
 20
359742.3
 10
1394722.61
 20
359744.72
  0
LWPOLYLINE
  5
E9
330
17
100
AcDbEntity
  8
0
100
AcDbPolyline
 90
6
 70
1
 10
1394890.97
 20
359825.23
 10
1394910.53
 20
359820.15
 10
1394912.53
 20
359820.22
 10
1394897.74
 20
359757.53
 10
1394876.21
 20
359762.68
 10
1394890.97
 20
359825.23
  0
LWPOLYLINE
  5
EA
330
17
100
AcDbEntity
  8
0
100
AcDbPolyline
 90
7
 70
1
 10
1394868.18
 20
359828.86
 10
1394884.96
 20
359824.0
 10
1394885.62
 20
359826.63
 10
1394890.97
 20
359825.23
 10
1394876.21
 20
359762.68
 10
1394852.47
 20
359768.26
 10
1394868.18
 20
359828.86
  0
LWPOLYLINE
  5
EB
330
17
100
AcDbEntity
  8
0
100
AcDbPolyline
 90
6
 70
1
 10
1394912.53
 20
359820.22
 10
1394916.56
 20
359820.35
 10
1394917.61
 20
359776.71
 10
1394914.85
 20
359753.29
 10
1394897.74
 20
359757.53
 10
1394912.53
 20
359820.22
  0
LWPOLYLINE
  5
EC
330
17
100
AcDbEntity
  8
0
100
AcDbPolyline
 90
11
 70
1
 10
1395224.38
 20
359767.49
 10
1395243.13
 20
359762.38
 10
1395240.5
 20
359751.82
 10
1395251.77
 20
359749.01
 10
1395250.22
 20
359743.41
 10
1395256.24
 20
359741.76
 10
1395258.87
 20
359739.45
 10
1395274.85
 20
359735.35
 10
1395257.64
 20
359667.36
 10
1395202.29
 20
359681.19
 10
1395224.38
 20
359767.49
  0
LWPOLYLINE
  5
ED
330
17
100
AcDbEntity
  8
0
100
AcDbPolyline
 90
12
 70
1
 10
1395185.62
 20
359802.66
 10
1395265.25
 20
359782.52
 10
1395258.59
 20
359758.58
 10
1395228.24
 20
359766.11
 10
1395228.86
 20
359768.65
 10
1395224.55
 20
359769.69
 10
1395223.88
 20
359767.11
 10
1395208.71
 20
359770.66
 10
1395206.83
 20
359763.12
 10
1395182.65
 20
359769.12
 10
1395177.62
 20
359769.65
 10
1395185.62
 20
359802.66
  0
LWPOLYLINE
  5
EE
330
17
100
AcDbEntity
  8
0
100
AcDbPolyline
 90
9
 70
1
 10
1395291.66
 20
359705.17
 10
1395362.25
 20
359687.28
 10
1395358.71
 20
359675.18
 10
1395357.98
 20
359675.38
 10
1395355.54
 20
359665.29
 10
1395360.41
 20
359664.06
 10
1395354.93
 20
359642.44
 10
1395280.08
 20
359661.42
 10
1395291.66
 20
359705.17
  0
LWPOLYLINE
  5
EF
330
17
100
AcDbEntity
  8
0
100
AcDbPolyline
 90
22
 70
1
 10
1395358.29
 20
359675.33
 10
1395382.47
 20
359669.29
 10
1395381.77
 20
359666.48
 10
1395393.64
 20
359663.49
 10
1395392.56
 20
359659.6
 10
1395399.59
 20
359657.16
 10
1395401.26
 20
359663.86
 10
1395400.77
 20
359663.99
 10
1395402.7
 20
359671.61
 10
1395403.27
 20
359671.9
 10
1395404.75
 20
359677.24
 10
1395403.37
 20
359677.72
 10
1395411.96
 20
359702.82
 10
1395407.83
 20
359703.99
 10
1395395.25
 20
359708.27
 10
1395387.08
 20
359712.34
 10
1395379.48
 20
359716.0
 10
1395373.07
 20
359718.84
 10
1395368.86
 20
359704.75
 10
1395365.53
 20
359694.35
 10
1395364.84
 20
359694.56
 10
1395358.29
 20
359675.33
  0
LWPOLYLINE
  5
F0
330
17
100
AcDbEntity
  8
0
100
AcDbPolyline
 90
7
 70
1
 10
1395446.72
 20
359645.24
 10
1395406.15
 20
359656.02
 10
1395400.72
 20
359634.93
 10
1395441.83
 20
359624.46
 10
1395444.08
 20
359633.06
 10
1395443.69
 20
359633.18
 10
1395446.72
 20
359645.24
  0
LWPOLYLINE
  5
F1
330
17
100
AcDbEntity
  8
0
100
AcDbPolyline
 90
13
 70
1
 10
1395524.15
 20
359670.44
 10
1395565.17
 20
359676.38
 10
1395579.22
 20
359678.42
 10
1395579.78
 20
359674.67
 10
1395576.12
 20
359659.81
 10
1395562.09
 20
359605.45
 10
1395560.03
 20
359595.54
 10
1395559.04
 20
359591.57
 10
1395507.45
 20
359604.59
 10
1395514.11
 20
359631.59
 10
1395519.19
 20
359651.43
 10
1395523.0
 20
359666.03
 10
1395524.15
 20
359670.44
  0
LWPOLYLINE
  5
F2
330
17
100
AcDbEntity
  8
0
100
AcDbPolyline
 90
8
 70
1
 10
1395462.61
 20
359648.07
 10
1395475.36
 20
359644.79
 10
1395474.7
 20
359641.91
 10
1395489.59
 20
359637.45
 10
1395514.09
 20
359631.59
 10
1395507.45
 20
359604.59
 10
1395454.86
 20
359617.48
 10
1395462.61
 20
359648.07
  0
LWPOLYLINE
  5
F3
330
17
100
AcDbEntity
  8
0
100
AcDbPolyline
 90
6
 70
1
 10
1395617.73
 20
359621.57
 10
1395610.9
 20
359590.94
 10
1395601.34
 20
359583.67
 10
1395559.8
 20
359594.4
 10
1395570.04
 20
359634.57
 10
1395617.73
 20
359621.57
  0
LWPOLYLINE
  5
F4
330
17
100
AcDbEntity
  8
0
100
AcDbPolyline
 90
8
 70
1
 10
1395403.27
 20
359615.53
 10
1395443.96
 20
359605.37
 10
1395441.08
 20
359593.78
 10
1395434.76
 20
359568.47
 10
1395402.22
 20
359576.67
 10
1395406.5
 20
359593.98
 10
1395398.07
 20
359596.0
 10
1395403.27
 20
359615.53
  0
LWPOLYLINE
  5
F5
330
17
100
AcDbEntity
  8
0
100
AcDbPolyline
 90
10
 70
1
 10
1395342.62
 20
359630.68
 10
1395390.83
 20
359618.64
 10
1395387.23
 20
359603.84
 10
1395383.55
 20
359588.7
 10
1395356.94
 20
359595.78
 10
1395357.1
 20
359596.8
 10
1395335.77
 20
359601.71
 10
1395337.14
 20
359608.48
 10
1395341.79
 20
359627.35
 10
1395342.62
 20
359630.68
  0
LWPOLYLINE
  5
F6
330
17
100
AcDbEntity
  8
0
100
AcDbPolyline
 90
6
 70
1
 10
1395626.9
 20
359559.69
 10
1395676.8
 20
359546.99
 10
1395681.15
 20
359538.07
 10
1395675.59
 20
359515.58
 10
1395619.73
 20
359525.51
 10
1395626.9
 20
359559.69
  0
LWPOLYLINE
  5
F7
330
17
100
AcDbEntity
  8
0
100
AcDbPolyline
 90
5
 70
1
 10
1395791.62
 20
359538.74
 10
1395800.43
 20
359573.57
 10
1395830.96
 20
359565.31
 10
1395822.58
 20
359531.0
 10
1395791.62
 20
359538.74
  0
LWPOLYLINE
  5
F8
330
17
100
AcDbEntity
  8
0
100
AcDbPolyline
 90
20
 70
1
 10
1396646.52
 20
359709.66
 10
1396642.76
 20
359683.3
 10
1396672.36
 20
359678.0
 10
1396709.73
 20
359671.11
 10
1396709.13
 20
359665.33
 10
1396720.58
 20
359663.67
 10
1396719.72
 20
359655.26
 10
1396745.08
 20
359652.42
 10
1396755.83
 20
359652.88
 10
1396756.11
 20
359644.55
 10
1396756.19
 20
359642.31
 10
1396758.9
 20
359640.54
 10
1396763.6
 20
359642.59
 10
1396792.14
 20
359665.09
 10
1396795.72
 20
359670.93
 10
1396796.24
 20
359672.54
 10
1396728.19
 20
359694.81
 10
1396711.41
 20
359699.0
 10
1396699.58
 20
359701.32
 10
1396646.52
 20
359709.66
  0
LWPOLYLINE
  5
F9
330
17
100
AcDbEntity
  8
0
100
AcDbPolyline
 90
41
 70
1
 10
1397099.49
 20
359476.66
 10
1397108.86
 20
359504.54
 10
1397111.93
 20
359513.66
 10
1397111.97
 20
359520.39
 10
1397097.87
 20
359528.76
 10
1397045.75
 20
359567.25
 10
1396988.53
 20
359608.21
 10
1396980.86
 20
359611.65
 10
1396933.92
 20
359626.85
 10
1396884.56
 20
359642.55
 10
1396876.37
 20
359640.23
 10
1396875.38
 20
359633.98
 10
1396883.88
 20
359631.4
 10
1396888.48
 20
359624.85
 10
1396893.61
 20
359620.9
 10
1396897.05
 20
359612.72
 10
1396896.87
 20
359609.32
 10
1396922.76
 20
359593.72
 10
1396925.13
 20
359592.53
 10
1396957.02
 20
359576.58
 10
1396961.76
 20
359585.1
 10
1396974.16
 20
359578.75
 10
1396961.75
 20
359555.59
 10
1396967.24
 20
359552.41
 10
1396989.27
 20
359534.8
 10
1396998.64
 20
359526.78
 10
1396999.72
 20
359527.89
 10
1397015.7
 20
359513.99
 10
1397016.81
 20
359512.38
 10
1397022.84
 20
359509.2
 10
1397031.02
 20
359507.7
 10
1397033.78
 20
359505.57
 10
1397033.79
 20
359504.48
 10
1397050.3
 20
359492.76
 10
1397052.65
 20
359495.67
 10
1397060.97
 20
359505.98
 10
1397063.72
 20
359503.85
 10
1397065.88
 20
359503.52
 10
1397084.25
 20
359490.88
 10
1397081.92
 20
359487.26
 10
1397099.49
 20
359476.66
  0
LWPOLYLINE
  5
FA
330
17
100
AcDbEntity
  8
0
100
AcDbPolyline
 90
23
 70
1
 10
1396328.37
 20
359601.2
 10
1396342.04
 20
359561.86
 10
1396339.2
 20
359560.95
 10
1396337.7
 20
359551.68
 10
1396311.25
 20
359545.4
 10
1396310.61
 20
359548.36
 10
1396308.84
 20
359548.03
 10
1396295.84
 20
359546.51
 10
1396288.27
 20
359543.94
 10
1396281.1
 20
359543.11
 10
1396267.11
 20
359539.71
 10
1396256.86
 20
359539.21
 10
1396249.56
 20
359541.26
 10
1396248.22
 20
359541.74
 10
1396244.48
 20
359543.06
 10
1396239.92
 20
359545.07
 10
1396237.36
 20
359546.36
 10
1396236.54
 20
359546.9
 10
1396233.47
 20
359549.33
 10
1396229.82
 20
359553.35
 10
1396226.22
 20
359562.18
 10
1396228.15
 20
359568.15
 10
1396328.37
 20
359601.2
  0
LWPOLYLINE
  5
FB
330
17
100
AcDbEntity
  8
0
100
AcDbPolyline
 90
6
 70
1
 10
1396992.89
 20
359629.7
 10
1397025.13
 20
359605.04
 10
1397028.64
 20
359606.21
 10
1397041.79
 20
359641.71
 10
1397002.78
 20
359658.68
 10
1396992.89
 20
359629.7
  0
LWPOLYLINE
  5
FC
330
17
100
AcDbEntity
  8
0
100
AcDbPolyline
 90
7
 70
1
 10
1398353.54
 20
359328.79
 10
1398358.44
 20
359361.37
 10
1398399.01
 20
359366.22
 10
1398400.19
 20
359349.41
 10
1398397.42
 20
359323.47
 10
1398396.94
 20
359319.89
 10
1398353.54
 20
359328.79
  0
LWPOLYLINE
  5
FD
330
17
100
AcDbEntity
  8
0
100
AcDbPolyline
 90
12
 70
1
 10
1397418.9
 20
359443.09
 10
1397440.67
 20
359437.09
 10
1397441.89
 20
359441.59
 10
1397445.73
 20
359454.7
 10
1397450.44
 20
359453.36
 10
1397457.74
 20
359480.09
 10
1397456.23
 20
359480.44
 10
1397443.31
 20
359483.94
 10
1397443.07
 20
359484.81
 10
1397442.43
 20
359485.39
 10
1397431.14
 20
359488.02
 10
1397418.9
 20
359443.09
  0
LWPOLYLINE
  5
FE
330
17
100
AcDbEntity
  8
0
100
AcDbPolyline
 90
16
 70
1
 10
1397281.57
 20
359483.76
 10
1397336.35
 20
359468.27
 10
1397340.69
 20
359483.87
 10
1397344.82
 20
359499.57
 10
1397329.36
 20
359503.26
 10
1397322.23
 20
359497.99
 10
1397315.39
 20
359501.08
 10
1397307.23
 20
359504.01
 10
1397301.28
 20
359506.12
 10
1397297.08
 20
359507.21
 10
1397295.13
 20
359511.2
 10
1397289.78
 20
359512.97
 10
1397287.28
 20
359504.49
 10
1397283.58
 20
359491.33
 10
1397282.23
 20
359486.2
 10
1397281.57
 20
359483.76
  0
LWPOLYLINE
  5
FF
330
17
100
AcDbEntity
  8
0
100
AcDbPolyline
 90
10
 70
1
 10
1397445.73
 20
359454.7
 10
1397441.89
 20
359441.59
 10
1397440.67
 20
359437.09
 10
1397467.63
 20
359429.78
 10
1397468.04
 20
359431.29
 10
1397470.71
 20
359440.63
 10
1397471.86
 20
359444.7
 10
1397464.35
 20
359446.75
 10
1397465.03
 20
359449.24
 10
1397445.73
 20
359454.7
  0
LWPOLYLINE
  5
100
330
17
100
AcDbEntity
  8
0
100
AcDbPolyline
 90
10
 70
1
 10
1397471.86
 20
359444.7
 10
1397472.54
 20
359447.11
 10
1397477.21
 20
359463.59
 10
1397480.11
 20
359474.4
 10
1397474.53
 20
359476.16
 10
1397457.74
 20
359480.09
 10
1397450.44
 20
359453.36
 10
1397465.03
 20
359449.24
 10
1397464.35
 20
359446.75
 10
1397471.86
 20
359444.7
  0
LWPOLYLINE
  5
101
330
17
100
AcDbEntity
  8
0
100
AcDbPolyline
 90
7
 70
1
 10
1398346.04
 20
359400.7
 10
1398370.64
 20
359402.79
 10
1398372.78
 20
359377.59
 10
1398348.18
 20
359375.5
 10
1398348.0
 20
359377.7
 10
1398346.5
 20
359395.27
 10
1398346.04
 20
359400.7
  0
LWPOLYLINE
  5
102
330
17
100
AcDbEntity
  8
0
100
AcDbPolyline
 90
6
 70
1
 10
1398369.85
 20
359414.32
 10
1398370.64
 20
359402.79
 10
1398346.04
 20
359400.7
 10
1398322.06
 20
359398.66
 10
1398321.22
 20
359410.99
 10
1398369.85
 20
359414.32
  0
LWPOLYLINE
  5
103
330
17
100
AcDbEntity
  8
0
100
AcDbPolyline
 90
6
 70
1
 10
1398390.91
 20
359398.0
 10
1398404.87
 20
359399.26
 10
1398405.46
 20
359392.96
 10
1398406.26
 20
359384.34
 10
1398392.32
 20
359382.96
 10
1398390.91
 20
359398.0
  0
LWPOLYLINE
  5
104
330
17
100
AcDbEntity
  8
0
100
AcDbPolyline
 90
7
 70
1
 10
1398455.88
 20
359411.54
 10
1398457.71
 20
359404.2
 10
1398459.14
 20
359388.81
 10
1398459.42
 20
359385.64
 10
1398437.7
 20
359383.56
 10
1398435.69
 20
359410.47
 10
1398455.88
 20
359411.54
  0
LWPOLYLINE
  5
105
330
17
100
AcDbEntity
  8
0
100
AcDbPolyline
 90
10
 70
1
 10
1398787.96
 20
359455.92
 10
1398888.77
 20
359471.43
 10
1398954.72
 20
359480.54
 10
1398994.75
 20
359478.46
 10
1399001.42
 20
359472.37
 10
1399003.09
 20
359466.51
 10
1399002.89
 20
359458.02
 10
1399002.69
 20
359449.7
 10
1398790.6
 20
359427.73
 10
1398787.96
 20
359455.92
  0
LWPOLYLINE
  5
106
330
17
100
AcDbEntity
  8
0
100
AcDbPolyline
 90
5
 70
1
 10
1397739.11
 20
359351.86
 10
1397771.25
 20
359352.36
 10
1397771.46
 20
359338.8
 10
1397739.32
 20
359338.3
 10
1397739.11
 20
359351.86
  0
LWPOLYLINE
  5
107
330
17
100
AcDbEntity
  8
0
100
AcDbPolyline
 90
6
 70
1
 10
1395954.92
 20
359477.76
 10
1395988.49
 20
359485.38
 10
1395999.58
 20
359463.09
 10
1395978.46
 20
359454.05
 10
1395954.61
 20
359455.07
 10
1395954.92
 20
359477.76
  0
LWPOLYLINE
  5
108
330
17
100
AcDbEntity
  8
0
100
AcDbPolyline
 90
15
 70
1
 10
1395704.35
 20
359903.24
 10
1395705.91
 20
359909.65
 10
1395709.29
 20
359923.83
 10
1395710.32
 20
359928.14
 10
1395700.12
 20
359930.66
 10
1395674.83
 20
359936.89
 10
1395663.07
 20
359939.94
 10
1395645.73
 20
359944.26
 10
1395627.36
 20
359948.82
 10
1395625.74
 20
359941.86
 10
1395622.77
 20
359929.94
 10
1395621.46
 20
359924.67
 10
1395649.89
 20
359917.39
 10
1395671.01
 20
359911.64
 10
1395704.35
 20
359903.24
  0
LWPOLYLINE
  5
109
330
17
100
AcDbEntity
  8
0
100
AcDbPolyline
 90
10
 70
1
 10
1395809.87
 20
359901.56
 10
1395804.55
 20
359882.85
 10
1395802.13
 20
359874.47
 10
1395817.26
 20
359870.24
 10
1395819.37
 20
359877.64
 10
1395824.47
 20
359896.77
 10
1395824.71
 20
359897.57
 10
1395820.93
 20
359898.68
 10
1395816.93
 20
359899.86
 10
1395809.87
 20
359901.56
  0
LWPOLYLINE
  5
10A
330
17
100
AcDbEntity
  8
0
100
AcDbPolyline
 90
5
 70
1
 10
1395755.69
 20
359910.93
 10
1395749.82
 20
359888.56
 10
1395798.79
 20
359875.42
 10
1395804.72
 20
359899.3
 10
1395755.69
 20
359910.93
  0
LWPOLYLINE
  5
10B
330
17
100
AcDbEntity
  8
0
100
AcDbPolyline
 90
9
 70
1
 10
1397638.71
 20
359142.55
 10
1397669.47
 20
359214.18
 10
1397735.02
 20
359197.68
 10
1397738.49
 20
359198.27
 10
1397746.3
 20
359195.44
 10
1397740.5
 20
359181.5
 10
1397715.06
 20
359120.39
 10
1397711.53
 20
359111.92
 10
1397638.71
 20
359142.55
  0
LWPOLYLINE
  5
10C
330
17
100
AcDbEntity
  8
0
100
AcDbPolyline
 90
17
 70
1
 10
1397108.97
 20
359342.24
 10
1397111.74
 20
359346.89
 10
1397077.17
 20
359367.47
 10
1397075.75
 20
359365.09
 10
1397046.89
 20
359381.92
 10
1397042.26
 20
359384.63
 10
1397011.68
 20
359333.83
 10
1397048.41
 20
359316.66
 10
1397073.14
 20
359304.37
 10
1397088.59
 20
359298.18
 10
1397105.46
 20
359294.63
 10
1397118.55
 20
359293.89
 10
1397129.16
 20
359294.06
 10
1397135.09
 20
359294.43
 10
1397141.6
 20
359319.49
 10
1397135.33
 20
359326.17
 10
1397108.97
 20
359342.24
  0
LWPOLYLINE
  5
10D
330
17
100
AcDbEntity
  8
0
100
AcDbPolyline
 90
12
 70
1
 10
1396604.88
 20
359423.06
 10
1396610.48
 20
359449.38
 10
1396612.86
 20
359460.59
 10
1396629.06
 20
359456.77
 10
1396658.54
 20
359449.84
 10
1396691.38
 20
359442.1
 10
1396689.69
 20
359434.13
 10
1396683.82
 20
359406.6
 10
1396656.65
 20
359410.44
 10
1396614.11
 20
359416.62
 10
1396604.02
 20
359419.02
 10
1396604.88
 20
359423.06
  0
LWPOLYLINE
  5
10E
330
17
100
AcDbEntity
  8
0
100
AcDbPolyline
 90
9
 70
1
 10
1397117.1
 20
359291.19
 10
1397115.99
 20
359278.09
 10
1397133.9
 20
359270.66
 10
1397136.63
 20
359272.94
 10
1397137.34
 20
359274.98
 10
1397136.96
 20
359284.43
 10
1397135.3
 20
359286.12
 10
1397123.55
 20
359290.32
 10
1397117.1
 20
359291.19
  0
LWPOLYLINE
  5
10F
330
17
100
AcDbEntity
  8
0
100
AcDbPolyline
 90
5
 70
1
 10
1397254.26
 20
359324.83
 10
1397245.34
 20
359291.66
 10
1397283.09
 20
359279.44
 10
1397292.33
 20
359314.52
 10
1397254.26
 20
359324.83
  0
LWPOLYLINE
  5
110
330
17
100
AcDbEntity
  8
0
100
AcDbPolyline
 90
6
 70
1
 10
1397315.81
 20
359286.44
 10
1397332.57
 20
359282.22
 10
1397338.35
 20
359304.47
 10
1397321.96
 20
359308.73
 10
1397321.86
 20
359308.37
 10
1397315.81
 20
359286.44
  0
LWPOLYLINE
  5
111
330
17
100
AcDbEntity
  8
0
100
AcDbPolyline
 90
37
 70
1
 10
1396726.84
 20
359410.88
 10
1396727.59
 20
359420.19
 10
1396735.69
 20
359423.37
 10
1396747.73
 20
359422.33
 10
1396747.82
 20
359423.32
 10
1396759.26
 20
359422.33
 10
1396768.57
 20
359527.92
 10
1396769.95
 20
359543.63
 10
1396773.48
 20
359584.08
 10
1396779.63
 20
359601.19
 10
1396784.37
 20
359607.04
 10
1396793.3
 20
359612.53
 10
1396796.54
 20
359613.36
 10
1396814.28
 20
359613.85
 10
1396823.34
 20
359609.27
 10
1396826.97
 20
359606.36
 10
1396833.13
 20
359599.1
 10
1396836.19
 20
359590.64
 10
1396837.01
 20
359584.38
 10
1396837.11
 20
359577.77
 10
1396834.15
 20
359570.64
 10
1396833.41
 20
359561.68
 10
1396832.52
 20
359551.56
 10
1396829.68
 20
359522.39
 10
1396828.9
 20
359513.41
 10
1396827.54
 20
359497.07
 10
1396826.63
 20
359485.4
 10
1396824.94
 20
359467.79
 10
1396824.03
 20
359456.28
 10
1396822.96
 20
359443.38
 10
1396822.31
 20
359434.58
 10
1396821.53
 20
359425.03
 10
1396821.11
 20
359417.13
 10
1396818.92
 20
359375.97
 10
1396748.68
 20
359393.26
 10
1396750.04
 20
359408.92
 10
1396726.84
 20
359410.88
  0
LWPOLYLINE
  5
112
330
17
100
AcDbEntity
  8
0
100
AcDbPolyline
 90
5
 70
1
 10
1396623.05
 20
359630.08
 10
1396637.02
 20
359654.22
 10
1396631.81
 20
359657.88
 10
1396616.07
 20
359634.69
 10
1396623.05
 20
359630.08
  0
LWPOLYLINE
  5
113
330
17
100
AcDbEntity
  8
0
100
AcDbPolyline
 90
12
 70
1
 10
1397149.88
 20
359243.59
 10
1397285.14
 20
359206.25
 10
1397286.37
 20
359210.71
 10
1397320.04
 20
359217.82
 10
1397323.13
 20
359229.33
 10
1397326.94
 20
359243.5
 10
1397314.06
 20
359247.6
 10
1397315.21
 20
359251.87
 10
1397176.78
 20
359290.07
 10
1397177.91
 20
359294.16
 10
1397154.27
 20
359294.69
 10
1397149.88
 20
359243.59
  0
LWPOLYLINE
  5
114
330
17
100
AcDbEntity
  8
0
100
AcDbPolyline
 90
8
 70
1
 10
1394803.33
 20
359472.95
 10
1394811.66
 20
359492.55
 10
1394791.68
 20
359498.65
 10
1394789.55
 20
359492.82
 10
1394787.87
 20
359485.28
 10
1394780.91
 20
359487.13
 10
1394779.1
 20
359480.95
 10
1394803.33
 20
359472.95
  0
LWPOLYLINE
  5
115
330
17
100
AcDbEntity
  8
0
100
AcDbPolyline
 90
8
 70
1
 10
1394787.87
 20
359485.28
 10
1394789.55
 20
359492.82
 10
1394791.68
 20
359498.65
 10
1394811.66
 20
359492.55
 10
1394820.21
 20
359512.64
 10
1394790.83
 20
359521.06
 10
1394780.84
 20
359487.15
 10
1394787.87
 20
359485.28
  0
LWPOLYLINE
  5
116
330
17
100
AcDbEntity
  8
0
100
AcDbPolyline
 90
19
 70
1
 10
1395319.17
 20
359814.56
 10
1395322.39
 20
359813.8
 10
1395333.54
 20
359811.01
 10
1395333.76
 20
359811.89
 10
1395340.69
 20
359810.11
 10
1395340.42
 20
359809.08
 10
1395343.65
 20
359806.88
 10
1395344.91
 20
359806.52
 10
1395345.48
 20
359805.13
 10
1395346.63
 20
359801.51
 10
1395358.34
 20
359798.02
 10
1395360.4
 20
359797.31
 10
1395367.24
 20
359792.68
 10
1395358.69
 20
359760.0
 10
1395357.5
 20
359754.2
 10
1395350.37
 20
359755.66
 10
1395307.06
 20
359765.54
 10
1395308.17
 20
359769.95
 10
1395319.17
 20
359814.56
  0
LWPOLYLINE
  5
117
330
17
100
AcDbEntity
  8
0
100
AcDbPolyline
 90
13
 70
1
 10
1395381.12
 20
359823.67
 10
1395382.59
 20
359830.42
 10
1395381.38
 20
359830.76
 10
1395385.84
 20
359849.52
 10
1395386.46
 20
359852.02
 10
1395377.57
 20
359854.27
 10
1395356.27
 20
359859.46
 10
1395351.51
 20
359860.61
 10
1395345.44
 20
359836.05
 10
1395356.04
 20
359833.35
 10
1395355.28
 20
359830.19
 10
1395372.28
 20
359825.95
 10
1395381.12
 20
359823.67
  0
LWPOLYLINE
  5
118
330
17
100
AcDbEntity
  8
0
100
AcDbPolyline
 90
7
 70
1
 10
1395274.95
 20
359886.26
 10
1395280.99
 20
359908.6
 10
1395314.1
 20
359900.07
 10
1395307.16
 20
359872.72
 10
1395287.69
 20
359877.74
 10
1395288.88
 20
359882.1
 10
1395274.95
 20
359886.26
  0
LWPOLYLINE
  5
119
330
17
100
AcDbEntity
  8
0
100
AcDbPolyline
 90
7
 70
1
 10
1395281.31
 20
359854.29
 10
1395277.98
 20
359855.11
 10
1395278.53
 20
359857.14
 10
1395253.18
 20
359864.8
 10
1395260.72
 20
359890.51
 10
1395288.88
 20
359882.1
 10
1395281.31
 20
359854.29
  0
LWPOLYLINE
  5
11A
330
17
100
AcDbEntity
  8
0
100
AcDbPolyline
 90
8
 70
1
 10
1395301.21
 20
359848.11
 10
1395297.29
 20
359848.98
 10
1395284.35
 20
359852.23
 10
1395284.65
 20
359853.45
 10
1395281.31
 20
359854.29
 10
1395287.69
 20
359877.74
 10
1395307.16
 20
359872.72
 10
1395301.21
 20
359848.11
  0
LWPOLYLINE
  5
11B
330
17
100
AcDbEntity
  8
0
100
AcDbPolyline
 90
25
 70
1
 10
1395575.71
 20
360388.55
 10
1395575.87
 20
360389.3
 10
1395576.17
 20
360390.69
 10
1395578.27
 20
360400.67
 10
1395578.56
 20
360402.69
 10
1395578.7
 20
360406.98
 10
1395580.57
 20
360406.72
 10
1395582.41
 20
360406.4
 10
1395584.38
 20
360406.05
 10
1395585.06
 20
360405.17
 10
1395606.17
 20
360400.24
 10
1395621.57
 20
360396.64
 10
1395627.65
 20
360395.55
 10
1395627.04
 20
360392.18
 10
1395622.76
 20
360375.11
 10
1395620.36
 20
360375.18
 10
1395619.24
 20
360375.4
 10
1395614.93
 20
360375.94
 10
1395607.76
 20
360377.69
 10
1395597.2
 20
360380.23
 10
1395596.6
 20
360380.34
 10
1395596.46
 20
360379.94
 10
1395588.58
 20
360381.05
 10
1395580.69
 20
360382.06
 10
1395575.71
 20
360388.55
  0
LWPOLYLINE
  5
11C
330
17
100
AcDbEntity
  8
0
100
AcDbPolyline
 90
16
 70
1
 10
1395582.41
 20
360406.4
 10
1395582.31
 20
360410.67
 10
1395581.5
 20
360419.06
 10
1395580.09
 20
360427.36
 10
1395579.43
 20
360430.05
 10
1395579.52
 20
360433.04
 10
1395578.24
 20
360434.91
 10
1395578.08
 20
360435.54
 10
1395575.68
 20
360442.92
 10
1395590.59
 20
360438.75
 10
1395613.75
 20
360432.87
 10
1395612.63
 20
360429.45
 10
1395606.17
 20
360400.24
 10
1395585.06
 20
360405.17
 10
1395584.38
 20
360406.05
 10
1395582.41
 20
360406.4
  0
LWPOLYLINE
  5
11D
330
17
100
AcDbEntity
  8
0
100
AcDbPolyline
 90
19
 70
1
 10
1395635.21
 20
360390.47
 10
1395635.9
 20
360394.04
 10
1395640.97
 20
360420.3
 10
1395641.83
 20
360424.78
 10
1395642.02
 20
360425.74
 10
1395661.61
 20
360421.67
 10
1395672.45
 20
360417.18
 10
1395676.65
 20
360413.43
 10
1395680.51
 20
360399.36
 10
1395683.96
 20
360386.74
 10
1395684.53
 20
360384.61
 10
1395668.58
 20
360384.13
 10
1395664.79
 20
360379.11
 10
1395663.66
 20
360377.6
 10
1395659.15
 20
360379.4
 10
1395646.5
 20
360383.53
 10
1395645.27
 20
360385.41
 10
1395643.93
 20
360389.43
 10
1395635.21
 20
360390.47
  0
LWPOLYLINE
  5
11E
330
17
100
AcDbEntity
  8
0
100
AcDbPolyline
 90
5
 70
1
 10
1395789.82
 20
359838.28
 10
1395783.91
 20
359812.31
 10
1395804.7
 20
359806.6
 10
1395811.7
 20
359832.86
 10
1395789.82
 20
359838.28
  0
LWPOLYLINE
  5
11F
330
17
100
AcDbEntity
  8
0
100
AcDbPolyline
 90
6
 70
1
 10
1395192.37
 20
360542.65
 10
1395210.77
 20
360537.85
 10
1395204.29
 20
360514.13
 10
1395198.15
 20
360488.73
 10
1395179.79
 20
360493.8
 10
1395192.37
 20
360542.65
  0
LWPOLYLINE
  5
120
330
17
100
AcDbEntity
  8
0
100
AcDbPolyline
 90
6
 70
1
 10
1395540.37
 20
359996.31
 10
1395556.5
 20
360000.8
 10
1395561.62
 20
359982.79
 10
1395554.16
 20
359979.15
 10
1395545.83
 20
359977.12
 10
1395540.37
 20
359996.31
  0
LWPOLYLINE
  5
121
330
17
100
AcDbEntity
  8
0
100
AcDbPolyline
 90
40
 70
1
 10
1394285.75
 20
360334.44
 10
1394287.92
 20
360341.58
 10
1394294.41
 20
360340.13
 10
1394295.19
 20
360342.76
 10
1394297.97
 20
360351.4
 10
1394296.4
 20
360351.9
 10
1394296.9
 20
360361.9
 10
1394297.02
 20
360362.39
 10
1394288.28
 20
360364.48
 10
1394293.52
 20
360388.25
 10
1394294.66
 20
360393.14
 10
1394297.83
 20
360394.44
 10
1394304.08
 20
360398.46
 10
1394309.69
 20
360402.06
 10
1394325.06
 20
360413.96
 10
1394321.84
 20
360414.48
 10
1394314.6
 20
360419.94
 10
1394329.48
 20
360447.21
 10
1394349.72
 20
360483.78
 10
1394352.11
 20
360488.86
 10
1394352.3
 20
360489.28
 10
1394355.45
 20
360495.33
 10
1394361.52
 20
360505.05
 10
1394363.6
 20
360513.76
 10
1394365.73
 20
360522.01
 10
1394361.02
 20
360523.54
 10
1394349.95
 20
360525.77
 10
1394327.56
 20
360530.31
 10
1394316.94
 20
360532.27
 10
1394312.28
 20
360510.23
 10
1394280.05
 20
360440.4
 10
1394257.93
 20
360410.07
 10
1394252.34
 20
360377.77
 10
1394254.17
 20
360370.85
 10
1394258.67
 20
360361.16
 10
1394257.02
 20
360358.12
 10
1394259.54
 20
360356.2
 10
1394273.51
 20
360340.03
 10
1394277.61
 20
360337.58
 10
1394285.75
 20
360334.44
  0
LWPOLYLINE
  5
122
330
17
100
AcDbEntity
  8
0
100
AcDbPolyline
 90
31
 70
1
 10
1394479.87
 20
359477.95
 10
1394521.58
 20
359487.77
 10
1394521.6
 20
359486.86
 10
1394535.84
 20
359483.79
 10
1394547.6
 20
359492.64
 10
1394561.65
 20
359526.11
 10
1394555.15
 20
359528.55
 10
1394560.44
 20
359543.99
 10
1394566.3
 20
359542.28
 10
1394569.4
 20
359552.91
 10
1394569.62
 20
359565.85
 10
1394552.19
 20
359571.76
 10
1394511.9
 20
359558.32
 10
1394511.83
 20
359549.09
 10
1394409.35
 20
359537.76
 10
1394408.54
 20
359530.99
 10
1394379.12
 20
359530.39
 10
1394360.97
 20
359527.2
 10
1394358.38
 20
359534.2
 10
1394350.16
 20
359532.79
 10
1394342.75
 20
359529.13
 10
1394330.77
 20
359513.0
 10
1394309.3
 20
359494.05
 10
1394320.0
 20
359476.91
 10
1394300.07
 20
359452.53
 10
1394304.37
 20
359442.48
 10
1394315.14
 20
359443.44
 10
1394338.76
 20
359469.85
 10
1394374.47
 20
359478.58
 10
1394453.94
 20
359482.75
 10
1394479.87
 20
359477.95
  0
LWPOLYLINE
  5
123
330
17
100
AcDbEntity
  8
0
100
AcDbPolyline
 90
31
 70
1
 10
1396776.1
 20
359943.22
 10
1396774.34
 20
359932.44
 10
1396762.7
 20
359918.21
 10
1396761.76
 20
359908.0
 10
1396765.44
 20
359901.17
 10
1396775.93
 20
359895.56
 10
1396829.72
 20
359898.85
 10
1396830.7
 20
359904.51
 10
1396831.24
 20
359906.85
 10
1396833.95
 20
359922.42
 10
1396845.06
 20
359932.56
 10
1396853.85
 20
359968.79
 10
1396850.95
 20
359970.14
 10
1396847.15
 20
359971.9
 10
1396846.22
 20
359974.73
 10
1396841.11
 20
359977.13
 10
1396837.03
 20
359979.34
 10
1396832.16
 20
359983.09
 10
1396826.52
 20
359988.25
 10
1396825.55
 20
359988.39
 10
1396844.73
 20
360042.18
 10
1396844.23
 20
360042.05
 10
1396834.35
 20
360040.5
 10
1396817.15
 20
360037.51
 10
1396792.88
 20
360034.48
 10
1396774.3
 20
360032.62
 10
1396770.97
 20
360032.28
 10
1396772.45
 20
360012.48
 10
1396755.05
 20
360012.06
 10
1396782.25
 20
359948.19
 10
1396776.1
 20
359943.22
  0
LWPOLYLINE
  5
124
330
17
100
AcDbEntity
  8
0
100
AcDbPolyline
 90
5
 70
1
 10
1395013.13
 20
359698.03
 10
1395069.7
 20
359684.19
 10
1395060.41
 20
359645.1
 10
1395003.86
 20
359658.95
 10
1395013.13
 20
359698.03
  0
LWPOLYLINE
  5
125
330
17
100
AcDbEntity
  8
0
100
AcDbPolyline
 90
5
 70
1
 10
1394867.81
 20
359308.08
 10
1394883.14
 20
359344.76
 10
1394922.82
 20
359328.06
 10
1394907.23
 20
359290.63
 10
1394867.81
 20
359308.08
  0
LWPOLYLINE
  5
126
330
17
100
AcDbEntity
  8
0
100
AcDbPolyline
 90
8
 70
1
 10
1396213.93
 20
359784.07
 10
1396215.82
 20
359784.48
 10
1396217.22
 20
359784.96
 10
1396233.84
 20
359790.46
 10
1396239.38
 20
359776.1
 10
1396237.56
 20
359775.38
 10
1396219.42
 20
359769.52
 10
1396213.93
 20
359784.07
  0
LWPOLYLINE
  5
127
330
17
100
AcDbEntity
  8
0
100
AcDbPolyline
 90
10
 70
1
 10
1396214.18
 20
359757.96
 10
1396240.72
 20
359766.66
 10
1396242.26
 20
359762.41
 10
1396244.14
 20
359757.21
 10
1396244.33
 20
359756.71
 10
1396246.72
 20
359750.08
 10
1396246.76
 20
359749.97
 10
1396219.52
 20
359740.88
 10
1396217.45
 20
359747.5
 10
1396214.18
 20
359757.96
  0
LWPOLYLINE
  5
128
330
17
100
AcDbEntity
  8
0
100
AcDbPolyline
 90
9
 70
1
 10
1396167.0
 20
359750.16
 10
1396182.71
 20
359755.08
 10
1396184.0
 20
359755.48
 10
1396185.33
 20
359750.99
 10
1396188.13
 20
359741.53
 10
1396188.45
 20
359740.46
 10
1396189.71
 20
359736.2
 10
1396172.88
 20
359731.2
 10
1396167.0
 20
359750.16
  0
LWPOLYLINE
  5
129
330
17
100
AcDbEntity
  8
0
100
AcDbPolyline
 90
8
 70
1
 10
1396157.14
 20
359747.06
 10
1396162.54
 20
359748.76
 10
1396167.0
 20
359750.16
 10
1396172.88
 20
359731.2
 10
1396162.85
 20
359728.22
 10
1396160.37
 20
359736.39
 10
1396157.81
 20
359744.84
 10
1396157.14
 20
359747.06
  0
LWPOLYLINE
  5
12A
330
17
100
AcDbEntity
  8
0
100
AcDbPolyline
 90
17
 70
1
 10
1399216.07
 20
359848.44
 10
1399204.79
 20
359847.83
 10
1399196.78
 20
359829.05
 10
1399210.41
 20
359819.41
 10
1399220.8
 20
359812.02
 10
1399225.44
 20
359808.61
 10
1399232.88
 20
359803.46
 10
1399250.92
 20
359788.69
 10
1399250.48
 20
359788.11
 10
1399258.21
 20
359782.67
 10
1399270.35
 20
359796.66
 10
1399262.68
 20
359800.89
 10
1399250.59
 20
359809.61
 10
1399241.21
 20
359818.02
 10
1399231.49
 20
359829.12
 10
1399224.44
 20
359838.92
 10
1399216.07
 20
359848.44
  0
LWPOLYLINE
  5
12B
330
17
100
AcDbEntity
  8
0
100
AcDbPolyline
 90
7
 70
1
 10
1394733.69
 20
359396.24
 10
1394737.0
 20
359410.24
 10
1394748.38
 20
359408.39
 10
1394754.26
 20
359430.7
 10
1394720.39
 20
359438.44
 10
1394712.46
 20
359400.98
 10
1394733.69
 20
359396.24
  0
LWPOLYLINE
  5
12C
330
17
100
AcDbEntity
  8
0
100
AcDbPolyline
 90
5
 70
1
 10
1394752.7
 20
359461.86
 10
1394759.3
 20
359481.71
 10
1394731.16
 20
359489.17
 10
1394725.42
 20
359468.13
 10
1394752.7
 20
359461.86
  0
LWPOLYLINE
  5
12D
330
17
100
AcDbEntity
  8
0
100
AcDbPolyline
 90
5
 70
1
 10
1394804.68
 20
359634.56
 10
1394814.71
 20
359677.91
 10
1394781.14
 20
359685.16
 10
1394770.2
 20
359642.41
 10
1394804.68
 20
359634.56
  0
LWPOLYLINE
  5
12E
330
17
100
AcDbEntity
  8
0
100
AcDbPolyline
 90
18
 70
1
 10
1397326.86
 20
359326.51
 10
1397321.86
 20
359308.37
 10
1397315.81
 20
359286.44
 10
1397311.35
 20
359270.29
 10
1397283.09
 20
359279.44
 10
1397292.33
 20
359314.52
 10
1397254.26
 20
359324.83
 10
1397245.34
 20
359291.66
 10
1397207.4
 20
359303.94
 10
1397188.7
 20
359311.85
 10
1397174.61
 20
359318.54
 10
1397154.89
 20
359333.31
 10
1397146.18
 20
359348.1
 10
1397145.5
 20
359356.31
 10
1397145.88
 20
359360.39
 10
1397149.57
 20
359373.3
 10
1397151.84
 20
359374.75
 10
1397326.86
 20
359326.51
  0
LWPOLYLINE
  5
12F
330
17
100
AcDbEntity
  8
0
100
AcDbPolyline
 90
21
 70
1
 10
1397121.42
 20
359483.48
 10
1397116.09
 20
359466.4
 10
1397097.84
 20
359472.05
 10
1397092.24
 20
359450.9
 10
1397087.18
 20
359442.92
 10
1397084.56
 20
359439.96
 10
1397104.73
 20
359425.38
 10
1397121.03
 20
359415.56
 10
1397148.95
 20
359398.47
 10
1397159.01
 20
359393.75
 10
1397162.48
 20
359399.23
 10
1397169.02
 20
359407.52
 10
1397178.75
 20
359442.57
 10
1397162.17
 20
359446.83
 10
1397162.79
 20
359449.25
 10
1397145.55
 20
359453.57
 10
1397151.04
 20
359474.16
 10
1397147.55
 20
359475.24
 10
1397136.91
 20
359478.29
 10
1397124.39
 20
359482.5
 10
1397121.42
 20
359483.48
  0
LWPOLYLINE
  5
130
330
17
100
AcDbEntity
  8
0
100
AcDbPolyline
 90
9
 70
1
 10
1397323.77
 20
359379.6
 10
1397313.34
 20
359337.92
 10
1397362.27
 20
359324.47
 10
1397363.39
 20
359328.8
 10
1397379.13
 20
359324.71
 10
1397385.03
 20
359346.01
 10
1397378.0
 20
359347.94
 10
1397382.1
 20
359362.45
 10
1397323.77
 20
359379.6
  0
LWPOLYLINE
  5
131
330
17
100
AcDbEntity
  8
0
100
AcDbPolyline
 90
148
 70
1
 10
1396378.12
 20
359425.76
 10
1396682.87
 20
359323.79
 10
1396740.11
 20
359308.2
 10
1396809.63
 20
359308.6
 10
1396865.63
 20
359278.47
 10
1396866.83
 20
359275.18
 10
1397037.32
 20
359184.63
 10
1397208.68
 20
359159.43
 10
1397430.02
 20
359116.93
 10
1397764.45
 20
358983.45
 10
1397757.71
 20
358966.57
 10
1397770.32
 20
358961.57
 10
1397777.22
 20
358979.81
 10
1397801.33
 20
358972.46
 10
1397808.03
 20
358998.27
 10
1397809.92
 20
359019.51
 10
1397807.21
 20
359029.87
 10
1397807.52
 20
359035.32
 10
1397808.06
 20
359044.87
 10
1397810.36
 20
359073.23
 10
1397814.2
 20
359073.08
 10
1397817.98
 20
359073.03
 10
1397822.28
 20
359072.88
 10
1397827.8
 20
359072.09
 10
1397828.2
 20
359086.03
 10
1397833.53
 20
359185.4
 10
1397817.98
 20
359186.36
 10
1397814.5
 20
359186.03
 10
1397813.75
 20
359186.12
 10
1397708.36
 20
359216.06
 10
1397665.45
 20
359228.05
 10
1397634.7
 20
359237.27
 10
1397600.17
 20
359246.72
 10
1397604.25
 20
359260.18
 10
1397588.66
 20
359264.91
 10
1397547.89
 20
359276.44
 10
1397532.83
 20
359281.8
 10
1397506.21
 20
359288.95
 10
1397497.17
 20
359291.43
 10
1397492.18
 20
359292.82
 10
1397487.1
 20
359294.03
 10
1397481.87
 20
359295.43
 10
1397450.23
 20
359304.25
 10
1397393.86
 20
359319.95
 10
1397381.29
 20
359324.14
 10
1397379.13
 20
359324.71
 10
1397385.03
 20
359346.01
 10
1397378.0
 20
359347.94
 10
1397382.1
 20
359362.45
 10
1397383.69
 20
359367.41
 10
1397400.05
 20
359418.55
 10
1397401.57
 20
359424.65
 10
1397400.43
 20
359430.86
 10
1397209.9
 20
359485.97
 10
1397190.64
 20
359491.12
 10
1397188.86
 20
359491.53
 10
1397188.41
 20
359489.57
 10
1397132.82
 20
359508.16
 10
1397132.33
 20
359506.74
 10
1397131.15
 20
359503.34
 10
1397125.28
 20
359485.2
 10
1397124.61
 20
359483.16
 10
1397124.39
 20
359482.5
 10
1397121.42
 20
359483.48
 10
1397116.09
 20
359466.4
 10
1397097.84
 20
359472.05
 10
1397092.24
 20
359450.9
 10
1397087.18
 20
359442.92
 10
1397084.56
 20
359439.96
 10
1397070.05
 20
359450.3
 10
1397050.74
 20
359464.65
 10
1396992.98
 20
359507.21
 10
1396989.43
 20
359509.82
 10
1396982.12
 20
359515.45
 10
1396979.1
 20
359517.56
 10
1396972.99
 20
359521.81
 10
1396966.83
 20
359526.12
 10
1396963.79
 20
359528.23
 10
1396962.84
 20
359528.91
 10
1396952.02
 20
359536.91
 10
1396945.95
 20
359541.55
 10
1396934.21
 20
359549.95
 10
1396929.68
 20
359553.19
 10
1396920.11
 20
359560.34
 10
1396910.54
 20
359567.48
 10
1396908.68
 20
359568.78
 10
1396904.76
 20
359571.53
 10
1396901.45
 20
359573.84
 10
1396893.99
 20
359580.19
 10
1396890.47
 20
359583.88
 10
1396885.83
 20
359590.31
 10
1396881.64
 20
359597.9
 10
1396878.36
 20
359604.85
 10
1396877.52
 20
359608.26
 10
1396875.84
 20
359616.28
 10
1396875.38
 20
359624.85
 10
1396873.53
 20
359634.48
 10
1396873.03
 20
359643.51
 10
1396859.53
 20
359652.31
 10
1396810.97
 20
359668.51
 10
1396795.72
 20
359670.93
 10
1396792.14
 20
359665.09
 10
1396763.6
 20
359642.59
 10
1396758.9
 20
359640.54
 10
1396756.19
 20
359642.31
 10
1396756.11
 20
359644.55
 10
1396746.41
 20
359644.17
 10
1396742.18
 20
359620.41
 10
1396740.15
 20
359612.98
 10
1396737.1
 20
359602.0
 10
1396724.45
 20
359604.71
 10
1396725.3
 20
359606.39
 10
1396718.35
 20
359610.07
 10
1396717.89
 20
359609.45
 10
1396703.19
 20
359618.04
 10
1396702.59
 20
359617.26
 10
1396658.8
 20
359642.72
 10
1396660.16
 20
359654.05
 10
1396639.4
 20
359658.35
 10
1396610.67
 20
359663.58
 10
1396598.75
 20
359665.32
 10
1396593.63
 20
359669.16
 10
1396593.75
 20
359670.87
 10
1396588.43
 20
359671.44
 10
1396588.7
 20
359673.59
 10
1396584.56
 20
359673.72
 10
1396583.22
 20
359673.76
 10
1396565.36
 20
359674.3
 10
1396562.5
 20
359674.27
 10
1396559.8
 20
359670.8
 10
1396555.13
 20
359664.8
 10
1396559.41
 20
359659.81
 10
1396558.04
 20
359657.37
 10
1396556.63
 20
359654.88
 10
1396547.78
 20
359639.18
 10
1396542.47
 20
359630.33
 10
1396543.63
 20
359629.77
 10
1396523.74
 20
359597.28
 10
1396491.67
 20
359588.79
 10
1396459.92
 20
359583.53
 10
1396450.55
 20
359568.37
 10
1396439.08
 20
359544.78
 10
1396434.82
 20
359542.4
 10
1396426.98
 20
359521.2
 10
1396423.63
 20
359516.32
 10
1396416.39
 20
359501.83
 10
1396397.74
 20
359495.29
 10
1396378.12
 20
359425.76
  0
LWPOLYLINE
  5
132
330
17
100
AcDbEntity
  8
0
100
AcDbPolyline
 90
5
 70
1
 10
1395057.02
 20
359750.02
 10
1395110.24
 20
359735.87
 10
1395102.89
 20
359705.23
 10
1395050.21
 20
359719.52
 10
1395057.02
 20
359750.02
  0
LWPOLYLINE
  5
133
330
17
100
AcDbEntity
  8
0
100
AcDbPolyline
 90
12
 70
1
 10
1394341.95
 20
360758.93
 10
1394348.13
 20
360756.39
 10
1394368.55
 20
360754.0
 10
1394371.45
 20
360761.63
 10
1394371.18
 20
360768.98
 10
1394361.96
 20
360790.46
 10
1394327.92
 20
360784.78
 10
1394325.78
 20
360787.06
 10
1394310.75
 20
360784.69
 10
1394309.25
 20
360770.87
 10
1394339.34
 20
360758.07
 10
1394341.95
 20
360758.93
  0
LWPOLYLINE
  5
134
330
17
100
AcDbEntity
  8
0
100
AcDbPolyline
 90
5
 70
1
 10
1395451.98
 20
359754.7
 10
1395446.66
 20
359767.65
 10
1395433.71
 20
359762.32
 10
1395439.04
 20
359749.38
 10
1395451.98
 20
359754.7
  0
LWPOLYLINE
  5
135
330
17
100
AcDbEntity
  8
0
100
AcDbPolyline
 90
12
 70
1
 10
1394534.79
 20
359788.92
 10
1394544.69
 20
359828.6
 10
1394603.81
 20
359814.46
 10
1394603.47
 20
359813.0
 10
1394599.46
 20
359797.21
 10
1394599.25
 20
359796.3
 10
1394599.58
 20
359796.23
 10
1394596.72
 20
359785.93
 10
1394599.12
 20
359784.94
 10
1394595.69
 20
359774.17
 10
1394542.5
 20
359786.99
 10
1394534.79
 20
359788.92
  0
LWPOLYLINE
  5
136
330
17
100
AcDbEntity
  8
0
100
AcDbPolyline
 90
10
 70
1
 10
1394218.84
 20
359603.08
 10
1394229.02
 20
359615.37
 10
1394246.46
 20
359591.25
 10
1394244.16
 20
359589.75
 10
1394232.13
 20
359580.93
 10
1394230.41
 20
359580.9
 10
1394226.8
 20
359584.55
 10
1394225.24
 20
359587.11
 10
1394223.58
 20
359589.82
 10
1394218.84
 20
359603.08
  0
LWPOLYLINE
  5
137
330
17
100
AcDbEntity
  8
0
100
AcDbPolyline
 90
9
 70
1
 10
1396944.63
 20
360089.39
 10
1396947.44
 20
360088.04
 10
1396948.56
 20
360087.25
 10
1396962.19
 20
360083.1
 10
1396968.35
 20
360081.23
 10
1396963.17
 20
360067.54
 10
1396955.06
 20
360043.78
 10
1396931.74
 20
360051.69
 10
1396944.63
 20
360089.39
  0
LWPOLYLINE
  5
138
330
17
100
AcDbEntity
  8
0
100
AcDbPolyline
 90
6
 70
1
 10
1394817.94
 20
359835.88
 10
1394851.29
 20
359830.84
 10
1394868.44
 20
359829.87
 10
1394852.46
 20
359768.27
 10
1394804.39
 20
359780.26
 10
1394817.94
 20
359835.88
  0
LWPOLYLINE
  5
139
330
17
100
AcDbEntity
  8
0
100
AcDbPolyline
 90
39
 70
1
 10
1396293.04
 20
359682.49
 10
1396297.64
 20
359684.42
 10
1396293.58
 20
359695.64
 10
1396289.64
 20
359694.18
 10
1396288.95
 20
359696.24
 10
1396280.43
 20
359693.33
 10
1396281.29
 20
359691.08
 10
1396274.93
 20
359688.82
 10
1396273.91
 20
359691.29
 10
1396261.5
 20
359687.31
 10
1396262.29
 20
359685.05
 10
1396255.78
 20
359682.7
 10
1396255.03
 20
359684.69
 10
1396248.42
 20
359682.56
 10
1396249.1
 20
359680.6
 10
1396218.09
 20
359669.15
 10
1396193.11
 20
359660.7
 10
1396198.56
 20
359644.76
 10
1396223.6
 20
359653.57
 10
1396230.11
 20
359637.22
 10
1396227.15
 20
359636.03
 10
1396228.4
 20
359632.15
 10
1396241.52
 20
359638.27
 10
1396233.0
 20
359661.2
 10
1396248.85
 20
359667.14
 10
1396259.91
 20
359636.66
 10
1396280.17
 20
359643.61
 10
1396268.76
 20
359674.18
 10
1396280.49
 20
359678.47
 10
1396279.75
 20
359680.19
 10
1396284.04
 20
359681.84
 10
1396286.26
 20
359676.12
 10
1396284.56
 20
359674.85
 10
1396286.32
 20
359670.69
 10
1396292.36
 20
359654.09
 10
1396306.98
 20
359659.56
 10
1396299.53
 20
359680.35
 10
1396294.78
 20
359678.56
 10
1396293.04
 20
359682.49
  0
LWPOLYLINE
  5
13A
330
17
100
AcDbEntity
  8
0
100
AcDbPolyline
 90
7
 70
1
 10
1395654.95
 20
359618.23
 10
1395661.13
 20
359640.26
 10
1395641.19
 20
359645.21
 10
1395635.65
 20
359623.71
 10
1395640.85
 20
359618.55
 10
1395649.77
 20
359616.36
 10
1395654.95
 20
359618.23
  0
LWPOLYLINE
  5
13B
330
17
100
AcDbEntity
  8
0
100
AcDbPolyline
 90
31
 70
1
 10
1395422.66
 20
360277.56
 10
1395441.15
 20
360273.98
 10
1395443.37
 20
360266.7
 10
1395442.68
 20
360263.32
 10
1395464.71
 20
360258.24
 10
1395463.35
 20
360252.19
 10
1395462.82
 20
360249.87
 10
1395460.0
 20
360237.37
 10
1395457.5
 20
360225.89
 10
1395456.69
 20
360222.23
 10
1395455.58
 20
360217.45
 10
1395445.99
 20
360218.15
 10
1395442.74
 20
360218.64
 10
1395432.36
 20
360221.33
 10
1395425.15
 20
360223.37
 10
1395419.97
 20
360224.77
 10
1395415.97
 20
360226.03
 10
1395413.24
 20
360227.56
 10
1395409.8
 20
360230.2
 10
1395406.34
 20
360233.44
 10
1395405.52
 20
360234.35
 10
1395408.0
 20
360237.41
 10
1395409.0
 20
360240.6
 10
1395406.62
 20
360241.35
 10
1395406.7
 20
360241.8
 10
1395410.77
 20
360262.96
 10
1395411.76
 20
360268.14
 10
1395414.72
 20
360267.44
 10
1395416.01
 20
360273.78
 10
1395418.2
 20
360273.12
 10
1395422.66
 20
360277.56
  0
LWPOLYLINE
  5
13C
330
17
100
AcDbEntity
  8
0
100
AcDbPolyline
 90
7
 70
1
 10
1395583.96
 20
359909.46
 10
1395563.69
 20
359830.96
 10
1395609.32
 20
359819.31
 10
1395616.04
 20
359848.21
 10
1395645.3
 20
359841.69
 10
1395657.77
 20
359891.8
 10
1395583.96
 20
359909.46
  0
LWPOLYLINE
  5
13D
330
17
100
AcDbEntity
  8
0
100
AcDbPolyline
 90
7
 70
1
 10
1395168.44
 20
359649.05
 10
1395180.24
 20
359646.34
 10
1395181.88
 20
359654.11
 10
1395198.68
 20
359649.99
 10
1395202.5
 20
359665.91
 10
1395174.1
 20
359672.68
 10
1395168.44
 20
359649.05
  0
LWPOLYLINE
  5
13E
330
17
100
AcDbEntity
  8
0
100
AcDbPolyline
 90
2
 70
0
 10
1395617.25
 20
358612.62
 10
1395603.25
 20
358612.41
  0
LWPOLYLINE
  5
13F
330
17
100
AcDbEntity
  8
0
100
AcDbPolyline
 90
5
 70
1
 10
1395617.32
 20
358607.67
 10
1395603.32
 20
358607.45
 10
1395603.44
 20
358600.08
 10
1395617.44
 20
358600.3
 10
1395617.32
 20
358607.67
  0
LWPOLYLINE
  5
140
330
17
100
AcDbEntity
  8
0
100
AcDbPolyline
 90
2
 70
0
 10
1395617.65
 20
358586.17
 10
1395603.65
 20
358585.96
  0
ENDSEC
  0
SECTION
  2
OBJECTS
  0
DICTIONARY
  5
A
330
0
100
AcDbDictionary
280
0
281
1
  3
ACAD_COLOR
350
B
  3
ACAD_GROUP
350
C
  3
ACAD_LAYOUT
350
D
  3
ACAD_MATERIAL
350
E
  3
ACAD_MLEADERSTYLE
350
F
  3
ACAD_MLINESTYLE
350
10
  3
ACAD_PLOTSETTINGS
350
11
  3
ACAD_PLOTSTYLENAME
350
12
  3
ACAD_SCALELIST
350
14
  3
ACAD_TABLESTYLE
350
15
  3
ACAD_VISUALSTYLE
350
16
  3
EZDXF_META
350
2D
  0
DICTIONARY
  5
B
330
A
100
AcDbDictionary
280
0
281
1
  0
DICTIONARY
  5
C
330
A
100
AcDbDictionary
280
0
281
1
  0
DICTIONARY
  5
D
330
A
100
AcDbDictionary
280
0
281
1
  3
Model
350
1A
  3
Layout1
350
1E
  0
DICTIONARY
  5
E
330
A
100
AcDbDictionary
280
0
281
1
  3
ByBlock
350
1F
  3
ByLayer
350
20
  3
Global
350
21
  0
DICTIONARY
  5
F
330
A
100
AcDbDictionary
280
0
281
1
  3
Standard
350
2C
  0
DICTIONARY
  5
10
330
A
100
AcDbDictionary
280
0
281
1
  3
Standard
350
22
  0
DICTIONARY
  5
11
330
A
100
AcDbDictionary
280
0
281
1
  0
ACDBDICTIONARYWDFLT
  5
12
330
A
100
AcDbDictionary
280
0
281
1
  3
Normal
350
13
100
AcDbDictionaryWithDefault
340
13
  0
ACDBPLACEHOLDER
  5
13
330
12
  0
DICTIONARY
  5
14
330
A
100
AcDbDictionary
280
0
281
1
  0
DICTIONARY
  5
15
330
A
100
AcDbDictionary
280
0
281
1
  0
DICTIONARY
  5
16
330
A
100
AcDbDictionary
280
0
281
1
  0
LAYOUT
  5
1A
330
D
100
AcDbPlotSettings
  1

  4
A3
  6

 40
7.5
 41
20.0
 42
7.5
 43
20.0
 44
420.0
 45
297.0
 46
0.0
 47
0.0
 48
0.0
 49
0.0
140
0.0
141
0.0
142
1.0
143
1.0
 70
1024
 72
1
 73
0
 74
5
  7

 75
16
 76
0
 77
2
 78
300
147
1.0
148
0.0
149
0.0
100
AcDbLayout
  1
Model
 70
1
 71
0
 10
0.0
 20
0.0
 11
420.0
 21
297.0
 12
0.0
 22
0.0
 32
0.0
 14
1e+20
 24
1e+20
 34
1e+20
 15
-1e+20
 25
-1e+20
 35
-1e+20
146
0.0
 13
0.0
 23
0.0
 33
0.0
 16
1.0
 26
0.0
 36
0.0
 17
0.0
 27
1.0
 37
0.0
 76
1
330
17
  0
LAYOUT
  5
1E
330
D
100
AcDbPlotSettings
  1

  4
A3
  6

 40
7.5
 41
20.0
 42
7.5
 43
20.0
 44
420.0
 45
297.0
 46
0.0
 47
0.0
 48
0.0
 49
0.0
140
0.0
141
0.0
142
1.0
143
1.0
 70
0
 72
1
 73
0
 74
5
  7

 75
16
 76
0
 77
2
 78
300
147
1.0
148
0.0
149
0.0
100
AcDbLayout
  1
Layout1
 70
1
 71
1
 10
0.0
 20
0.0
 11
420.0
 21
297.0
 12
0.0
 22
0.0
 32
0.0
 14
1e+20
 24
1e+20
 34
1e+20
 15
-1e+20
 25
-1e+20
 35
-1e+20
146
0.0
 13
0.0
 23
0.0
 33
0.0
 16
1.0
 26
0.0
 36
0.0
 17
0.0
 27
1.0
 37
0.0
 76
1
330
1B
  0
MATERIAL
  5
1F
102
{ACAD_REACTORS
330
E
102
}
330
E
100
AcDbMaterial
  1
ByBlock
  2

 70
0
 40
1.0
 71
1
 41
1.0
 91
-1023410177
 42
1.0
 72
1
  3

 73
1
 74
1
 75
1
 44
0.5
 73
0
 45
1.0
 46
1.0
 77
1
  4

 78
1
 79
1
170
1
 48
1.0
171
1
  6

172
1
173
1
174
1
140
1.0
141
1.0
175
1
  7

176
1
177
1
178
1
143
1.0
179
1
  8

270
1
271
1
272
1
145
1.0
146
1.0
273
1
  9

274
1
275
1
276
1
 42
1.0
 72
1
  3

 73
1
 74
1
 75
1
 94
63
  0
MATERIAL
  5
20
102
{ACAD_REACTORS
330
E
102
}
330
E
100
AcDbMaterial
  1
ByLayer
  2

 70
0
 40
1.0
 71
1
 41
1.0
 91
-1023410177
 42
1.0
 72
1
  3

 73
1
 74
1
 75
1
 44
0.5
 73
0
 45
1.0
 46
1.0
 77
1
  4

 78
1
 79
1
170
1
 48
1.0
171
1
  6

172
1
173
1
174
1
140
1.0
141
1.0
175
1
  7

176
1
177
1
178
1
143
1.0
179
1
  8

270
1
271
1
272
1
145
1.0
146
1.0
273
1
  9

274
1
275
1
276
1
 42
1.0
 72
1
  3

 73
1
 74
1
 75
1
 94
63
  0
MATERIAL
  5
21
102
{ACAD_REACTORS
330
E
102
}
330
E
100
AcDbMaterial
  1
Global
  2

 70
0
 40
1.0
 71
1
 41
1.0
 91
-1023410177
 42
1.0
 72
1
  3

 73
1
 74
1
 75
1
 44
0.5
 73
0
 45
1.0
 46
1.0
 77
1
  4

 78
1
 79
1
170
1
 48
1.0
171
1
  6

172
1
173
1
174
1
140
1.0
141
1.0
175
1
  7

176
1
177
1
178
1
143
1.0
179
1
  8

270
1
271
1
272
1
145
1.0
146
1.0
273
1
  9

274
1
275
1
276
1
 42
1.0
 72
1
  3

 73
1
 74
1
 75
1
 94
63
  0
MLINESTYLE
  5
22
102
{ACAD_REACTORS
330
10
102
}
330
10
100
AcDbMlineStyle
  2
Standard
 70
0
  3

 62
256
 51
90.0
 52
90.0
 71
2
 49
0.5
 62
256
  6
BYLAYER
 49
-0.5
 62
256
  6
BYLAYER
  0
MLEADERSTYLE
  5
2C
102
{ACAD_REACTORS
330
F
102
}
330
F
100
AcDbMLeaderStyle
179
2
170
2
171
1
172
0
 90
2
 40
0.0
 41
0.0
173
1
 91
-1056964608
 92
-2
290
1
 42
2.0
291
1
 43
8.0
  3
Standard
 44
4.0
300

342
29
174
1
175
1
176
0
178
1
 93
-1056964608
 45
4.0
292
0
297
0
 46
4.0
 94
-1056964608
 47
1.0
 49
1.0
140
1.0
294
1
141
0.0
177
0
142
1.0
295
0
296
0
143
3.75
271
0
272
9
273
9
  0
DICTIONARY
  5
2D
330
A
100
AcDbDictionary
281
1
  3
CREATED_BY_EZDXF
350
2E
  3
WRITTEN_BY_EZDXF
350
143
  0
DICTIONARYVAR
  5
2E
330
2D
100
DictionaryVariables
280
0
  1
1.3.4 @ 2025-07-16T01:27:47.082850+00:00
  0
DICTIONARYVAR
  5
143
330
2D
100
DictionaryVariables
280
0
  1
1.3.4 @ 2025-07-16T01:27:47.118044+00:00
  0
ENDSEC
  0
EOF
