  0
SECTION
  2
HEADER
  9
$ACADVER
  1
AC1018
  9
$ACADMAINTVER
 70
     0
  9
$DWGCODEPAGE
  3
ANSI_1252
  9
$EXTMIN
 10
1391569.86619402
 20
354923.279883785
 30
0.0
  9
$EXTMAX
 10
1399704.89113733
 20
360775.894550896
 30
0.0
  9
$LIMMIN
 10
0.0
 20
0.0
  9
$LIMMAX
 10
12.0
 20
9.0
  9
$ORTHOMODE
 70
     0
  9
$REGENMODE
 70
     1
  9
$FILLMODE
 70
     1
  9
$QTEXTMODE
 70
     0
  9
$MIRRTEXT
 70
     1
  9
$LTSCALE
 40
1.0
  9
$ATTMODE
 70
     1
  9
$TEXTSIZE
 40
0.2
  9
$TRACEWID
 40
0.05
  9
$TEXTSTYLE
  7
Standard
  9
$CLAYER
  8
0
  9
$CELTYPE
  6
ByLayer
  9
$CECOLOR
 62
   256
  9
$CELTSCALE
 40
1.0
  9
$DISPSILH
 70
     0
  9
$LUNITS
 70
     2
  9
$LUPREC
 70
     4
  9
$SKETCHINC
 40
0.1
  9
$FILLETRAD
 40
0.5
  9
$AUNITS
 70
     0
  9
$AUPREC
 70
     0
  9
$MENU
  1
.
  9
$ELEVATION
 40
0.0
  9
$PELEVATION
 40
0.0
  9
$THICKNESS
 40
0.0
  9
$LIMCHECK
 70
     0
  9
$CHAMFERA
 40
0.5
  9
$CHAMFERB
 40
0.5
  9
$CHAMFERC
 40
1.0
  9
$CHAMFERD
 40
0.0
  9
$SKPOLY
 70
     0
  9
$ANGBASE
 50
0.0
  9
$ANGDIR
 70
     0
  9
$PDMODE
 70
     0
  9
$PDSIZE
 40
0.0
  9
$PLINEWID
 40
0.0
  9
$SPLFRAME
 70
     0
  9
$SPLINETYPE
 70
     6
  9
$SPLINESEGS
 70
     8
  9
$HANDSEED
  5
00020212
  9
$SURFTAB1
 70
     6
  9
$SURFTAB2
 70
     6
  9
$SURFTYPE
 70
     6
  9
$SURFU
 70
     6
  9
$SURFV
 70
     6
  9
$UCSBASE
  2

  9
$UCSNAME
  2

  9
$UCSORG
 10
0.0
 20
0.0
 30
0.0
  9
$UCSXDIR
 10
1.0
 20
0.0
 30
0.0
  9
$UCSYDIR
 10
0.0
 20
1.0
 30
0.0
  9
$UCSORTHOREF
  2

  9
$UCSORTHOVIEW
 70
     0
  9
$UCSORGTOP
 10
0.0
 20
0.0
 30
0.0
  9
$UCSORGBOTTOM
 10
0.0
 20
0.0
 30
0.0
  9
$UCSORGLEFT
 10
0.0
 20
0.0
 30
0.0
  9
$UCSORGRIGHT
 10
0.0
 20
0.0
 30
0.0
  9
$UCSORGFRONT
 10
0.0
 20
0.0
 30
0.0
  9
$UCSORGBACK
 10
0.0
 20
0.0
 30
0.0
  9
$PUCSBASE
  2

  9
$PUCSNAME
  2

  9
$PUCSORG
 10
0.0
 20
0.0
 30
0.0
  9
$PUCSXDIR
 10
1.0
 20
0.0
 30
0.0
  9
$PUCSYDIR
 10
0.0
 20
1.0
 30
0.0
  9
$PUCSORTHOREF
  2

  9
$PUCSORTHOVIEW
 70
     0
  9
$PUCSORGTOP
 10
0.0
 20
0.0
 30
0.0
  9
$PUCSORGBOTTOM
 10
0.0
 20
0.0
 30
0.0
  9
$PUCSORGLEFT
 10
0.0
 20
0.0
 30
0.0
  9
$PUCSORGRIGHT
 10
0.0
 20
0.0
 30
0.0
  9
$PUCSORGFRONT
 10
0.0
 20
0.0
 30
0.0
  9
$PUCSORGBACK
 10
0.0
 20
0.0
 30
0.0
  9
$WORLDVIEW
 70
     1
  9
$SHADEDGE
 70
     3
  9
$SHADEDIF
 70
    70
  9
$TILEMODE
 70
     1
  9
$MAXACTVP
 70
    64
  9
$PINSBASE
 10
0.0
 20
0.0
 30
0.0
  9
$PLIMCHECK
 70
     0
  9
$PEXTMIN
 10
1.000000000000000E+20
 20
1.000000000000000E+20
 30
1.000000000000000E+20
  9
$PEXTMAX
 10
-1.000000000000000E+20
 20
-1.000000000000000E+20
 30
-1.000000000000000E+20
  9
$PLIMMIN
 10
0.0
 20
0.0
  9
$PLIMMAX
 10
12.0
 20
9.0
  9
$UNITMODE
 70
     0
  9
$VISRETAIN
 70
     1
  9
$PLINEGEN
 70
     0
  9
$PSLTSCALE
 70
     1
  9
$TREEDEPTH
 70
  3020
  9
$CMLSTYLE
  2
Standard
  9
$CMLJUST
 70
     0
  9
$CMLSCALE
 40
1.0
  9
$PROXYGRAPHICS
 70
     1
  9
$MEASUREMENT
 70
     0
  9
$CELWEIGHT
370
    -1
  9
$ENDCAPS
280
     0
  9
$JOINSTYLE
280
     0
  9
$LWDISPLAY
290
     0
  9
$INSUNITS
 70
     1
  9
$HYPERLINKBASE
  1

  9
$STYLESHEET
  1

  9
$XEDIT
290
     1
  9
$CEPSNTYPE
380
     0
  9
$PSTYLEMODE
290
     1
  9
$EXTNAMES
290
     1
  9
$PSVPSCALE
 40
0.0
  9
$OLESTARTUP
290
     0
  9
$SORTENTS
280
   127
  9
$INDEXCTL
280
     0
  9
$HIDETEXT
280
     1
  9
$XCLIPFRAME
290
     0
  9
$HALOGAP
280
     0
  9
$OBSCOLOR
 70
   257
  9
$OBSLTYPE
280
     0
  9
$INTERSECTIONDISPLAY
280
     0
  9
$INTERSECTIONCOLOR
 70
   257
  9
$DIMASSOC
280
     2
  9
$PROJECTNAME
  1

  0
ENDSEC
  0
SECTION
  2
CLASSES
  0
CLASS
  1
ACDBDICTIONARYWDFLT
  2
AcDbDictionaryWithDefault
  3
ObjectDBX Classes
 90
        0
 91
        4
280
     0
281
     0
  0
ENDSEC
  0
SECTION
  2
TABLES
  0
TABLE
  2
VPORT
  5
8
330
0
100
AcDbSymbolTable
 70
     1
  0
VPORT
  5
29
330
8
100
AcDbSymbolTableRecord
100
AcDbViewportTableRecord
  2
*Active
 70
     0
 10
0.0
 20
0.0
 11
1.0
 21
1.0
 12
80.25
 22
106.4409457059851
 13
0.0
 23
0.0
 14
0.5
 24
0.5
 15
0.5
 25
0.5
 16
0.0
 26
0.0
 36
1.0
 17
0.0
 27
0.0
 37
0.0
 40
113.3818914119703
 41
0.8863849310366128
 42
50.0
 43
0.0
 44
0.0
 50
0.0
 51
0.0
 71
     0
 72
  1000
 73
     1
 74
     3
 75
     0
 76
     0
 77
     0
 78
     0
281
     0
 65
     1
110
0.0
120
0.0
130
0.0
111
1.0
121
0.0
131
0.0
112
0.0
122
1.0
132
0.0
 79
     0
146
0.0
  0
ENDTAB
  0
TABLE
  2
LTYPE
  5
5
330
0
100
AcDbSymbolTable
 70
     1
  0
LTYPE
  5
14
330
5
100
AcDbSymbolTableRecord
100
AcDbLinetypeTableRecord
  2
ByBlock
 70
     0
  3

 72
    65
 73
     0
 40
0.0
  0
LTYPE
  5
15
330
5
100
AcDbSymbolTableRecord
100
AcDbLinetypeTableRecord
  2
ByLayer
 70
     0
  3

 72
    65
 73
     0
 40
0.0
  0
LTYPE
  5
16
330
5
100
AcDbSymbolTableRecord
100
AcDbLinetypeTableRecord
  2
Continuous
 70
     0
  3
Solid line
 72
    65
 73
     0
 40
0.0
  0
ENDTAB
  0
TABLE
  2
LAYER
  5
2
330
0
100
AcDbSymbolTable
 70
     1
  0
LAYER
  5
10
330
2
100
AcDbSymbolTableRecord
100
AcDbLayerTableRecord
  2
0
 70
     0
 62
     7
  6
Continuous
370
    -3
390
F
  0
ENDTAB
  0
TABLE
  2
STYLE
  5
3
330
0
100
AcDbSymbolTable
 70
     1
  0
STYLE
  5
11
330
3
100
AcDbSymbolTableRecord
100
AcDbTextStyleTableRecord
  2
Standard
 70
     0
 40
0.0
 41
1.0
 50
0.0
 71
     0
 42
0.2
  3
txt
  4

  0
ENDTAB
  0
TABLE
  2
VIEW
  5
6
330
0
100
AcDbSymbolTable
 70
     0
  0
ENDTAB
  0
TABLE
  2
UCS
  5
7
330
0
100
AcDbSymbolTable
 70
     0
  0
ENDTAB
  0
TABLE
  2
APPID
  5
9
330
0
100
AcDbSymbolTable
 70
     1
  0
APPID
  5
12
330
9
100
AcDbSymbolTableRecord
100
AcDbRegAppTableRecord
  2
ACAD
 70
     0
  0
ENDTAB
  0
TABLE
  2
DIMSTYLE
  5
A
330
0
100
AcDbSymbolTable
 70
     1
100
AcDbDimStyleTable
  0
DIMSTYLE
105
27
330
A
100
AcDbSymbolTableRecord
100
AcDbDimStyleTableRecord
  2
Standard
 70
     0
340
11
  0
ENDTAB
  0
TABLE
  2
BLOCK_RECORD
  5
1
330
0
100
AcDbSymbolTable
 70
     1
  0
BLOCK_RECORD
  5
1F
330
1
100
AcDbSymbolTableRecord
100
AcDbBlockTableRecord
  2
*Model_Space
340
22
  0
BLOCK_RECORD
  5
1B
330
1
100
AcDbSymbolTableRecord
100
AcDbBlockTableRecord
  2
*Paper_Space
340
1E
  0
ENDTAB
  0
ENDSEC
  0
SECTION
  2
BLOCKS
  0
BLOCK
  5
20
330
1F
100
AcDbEntity
  8
0
100
AcDbBlockBegin
  2
*Model_Space
 70
     0
 10
0.0
 20
0.0
 30
0.0
  3
*Model_Space
  1

  0
ENDBLK
  5
21
330
1F
100
AcDbEntity
  8
0
100
AcDbBlockEnd
  0
BLOCK
  5
1C
330
1B
100
AcDbEntity
 67
     1
  8
0
100
AcDbBlockBegin
  2
*Paper_Space
 70
     0
 10
0.0
 20
0.0
 30
0.0
  3
*Paper_Space
  1

  0
ENDBLK
  5
1D
330
1B
100
AcDbEntity
 67
     1
  8
0
100
AcDbBlockEnd
  0
ENDSEC
  0
SECTION
  2
ENTITIES
  0
POINT
  5
20000
100
AcDbEntity
  8
0
100
AcDbPoint
 10
1394617.33425694
 20
359263.198419911
  0
POINT
  5
20001
100
AcDbEntity
  8
0
100
AcDbPoint
 10
1394658.08931245
 20
359075.935834467
  0
POINT
  5
20002
100
AcDbEntity
  8
0
100
AcDbPoint
 10
1394614.56824273
 20
359108.917290153
  0
POINT
  5
20003
100
AcDbEntity
  8
0
100
AcDbPoint
 10
1394251.99075683
 20
359224.566250893
  0
POINT
  5
20004
100
AcDbEntity
  8
0
100
AcDbPoint
 10
1394273.1034801
 20
359196.24503982
  0
POINT
  5
20005
100
AcDbEntity
  8
0
100
AcDbPoint
 10
1394185.21672051
 20
359281.513868605
  0
POINT
  5
20006
100
AcDbEntity
  8
0
100
AcDbPoint
 10
1394307.335762
 20
359269.626811078
  0
POINT
  5
20007
100
AcDbEntity
  8
0
100
AcDbPoint
 10
1394269.06183588
 20
359331.673594922
  0
POINT
  5
20008
100
AcDbEntity
  8
0
100
AcDbPoint
 10
1394300.59019947
 20
359316.578945775
  0
POINT
  5
20009
100
AcDbEntity
  8
0
100
AcDbPoint
 10
1394255.52219169
 20
359320.717486055
  0
POINT
  5
2000A
100
AcDbEntity
  8
0
100
AcDbPoint
 10
1394106.79613005
 20
359254.073459759
  0
POINT
  5
2000B
100
AcDbEntity
  8
0
100
AcDbPoint
 10
1394384.4294999
 20
359248.949172497
  0
POINT
  5
2000C
100
AcDbEntity
  8
0
100
AcDbPoint
 10
1394361.33143763
 20
358984.545355698
  0
POINT
  5
2000D
100
AcDbEntity
  8
0
100
AcDbPoint
 10
1394660.48519695
 20
359042.438688064
  0
POINT
  5
2000E
100
AcDbEntity
  8
0
100
AcDbPoint
 10
1394495.2722582
 20
359172.820949017
  0
POINT
  5
2000F
100
AcDbEntity
  8
0
100
AcDbPoint
 10
1394728.65417005
 20
359199.610025214
  0
POINT
  5
20010
100
AcDbEntity
  8
0
100
AcDbPoint
 10
1394837.01729464
 20
359215.882647065
  0
POINT
  5
20011
100
AcDbEntity
  8
0
100
AcDbPoint
 10
1394727.99158502
 20
358927.702034799
  0
POINT
  5
20012
100
AcDbEntity
  8
0
100
AcDbPoint
 10
1394181.81767606
 20
358530.570014742
  0
POINT
  5
20013
100
AcDbEntity
  8
0
100
AcDbPoint
 10
1394283.72734897
 20
358628.065033379
  0
POINT
  5
20014
100
AcDbEntity
  8
0
100
AcDbPoint
 10
1393823.20337558
 20
358302.655375717
  0
POINT
  5
20015
100
AcDbEntity
  8
0
100
AcDbPoint
 10
1393789.02831973
 20
358268.714567133
  0
POINT
  5
20016
100
AcDbEntity
  8
0
100
AcDbPoint
 10
1393888.67581475
 20
358429.13058842
  0
POINT
  5
20017
100
AcDbEntity
  8
0
100
AcDbPoint
 10
1393174.48791277
 20
357817.612338171
  0
POINT
  5
20018
100
AcDbEntity
  8
0
100
AcDbPoint
 10
1393316.5272027
 20
357373.293198696
  0
POINT
  5
20019
100
AcDbEntity
  8
0
100
AcDbPoint
 10
1393391.74744477
 20
357388.933549937
  0
POINT
  5
2001A
100
AcDbEntity
  8
0
100
AcDbPoint
 10
1393205.83637055
 20
357096.636128859
  0
POINT
  5
2001B
100
AcDbEntity
  8
0
100
AcDbPoint
 10
1393238.27855764
 20
357067.196340762
  0
POINT
  5
2001C
100
AcDbEntity
  8
0
100
AcDbPoint
 10
1393168.54749029
 20
356987.343940452
  0
POINT
  5
2001D
100
AcDbEntity
  8
0
100
AcDbPoint
 10
1393219.6868486
 20
357007.240183779
  0
POINT
  5
2001E
100
AcDbEntity
  8
0
100
AcDbPoint
 10
1393133.52326175
 20
356882.585081636
  0
POINT
  5
2001F
100
AcDbEntity
  8
0
100
AcDbPoint
 10
1392101.55994957
 20
356005.854372121
  0
POINT
  5
20020
100
AcDbEntity
  8
0
100
AcDbPoint
 10
1392242.25209243
 20
356393.1434407
  0
POINT
  5
20021
100
AcDbEntity
  8
0
100
AcDbPoint
 10
1392600.98022283
 20
356204.111697391
  0
POINT
  5
20022
100
AcDbEntity
  8
0
100
AcDbPoint
 10
1392663.38787128
 20
356149.209079545
  0
POINT
  5
20023
100
AcDbEntity
  8
0
100
AcDbPoint
 10
1393311.23116769
 20
357208.959514859
  0
POINT
  5
20024
100
AcDbEntity
  8
0
100
AcDbPoint
 10
1393364.82086057
 20
357149.310738379
  0
POINT
  5
20025
100
AcDbEntity
  8
0
100
AcDbPoint
 10
1393817.6945167
 20
358493.643207721
  0
POINT
  5
20026
100
AcDbEntity
  8
0
100
AcDbPoint
 10
1394113.95586153
 20
358683.222315593
  0
POINT
  5
20027
100
AcDbEntity
  8
0
100
AcDbPoint
 10
1392230.62514215
 20
356000.698372075
  0
POINT
  5
20028
100
AcDbEntity
  8
0
100
AcDbPoint
 10
1393255.95491791
 20
357935.100631218
  0
POINT
  5
20029
100
AcDbEntity
  8
0
100
AcDbPoint
 10
1393091.55600589
 20
356906.792695445
  0
POINT
  5
2002A
100
AcDbEntity
  8
0
100
AcDbPoint
 10
1393119.08495552
 20
356976.073138437
  0
POINT
  5
2002B
100
AcDbEntity
  8
0
100
AcDbPoint
 10
1394612.52184907
 20
359235.156908379
  0
POINT
  5
2002C
100
AcDbEntity
  8
0
100
AcDbPoint
 10
1394259.69357807
 20
359252.498222871
  0
POINT
  5
2002D
100
AcDbEntity
  8
0
100
AcDbPoint
 10
1394232.43585455
 20
359230.255153835
  0
POINT
  5
2002E
100
AcDbEntity
  8
0
100
AcDbPoint
 10
1391940.87730406
 20
355910.49154556
  0
POINT
  5
2002F
100
AcDbEntity
  8
0
100
AcDbPoint
 10
1391587.20015833
 20
355674.251553687
  0
POINT
  5
20030
100
AcDbEntity
  8
0
100
AcDbPoint
 10
1392282.70016645
 20
356554.547610253
  0
POINT
  5
20031
100
AcDbEntity
  8
0
100
AcDbPoint
 10
1394562.02534171
 20
359281.563473615
  0
POINT
  5
20032
100
AcDbEntity
  8
0
100
AcDbPoint
 10
1391569.86619402
 20
355629.779432165
  0
POINT
  5
20033
100
AcDbEntity
  8
0
100
AcDbPoint
 10
1394229.38079743
 20
359581.587363145
  0
POINT
  5
20034
100
AcDbEntity
  8
0
100
AcDbPoint
 10
1394629.34150102
 20
359703.941253475
  0
POINT
  5
20035
100
AcDbEntity
  8
0
100
AcDbPoint
 10
1394426.00566002
 20
359725.903403774
  0
POINT
  5
20036
100
AcDbEntity
  8
0
100
AcDbPoint
 10
1394446.1294324
 20
359696.416406082
  0
POINT
  5
20037
100
AcDbEntity
  8
0
100
AcDbPoint
 10
1394639.20185606
 20
359475.005801035
  0
POINT
  5
20038
100
AcDbEntity
  8
0
100
AcDbPoint
 10
1394369.96027814
 20
359500.04358127
  0
POINT
  5
20039
100
AcDbEntity
  8
0
100
AcDbPoint
 10
1394493.89481862
 20
359523.65554335
  0
POINT
  5
2003A
100
AcDbEntity
  8
0
100
AcDbPoint
 10
1394360.01118109
 20
359730.757177925
  0
POINT
  5
2003B
100
AcDbEntity
  8
0
100
AcDbPoint
 10
1395380.150919
 20
359423.352727996
  0
POINT
  5
2003C
100
AcDbEntity
  8
0
100
AcDbPoint
 10
1395343.49056439
 20
359612.01734894
  0
POINT
  5
2003D
100
AcDbEntity
  8
0
100
AcDbPoint
 10
1395418.21266879
 20
359594.182263117
  0
POINT
  5
2003E
100
AcDbEntity
  8
0
100
AcDbPoint
 10
1394667.1280823
 20
359311.676572464
  0
POINT
  5
2003F
100
AcDbEntity
  8
0
100
AcDbPoint
 10
1394731.49280057
 20
359342.769231863
  0
POINT
  5
20040
100
AcDbEntity
  8
0
100
AcDbPoint
 10
1394727.31397038
 20
359419.964340387
  0
POINT
  5
20041
100
AcDbEntity
  8
0
100
AcDbPoint
 10
1394738.74512769
 20
359469.003819958
  0
POINT
  5
20042
100
AcDbEntity
  8
0
100
AcDbPoint
 10
1394760.55097568
 20
359545.301524251
  0
POINT
  5
20043
100
AcDbEntity
  8
0
100
AcDbPoint
 10
1394700.02848276
 20
359461.574734054
  0
POINT
  5
20044
100
AcDbEntity
  8
0
100
AcDbPoint
 10
1394787.86680608
 20
359657.573827703
  0
POINT
  5
20045
100
AcDbEntity
  8
0
100
AcDbPoint
 10
1394773.94807938
 20
359583.449056982
  0
POINT
  5
20046
100
AcDbEntity
  8
0
100
AcDbPoint
 10
1394681.09665055
 20
359531.550585763
  0
POINT
  5
20047
100
AcDbEntity
  8
0
100
AcDbPoint
 10
1394835.38495708
 20
359531.864898446
  0
POINT
  5
20048
100
AcDbEntity
  8
0
100
AcDbPoint
 10
1394796.03657837
 20
359501.445239119
  0
POINT
  5
20049
100
AcDbEntity
  8
0
100
AcDbPoint
 10
1394701.99022104
 20
359584.056871886
  0
POINT
  5
2004A
100
AcDbEntity
  8
0
100
AcDbPoint
 10
1394791.51015744
 20
359483.111171826
  0
POINT
  5
2004B
100
AcDbEntity
  8
0
100
AcDbPoint
 10
1394882.57866115
 20
359317.45689433
  0
POINT
  5
2004C
100
AcDbEntity
  8
0
100
AcDbPoint
 10
1394163.16628135
 20
359380.830696077
  0
POINT
  5
2004D
100
AcDbEntity
  8
0
100
AcDbPoint
 10
1394783.42634096
 20
359320.544098884
  0
POINT
  5
2004E
100
AcDbEntity
  8
0
100
AcDbPoint
 10
1393089.43952647
 20
357439.818471854
  0
POINT
  5
2004F
100
AcDbEntity
  8
0
100
AcDbPoint
 10
1395460.82216417
 20
359364.630394702
  0
POINT
  5
20050
100
AcDbEntity
  8
0
100
AcDbPoint
 10
1395380.150919
 20
359423.352727996
  0
POINT
  5
20051
100
AcDbEntity
  8
0
100
AcDbPoint
 10
1391674.62039888
 20
354923.279883785
  0
POINT
  5
20052
100
AcDbEntity
  8
0
100
AcDbPoint
 10
1391721.94633653
 20
356014.328125061
  0
POINT
  5
20053
100
AcDbEntity
  8
0
100
AcDbPoint
 10
1393615.5401973
 20
359571.925388795
  0
POINT
  5
20054
100
AcDbEntity
  8
0
100
AcDbPoint
 10
1394672.71651011
 20
359930.406608784
  0
POINT
  5
20055
100
AcDbEntity
  8
0
100
AcDbPoint
 10
1394667.1280823
 20
359311.676572464
  0
POINT
  5
20056
100
AcDbEntity
  8
0
100
AcDbPoint
 10
1398564.17657662
 20
359479.211594531
  0
POINT
  5
20057
100
AcDbEntity
  8
0
100
AcDbPoint
 10
1398756.05705001
 20
359633.198409195
  0
POINT
  5
20058
100
AcDbEntity
  8
0
100
AcDbPoint
 10
1394558.73468946
 20
359980.297389898
  0
POINT
  5
20059
100
AcDbEntity
  8
0
100
AcDbPoint
 10
1394601.17057448
 20
359972.191168894
  0
POINT
  5
2005A
100
AcDbEntity
  8
0
100
AcDbPoint
 10
1394665.39502354
 20
359952.743933944
  0
POINT
  5
2005B
100
AcDbEntity
  8
0
100
AcDbPoint
 10
1394700.18461222
 20
359953.714768517
  0
POINT
  5
2005C
100
AcDbEntity
  8
0
100
AcDbPoint
 10
1394685.51728261
 20
359957.667658695
  0
POINT
  5
2005D
100
AcDbEntity
  8
0
100
AcDbPoint
 10
1394634.97101693
 20
359923.763519409
  0
POINT
  5
2005E
100
AcDbEntity
  8
0
100
AcDbPoint
 10
1394662.57943529
 20
359915.513008632
  0
POINT
  5
2005F
100
AcDbEntity
  8
0
100
AcDbPoint
 10
1394687.96064068
 20
359908.424418167
  0
POINT
  5
20060
100
AcDbEntity
  8
0
100
AcDbPoint
 10
1394707.05056287
 20
359884.693658126
  0
POINT
  5
20061
100
AcDbEntity
  8
0
100
AcDbPoint
 10
1394666.85741815
 20
359882.199178151
  0
POINT
  5
20062
100
AcDbEntity
  8
0
100
AcDbPoint
 10
1394684.32461772
 20
359866.523672891
  0
POINT
  5
20063
100
AcDbEntity
  8
0
100
AcDbPoint
 10
1394739.69403281
 20
359893.854848838
  0
POINT
  5
20064
100
AcDbEntity
  8
0
100
AcDbPoint
 10
1394717.70440038
 20
359863.294935318
  0
POINT
  5
20065
100
AcDbEntity
  8
0
100
AcDbPoint
 10
1394741.08684265
 20
359858.549343155
  0
POINT
  5
20066
100
AcDbEntity
  8
0
100
AcDbPoint
 10
1394727.50564393
 20
359805.235191754
  0
POINT
  5
20067
100
AcDbEntity
  8
0
100
AcDbPoint
 10
1394717.44916348
 20
359941.901764881
  0
POINT
  5
20068
100
AcDbEntity
  8
0
100
AcDbPoint
 10
1394720.55872494
 20
359981.156412429
  0
POINT
  5
20069
100
AcDbEntity
  8
0
100
AcDbPoint
 10
1394742.32356339
 20
359931.146256241
  0
POINT
  5
2006A
100
AcDbEntity
  8
0
100
AcDbPoint
 10
1394770.18632749
 20
359969.316663984
  0
POINT
  5
2006B
100
AcDbEntity
  8
0
100
AcDbPoint
 10
1394748.17292737
 20
359974.080115974
  0
POINT
  5
2006C
100
AcDbEntity
  8
0
100
AcDbPoint
 10
1394771.54324966
 20
359947.61192108
  0
POINT
  5
2006D
100
AcDbEntity
  8
0
100
AcDbPoint
 10
1394755.08600855
 20
359953.075141276
  0
POINT
  5
2006E
100
AcDbEntity
  8
0
100
AcDbPoint
 10
1394776.12224026
 20
359855.317460107
  0
POINT
  5
2006F
100
AcDbEntity
  8
0
100
AcDbPoint
 10
1394796.1833616
 20
359879.559095765
  0
POINT
  5
20070
100
AcDbEntity
  8
0
100
AcDbPoint
 10
1394792.44630935
 20
359843.659080996
  0
POINT
  5
20071
100
AcDbEntity
  8
0
100
AcDbPoint
 10
1394772.87891991
 20
359886.967322783
  0
POINT
  5
20072
100
AcDbEntity
  8
0
100
AcDbPoint
 10
1394759.36297838
 20
359813.074920389
  0
POINT
  5
20073
100
AcDbEntity
  8
0
100
AcDbPoint
 10
1394780.15969874
 20
359807.021685307
  0
POINT
  5
20074
100
AcDbEntity
  8
0
100
AcDbPoint
 10
1394757.22263726
 20
359847.31363091
  0
POINT
  5
20075
100
AcDbEntity
  8
0
100
AcDbPoint
 10
1394794.7860387
 20
359943.641321185
  0
POINT
  5
20076
100
AcDbEntity
  8
0
100
AcDbPoint
 10
1394792.39462924
 20
359962.864390601
  0
POINT
  5
20077
100
AcDbEntity
  8
0
100
AcDbPoint
 10
1394784.06880678
 20
359950.423266267
  0
POINT
  5
20078
100
AcDbEntity
  8
0
100
AcDbPoint
 10
1394783.36152792
 20
359923.260558804
  0
POINT
  5
20079
100
AcDbEntity
  8
0
100
AcDbPoint
 10
1394853.73952342
 20
359866.448076569
  0
POINT
  5
2007A
100
AcDbEntity
  8
0
100
AcDbPoint
 10
1394887.25160091
 20
359861.090922117
  0
POINT
  5
2007B
100
AcDbEntity
  8
0
100
AcDbPoint
 10
1394901.98000668
 20
359830.314721906
  0
POINT
  5
2007C
100
AcDbEntity
  8
0
100
AcDbPoint
 10
1394847.45892798
 20
359907.465868881
  0
POINT
  5
2007D
100
AcDbEntity
  8
0
100
AcDbPoint
 10
1394851.0573096
 20
359928.880644924
  0
POINT
  5
2007E
100
AcDbEntity
  8
0
100
AcDbPoint
 10
1394869.77102535
 20
359901.673051349
  0
POINT
  5
2007F
100
AcDbEntity
  8
0
100
AcDbPoint
 10
1394957.88710876
 20
359843.078653681
  0
POINT
  5
20080
100
AcDbEntity
  8
0
100
AcDbPoint
 10
1394983.31720604
 20
359835.798271748
  0
POINT
  5
20081
100
AcDbEntity
  8
0
100
AcDbPoint
 10
1394890.14844999
 20
359901.316352652
  0
POINT
  5
20082
100
AcDbEntity
  8
0
100
AcDbPoint
 10
1395041.93116089
 20
359813.921862283
  0
POINT
  5
20083
100
AcDbEntity
  8
0
100
AcDbPoint
 10
1395057.65305075
 20
359865.724605323
  0
POINT
  5
20084
100
AcDbEntity
  8
0
100
AcDbPoint
 10
1395005.6444801
 20
359866.783971757
  0
POINT
  5
20085
100
AcDbEntity
  8
0
100
AcDbPoint
 10
1394983.97903927
 20
359874.473146784
  0
POINT
  5
20086
100
AcDbEntity
  8
0
100
AcDbPoint
 10
1395033.45671127
 20
359861.972055967
  0
POINT
  5
20087
100
AcDbEntity
  8
0
100
AcDbPoint
 10
1395139.7271945
 20
359798.674308919
  0
POINT
  5
20088
100
AcDbEntity
  8
0
100
AcDbPoint
 10
1394731.49280057
 20
359342.769231863
  0
POINT
  5
20089
100
AcDbEntity
  8
0
100
AcDbPoint
 10
1394727.31397038
 20
359419.964340387
  0
POINT
  5
2008A
100
AcDbEntity
  8
0
100
AcDbPoint
 10
1394738.74512769
 20
359469.003819958
  0
POINT
  5
2008B
100
AcDbEntity
  8
0
100
AcDbPoint
 10
1394760.55097568
 20
359545.301524251
  0
POINT
  5
2008C
100
AcDbEntity
  8
0
100
AcDbPoint
 10
1394700.02848276
 20
359461.574734054
  0
POINT
  5
2008D
100
AcDbEntity
  8
0
100
AcDbPoint
 10
1394787.86680608
 20
359657.573827703
  0
POINT
  5
2008E
100
AcDbEntity
  8
0
100
AcDbPoint
 10
1394773.94807938
 20
359583.449056982
  0
POINT
  5
2008F
100
AcDbEntity
  8
0
100
AcDbPoint
 10
1394681.09665055
 20
359531.550585763
  0
POINT
  5
20090
100
AcDbEntity
  8
0
100
AcDbPoint
 10
1394826.47534617
 20
359786.73788325
  0
POINT
  5
20091
100
AcDbEntity
  8
0
100
AcDbPoint
 10
1394851.1844563
 20
359944.363086745
  0
POINT
  5
20092
100
AcDbEntity
  8
0
100
AcDbPoint
 10
1394878.01260433
 20
359942.128940101
  0
POINT
  5
20093
100
AcDbEntity
  8
0
100
AcDbPoint
 10
1394866.16480954
 20
359934.909354372
  0
POINT
  5
20094
100
AcDbEntity
  8
0
100
AcDbPoint
 10
1394813.03778881
 20
359947.432812704
  0
POINT
  5
20095
100
AcDbEntity
  8
0
100
AcDbPoint
 10
1394924.46250521
 20
360180.377155859
  0
POINT
  5
20096
100
AcDbEntity
  8
0
100
AcDbPoint
 10
1394856.922566
 20
360099.530126991
  0
POINT
  5
20097
100
AcDbEntity
  8
0
100
AcDbPoint
 10
1394940.46123883
 20
360288.505428257
  0
POINT
  5
20098
100
AcDbEntity
  8
0
100
AcDbPoint
 10
1394879.33297939
 20
360197.882271936
  0
POINT
  5
20099
100
AcDbEntity
  8
0
100
AcDbPoint
 10
1394932.35243256
 20
360420.788929635
  0
POINT
  5
2009A
100
AcDbEntity
  8
0
100
AcDbPoint
 10
1394827.20846238
 20
360556.263635854
  0
POINT
  5
2009B
100
AcDbEntity
  8
0
100
AcDbPoint
 10
1394793.84424169
 20
360535.863989611
  0
POINT
  5
2009C
100
AcDbEntity
  8
0
100
AcDbPoint
 10
1394881.38000872
 20
360572.630452559
  0
POINT
  5
2009D
100
AcDbEntity
  8
0
100
AcDbPoint
 10
1394711.34336141
 20
359957.906450844
  0
POINT
  5
2009E
100
AcDbEntity
  8
0
100
AcDbPoint
 10
1395512.41874134
 20
360769.824629294
  0
POINT
  5
2009F
100
AcDbEntity
  8
0
100
AcDbPoint
 10
1396689.48136175
 20
359896.772415174
  0
POINT
  5
200A0
100
AcDbEntity
  8
0
100
AcDbPoint
 10
1396768.68371669
 20
359896.761086693
  0
POINT
  5
200A1
100
AcDbEntity
  8
0
100
AcDbPoint
 10
1397143.45430173
 20
359818.110155902
  0
POINT
  5
200A2
100
AcDbEntity
  8
0
100
AcDbPoint
 10
1396038.03787393
 20
359717.027017349
  0
POINT
  5
200A3
100
AcDbEntity
  8
0
100
AcDbPoint
 10
1396101.43777081
 20
359803.150022425
  0
POINT
  5
200A4
100
AcDbEntity
  8
0
100
AcDbPoint
 10
1396114.9883537
 20
359731.06883268
  0
POINT
  5
200A5
100
AcDbEntity
  8
0
100
AcDbPoint
 10
1396120.28674885
 20
359808.22039813
  0
POINT
  5
200A6
100
AcDbEntity
  8
0
100
AcDbPoint
 10
1396163.11174542
 20
359829.965764464
  0
POINT
  5
200A7
100
AcDbEntity
  8
0
100
AcDbPoint
 10
1396943.22353186
 20
360054.592015285
  0
POINT
  5
200A8
100
AcDbEntity
  8
0
100
AcDbPoint
 10
1397276.27979595
 20
360015.528779164
  0
POINT
  5
200A9
100
AcDbEntity
  8
0
100
AcDbPoint
 10
1397119.248009
 20
359440.998822986
  0
POINT
  5
200AA
100
AcDbEntity
  8
0
100
AcDbPoint
 10
1397235.67755751
 20
359326.523565555
  0
POINT
  5
200AB
100
AcDbEntity
  8
0
100
AcDbPoint
 10
1397160.74345562
 20
359453.246132292
  0
POINT
  5
200AC
100
AcDbEntity
  8
0
100
AcDbPoint
 10
1397340.87710518
 20
359345.633593639
  0
POINT
  5
200AD
100
AcDbEntity
  8
0
100
AcDbPoint
 10
1394783.42634096
 20
359320.544098884
  0
POINT
  5
200AE
100
AcDbEntity
  8
0
100
AcDbPoint
 10
1396004.02614261
 20
359687.524536621
  0
POINT
  5
200AF
100
AcDbEntity
  8
0
100
AcDbPoint
 10
1395969.22521414
 20
359785.398722645
  0
POINT
  5
200B0
100
AcDbEntity
  8
0
100
AcDbPoint
 10
1398619.68273251
 20
359309.504464372
  0
POINT
  5
200B1
100
AcDbEntity
  8
0
100
AcDbPoint
 10
1398580.88139768
 20
359241.335755001
  0
POINT
  5
200B2
100
AcDbEntity
  8
0
100
AcDbPoint
 10
1398644.51114081
 20
359237.098188233
  0
POINT
  5
200B3
100
AcDbEntity
  8
0
100
AcDbPoint
 10
1398549.64856173
 20
359242.868351152
  0
POINT
  5
200B4
100
AcDbEntity
  8
0
100
AcDbPoint
 10
1397738.96144991
 20
359935.358069723
  0
POINT
  5
200B5
100
AcDbEntity
  8
0
100
AcDbPoint
 10
1397798.77070898
 20
359461.156239379
  0
POINT
  5
200B6
100
AcDbEntity
  8
0
100
AcDbPoint
 10
1397793.37029312
 20
359480.177098208
  0
POINT
  5
200B7
100
AcDbEntity
  8
0
100
AcDbPoint
 10
1397805.22447923
 20
359572.942148568
  0
POINT
  5
200B8
100
AcDbEntity
  8
0
100
AcDbPoint
 10
1397800.20369444
 20
359616.759856149
  0
POINT
  5
200B9
100
AcDbEntity
  8
0
100
AcDbPoint
 10
1397982.27947768
 20
359417.066710291
  0
POINT
  5
200BA
100
AcDbEntity
  8
0
100
AcDbPoint
 10
1397944.27943859
 20
359427.122186369
  0
POINT
  5
200BB
100
AcDbEntity
  8
0
100
AcDbPoint
 10
1397979.88833022
 20
359434.006727997
  0
POINT
  5
200BC
100
AcDbEntity
  8
0
100
AcDbPoint
 10
1397976.90891573
 20
359474.728194399
  0
POINT
  5
200BD
100
AcDbEntity
  8
0
100
AcDbPoint
 10
1397978.40462221
 20
359507.694082662
  0
POINT
  5
200BE
100
AcDbEntity
  8
0
100
AcDbPoint
 10
1397975.93162032
 20
359525.303404376
  0
POINT
  5
200BF
100
AcDbEntity
  8
0
100
AcDbPoint
 10
1397895.26513411
 20
359422.165291033
  0
POINT
  5
200C0
100
AcDbEntity
  8
0
100
AcDbPoint
 10
1397887.61265836
 20
359540.605809551
  0
POINT
  5
200C1
100
AcDbEntity
  8
0
100
AcDbPoint
 10
1397906.76635359
 20
359543.928998679
  0
POINT
  5
200C2
100
AcDbEntity
  8
0
100
AcDbPoint
 10
1397903.79609922
 20
359528.573537636
  0
POINT
  5
200C3
100
AcDbEntity
  8
0
100
AcDbPoint
 10
1397844.70693904
 20
359704.055095732
  0
POINT
  5
200C4
100
AcDbEntity
  8
0
100
AcDbPoint
 10
1397892.80160504
 20
359693.918884363
  0
POINT
  5
200C5
100
AcDbEntity
  8
0
100
AcDbPoint
 10
1397847.40197648
 20
359749.705016557
  0
POINT
  5
200C6
100
AcDbEntity
  8
0
100
AcDbPoint
 10
1397896.72261324
 20
359790.681366451
  0
POINT
  5
200C7
100
AcDbEntity
  8
0
100
AcDbPoint
 10
1397976.3695489
 20
359454.849297868
  0
POINT
  5
200C8
100
AcDbEntity
  8
0
100
AcDbPoint
 10
1397684.37206542
 20
359443.859995422
  0
POINT
  5
200C9
100
AcDbEntity
  8
0
100
AcDbPoint
 10
1397673.50857939
 20
359623.09302672
  0
POINT
  5
200CA
100
AcDbEntity
  8
0
100
AcDbPoint
 10
1397680.4241534
 20
359646.901846951
  0
POINT
  5
200CB
100
AcDbEntity
  8
0
100
AcDbPoint
 10
1397663.43405062
 20
359659.529367856
  0
POINT
  5
200CC
100
AcDbEntity
  8
0
100
AcDbPoint
 10
1397648.67866222
 20
359634.060575399
  0
POINT
  5
200CD
100
AcDbEntity
  8
0
100
AcDbPoint
 10
1395460.82216417
 20
359364.630394702
  0
POINT
  5
200CE
100
AcDbEntity
  8
0
100
AcDbPoint
 10
1395566.73574985
 20
359435.288017367
  0
POINT
  5
200CF
100
AcDbEntity
  8
0
100
AcDbPoint
 10
1395506.01307192
 20
359445.133193574
  0
POINT
  5
200D0
100
AcDbEntity
  8
0
100
AcDbPoint
 10
1395380.150919
 20
359423.352727996
  0
POINT
  5
200D1
100
AcDbEntity
  8
0
100
AcDbPoint
 10
1395179.24112684
 20
360004.104913211
  0
POINT
  5
200D2
100
AcDbEntity
  8
0
100
AcDbPoint
 10
1395195.98959846
 20
360012.447160101
  0
POINT
  5
200D3
100
AcDbEntity
  8
0
100
AcDbPoint
 10
1395293.58012931
 20
360032.519796546
  0
POINT
  5
200D4
100
AcDbEntity
  8
0
100
AcDbPoint
 10
1395332.40913795
 20
360052.866356294
  0
POINT
  5
200D5
100
AcDbEntity
  8
0
100
AcDbPoint
 10
1395340.66296143
 20
360031.468239931
  0
POINT
  5
200D6
100
AcDbEntity
  8
0
100
AcDbPoint
 10
1395812.37311571
 20
359598.481434478
  0
POINT
  5
200D7
100
AcDbEntity
  8
0
100
AcDbPoint
 10
1396107.01403645
 20
359462.349161476
  0
POINT
  5
200D8
100
AcDbEntity
  8
0
100
AcDbPoint
 10
1395839.29911571
 20
359621.865582341
  0
POINT
  5
200D9
100
AcDbEntity
  8
0
100
AcDbPoint
 10
1395850.80485301
 20
359765.101563195
  0
POINT
  5
200DA
100
AcDbEntity
  8
0
100
AcDbPoint
 10
1395848.04432971
 20
359742.321454206
  0
POINT
  5
200DB
100
AcDbEntity
  8
0
100
AcDbPoint
 10
1394835.38495708
 20
359531.864898446
  0
POINT
  5
200DC
100
AcDbEntity
  8
0
100
AcDbPoint
 10
1399150.60942009
 20
359315.448730695
  0
POINT
  5
200DD
100
AcDbEntity
  8
0
100
AcDbPoint
 10
1399088.47839831
 20
359558.68771389
  0
POINT
  5
200DE
100
AcDbEntity
  8
0
100
AcDbPoint
 10
1394986.91017095
 20
360139.461634441
  0
POINT
  5
200DF
100
AcDbEntity
  8
0
100
AcDbPoint
 10
1394965.59316643
 20
360101.363240149
  0
POINT
  5
200E0
100
AcDbEntity
  8
0
100
AcDbPoint
 10
1399145.76174777
 20
359217.723668344
  0
POINT
  5
200E1
100
AcDbEntity
  8
0
100
AcDbPoint
 10
1395082.95208239
 20
359792.085402464
  0
POINT
  5
200E2
100
AcDbEntity
  8
0
100
AcDbPoint
 10
1395105.70515903
 20
359807.294050236
  0
POINT
  5
200E3
100
AcDbEntity
  8
0
100
AcDbPoint
 10
1395111.43552865
 20
359886.349121432
  0
POINT
  5
200E4
100
AcDbEntity
  8
0
100
AcDbPoint
 10
1395098.20827283
 20
360025.347677002
  0
POINT
  5
200E5
100
AcDbEntity
  8
0
100
AcDbPoint
 10
1395158.70679654
 20
360078.720349864
  0
POINT
  5
200E6
100
AcDbEntity
  8
0
100
AcDbPoint
 10
1395129.74137506
 20
360185.164984541
  0
POINT
  5
200E7
100
AcDbEntity
  8
0
100
AcDbPoint
 10
1395174.95405312
 20
360175.250767308
  0
POINT
  5
200E8
100
AcDbEntity
  8
0
100
AcDbPoint
 10
1395183.49659784
 20
360227.126500192
  0
POINT
  5
200E9
100
AcDbEntity
  8
0
100
AcDbPoint
 10
1395192.52436594
 20
360257.059124542
  0
POINT
  5
200EA
100
AcDbEntity
  8
0
100
AcDbPoint
 10
1395234.60306438
 20
360607.353863376
  0
POINT
  5
200EB
100
AcDbEntity
  8
0
100
AcDbPoint
 10
1395239.76180423
 20
360690.522347739
  0
POINT
  5
200EC
100
AcDbEntity
  8
0
100
AcDbPoint
 10
1395621.94951838
 20
359401.165024404
  0
POINT
  5
200ED
100
AcDbEntity
  8
0
100
AcDbPoint
 10
1395616.73478792
 20
359440.291370025
  0
POINT
  5
200EE
100
AcDbEntity
  8
0
100
AcDbPoint
 10
1395633.22291821
 20
359482.683275485
  0
POINT
  5
200EF
100
AcDbEntity
  8
0
100
AcDbPoint
 10
1395638.93490965
 20
359505.031177805
  0
POINT
  5
200F0
100
AcDbEntity
  8
0
100
AcDbPoint
 10
1395610.71944975
 20
359453.893346781
  0
POINT
  5
200F1
100
AcDbEntity
  8
0
100
AcDbPoint
 10
1394576.07747334
 20
359874.73644544
  0
POINT
  5
200F2
100
AcDbEntity
  8
0
100
AcDbPoint
 10
1394630.95600775
 20
360127.676047954
  0
POINT
  5
200F3
100
AcDbEntity
  8
0
100
AcDbPoint
 10
1394643.61475569
 20
360169.829521608
  0
POINT
  5
200F4
100
AcDbEntity
  8
0
100
AcDbPoint
 10
1394681.04085899
 20
360090.557540813
  0
POINT
  5
200F5
100
AcDbEntity
  8
0
100
AcDbPoint
 10
1394684.62818298
 20
360104.557784545
  0
POINT
  5
200F6
100
AcDbEntity
  8
0
100
AcDbPoint
 10
1394723.15661626
 20
360141.553115909
  0
POINT
  5
200F7
100
AcDbEntity
  8
0
100
AcDbPoint
 10
1394717.36440269
 20
360171.397510643
  0
POINT
  5
200F8
100
AcDbEntity
  8
0
100
AcDbPoint
 10
1394693.86374876
 20
360177.959693393
  0
POINT
  5
200F9
100
AcDbEntity
  8
0
100
AcDbPoint
 10
1394677.42694746
 20
360150.602971097
  0
POINT
  5
200FA
100
AcDbEntity
  8
0
100
AcDbPoint
 10
1395490.03236598
 20
360744.209271562
  0
POINT
  5
200FB
100
AcDbEntity
  8
0
100
AcDbPoint
 10
1394588.294229
 20
360413.58937396
  0
POINT
  5
200FC
100
AcDbEntity
  8
0
100
AcDbPoint
 10
1394619.02724295
 20
360441.094772346
  0
POINT
  5
200FD
100
AcDbEntity
  8
0
100
AcDbPoint
 10
1394648.02621426
 20
360465.786367573
  0
POINT
  5
200FE
100
AcDbEntity
  8
0
100
AcDbPoint
 10
1394833.26343763
 20
360343.966458089
  0
POINT
  5
200FF
100
AcDbEntity
  8
0
100
AcDbPoint
 10
1395377.66006331
 20
360249.717409576
  0
POINT
  5
20100
100
AcDbEntity
  8
0
100
AcDbPoint
 10
1395420.11167368
 20
360251.653935382
  0
POINT
  5
20101
100
AcDbEntity
  8
0
100
AcDbPoint
 10
1395464.10268196
 20
360232.092003223
  0
POINT
  5
20102
100
AcDbEntity
  8
0
100
AcDbPoint
 10
1395408.41682898
 20
359671.215041071
  0
POINT
  5
20103
100
AcDbEntity
  8
0
100
AcDbPoint
 10
1395428.58372458
 20
359677.363865044
  0
POINT
  5
20104
100
AcDbEntity
  8
0
100
AcDbPoint
 10
1395493.67667024
 20
359685.422585022
  0
POINT
  5
20105
100
AcDbEntity
  8
0
100
AcDbPoint
 10
1395478.24899221
 20
359671.30351364
  0
POINT
  5
20106
100
AcDbEntity
  8
0
100
AcDbPoint
 10
1395035.84170638
 20
360469.830924741
  0
POINT
  5
20107
100
AcDbEntity
  8
0
100
AcDbPoint
 10
1395059.53443515
 20
360464.104620172
  0
POINT
  5
20108
100
AcDbEntity
  8
0
100
AcDbPoint
 10
1395079.4099729
 20
360461.73341403
  0
POINT
  5
20109
100
AcDbEntity
  8
0
100
AcDbPoint
 10
1395105.10589127
 20
360451.356051433
  0
POINT
  5
2010A
100
AcDbEntity
  8
0
100
AcDbPoint
 10
1395053.76407938
 20
360293.95579134
  0
POINT
  5
2010B
100
AcDbEntity
  8
0
100
AcDbPoint
 10
1395171.9667344
 20
360434.502896033
  0
POINT
  5
2010C
100
AcDbEntity
  8
0
100
AcDbPoint
 10
1395150.98340018
 20
360440.62757033
  0
POINT
  5
2010D
100
AcDbEntity
  8
0
100
AcDbPoint
 10
1395254.76847773
 20
360410.213693876
  0
POINT
  5
2010E
100
AcDbEntity
  8
0
100
AcDbPoint
 10
1395279.02803912
 20
360403.68683099
  0
POINT
  5
2010F
100
AcDbEntity
  8
0
100
AcDbPoint
 10
1395305.63363473
 20
360397.17404895
  0
POINT
  5
20110
100
AcDbEntity
  8
0
100
AcDbPoint
 10
1395980.76315963
 20
359574.144318235
  0
POINT
  5
20111
100
AcDbEntity
  8
0
100
AcDbPoint
 10
1395886.3186036
 20
359587.383156448
  0
POINT
  5
20112
100
AcDbEntity
  8
0
100
AcDbPoint
 10
1396181.89296931
 20
359623.734207735
  0
POINT
  5
20113
100
AcDbEntity
  8
0
100
AcDbPoint
 10
1396166.27948235
 20
359644.542633021
  0
POINT
  5
20114
100
AcDbEntity
  8
0
100
AcDbPoint
 10
1396209.08721333
 20
359637.38157927
  0
POINT
  5
20115
100
AcDbEntity
  8
0
100
AcDbPoint
 10
1396368.76152298
 20
359709.879468138
  0
POINT
  5
20116
100
AcDbEntity
  8
0
100
AcDbPoint
 10
1396018.6871522
 20
359634.966564732
  0
POINT
  5
20117
100
AcDbEntity
  8
0
100
AcDbPoint
 10
1396013.58448981
 20
359654.278419615
  0
POINT
  5
20118
100
AcDbEntity
  8
0
100
AcDbPoint
 10
1396026.40225224
 20
359664.701370866
  0
POINT
  5
20119
100
AcDbEntity
  8
0
100
AcDbPoint
 10
1396051.76037851
 20
359640.245536365
  0
POINT
  5
2011A
100
AcDbEntity
  8
0
100
AcDbPoint
 10
1396086.59731752
 20
359661.186897493
  0
POINT
  5
2011B
100
AcDbEntity
  8
0
100
AcDbPoint
 10
1396460.80047775
 20
359755.78191716
  0
POINT
  5
2011C
100
AcDbEntity
  8
0
100
AcDbPoint
 10
1396511.06442667
 20
359775.28745375
  0
POINT
  5
2011D
100
AcDbEntity
  8
0
100
AcDbPoint
 10
1396540.00810284
 20
359789.640643253
  0
POINT
  5
2011E
100
AcDbEntity
  8
0
100
AcDbPoint
 10
1396152.26127984
 20
359676.644918213
  0
POINT
  5
2011F
100
AcDbEntity
  8
0
100
AcDbPoint
 10
1396203.19956713
 20
359711.843501065
  0
POINT
  5
20120
100
AcDbEntity
  8
0
100
AcDbPoint
 10
1396181.11380319
 20
359703.077211047
  0
POINT
  5
20121
100
AcDbEntity
  8
0
100
AcDbPoint
 10
1396157.06444308
 20
359756.630006878
  0
POINT
  5
20122
100
AcDbEntity
  8
0
100
AcDbPoint
 10
1396238.79365993
 20
359711.976034634
  0
POINT
  5
20123
100
AcDbEntity
  8
0
100
AcDbPoint
 10
1398703.88690324
 20
359239.137135773
  0
POINT
  5
20124
100
AcDbEntity
  8
0
100
AcDbPoint
 10
1394432.30844437
 20
359786.237761219
  0
POINT
  5
20125
100
AcDbEntity
  8
0
100
AcDbPoint
 10
1394163.16628135
 20
359380.830696077
  0
POINT
  5
20126
100
AcDbEntity
  8
0
100
AcDbPoint
 10
1394837.01729464
 20
359215.882647065
  0
POINT
  5
20127
100
AcDbEntity
  8
0
100
AcDbPoint
 10
1394629.34150102
 20
359703.941253475
  0
POINT
  5
20128
100
AcDbEntity
  8
0
100
AcDbPoint
 10
1396435.64008719
 20
359796.760003303
  0
POINT
  5
20129
100
AcDbEntity
  8
0
100
AcDbPoint
 10
1396479.95795195
 20
359818.494806179
  0
POINT
  5
2012A
100
AcDbEntity
  8
0
100
AcDbPoint
 10
1396511.74362121
 20
359832.530977277
  0
POINT
  5
2012B
100
AcDbEntity
  8
0
100
AcDbPoint
 10
1396542.23851248
 20
359860.838312053
  0
POINT
  5
2012C
100
AcDbEntity
  8
0
100
AcDbPoint
 10
1397026.1465896
 20
359734.279641057
  0
POINT
  5
2012D
100
AcDbEntity
  8
0
100
AcDbPoint
 10
1397009.40799464
 20
359716.392612403
  0
POINT
  5
2012E
100
AcDbEntity
  8
0
100
AcDbPoint
 10
1397026.54790533
 20
359708.068255311
  0
POINT
  5
2012F
100
AcDbEntity
  8
0
100
AcDbPoint
 10
1397346.47236956
 20
359596.425297876
  0
POINT
  5
20130
100
AcDbEntity
  8
0
100
AcDbPoint
 10
1397383.68546698
 20
359582.844800804
  0
POINT
  5
20131
100
AcDbEntity
  8
0
100
AcDbPoint
 10
1397365.4836155
 20
359588.602702127
  0
POINT
  5
20132
100
AcDbEntity
  8
0
100
AcDbPoint
 10
1397432.52470236
 20
359578.06931045
  0
POINT
  5
20133
100
AcDbEntity
  8
0
100
AcDbPoint
 10
1397579.46291505
 20
359575.965040513
  0
POINT
  5
20134
100
AcDbEntity
  8
0
100
AcDbPoint
 10
1397623.26806325
 20
359542.625771207
  0
POINT
  5
20135
100
AcDbEntity
  8
0
100
AcDbPoint
 10
1394709.87592009
 20
360112.845296076
  0
POINT
  5
20136
100
AcDbEntity
  8
0
100
AcDbPoint
 10
1394717.21160124
 20
360090.397504294
  0
POINT
  5
20137
100
AcDbEntity
  8
0
100
AcDbPoint
 10
1394701.13893311
 20
360096.078573687
  0
POINT
  5
20138
100
AcDbEntity
  8
0
100
AcDbPoint
 10
1394720.99325489
 20
360073.018954636
  0
POINT
  5
20139
100
AcDbEntity
  8
0
100
AcDbPoint
 10
1394744.10867622
 20
360118.777558352
  0
POINT
  5
2013A
100
AcDbEntity
  8
0
100
AcDbPoint
 10
1394763.67556017
 20
360113.531970102
  0
POINT
  5
2013B
100
AcDbEntity
  8
0
100
AcDbPoint
 10
1394756.50874079
 20
360093.390886006
  0
POINT
  5
2013C
100
AcDbEntity
  8
0
100
AcDbPoint
 10
1394695.40260717
 20
360026.230365154
  0
POINT
  5
2013D
100
AcDbEntity
  8
0
100
AcDbPoint
 10
1394757.79261535
 20
360024.945421289
  0
POINT
  5
2013E
100
AcDbEntity
  8
0
100
AcDbPoint
 10
1394975.33076661
 20
360008.065450415
  0
POINT
  5
2013F
100
AcDbEntity
  8
0
100
AcDbPoint
 10
1394955.10975629
 20
359969.000572273
  0
POINT
  5
20140
100
AcDbEntity
  8
0
100
AcDbPoint
 10
1395005.48388712
 20
359996.978080332
  0
POINT
  5
20141
100
AcDbEntity
  8
0
100
AcDbPoint
 10
1395003.75533393
 20
359963.243318954
  0
POINT
  5
20142
100
AcDbEntity
  8
0
100
AcDbPoint
 10
1394571.08299376
 20
359851.347140179
  0
POINT
  5
20143
100
AcDbEntity
  8
0
100
AcDbPoint
 10
1394465.27463867
 20
359829.050766732
  0
POINT
  5
20144
100
AcDbEntity
  8
0
100
AcDbPoint
 10
1394489.74769481
 20
359823.166182444
  0
POINT
  5
20145
100
AcDbEntity
  8
0
100
AcDbPoint
 10
1394484.64571885
 20
359803.19648767
  0
POINT
  5
20146
100
AcDbEntity
  8
0
100
AcDbPoint
 10
1394510.67229546
 20
359819.511629675
  0
POINT
  5
20147
100
AcDbEntity
  8
0
100
AcDbPoint
 10
1394669.95768579
 20
359822.395981779
  0
POINT
  5
20148
100
AcDbEntity
  8
0
100
AcDbPoint
 10
1394634.10133251
 20
359830.309536742
  0
POINT
  5
20149
100
AcDbEntity
  8
0
100
AcDbPoint
 10
1394643.2575569
 20
359861.22305426
  0
POINT
  5
2014A
100
AcDbEntity
  8
0
100
AcDbPoint
 10
1394701.89401311
 20
359810.361859977
  0
POINT
  5
2014B
100
AcDbEntity
  8
0
100
AcDbPoint
 10
1394772.499397
 20
359792.17245874
  0
POINT
  5
2014C
100
AcDbEntity
  8
0
100
AcDbPoint
 10
1394623.32052537
 20
359794.278276605
  0
POINT
  5
2014D
100
AcDbEntity
  8
0
100
AcDbPoint
 10
1394679.80087015
 20
359779.177822828
  0
POINT
  5
2014E
100
AcDbEntity
  8
0
100
AcDbPoint
 10
1394694.38810602
 20
359768.16598744
  0
POINT
  5
2014F
100
AcDbEntity
  8
0
100
AcDbPoint
 10
1394709.46272103
 20
359752.960291179
  0
POINT
  5
20150
100
AcDbEntity
  8
0
100
AcDbPoint
 10
1394715.7435491
 20
359772.020073974
  0
POINT
  5
20151
100
AcDbEntity
  8
0
100
AcDbPoint
 10
1394763.66590271
 20
359757.317095859
  0
POINT
  5
20152
100
AcDbEntity
  8
0
100
AcDbPoint
 10
1394755.7446147
 20
359717.284168475
  0
POINT
  5
20153
100
AcDbEntity
  8
0
100
AcDbPoint
 10
1394751.07707944
 20
359696.847314967
  0
POINT
  5
20154
100
AcDbEntity
  8
0
100
AcDbPoint
 10
1394859.78485432
 20
359771.543658993
  0
POINT
  5
20155
100
AcDbEntity
  8
0
100
AcDbPoint
 10
1394888.3912463
 20
359780.797228839
  0
POINT
  5
20156
100
AcDbEntity
  8
0
100
AcDbPoint
 10
1394903.35227545
 20
359764.28353355
  0
POINT
  5
20157
100
AcDbEntity
  8
0
100
AcDbPoint
 10
1394959.30535713
 20
359752.197913933
  0
POINT
  5
20158
100
AcDbEntity
  8
0
100
AcDbPoint
 10
1395019.02152511
 20
359742.533730776
  0
POINT
  5
20159
100
AcDbEntity
  8
0
100
AcDbPoint
 10
1395068.51794395
 20
359720.509541496
  0
POINT
  5
2015A
100
AcDbEntity
  8
0
100
AcDbPoint
 10
1395139.97604623
 20
359712.341190888
  0
POINT
  5
2015B
100
AcDbEntity
  8
0
100
AcDbPoint
 10
1395114.16802803
 20
359714.898420066
  0
POINT
  5
2015C
100
AcDbEntity
  8
0
100
AcDbPoint
 10
1395141.21035991
 20
359760.388789149
  0
POINT
  5
2015D
100
AcDbEntity
  8
0
100
AcDbPoint
 10
1395118.29263405
 20
359742.696075869
  0
POINT
  5
2015E
100
AcDbEntity
  8
0
100
AcDbPoint
 10
1395236.78094633
 20
359692.693468018
  0
POINT
  5
2015F
100
AcDbEntity
  8
0
100
AcDbPoint
 10
1395308.33972036
 20
359660.270319532
  0
POINT
  5
20160
100
AcDbEntity
  8
0
100
AcDbPoint
 10
1395369.50374387
 20
359691.511025266
  0
POINT
  5
20161
100
AcDbEntity
  8
0
100
AcDbPoint
 10
1395371.30834239
 20
359676.096502251
  0
POINT
  5
20162
100
AcDbEntity
  8
0
100
AcDbPoint
 10
1395387.73995566
 20
359670.487124401
  0
POINT
  5
20163
100
AcDbEntity
  8
0
100
AcDbPoint
 10
1395393.01290163
 20
359690.285646894
  0
POINT
  5
20164
100
AcDbEntity
  8
0
100
AcDbPoint
 10
1395380.84731477
 20
359700.766031478
  0
POINT
  5
20165
100
AcDbEntity
  8
0
100
AcDbPoint
 10
1395219.70011461
 20
359643.441103012
  0
POINT
  5
20166
100
AcDbEntity
  8
0
100
AcDbPoint
 10
1395417.6395754
 20
359631.613740235
  0
POINT
  5
20167
100
AcDbEntity
  8
0
100
AcDbPoint
 10
1395424.96911821
 20
359652.396722727
  0
POINT
  5
20168
100
AcDbEntity
  8
0
100
AcDbPoint
 10
1395479.6902819
 20
359616.802525208
  0
POINT
  5
20169
100
AcDbEntity
  8
0
100
AcDbPoint
 10
1395528.95722028
 20
359607.030040019
  0
POINT
  5
2016A
100
AcDbEntity
  8
0
100
AcDbPoint
 10
1395590.89930344
 20
359596.290313846
  0
POINT
  5
2016B
100
AcDbEntity
  8
0
100
AcDbPoint
 10
1395343.49056439
 20
359612.01734894
  0
POINT
  5
2016C
100
AcDbEntity
  8
0
100
AcDbPoint
 10
1395418.21266879
 20
359594.182263117
  0
POINT
  5
2016D
100
AcDbEntity
  8
0
100
AcDbPoint
 10
1395644.04205363
 20
359535.234277007
  0
POINT
  5
2016E
100
AcDbEntity
  8
0
100
AcDbPoint
 10
1395717.13517385
 20
359561.397918036
  0
POINT
  5
2016F
100
AcDbEntity
  8
0
100
AcDbPoint
 10
1395730.00257698
 20
359594.058183254
  0
POINT
  5
20170
100
AcDbEntity
  8
0
100
AcDbPoint
 10
1395669.95338358
 20
359570.156457117
  0
POINT
  5
20171
100
AcDbEntity
  8
0
100
AcDbPoint
 10
1395763.41204406
 20
359493.060556268
  0
POINT
  5
20172
100
AcDbEntity
  8
0
100
AcDbPoint
 10
1395743.51899574
 20
359559.331070498
  0
POINT
  5
20173
100
AcDbEntity
  8
0
100
AcDbPoint
 10
1395757.7716157
 20
359548.730969327
  0
POINT
  5
20174
100
AcDbEntity
  8
0
100
AcDbPoint
 10
1395770.58666448
 20
359583.767925789
  0
POINT
  5
20175
100
AcDbEntity
  8
0
100
AcDbPoint
 10
1395803.72606562
 20
359538.839240443
  0
POINT
  5
20176
100
AcDbEntity
  8
0
100
AcDbPoint
 10
1395867.09981282
 20
359521.308162851
  0
POINT
  5
20177
100
AcDbEntity
  8
0
100
AcDbPoint
 10
1395872.50685306
 20
359548.186779909
  0
POINT
  5
20178
100
AcDbEntity
  8
0
100
AcDbPoint
 10
1395844.57670983
 20
359527.650439531
  0
POINT
  5
20179
100
AcDbEntity
  8
0
100
AcDbPoint
 10
1396017.299084
 20
359547.670710232
  0
POINT
  5
2017A
100
AcDbEntity
  8
0
100
AcDbPoint
 10
1395898.26122764
 20
359515.355772756
  0
POINT
  5
2017B
100
AcDbEntity
  8
0
100
AcDbPoint
 10
1396074.55000269
 20
359552.58108844
  0
POINT
  5
2017C
100
AcDbEntity
  8
0
100
AcDbPoint
 10
1396392.36701429
 20
359603.809644941
  0
POINT
  5
2017D
100
AcDbEntity
  8
0
100
AcDbPoint
 10
1396115.64283767
 20
359557.954842264
  0
POINT
  5
2017E
100
AcDbEntity
  8
0
100
AcDbPoint
 10
1396186.17203802
 20
359587.160713682
  0
POINT
  5
2017F
100
AcDbEntity
  8
0
100
AcDbPoint
 10
1396603.40510342
 20
359676.683254315
  0
POINT
  5
20180
100
AcDbEntity
  8
0
100
AcDbPoint
 10
1396242.22458415
 20
359628.410450418
  0
POINT
  5
20181
100
AcDbEntity
  8
0
100
AcDbPoint
 10
1396699.25248606
 20
359676.185058925
  0
POINT
  5
20182
100
AcDbEntity
  8
0
100
AcDbPoint
 10
1396669.15863457
 20
359689.336200237
  0
POINT
  5
20183
100
AcDbEntity
  8
0
100
AcDbPoint
 10
1396292.14289955
 20
359577.363491868
  0
POINT
  5
20184
100
AcDbEntity
  8
0
100
AcDbPoint
 10
1396730.52616795
 20
359674.889305015
  0
POINT
  5
20185
100
AcDbEntity
  8
0
100
AcDbPoint
 10
1396957.43892038
 20
359601.918912203
  0
POINT
  5
20186
100
AcDbEntity
  8
0
100
AcDbPoint
 10
1397041.17265584
 20
359535.462873375
  0
POINT
  5
20187
100
AcDbEntity
  8
0
100
AcDbPoint
 10
1397085.21917878
 20
359506.699831857
  0
POINT
  5
20188
100
AcDbEntity
  8
0
100
AcDbPoint
 10
1396262.45930176
 20
359553.193305589
  0
POINT
  5
20189
100
AcDbEntity
  8
0
100
AcDbPoint
 10
1396985.53504635
 20
359554.587178553
  0
POINT
  5
2018A
100
AcDbEntity
  8
0
100
AcDbPoint
 10
1396502.67539701
 20
359699.705833639
  0
POINT
  5
2018B
100
AcDbEntity
  8
0
100
AcDbPoint
 10
1397598.14845747
 20
359353.126130904
  0
POINT
  5
2018C
100
AcDbEntity
  8
0
100
AcDbPoint
 10
1397851.51527442
 20
359339.182384684
  0
POINT
  5
2018D
100
AcDbEntity
  8
0
100
AcDbPoint
 10
1396884.20696903
 20
359673.328976803
  0
POINT
  5
2018E
100
AcDbEntity
  8
0
100
AcDbPoint
 10
1396960.97412453
 20
359641.19238071
  0
POINT
  5
2018F
100
AcDbEntity
  8
0
100
AcDbPoint
 10
1397015.08534891
 20
359613.854251379
  0
POINT
  5
20190
100
AcDbEntity
  8
0
100
AcDbPoint
 10
1398367.65286432
 20
359346.61004187
  0
POINT
  5
20191
100
AcDbEntity
  8
0
100
AcDbPoint
 10
1397110.31654305
 20
359543.834988322
  0
POINT
  5
20192
100
AcDbEntity
  8
0
100
AcDbPoint
 10
1397459.15570975
 20
359455.373258043
  0
POINT
  5
20193
100
AcDbEntity
  8
0
100
AcDbPoint
 10
1397450.96645541
 20
359436.143592395
  0
POINT
  5
20194
100
AcDbEntity
  8
0
100
AcDbPoint
 10
1397433.25372646
 20
359469.600178263
  0
POINT
  5
20195
100
AcDbEntity
  8
0
100
AcDbPoint
 10
1397304.74396326
 20
359477.466988153
  0
POINT
  5
20196
100
AcDbEntity
  8
0
100
AcDbPoint
 10
1398355.67849778
 20
359380.541292101
  0
POINT
  5
20197
100
AcDbEntity
  8
0
100
AcDbPoint
 10
1398334.81673309
 20
359400.617820608
  0
POINT
  5
20198
100
AcDbEntity
  8
0
100
AcDbPoint
 10
1398392.91353635
 20
359384.563247032
  0
POINT
  5
20199
100
AcDbEntity
  8
0
100
AcDbPoint
 10
1397940.10267602
 20
359389.110141097
  0
POINT
  5
2019A
100
AcDbEntity
  8
0
100
AcDbPoint
 10
1397923.5974318
 20
359402.362186254
  0
POINT
  5
2019B
100
AcDbEntity
  8
0
100
AcDbPoint
 10
1398445.3558282
 20
359389.678719222
  0
POINT
  5
2019C
100
AcDbEntity
  8
0
100
AcDbPoint
 10
1398828.06988949
 20
359439.55693584
  0
POINT
  5
2019D
100
AcDbEntity
  8
0
100
AcDbPoint
 10
1398938.8346185
 20
359453.015094332
  0
POINT
  5
2019E
100
AcDbEntity
  8
0
100
AcDbPoint
 10
1397189.23099852
 20
359580.112682074
  0
POINT
  5
2019F
100
AcDbEntity
  8
0
100
AcDbPoint
 10
1396071.46822693
 20
359485.56642589
  0
POINT
  5
201A0
100
AcDbEntity
  8
0
100
AcDbPoint
 10
1397751.14860758
 20
359334.985734248
  0
POINT
  5
201A1
100
AcDbEntity
  8
0
100
AcDbPoint
 10
1395981.10848706
 20
359458.499115548
  0
POINT
  5
201A2
100
AcDbEntity
  8
0
100
AcDbPoint
 10
1395642.09714731
 20
359926.223094279
  0
POINT
  5
201A3
100
AcDbEntity
  8
0
100
AcDbPoint
 10
1395771.36790882
 20
359887.449159447
  0
POINT
  5
201A4
100
AcDbEntity
  8
0
100
AcDbPoint
 10
1395810.11767347
 20
359886.838107696
  0
POINT
  5
201A5
100
AcDbEntity
  8
0
100
AcDbPoint
 10
1395604.20757519
 20
359883.343949412
  0
POINT
  5
201A6
100
AcDbEntity
  8
0
100
AcDbPoint
 10
1395884.91062793
 20
359804.26922271
  0
POINT
  5
201A7
100
AcDbEntity
  8
0
100
AcDbPoint
 10
1397332.4313628
 20
359292.393671339
  0
POINT
  5
201A8
100
AcDbEntity
  8
0
100
AcDbPoint
 10
1397131.37742684
 20
359279.801985143
  0
POINT
  5
201A9
100
AcDbEntity
  8
0
100
AcDbPoint
 10
1397272.8252865
 20
359295.809044537
  0
POINT
  5
201AA
100
AcDbEntity
  8
0
100
AcDbPoint
 10
1397067.44654144
 20
359336.10059288
  0
POINT
  5
201AB
100
AcDbEntity
  8
0
100
AcDbPoint
 10
1397221.95586641
 20
359244.711429138
  0
POINT
  5
201AC
100
AcDbEntity
  8
0
100
AcDbPoint
 10
1396794.45029741
 20
359502.793692228
  0
POINT
  5
201AD
100
AcDbEntity
  8
0
100
AcDbPoint
 10
1396608.70684947
 20
359643.570480349
  0
POINT
  5
201AE
100
AcDbEntity
  8
0
100
AcDbPoint
 10
1397682.6575446
 20
359156.694080495
  0
POINT
  5
201AF
100
AcDbEntity
  8
0
100
AcDbPoint
 10
1394426.00566002
 20
359725.903403774
  0
POINT
  5
201B0
100
AcDbEntity
  8
0
100
AcDbPoint
 10
1394446.1294324
 20
359696.416406082
  0
POINT
  5
201B1
100
AcDbEntity
  8
0
100
AcDbPoint
 10
1394639.20185606
 20
359475.005801035
  0
POINT
  5
201B2
100
AcDbEntity
  8
0
100
AcDbPoint
 10
1394487.54206741
 20
359760.655519409
  0
POINT
  5
201B3
100
AcDbEntity
  8
0
100
AcDbPoint
 10
1394796.03657837
 20
359501.445239119
  0
POINT
  5
201B4
100
AcDbEntity
  8
0
100
AcDbPoint
 10
1395372.78181527
 20
359729.757021073
  0
POINT
  5
201B5
100
AcDbEntity
  8
0
100
AcDbPoint
 10
1395321.52807786
 20
359781.690858234
  0
POINT
  5
201B6
100
AcDbEntity
  8
0
100
AcDbPoint
 10
1395292.5680277
 20
359885.867590733
  0
POINT
  5
201B7
100
AcDbEntity
  8
0
100
AcDbPoint
 10
1395272.89601447
 20
359865.180788714
  0
POINT
  5
201B8
100
AcDbEntity
  8
0
100
AcDbPoint
 10
1395359.47677229
 20
359836.590242504
  0
POINT
  5
201B9
100
AcDbEntity
  8
0
100
AcDbPoint
 10
1395390.65184161
 20
359941.860658603
  0
POINT
  5
201BA
100
AcDbEntity
  8
0
100
AcDbPoint
 10
1395575.33973373
 20
360126.710151527
  0
POINT
  5
201BB
100
AcDbEntity
  8
0
100
AcDbPoint
 10
1395505.10900288
 20
360245.060289311
  0
POINT
  5
201BC
100
AcDbEntity
  8
0
100
AcDbPoint
 10
1395479.82453098
 20
360250.904690268
  0
POINT
  5
201BD
100
AcDbEntity
  8
0
100
AcDbPoint
 10
1395585.62277079
 20
360391.832651181
  0
POINT
  5
201BE
100
AcDbEntity
  8
0
100
AcDbPoint
 10
1395594.33333906
 20
360419.220146475
  0
POINT
  5
201BF
100
AcDbEntity
  8
0
100
AcDbPoint
 10
1395795.74848395
 20
359823.727073436
  0
POINT
  5
201C0
100
AcDbEntity
  8
0
100
AcDbPoint
 10
1395192.46012607
 20
360520.034633625
  0
POINT
  5
201C1
100
AcDbEntity
  8
0
100
AcDbPoint
 10
1395650.89775564
 20
360402.378590345
  0
POINT
  5
201C2
100
AcDbEntity
  8
0
100
AcDbPoint
 10
1394763.71911433
 20
360270.815237519
  0
POINT
  5
201C3
100
AcDbEntity
  8
0
100
AcDbPoint
 10
1395062.91153971
 20
360152.774108904
  0
POINT
  5
201C4
100
AcDbEntity
  8
0
100
AcDbPoint
 10
1395025.95027186
 20
360160.711165013
  0
POINT
  5
201C5
100
AcDbEntity
  8
0
100
AcDbPoint
 10
1395556.06931258
 20
359984.832465238
  0
POINT
  5
201C6
100
AcDbEntity
  8
0
100
AcDbPoint
 10
1395304.80169265
 20
360085.986603655
  0
POINT
  5
201C7
100
AcDbEntity
  8
0
100
AcDbPoint
 10
1395418.40935794
 20
360063.522319943
  0
POINT
  5
201C8
100
AcDbEntity
  8
0
100
AcDbPoint
 10
1395462.64372294
 20
360051.852248642
  0
POINT
  5
201C9
100
AcDbEntity
  8
0
100
AcDbPoint
 10
1395204.25545838
 20
360158.769498067
  0
POINT
  5
201CA
100
AcDbEntity
  8
0
100
AcDbPoint
 10
1395255.08187968
 20
360152.418276327
  0
POINT
  5
201CB
100
AcDbEntity
  8
0
100
AcDbPoint
 10
1395274.49231388
 20
360181.549511185
  0
POINT
  5
201CC
100
AcDbEntity
  8
0
100
AcDbPoint
 10
1395416.27515887
 20
360108.07797041
  0
POINT
  5
201CD
100
AcDbEntity
  8
0
100
AcDbPoint
 10
1394311.75441858
 20
360439.260258056
  0
POINT
  5
201CE
100
AcDbEntity
  8
0
100
AcDbPoint
 10
1394369.96027814
 20
359500.04358127
  0
POINT
  5
201CF
100
AcDbEntity
  8
0
100
AcDbPoint
 10
1394493.89481862
 20
359523.65554335
  0
POINT
  5
201D0
100
AcDbEntity
  8
0
100
AcDbPoint
 10
1396813.45249121
 20
359936.637315765
  0
POINT
  5
201D1
100
AcDbEntity
  8
0
100
AcDbPoint
 10
1396279.5692376
 20
359680.088206161
  0
POINT
  5
201D2
100
AcDbEntity
  8
0
100
AcDbPoint
 10
1394562.44519945
 20
359807.431485807
  0
POINT
  5
201D3
100
AcDbEntity
  8
0
100
AcDbPoint
 10
1395706.92128112
 20
359513.005760874
  0
POINT
  5
201D4
100
AcDbEntity
  8
0
100
AcDbPoint
 10
1395043.34235149
 20
359673.307830873
  0
POINT
  5
201D5
100
AcDbEntity
  8
0
100
AcDbPoint
 10
1398288.06153481
 20
359406.646689332
  0
POINT
  5
201D6
100
AcDbEntity
  8
0
100
AcDbPoint
 10
1395655.2233216
 20
359629.614364589
  0
POINT
  5
201D7
100
AcDbEntity
  8
0
100
AcDbPoint
 10
1394701.99022104
 20
359584.056871886
  0
POINT
  5
201D8
100
AcDbEntity
  8
0
100
AcDbPoint
 10
1394883.69595366
 20
359322.155657039
  0
POINT
  5
201D9
100
AcDbEntity
  8
0
100
AcDbPoint
 10
1394978.90654777
 20
360173.000813819
  0
POINT
  5
201DA
100
AcDbEntity
  8
0
100
AcDbPoint
 10
1395314.755708
 20
360416.584599555
  0
POINT
  5
201DB
100
AcDbEntity
  8
0
100
AcDbPoint
 10
1396221.27141054
 20
359775.824138183
  0
POINT
  5
201DC
100
AcDbEntity
  8
0
100
AcDbPoint
 10
1396221.66255094
 20
359750.277523361
  0
POINT
  5
201DD
100
AcDbEntity
  8
0
100
AcDbPoint
 10
1395210.55165322
 20
360320.544119327
  0
POINT
  5
201DE
100
AcDbEntity
  8
0
100
AcDbPoint
 10
1399252.91297603
 20
359480.269497889
  0
POINT
  5
201DF
100
AcDbEntity
  8
0
100
AcDbPoint
 10
1396173.22692637
 20
359736.690450977
  0
POINT
  5
201E0
100
AcDbEntity
  8
0
100
AcDbPoint
 10
1396187.41731127
 20
359763.555080496
  0
POINT
  5
201E1
100
AcDbEntity
  8
0
100
AcDbPoint
 10
1395225.14335623
 20
359772.544333707
  0
POINT
  5
201E2
100
AcDbEntity
  8
0
100
AcDbPoint
 10
1394686.370451
 20
360115.043248092
  0
POINT
  5
201E3
100
AcDbEntity
  8
0
100
AcDbPoint
 10
1394687.64940938
 20
360124.88546143
  0
POINT
  5
201E4
100
AcDbEntity
  8
0
100
AcDbPoint
 10
1396154.81644645
 20
359735.667067797
  0
POINT
  5
201E5
100
AcDbEntity
  8
0
100
AcDbPoint
 10
1394943.52528811
 20
360579.830495615
  0
POINT
  5
201E6
100
AcDbEntity
  8
0
100
AcDbPoint
 10
1394760.70143217
 20
360567.364548014
  0
POINT
  5
201E7
100
AcDbEntity
  8
0
100
AcDbPoint
 10
1396046.5965241
 20
359671.114378781
  0
POINT
  5
201E8
100
AcDbEntity
  8
0
100
AcDbPoint
 10
1399210.94792663
 20
359826.186951139
  0
POINT
  5
201E9
100
AcDbEntity
  8
0
100
AcDbPoint
 10
1397885.08310541
 20
359524.821413625
  0
POINT
  5
201EA
100
AcDbEntity
  8
0
100
AcDbPoint
 10
1397849.10468766
 20
359576.116899113
  0
POINT
  5
201EB
100
AcDbEntity
  8
0
100
AcDbPoint
 10
1394745.35458721
 20
359874.436822894
  0
POINT
  5
201EC
100
AcDbEntity
  8
0
100
AcDbPoint
 10
1396890.54379312
 20
359796.480335901
  0
POINT
  5
201ED
100
AcDbEntity
  8
0
100
AcDbPoint
 10
1396356.43081294
 20
359579.096710856
  0
POINT
  5
201EE
100
AcDbEntity
  8
0
100
AcDbPoint
 10
1396367.44530098
 20
359590.768393662
  0
POINT
  5
201EF
100
AcDbEntity
  8
0
100
AcDbPoint
 10
1395966.2562503
 20
359530.522001913
  0
POINT
  5
201F0
100
AcDbEntity
  8
0
100
AcDbPoint
 10
1394360.01118109
 20
359730.757177925
  0
POINT
  5
201F1
100
AcDbEntity
  8
0
100
AcDbPoint
 10
1394775.27306508
 20
359900.865556674
  0
POINT
  5
201F2
100
AcDbEntity
  8
0
100
AcDbPoint
 10
1395004.10937463
 20
359850.315776474
  0
POINT
  5
201F3
100
AcDbEntity
  8
0
100
AcDbPoint
 10
1394867.76716958
 20
359878.929230698
  0
POINT
  5
201F4
100
AcDbEntity
  8
0
100
AcDbPoint
 10
1397151.79307988
 20
359376.413016245
  0
POINT
  5
201F5
100
AcDbEntity
  8
0
100
AcDbPoint
 10
1397864.08519164
 20
359476.89479585
  0
POINT
  5
201F6
100
AcDbEntity
  8
0
100
AcDbPoint
 10
1397984.65448333
 20
359255.291245622
  0
POINT
  5
201F7
100
AcDbEntity
  8
0
100
AcDbPoint
 10
1399579.93828381
 20
360775.894550896
  0
POINT
  5
201F8
100
AcDbEntity
  8
0
100
AcDbPoint
 10
1399704.89113733
 20
360586.736042372
  0
POINT
  5
201F9
100
AcDbEntity
  8
0
100
AcDbPoint
 10
1399571.47200504
 20
360360.968452152
  0
POINT
  5
201FA
100
AcDbEntity
  8
0
100
AcDbPoint
 10
1399419.05526301
 20
360393.902464268
  0
POINT
  5
201FB
100
AcDbEntity
  8
0
100
AcDbPoint
 10
1399543.0307214
 20
360157.685200958
  0
POINT
  5
201FC
100
AcDbEntity
  8
0
100
AcDbPoint
 10
1395774.84093556
 20
359618.836721419
  0
POINT
  5
201FD
100
AcDbEntity
  8
0
100
AcDbPoint
 10
1396641.79508047
 20
359419.642786133
  0
POINT
  5
201FE
100
AcDbEntity
  8
0
100
AcDbPoint
 10
1394350.93276974
 20
360764.509065307
  0
POINT
  5
201FF
100
AcDbEntity
  8
0
100
AcDbPoint
 10
1395452.80247697
 20
359755.773627368
  0
POINT
  5
20200
100
AcDbEntity
  8
0
100
AcDbPoint
 10
1394791.51015744
 20
359483.111171826
  0
POINT
  5
20201
100
AcDbEntity
  8
0
100
AcDbPoint
 10
1394229.38079743
 20
359581.587363145
  0
POINT
  5
20202
100
AcDbEntity
  8
0
100
AcDbPoint
 10
1394705.29429669
 20
359974.588503578
  0
POINT
  5
20203
100
AcDbEntity
  8
0
100
AcDbPoint
 10
1394660.13716338
 20
359801.981688705
  0
POINT
  5
20204
100
AcDbEntity
  8
0
100
AcDbPoint
 10
1394728.575399
 20
359624.257588496
  0
POINT
  5
20205
100
AcDbEntity
  8
0
100
AcDbPoint
 10
1396064.73635793
 20
359496.666134568
  0
POINT
  5
20206
100
AcDbEntity
  8
0
100
AcDbPoint
 10
1394571.32010278
 20
359958.47713401
  0
POINT
  5
20207
100
AcDbEntity
  8
0
100
AcDbPoint
 10
1394963.67046761
 20
359777.721846921
  0
POINT
  5
20208
100
AcDbEntity
  8
0
100
AcDbPoint
 10
1396378.52331162
 20
359784.169978167
  0
POINT
  5
20209
100
AcDbEntity
  8
0
100
AcDbPoint
 10
1396428.11870675
 20
359811.361289038
  0
POINT
  5
2020A
100
AcDbEntity
  8
0
100
AcDbPoint
 10
1396474.29125647
 20
359970.395130197
  0
POINT
  5
2020B
100
AcDbEntity
  8
0
100
AcDbPoint
 10
1398302.40699609
 20
359109.416308932
  0
POINT
  5
2020C
100
AcDbEntity
  8
0
100
AcDbPoint
 10
1396331.39088616
 20
359756.328819343
  0
POINT
  5
2020D
100
AcDbEntity
  8
0
100
AcDbPoint
 10
1398251.1124759
 20
359303.405713
  0
POINT
  5
2020E
100
AcDbEntity
  8
0
100
AcDbPoint
 10
1395303.25383861
 20
359618.6260948
  0
POINT
  5
2020F
100
AcDbEntity
  8
0
100
AcDbPoint
 10
1395177.92167232
 20
359653.624122397
  0
POINT
  5
20210
100
AcDbEntity
  8
0
100
AcDbPoint
 10
1395201.39815475
 20
359692.151733709
  0
POINT
  5
20211
100
AcDbEntity
  8
0
100
AcDbPoint
 10
1394675.38043725
 20
358830.225885177
  0
ENDSEC
  0
SECTION
  2
OBJECTS
  0
DICTIONARY
  5
C
330
0
100
AcDbDictionary
281
     1
  3
ACAD_GROUP
350
D
  3
ACAD_LAYOUT
350
1A
  3
ACAD_MLEADERSTYLE
350
43
  3
ACAD_PLOTSETTINGS
350
19
  3
ACAD_PLOTSTYLENAME
350
E
  3
ACAD_TABLESTYLE
350
42
  0
DICTIONARY
  5
D
102
{ACAD_REACTORS
330
C
102
}
330
C
100
AcDbDictionary
281
     1
  0
DICTIONARY
  5
1A
102
{ACAD_REACTORS
330
C
102
}
330
C
100
AcDbDictionary
281
     1
  3
Layout1
350
1E
  3
Model
350
22
  0
DICTIONARY
  5
43
102
{ACAD_REACTORS
330
C
102
}
330
C
100
AcDbDictionary
281
     1
  0
DICTIONARY
  5
19
102
{ACAD_REACTORS
330
C
102
}
330
C
100
AcDbDictionary
281
     1
  0
ACDBDICTIONARYWDFLT
  5
E
102
{ACAD_REACTORS
330
C
102
}
330
C
100
AcDbDictionary
281
     1
  3
Normal
350
F
100
AcDbDictionaryWithDefault
340
F
  0
DICTIONARY
  5
42
102
{ACAD_REACTORS
330
C
102
}
330
C
100
AcDbDictionary
281
     1
  0
LAYOUT
  5
1E
102
{ACAD_REACTORS
330
1A
102
}
330
1A
100
AcDbPlotSettings
  1

  2
none_device
  4

  6

 40
0.0
 41
0.0
 42
0.0
 43
0.0
 44
0.0
 45
0.0
 46
0.0
 47
0.0
 48
0.0
 49
0.0
140
0.0
141
0.0
142
1.0
143
1.0
 70
   688
 72
     0
 73
     0
 74
     5
  7

 75
    16
 76
     0
 77
     2
 78
   300
147
1.0
148
0.0
149
0.0
100
AcDbLayout
  1
Layout1
 70
     1
 71
     1
 10
0.0
 20
0.0
 11
12.0
 21
9.0
 12
0.0
 22
0.0
 32
0.0
 14
1.000000000000000E+20
 24
1.000000000000000E+20
 34
1.000000000000000E+20
 15
-1.000000000000000E+20
 25
-1.000000000000000E+20
 35
-1.000000000000000E+20
146
0.0
 13
0.0
 23
0.0
 33
0.0
 16
1.0
 26
0.0
 36
0.0
 17
0.0
 27
1.0
 37
0.0
 76
     0
330
1B
  0
LAYOUT
  5
22
102
{ACAD_REACTORS
330
1A
102
}
330
1A
100
AcDbPlotSettings
  1

  2
none_device
  4

  6

 40
0.0
 41
0.0
 42
0.0
 43
0.0
 44
0.0
 45
0.0
 46
0.0
 47
0.0
 48
0.0
 49
0.0
140
0.0
141
0.0
142
1.0
143
1.0
 70
  1712
 72
     0
 73
     0
 74
     0
  7

 75
     0
 76
     0
 77
     2
 78
   300
147
1.0
148
0.0
149
0.0
100
AcDbLayout
  1
Model
 70
     1
 71
     0
 10
0.0
 20
0.0
 11
12.0
 21
9.0
 12
0.0
 22
0.0
 32
0.0
 14
30.0
 24
49.75
 34
0.0
 15
130.5
 25
163.1318914119703
 35
0.0
146
0.0
 13
0.0
 23
0.0
 33
0.0
 16
1.0
 26
0.0
 36
0.0
 17
0.0
 27
1.0
 37
0.0
 76
     0
330
1F
331
29
  0
ACDBPLACEHOLDER
  5
F
102
{ACAD_REACTORS
330
E
102
}
330
E
  0
ENDSEC
  0
EOF
