  0
SECTION
  2
HEADER
  9
$ACADVER
  1
AC1018
  9
$ACADMAINTVER
 70
     0
  9
$DWGCODEPAGE
  3
ANSI_1252
  9
$EXTMIN
 10
1390459.44680418
 20
354791.066325152
 30
0.0
  9
$EXTMAX
 10
1399270.34931924
 20
360790.462875955
 30
0.0
  9
$LIMMIN
 10
0.0
 20
0.0
  9
$LIMMAX
 10
12.0
 20
9.0
  9
$ORTHOMODE
 70
     0
  9
$REGENMODE
 70
     1
  9
$FILLMODE
 70
     1
  9
$QTEXTMODE
 70
     0
  9
$MIRRTEXT
 70
     1
  9
$LTSCALE
 40
1.0
  9
$ATTMODE
 70
     1
  9
$TEXTSIZE
 40
0.2
  9
$TRACEWID
 40
0.05
  9
$TEXTSTYLE
  7
Standard
  9
$CLAYER
  8
0
  9
$CELTYPE
  6
ByLayer
  9
$CECOLOR
 62
   256
  9
$CELTSCALE
 40
1.0
  9
$DISPSILH
 70
     0
  9
$LUNITS
 70
     2
  9
$LUPREC
 70
     4
  9
$SKETCHINC
 40
0.1
  9
$FILLETRAD
 40
0.5
  9
$AUNITS
 70
     0
  9
$AUPREC
 70
     0
  9
$MENU
  1
.
  9
$ELEVATION
 40
0.0
  9
$PELEVATION
 40
0.0
  9
$THICKNESS
 40
0.0
  9
$LIMCHECK
 70
     0
  9
$CHAMFERA
 40
0.5
  9
$CHAMFERB
 40
0.5
  9
$CHAMFERC
 40
1.0
  9
$CHAMFERD
 40
0.0
  9
$SKPOLY
 70
     0
  9
$ANGBASE
 50
0.0
  9
$ANGDIR
 70
     0
  9
$PDMODE
 70
     0
  9
$PDSIZE
 40
0.0
  9
$PLINEWID
 40
0.0
  9
$SPLFRAME
 70
     0
  9
$SPLINETYPE
 70
     6
  9
$SPLINESEGS
 70
     8
  9
$HANDSEED
  5
00020112
  9
$SURFTAB1
 70
     6
  9
$SURFTAB2
 70
     6
  9
$SURFTYPE
 70
     6
  9
$SURFU
 70
     6
  9
$SURFV
 70
     6
  9
$UCSBASE
  2

  9
$UCSNAME
  2

  9
$UCSORG
 10
0.0
 20
0.0
 30
0.0
  9
$UCSXDIR
 10
1.0
 20
0.0
 30
0.0
  9
$UCSYDIR
 10
0.0
 20
1.0
 30
0.0
  9
$UCSORTHOREF
  2

  9
$UCSORTHOVIEW
 70
     0
  9
$UCSORGTOP
 10
0.0
 20
0.0
 30
0.0
  9
$UCSORGBOTTOM
 10
0.0
 20
0.0
 30
0.0
  9
$UCSORGLEFT
 10
0.0
 20
0.0
 30
0.0
  9
$UCSORGRIGHT
 10
0.0
 20
0.0
 30
0.0
  9
$UCSORGFRONT
 10
0.0
 20
0.0
 30
0.0
  9
$UCSORGBACK
 10
0.0
 20
0.0
 30
0.0
  9
$PUCSBASE
  2

  9
$PUCSNAME
  2

  9
$PUCSORG
 10
0.0
 20
0.0
 30
0.0
  9
$PUCSXDIR
 10
1.0
 20
0.0
 30
0.0
  9
$PUCSYDIR
 10
0.0
 20
1.0
 30
0.0
  9
$PUCSORTHOREF
  2

  9
$PUCSORTHOVIEW
 70
     0
  9
$PUCSORGTOP
 10
0.0
 20
0.0
 30
0.0
  9
$PUCSORGBOTTOM
 10
0.0
 20
0.0
 30
0.0
  9
$PUCSORGLEFT
 10
0.0
 20
0.0
 30
0.0
  9
$PUCSORGRIGHT
 10
0.0
 20
0.0
 30
0.0
  9
$PUCSORGFRONT
 10
0.0
 20
0.0
 30
0.0
  9
$PUCSORGBACK
 10
0.0
 20
0.0
 30
0.0
  9
$WORLDVIEW
 70
     1
  9
$SHADEDGE
 70
     3
  9
$SHADEDIF
 70
    70
  9
$TILEMODE
 70
     1
  9
$MAXACTVP
 70
    64
  9
$PINSBASE
 10
0.0
 20
0.0
 30
0.0
  9
$PLIMCHECK
 70
     0
  9
$PEXTMIN
 10
1.000000000000000E+20
 20
1.000000000000000E+20
 30
1.000000000000000E+20
  9
$PEXTMAX
 10
-1.000000000000000E+20
 20
-1.000000000000000E+20
 30
-1.000000000000000E+20
  9
$PLIMMIN
 10
0.0
 20
0.0
  9
$PLIMMAX
 10
12.0
 20
9.0
  9
$UNITMODE
 70
     0
  9
$VISRETAIN
 70
     1
  9
$PLINEGEN
 70
     0
  9
$PSLTSCALE
 70
     1
  9
$TREEDEPTH
 70
  3020
  9
$CMLSTYLE
  2
Standard
  9
$CMLJUST
 70
     0
  9
$CMLSCALE
 40
1.0
  9
$PROXYGRAPHICS
 70
     1
  9
$MEASUREMENT
 70
     0
  9
$CELWEIGHT
370
    -1
  9
$ENDCAPS
280
     0
  9
$JOINSTYLE
280
     0
  9
$LWDISPLAY
290
     0
  9
$INSUNITS
 70
     1
  9
$HYPERLINKBASE
  1

  9
$STYLESHEET
  1

  9
$XEDIT
290
     1
  9
$CEPSNTYPE
380
     0
  9
$PSTYLEMODE
290
     1
  9
$EXTNAMES
290
     1
  9
$PSVPSCALE
 40
0.0
  9
$OLESTARTUP
290
     0
  9
$SORTENTS
280
   127
  9
$INDEXCTL
280
     0
  9
$HIDETEXT
280
     1
  9
$XCLIPFRAME
290
     0
  9
$HALOGAP
280
     0
  9
$OBSCOLOR
 70
   257
  9
$OBSLTYPE
280
     0
  9
$INTERSECTIONDISPLAY
280
     0
  9
$INTERSECTIONCOLOR
 70
   257
  9
$DIMASSOC
280
     2
  9
$PROJECTNAME
  1

  0
ENDSEC
  0
SECTION
  2
CLASSES
  0
CLASS
  1
ACDBDICTIONARYWDFLT
  2
AcDbDictionaryWithDefault
  3
ObjectDBX Classes
 90
        0
 91
        4
280
     0
281
     0
  0
ENDSEC
  0
SECTION
  2
TABLES
  0
TABLE
  2
VPORT
  5
8
330
0
100
AcDbSymbolTable
 70
     1
  0
VPORT
  5
29
330
8
100
AcDbSymbolTableRecord
100
AcDbViewportTableRecord
  2
*Active
 70
     0
 10
0.0
 20
0.0
 11
1.0
 21
1.0
 12
80.25
 22
106.4409457059851
 13
0.0
 23
0.0
 14
0.5
 24
0.5
 15
0.5
 25
0.5
 16
0.0
 26
0.0
 36
1.0
 17
0.0
 27
0.0
 37
0.0
 40
113.3818914119703
 41
0.8863849310366128
 42
50.0
 43
0.0
 44
0.0
 50
0.0
 51
0.0
 71
     0
 72
  1000
 73
     1
 74
     3
 75
     0
 76
     0
 77
     0
 78
     0
281
     0
 65
     1
110
0.0
120
0.0
130
0.0
111
1.0
121
0.0
131
0.0
112
0.0
122
1.0
132
0.0
 79
     0
146
0.0
  0
ENDTAB
  0
TABLE
  2
LTYPE
  5
5
330
0
100
AcDbSymbolTable
 70
     1
  0
LTYPE
  5
14
330
5
100
AcDbSymbolTableRecord
100
AcDbLinetypeTableRecord
  2
ByBlock
 70
     0
  3

 72
    65
 73
     0
 40
0.0
  0
LTYPE
  5
15
330
5
100
AcDbSymbolTableRecord
100
AcDbLinetypeTableRecord
  2
ByLayer
 70
     0
  3

 72
    65
 73
     0
 40
0.0
  0
LTYPE
  5
16
330
5
100
AcDbSymbolTableRecord
100
AcDbLinetypeTableRecord
  2
Continuous
 70
     0
  3
Solid line
 72
    65
 73
     0
 40
0.0
  0
ENDTAB
  0
TABLE
  2
LAYER
  5
2
330
0
100
AcDbSymbolTable
 70
     1
  0
LAYER
  5
10
330
2
100
AcDbSymbolTableRecord
100
AcDbLayerTableRecord
  2
0
 70
     0
 62
     7
  6
Continuous
370
    -3
390
F
  0
ENDTAB
  0
TABLE
  2
STYLE
  5
3
330
0
100
AcDbSymbolTable
 70
     1
  0
STYLE
  5
11
330
3
100
AcDbSymbolTableRecord
100
AcDbTextStyleTableRecord
  2
Standard
 70
     0
 40
0.0
 41
1.0
 50
0.0
 71
     0
 42
0.2
  3
txt
  4

  0
ENDTAB
  0
TABLE
  2
VIEW
  5
6
330
0
100
AcDbSymbolTable
 70
     0
  0
ENDTAB
  0
TABLE
  2
UCS
  5
7
330
0
100
AcDbSymbolTable
 70
     0
  0
ENDTAB
  0
TABLE
  2
APPID
  5
9
330
0
100
AcDbSymbolTable
 70
     1
  0
APPID
  5
12
330
9
100
AcDbSymbolTableRecord
100
AcDbRegAppTableRecord
  2
ACAD
 70
     0
  0
ENDTAB
  0
TABLE
  2
DIMSTYLE
  5
A
330
0
100
AcDbSymbolTable
 70
     1
100
AcDbDimStyleTable
  0
DIMSTYLE
105
27
330
A
100
AcDbSymbolTableRecord
100
AcDbDimStyleTableRecord
  2
Standard
 70
     0
340
11
  0
ENDTAB
  0
TABLE
  2
BLOCK_RECORD
  5
1
330
0
100
AcDbSymbolTable
 70
     1
  0
BLOCK_RECORD
  5
1F
330
1
100
AcDbSymbolTableRecord
100
AcDbBlockTableRecord
  2
*Model_Space
340
22
  0
BLOCK_RECORD
  5
1B
330
1
100
AcDbSymbolTableRecord
100
AcDbBlockTableRecord
  2
*Paper_Space
340
1E
  0
ENDTAB
  0
ENDSEC
  0
SECTION
  2
BLOCKS
  0
BLOCK
  5
20
330
1F
100
AcDbEntity
  8
0
100
AcDbBlockBegin
  2
*Model_Space
 70
     0
 10
0.0
 20
0.0
 30
0.0
  3
*Model_Space
  1

  0
ENDBLK
  5
21
330
1F
100
AcDbEntity
  8
0
100
AcDbBlockEnd
  0
BLOCK
  5
1C
330
1B
100
AcDbEntity
 67
     1
  8
0
100
AcDbBlockBegin
  2
*Paper_Space
 70
     0
 10
0.0
 20
0.0
 30
0.0
  3
*Paper_Space
  1

  0
ENDBLK
  5
1D
330
1B
100
AcDbEntity
 67
     1
  8
0
100
AcDbBlockEnd
  0
ENDSEC
  0
SECTION
  2
ENTITIES
  0
LWPOLYLINE
  5
20000
100
AcDbEntity
  8
0
100
AcDbPolyline
 70
0
 90
9
 10
1394663.64991643
 20
359118.575418818
 10
1394686.56991157
 20
359113.995414799
 10
1394673.83990265
 20
359057.615427249
 10
1394666.1099043
 20
359059.205428513
 10
1394664.84990331
 20
359053.245429836
 10
1394653.44990566
 20
359055.175431843
 10
1394653.60990572
 20
359055.965431651
 10
1394651.58990615
 20
359056.365432017
 10
1394663.64991643
 20
359118.575418818
  0
LWPOLYLINE
  5
20001
100
AcDbEntity
  8
0
100
AcDbPolyline
 70
0
 90
11
 10
1394612.61992845
 20
359134.535426592
 10
1394617.02992748
 20
359133.385425835
 10
1394619.41992889
 20
359142.805423748
 10
1394636.95992486
 20
359137.935420978
 10
1394643.36992341
 20
359136.08541999
 10
1394639.03992051
 20
359117.415424072
 10
1394639.75992029
 20
359117.135423936
 10
1394629.71991417
 20
359077.505432863
 10
1394620.11991624
 20
359079.575434558
 10
1394599.28992097
 20
359085.205437893
 10
1394612.61992845
 20
359134.535426592
  0
LWPOLYLINE
  5
20002
100
AcDbEntity
  8
0
100
AcDbPolyline
 70
0
 90
13
 10
1394193.08006308
 20
359256.135355031
 10
1394190.93006404
 20
359259.055354949
 10
1394181.83006829
 20
359272.555354522
 10
1394175.96007012
 20
359276.725354968
 10
1394172.89007106
 20
359278.775355222
 10
1394168.09007265
 20
359282.585355518
 10
1394169.76007342
 20
359287.885354266
 10
1394185.58007291
 20
359299.095349193
 10
1394183.21007399
 20
359302.485349072
 10
1394188.06007385
 20
359305.995347405
 10
1394207.34006523
 20
359279.36534818
 10
1394205.40006222
 20
359262.495351482
 10
1394193.08006308
 20
359256.135355031
  0
LWPOLYLINE
  5
20003
100
AcDbEntity
  8
0
100
AcDbPolyline
 70
0
 90
18
 10
1394264.30006043
 20
359304.755332286
 10
1394246.76009377
 20
359325.924812213
 10
1394238.32007123
 20
359336.505332052
 10
1394242.07007102
 20
359338.785330915
 10
1394244.79007089
 20
359340.475330087
 10
1394249.97009658
 20
359342.92480863
 10
1394254.01007012
 20
359344.635327434
 10
1394262.4800695
 20
359348.895325016
 10
1394270.91006933
 20
359355.345322228
 10
1394272.64009442
 20
359351.764802604
 10
1394273.55006826
 20
359352.235322242
 10
1394273.02006739
 20
359347.395323183
 10
1394277.94006485
 20
359338.925323667
 10
1394288.61006046
 20
359326.055323673
 10
1394288.43008653
 20
359325.744803973
 10
1394286.25008625
 20
359322.45480497
 10
1394277.17006033
 20
359315.42532789
 10
1394264.30006043
 20
359304.755332286
  0
LWPOLYLINE
  5
20004
100
AcDbEntity
  8
0
100
AcDbPolyline
 70
0
 90
12
 10
1394302.13005316
 20
359301.065325312
 10
1394300.6900799
 20
359303.034805452
 10
1394286.25008625
 20
359322.45480497
 10
1394288.43008653
 20
359325.744803973
 10
1394288.61006046
 20
359326.055323673
 10
1394289.60006057
 20
359327.495323233
 10
1394296.43008664
 20
359333.274801075
 10
1394301.49006052
 20
359337.545319139
 10
1394309.17008501
 20
359336.174798044
 10
1394322.23005351
 20
359320.2653179
 10
1394323.9000528
 20
359318.215317922
 10
1394302.13005316
 20
359301.065325312
  0
LWPOLYLINE
  5
20005
100
AcDbEntity
  8
0
100
AcDbPolyline
 70
0
 90
26
 10
1394121.35006984
 20
359227.765374466
 10
1394111.24007456
 20
359243.235373805
 10
1394101.25007651
 20
359244.355375589
 10
1394087.08010324
 20
359234.714859672
 10
1394085.33007895
 20
359242.805379117
 10
1394088.65007853
 20
359243.575378327
 10
1394087.12010641
 20
359250.724856901
 10
1394086.38008028
 20
359250.455377596
 10
1394087.00010777
 20
359257.454855758
 10
1394093.35008216
 20
359265.975373528
 10
1394100.50008535
 20
359288.265368156
 10
1394107.11010992
 20
359285.804846874
 10
1394108.94008255
 20
359281.515367647
 10
1394113.57008015
 20
359273.445368119
 10
1394110.99008035
 20
359271.685368938
 10
1394112.57007962
 20
359269.375369023
 10
1394112.24010573
 20
359269.154848731
 10
1394120.880076
 20
359258.375369278
 10
1394121.99007552
 20
359256.975369299
 10
1394123.67010097
 20
359255.094848888
 10
1394125.01007434
 20
359253.595369177
 10
1394130.97009805
 20
359246.744848876
 10
1394134.34007061
 20
359242.945369169
 10
1394134.80007042
 20
359242.425369168
 10
1394137.38006941
 20
359239.535369153
 10
1394121.35006984
 20
359227.765374466
  0
LWPOLYLINE
  5
20006
100
AcDbEntity
  8
0
100
AcDbPolyline
 70
0
 90
25
 10
1394357.30005617
 20
359232.714806368
 10
1394359.75005754
 20
359241.774804316
 10
1394360.49003185
 20
359244.455323306
 10
1394362.15005888
 20
359250.604802316
 10
1394359.00005959
 20
359251.454802785
 10
1394359.69006004
 20
359254.294802167
 10
1394361.21006101
 20
359260.554800775
 10
1394362.56006189
 20
359266.114799552
 10
1394363.23003623
 20
359268.885318542
 10
1394363.9700628
 20
359271.954798263
 10
1394375.61006027
 20
359269.364796401
 10
1394378.69006011
 20
359271.204795472
 10
1394396.26005623
 20
359266.904792717
 10
1394400.46005529
 20
359265.884792069
 10
1394401.10005516
 20
359265.724791963
 10
1394399.14002772
 20
359257.285313315
 10
1394395.73002543
 20
359242.785316503
 10
1394393.22002372
 20
359231.965318864
 10
1394391.55004869
 20
359224.814800931
 10
1394389.22002309
 20
359225.365320798
 10
1394387.73002342
 20
359225.705321034
 10
1394385.76002385
 20
359226.165321348
 10
1394371.64002695
 20
359229.475323581
 10
1394367.56005378
 20
359229.58480487
 10
1394357.30005617
 20
359232.714806368
  0
LWPOLYLINE
  5
20007
100
AcDbEntity
  8
0
100
AcDbPolyline
 70
0
 90
24
 10
1394312.319996
 20
359214.285474845
 10
1394305.25006308
 20
359222.204818518
 10
1394294.8600672
 20
359233.924818553
 10
1394295.72000289
 20
359234.725474801
 10
1394292.87006833
 20
359237.904818265
 10
1394277.37001047
 20
359256.745474788
 10
1394275.47007556
 20
359259.164818047
 10
1394286.59001117
 20
359268.095470924
 10
1394311.85007586
 20
359292.394805082
 10
1394316.45001121
 20
359294.385460165
 10
1394317.42001097
 20
359293.785460087
 10
1394332.99006999
 20
359281.184802822
 10
1394334.02000543
 20
359280.495458998
 10
1394335.83000492
 20
359279.775458751
 10
1394336.40006908
 20
359279.60480241
 10
1394331.27006649
 20
359262.044806462
 10
1394337.21006515
 20
359260.504805559
 10
1394335.58006404
 20
359253.504807088
 10
1394342.48999831
 20
359251.815462201
 10
1394343.04999576
 20
359239.725464162
 10
1394332.4199934
 20
359218.565469975
 10
1394320.33999307
 20
359206.345474618
 10
1394319.3700577
 20
359207.414818266
 10
1394312.319996
 20
359214.285474845
  0
LWPOLYLINE
  5
20008
100
AcDbEntity
  8
0
100
AcDbPolyline
 70
0
 90
8
 10
1394234.04007678
 20
359229.274831438
 10
1394232.2600512
 20
359230.365351604
 10
1394225.44007931
 20
359234.534832229
 10
1394219.91008083
 20
359237.394832837
 10
1394223.56005482
 20
359241.055351474
 10
1394226.42005481
 20
359243.47535049
 10
1394236.50007679
 20
359231.44483057
 10
1394234.04007678
 20
359229.274831438
  0
LWPOLYLINE
  5
20009
100
AcDbEntity
  8
0
100
AcDbPolyline
 70
0
 90
11
 10
1394651.58990615
 20
359056.365432017
 10
1394653.60990572
 20
359055.965431651
 10
1394653.44990566
 20
359055.175431843
 10
1394664.84990331
 20
359053.245429836
 10
1394666.1099043
 20
359059.205428513
 10
1394673.83990265
 20
359057.615427249
 10
1394681.449901
 20
359056.055425895
 10
1394678.00989867
 20
359041.555429135
 10
1394673.89989632
 20
359025.865432724
 10
1394646.74990211
 20
359031.385437351
 10
1394651.58990615
 20
359056.365432017
  0
LWPOLYLINE
  5
2000A
100
AcDbEntity
  8
0
100
AcDbPolyline
 70
0
 90
5
 10
1394846.80327227
 20
359302.316818553
 10
1394902.43190716
 20
359279.255256415
 10
1394836.27853892
 20
359122.258180243
 10
1394781.16110437
 20
359145.498718517
 10
1394846.80327227
 20
359302.316818553
  0
LWPOLYLINE
  5
2000B
100
AcDbEntity
  8
0
100
AcDbPolyline
 70
0
 90
11
 10
1394722.41987582
 20
358964.83543316
 10
1394727.92987489
 20
358964.765432025
 10
1394727.90987517
 20
358966.535431792
 10
1394750.07987134
 20
358966.395427141
 10
1394748.92985601
 20
358887.915440982
 10
1394737.77985801
 20
358888.195443221
 10
1394737.64985332
 20
358864.755447277
 10
1394716.47985699
 20
358865.035451669
 10
1394717.03986977
 20
358929.675440367
 10
1394721.85986891
 20
358929.595439419
 10
1394722.41987582
 20
358964.83543316
  0
LWPOLYLINE
  5
2000C
100
AcDbEntity
  8
0
100
AcDbPolyline
 70
0
 90
5
 10
1394119.15992177
 20
358672.195608375
 10
1394098.49992819
 20
358686.585610208
 10
1394119.99992737
 20
358701.545603214
 10
1394132.8399228
 20
358689.365602614
 10
1394119.15992177
 20
358672.195608375
  0
LWPOLYLINE
  5
2000D
100
AcDbEntity
  8
0
100
AcDbPolyline
 70
0
 90
49
 10
1392277.96970933
 20
356002.466449959
 10
1392278.47977355
 20
355999.295777709
 10
1392280.59970542
 20
355985.286452437
 10
1392268.80970588
 20
355977.056456303
 10
1392254.12977161
 20
355968.305787901
 10
1392228.74970709
 20
355948.476469459
 10
1392210.89970931
 20
355944.406473919
 10
1392211.54970903
 20
355943.216473976
 10
1392210.9897086
 20
355940.866474429
 10
1392209.97970831
 20
355938.346475106
 10
1392208.00970843
 20
355937.106475696
 10
1392205.39970883
 20
355936.776476312
 10
1392202.25970946
 20
355937.146476928
 10
1392199.25971024
 20
355938.526477287
 10
1392180.72971071
 20
355925.066483407
 10
1392178.94971047
 20
355922.416484321
 10
1392162.61977843
 20
355923.025813879
 10
1392161.11971371
 20
355923.186487811
 10
1392136.30971794
 20
355923.056492974
 10
1392124.31972018
 20
355923.676495326
 10
1392121.29971973
 20
355918.566496894
 10
1392104.78972557
 20
355933.646497709
 10
1392110.70972532
 20
355937.746495747
 10
1392114.97972512
 20
355940.706494386
 10
1392117.44972508
 20
355942.166493577
 10
1392119.44972401
 20
355938.976493751
 10
1392121.85972349
 20
355938.486493276
 10
1392123.97972338
 20
355939.726492708
 10
1392125.2397228
 20
355937.796492693
 10
1392132.61972247
 20
355942.596490361
 10
1392131.90972287
 20
355943.726490293
 10
1392135.35972261
 20
355945.56648935
 10
1392134.70972297
 20
355946.616489221
 10
1392140.83978759
 20
355950.235813508
 10
1392146.27978734
 20
355953.735811823
 10
1392159.55978665
 20
355961.795807797
 10
1392169.82972116
 20
355968.116478276
 10
1392172.12971992
 20
355964.016478479
 10
1392183.41971927
 20
355970.596475073
 10
1392176.2797229
 20
355982.786474379
 10
1392192.65972216
 20
355992.926469291
 10
1392189.33973114
 20
356035.306462694
 10
1392204.03973808
 20
356082.976451424
 10
1392200.38973895
 20
356084.186451909
 10
1392208.90974119
 20
356103.246446911
 10
1392238.09973427
 20
356093.406442563
 10
1392280.59972076
 20
356062.34643915
 10
1392278.28972025
 20
356057.736440393
 10
1392277.96970933
 20
356002.466449959
  0
LWPOLYLINE
  5
2000E
100
AcDbEntity
  8
0
100
AcDbPolyline
 70
0
 90
11
 10
1391617.3226018
 20
355696.532831251
 10
1391614.40273408
 20
355684.715589761
 10
1391610.37814249
 20
355682.343508484
 10
1391612.62633463
 20
355675.956506772
 10
1391602.08660223
 20
355675.135101494
 10
1391583.71481092
 20
355675.644179254
 10
1391578.8223776
 20
355682.270783691
 10
1391585.86975141
 20
355689.080071285
 10
1391587.88582931
 20
355695.902398112
 10
1391589.89206032
 20
355702.714572101
 10
1391617.3226018
 20
355696.532831251
  0
LWPOLYLINE
  5
2000F
100
AcDbEntity
  8
0
100
AcDbPolyline
 70
0
 90
14
 10
1393285.48866566
 20
358009.034948162
 10
1393292.54358118
 20
358014.044022997
 10
1393308.81999219
 20
357997.815227899
 10
1393309.15999058
 20
357990.025229174
 10
1393294.90998735
 20
357961.305236968
 10
1393308.80998366
 20
357954.845235327
 10
1393341.95862171
 20
357927.520963561
 10
1393286.45151341
 20
357859.216364546
 10
1393248.53079521
 20
357892.693523152
 10
1393237.37164146
 20
357880.059950872
 10
1393218.68390774
 20
357894.017081713
 10
1393252.60620701
 20
357946.637879541
 10
1393270.04655702
 20
357985.42338886
 10
1393285.48866566
 20
358009.034948162
  0
LWPOLYLINE
  5
20010
100
AcDbEntity
  8
0
100
AcDbPolyline
 70
0
 90
6
 10
1392268.4273963
 20
356574.265637479
 10
1392328.72460315
 20
356577.928946358
 10
1392323.89730248
 20
356542.387278094
 10
1392282.27338618
 20
356535.508954347
 10
1392268.84823745
 20
356539.574453885
 10
1392268.4273963
 20
356574.265637479
  0
LWPOLYLINE
  5
20011
100
AcDbEntity
  8
0
100
AcDbPolyline
 70
0
 90
10
 10
1391866.55134175
 20
355917.203543349
 10
1391894.69966674
 20
355934.057831712
 10
1391906.73816953
 20
355936.942623538
 10
1391917.60427244
 20
355945.850798476
 10
1391942.54398617
 20
355954.724259993
 10
1392022.4368553
 20
355955.026503093
 10
1392017.56509118
 20
355934.807547447
 10
1391949.94854223
 20
355900.275615654
 10
1391920.97860282
 20
355895.281353587
 10
1391866.55134175
 20
355917.203543349
  0
LWPOLYLINE
  5
20012
100
AcDbEntity
  8
0
100
AcDbPolyline
 70
0
 90
13
 10
1393837.59996695
 20
358330.875065378
 10
1393813.83996651
 20
358307.935074057
 10
1393810.91673747
 20
358305.041439912
 10
1393828.37689567
 20
358287.230852385
 10
1393832.90995996
 20
358291.5350731
 10
1393844.94996025
 20
358303.495068643
 10
1393851.92996056
 20
358311.145065939
 10
1393853.01122856
 20
358312.291019973
 10
1393852.12565517
 20
358315.44691737
 10
1393850.26996212
 20
358317.605065157
 10
1393843.53996468
 20
358324.64506527
 10
1393839.38996627
 20
358329.005065345
 10
1393837.59996695
 20
358330.875065378
  0
LWPOLYLINE
  5
20013
100
AcDbEntity
  8
0
100
AcDbPolyline
 70
0
 90
8
 10
1393790.52559144
 20
358250.754361684
 10
1393820.69343979
 20
358276.627621228
 10
1393804.71996541
 20
358294.525078189
 10
1393802.38271182
 20
358297.128033467
 10
1393783.47306366
 20
358279.44239908
 10
1393768.29515776
 20
358264.061420916
 10
1393782.25926364
 20
358250.119438583
 10
1393790.52559144
 20
358250.754361684
  0
LWPOLYLINE
  5
20014
100
AcDbEntity
  8
0
100
AcDbPolyline
 70
0
 90
16
 10
1392660.27973986
 20
356161.855673845
 10
1392652.01264607
 20
356154.008943922
 10
1392670.32973221
 20
356131.995677008
 10
1392673.75973031
 20
356125.395677469
 10
1392681.97972907
 20
356126.315675679
 10
1392689.14972791
 20
356126.705674184
 10
1392698.7197261
 20
356125.915672423
 10
1392708.78972453
 20
356126.785670268
 10
1392715.10972388
 20
356129.005668631
 10
1392721.64972384
 20
356134.485666385
 10
1392721.22972524
 20
356141.185665317
 10
1392713.34973087
 20
356162.735663156
 10
1392712.39813881
 20
356165.402964286
 10
1392709.55226096
 20
356167.214181413
 10
1392674.51911191
 20
356165.409784981
 10
1392660.27973986
 20
356161.855673845
  0
LWPOLYLINE
  5
20015
100
AcDbEntity
  8
0
100
AcDbPolyline
 70
0
 90
5
 10
1392594.83175796
 20
356207.816710732
 10
1392583.59433264
 20
356213.974834939
 10
1392577.24976227
 20
356202.485683307
 10
1392590.03291989
 20
356196.418585925
 10
1392594.83175796
 20
356207.816710732
  0
LWPOLYLINE
  5
20016
100
AcDbEntity
  8
0
100
AcDbPolyline
 70
0
 90
5
 10
1392213.65748558
 20
356396.597681075
 10
1392223.07289496
 20
356414.690403783
 10
1392241.38034712
 20
356405.163245331
 10
1392231.9649367
 20
356387.070526496
 10
1392213.65748558
 20
356396.597681075
  0
LWPOLYLINE
  5
20017
100
AcDbEntity
  8
0
100
AcDbPolyline
 70
0
 90
6
 10
1393180.9198072
 20
357087.375933792
 10
1393194.29980919
 20
357109.045927392
 10
1393218.29981023
 20
357134.655918099
 10
1393231.79980654
 20
357127.8359166
 10
1393212.74979972
 20
357076.895929185
 10
1393180.9198072
 20
357087.375933792
  0
LWPOLYLINE
  5
20018
100
AcDbEntity
  8
0
100
AcDbPolyline
 70
0
 90
6
 10
1393228.79979495
 20
357066.775927747
 10
1393239.40980036
 20
357103.295919225
 10
1393266.31981942
 20
357090.255393138
 10
1393252.24981364
 20
357048.88540308
 10
1393232.46979222
 20
357056.225928844
 10
1393228.79979495
 20
357066.775927747
  0
LWPOLYLINE
  5
20019
100
AcDbEntity
  8
0
100
AcDbPolyline
 70
0
 90
7
 10
1393135.10978272
 20
356924.105971298
 10
1393167.98979739
 20
357026.645946948
 10
1393189.83979227
 20
357019.865943688
 10
1393193.15978993
 20
357011.035944554
 10
1393192.34978264
 20
356973.535951191
 10
1393171.49977395
 20
356911.635966123
 10
1393135.10978272
 20
356924.105971298
  0
LWPOLYLINE
  5
2001A
100
AcDbEntity
  8
0
100
AcDbPolyline
 70
0
 90
11
 10
1393198.91978507
 20
356991.535946781
 10
1393201.7798174
 20
357023.885417422
 10
1393206.04981988
 20
357040.065413776
 10
1393218.16979067
 20
357035.985935179
 10
1393224.45979281
 20
357052.285931109
 10
1393231.19979112
 20
357049.625930228
 10
1393238.63978751
 20
357037.875930681
 10
1393239.59978401
 20
357021.105933397
 10
1393231.37978015
 20
356994.485939724
 10
1393216.59980658
 20
356982.255421667
 10
1393198.91978507
 20
356991.535946781
  0
LWPOLYLINE
  5
2001B
100
AcDbEntity
  8
0
100
AcDbPolyline
 70
0
 90
7
 10
1393108.30977363
 20
356854.995988648
 10
1393132.03980986
 20
356925.16544832
 10
1393171.49977395
 20
356911.635966123
 10
1393150.21976522
 20
356849.105981151
 10
1393144.2897667
 20
356851.415981931
 10
1393141.24976611
 20
356845.755983507
 10
1393108.30977363
 20
356854.995988648
  0
LWPOLYLINE
  5
2001C
100
AcDbEntity
  8
0
100
AcDbPolyline
 70
0
 90
12
 10
1393065.89978271
 20
356863.835995643
 10
1393125.55980748
 20
357040.615953065
 10
1393137.51981124
 20
357069.945945614
 10
1393164.51980486
 20
357061.335941648
 10
1393162.82980247
 20
357047.785944325
 10
1393167.98979739
 20
357026.645946948
 10
1393135.10978272
 20
356924.105971298
 10
1393132.03980986
 20
356925.16544832
 10
1393108.30977363
 20
356854.995988648
 10
1393104.64977359
 20
356851.605989971
 10
1393097.81980076
 20
356849.525468183
 10
1393065.89978271
 20
356863.835995643
  0
LWPOLYLINE
  5
2001D
100
AcDbEntity
  8
0
100
AcDbPolyline
 70
0
 90
17
 10
1393890.80997252
 20
358405.235041962
 10
1393891.44997245
 20
358405.4550418
 10
1393894.87997252
 20
358408.785040539
 10
1393919.96997306
 20
358433.335031312
 10
1393922.93997306
 20
358435.975030274
 10
1393910.7899128
 20
358446.305690494
 10
1393900.70998091
 20
358456.155031201
 10
1393898.29998177
 20
358458.375031292
 10
1393878.75991748
 20
358442.015697849
 10
1393872.29998185
 20
358436.145040306
 10
1393871.53998082
 20
358430.305041456
 10
1393871.19991587
 20
358427.265701935
 10
1393874.33997883
 20
358422.685042223
 10
1393878.19997724
 20
358418.00504226
 10
1393887.63997361
 20
358407.995042116
 10
1393890.15997267
 20
358405.48504205
 10
1393890.80997252
 20
358405.235041962
  0
LWPOLYLINE
  5
2001E
100
AcDbEntity
  8
0
100
AcDbPolyline
 70
0
 90
18
 10
1393805.27993273
 20
358454.725710894
 10
1393812.25999703
 20
358460.365048028
 10
1393820.81999691
 20
358467.235045147
 10
1393823.23999691
 20
358469.345044301
 10
1393828.9699969
 20
358474.275042308
 10
1393835.83999698
 20
358480.64503985
 10
1393845.09999718
 20
358489.705036446
 10
1393848.93993294
 20
358493.885695024
 10
1393849.77993456
 20
358502.655693332
 10
1393831.38994233
 20
358525.795693221
 10
1393825.74000712
 20
358522.945034547
 10
1393823.18000681
 20
358519.195035702
 10
1393818.40000637
 20
358512.785037754
 10
1393817.13994185
 20
358511.115698634
 10
1393794.47000637
 20
358491.975046108
 10
1393787.21000653
 20
358486.425048505
 10
1393782.91994208
 20
358482.865710572
 10
1393805.27993273
 20
358454.725710894
  0
LWPOLYLINE
  5
2001F
100
AcDbEntity
  8
0
100
AcDbPolyline
 70
0
 90
6
 10
1394613.63995855
 20
359287.245400006
 10
1394637.3599533
 20
359281.195396142
 10
1394628.36994774
 20
359245.405404152
 10
1394613.62995127
 20
359250.515406339
 10
1394602.84995414
 20
359255.355407742
 10
1394613.63995855
 20
359287.245400006
  0
LWPOLYLINE
  5
20020
100
AcDbEntity
  8
0
100
AcDbPolyline
 70
0
 90
9
 10
1394599.83994931
 20
359228.74541292
 10
1394606.73995269
 20
359251.875407524
 10
1394631.24994704
 20
359244.655403729
 10
1394625.86994418
 20
359225.635408084
 10
1394626.54994405
 20
359225.435407997
 10
1394625.28994344
 20
359221.085409008
 10
1394616.61994545
 20
359223.595410345
 10
1394614.83994593
 20
359224.685410529
 10
1394599.83994931
 20
359228.74541292
  0
LWPOLYLINE
  5
20021
100
AcDbEntity
  8
0
100
AcDbPolyline
 70
0
 90
10
 10
1394218.84015359
 20
359603.084769863
 10
1394229.02015427
 20
359615.374765712
 10
1394246.46014648
 20
359591.254766422
 10
1394244.16014657
 20
359589.754767138
 10
1394232.13014691
 20
359580.934771053
 10
1394230.41014719
 20
359580.904771398
 10
1394226.80014854
 20
359584.55477148
 10
1394225.24014932
 20
359587.114771352
 10
1394223.58015014
 20
359589.824771217
 10
1394218.84015359
 20
359603.084769863
  0
LWPOLYLINE
  5
20022
100
AcDbEntity
  8
0
100
AcDbPolyline
 70
0
 90
2
 10
1390724.30685859
 20
354791.280494195
 10
1390710.3071152
 20
354791.066325152
  0
LWPOLYLINE
  5
20023
100
AcDbEntity
  8
0
100
AcDbPolyline
 70
0
 90
31
 10
1394479.86466842
 20
359477.953577812
 10
1394521.58375565
 20
359487.77437256
 10
1394521.59768767
 20
359486.864380504
 10
1394535.83793413
 20
359483.791657638
 10
1394547.59509347
 20
359492.643618211
 10
1394561.6460618
 20
359526.106245335
 10
1394555.14722985
 20
359528.54732035
 10
1394560.44201872
 20
359543.991852693
 10
1394566.29952675
 20
359542.281126255
 10
1394569.39751741
 20
359552.910946265
 10
1394569.61955323
 20
359565.847265329
 10
1394552.18508565
 20
359571.761733333
 10
1394511.90171425
 20
359558.322088761
 10
1394511.83302892
 20
359549.088954342
 10
1394409.35336686
 20
359537.757763139
 10
1394408.53671834
 20
359530.993738587
 10
1394379.11928104
 20
359530.393317239
 10
1394360.9739991
 20
359527.204853321
 10
1394358.37639192
 20
359534.196666964
 10
1394350.15606424
 20
359532.790523583
 10
1394342.75048347
 20
359529.126342893
 10
1394330.76463843
 20
359512.999247443
 10
1394309.299912
 20
359494.046426537
 10
1394319.99467811
 20
359476.906269577
 10
1394300.07337581
 20
359452.525854377
 10
1394304.36812032
 20
359442.47933104
 10
1394315.13577261
 20
359443.444363924
 10
1394338.7568813
 20
359469.851867515
 10
1394374.47131825
 20
359478.58050106
 10
1394453.93543867
 20
359482.74776939
 10
1394479.86466842
 20
359477.953577812
  0
LWPOLYLINE
  5
20024
100
AcDbEntity
  8
0
100
AcDbPolyline
 70
0
 90
8
 10
1395403.26995147
 20
359615.534532534
 10
1395443.95994242
 20
359605.374526219
 10
1395441.07994062
 20
359593.784528792
 10
1395434.75993668
 20
359568.474534424
 10
1395402.21994393
 20
359576.674539465
 10
1395406.49994663
 20
359593.984535616
 10
1395398.06994849
 20
359596.004536949
 10
1395403.26995147
 20
359615.534532534
  0
LWPOLYLINE
  5
20025
100
AcDbEntity
  8
0
100
AcDbPolyline
 70
0
 90
10
 10
1395342.61996495
 20
359630.684541964
 10
1395390.82995424
 20
359618.644534472
 10
1395387.22995191
 20
359603.844537747
 10
1395383.54994955
 20
359588.704541092
 10
1395356.93995555
 20
359595.784545149
 10
1395357.09995573
 20
359596.804544943
 10
1395335.76996038
 20
359601.714548329
 10
1395337.13996148
 20
359608.484546885
 10
1395341.78996443
 20
359627.354542703
 10
1395342.61996495
 20
359630.684541964
  0
LWPOLYLINE
  5
20026
100
AcDbEntity
  8
0
100
AcDbPolyline
 70
0
 90
6
 10
1394817.94009631
 20
359835.884610682
 10
1394851.29008955
 20
359830.844604927
 10
1394868.44008639
 20
359829.874601694
 10
1394852.46007693
 20
359768.274615512
 10
1394804.39008762
 20
359780.264622984
 10
1394817.94009631
 20
359835.884610682
  0
LWPOLYLINE
  5
20027
100
AcDbEntity
  8
0
100
AcDbPolyline
 70
0
 90
2
 10
1390473.44653838
 20
355116.371984438
 10
1390459.44680418
 20
355116.157803817
  0
LWPOLYLINE
  5
20028
100
AcDbEntity
  8
0
100
AcDbPolyline
 70
0
 90
2
 10
1390474.8188386
 20
355085.550486463
 10
1390460.81910432
 20
355085.336306951
  0
LWPOLYLINE
  5
20029
100
AcDbEntity
  8
0
100
AcDbPolyline
 70
0
 90
5
 10
1394158.83009516
 20
359387.965339144
 10
1394163.01009441
 20
359387.765338352
 10
1394162.31009336
 20
359381.915339497
 10
1394158.16009417
 20
359382.385340243
 10
1394158.83009516
 20
359387.965339144
  0
LWPOLYLINE
  5
2002A
100
AcDbEntity
  8
0
100
AcDbPolyline
 70
0
 90
2
 10
1390715.88963287
 20
355153.965251318
 10
1390701.88988996
 20
355153.751069228
  0
LWPOLYLINE
  5
2002B
100
AcDbEntity
  8
0
100
AcDbPolyline
 70
0
 90
5
 10
1390715.96545164
 20
355149.009451033
 10
1390701.96570872
 20
355148.795269121
 10
1390702.07846676
 20
355141.424970546
 10
1390716.07820969
 20
355141.639152193
 10
1390715.96545164
 20
355149.009451033
  0
LWPOLYLINE
  5
2002C
100
AcDbEntity
  8
0
100
AcDbPolyline
 70
0
 90
2
 10
1390716.29429604
 20
355127.514893895
 10
1390702.2945531
 20
355127.300712757
  0
LWPOLYLINE
  5
2002D
100
AcDbEntity
  8
0
100
AcDbPolyline
 70
0
 90
8
 10
1394745.0324665
 20
359328.341817469
 10
1394749.27933328
 20
359343.309072087
 10
1394787.06566151
 20
359390.534420431
 10
1394735.45958149
 20
359403.737710108
 10
1394733.68680964
 20
359396.243525034
 10
1394720.77989994
 20
359399.11992998
 10
1394705.42050878
 20
359339.242749561
 10
1394745.0324665
 20
359328.341817469
  0
LWPOLYLINE
  5
2002E
100
AcDbEntity
  8
0
100
AcDbPolyline
 70
0
 90
5
 10
1394781.13070725
 20
359522.411553259
 10
1394792.96897106
 20
359565.479790267
 10
1394756.20620987
 20
359574.845851651
 10
1394746.16354535
 20
359532.728614817
 10
1394781.13070725
 20
359522.411553259
  0
LWPOLYLINE
  5
2002F
100
AcDbEntity
  8
0
100
AcDbPolyline
 70
0
 90
5
 10
1394793.28698063
 20
359575.754788313
 10
1394797.54260324
 20
359594.950842308
 10
1394764.19266244
 20
359602.82100914
 10
1394759.48049766
 20
359583.927292165
 10
1394793.28698063
 20
359575.754788313
  0
LWPOLYLINE
  5
20030
100
AcDbEntity
  8
0
100
AcDbPolyline
 70
0
 90
7
 10
1394850.34996021
 20
359501.175314151
 10
1394862.66996766
 20
359549.185303238
 10
1394829.37003936
 20
359558.854656283
 10
1394826.36003762
 20
359547.454658847
 10
1394832.84997209
 20
359545.645310022
 10
1394823.52003041
 20
359508.694666108
 10
1394850.34996021
 20
359501.175314151
  0
LWPOLYLINE
  5
20031
100
AcDbEntity
  8
0
100
AcDbPolyline
 70
0
 90
8
 10
1394803.33230924
 20
359472.953147493
 10
1394811.6560502
 20
359492.547207005
 10
1394791.67546862
 20
359498.646668763
 10
1394789.54998783
 20
359492.823424056
 10
1394787.87211819
 20
359485.279801738
 10
1394780.90608978
 20
359487.127933222
 10
1394779.09604004
 20
359480.94559171
 10
1394803.33230924
 20
359472.953147493
  0
LWPOLYLINE
  5
20032
100
AcDbEntity
  8
0
100
AcDbPolyline
 70
0
 90
8
 10
1394787.87211819
 20
359485.279801738
 10
1394789.54998783
 20
359492.823424056
 10
1394791.67546862
 20
359498.646668763
 10
1394811.6560502
 20
359492.547207005
 10
1394820.21235826
 20
359512.63784535
 10
1394790.83395967
 20
359521.055148242
 10
1394780.83472034
 20
359487.147734162
 10
1394787.87211819
 20
359485.279801738
  0
LWPOLYLINE
  5
20033
100
AcDbEntity
  8
0
100
AcDbPolyline
 70
0
 90
5
 10
1394867.81322063
 20
359308.078551255
 10
1394883.13635351
 20
359344.758948169
 10
1394922.81459721
 20
359328.061479888
 10
1394907.23050419
 20
359290.629475478
 10
1394867.81322063
 20
359308.078551255
  0
LWPOLYLINE
  5
20034
100
AcDbEntity
  8
0
100
AcDbPolyline
 70
0
 90
7
 10
1394733.68680964
 20
359396.243525034
 10
1394736.99737315
 20
359410.240921271
 10
1394748.37489485
 20
359408.392735381
 10
1394754.26093121
 20
359430.698000402
 10
1394720.39196593
 20
359438.437724555
 10
1394712.45500022
 20
359400.97970029
 10
1394733.68680964
 20
359396.243525034
  0
LWPOLYLINE
  5
20035
100
AcDbEntity
  8
0
100
AcDbPolyline
 70
0
 90
5
 10
1394752.69996927
 20
359461.855341105
 10
1394759.29997205
 20
359481.705336342
 10
1394731.15997839
 20
359489.165340855
 10
1394725.41997516
 20
359468.125345604
 10
1394752.69996927
 20
359461.855341105
  0
LWPOLYLINE
  5
20036
100
AcDbEntity
  8
0
100
AcDbPolyline
 70
0
 90
5
 10
1396042.27090285
 20
359502.360999288
 10
1396050.59089579
 20
359474.051002535
 10
1396076.53089276
 20
359481.400996009
 10
1396068.5108998
 20
359509.870992685
 10
1396042.27090285
 20
359502.360999288
  0
LWPOLYLINE
  5
20037
100
AcDbEntity
  8
0
100
AcDbPolyline
 70
0
 90
7
 10
1398551.45362083
 20
359495.104550339
 10
1398554.23938319
 20
359495.373927679
 10
1398556.71938282
 20
359495.663927139
 10
1398574.1244174
 20
359497.729245257
 10
1398577.18631139
 20
359470.111849369
 10
1398554.4870149
 20
359467.71635445
 10
1398551.45362083
 20
359495.104550339
  0
LWPOLYLINE
  5
20038
100
AcDbEntity
  8
0
100
AcDbPolyline
 70
0
 90
10
 10
1394568.52334427
 20
359970.912090367
 10
1394543.17061691
 20
359976.425664342
 10
1394543.8601721
 20
359979.204640328
 10
1394549.4801757
 20
360002.174635247
 10
1394551.40017534
 20
360002.044634894
 10
1394558.27017421
 20
360002.344633478
 10
1394558.91017463
 20
360005.054632877
 10
1394567.71703775
 20
360002.951503925
 10
1394575.45501913
 20
360001.007576571
 10
1394568.52334427
 20
359970.912090367
  0
LWPOLYLINE
  5
20039
100
AcDbEntity
  8
0
100
AcDbPolyline
 70
0
 90
18
 10
1394617.32015609
 20
359962.434628648
 10
1394616.92831271
 20
359960.868141314
 10
1394585.89608783
 20
359968.407708454
 10
1394604.00443472
 20
360040.015789145
 10
1394605.79017339
 20
360039.544617612
 10
1394617.69017071
 20
360036.414615792
 10
1394617.90017083
 20
360037.244615608
 10
1394620.54017024
 20
360036.544615203
 10
1394620.36017011
 20
360035.714615376
 10
1394616.22016762
 20
360019.584618982
 10
1394615.6901673
 20
360017.514619457
 10
1394617.37016693
 20
360017.0846192
 10
1394621.42016605
 20
360016.164618546
 10
1394614.94016227
 20
359991.514624094
 10
1394623.07016009
 20
359987.604623151
 10
1394620.05015806
 20
359974.704625984
 10
1394620.42015797
 20
359974.604625932
 10
1394617.32015609
 20
359962.434628648
  0
LWPOLYLINE
  5
2003A
100
AcDbEntity
  8
0
100
AcDbPolyline
 70
0
 90
10
 10
1394656.12014759
 20
359953.354622514
 10
1394655.64516701
 20
359951.386847454
 10
1394680.01984681
 20
359945.183335024
 10
1394680.45184397
 20
359947.055087179
 10
1394683.49105613
 20
359959.492598642
 10
1394684.11231716
 20
359962.035014716
 10
1394680.62017542
 20
359962.844660997
 10
1394659.84323938
 20
359967.661753101
 10
1394658.89014927
 20
359964.274620074
 10
1394656.12014759
 20
359953.354622514
  0
LWPOLYLINE
  5
2003B
100
AcDbEntity
  8
0
100
AcDbPolyline
 70
0
 90
18
 10
1394680.01984681
 20
359945.183335024
 10
1394680.45184397
 20
359947.055087179
 10
1394684.11231716
 20
359962.035014716
 10
1394680.62017542
 20
359962.844660997
 10
1394682.95336607
 20
359972.107780047
 10
1394686.66608029
 20
359987.301500253
 10
1394688.86015071
 20
359997.619608364
 10
1394690.50015035
 20
359997.164608114
 10
1394700.77014809
 20
359994.784606483
 10
1394705.21014793
 20
359997.824605083
 10
1394709.72014692
 20
359996.624604396
 10
1394710.97014643
 20
359995.264604382
 10
1394707.93014457
 20
359983.274607053
 10
1394711.16228336
 20
359982.489226866
 10
1394708.27298419
 20
359970.695521587
 10
1394700.82438918
 20
359940.135973349
 10
1394700.7675806
 20
359939.902903296
 10
1394680.01984681
 20
359945.183335024
  0
LWPOLYLINE
  5
2003C
100
AcDbEntity
  8
0
100
AcDbPolyline
 70
0
 90
9
 10
1394629.23008489
 20
359937.145284578
 10
1394652.75007967
 20
359931.625280627
 10
1394648.1800765
 20
359911.685285008
 10
1394645.64007706
 20
359912.22528547
 10
1394645.92007726
 20
359913.415285183
 10
1394628.70008102
 20
359917.225288097
 10
1394628.20008061
 20
359914.81528858
 10
1394624.16008144
 20
359915.645289323
 10
1394629.23008489
 20
359937.145284578
  0
LWPOLYLINE
  5
2003D
100
AcDbEntity
  8
0
100
AcDbPolyline
 70
0
 90
7
 10
1394652.75007967
 20
359931.625280627
 10
1394674.48007495
 20
359926.45527707
 10
1394669.29007148
 20
359904.65528192
 10
1394660.89007341
 20
359906.755283258
 10
1394661.28007363
 20
359908.405282927
 10
1394648.1800765
 20
359911.685285008
 10
1394652.75007967
 20
359931.625280627
  0
LWPOLYLINE
  5
2003E
100
AcDbEntity
  8
0
100
AcDbPolyline
 70
0
 90
17
 10
1394674.48007495
 20
359926.45527707
 10
1394682.13007319
 20
359924.445275845
 10
1394688.45007185
 20
359922.845274794
 10
1394688.11007162
 20
359921.615275066
 10
1394721.27006427
 20
359913.205269625
 10
1394717.10006186
 20
359897.695273149
 10
1394710.79006329
 20
359899.285274228
 10
1394706.40006401
 20
359899.075275206
 10
1394696.66006617
 20
359901.635276752
 10
1394695.17006547
 20
359896.485277979
 10
1394697.39006426
 20
359892.315278174
 10
1394696.78006361
 20
359888.96527886
 10
1394674.64006845
 20
359894.065282587
 10
1394675.98006925
 20
359899.325281447
 10
1394668.43007098
 20
359901.285282596
 10
1394669.29007148
 20
359904.65528192
 10
1394674.48007495
 20
359926.45527707
  0
LWPOLYLINE
  5
2003F
100
AcDbEntity
  8
0
100
AcDbPolyline
 70
0
 90
5
 10
1394668.43007098
 20
359901.285282596
 10
1394675.98006925
 20
359899.325281447
 10
1394669.1500652
 20
359872.525287415
 10
1394661.70010496
 20
359874.445153736
 10
1394668.43007098
 20
359901.285282596
  0
LWPOLYLINE
  5
20040
100
AcDbEntity
  8
0
100
AcDbPolyline
 70
0
 90
5
 10
1394707.4551178
 20
359862.388168503
 10
1394669.16590845
 20
359873.07774772
 10
1394671.12310077
 20
359881.120338422
 10
1394709.67965754
 20
359870.858760737
 10
1394707.4551178
 20
359862.388168503
  0
LWPOLYLINE
  5
20041
100
AcDbEntity
  8
0
100
AcDbPolyline
 70
0
 90
9
 10
1394722.32008664
 20
359834.88514834
 10
1394740.59008245
 20
359829.695145511
 10
1394738.59008128
 20
359822.075147226
 10
1394744.38001128
 20
359820.475165332
 10
1394743.74010924
 20
359817.935264668
 10
1394745.56007843
 20
359813.785147274
 10
1394742.06007623
 20
359799.635150409
 10
1394715.02008222
 20
359806.315154722
 10
1394722.32008664
 20
359834.88514834
  0
LWPOLYLINE
  5
20042
100
AcDbEntity
  8
0
100
AcDbPolyline
 70
0
 90
7
 10
1394689.50956712
 20
359942.754084354
 10
1394700.7675806
 20
359939.902903296
 10
1394700.82438918
 20
359940.135973349
 10
1394708.27298419
 20
359970.695521587
 10
1394697.05372032
 20
359973.452565305
 10
1394689.95801316
 20
359944.577941759
 10
1394689.50956712
 20
359942.754084354
  0
LWPOLYLINE
  5
20043
100
AcDbEntity
  8
0
100
AcDbPolyline
 70
0
 90
12
 10
1394731.61013694
 20
359965.444605433
 10
1394710.62014149
 20
359970.044608804
 10
1394708.27298419
 20
359970.695521587
 10
1394711.16228336
 20
359982.489226866
 10
1394707.93014457
 20
359983.274607053
 10
1394710.97014643
 20
359995.264604382
 10
1394738.19014034
 20
359988.274600183
 10
1394736.22013916
 20
359980.594601894
 10
1394735.63013886
 20
359978.594602358
 10
1394735.15013859
 20
359976.804602771
 10
1394734.52013873
 20
359976.97460287
 10
1394731.61013694
 20
359965.444605433
  0
LWPOLYLINE
  5
20044
100
AcDbEntity
  8
0
100
AcDbPolyline
 70
0
 90
9
 10
1394725.500132
 20
359935.194611873
 10
1394725.16756554
 20
359933.784158879
 10
1394714.6701341
 20
359936.364613821
 10
1394703.52055429
 20
359939.202253758
 10
1394709.68273021
 20
359964.474769722
 10
1394730.1787513
 20
359959.745905906
 10
1394728.41013497
 20
359952.704608264
 10
1394729.98013462
 20
359952.304608028
 10
1394725.500132
 20
359935.194611873
  0
LWPOLYLINE
  5
20045
100
AcDbEntity
  8
0
100
AcDbPolyline
 70
0
 90
22
 10
1394725.500132
 20
359935.194611873
 10
1394725.16756554
 20
359933.784158879
 10
1394771.72264278
 20
359922.340093803
 10
1394772.07012169
 20
359923.804604601
 10
1394772.4701219
 20
359925.194604279
 10
1394775.05012351
 20
359935.564601974
 10
1394768.87012486
 20
359937.014602951
 10
1394769.20012512
 20
359938.584602606
 10
1394764.17316051
 20
359939.867490621
 10
1394761.99012673
 20
359940.424603725
 10
1394762.24012692
 20
359941.604603476
 10
1394742.43013135
 20
359946.644606535
 10
1394748.12013566
 20
359973.374600782
 10
1394743.31013676
 20
359974.704601511
 10
1394736.34013832
 20
359976.504602583
 10
1394735.15013859
 20
359976.804602771
 10
1394734.52013873
 20
359976.97460287
 10
1394731.61013694
 20
359965.444605433
 10
1394730.1787513
 20
359959.745905906
 10
1394728.41013497
 20
359952.704608264
 10
1394729.98013462
 20
359952.304608028
 10
1394725.500132
 20
359935.194611873
  0
LWPOLYLINE
  5
20046
100
AcDbEntity
  8
0
100
AcDbPolyline
 70
0
 90
14
 10
1394767.25734642
 20
359981.369350749
 10
1394763.17013486
 20
359982.414596236
 10
1394738.33014042
 20
359988.794600063
 10
1394738.19014034
 20
359988.274600183
 10
1394736.22013916
 20
359980.594601894
 10
1394735.63013886
 20
359978.594602358
 10
1394735.15013859
 20
359976.804602771
 10
1394736.34013832
 20
359976.504602583
 10
1394743.31013676
 20
359974.704601511
 10
1394748.12013566
 20
359973.374600782
 10
1394764.10013203
 20
359968.98459837
 10
1394764.63013237
 20
359971.144597887
 10
1394766.74013366
 20
359979.474596033
 10
1394767.25734642
 20
359981.369350749
  0
LWPOLYLINE
  5
20047
100
AcDbEntity
  8
0
100
AcDbPolyline
 70
0
 90
10
 10
1394782.02719652
 20
359964.507366452
 10
1394782.40244015
 20
359966.138458866
 10
1394785.33013497
 20
359977.325229127
 10
1394783.67856656
 20
359977.372242784
 10
1394767.25734642
 20
359981.369350749
 10
1394766.74013366
 20
359979.474596033
 10
1394764.63013237
 20
359971.144597887
 10
1394764.10013203
 20
359968.98459837
 10
1394771.08484125
 20
359966.950742914
 10
1394782.02719652
 20
359964.507366452
  0
LWPOLYLINE
  5
20048
100
AcDbEntity
  8
0
100
AcDbPolyline
 70
0
 90
8
 10
1394764.10013203
 20
359968.98459837
 10
1394748.12013566
 20
359973.374600782
 10
1394742.43013135
 20
359946.644606535
 10
1394762.24012692
 20
359941.604603476
 10
1394761.99012673
 20
359940.424603725
 10
1394764.17316051
 20
359939.867490621
 10
1394771.08484125
 20
359966.950742914
 10
1394764.10013203
 20
359968.98459837
  0
LWPOLYLINE
  5
20049
100
AcDbEntity
  8
0
100
AcDbPolyline
 70
0
 90
9
 10
1394775.05012351
 20
359935.564601974
 10
1394776.55637625
 20
359940.727050127
 10
1394781.79890705
 20
359963.515047859
 10
1394782.02719652
 20
359964.507366452
 10
1394771.08484125
 20
359966.950742914
 10
1394764.17316051
 20
359939.867490621
 10
1394769.20012512
 20
359938.584602606
 10
1394768.87012486
 20
359937.014602951
 10
1394775.05012351
 20
359935.564601974
  0
LWPOLYLINE
  5
2004A
100
AcDbEntity
  8
0
100
AcDbPolyline
 70
0
 90
10
 10
1394770.95008611
 20
359874.575131621
 10
1394778.73008521
 20
359876.805129692
 10
1394783.64008412
 20
359875.585128932
 10
1394793.210082
 20
359873.24512733
 10
1394792.86008178
 20
359871.825127647
 10
1394780.86007344
 20
359819.365139198
 10
1394761.92007774
 20
359824.555142058
 10
1394770.21008277
 20
359857.095134792
 10
1394766.89008351
 20
359857.965135296
 10
1394770.95008611
 20
359874.575131621
  0
LWPOLYLINE
  5
2004B
100
AcDbEntity
  8
0
100
AcDbPolyline
 70
0
 90
9
 10
1394788.8000872
 20
359895.555124456
 10
1394812.29008198
 20
359889.775120689
 10
1394808.27007937
 20
359873.075124372
 10
1394798.13008163
 20
359875.645125941
 10
1394796.99008086
 20
359870.74512702
 10
1394792.86008178
 20
359871.825127647
 10
1394793.210082
 20
359873.24512733
 10
1394783.64008412
 20
359875.585128932
 10
1394788.8000872
 20
359895.555124456
  0
LWPOLYLINE
  5
2004C
100
AcDbEntity
  8
0
100
AcDbPolyline
 70
0
 90
8
 10
1394798.13008163
 20
359875.645125941
 10
1394805.90965863
 20
359873.673377469
 10
1394791.63007061
 20
359814.445137805
 10
1394783.49007237
 20
359816.27513921
 10
1394780.35007309
 20
359817.115139682
 10
1394792.86008178
 20
359871.825127647
 10
1394796.99008086
 20
359870.74512702
 10
1394798.13008163
 20
359875.645125941
  0
LWPOLYLINE
  5
2004D
100
AcDbEntity
  8
0
100
AcDbPolyline
 70
0
 90
5
 10
1394767.22009208
 20
359901.405127726
 10
1394788.8000872
 20
359895.555124456
 10
1394784.87008486
 20
359880.365127858
 10
1394763.17008961
 20
359885.465131289
 10
1394767.22009208
 20
359901.405127726
  0
LWPOLYLINE
  5
2004E
100
AcDbEntity
  8
0
100
AcDbPolyline
 70
0
 90
8
 10
1394746.67001301
 20
359829.125164865
 10
1394761.92007774
 20
359824.555142058
 10
1394778.2300359
 20
359820.095273915
 10
1394775.66003442
 20
359810.075276251
 10
1394756.48003864
 20
359814.785279407
 10
1394743.74010924
 20
359817.935264668
 10
1394744.38001128
 20
359820.475165332
 10
1394746.67001301
 20
359829.125164865
  0
LWPOLYLINE
  5
2004F
100
AcDbEntity
  8
0
100
AcDbPolyline
 70
0
 90
10
 10
1394778.2300359
 20
359820.095273915
 10
1394780.86007344
 20
359819.365139198
 10
1394780.35007309
 20
359817.115139682
 10
1394783.49007237
 20
359816.27513921
 10
1394791.63007061
 20
359814.445137805
 10
1394793.96003198
 20
359813.94527175
 10
1394792.02003077
 20
359806.055273481
 10
1394779.34003354
 20
359809.175275589
 10
1394775.66003442
 20
359810.075276251
 10
1394778.2300359
 20
359820.095273915
  0
LWPOLYLINE
  5
20050
100
AcDbEntity
  8
0
100
AcDbPolyline
 70
0
 90
11
 10
1394761.09008835
 20
359877.255133116
 10
1394770.95008611
 20
359874.575131621
 10
1394766.89008351
 20
359857.965135296
 10
1394770.21008277
 20
359857.095134792
 10
1394761.92007774
 20
359824.555142058
 10
1394746.67001301
 20
359829.125164865
 10
1394751.99008439
 20
359849.395139839
 10
1394756.82008721
 20
359867.785135705
 10
1394758.76008698
 20
359868.355135117
 10
1394760.12008775
 20
359873.41513398
 10
1394761.09008835
 20
359877.255133116
  0
LWPOLYLINE
  5
20051
100
AcDbEntity
  8
0
100
AcDbPolyline
 70
0
 90
6
 10
1394782.40244015
 20
359966.138458866
 10
1394785.33013497
 20
359977.325229127
 10
1394808.10009886
 20
359971.145107465
 10
1394805.25009718
 20
359960.175109921
 10
1394793.91009978
 20
359963.395111613
 10
1394782.40244015
 20
359966.138458866
  0
LWPOLYLINE
  5
20052
100
AcDbEntity
  8
0
100
AcDbPolyline
 70
0
 90
5
 10
1394788.0400958
 20
359938.245117234
 10
1394793.91009978
 20
359963.395111613
 10
1394805.25009718
 20
359960.175109921
 10
1394799.43009326
 20
359935.385115362
 10
1394788.0400958
 20
359938.245117234
  0
LWPOLYLINE
  5
20053
100
AcDbEntity
  8
0
100
AcDbPolyline
 70
0
 90
7
 10
1394776.55637625
 20
359940.727050127
 10
1394781.79890705
 20
359963.515047859
 10
1394782.02719652
 20
359964.507366452
 10
1394782.40244015
 20
359966.138458866
 10
1394793.91009978
 20
359963.395111613
 10
1394788.0400958
 20
359938.245117234
 10
1394776.55637625
 20
359940.727050127
  0
LWPOLYLINE
  5
20054
100
AcDbEntity
  8
0
100
AcDbPolyline
 70
0
 90
10
 10
1394771.72264278
 20
359922.340093803
 10
1394772.07012169
 20
359923.804604601
 10
1394772.48009589
 20
359925.195122576
 10
1394775.05012351
 20
359935.564601974
 10
1394776.55637625
 20
359940.727050127
 10
1394788.0400958
 20
359938.245117234
 10
1394799.43009326
 20
359935.385115362
 10
1394795.21009054
 20
359917.995119206
 10
1394794.86009034
 20
359916.655119503
 10
1394771.72264278
 20
359922.340093803
  0
LWPOLYLINE
  5
20055
100
AcDbEntity
  8
0
100
AcDbPolyline
 70
0
 90
11
 10
1394844.1975352
 20
359874.293326328
 10
1394830.88138298
 20
359877.716178485
 10
1394832.93522507
 20
359886.467290062
 10
1394879.23151951
 20
359875.585412853
 10
1394874.62768576
 20
359855.251356081
 10
1394857.82156575
 20
359859.199224437
 10
1394855.94251925
 20
359851.004271925
 10
1394843.61832327
 20
359853.985381549
 10
1394847.35088295
 20
359869.193552983
 10
1394843.21144849
 20
359870.341998503
 10
1394844.1975352
 20
359874.293326328
  0
LWPOLYLINE
  5
20056
100
AcDbEntity
  8
0
100
AcDbPolyline
 70
0
 90
14
 10
1394880.63003039
 20
359881.025242218
 10
1394916.08002256
 20
359872.595236422
 10
1394916.24005723
 20
359855.535105564
 10
1394910.50008446
 20
359856.724588704
 10
1394907.20008518
 20
359857.464589224
 10
1394902.26008625
 20
359858.574590018
 10
1394902.11008599
 20
359857.124590295
 10
1394901.66008607
 20
359857.114590387
 10
1394899.98008501
 20
359850.324591898
 10
1394896.88008545
 20
359849.834592601
 10
1394895.84002082
 20
359845.965245131
 10
1394891.95008571
 20
359846.894594084
 10
1394873.69002568
 20
359851.265248816
 10
1394880.63003039
 20
359881.025242218
  0
LWPOLYLINE
  5
20057
100
AcDbEntity
  8
0
100
AcDbPolyline
 70
0
 90
19
 10
1394916.24005723
 20
359855.535105564
 10
1394910.50008446
 20
359856.724588704
 10
1394907.20008518
 20
359857.464589224
 10
1394902.26008625
 20
359858.574590018
 10
1394902.11008599
 20
359857.124590295
 10
1394901.66008607
 20
359857.114590387
 10
1394899.98008501
 20
359850.324591898
 10
1394896.88008545
 20
359849.834592601
 10
1394895.84002082
 20
359845.965245131
 10
1394891.95008571
 20
359846.894594084
 10
1394873.69002568
 20
359851.265248816
 10
1394873.53006378
 20
359851.295114978
 10
1394868.17006025
 20
359828.865119919
 10
1394884.96005638
 20
359823.995117327
 10
1394885.63005679
 20
359826.625116737
 10
1394891.3000555
 20
359825.115115871
 10
1394910.5300512
 20
359820.145112915
 10
1394917.1500501
 20
359820.365111458
 10
1394916.24005723
 20
359855.535105564
  0
LWPOLYLINE
  5
20058
100
AcDbEntity
  8
0
100
AcDbPolyline
 70
0
 90
7
 10
1394851.85010902
 20
359929.384587793
 10
1394850.20300774
 20
359922.541360241
 10
1394840.09011782
 20
359924.754589242
 10
1394834.36985876
 20
359901.944657755
 10
1394859.0501011
 20
359895.794592166
 10
1394865.52542227
 20
359925.876667796
 10
1394851.85010902
 20
359929.384587793
  0
LWPOLYLINE
  5
20059
100
AcDbEntity
  8
0
100
AcDbPolyline
 70
0
 90
9
 10
1394844.59011292
 20
359942.724586929
 10
1394841.89011125
 20
359931.944589321
 10
1394865.52542227
 20
359925.876667796
 10
1394866.25010578
 20
359925.604585585
 10
1394867.30010647
 20
359930.024584615
 10
1394867.06010653
 20
359930.104584649
 10
1394868.55010755
 20
359936.484583253
 10
1394859.06010966
 20
359938.954584701
 10
1394844.59011292
 20
359942.724586929
  0
LWPOLYLINE
  5
2005A
100
AcDbEntity
  8
0
100
AcDbPolyline
 70
0
 90
7
 10
1394865.17646796
 20
359924.233008096
 10
1394859.0501011
 20
359895.794592166
 10
1394882.11009598
 20
359890.044588584
 10
1394886.88009914
 20
359910.134584165
 10
1394887.45009952
 20
359912.534583636
 10
1394870.2107068
 20
359922.987734631
 10
1394865.17646796
 20
359924.233008096
  0
LWPOLYLINE
  5
2005B
100
AcDbEntity
  8
0
100
AcDbPolyline
 70
0
 90
6
 10
1394886.88009914
 20
359910.134584165
 10
1394882.11009598
 20
359890.044588584
 10
1394902.67009141
 20
359884.924585382
 10
1394904.44009252
 20
359892.034583806
 10
1394899.64009642
 20
359907.504582081
 10
1394886.88009914
 20
359910.134584165
  0
LWPOLYLINE
  5
2005C
100
AcDbEntity
  8
0
100
AcDbPolyline
 70
0
 90
7
 10
1394890.07875687
 20
359923.588926339
 10
1394886.88009914
 20
359910.134584165
 10
1394899.64009642
 20
359907.504582081
 10
1394900.80009753
 20
359914.154580705
 10
1394898.66009976
 20
359923.484579513
 10
1394894.4652162
 20
359922.398883671
 10
1394890.07875687
 20
359923.588926339
  0
LWPOLYLINE
  5
2005D
100
AcDbEntity
  8
0
100
AcDbPolyline
 70
0
 90
5
 10
1395031.53123324
 20
359837.14924875
 10
1395022.02863259
 20
359798.635047441
 10
1395050.2369301
 20
359791.325184858
 10
1395060.40666591
 20
359830.689793999
 10
1395031.53123324
 20
359837.14924875
  0
LWPOLYLINE
  5
2005E
100
AcDbEntity
  8
0
100
AcDbPolyline
 70
0
 90
8
 10
1394745.0324665
 20
359328.341817469
 10
1394749.27933328
 20
359343.309072087
 10
1394787.06566151
 20
359390.534420431
 10
1394735.45958149
 20
359403.737710108
 10
1394733.68680964
 20
359396.243525034
 10
1394720.77989994
 20
359399.11992998
 10
1394705.42050878
 20
359339.242749561
 10
1394745.0324665
 20
359328.341817469
  0
LWPOLYLINE
  5
2005F
100
AcDbEntity
  8
0
100
AcDbPolyline
 70
0
 90
5
 10
1394781.13070725
 20
359522.411553259
 10
1394792.96897106
 20
359565.479790267
 10
1394756.20620987
 20
359574.845851651
 10
1394746.16354535
 20
359532.728614817
 10
1394781.13070725
 20
359522.411553259
  0
LWPOLYLINE
  5
20060
100
AcDbEntity
  8
0
100
AcDbPolyline
 70
0
 90
5
 10
1394793.28698063
 20
359575.754788313
 10
1394797.54260324
 20
359594.950842308
 10
1394764.19266244
 20
359602.82100914
 10
1394759.48049766
 20
359583.927292165
 10
1394793.28698063
 20
359575.754788313
  0
LWPOLYLINE
  5
20061
100
AcDbEntity
  8
0
100
AcDbPolyline
 70
0
 90
8
 10
1394849.06011569
 20
359960.544582967
 10
1394844.59011292
 20
359942.724586929
 10
1394859.06010966
 20
359938.954584701
 10
1394862.52011196
 20
359953.544581496
 10
1394869.69011036
 20
359951.684580398
 10
1394870.40011094
 20
359955.184579649
 10
1394868.40011138
 20
359955.684579956
 10
1394849.06011569
 20
359960.544582967
  0
LWPOLYLINE
  5
20062
100
AcDbEntity
  8
0
100
AcDbPolyline
 70
0
 90
9
 10
1394891.4301024
 20
359930.504579739
 10
1394886.64010733
 20
359951.174577113
 10
1394870.40011094
 20
359955.184579649
 10
1394869.69011036
 20
359951.684580398
 10
1394862.52011196
 20
359953.544581496
 10
1394861.14011105
 20
359947.704582775
 10
1394882.22010636
 20
359942.434579506
 10
1394884.15010405
 20
359932.444580844
 10
1394891.4301024
 20
359930.504579739
  0
LWPOLYLINE
  5
20063
100
AcDbEntity
  8
0
100
AcDbPolyline
 70
0
 90
5
 10
1394861.14011105
 20
359947.704582775
 10
1394859.06010966
 20
359938.954584701
 10
1394884.15010405
 20
359932.444580844
 10
1394882.22010636
 20
359942.434579506
 10
1394861.14011105
 20
359947.704582775
  0
LWPOLYLINE
  5
20064
100
AcDbEntity
  8
0
100
AcDbPolyline
 70
0
 90
10
 10
1394802.11009412
 20
359942.045113675
 10
1394808.69009852
 20
359969.915107553
 10
1394818.54012238
 20
359967.704587786
 10
1394818.77009633
 20
359967.66510594
 10
1394820.7101219
 20
359967.184587447
 10
1394825.51009484
 20
359966.015104787
 10
1394830.30011977
 20
359964.834585944
 10
1394831.57009351
 20
359964.59510383
 10
1394824.71008911
 20
359936.505110043
 10
1394802.11009412
 20
359942.045113675
  0
LWPOLYLINE
  5
20065
100
AcDbEntity
  8
0
100
AcDbPolyline
 70
0
 90
15
 10
1394894.36013577
 20
360423.715145735
 10
1394900.9802039
 20
360450.154488047
 10
1394922.97013503
 20
360444.795136172
 10
1394930.44013327
 20
360442.855134933
 10
1394945.61012988
 20
360438.905132536
 10
1394950.2901289
 20
360437.71513167
 10
1394943.89012479
 20
360411.395137554
 10
1394939.15018986
 20
360412.654486944
 10
1394926.04019275
 20
360415.814489006
 10
1394926.07019277
 20
360415.954488977
 10
1394924.5801931
 20
360416.334489206
 10
1394918.19013044
 20
360417.955141787
 10
1394908.72013257
 20
360420.345143317
 10
1394895.11013556
 20
360423.515145617
 10
1394894.36013577
 20
360423.715145735
  0
LWPOLYLINE
  5
20066
100
AcDbEntity
  8
0
100
AcDbPolyline
 70
0
 90
16
 10
1394856.77018263
 20
360627.18511828
 10
1394863.48017493
 20
360594.195122681
 10
1394948.44016277
 20
360606.775102932
 10
1394965.40015754
 20
360595.445101365
 10
1394971.43021047
 20
360544.584457743
 10
1394960.57020346
 20
360499.824467632
 10
1394957.04013717
 20
360485.285122109
 10
1394939.76020507
 20
360489.82447349
 10
1394808.23023465
 20
360524.364493642
 10
1394773.97024234
 20
360533.294498898
 10
1394769.58024329
 20
360534.264499598
 10
1394741.63018553
 20
360542.055156879
 10
1394759.37019411
 20
360600.525143073
 10
1394797.01018544
 20
360589.865137168
 10
1394806.12019009
 20
360620.775129964
 10
1394856.77018263
 20
360627.18511828
  0
LWPOLYLINE
  5
20067
100
AcDbEntity
  8
0
100
AcDbPolyline
 70
0
 90
8
 10
1396672.78972551
 20
359901.764868241
 10
1396717.74972139
 20
359919.924855859
 10
1396735.59971762
 20
359916.484852709
 10
1396742.14971518
 20
359910.214852518
 10
1396742.27971411
 20
359904.894853368
 10
1396719.83971627
 20
359896.104859492
 10
1396678.39978529
 20
359888.224232228
 10
1396672.78972551
 20
359901.764868241
  0
LWPOLYLINE
  5
20068
100
AcDbEntity
  8
0
100
AcDbPolyline
 70
0
 90
7
 10
1396776.89970905
 20
359909.104845434
 10
1396788.04970798
 20
359913.414842435
 10
1396793.45970577
 20
359907.404842393
 10
1396786.46970462
 20
359895.074845894
 10
1396776.75970613
 20
359894.434848002
 10
1396772.28970744
 20
359896.964848574
 10
1396776.89970905
 20
359909.104845434
  0
LWPOLYLINE
  5
20069
100
AcDbEntity
  8
0
100
AcDbPolyline
 70
0
 90
21
 10
1397092.13964131
 20
359841.744791962
 10
1397104.34964065
 20
359849.214788166
 10
1397129.95963779
 20
359857.184781516
 10
1397139.6896342
 20
359847.464781111
 10
1397198.16962054
 20
359829.10477222
 10
1397198.31961733
 20
359813.394774955
 10
1397157.96961463
 20
359764.49479174
 10
1397149.18961556
 20
359761.874793946
 10
1397147.25961444
 20
359754.644795619
 10
1397133.93961764
 20
359759.014797654
 10
1397108.73962275
 20
359762.714802248
 10
1397108.00962434
 20
359770.154801027
 10
1397103.53962825
 20
359785.814799294
 10
1397107.36963097
 20
359803.07479546
 10
1397093.28963417
 20
359806.704797819
 10
1397095.85963429
 20
359809.63479679
 10
1397098.95963512
 20
359816.454794973
 10
1397100.64963669
 20
359825.854792963
 10
1397093.62963839
 20
359828.464793948
 10
1397088.19964005
 20
359832.354794421
 10
1397092.13964131
 20
359841.744791962
  0
LWPOLYLINE
  5
2006A
100
AcDbEntity
  8
0
100
AcDbPolyline
 70
0
 90
8
 10
1396091.11980804
 20
359812.495003913
 10
1396093.44980801
 20
359814.365003127
 10
1396095.73987145
 20
359815.144360552
 10
1396109.48987002
 20
359819.854357007
 10
1396112.33986986
 20
359821.554356144
 10
1396119.46980071
 20
359799.765000206
 10
1396098.41980312
 20
359794.005005558
 10
1396091.11980804
 20
359812.495003913
  0
LWPOLYLINE
  5
2006B
100
AcDbEntity
  8
0
100
AcDbPolyline
 70
0
 90
8
 10
1396103.54985538
 20
359740.964371818
 10
1396107.91985495
 20
359742.634370661
 10
1396127.72978957
 20
359751.095006897
 10
1396134.54978434
 20
359730.725008992
 10
1396114.85978636
 20
359723.565014292
 10
1396109.79978693
 20
359721.885015643
 10
1396109.30985093
 20
359723.564373686
 10
1396103.54985538
 20
359740.964371818
  0
LWPOLYLINE
  5
2006C
100
AcDbEntity
  8
0
100
AcDbPolyline
 70
0
 90
7
 10
1396112.33986986
 20
359821.554356144
 10
1396126.15980524
 20
359828.654993872
 10
1396132.4198016
 20
359815.664994804
 10
1396136.99979909
 20
359807.064995363
 10
1396129.7798633
 20
359803.664355774
 10
1396119.46980071
 20
359799.765000206
 10
1396112.33986986
 20
359821.554356144
  0
LWPOLYLINE
  5
2006D
100
AcDbEntity
  8
0
100
AcDbPolyline
 70
0
 90
5
 10
1396154.41980308
 20
359842.454985646
 10
1396168.74980197
 20
359848.944981528
 10
1396177.39979657
 20
359829.644983061
 10
1396163.11979792
 20
359823.684987109
 10
1396154.41980308
 20
359842.454985646
  0
LWPOLYLINE
  5
2006E
100
AcDbEntity
  8
0
100
AcDbPolyline
 70
0
 90
11
 10
1397145.54922122
 20
359453.572110539
 10
1397151.04419681
 20
359474.175962995
 10
1397160.20961931
 20
359471.374208617
 10
1397162.89961869
 20
359470.584208218
 10
1397167.92961752
 20
359469.09420747
 10
1397181.27961445
 20
359465.244205485
 10
1397184.67101851
 20
359464.328293482
 10
1397178.74749974
 20
359442.567330553
 10
1397162.16713259
 20
359446.831249845
 10
1397162.7895386
 20
359449.251492788
 10
1397145.54922122
 20
359453.572110539
  0
LWPOLYLINE
  5
2006F
100
AcDbEntity
  8
0
100
AcDbPolyline
 70
0
 90
6
 10
1398615.19797427
 20
359315.83006815
 10
1398620.05933686
 20
359319.253945054
 10
1398633.27787205
 20
359320.376863632
 10
1398633.85417016
 20
359311.317065114
 10
1398615.67937309
 20
359310.201369031
 10
1398615.19797427
 20
359315.83006815
  0
LWPOLYLINE
  5
20070
100
AcDbEntity
  8
0
100
AcDbPolyline
 70
0
 90
93
 10
1397627.97800639
 20
359391.509120096
 10
1397657.30109664
 20
359384.005509431
 10
1397705.2335567
 20
359377.022647929
 10
1397872.92497617
 20
359375.909792923
 10
1397885.54000884
 20
359372.243011607
 10
1397961.73404114
 20
359372.714717043
 10
1397961.74945992
 20
359366.084067665
 10
1398039.84201005
 20
359364.608978112
 10
1398039.97944982
 20
359383.284049159
 10
1398040.01945083
 20
359388.444048263
 10
1398042.01945047
 20
359388.414047867
 10
1398042.22945392
 20
359405.914044804
 10
1398042.58548373
 20
359450.202025245
 10
1398052.22946101
 20
359450.374035135
 10
1398052.21946263
 20
359458.534033724
 10
1398052.18946759
 20
359483.464029416
 10
1398056.65946735
 20
359486.154028063
 10
1398056.84946811
 20
359490.134027345
 10
1398057.04946897
 20
359494.654026524
 10
1398057.44947066
 20
359503.494024912
 10
1398055.91947127
 20
359505.294024912
 10
1398056.25947177
 20
359508.074024361
 10
1398057.19947314
 20
359515.834022832
 10
1398063.09947509
 20
359530.77401908
 10
1398067.79599275
 20
359561.796410341
 10
1398109.9062522
 20
359562.346328587
 10
1398135.72738134
 20
359577.190243973
 10
1398151.72947195
 20
359592.13399087
 10
1398162.41947203
 20
359601.823987076
 10
1398170.90426871
 20
359610.250443288
 10
1398131.47119513
 20
359638.569649951
 10
1398166.56745124
 20
359692.534159744
 10
1398194.25446542
 20
359717.520812692
 10
1398218.69711303
 20
359736.15345528
 10
1398248.10726413
 20
359755.827370247
 10
1398263.48948733
 20
359766.863938477
 10
1398288.96948695
 20
359787.193929902
 10
1398299.58508709
 20
359790.994919828
 10
1398299.21948614
 20
359792.033927034
 10
1398286.35949444
 20
359822.613924306
 10
1398284.439496
 20
359828.783923613
 10
1398285.81684444
 20
359846.306502468
 10
1398291.35415817
 20
359916.752116151
 10
1398285.572958
 20
359978.168752613
 10
1398282.60722918
 20
360009.67516142
 10
1398308.35712969
 20
360039.405168856
 10
1398273.83064962
 20
360065.016993907
 10
1398262.00087263
 20
360071.686990949
 10
1398231.83641551
 20
360080.364102093
 10
1398180.28221373
 20
360088.30122066
 10
1398140.40801171
 20
360085.527187381
 10
1398110.50852381
 20
360078.76395142
 10
1398039.95958592
 20
360069.003930636
 10
1398025.06958813
 20
360067.173933907
 10
1398022.6095885
 20
360066.903934446
 10
1398014.43958975
 20
360066.043936214
 10
1397981.58959478
 20
360062.813943297
 10
1397981.60959503
 20
360064.093943067
 10
1397974.34240943
 20
360067.433634212
 10
1397967.28003189
 20
360068.206227269
 10
1397948.50702869
 20
360056.051895789
 10
1397893.83768569
 20
360035.837344531
 10
1397874.80605476
 20
360031.27235905
 10
1397842.594868
 20
360027.69487573
 10
1397784.77953379
 20
360024.120888005
 10
1397758.56740638
 20
360022.500525299
 10
1397755.74554236
 20
360022.359932151
 10
1397703.28889407
 20
360013.397100579
 10
1397682.98369727
 20
360009.439062565
 10
1397667.7600507
 20
360004.983480872
 10
1397631.60939917
 20
359993.58392687
 10
1397640.81797974
 20
359947.903033849
 10
1397634.07962754
 20
359925.364036055
 10
1397647.79961359
 20
359867.014043413
 10
1397679.53057743
 20
359777.113729547
 10
1397649.42958519
 20
359725.334067583
 10
1397642.27076354
 20
359715.875859425
 10
1397642.67848978
 20
359700.002405304
 10
1397634.53957487
 20
359660.394081762
 10
1397633.039573
 20
359649.654083917
 10
1397620.4095735
 20
359641.174087889
 10
1397622.17267242
 20
359626.444899315
 10
1397612.05153604
 20
359579.734874565
 10
1397618.97931208
 20
359578.030473775
 10
1397616.54593827
 20
359567.490741992
 10
1397603.61350108
 20
359511.476180981
 10
1397590.16868411
 20
359453.242376619
 10
1397586.36541503
 20
359436.769208502
 10
1397627.19952953
 20
359425.58412381
 10
1397634.8595278
 20
359423.494122644
 10
1397636.64952738
 20
359423.004122377
 10
1397629.27952338
 20
359396.394128443
 10
1397627.97800639
 20
359391.509120096
  0
LWPOLYLINE
  5
20071
100
AcDbEntity
  8
0
100
AcDbPolyline
 70
0
 90
6
 10
1397790.97945239
 20
359497.384707071
 10
1397802.59945047
 20
359497.404704663
 10
1397805.54944903
 20
359493.014704854
 10
1397805.7594457
 20
359476.294707666
 10
1397791.60944804
 20
359476.074710611
 10
1397790.97945239
 20
359497.384707071
  0
LWPOLYLINE
  5
20072
100
AcDbEntity
  8
0
100
AcDbPolyline
 70
0
 90
7
 10
1397942.0694156
 20
359443.264685157
 10
1397958.6794126
 20
359442.344681982
 10
1397957.1494087
 20
359421.654685813
 10
1397955.33940907
 20
359421.624686235
 10
1397955.39940812
 20
359417.274686987
 10
1397940.95941073
 20
359417.844689788
 10
1397942.0694156
 20
359443.264685157
  0
LWPOLYLINE
  5
20073
100
AcDbEntity
  8
0
100
AcDbPolyline
 70
0
 90
10
 10
1397999.92941584
 20
359494.574664437
 10
1397999.93947932
 20
359497.09403744
 10
1398000.00948373
 20
359519.374033576
 10
1397972.82948849
 20
359519.734038905
 10
1397972.01948863
 20
359519.724039074
 10
1397971.75942143
 20
359498.444669576
 10
1397986.0094189
 20
359498.194666686
 10
1397986.0594183
 20
359495.134667183
 10
1397998.52941604
 20
359494.54466473
 10
1397999.92941584
 20
359494.574664437
  0
LWPOLYLINE
  5
20074
100
AcDbEntity
  8
0
100
AcDbPolyline
 70
0
 90
11
 10
1398001.22946965
 20
359449.504045415
 10
1398001.16947086
 20
359455.564044368
 10
1398000.34947101
 20
359455.58404453
 10
1398000.48947264
 20
359463.944043059
 10
1397999.82947276
 20
359463.954043192
 10
1397999.51941134
 20
359471.514668444
 10
1397971.759416
 20
359471.064674232
 10
1397972.0794119
 20
359450.554677775
 10
1397992.31947144
 20
359450.734046966
 10
1397992.3294082
 20
359449.404673753
 10
1398001.22946965
 20
359449.504045415
  0
LWPOLYLINE
  5
20075
100
AcDbEntity
  8
0
100
AcDbPolyline
 70
0
 90
14
 10
1397704.13951575
 20
359423.114108964
 10
1397704.24951635
 20
359426.224108404
 10
1397703.95951874
 20
359438.024106422
 10
1397703.77952021
 20
359445.264105202
 10
1397703.28952276
 20
359457.674103155
 10
1397703.24946078
 20
359463.094731113
 10
1397690.82946284
 20
359463.01473372
 10
1397690.74946528
 20
359474.914731641
 10
1397668.07946919
 20
359475.024736309
 10
1397657.66946221
 20
359430.994746093
 10
1397660.63952469
 20
359430.29411635
 10
1397689.67945659
 20
359430.224739612
 10
1397689.71945508
 20
359423.034740835
 10
1397704.13951575
 20
359423.114108964
  0
LWPOLYLINE
  5
20076
100
AcDbEntity
  8
0
100
AcDbPolyline
 70
0
 90
38
 10
1397963.55946819
 20
359409.384059819
 10
1397964.0594681
 20
359409.344059732
 10
1397970.7594669
 20
359409.114058441
 10
1397982.77946481
 20
359409.054056067
 10
1398010.43945997
 20
359408.744050629
 10
1398013.25945971
 20
359409.89404987
 10
1398017.26946099
 20
359419.844047351
 10
1398012.15946186
 20
359419.764048385
 10
1398011.68946405
 20
359430.434046629
 10
1397992.91940426
 20
359430.144677
 10
1397992.84940512
 20
359434.514676282
 10
1397992.79940806
 20
359449.414673654
 10
1398001.22946965
 20
359449.504045415
 10
1398001.16947086
 20
359455.564044368
 10
1398000.34947101
 20
359455.58404453
 10
1398000.48947264
 20
359463.944043059
 10
1397999.82947276
 20
359463.954043192
 10
1397999.51941134
 20
359471.514668444
 10
1397998.52941604
 20
359494.54466473
 10
1397999.92941584
 20
359494.574664437
 10
1397999.93947932
 20
359497.09403744
 10
1398000.00948373
 20
359519.374033576
 10
1398005.01948285
 20
359519.304032595
 10
1398005.17948578
 20
359534.18402999
 10
1398005.20948633
 20
359536.984029494
 10
1398005.16942388
 20
359539.634655524
 10
1397972.82942931
 20
359539.14466226
 10
1397970.80942971
 20
359539.114662737
 10
1397971.10942582
 20
359519.744665968
 10
1397972.01948863
 20
359519.724039074
 10
1397971.75942143
 20
359498.444669576
 10
1397968.53942204
 20
359498.50467019
 10
1397968.8094165
 20
359471.01467488
 10
1397971.759416
 20
359471.064674232
 10
1397972.0794119
 20
359450.554677775
 10
1397966.27941287
 20
359450.534678909
 10
1397965.08940901
 20
359429.724682831
 10
1397963.55946819
 20
359409.384059819
  0
LWPOLYLINE
  5
20077
100
AcDbEntity
  8
0
100
AcDbPolyline
 70
0
 90
13
 10
1397954.69940115
 20
359381.304693329
 10
1397956.81932379
 20
359417.213260888
 10
1397958.6794126
 20
359442.344681982
 10
1397942.0694156
 20
359443.264685157
 10
1397941.00941106
 20
359419.094689629
 10
1397911.91941591
 20
359418.734695637
 10
1397912.39941934
 20
359436.254692538
 10
1397885.71942407
 20
359436.884697976
 10
1397885.65942043
 20
359418.254701224
 10
1397908.25941654
 20
359418.664696469
 10
1397908.93940912
 20
359381.594702684
 10
1397952.61946451
 20
359381.284066851
 10
1397954.69940115
 20
359381.304693329
  0
LWPOLYLINE
  5
20078
100
AcDbEntity
  8
0
100
AcDbPolyline
 70
0
 90
12
 10
1397822.27943698
 20
359446.764709338
 10
1397822.21943881
 20
359455.834707755
 10
1397828.50943774
 20
359455.934706474
 10
1397827.94944197
 20
359476.634703061
 10
1397808.65950825
 20
359476.344079006
 10
1397805.7594457
 20
359476.294707666
 10
1397805.54944903
 20
359493.014704854
 10
1397802.59945047
 20
359497.404704663
 10
1397790.97945239
 20
359497.384707071
 10
1397791.60944804
 20
359476.074710611
 10
1397791.71944217
 20
359446.604715733
 10
1397822.27943698
 20
359446.764709338
  0
LWPOLYLINE
  5
20079
100
AcDbEntity
  8
0
100
AcDbPolyline
 70
0
 90
6
 10
1397830.28946682
 20
359604.254680436
 10
1397829.79947379
 20
359638.624674635
 10
1397830.1994758
 20
359649.284672715
 10
1397796.97948179
 20
359650.424679378
 10
1397795.29947289
 20
359604.294687736
 10
1397830.28946682
 20
359604.254680436
  0
LWPOLYLINE
  5
2007A
100
AcDbEntity
  8
0
100
AcDbPolyline
 70
0
 90
11
 10
1397817.88952128
 20
359550.054064431
 10
1397818.58952336
 20
359561.094062386
 10
1397818.83952411
 20
359565.094061638
 10
1397819.83952392
 20
359564.994061467
 10
1397820.04952447
 20
359567.994060898
 10
1397819.02952466
 20
359568.054061096
 10
1397819.47946298
 20
359575.224687756
 10
1397820.59952934
 20
359592.984056469
 10
1397794.29953393
 20
359593.224061652
 10
1397793.78952578
 20
359551.724068925
 10
1397817.88952128
 20
359550.054064431
  0
LWPOLYLINE
  5
2007B
100
AcDbEntity
  8
0
100
AcDbPolyline
 70
0
 90
8
 10
1397917.2894355
 20
359522.014676682
 10
1397918.54943876
 20
359539.204673484
 10
1397921.1594383
 20
359539.154672933
 10
1397921.85950404
 20
359553.694043162
 10
1397908.49944359
 20
359554.974672856
 10
1397882.49944821
 20
359555.614678101
 10
1397882.32944202
 20
359524.554683529
 10
1397917.2894355
 20
359522.014676682
  0
LWPOLYLINE
  5
2007C
100
AcDbEntity
  8
0
100
AcDbPolyline
 70
0
 90
6
 10
1397864.06947998
 20
359699.784656989
 10
1397863.9494837
 20
359718.094653825
 10
1397829.3294895
 20
359717.244661132
 10
1397829.75948594
 20
359699.714664109
 10
1397844.49948337
 20
359699.684661101
 10
1397864.06947998
 20
359699.784656989
  0
LWPOLYLINE
  5
2007D
100
AcDbEntity
  8
0
100
AcDbPolyline
 70
0
 90
9
 10
1397918.9994672
 20
359683.264648541
 10
1397919.06947123
 20
359703.584644971
 10
1397896.25947557
 20
359705.454649415
 10
1397896.39947596
 20
359707.614648938
 10
1397880.09947875
 20
359707.564652358
 10
1397879.70947432
 20
359685.00465636
 10
1397903.13947045
 20
359685.74465135
 10
1397907.31946945
 20
359684.444650753
 10
1397918.9994672
 20
359683.264648541
  0
LWPOLYLINE
  5
2007E
100
AcDbEntity
  8
0
100
AcDbPolyline
 70
0
 90
17
 10
1397866.51948552
 20
359729.98465125
 10
1397863.1494947
 20
359772.954644611
 10
1397860.32949516
 20
359772.904645181
 10
1397853.70955928
 20
359772.664018845
 10
1397836.52949941
 20
359773.554649923
 10
1397836.6395601
 20
359761.954024081
 10
1397836.41955939
 20
359758.144024785
 10
1397836.07949521
 20
359752.104653707
 10
1397835.99955797
 20
359750.66402616
 10
1397836.14955509
 20
359736.254028618
 10
1397837.63955474
 20
359735.814028406
 10
1397840.40949045
 20
359731.904656378
 10
1397849.22955161
 20
359730.084027086
 10
1397854.33955074
 20
359730.174026061
 10
1397861.26954952
 20
359730.074024703
 10
1397864.85948589
 20
359730.024651614
 10
1397866.51948552
 20
359729.98465125
  0
LWPOLYLINE
  5
2007F
100
AcDbEntity
  8
0
100
AcDbPolyline
 70
0
 90
32
 10
1397924.6394844
 20
359774.434631624
 10
1397923.86948775
 20
359790.824628896
 10
1397921.95949023
 20
359801.654627405
 10
1397913.52949397
 20
359812.974627264
 10
1397908.67949516
 20
359815.124627877
 10
1397905.29949579
 20
359815.424628478
 10
1397904.54949667
 20
359819.004628039
 10
1397895.29949817
 20
359818.704629999
 10
1397885.64950001
 20
359819.184631968
 10
1397885.89950119
 20
359825.664630728
 10
1397886.81950169
 20
359828.854630052
 10
1397886.65950199
 20
359830.284629767
 10
1397887.13950592
 20
359850.684626181
 10
1397872.12950893
 20
359852.68462892
 10
1397852.0795102
 20
359841.824634972
 10
1397861.43950531
 20
359825.2046359
 10
1397861.74950478
 20
359822.884636179
 10
1397859.58950523
 20
359822.904636629
 10
1397853.28950592
 20
359821.214638229
 10
1397853.75950552
 20
359819.264638496
 10
1397852.19950519
 20
359816.624639288
 10
1397857.34950242
 20
359806.864639895
 10
1397854.31950253
 20
359804.85464089
 10
1397858.96950029
 20
359797.834641102
 10
1397865.21950008
 20
359801.984639094
 10
1397873.3294963
 20
359790.164639451
 10
1397874.7694956
 20
359787.704639574
 10
1397880.97949277
 20
359779.084639822
 10
1397886.67949102
 20
359774.854639404
 10
1397899.77948817
 20
359772.194637098
 10
1397902.07948776
 20
359771.944636722
 10
1397924.6394844
 20
359774.434631624
  0
LWPOLYLINE
  5
20080
100
AcDbEntity
  8
0
100
AcDbPolyline
 70
0
 90
8
 10
1397664.20949852
 20
359619.724712089
 10
1397670.13956518
 20
359642.564077778
 10
1397689.61956085
 20
359637.694074748
 10
1397691.44949737
 20
359637.224703435
 10
1397684.91949376
 20
359613.334708917
 10
1397683.1694941
 20
359613.734709242
 10
1397671.95949682
 20
359617.904710808
 10
1397664.20949852
 20
359619.724712089
  0
LWPOLYLINE
  5
20081
100
AcDbEntity
  8
0
100
AcDbPolyline
 70
0
 90
7
 10
1397670.13956518
 20
359642.564077778
 10
1397678.41950655
 20
359672.374700086
 10
1397679.20950685
 20
359674.624699529
 10
1397699.95950204
 20
359668.094696358
 10
1397691.44949737
 20
359637.224703435
 10
1397689.61956085
 20
359637.694074748
 10
1397670.13956518
 20
359642.564077778
  0
LWPOLYLINE
  5
20082
100
AcDbEntity
  8
0
100
AcDbPolyline
 70
0
 90
7
 10
1397649.89950723
 20
359650.814709694
 10
1397656.39951007
 20
359670.724704917
 10
1397666.58950907
 20
359674.744702162
 10
1397679.20950685
 20
359674.624699529
 10
1397678.41950655
 20
359672.374700086
 10
1397670.62950232
 20
359644.324706548
 10
1397649.89950723
 20
359650.814709694
  0
LWPOLYLINE
  5
20083
100
AcDbEntity
  8
0
100
AcDbPolyline
 70
0
 90
11
 10
1397630.16950512
 20
359623.264718565
 10
1397634.19950744
 20
359638.264715115
 10
1397641.15950589
 20
359636.38471404
 10
1397649.89950723
 20
359650.814709694
 10
1397670.62950232
 20
359644.324706548
 10
1397670.13956518
 20
359642.564077778
 10
1397664.20949852
 20
359619.724712089
 10
1397642.3695034
 20
359624.864715766
 10
1397640.82956578
 20
359620.084087479
 10
1397633.70956744
 20
359622.224088527
 10
1397630.16950512
 20
359623.264718565
  0
LWPOLYLINE
  5
20084
100
AcDbEntity
  8
0
100
AcDbPolyline
 70
0
 90
5
 10
1395806.83981813
 20
359616.345096548
 10
1395852.66980842
 20
359606.99508867
 10
1395843.77980303
 20
359572.355096529
 10
1395798.43981301
 20
359583.225104006
 10
1395806.83981813
 20
359616.345096548
  0
LWPOLYLINE
  5
20085
100
AcDbEntity
  8
0
100
AcDbPolyline
 70
0
 90
7
 10
1395828.0798828
 20
359639.334444082
 10
1395856.1698768
 20
359633.574439497
 10
1395851.36987242
 20
359607.314444985
 10
1395830.52987686
 20
359611.544448395
 10
1395833.32987903
 20
359624.924445527
 10
1395825.61988077
 20
359626.974446703
 10
1395828.0798828
 20
359639.334444082
  0
LWPOLYLINE
  5
20086
100
AcDbEntity
  8
0
100
AcDbPolyline
 70
0
 90
7
 10
1394850.34996021
 20
359501.175314151
 10
1394862.66996766
 20
359549.185303238
 10
1394829.37003936
 20
359558.854656283
 10
1394826.36003762
 20
359547.454658847
 10
1394832.84997209
 20
359545.645310022
 10
1394823.52003041
 20
359508.694666108
 10
1394850.34996021
 20
359501.175314151
  0
LWPOLYLINE
  5
20087
100
AcDbEntity
  8
0
100
AcDbPolyline
 70
0
 90
13
 10
1399079.12930979
 20
359582.523808401
 10
1399084.63930911
 20
359583.943807058
 10
1399120.80930237
 20
359581.493800304
 10
1399121.43930056
 20
359572.893801664
 10
1399122.04929871
 20
359564.083803066
 10
1399120.69929892
 20
359563.973803353
 10
1399121.0592978
 20
359558.6338042
 10
1399120.69929653
 20
359551.893805437
 10
1399121.51929626
 20
359551.253805386
 10
1399119.17929662
 20
359551.053805887
 10
1399086.35930176
 20
359548.363812866
 10
1399080.49930282
 20
359548.603813993
 10
1399079.12930979
 20
359582.523808401
  0
LWPOLYLINE
  5
20088
100
AcDbEntity
  8
0
100
AcDbPolyline
 70
0
 90
6
 10
1395097.02098963
 20
359863.873200521
 10
1395112.01899949
 20
359926.401186581
 10
1395125.45099645
 20
359922.893184406
 10
1395136.54899394
 20
359919.851182649
 10
1395120.55298428
 20
359857.409196743
 10
1395097.02098963
 20
359863.873200521
  0
LWPOLYLINE
  5
20089
100
AcDbEntity
  8
0
100
AcDbPolyline
 70
0
 90
11
 10
1395226.71485
 20
360645.240845066
 10
1395252.72270675
 20
360641.848243014
 10
1395254.90941019
 20
360636.870587835
 10
1395264.8922047
 20
360636.18326384
 10
1395264.35739546
 20
360631.263956527
 10
1395263.28223712
 20
360625.706231491
 10
1395242.5357176
 20
360547.440804234
 10
1395216.87375894
 20
360553.719364365
 10
1395227.84757076
 20
360597.397302663
 10
1395218.00572692
 20
360615.660783402
 10
1395226.71485
 20
360645.240845066
  0
LWPOLYLINE
  5
2008A
100
AcDbEntity
  8
0
100
AcDbPolyline
 70
0
 90
13
 10
1395209.84017986
 20
360728.344895645
 10
1395276.32016535
 20
360713.114884871
 10
1395273.48016373
 20
360702.434887286
 10
1395271.80016323
 20
360698.424888308
 10
1395269.47016289
 20
360694.74488941
 10
1395266.56016275
 20
360691.524890541
 10
1395263.13016281
 20
360688.834891685
 10
1395259.31016306
 20
360686.774892805
 10
1395255.1801635
 20
360685.384893862
 10
1395250.89016411
 20
360684.714894822
 10
1395246.93016482
 20
360684.824895601
 10
1395202.14017462
 20
360695.244902889
 10
1395209.84017986
 20
360728.344895645
  0
LWPOLYLINE
  5
2008B
100
AcDbEntity
  8
0
100
AcDbPolyline
 70
0
 90
9
 10
1395603.85966908
 20
359432.441272059
 10
1395618.12702701
 20
359429.833110401
 10
1395618.91251235
 20
359432.969000232
 10
1395632.04454961
 20
359437.119566092
 10
1395654.25889628
 20
359433.354465323
 10
1395644.29408999
 20
359395.868190677
 10
1395636.71193456
 20
359390.352066372
 10
1395597.22839678
 20
359399.933272617
 10
1395603.85966908
 20
359432.441272059
  0
LWPOLYLINE
  5
2008C
100
AcDbEntity
  8
0
100
AcDbPolyline
 70
0
 90
10
 10
1395609.26164292
 20
359463.612144837
 10
1395636.25486618
 20
359458.970318267
 10
1395642.72567206
 20
359450.665521835
 10
1395658.10758454
 20
359447.66965657
 10
1395654.25889628
 20
359433.354465323
 10
1395632.04454961
 20
359437.119566092
 10
1395618.91650114
 20
359432.891029844
 10
1395618.18991012
 20
359429.733731397
 10
1395602.49903441
 20
359432.754719602
 10
1395609.26164292
 20
359463.612144837
  0
LWPOLYLINE
  5
2008D
100
AcDbEntity
  8
0
100
AcDbPolyline
 70
0
 90
8
 10
1395618.37928696
 20
359505.432843474
 10
1395670.92254797
 20
359495.456609581
 10
1395658.05300529
 20
359447.666864453
 10
1395642.72567206
 20
359450.665521835
 10
1395636.25486618
 20
359458.970318267
 10
1395609.18048149
 20
359463.670532343
 10
1395618.40489071
 20
359505.543597492
 10
1395618.37928696
 20
359505.432843474
  0
LWPOLYLINE
  5
2008E
100
AcDbEntity
  8
0
100
AcDbPolyline
 70
0
 90
5
 10
1395619.7398704
 20
359525.525020718
 10
1395675.57985878
 20
359515.575011141
 10
1395669.84985558
 20
359494.495015928
 10
1395615.35986704
 20
359504.775025167
 10
1395619.7398704
 20
359525.525020718
  0
LWPOLYLINE
  5
2008F
100
AcDbEntity
  8
0
100
AcDbPolyline
 70
0
 90
6
 10
1394570.5200872
 20
359897.89530346
 10
1394591.91008248
 20
359892.885299935
 10
1394615.91007714
 20
359886.855295998
 10
1394611.15007353
 20
359864.295300814
 10
1394565.09008369
 20
359875.675308378
 10
1394570.5200872
 20
359897.89530346
  0
LWPOLYLINE
  5
20090
100
AcDbEntity
  8
0
100
AcDbPolyline
 70
0
 90
16
 10
1394647.05329949
 20
360215.586255876
 10
1394654.71863444
 20
360212.904842105
 10
1394659.48523727
 20
360211.237434909
 10
1394671.54847585
 20
360207.017588603
 10
1394670.35980823
 20
360203.619554746
 10
1394674.71934849
 20
360202.04856945
 10
1394674.24262664
 20
360200.520926229
 10
1394673.37849964
 20
360200.777755803
 10
1394669.42624567
 20
360190.414910361
 10
1394658.60352398
 20
360154.887232313
 10
1394661.98427293
 20
360153.852721469
 10
1394659.72500751
 20
360144.626050465
 10
1394650.61859864
 20
360147.185512541
 10
1394634.36928342
 20
360151.334637448
 10
1394630.6130084
 20
360152.293770405
 10
1394647.05329949
 20
360215.586255876
  0
LWPOLYLINE
  5
20091
100
AcDbEntity
  8
0
100
AcDbPolyline
 70
0
 90
20
 10
1394691.56013994
 20
360076.695112764
 10
1394699.10014425
 20
360104.98510638
 10
1394697.64014459
 20
360105.395106599
 10
1394699.45301105
 20
360112.434361406
 10
1394702.34066709
 20
360111.687098221
 10
1394706.9201477
 20
360129.175100543
 10
1394708.95014879
 20
360136.395098888
 10
1394686.65015408
 20
360143.615102168
 10
1394685.45017934
 20
360138.894584632
 10
1394685.02017908
 20
360137.184585007
 10
1394683.29015202
 20
360130.375105128
 10
1394681.98017718
 20
360124.914587731
 10
1394680.66015026
 20
360119.165107589
 10
1394677.96014826
 20
360106.775110263
 10
1394677.02017355
 20
360102.354592618
 10
1394675.96014685
 20
360097.925112188
 10
1394674.35017181
 20
360091.244595069
 10
1394672.99014497
 20
360085.86511486
 10
1394671.8401444
 20
360082.015115763
 10
1394691.56013994
 20
360076.695112764
  0
LWPOLYLINE
  5
20092
100
AcDbEntity
  8
0
100
AcDbPolyline
 70
0
 90
6
 10
1394585.82019119
 20
360434.925207535
 10
1394607.66025036
 20
360428.934549957
 10
1394602.02018301
 20
360407.805208882
 10
1394583.24018712
 20
360412.235212045
 10
1394580.87018812
 20
360415.595211918
 10
1394585.82019119
 20
360434.925207535
  0
LWPOLYLINE
  5
20093
100
AcDbEntity
  8
0
100
AcDbPolyline
 70
0
 90
16
 10
1394597.5801903
 20
360441.115204065
 10
1394599.55025562
 20
360448.424548193
 10
1394603.40025764
 20
360461.964545096
 10
1394605.19025757
 20
360463.154544533
 10
1394609.05019549
 20
360477.185195415
 10
1394613.50026217
 20
360493.574537627
 10
1394613.93026246
 20
360495.384537223
 10
1394647.11025451
 20
360484.224532569
 10
1394646.80025434
 20
360483.074532823
 10
1394645.1201893
 20
360476.885188079
 10
1394639.55018571
 20
360454.415193049
 10
1394654.79018231
 20
360450.125190678
 10
1394650.7102438
 20
360433.334540649
 10
1394650.66017962
 20
360433.095194463
 10
1394649.47017887
 20
360428.135195588
 10
1394597.5801903
 20
360441.115204065
  0
LWPOLYLINE
  5
20094
100
AcDbEntity
  8
0
100
AcDbPolyline
 70
0
 90
13
 10
1394639.55018571
 20
360454.415193049
 10
1394645.1201893
 20
360476.885188079
 10
1394646.80025434
 20
360483.074532823
 10
1394647.11025451
 20
360484.224532569
 10
1394647.14019038
 20
360484.335186379
 10
1394656.45018816
 20
360481.245184979
 10
1394655.47018755
 20
360477.295185807
 10
1394653.21018617
 20
360468.65518777
 10
1394656.63018542
 20
360467.765187235
 10
1394656.29018523
 20
360466.215187597
 10
1394658.23018475
 20
360465.795187248
 10
1394654.79018231
 20
360450.125190678
 10
1394639.55018571
 20
360454.415193049
  0
LWPOLYLINE
  5
20095
100
AcDbEntity
  8
0
100
AcDbPolyline
 70
0
 90
26
 10
1394819.55019054
 20
360311.97452809
 10
1394820.45019106
 20
360315.404527319
 10
1394827.69019527
 20
360342.894521128
 10
1394829.59016884
 20
360342.41503904
 10
1394831.20016985
 20
360348.885037597
 10
1394829.27017027
 20
360349.355037903
 10
1394829.44017039
 20
360350.105037737
 10
1394831.50019766
 20
360358.284517713
 10
1394832.96017257
 20
360364.165034609
 10
1394833.68017304
 20
360367.115033957
 10
1394862.54016653
 20
360359.465029451
 10
1394857.90016359
 20
360340.605033634
 10
1394849.21018402
 20
360304.934523419
 10
1394846.47018462
 20
360305.594523853
 10
1394837.96016051
 20
360307.725043269
 10
1394837.81016054
 20
360307.785043295
 10
1394838.23016082
 20
360309.515042909
 10
1394835.92016134
 20
360310.085043269
 10
1394835.48018707
 20
360308.354525555
 10
1394833.59016148
 20
360308.815043944
 10
1394831.58016193
 20
360309.32504436
 10
1394829.50016239
 20
360309.845044682
 10
1394829.40018834
 20
360309.454526569
 10
1394826.78018891
 20
360310.094526978
 10
1394820.76019027
 20
360311.674527899
 10
1394819.55019054
 20
360311.97452809
  0
LWPOLYLINE
  5
20096
100
AcDbEntity
  8
0
100
AcDbPolyline
 70
0
 90
5
 10
1394769.96017298
 20
360311.355056451
 10
1394758.50016631
 20
360267.815066246
 10
1394793.48015842
 20
360258.435060825
 10
1394803.72016544
 20
360302.765051025
 10
1394769.96017298
 20
360311.355056451
  0
LWPOLYLINE
  5
20097
100
AcDbEntity
  8
0
100
AcDbPolyline
 70
0
 90
26
 10
1394819.55019054
 20
360311.97452809
 10
1394820.45019106
 20
360315.404527319
 10
1394827.69019527
 20
360342.894521128
 10
1394829.59016884
 20
360342.41503904
 10
1394831.20016985
 20
360348.885037597
 10
1394829.27017027
 20
360349.355037903
 10
1394829.44017039
 20
360350.105037737
 10
1394831.50019766
 20
360358.284517713
 10
1394832.96017257
 20
360364.165034609
 10
1394833.68017304
 20
360367.115033957
 10
1394862.54016653
 20
360359.465029451
 10
1394857.90016359
 20
360340.605033634
 10
1394849.21018402
 20
360304.934523419
 10
1394846.47018462
 20
360305.594523853
 10
1394837.96016051
 20
360307.725043269
 10
1394837.81016054
 20
360307.785043295
 10
1394838.23016082
 20
360309.515042909
 10
1394835.92016134
 20
360310.085043269
 10
1394835.48018707
 20
360308.354525555
 10
1394833.59016148
 20
360308.815043944
 10
1394831.58016193
 20
360309.32504436
 10
1394829.50016239
 20
360309.845044682
 10
1394829.40018834
 20
360309.454526569
 10
1394826.78018891
 20
360310.094526978
 10
1394820.76019027
 20
360311.674527899
 10
1394819.55019054
 20
360311.97452809
  0
LWPOLYLINE
  5
20098
100
AcDbEntity
  8
0
100
AcDbPolyline
 70
0
 90
7
 10
1395403.36993798
 20
359677.715038076
 10
1395404.74993766
 20
359677.235037881
 10
1395403.26993685
 20
359671.895039104
 10
1395458.39992433
 20
359656.805030561
 10
1395467.16992934
 20
359689.65502314
 10
1395412.02994148
 20
359702.795031925
 10
1395403.36993798
 20
359677.715038076
  0
LWPOLYLINE
  5
20099
100
AcDbEntity
  8
0
100
AcDbPolyline
 70
0
 90
5
 10
1395100.78876771
 20
360475.244349936
 10
1395122.99829231
 20
360469.072957128
 10
1395117.27732063
 20
360444.229729584
 10
1395095.34881979
 20
360449.685263337
 10
1395100.78876771
 20
360475.244349936
  0
LWPOLYLINE
  5
2009A
100
AcDbEntity
  8
0
100
AcDbPolyline
 70
0
 90
5
 10
1395033.91128757
 20
360491.724251743
 10
1395055.01806049
 20
360485.716015773
 10
1395048.52040584
 20
360461.951146694
 10
1395026.93455605
 20
360467.892034327
 10
1395033.91128757
 20
360491.724251743
  0
LWPOLYLINE
  5
2009B
100
AcDbEntity
  8
0
100
AcDbPolyline
 70
0
 90
7
 10
1395054.81878078
 20
360485.01280535
 10
1395065.12632722
 20
360482.059935101
 10
1395066.59760926
 20
360487.223631809
 10
1395079.13011573
 20
360483.555097189
 10
1395071.30900432
 20
360455.84863477
 10
1395048.52040584
 20
360461.951146694
 10
1395054.81878078
 20
360485.01280535
  0
LWPOLYLINE
  5
2009C
100
AcDbEntity
  8
0
100
AcDbPolyline
 70
0
 90
5
 10
1395153.71756493
 20
360492.438554064
 10
1395177.20019313
 20
360486.736758305
 10
1395163.15523019
 20
360433.289591713
 10
1395139.8501992
 20
360439.804294126
 10
1395153.71756493
 20
360492.438554064
  0
LWPOLYLINE
  5
2009D
100
AcDbEntity
  8
0
100
AcDbPolyline
 70
0
 90
7
 10
1395170.42362315
 20
360460.937149273
 10
1395192.29672253
 20
360455.180698423
 10
1395189.8637874
 20
360446.191408349
 10
1395190.92714871
 20
360445.987641121
 10
1395186.05827469
 20
360426.898762755
 10
1395163.15523019
 20
360433.289591713
 10
1395170.42362315
 20
360460.937149273
  0
LWPOLYLINE
  5
2009E
100
AcDbEntity
  8
0
100
AcDbPolyline
 70
0
 90
12
 10
1395262.09013626
 20
360423.67442092
 10
1395273.12010786
 20
360420.684935938
 10
1395268.69010535
 20
360404.204939768
 10
1395265.64010605
 20
360405.064940226
 10
1395246.30011048
 20
360410.544943126
 10
1395245.70013652
 20
360410.714426413
 10
1395246.23013682
 20
360412.694425969
 10
1395246.73013672
 20
360412.604425886
 10
1395246.91011093
 20
360413.334942514
 10
1395248.80011213
 20
360421.064940804
 10
1395250.19013892
 20
360426.744422753
 10
1395262.09013626
 20
360423.67442092
  0
LWPOLYLINE
  5
2009F
100
AcDbEntity
  8
0
100
AcDbPolyline
 70
0
 90
9
 10
1395293.86096104
 20
360397.828168719
 10
1395283.3201279
 20
360400.054420783
 10
1395268.69010535
 20
360404.204939768
 10
1395273.12010786
 20
360420.684935938
 10
1395273.43010805
 20
360421.924935664
 10
1395287.89010482
 20
360418.184933442
 10
1395287.48010461
 20
360416.784933763
 10
1395298.07648579
 20
360413.659103916
 10
1395293.86096104
 20
360397.828168719
  0
LWPOLYLINE
  5
200A0
100
AcDbEntity
  8
0
100
AcDbPolyline
 70
0
 90
11
 10
1395852.34197888
 20
359605.650798662
 10
1395862.99986972
 20
359603.864443274
 10
1395885.03789118
 20
359603.140696745
 10
1395913.52218353
 20
359603.286736365
 10
1395915.20776835
 20
359595.760812438
 10
1395916.47823786
 20
359591.829358177
 10
1395917.64524467
 20
359574.403227067
 10
1395889.42414923
 20
359577.972069517
 10
1395849.17281337
 20
359581.37672873
 10
1395846.25272404
 20
359581.992172289
 10
1395852.34197888
 20
359605.650798662
  0
LWPOLYLINE
  5
200A1
100
AcDbEntity
  8
0
100
AcDbPolyline
 70
0
 90
11
 10
1396128.66977637
 20
359685.165018152
 10
1396141.87983887
 20
359691.134372824
 10
1396153.55983843
 20
359699.084369127
 10
1396170.31983667
 20
359704.804364813
 10
1396172.57879793
 20
359697.408193833
 10
1396172.35151547
 20
359697.322699073
 10
1396178.43983032
 20
359679.87436751
 10
1396139.25983441
 20
359666.404377616
 10
1396133.92977473
 20
359681.495017646
 10
1396130.41977501
 20
359680.255018656
 10
1396128.66977637
 20
359685.165018152
  0
LWPOLYLINE
  5
200A2
100
AcDbEntity
  8
0
100
AcDbPolyline
 70
0
 90
22
 10
1394383.34009913
 20
359795.505359785
 10
1394397.78009972
 20
359811.015354189
 10
1394414.58010076
 20
359830.825347262
 10
1394407.83010311
 20
359836.775347601
 10
1394412.78010329
 20
359842.155345721
 10
1394433.9601009
 20
359848.625340213
 10
1394434.31010053
 20
359846.96534038
 10
1394462.89009692
 20
359853.425333402
 10
1394457.12009403
 20
359834.055337929
 10
1394461.45009122
 20
359823.715338828
 10
1394470.11008379
 20
359793.335342232
 10
1394472.12007715
 20
359762.075347199
 10
1394471.70007449
 20
359747.92534982
 10
1394450.48007499
 20
359732.045356934
 10
1394444.47007751
 20
359739.685356809
 10
1394440.41007863
 20
359742.025357238
 10
1394431.66008202
 20
359751.075357515
 10
1394427.82008405
 20
359758.31535711
 10
1394423.46008716
 20
359770.115355938
 10
1394422.23008858
 20
359775.885355231
 10
1394398.91009148
 20
359770.535360929
 10
1394383.34009913
 20
359795.505359785
  0
LWPOLYLINE
  5
200A3
100
AcDbEntity
  8
0
100
AcDbPolyline
 70
0
 90
5
 10
1394158.83009516
 20
359387.965339144
 10
1394163.01009441
 20
359387.765338352
 10
1394162.31009336
 20
359381.915339497
 10
1394158.16009417
 20
359382.385340243
 10
1394158.83009516
 20
359387.965339144
  0
LWPOLYLINE
  5
200A4
100
AcDbEntity
  8
0
100
AcDbPolyline
 70
0
 90
5
 10
1394846.80327227
 20
359302.316818553
 10
1394902.43190716
 20
359279.255256415
 10
1394836.27853892
 20
359122.258180243
 10
1394781.16110437
 20
359145.498718517
 10
1394846.80327227
 20
359302.316818553
  0
LWPOLYLINE
  5
200A5
100
AcDbEntity
  8
0
100
AcDbPolyline
 70
0
 90
25
 10
1397006.35581568
 20
359751.478987243
 10
1397020.68356115
 20
359746.617177175
 10
1397022.62066819
 20
359753.368395559
 10
1397035.41356629
 20
359749.453310831
 10
1397035.62500091
 20
359748.056223066
 10
1397044.61300844
 20
359744.402956513
 10
1397046.5838267
 20
359743.072815447
 10
1397047.90617747
 20
359741.632722665
 10
1397048.46052026
 20
359740.050840861
 10
1397048.74078698
 20
359737.424521343
 10
1397055.8182826
 20
359735.08231422
 10
1397056.46194664
 20
359736.812568643
 10
1397059.45771008
 20
359735.828196759
 10
1397057.70916712
 20
359730.480189954
 10
1397050.78274296
 20
359732.754694005
 10
1397050.42096352
 20
359731.558878601
 10
1397048.5473683
 20
359726.539033859
 10
1397039.34559064
 20
359729.128781845
 10
1397039.59303537
 20
359729.952760746
 10
1397028.00932095
 20
359733.286220333
 10
1397025.91083595
 20
359726.622552059
 10
1397009.45406221
 20
359732.041902902
 10
1397010.76199358
 20
359737.423172262
 10
1397001.80516363
 20
359740.346746586
 10
1397006.35581568
 20
359751.478987243
  0
LWPOLYLINE
  5
200A6
100
AcDbEntity
  8
0
100
AcDbPolyline
 70
0
 90
5
 10
1397009.45406221
 20
359732.041902902
 10
1397025.91083595
 20
359726.622552059
 10
1397019.3196271
 20
359707.054830311
 10
1397002.98963099
 20
359712.444832755
 10
1397009.45406221
 20
359732.041902902
  0
LWPOLYLINE
  5
200A7
100
AcDbEntity
  8
0
100
AcDbPolyline
 70
0
 90
11
 10
1397028.00932095
 20
359733.286220333
 10
1397039.59303537
 20
359729.952760746
 10
1397039.34559064
 20
359729.128781845
 10
1397048.5473683
 20
359726.539033859
 10
1397050.42096352
 20
359731.558878601
 10
1397055.64962542
 20
359729.8348188
 10
1397040.87962194
 20
359699.934827038
 10
1397019.3196271
 20
359707.054830311
 10
1397023.03962862
 20
359718.084827558
 10
1397025.91083595
 20
359726.622552059
 10
1397028.00932095
 20
359733.286220333
  0
LWPOLYLINE
  5
200A8
100
AcDbEntity
  8
0
100
AcDbPolyline
 70
0
 90
17
 10
1397649.5595493
 20
359544.674098778
 10
1397649.3995494
 20
359545.034098749
 10
1397647.97955026
 20
359548.1140985
 10
1397647.34955031
 20
359547.824098673
 10
1397641.75955403
 20
359561.6440974
 10
1397622.4595583
 20
359566.424100408
 10
1397621.02955709
 20
359559.034101963
 10
1397618.70955513
 20
359547.174104471
 10
1397617.69955403
 20
359540.754105789
 10
1397621.64955154
 20
359531.604106583
 10
1397621.90955142
 20
359531.284106585
 10
1397622.22955133
 20
359531.074106564
 10
1397622.50955125
 20
359530.94410653
 10
1397623.28948795
 20
359530.844735884
 10
1397630.92955028
 20
359533.344104437
 10
1397641.82954954
 20
359539.104101283
 10
1397649.5595493
 20
359544.674098778
  0
LWPOLYLINE
  5
200A9
100
AcDbEntity
  8
0
100
AcDbPolyline
 70
0
 90
16
 10
1394741.50011631
 20
360001.085115712
 10
1394745.4401447
 20
360016.554593857
 10
1394747.2001443
 20
360016.064593588
 10
1394749.13011946
 20
360023.605110305
 10
1394748.5301196
 20
360023.785110399
 10
1394752.57012211
 20
360039.945106803
 10
1394753.24012251
 20
360042.53510622
 10
1394777.66011707
 20
360036.375102334
 10
1394777.1201167
 20
360034.045102847
 10
1394776.45014227
 20
360031.304585145
 10
1394774.35014091
 20
360022.604587069
 10
1394773.96011464
 20
360020.955105733
 10
1394769.65013796
 20
360003.704591273
 10
1394767.48011055
 20
359994.645111561
 10
1394757.16013881
 20
359997.114594888
 10
1394741.50011631
 20
360001.085115712
  0
LWPOLYLINE
  5
200AA
100
AcDbEntity
  8
0
100
AcDbPolyline
 70
0
 90
8
 10
1394565.09008369
 20
359875.675308378
 10
1394581.66008007
 20
359871.585305679
 10
1394611.15007353
 20
359864.295300814
 10
1394603.83006883
 20
359834.185307566
 10
1394581.5900737
 20
359839.775311164
 10
1394581.46007363
 20
359839.255311352
 10
1394557.59007905
 20
359845.445315201
 10
1394565.09008369
 20
359875.675308378
  0
LWPOLYLINE
  5
200AB
100
AcDbEntity
  8
0
100
AcDbPolyline
 70
0
 90
10
 10
1394452.01015797
 20
359828.014684701
 10
1394457.06013489
 20
359847.635199608
 10
1394457.11013492
 20
359847.855199556
 10
1394457.69013526
 20
359850.055199059
 10
1394489.36012829
 20
359842.535193975
 10
1394488.97012801
 20
359840.765194355
 10
1394488.84015403
 20
359840.264675273
 10
1394483.72012465
 20
359819.27519911
 10
1394466.36015475
 20
359824.334682483
 10
1394452.01015797
 20
359828.014684701
  0
LWPOLYLINE
  5
200AC
100
AcDbEntity
  8
0
100
AcDbPolyline
 70
0
 90
11
 10
1394483.72012465
 20
359819.27519911
 10
1394488.84015403
 20
359840.264675273
 10
1394488.97012801
 20
359840.765194355
 10
1394489.36012829
 20
359842.535193975
 10
1394506.49012452
 20
359838.445191275
 10
1394505.9901503
 20
359836.384672536
 10
1394502.4901219
 20
359821.755194951
 10
1394502.30012177
 20
359820.94519513
 10
1394500.88012085
 20
359815.045196435
 10
1394492.78012263
 20
359816.985197703
 10
1394483.72012465
 20
359819.27519911
  0
LWPOLYLINE
  5
200AD
100
AcDbEntity
  8
0
100
AcDbPolyline
 70
0
 90
9
 10
1394478.32012166
 20
359799.505203602
 10
1394481.81015026
 20
359815.124681009
 10
1394482.64012399
 20
359815.01520006
 10
1394483.72012465
 20
359819.27519911
 10
1394492.78012263
 20
359816.985197703
 10
1394500.88012085
 20
359815.045196435
 10
1394499.99012028
 20
359811.375197242
 10
1394496.53011799
 20
359796.87520044
 10
1394478.32012166
 20
359799.505203602
  0
LWPOLYLINE
  5
200AE
100
AcDbEntity
  8
0
100
AcDbPolyline
 70
0
 90
12
 10
1394502.30012177
 20
359820.94519513
 10
1394502.4901219
 20
359821.755194951
 10
1394505.9901503
 20
359836.384672536
 10
1394506.49012452
 20
359838.445191275
 10
1394534.72011832
 20
359831.745186731
 10
1394528.92011459
 20
359807.945191996
 10
1394510.45014476
 20
359812.394675791
 10
1394511.0701452
 20
359815.09467521
 10
1394510.72011928
 20
359815.715194271
 10
1394507.78014603
 20
359816.474675621
 10
1394508.48014651
 20
359819.454674959
 10
1394502.30012177
 20
359820.94519513
  0
LWPOLYLINE
  5
200AF
100
AcDbEntity
  8
0
100
AcDbPolyline
 70
0
 90
8
 10
1394661.70010496
 20
359874.445153736
 10
1394707.94009461
 20
359862.52514642
 10
1394696.44873794
 20
359811.945426756
 10
1394688.53008823
 20
359813.485158849
 10
1394676.37009082
 20
359815.955160837
 10
1394669.21009251
 20
359818.245161864
 10
1394649.04005878
 20
359823.155300082
 10
1394661.70010496
 20
359874.445153736
  0
LWPOLYLINE
  5
200B0
100
AcDbEntity
  8
0
100
AcDbPolyline
 70
0
 90
12
 10
1394636.45007256
 20
359881.405292639
 10
1394661.95006695
 20
359875.455288472
 10
1394653.02006141
 20
359839.515296451
 10
1394648.13006246
 20
359840.66529733
 10
1394648.9400629
 20
359843.725296575
 10
1394642.39006438
 20
359845.465297614
 10
1394639.67006568
 20
359849.325297583
 10
1394630.73006757
 20
359851.295299029
 10
1394631.31006795
 20
359853.67529851
 10
1394634.2800702
 20
359867.865295488
 10
1394634.66007117
 20
359873.045294498
 10
1394636.45007256
 20
359881.405292639
  0
LWPOLYLINE
  5
200B1
100
AcDbEntity
  8
0
100
AcDbPolyline
 70
0
 90
9
 10
1394630.73006757
 20
359851.295299029
 10
1394639.67006568
 20
359849.325297583
 10
1394642.39006438
 20
359845.465297614
 10
1394648.9400629
 20
359843.725296575
 10
1394648.13006246
 20
359840.66529733
 10
1394653.02006141
 20
359839.515296451
 10
1394649.04005878
 20
359823.155300082
 10
1394625.03006412
 20
359829.095304031
 10
1394630.73006757
 20
359851.295299029
  0
LWPOLYLINE
  5
200B2
100
AcDbEntity
  8
0
100
AcDbPolyline
 70
0
 90
7
 10
1394704.67009231
 20
359848.125149551
 10
1394714.44009011
 20
359845.555148057
 10
1394712.2700889
 20
359837.545149872
 10
1394722.32008664
 20
359834.88514834
 10
1394715.02008222
 20
359806.315154722
 10
1394696.16008635
 20
359810.675157716
 10
1394704.67009231
 20
359848.125149551
  0
LWPOLYLINE
  5
200B3
100
AcDbEntity
  8
0
100
AcDbPolyline
 70
0
 90
5
 10
1394742.11813812
 20
359799.750585669
 10
1394746.82153625
 20
359817.23653839
 10
1394792.07765727
 20
359805.746695693
 10
1394787.33451678
 20
359787.589980996
 10
1394742.11813812
 20
359799.750585669
  0
LWPOLYLINE
  5
200B4
100
AcDbEntity
  8
0
100
AcDbPolyline
 70
0
 90
9
 10
1394604.80006512
 20
359816.665310351
 10
1394664.36005197
 20
359801.985300653
 10
1394659.95004825
 20
359779.325305416
 10
1394630.28005486
 20
359786.805310257
 10
1394629.92221341
 20
359785.4908443
 10
1394604.84006021
 20
359791.995314681
 10
1394604.30005995
 20
359790.035315113
 10
1394598.37994086
 20
359791.775351444
 10
1394604.80006512
 20
359816.665310351
  0
LWPOLYLINE
  5
200B5
100
AcDbEntity
  8
0
100
AcDbPolyline
 70
0
 90
8
 10
1394668.33008082
 20
359758.605172338
 10
1394677.35008676
 20
359796.38516402
 10
1394695.74008273
 20
359792.095161015
 10
1394695.35008248
 20
359790.525161358
 10
1394686.20010293
 20
359754.564650891
 10
1394671.18010623
 20
359758.114653257
 10
1394669.72008052
 20
359758.325172116
 10
1394668.33008082
 20
359758.605172338
  0
LWPOLYLINE
  5
200B6
100
AcDbEntity
  8
0
100
AcDbPolyline
 70
0
 90
8
 10
1394686.20010293
 20
359754.564650891
 10
1394695.35008248
 20
359790.525161358
 10
1394695.74008273
 20
359792.095161015
 10
1394712.51007906
 20
359788.21515835
 10
1394712.01007877
 20
359786.295158779
 10
1394707.09007553
 20
359765.685163319
 10
1394703.37009916
 20
359750.494648187
 10
1394686.20010293
 20
359754.564650891
  0
LWPOLYLINE
  5
200B7
100
AcDbEntity
  8
0
100
AcDbPolyline
 70
0
 90
8
 10
1394707.09007553
 20
359765.685163319
 10
1394712.01007877
 20
359786.295158779
 10
1394712.51007906
 20
359788.21515835
 10
1394732.06007469
 20
359783.175155237
 10
1394731.6100744
 20
359781.345155646
 10
1394726.53007123
 20
359760.975160174
 10
1394712.36007436
 20
359764.405162497
 10
1394707.09007553
 20
359765.685163319
  0
LWPOLYLINE
  5
200B8
100
AcDbEntity
  8
0
100
AcDbPolyline
 70
0
 90
8
 10
1394703.13009897
 20
359749.364648426
 10
1394703.37009916
 20
359750.494648187
 10
1394707.09007553
 20
359765.685163319
 10
1394712.36007436
 20
359764.405162497
 10
1394726.53007123
 20
359760.975160174
 10
1394722.61006868
 20
359744.715163862
 10
1394707.0700981
 20
359748.394647812
 10
1394703.13009897
 20
359749.364648426
  0
LWPOLYLINE
  5
200B9
100
AcDbEntity
  8
0
100
AcDbPolyline
 70
0
 90
12
 10
1394722.61006868
 20
359744.715163862
 10
1394726.53007123
 20
359760.975160174
 10
1394731.6100744
 20
359781.345155646
 10
1394732.06007469
 20
359783.175155237
 10
1394785.46006286
 20
359770.075146803
 10
1394775.93005682
 20
359731.34515538
 10
1394773.79008329
 20
359731.844637422
 10
1394773.45005737
 20
359731.935155775
 10
1394744.26006392
 20
359739.525160363
 10
1394736.25009168
 20
359741.414643222
 10
1394732.75006645
 20
359742.295162171
 10
1394722.61006868
 20
359744.715163862
  0
LWPOLYLINE
  5
200BA
100
AcDbEntity
  8
0
100
AcDbPolyline
 70
0
 90
6
 10
1394890.97001756
 20
359825.225249717
 10
1394910.5300512
 20
359820.145112915
 10
1394912.53001278
 20
359820.215246124
 10
1394897.74000293
 20
359757.525260038
 10
1394876.21000767
 20
359762.675263639
 10
1394890.97001756
 20
359825.225249717
  0
LWPOLYLINE
  5
200BB
100
AcDbEntity
  8
0
100
AcDbPolyline
 70
0
 90
7
 10
1394868.17706711
 20
359828.855768628
 10
1394884.96005638
 20
359823.995117327
 10
1394885.61918252
 20
359826.629235085
 10
1394890.97001756
 20
359825.225249717
 10
1394876.21000767
 20
359762.675263639
 10
1394852.46823855
 20
359768.263369198
 10
1394868.17706711
 20
359828.855768628
  0
LWPOLYLINE
  5
200BC
100
AcDbEntity
  8
0
100
AcDbPolyline
 70
0
 90
6
 10
1394912.53001278
 20
359820.215246124
 10
1394916.56001218
 20
359820.345245358
 10
1394917.61000328
 20
359776.705252631
 10
1394914.84999909
 20
359753.285257211
 10
1394897.74000293
 20
359757.525260038
 10
1394912.53001278
 20
359820.215246124
  0
LWPOLYLINE
  5
200BD
100
AcDbEntity
  8
0
100
AcDbPolyline
 70
0
 90
11
 10
1395224.37983485
 20
359767.490872135
 10
1395243.12880723
 20
359762.382093371
 10
1395240.49506972
 20
359751.819990115
 10
1395251.77251226
 20
359749.014409005
 10
1395250.22279375
 20
359743.406009148
 10
1395256.23800071
 20
359741.761556364
 10
1395258.87066668
 20
359739.452524417
 10
1395274.84692816
 20
359735.354532846
 10
1395257.63931481
 20
359667.363188444
 10
1395202.29450305
 20
359681.189742253
 10
1395224.37983485
 20
359767.490872135
  0
LWPOLYLINE
  5
200BE
100
AcDbEntity
  8
0
100
AcDbPolyline
 70
0
 90
12
 10
1395185.61996229
 20
359802.655192754
 10
1395265.2499445
 20
359782.515179733
 10
1395258.59000486
 20
359758.584536539
 10
1395228.23994764
 20
359766.105190278
 10
1395228.859948
 20
359768.645189654
 10
1395224.54994897
 20
359769.685190399
 10
1395223.87994859
 20
359767.105190926
 10
1395208.7099519
 20
359770.655193534
 10
1395206.82995074
 20
359763.115195178
 10
1395182.64995609
 20
359769.115199114
 10
1395177.61995707
 20
359769.645200121
 10
1395185.61996229
 20
359802.655192754
  0
LWPOLYLINE
  5
200BF
100
AcDbEntity
  8
0
100
AcDbPolyline
 70
0
 90
9
 10
1395291.65992463
 20
359705.165187697
 10
1395362.24990891
 20
359687.275176196
 10
1395358.70990715
 20
359675.17517899
 10
1395357.9799073
 20
359675.375179075
 10
1395355.53990564
 20
359665.285181321
 10
1395360.40990457
 20
359664.055180526
 10
1395354.92990129
 20
359642.435185396
 10
1395280.07991789
 20
359661.415197594
 10
1395291.65992463
 20
359705.165187697
  0
LWPOLYLINE
  5
200C0
100
AcDbEntity
  8
0
100
AcDbPolyline
 70
0
 90
22
 10
1395358.28990722
 20
359675.32517903
 10
1395382.46990187
 20
359669.285175109
 10
1395381.76990137
 20
359666.475175748
 10
1395393.63989879
 20
359663.485173782
 10
1395392.5598982
 20
359659.595174632
 10
1395399.58996036
 20
359657.164526074
 10
1395401.2599614
 20
359663.864524591
 10
1395400.76996151
 20
359663.994524657
 10
1395402.69996269
 20
359671.61452296
 10
1395403.26993685
 20
359671.895039104
 10
1395404.74993766
 20
359677.235037881
 10
1395403.36993798
 20
359677.715038076
 10
1395411.95990339
 20
359702.815163216
 10
1395407.82990433
 20
359703.985163855
 10
1395395.24990739
 20
359708.265165713
 10
1395387.07990956
 20
359712.335166748
 10
1395379.47991159
 20
359715.995167619
 10
1395373.06991328
 20
359718.835168486
 10
1395368.85997511
 20
359704.754523947
 10
1395365.52990977
 20
359694.345174245
 10
1395364.83997379
 20
359694.564526513
 10
1395358.28990722
 20
359675.32517903
  0
LWPOLYLINE
  5
200C1
100
AcDbEntity
  8
0
100
AcDbPolyline
 70
0
 90
7
 10
1395446.72331386
 20
359645.240923381
 10
1395406.14903341
 20
359656.02230867
 10
1395400.72058946
 20
359634.934409394
 10
1395441.83027218
 20
359624.461287741
 10
1395444.07920019
 20
359633.057672007
 10
1395443.68721229
 20
359633.181700163
 10
1395446.72331386
 20
359645.240923381
  0
LWPOLYLINE
  5
200C2
100
AcDbEntity
  8
0
100
AcDbPolyline
 70
0
 90
13
 10
1395524.14994148
 20
359670.444499046
 10
1395565.16993557
 20
359676.384489872
 10
1395579.21993355
 20
359678.42448673
 10
1395579.77993272
 20
359674.674487269
 10
1395576.11993039
 20
359659.814490562
 10
1395562.08992203
 20
359605.454502752
 10
1395560.02992041
 20
359595.544504875
 10
1395559.0399198
 20
359591.574505748
 10
1395507.4499313
 20
359604.594513741
 10
1395514.1099355
 20
359631.594507758
 10
1395519.18993856
 20
359651.434503318
 10
1395522.99994081
 20
359666.034500044
 10
1395524.14994148
 20
359670.444499046
  0
LWPOLYLINE
  5
200C3
100
AcDbEntity
  8
0
100
AcDbPolyline
 70
0
 90
8
 10
1395462.60994767
 20
359648.074515138
 10
1395475.35994482
 20
359644.79451317
 10
1395474.69994436
 20
359641.914513798
 10
1395489.5899409
 20
359637.454511611
 10
1395514.08993551
 20
359631.594507759
 10
1395507.4499313
 20
359604.594513741
 10
1395454.85994294
 20
359617.484521963
 10
1395462.60994767
 20
359648.074515138
  0
LWPOLYLINE
  5
200C4
100
AcDbEntity
  8
0
100
AcDbPolyline
 70
0
 90
6
 10
1395617.72462562
 20
359621.573038118
 10
1395610.90194012
 20
359590.941606466
 10
1395601.34100673
 20
359583.673598316
 10
1395559.79733022
 20
359594.400143614
 10
1395570.03569814
 20
359634.566093735
 10
1395617.72462562
 20
359621.573038118
  0
LWPOLYLINE
  5
200C5
100
AcDbEntity
  8
0
100
AcDbPolyline
 70
0
 90
8
 10
1395403.26995147
 20
359615.534532534
 10
1395443.95994242
 20
359605.374526219
 10
1395441.07994062
 20
359593.784528792
 10
1395434.75993668
 20
359568.474534424
 10
1395402.21994393
 20
359576.674539465
 10
1395406.49994663
 20
359593.984535616
 10
1395398.06994849
 20
359596.004536949
 10
1395403.26995147
 20
359615.534532534
  0
LWPOLYLINE
  5
200C6
100
AcDbEntity
  8
0
100
AcDbPolyline
 70
0
 90
10
 10
1395342.61996495
 20
359630.684541964
 10
1395390.82995424
 20
359618.644534472
 10
1395387.22995191
 20
359603.844537747
 10
1395383.54994955
 20
359588.704541092
 10
1395356.93995555
 20
359595.784545149
 10
1395357.09995573
 20
359596.804544943
 10
1395335.76996038
 20
359601.714548329
 10
1395337.13996148
 20
359608.484546885
 10
1395341.78996443
 20
359627.354542703
 10
1395342.61996495
 20
359630.684541964
  0
LWPOLYLINE
  5
200C7
100
AcDbEntity
  8
0
100
AcDbPolyline
 70
0
 90
6
 10
1395626.89616784
 20
359559.686220341
 10
1395676.79999901
 20
359546.990477141
 10
1395681.15380584
 20
359538.069553046
 10
1395675.58999835
 20
359515.582717556
 10
1395619.73234159
 20
359525.509626476
 10
1395626.89616784
 20
359559.686220341
  0
LWPOLYLINE
  5
200C8
100
AcDbEntity
  8
0
100
AcDbPolyline
 70
0
 90
5
 10
1395791.62232853
 20
359538.736052255
 10
1395800.43116645
 20
359573.56886051
 10
1395830.96450767
 20
359565.314338875
 10
1395822.57785786
 20
359530.998108606
 10
1395791.62232853
 20
359538.736052255
  0
LWPOLYLINE
  5
200C9
100
AcDbEntity
  8
0
100
AcDbPolyline
 70
0
 90
20
 10
1396646.52402082
 20
359709.663685134
 10
1396642.75989359
 20
359683.297378432
 10
1396672.36280586
 20
359678.003749899
 10
1396709.73438364
 20
359671.105840442
 10
1396709.12879476
 20
359665.330833585
 10
1396720.58335503
 20
359663.667746841
 10
1396719.71771798
 20
359655.260013117
 10
1396745.08381245
 20
359652.415215864
 10
1396755.82837421
 20
359652.876587339
 10
1396756.1097235
 20
359644.554258921
 10
1396756.18972305
 20
359642.314259287
 10
1396758.89972222
 20
359640.544259054
 10
1396763.59972182
 20
359642.59425776
 10
1396792.13972136
 20
359665.094248214
 10
1396795.71507699
 20
359670.931710941
 10
1396796.2405917
 20
359672.536428172
 10
1396728.18760504
 20
359694.807220549
 10
1396711.40497978
 20
359698.996122872
 10
1396699.57697998
 20
359701.31659771
 10
1396646.52402082
 20
359709.663685134
  0
LWPOLYLINE
  5
200CA
100
AcDbEntity
  8
0
100
AcDbPolyline
 70
0
 90
41
 10
1397099.48963085
 20
359476.664219753
 10
1397108.85963477
 20
359504.54421308
 10
1397111.92963605
 20
359513.664210893
 10
1397111.97380745
 20
359520.387050976
 10
1397097.86778345
 20
359528.755774488
 10
1397045.74943561
 20
359567.248113391
 10
1396988.53150234
 20
359608.206519642
 10
1396980.86145462
 20
359611.653872155
 10
1396933.92278196
 20
359626.84681567
 10
1396884.55600059
 20
359642.545771426
 10
1396876.36827485
 20
359640.229604782
 10
1396875.38160358
 20
359633.983111956
 10
1396883.87969881
 20
359631.404235816
 10
1396888.47969672
 20
359624.854236035
 10
1396893.60969505
 20
359620.9042357
 10
1396897.04969283
 20
359612.724236432
 10
1396896.87193983
 20
359609.321099538
 10
1396922.75968462
 20
359593.724234615
 10
1396925.12968397
 20
359592.534234348
 10
1396957.0196753
 20
359576.584230778
 10
1396961.75967617
 20
359585.10422836
 10
1396974.15967277
 20
359578.754226995
 10
1396961.74967032
 20
359555.594233458
 10
1396967.23966873
 20
359552.414232918
 10
1396989.26966143
 20
359534.804231588
 10
1396998.63965823
 20
359526.784231116
 10
1396999.71965826
 20
359527.894230714
 10
1397015.69965274
 20
359513.994229944
 10
1397016.80965222
 20
359512.384229999
 10
1397022.83965055
 20
359509.204229353
 10
1397031.01964884
 20
359507.704227981
 10
1397033.77964795
 20
359505.5742278
 10
1397033.78964773
 20
359504.48422799
 10
1397050.29964254
 20
359492.764226742
 10
1397052.64964272
 20
359495.674225766
 10
1397060.96964333
 20
359505.98422233
 10
1397063.71964243
 20
359503.854222157
 10
1397065.87964199
 20
359503.524221787
 10
1397084.24963631
 20
359490.884220325
 10
1397081.91963599
 20
359487.264221411
 10
1397099.48963085
 20
359476.664219753
  0
LWPOLYLINE
  5
200CB
100
AcDbEntity
  8
0
100
AcDbPolyline
 70
0
 90
23
 10
1396328.37401999
 20
359601.202806216
 10
1396342.03930961
 20
359561.860106253
 10
1396339.195367
 20
359560.951436769
 10
1396337.69891241
 20
359551.680869699
 10
1396311.24978068
 20
359545.404364377
 10
1396310.60978138
 20
359548.36436399
 10
1396308.83978162
 20
359548.034364408
 10
1396295.83978357
 20
359546.514367252
 10
1396288.26978436
 20
359543.944369189
 10
1396281.09978543
 20
359543.114370761
 10
1396267.10978718
 20
359539.714374125
 10
1396256.85978885
 20
359539.214376252
 10
1396249.55979052
 20
359541.264377346
 10
1396248.21979084
 20
359541.744377531
 10
1396244.47979175
 20
359543.064378039
 10
1396239.91979294
 20
359545.0743786
 10
1396237.35979364
 20
359546.364378887
 10
1396236.53979389
 20
359546.904378955
 10
1396233.4697949
 20
359549.334379139
 10
1396229.81979633
 20
359553.354379177
 10
1396226.22068692
 20
359562.182966113
 10
1396228.14876834
 20
359568.15163841
 10
1396328.37401999
 20
359601.202806216
  0
LWPOLYLINE
  5
200CC
100
AcDbEntity
  8
0
100
AcDbPolyline
 70
0
 90
6
 10
1396992.88566377
 20
359629.703540557
 10
1397025.13172268
 20
359605.042287828
 10
1397028.6347201
 20
359606.20617783
 10
1397041.79438398
 20
359641.705850686
 10
1397002.77546769
 20
359658.682528495
 10
1396992.88566377
 20
359629.703540557
  0
LWPOLYLINE
  5
200CD
100
AcDbEntity
  8
0
100
AcDbPolyline
 70
0
 90
7
 10
1398353.53702196
 20
359328.792620016
 10
1398358.43712754
 20
359361.366213343
 10
1398399.0124215
 20
359366.221704075
 10
1398400.18938084
 20
359349.413983494
 10
1398397.41937617
 20
359323.473988537
 10
1398396.9409127
 20
359319.894012513
 10
1398353.53702196
 20
359328.792620016
  0
LWPOLYLINE
  5
200CE
100
AcDbEntity
  8
0
100
AcDbPolyline
 70
0
 90
12
 10
1397418.8995058
 20
359443.094793314
 10
1397440.66950089
 20
359437.094789887
 10
1397441.88956474
 20
359441.594157833
 10
1397445.72956667
 20
359454.704154811
 10
1397450.43950239
 20
359453.364785002
 10
1397457.73950645
 20
359480.094778907
 10
1397456.22956996
 20
359480.444148277
 10
1397443.30957289
 20
359483.944150227
 10
1397443.06957311
 20
359484.814150125
 10
1397442.42957333
 20
359485.394150159
 10
1397431.13951264
 20
359488.024783037
 10
1397418.8995058
 20
359443.094793314
  0
LWPOLYLINE
  5
200CF
100
AcDbEntity
  8
0
100
AcDbPolyline
 70
0
 90
16
 10
1397281.56894342
 20
359483.760711347
 10
1397336.35421956
 20
359468.26852626
 10
1397340.6881109
 20
359483.86788465
 10
1397344.81625895
 20
359499.56869151
 10
1397329.35635745
 20
359503.259032154
 10
1397322.22967377
 20
359497.992029204
 10
1397315.39451808
 20
359501.081310508
 10
1397307.22772372
 20
359504.010114833
 10
1397301.2755447
 20
359506.122314405
 10
1397297.07834221
 20
359507.207396906
 10
1397295.12877951
 20
359511.203228162
 10
1397289.7824066
 20
359512.972294483
 10
1397287.27960393
 20
359504.49417766
 10
1397283.57960195
 20
359491.334180665
 10
1397282.22960117
 20
359486.204181819
 10
1397281.56894342
 20
359483.760711347
  0
LWPOLYLINE
  5
200D0
100
AcDbEntity
  8
0
100
AcDbPolyline
 70
0
 90
10
 10
1397445.72956667
 20
359454.704154811
 10
1397441.88956474
 20
359441.594157833
 10
1397440.66950089
 20
359437.094789887
 10
1397467.6269081
 20
359429.778699654
 10
1397468.03955816
 20
359431.294154425
 10
1397470.70955955
 20
359440.634152276
 10
1397471.86134654
 20
359444.702614846
 10
1397464.3477117
 20
359446.754863285
 10
1397465.03131412
 20
359449.239761947
 10
1397445.72956667
 20
359454.704154811
  0
LWPOLYLINE
  5
200D1
100
AcDbEntity
  8
0
100
AcDbPolyline
 70
0
 90
10
 10
1397471.86134654
 20
359444.702614846
 10
1397472.53956053
 20
359447.114150792
 10
1397477.20956299
 20
359463.594147013
 10
1397480.11303711
 20
359474.396336676
 10
1397474.52956594
 20
359476.164145372
 10
1397457.73950645
 20
359480.094778907
 10
1397450.43950239
 20
359453.364785002
 10
1397465.03131412
 20
359449.239761947
 10
1397464.3477117
 20
359446.754863285
 10
1397471.86134654
 20
359444.702614846
  0
LWPOLYLINE
  5
200D2
100
AcDbEntity
  8
0
100
AcDbPolyline
 70
0
 90
7
 10
1398346.03963746
 20
359400.700509105
 10
1398370.64003372
 20
359402.792103717
 10
1398372.78292828
 20
359377.587507568
 10
1398348.1825321
 20
359375.496013047
 10
1398347.99493264
 20
359377.702412664
 10
1398346.50143633
 20
359395.269309989
 10
1398346.03963746
 20
359400.700509105
  0
LWPOLYLINE
  5
200D3
100
AcDbEntity
  8
0
100
AcDbPolyline
 70
0
 90
6
 10
1398369.85023613
 20
359414.320001869
 10
1398370.64003372
 20
359402.792103717
 10
1398346.03963746
 20
359400.700509105
 10
1398322.0627412
 20
359398.662014418
 10
1398321.21814382
 20
359410.987612506
 10
1398369.85023613
 20
359414.320001869
  0
LWPOLYLINE
  5
200D4
100
AcDbEntity
  8
0
100
AcDbPolyline
 70
0
 90
6
 10
1398390.90939209
 20
359398.003976947
 10
1398404.86938993
 20
359399.263973953
 10
1398405.45938858
 20
359392.963974924
 10
1398406.25938674
 20
359384.343976254
 10
1398392.31938886
 20
359382.963979264
 10
1398390.90939209
 20
359398.003976947
  0
LWPOLYLINE
  5
200D5
100
AcDbEntity
  8
0
100
AcDbPolyline
 70
0
 90
7
 10
1398455.87938355
 20
359411.543961704
 10
1398457.70938178
 20
359404.203962612
 10
1398459.13937848
 20
359388.81396498
 10
1398459.41821493
 20
359385.640388315
 10
1398437.69621832
 20
359383.561193139
 10
1398435.68922395
 20
359410.471988896
 10
1398455.87938355
 20
359411.543961704
  0
LWPOLYLINE
  5
200D6
100
AcDbEntity
  8
0
100
AcDbPolyline
 70
0
 90
10
 10
1398787.95933498
 20
359455.923888099
 10
1398888.76932064
 20
359471.4338654
 10
1398954.71931104
 20
359480.543850727
 10
1398994.74930371
 20
359478.463843143
 10
1399001.41930135
 20
359472.373842868
 10
1399003.0892999
 20
359466.513843554
 10
1399002.88929825
 20
359458.023845054
 10
1399002.68927164
 20
359449.704351539
 10
1398790.59930392
 20
359427.734398041
 10
1398787.95933498
 20
359455.923888099
  0
LWPOLYLINE
  5
200D7
100
AcDbEntity
  8
0
100
AcDbPolyline
 70
0
 90
5
 10
1397739.10744325
 20
359351.864067226
 10
1397771.24816036
 20
359352.356134059
 10
1397771.45575167
 20
359338.796713982
 10
1397739.31503452
 20
359338.304648265
 10
1397739.10744325
 20
359351.864067226
  0
LWPOLYLINE
  5
200D8
100
AcDbEntity
  8
0
100
AcDbPolyline
 70
0
 90
6
 10
1395954.91976518
 20
359477.755089883
 10
1395988.48976084
 20
359485.375081605
 10
1395999.57975455
 20
359463.085083149
 10
1395978.45975636
 20
359454.045089117
 10
1395954.60976063
 20
359455.065093876
 10
1395954.91976518
 20
359477.755089883
  0
LWPOLYLINE
  5
200D9
100
AcDbEntity
  8
0
100
AcDbPolyline
 70
0
 90
15
 10
1395704.34989274
 20
359903.235068203
 10
1395705.90989373
 20
359909.645066696
 10
1395709.28989605
 20
359923.825063552
 10
1395710.31989671
 20
359928.135062583
 10
1395700.1198989
 20
359930.655064289
 10
1395674.82996834
 20
359936.894423083
 10
1395663.06990713
 20
359939.935070358
 10
1395645.72997483
 20
359944.264427585
 10
1395627.35991505
 20
359948.815076187
 10
1395625.73991404
 20
359941.855077697
 10
1395622.76997595
 20
359929.944434618
 10
1395621.45991129
 20
359924.665081599
 10
1395649.88990495
 20
359917.385077005
 10
1395671.00990014
 20
359911.635073632
 10
1395704.34989274
 20
359903.235068203
  0
LWPOLYLINE
  5
200DA
100
AcDbEntity
  8
0
100
AcDbPolyline
 70
0
 90
10
 10
1395809.869938
 20
359901.564402372
 10
1395804.5499352
 20
359882.854406665
 10
1395802.13276833
 20
359874.46977726
 10
1395817.26155901
 20
359870.243187709
 10
1395819.36703185
 20
359877.643628443
 10
1395824.46993452
 20
359896.774400304
 10
1395824.71018419
 20
359897.569202049
 10
1395820.92915777
 20
359898.679968551
 10
1395816.93336266
 20
359899.861292675
 10
1395809.869938
 20
359901.564402372
  0
LWPOLYLINE
  5
200DB
100
AcDbEntity
  8
0
100
AcDbPolyline
 70
0
 90
5
 10
1395755.69438615
 20
359910.931856709
 10
1395749.81875642
 20
359888.564292543
 10
1395798.78480244
 20
359875.42344321
 10
1395804.7149067
 20
359899.303723338
 10
1395755.69438615
 20
359910.931856709
  0
LWPOLYLINE
  5
200DC
100
AcDbEntity
  8
0
100
AcDbPolyline
 70
0
 90
9
 10
1397638.70841435
 20
359142.552079985
 10
1397669.47125917
 20
359214.182687098
 10
1397735.01982789
 20
359197.680354061
 10
1397738.48584877
 20
359198.268364255
 10
1397746.30146052
 20
359195.44125267
 10
1397740.49946151
 20
359181.504143504
 10
1397715.05945378
 20
359120.394159116
 10
1397711.53113462
 20
359111.918710632
 10
1397638.70841435
 20
359142.552079985
  0
LWPOLYLINE
  5
200DD
100
AcDbEntity
  8
0
100
AcDbPolyline
 70
0
 90
17
 10
1397108.96889299
 20
359342.240244291
 10
1397111.73628705
 20
359346.888212013
 10
1397077.16558025
 20
359367.4715651
 10
1397075.74677174
 20
359365.088608567
 10
1397046.88962114
 20
359381.924246568
 10
1397042.25640316
 20
359384.626709078
 10
1397011.68046706
 20
359333.834832794
 10
1397048.40960793
 20
359316.66425755
 10
1397073.13960121
 20
359304.374254764
 10
1397088.58959731
 20
359298.184252764
 10
1397105.45959369
 20
359294.634250037
 10
1397118.54959129
 20
359293.894247564
 10
1397129.15958949
 20
359294.064245423
 10
1397135.09059561
 20
359294.434558821
 10
1397141.5968099
 20
359319.487848114
 10
1397135.32738346
 20
359326.169199728
 10
1397108.96889299
 20
359342.240244291
  0
LWPOLYLINE
  5
200DE
100
AcDbEntity
  8
0
100
AcDbPolyline
 70
0
 90
12
 10
1396604.87700584
 20
359423.0594524
 10
1396610.47813672
 20
359449.384165956
 10
1396612.86164157
 20
359460.586385386
 10
1396629.0584285
 20
359456.773988458
 10
1396658.5356848
 20
359449.835636489
 10
1396691.38400339
 20
359442.103803755
 10
1396689.68661797
 20
359434.132889547
 10
1396683.82336933
 20
359406.599106756
 10
1396656.64969422
 20
359410.444319126
 10
1396614.1097028
 20
359416.624326498
 10
1396604.01765541
 20
359419.020598474
 10
1396604.87700584
 20
359423.0594524
  0
LWPOLYLINE
  5
200DF
100
AcDbEntity
  8
0
100
AcDbPolyline
 70
0
 90
9
 10
1397117.09829766
 20
359291.185943416
 10
1397115.98698366
 20
359278.085270332
 10
1397133.89520925
 20
359270.658028447
 10
1397136.6320432
 20
359272.936343759
 10
1397137.34309293
 20
359274.978840636
 10
1397136.96401623
 20
359284.427840817
 10
1397135.29717263
 20
359286.12137751
 10
1397123.55117244
 20
359290.317327476
 10
1397117.09829766
 20
359291.185943416
  0
LWPOLYLINE
  5
200E0
100
AcDbEntity
  8
0
100
AcDbPolyline
 70
0
 90
5
 10
1397254.26092673
 20
359324.829537232
 10
1397245.34099017
 20
359291.657914648
 10
1397283.08757208
 20
359279.439683672
 10
1397292.32794738
 20
359314.521181909
 10
1397254.26092673
 20
359324.829537232
  0
LWPOLYLINE
  5
200E1
100
AcDbEntity
  8
0
100
AcDbPolyline
 70
0
 90
6
 10
1397315.80955572
 20
359286.444209684
 10
1397332.56584
 20
359282.215756063
 10
1397338.34937868
 20
359304.469066376
 10
1397321.95750607
 20
359308.729242262
 10
1397321.85955903
 20
359308.374204691
 10
1397315.80955572
 20
359286.444209684
  0
LWPOLYLINE
  5
200E2
100
AcDbEntity
  8
0
100
AcDbPolyline
 70
0
 90
37
 10
1396726.83724882
 20
359410.879513142
 10
1396727.59031187
 20
359420.19048646
 10
1396735.69103017
 20
359423.372180527
 10
1396747.73390596
 20
359422.325359795
 10
1396747.82067999
 20
359423.323628894
 10
1396759.25563821
 20
359422.329651082
 10
1396768.56534045
 20
359527.919952754
 10
1396769.95014149
 20
359543.626343301
 10
1396773.48455116
 20
359584.078176357
 10
1396779.62941872
 20
359601.194497807
 10
1396784.37427394
 20
359607.039417135
 10
1396793.29497389
 20
359612.531617545
 10
1396796.54036441
 20
359613.358957604
 10
1396814.27931579
 20
359613.847254995
 10
1396823.3375218
 20
359609.271798634
 10
1396826.97134965
 20
359606.355290256
 10
1396833.12646438
 20
359599.104794974
 10
1396836.1927272
 20
359590.635745648
 10
1396837.00958951
 20
359584.384146494
 10
1396837.11082146
 20
359577.772154845
 10
1396834.14969535
 20
359570.644256197
 10
1396833.4096937
 20
359561.684257889
 10
1396832.51969184
 20
359551.564259818
 10
1396829.67968655
 20
359522.394265425
 10
1396828.8996849
 20
359513.414267128
 10
1396827.53968189
 20
359497.074270223
 10
1396826.62967973
 20
359485.404272418
 10
1396824.93967653
 20
359467.794275803
 10
1396824.0296744
 20
359456.284277971
 10
1396822.95967203
 20
359443.384280409
 10
1396822.30967039
 20
359434.584282063
 10
1396821.52966864
 20
359425.034283862
 10
1396821.10966713
 20
359417.134285315
 10
1396818.9209058
 20
359375.964930881
 10
1396748.68204627
 20
359393.263492767
 10
1396750.04301169
 20
359408.92035397
 10
1396726.83724882
 20
359410.879513142
  0
LWPOLYLINE
  5
200E3
100
AcDbEntity
  8
0
100
AcDbPolyline
 70
0
 90
5
 10
1396623.05072358
 20
359630.07640588
 10
1396637.01582151
 20
359654.222184147
 10
1396631.80662228
 20
359657.875508595
 10
1396616.07412372
 20
359634.692285686
 10
1396623.05072358
 20
359630.07640588
  0
LWPOLYLINE
  5
200E4
100
AcDbEntity
  8
0
100
AcDbPolyline
 70
0
 90
12
 10
1397149.87624907
 20
359243.586670133
 10
1397285.13619997
 20
359206.246715629
 10
1397286.36954578
 20
359210.714228614
 10
1397320.03488106
 20
359217.824685025
 10
1397323.12954312
 20
359229.334218097
 10
1397326.93954528
 20
359243.504214891
 10
1397314.05954832
 20
359247.60421674
 10
1397315.20572625
 20
359251.873463085
 10
1397176.78130736
 20
359290.074339813
 10
1397177.91161983
 20
359294.164063174
 10
1397154.2646341
 20
359294.687805746
 10
1397149.87624907
 20
359243.586670133
  0
LWPOLYLINE
  5
200E5
100
AcDbEntity
  8
0
100
AcDbPolyline
 70
0
 90
8
 10
1394803.33230924
 20
359472.953147493
 10
1394811.6560502
 20
359492.547207005
 10
1394791.67546862
 20
359498.646668763
 10
1394789.54998783
 20
359492.823424056
 10
1394787.87211819
 20
359485.279801738
 10
1394780.90608978
 20
359487.127933222
 10
1394779.09604004
 20
359480.94559171
 10
1394803.33230924
 20
359472.953147493
  0
LWPOLYLINE
  5
200E6
100
AcDbEntity
  8
0
100
AcDbPolyline
 70
0
 90
8
 10
1394787.87211819
 20
359485.279801738
 10
1394789.54998783
 20
359492.823424056
 10
1394791.67546862
 20
359498.646668763
 10
1394811.6560502
 20
359492.547207005
 10
1394820.21235826
 20
359512.63784535
 10
1394790.83395967
 20
359521.055148242
 10
1394780.83472034
 20
359487.147734162
 10
1394787.87211819
 20
359485.279801738
  0
LWPOLYLINE
  5
200E7
100
AcDbEntity
  8
0
100
AcDbPolyline
 70
0
 90
19
 10
1395319.1700055
 20
359814.564514839
 10
1395322.39000479
 20
359813.804514334
 10
1395333.54000231
 20
359811.014512607
 10
1395333.76000244
 20
359811.894512409
 10
1395340.6900009
 20
359810.114511342
 10
1395340.42000073
 20
359809.08451157
 10
1395343.64999975
 20
359806.884511309
 10
1395344.90999945
 20
359806.524511125
 10
1395345.47999908
 20
359805.134511243
 10
1395346.62999816
 20
359801.514511647
 10
1395358.33999545
 20
359798.024509919
 10
1395360.39999495
 20
359797.314509632
 10
1395367.23999285
 20
359792.684509083
 10
1395358.68998783
 20
359760.00451642
 10
1395357.4999869
 20
359754.204517664
 10
1395350.36998841
 20
359755.664518822
 10
1395307.05999786
 20
359765.544525716
 10
1395308.16999855
 20
359769.954524732
 10
1395319.1700055
 20
359814.564514839
  0
LWPOLYLINE
  5
200E8
100
AcDbEntity
  8
0
100
AcDbPolyline
 70
0
 90
13
 10
1395381.11993268
 20
359823.665148672
 10
1395382.58993381
 20
359830.415147225
 10
1395381.37993408
 20
359830.755147438
 10
1395385.83993707
 20
359849.515143301
 10
1395386.45993741
 20
359852.015142714
 10
1395377.56993939
 20
359854.265144183
 10
1395356.26994413
 20
359859.455147618
 10
1395351.50994517
 20
359860.605148498
 10
1395345.43994135
 20
359836.045153974
 10
1395356.03993891
 20
359833.345152228
 10
1395355.27993842
 20
359830.18515288
 10
1395372.27993471
 20
359825.945150154
 10
1395381.11993268
 20
359823.665148672
  0
LWPOLYLINE
  5
200E9
100
AcDbEntity
  8
0
100
AcDbPolyline
 70
0
 90
7
 10
1395274.94996342
 20
359886.262159885
 10
1395280.99396687
 20
359908.604154732
 10
1395314.09695941
 20
359900.069149318
 10
1395307.15795524
 20
359872.718155515
 10
1395287.6919595
 20
359877.743158698
 10
1395288.87696022
 20
359882.104157715
 10
1395274.94996342
 20
359886.262159885
  0
LWPOLYLINE
  5
200EA
100
AcDbEntity
  8
0
100
AcDbPolyline
 70
0
 90
7
 10
1395281.31395596
 20
359854.292164018
 10
1395277.98295671
 20
359855.114164542
 10
1395278.52595701
 20
359857.136164156
 10
1395253.17496291
 20
359864.797168006
 10
1395260.72396674
 20
359890.509162007
 10
1395288.87696022
 20
359882.104157715
 10
1395281.31395596
 20
359854.292164018
  0
LWPOLYLINE
  5
200EB
100
AcDbEntity
  8
0
100
AcDbPolyline
 70
0
 90
8
 10
1395301.20995129
 20
359848.107161025
 10
1395297.29095215
 20
359848.975161694
 10
1395284.35001898
 20
359852.234515242
 10
1395284.65001918
 20
359853.454514973
 10
1395281.31395596
 20
359854.292164018
 10
1395287.6919595
 20
359877.743158698
 10
1395307.15795524
 20
359872.718155515
 10
1395301.20995129
 20
359848.107161025
  0
LWPOLYLINE
  5
200EC
100
AcDbEntity
  8
0
100
AcDbPolyline
 70
0
 90
25
 10
1395575.71007511
 20
360388.554364709
 10
1395575.87007523
 20
360389.304364551
 10
1395576.17007546
 20
360390.694364254
 10
1395578.27007707
 20
360400.674362106
 10
1395578.56007743
 20
360402.694361704
 10
1395578.70007825
 20
360406.984360935
 10
1395580.57007787
 20
360406.724360609
 10
1395582.41007749
 20
360406.404360297
 10
1395584.38007709
 20
360406.054359969
 10
1395585.06007679
 20
360405.174359981
 10
1395606.17007217
 20
360400.244356643
 10
1395621.5700688
 20
360396.644354208
 10
1395627.65000368
 20
360395.544999019
 10
1395627.04000313
 20
360392.174999669
 10
1395622.76000048
 20
360375.105003505
 10
1395620.36006474
 20
360375.184358162
 10
1395619.24006498
 20
360375.404358342
 10
1395614.93006583
 20
360375.944359105
 10
1395607.76006742
 20
360377.694360223
 10
1395597.20006974
 20
360380.234361877
 10
1395596.60006988
 20
360380.344361977
 10
1395596.46006982
 20
360379.944362078
 10
1395588.5800714
 20
360381.054363451
 10
1395580.69000918
 20
360382.055011007
 10
1395575.71007511
 20
360388.554364709
  0
LWPOLYLINE
  5
200ED
100
AcDbEntity
  8
0
100
AcDbPolyline
 70
0
 90
16
 10
1395582.41007749
 20
360406.404360297
 10
1395582.31007836
 20
360410.674359579
 10
1395581.50008017
 20
360419.064358285
 10
1395580.09008206
 20
360427.364357134
 10
1395579.4300827
 20
360430.054356802
 10
1395579.52008328
 20
360433.044356265
 10
1395578.24008388
 20
360434.914356201
 10
1395578.08008403
 20
360435.544356124
 10
1395575.6800859
 20
360442.924355323
 10
1395590.59001869
 20
360438.744999175
 10
1395613.75007734
 20
360432.874349496
 10
1395612.63007685
 20
360429.454350309
 10
1395606.17007217
 20
360400.244356643
 10
1395585.06007679
 20
360405.174359981
 10
1395584.38007709
 20
360406.054359969
 10
1395582.41007749
 20
360406.404360297
  0
LWPOLYLINE
  5
200EE
100
AcDbEntity
  8
0
100
AcDbPolyline
 70
0
 90
19
 10
1395635.21000145
 20
360390.464998265
 10
1395635.9000658
 20
360394.044351808
 10
1395640.97007014
 20
360420.304346261
 10
1395641.83007088
 20
360424.784345322
 10
1395642.02007103
 20
360425.744345112
 10
1395661.61006685
 20
360421.674341937
 10
1395672.45006408
 20
360417.184340553
 10
1395676.65006261
 20
360413.434340373
 10
1395680.50999538
 20
360399.354987398
 10
1395683.96005605
 20
360386.744343533
 10
1395684.53005553
 20
360384.614343786
 10
1395668.58005819
 20
360384.134347032
 10
1395664.79005784
 20
360379.114348658
 10
1395663.66005774
 20
360377.604349145
 10
1395659.15005887
 20
360379.404349724
 10
1395646.50006188
 20
360383.53435152
 10
1395645.27006247
 20
360385.414351442
 10
1395643.93006349
 20
360389.43435101
 10
1395635.21000145
 20
360390.464998265
  0
LWPOLYLINE
  5
200EF
100
AcDbEntity
  8
0
100
AcDbPolyline
 70
0
 90
5
 10
1395789.81986519
 20
359838.275061731
 10
1395783.90986096
 20
359812.305067368
 10
1395804.69985631
 20
359806.595064082
 10
1395811.69986025
 20
359832.855058108
 10
1395789.81986519
 20
359838.275061731
  0
LWPOLYLINE
  5
200F0
100
AcDbEntity
  8
0
100
AcDbPolyline
 70
0
 90
6
 10
1395192.37010796
 20
360542.645063568
 10
1395210.77010386
 20
360537.845060631
 10
1395204.29010029
 20
360514.125066063
 10
1395198.15009622
 20
360488.725071651
 10
1395179.79010046
 20
360493.795074601
 10
1395192.37010796
 20
360542.645063568
  0
LWPOLYLINE
  5
200F1
100
AcDbEntity
  8
0
100
AcDbPolyline
 70
0
 90
6
 10
1395540.36993956
 20
359996.305085946
 10
1395556.49993764
 20
360000.79508189
 10
1395561.61993318
 20
359982.785083903
 10
1395554.15993371
 20
359979.145086097
 10
1395545.82993477
 20
359977.115088123
 10
1395540.36993956
 20
359996.305085946
  0
LWPOLYLINE
  5
200F2
100
AcDbEntity
  8
0
100
AcDbPolyline
 70
0
 90
40
 10
1394285.7451369
 20
360334.442397772
 10
1394287.9157396
 20
360341.576106771
 10
1394294.40489069
 20
360340.128000114
 10
1394295.19304299
 20
360342.761762781
 10
1394297.96690615
 20
360351.401658112
 10
1394296.40028883
 20
360351.904625074
 10
1394296.90029073
 20
360361.904623244
 10
1394297.02029081
 20
360362.394623139
 10
1394288.28029273
 20
360364.484624507
 10
1394293.52029655
 20
360388.254619364
 10
1394294.66029732
 20
360393.144618294
 10
1394297.83029702
 20
360394.44461744
 10
1394304.08316564
 20
360398.462057365
 10
1394309.69029649
 20
360402.06461376
 10
1394325.0602962
 20
360413.964608656
 10
1394321.84029685
 20
360414.484609207
 10
1394314.6002992
 20
360419.944609703
 10
1394329.48030203
 20
360447.214602033
 10
1394349.7203058
 20
360483.784591698
 10
1394352.1103064
 20
360488.864590341
 10
1394352.30030644
 20
360489.284590235
 10
1394355.4503071
 20
360495.334588564
 10
1394361.52030798
 20
360505.05458567
 10
1394363.60030936
 20
360513.764583757
 10
1394365.72739335
 20
360522.012605363
 10
1394361.02031174
 20
360523.544582584
 10
1394349.95031409
 20
360525.774584391
 10
1394327.56031887
 20
360530.314588051
 10
1394316.93899777
 20
360532.266399853
 10
1394312.27571452
 20
360510.225507998
 10
1394280.04883154
 20
360440.402690124
 10
1394257.93018364
 20
360410.074640628
 10
1394252.34030157
 20
360377.774629352
 10
1394254.17029988
 20
360370.854630178
 10
1394258.67029719
 20
360361.164630965
 10
1394257.02029687
 20
360358.124631813
 10
1394259.54029605
 20
360356.20463165
 10
1394273.51029043
 20
360340.034631664
 10
1394277.61028924
 20
360337.58463128
 10
1394285.7451369
 20
360334.442397772
  0
LWPOLYLINE
  5
200F3
100
AcDbEntity
  8
0
100
AcDbPolyline
 70
0
 90
31
 10
1394479.86466842
 20
359477.953577812
 10
1394521.58375565
 20
359487.77437256
 10
1394521.59768767
 20
359486.864380504
 10
1394535.83793413
 20
359483.791657638
 10
1394547.59509347
 20
359492.643618211
 10
1394561.6460618
 20
359526.106245335
 10
1394555.14722985
 20
359528.54732035
 10
1394560.44201872
 20
359543.991852693
 10
1394566.29952675
 20
359542.281126255
 10
1394569.39751741
 20
359552.910946265
 10
1394569.61955323
 20
359565.847265329
 10
1394552.18508565
 20
359571.761733333
 10
1394511.90171425
 20
359558.322088761
 10
1394511.83302892
 20
359549.088954342
 10
1394409.35336686
 20
359537.757763139
 10
1394408.53671834
 20
359530.993738587
 10
1394379.11928104
 20
359530.393317239
 10
1394360.9739991
 20
359527.204853321
 10
1394358.37639192
 20
359534.196666964
 10
1394350.15606424
 20
359532.790523583
 10
1394342.75048347
 20
359529.126342893
 10
1394330.76463843
 20
359512.999247443
 10
1394309.299912
 20
359494.046426537
 10
1394319.99467811
 20
359476.906269577
 10
1394300.07337581
 20
359452.525854377
 10
1394304.36812032
 20
359442.47933104
 10
1394315.13577261
 20
359443.444363924
 10
1394338.7568813
 20
359469.851867515
 10
1394374.47131825
 20
359478.58050106
 10
1394453.93543867
 20
359482.74776939
 10
1394479.86466842
 20
359477.953577812
  0
LWPOLYLINE
  5
200F4
100
AcDbEntity
  8
0
100
AcDbPolyline
 70
0
 90
31
 10
1396776.09971594
 20
359943.22483973
 10
1396774.33971409
 20
359932.444841965
 10
1396762.69971331
 20
359918.214846833
 10
1396761.75971137
 20
359908.00484882
 10
1396765.43970937
 20
359901.17484924
 10
1396775.92970651
 20
359895.564848063
 10
1396829.71969791
 20
359898.854836381
 10
1396830.69976222
 20
359904.514199176
 10
1396831.23976258
 20
359906.854198663
 10
1396833.9497018
 20
359922.424831427
 10
1396845.05976531
 20
359932.564191471
 10
1396853.84977097
 20
359968.794183472
 10
1396850.94977175
 20
359970.144183811
 10
1396847.14977275
 20
359971.904184264
 10
1396846.21977347
 20
359974.734183955
 10
1396841.10977483
 20
359977.134184552
 10
1396837.02977597
 20
359979.344184987
 10
1396832.15977757
 20
359983.094185307
 10
1396826.51977955
 20
359988.254185531
 10
1396825.54977976
 20
359988.394185702
 10
1396844.72978712
 20
360042.184172597
 10
1396844.22978718
 20
360042.054172717
 10
1396834.34978857
 20
360040.504174945
 10
1396817.14979095
 20
360037.514178878
 10
1396792.87973114
 20
360034.484820506
 10
1396774.29979739
 20
360032.624188238
 10
1396770.96973446
 20
360032.284825405
 10
1396772.44973033
 20
360012.484828555
 10
1396755.04979664
 20
360012.064195607
 10
1396782.24977925
 20
359948.194201246
 10
1396776.09971594
 20
359943.22483973
  0
LWPOLYLINE
  5
200F5
100
AcDbEntity
  8
0
100
AcDbPolyline
 70
0
 90
5
 10
1395013.13346038
 20
359698.027322753
 10
1395069.69896831
 20
359684.185406397
 10
1395060.40753022
 20
359645.102978914
 10
1395003.8643311
 20
359658.945291277
 10
1395013.13346038
 20
359698.027322753
  0
LWPOLYLINE
  5
200F6
100
AcDbEntity
  8
0
100
AcDbPolyline
 70
0
 90
5
 10
1394867.81322063
 20
359308.078551255
 10
1394883.13635351
 20
359344.758948169
 10
1394922.81459721
 20
359328.061479888
 10
1394907.23050419
 20
359290.629475478
 10
1394867.81322063
 20
359308.078551255
  0
LWPOLYLINE
  5
200F7
100
AcDbEntity
  8
0
100
AcDbPolyline
 70
0
 90
8
 10
1396213.92978124
 20
359784.064983442
 10
1396215.81984462
 20
359784.484342007
 10
1396217.21978092
 20
359784.954982599
 10
1396233.83977908
 20
359790.454978231
 10
1396239.37977527
 20
359776.094979534
 10
1396237.55977543
 20
359775.374980051
 10
1396219.41977745
 20
359769.514984781
 10
1396213.92978124
 20
359784.064983442
  0
LWPOLYLINE
  5
200F8
100
AcDbEntity
  8
0
100
AcDbPolyline
 70
0
 90
10
 10
1396214.17977603
 20
359757.954987873
 10
1396240.71977319
 20
359766.654980851
 10
1396242.25977207
 20
359762.404981276
 10
1396244.13977072
 20
359757.204981849
 10
1396244.32977059
 20
359756.704981819
 10
1396246.71983246
 20
359750.084341817
 10
1396246.7597688
 20
359749.964982534
 10
1396219.51983533
 20
359740.884348811
 10
1396217.44977335
 20
359747.494989045
 10
1396214.17977603
 20
359757.954987873
  0
LWPOLYLINE
  5
200F9
100
AcDbEntity
  8
0
100
AcDbPolyline
 70
0
 90
9
 10
1396166.99978258
 20
359750.154999022
 10
1396182.7097809
 20
359755.074994901
 10
1396183.99978073
 20
359755.474994531
 10
1396185.3297796
 20
359750.984995011
 10
1396188.12977723
 20
359741.524996146
 10
1396188.44977702
 20
359740.45499619
 10
1396189.70977594
 20
359736.194996738
 10
1396172.87977785
 20
359731.195001083
 10
1396166.99978258
 20
359750.154999022
  0
LWPOLYLINE
  5
200FA
100
AcDbEntity
  8
0
100
AcDbPolyline
 70
0
 90
8
 10
1396157.13978367
 20
359747.055001528
 10
1396162.53978308
 20
359748.75500013
 10
1396166.99978258
 20
359750.154999022
 10
1396172.87977785
 20
359731.195001083
 10
1396162.849779
 20
359728.215003643
 10
1396160.36984466
 20
359736.394361326
 10
1396157.80978311
 20
359744.83500184
 10
1396157.13978367
 20
359747.055001528
  0
LWPOLYLINE
  5
200FB
100
AcDbEntity
  8
0
100
AcDbPolyline
 70
0
 90
17
 10
1399216.06927629
 20
359848.444352008
 10
1399204.78927815
 20
359847.834354475
 10
1399196.77927576
 20
359829.05435938
 10
1399210.40927155
 20
359819.414358218
 10
1399220.7992683
 20
359812.024357355
 10
1399225.43926678
 20
359808.614357022
 10
1399232.87926452
 20
359803.464356329
 10
1399250.9192584
 20
359788.694355135
 10
1399250.47925841
 20
359788.114355404
 10
1399258.20925604
 20
359782.674354697
 10
1399270.34931924
 20
359796.663733418
 10
1399262.67932141
 20
359800.893734212
 10
1399250.58932523
 20
359809.613735101
 10
1399241.20932852
 20
359818.02373551
 10
1399231.4893324
 20
359829.123735516
 10
1399224.43933557
 20
359838.92373523
 10
1399216.06927629
 20
359848.444352008
  0
LWPOLYLINE
  5
200FC
100
AcDbEntity
  8
0
100
AcDbPolyline
 70
0
 90
7
 10
1394733.68680964
 20
359396.243525034
 10
1394736.99737315
 20
359410.240921271
 10
1394748.37489485
 20
359408.392735381
 10
1394754.26093121
 20
359430.698000402
 10
1394720.39196593
 20
359438.437724555
 10
1394712.45500022
 20
359400.97970029
 10
1394733.68680964
 20
359396.243525034
  0
LWPOLYLINE
  5
200FD
100
AcDbEntity
  8
0
100
AcDbPolyline
 70
0
 90
5
 10
1394752.69996927
 20
359461.855341105
 10
1394759.29997205
 20
359481.705336342
 10
1394731.15997839
 20
359489.165340855
 10
1394725.41997516
 20
359468.125345604
 10
1394752.69996927
 20
359461.855341105
  0
LWPOLYLINE
  5
200FE
100
AcDbEntity
  8
0
100
AcDbPolyline
 70
0
 90
5
 10
1394804.68011703
 20
359634.558497021
 10
1394814.70507416
 20
359677.91023421
 10
1394781.13801356
 20
359685.159969404
 10
1394770.19995414
 20
359642.41291283
 10
1394804.68011703
 20
359634.558497021
  0
LWPOLYLINE
  5
200FF
100
AcDbEntity
  8
0
100
AcDbPolyline
 70
0
 90
18
 10
1397326.86175661
 20
359326.50612701
 10
1397321.85955903
 20
359308.374204691
 10
1397315.80955572
 20
359286.444209684
 10
1397311.35165175
 20
359270.285244461
 10
1397283.08757208
 20
359279.439683672
 10
1397292.32794738
 20
359314.521181909
 10
1397254.26092673
 20
359324.829537232
 10
1397245.34099017
 20
359291.657914648
 10
1397207.40132774
 20
359303.944108711
 10
1397188.69958273
 20
359311.854230525
 10
1397174.60958649
 20
359318.544232169
 10
1397154.88959283
 20
359333.314233528
 10
1397146.17959727
 20
359348.104232705
 10
1397145.49959901
 20
359356.314231424
 10
1397145.87959976
 20
359360.394230638
 10
1397149.56960169
 20
359373.304227679
 10
1397151.83735216
 20
359374.75477013
 10
1397326.86175661
 20
359326.50612701
  0
LWPOLYLINE
  5
20100
100
AcDbEntity
  8
0
100
AcDbPolyline
 70
0
 90
21
 10
1397121.41633839
 20
359483.47799425
 10
1397116.09333984
 20
359466.399835629
 10
1397097.8370092
 20
359472.050012417
 10
1397092.23962699
 20
359450.904225642
 10
1397087.17962629
 20
359442.924228029
 10
1397084.55962614
 20
359439.964229058
 10
1397104.72961977
 20
359425.384227576
 10
1397121.029615
 20
359415.564226042
 10
1397148.94960679
 20
359398.47422345
 10
1397159.00799649
 20
359393.744956046
 10
1397162.47984969
 20
359399.225558588
 10
1397169.01721853
 20
359407.516806942
 10
1397178.74749974
 20
359442.567330553
 10
1397162.16713259
 20
359446.831249845
 10
1397162.7895386
 20
359449.251492788
 10
1397145.54922122
 20
359453.572110539
 10
1397151.04096153
 20
359474.16383207
 10
1397147.54962226
 20
359475.24421046
 10
1397136.90962471
 20
359478.294212042
 10
1397124.38962771
 20
359482.504213802
 10
1397121.41633839
 20
359483.47799425
  0
LWPOLYLINE
  5
20101
100
AcDbEntity
  8
0
100
AcDbPolyline
 70
0
 90
9
 10
1397323.76654812
 20
359379.595824013
 10
1397313.3425283
 20
359337.920859154
 10
1397362.26549676
 20
359324.470434873
 10
1397363.38955591
 20
359328.804192918
 10
1397379.12852385
 20
359324.706782295
 10
1397385.03195703
 20
359346.008533928
 10
1397377.99709957
 20
359347.942631667
 10
1397382.09992101
 20
359362.445107339
 10
1397323.76654812
 20
359379.595824013
  0
LWPOLYLINE
  5
20102
100
AcDbEntity
  8
0
100
AcDbPolyline
 70
0
 90
148
 10
1396378.11968186
 20
359425.75501138
 10
1396682.86960906
 20
359323.784966052
 10
1396740.10959611
 20
359308.194956926
 10
1396809.6295842
 20
359308.594942396
 10
1396865.62956858
 20
359278.464936129
 10
1396866.82956772
 20
359275.174936424
 10
1397037.31952027
 20
359184.624916799
 10
1397208.67948577
 20
359159.434885785
 10
1397430.01943912
 20
359116.934847368
 10
1397764.449355
 20
358983.45480139
 10
1397757.70935278
 20
358966.574805603
 10
1397770.3193496
 20
358961.574803913
 10
1397777.21935211
 20
358979.81479932
 10
1397801.32934647
 20
358972.464795664
 10
1397808.02935039
 20
358998.274789784
 10
1397809.91941737
 20
359019.514157721
 10
1397807.20941989
 20
359029.874156462
 10
1397807.51942092
 20
359035.324155465
 10
1397808.05942272
 20
359044.8741537
 10
1397810.35942795
 20
359073.234148342
 10
1397814.19942725
 20
359073.08414761
 10
1397817.97942659
 20
359073.034146862
 10
1397822.27942582
 20
359072.884146035
 10
1397827.79942472
 20
359072.09414508
 10
1397828.19942741
 20
359086.034142593
 10
1397833.53078477
 20
359185.395815782
 10
1397817.97944909
 20
359186.36412728
 10
1397814.49944963
 20
359186.034128025
 10
1397813.74944978
 20
359186.124128161
 10
1397708.35947392
 20
359216.06414391
 10
1397665.44948372
 20
359228.054150358
 10
1397634.69949087
 20
359237.274154868
 10
1397600.16943557
 20
359246.724789774
 10
1397604.24950067
 20
359260.184156949
 10
1397588.6595043
 20
359264.914159233
 10
1397547.88951364
 20
359276.444165335
 10
1397532.82951731
 20
359281.804167395
 10
1397506.20952332
 20
359288.954171452
 10
1397497.16952538
 20
359291.434172815
 10
1397492.17952651
 20
359292.824173565
 10
1397487.09952763
 20
359294.034174357
 10
1397481.86952881
 20
359295.434175156
 10
1397450.22953603
 20
359304.254179916
 10
1397393.85954888
 20
359319.954188399
 10
1397381.28955188
 20
359324.144190165
 10
1397379.12852385
 20
359324.706782295
 10
1397385.03195703
 20
359346.008533928
 10
1397377.99709957
 20
359347.942631667
 10
1397382.09992101
 20
359362.445107339
 10
1397383.68956006
 20
359367.414182214
 10
1397400.04956739
 20
359418.554170126
 10
1397401.56956833
 20
359424.654168765
 10
1397400.42950652
 20
359430.864799277
 10
1397209.89955039
 20
359485.974829084
 10
1397190.63961797
 20
359491.12419916
 10
1397188.85961836
 20
359491.534199439
 10
1397188.40955479
 20
359489.574832884
 10
1397132.8195681
 20
359508.164841232
 10
1397132.32963114
 20
359506.744208039
 10
1397131.14963067
 20
359503.344208855
 10
1397125.27962809
 20
359485.204213159
 10
1397124.6096278
 20
359483.164213639
 10
1397124.38962771
 20
359482.504213802
 10
1397121.41633839
 20
359483.47799425
 10
1397116.09333984
 20
359466.399835629
 10
1397097.8370092
 20
359472.050012417
 10
1397092.23962699
 20
359450.904225642
 10
1397087.17962629
 20
359442.924228029
 10
1397084.55962614
 20
359439.964229058
 10
1397070.04963071
 20
359450.304230154
 10
1397050.73963689
 20
359464.654231513
 10
1396992.97965532
 20
359507.214235616
 10
1396989.42965645
 20
359509.824235877
 10
1396982.11965883
 20
359515.454236355
 10
1396979.09965977
 20
359517.564236594
 10
1396972.98966168
 20
359521.814237069
 10
1396966.82966359
 20
359526.124237544
 10
1396963.78966454
 20
359528.234237783
 10
1396962.83966483
 20
359528.91423786
 10
1396952.01966829
 20
359536.914238624
 10
1396945.94967026
 20
359541.554239023
 10
1396934.20967395
 20
359549.954239905
 10
1396929.67967538
 20
359553.19424024
 10
1396920.10967845
 20
359560.344240911
 10
1396910.53968152
 20
359567.484241571
 10
1396908.6796821
 20
359568.784241719
 10
1396904.75968332
 20
359571.534242023
 10
1396901.44968436
 20
359573.844242284
 10
1396893.98968691
 20
359580.19424266
 10
1396890.46968825
 20
359583.884242723
 10
1396885.82969032
 20
359590.314242529
 10
1396881.63969256
 20
359597.904242053
 10
1396878.35969451
 20
359604.854241506
 10
1396877.51969533
 20
359608.264241086
 10
1396875.8396972
 20
359616.284240029
 10
1396875.37969898
 20
359624.854238636
 10
1396873.52970121
 20
359634.48423734
 10
1396873.02963973
 20
359643.514871465
 10
1396859.52964376
 20
359652.314872764
 10
1396810.96965542
 20
359668.514880012
 10
1396795.71507699
 20
359670.931710941
 10
1396792.13972136
 20
359665.094248214
 10
1396763.59972182
 20
359642.59425776
 10
1396758.89972222
 20
359640.544259054
 10
1396756.18972305
 20
359642.314259287
 10
1396756.1097235
 20
359644.554258921
 10
1396746.40972511
 20
359644.174260905
 10
1396742.17972112
 20
359620.414265853
 10
1396740.14972
 20
359612.984267537
 10
1396737.09971834
 20
359602.004270045
 10
1396724.44972106
 20
359604.714272086
 10
1396725.29972125
 20
359606.394271631
 10
1396718.34972318
 20
359610.074272372
 10
1396717.88965976
 20
359609.444909459
 10
1396703.18966397
 20
359618.034911002
 10
1396702.58966395
 20
359617.254911202
 10
1396658.79967649
 20
359642.71491592
 10
1396660.15967854
 20
359654.044913635
 10
1396639.39968298
 20
359658.344917256
 10
1396610.66975241
 20
359663.584284503
 10
1396598.74975481
 20
359665.324286564
 10
1396593.62975646
 20
359669.164286926
 10
1396593.74975678
 20
359670.874286601
 10
1396588.42975781
 20
359671.444287559
 10
1396588.69975819
 20
359673.594287131
 10
1396584.55975893
 20
359673.724287942
 10
1396583.21975917
 20
359673.764288195
 10
1396565.35976237
 20
359674.30429165
 10
1396562.49976286
 20
359674.274292219
 10
1396559.79976263
 20
359670.804293351
 10
1396555.12976224
 20
359664.80429532
 10
1396559.40976052
 20
359659.814295333
 10
1396558.03976027
 20
359657.374296027
 10
1396556.62976002
 20
359654.884296734
 10
1396547.77975843
 20
359639.184301207
 10
1396542.4697576
 20
359630.334303791
 10
1396543.62975728
 20
359629.774303656
 10
1396523.73975427
 20
359597.284313217
 10
1396491.66975812
 20
359588.794321055
 10
1396459.91976256
 20
359583.534328273
 10
1396450.54976118
 20
359568.374332749
 10
1396439.07975847
 20
359544.784339108
 10
1396434.81975874
 20
359542.404340363
 10
1396426.97975589
 20
359521.204345578
 10
1396423.6297555
 20
359516.324347092
 10
1396416.38975387
 20
359501.834351038
 10
1396397.73975579
 20
359495.294355869
 10
1396378.11968186
 20
359425.75501138
  0
LWPOLYLINE
  5
20103
100
AcDbEntity
  8
0
100
AcDbPolyline
 70
0
 90
5
 10
1395057.01997392
 20
359750.015228386
 10
1395110.23996198
 20
359735.865219914
 10
1395102.88995719
 20
359705.225226699
 10
1395050.20996911
 20
359719.515235129
 10
1395057.01997392
 20
359750.015228386
  0
LWPOLYLINE
  5
20104
100
AcDbEntity
  8
0
100
AcDbPolyline
 70
0
 90
12
 10
1394341.94593983
 20
360758.928402875
 10
1394348.13378084
 20
360756.385800015
 10
1394368.54612974
 20
360753.996245402
 10
1394371.45045133
 20
360761.633648086
 10
1394371.17659397
 20
360768.97953218
 10
1394361.9643811
 20
360790.462875955
 10
1394327.91495587
 20
360784.781994681
 10
1394325.78408335
 20
360787.061674201
 10
1394310.74481803
 20
360784.691593161
 10
1394309.25170932
 20
360770.873055963
 10
1394339.34083121
 20
360758.07270662
 10
1394341.94593983
 20
360758.928402875
  0
LWPOLYLINE
  5
20105
100
AcDbEntity
  8
0
100
AcDbPolyline
 70
0
 90
5
 10
1395451.97990686
 20
359754.695145942
 10
1395446.65991027
 20
359767.645144854
 10
1395433.70991147
 20
359762.31514842
 10
1395439.03990798
 20
359749.375149584
 10
1395451.97990686
 20
359754.695145942
  0
LWPOLYLINE
  5
20106
100
AcDbEntity
  8
0
100
AcDbPolyline
 70
0
 90
12
 10
1394534.79007175
 20
359788.915329626
 10
1394544.6900779
 20
359828.595320776
 10
1394603.80924366
 20
359814.461760479
 10
1394603.4700647
 20
359812.99531132
 10
1394599.46006221
 20
359797.205314888
 10
1394599.25012624
 20
359796.304660939
 10
1394599.58006202
 20
359796.225315038
 10
1394596.72006048
 20
359785.92531736
 10
1394599.12005986
 20
359784.935317072
 10
1394595.69005832
 20
359774.165319625
 10
1394542.50013419
 20
359786.994673815
 10
1394534.79007175
 20
359788.915329626
  0
LWPOLYLINE
  5
20107
100
AcDbEntity
  8
0
100
AcDbPolyline
 70
0
 90
10
 10
1394218.84015359
 20
359603.084769863
 10
1394229.02015427
 20
359615.374765712
 10
1394246.46014648
 20
359591.254766422
 10
1394244.16014657
 20
359589.754767138
 10
1394232.13014691
 20
359580.934771053
 10
1394230.41014719
 20
359580.904771398
 10
1394226.80014854
 20
359584.55477148
 10
1394225.24014932
 20
359587.114771352
 10
1394223.58015014
 20
359589.824771217
 10
1394218.84015359
 20
359603.084769863
  0
LWPOLYLINE
  5
20108
100
AcDbEntity
  8
0
100
AcDbPolyline
 70
0
 90
9
 10
1396944.62650689
 20
360089.388609567
 10
1396947.43977847
 20
360088.044144274
 10
1396948.55977812
 20
360087.254144189
 10
1396962.18977494
 20
360083.104142196
 10
1396968.34977351
 20
360081.234141303
 10
1396963.16977169
 20
360067.54414469
 10
1396955.06375371
 20
360043.783036379
 10
1396931.74194474
 20
360051.68962434
 10
1396944.62650689
 20
360089.388609567
  0
LWPOLYLINE
  5
20109
100
AcDbEntity
  8
0
100
AcDbPolyline
 70
0
 90
6
 10
1394817.94009631
 20
359835.884610682
 10
1394851.29008955
 20
359830.844604927
 10
1394868.44008639
 20
359829.874601694
 10
1394852.46007693
 20
359768.274615512
 10
1394804.39008762
 20
359780.264622984
 10
1394817.94009631
 20
359835.884610682
  0
LWPOLYLINE
  5
2010A
100
AcDbEntity
  8
0
100
AcDbPolyline
 70
0
 90
39
 10
1396293.03654483
 20
359682.491112802
 10
1396297.63642793
 20
359684.415018258
 10
1396293.57574445
 20
359695.636440427
 10
1396289.63966634
 20
359694.184273853
 10
1396288.94798118
 20
359696.243973734
 10
1396280.42747127
 20
359693.329923731
 10
1396281.29286737
 20
359691.083673848
 10
1396274.92801592
 20
359688.819313502
 10
1396273.9103056
 20
359691.292295476
 10
1396261.49655025
 20
359687.311328034
 10
1396262.29217135
 20
359685.053691366
 10
1396255.78316531
 20
359682.70378196
 10
1396255.03269394
 20
359684.690116471
 10
1396248.41855546
 20
359682.561535643
 10
1396249.09725745
 20
359680.602799552
 10
1396218.09268254
 20
359669.150955689
 10
1396193.11058248
 20
359660.696436705
 10
1396198.56155177
 20
359644.761851988
 10
1396223.59587749
 20
359653.570826291
 10
1396230.10779163
 20
359637.221465321
 10
1396227.1511735
 20
359636.030481814
 10
1396228.39702322
 20
359632.154207737
 10
1396241.52256646
 20
359638.266668174
 10
1396233.00102318
 20
359661.197166699
 10
1396248.84810662
 20
359667.136164134
 10
1396259.90556097
 20
359636.658628901
 10
1396280.16489164
 20
359643.605099974
 10
1396268.75837888
 20
359674.182044659
 10
1396280.49183241
 20
359678.472176193
 10
1396279.74712638
 20
359680.193011637
 10
1396284.04089126
 20
359681.835461406
 10
1396286.26434565
 20
359676.117367948
 10
1396284.56243899
 20
359674.849858805
 10
1396286.31546235
 20
359670.686830382
 10
1396292.36332821
 20
359654.087013546
 10
1396306.97543388
 20
359659.564139595
 10
1396299.53320849
 20
359680.345336378
 10
1396294.77760175
 20
359678.56199653
 10
1396293.03654483
 20
359682.491112802
  0
LWPOLYLINE
  5
2010B
100
AcDbEntity
  8
0
100
AcDbPolyline
 70
0
 90
7
 10
1395654.94990852
 20
359618.234482099
 10
1395661.12991183
 20
359640.26447707
 10
1395641.18991625
 20
359645.214480176
 10
1395635.64991294
 20
359623.714484986
 10
1395640.84991102
 20
359618.554484844
 10
1395649.76990905
 20
359616.364483456
 10
1395654.94990852
 20
359618.234482099
  0
LWPOLYLINE
  5
2010C
100
AcDbEntity
  8
0
100
AcDbPolyline
 70
0
 90
31
 10
1395422.66007952
 20
360277.564414282
 10
1395441.15001171
 20
360273.975058535
 10
1395443.37007378
 20
360266.704412053
 10
1395442.68007324
 20
360263.324412773
 10
1395464.71006842
 20
360258.244409266
 10
1395463.35006745
 20
360252.19441059
 10
1395462.82006708
 20
360249.874411093
 10
1395460.00006509
 20
360237.374413814
 10
1395457.50006325
 20
360225.894416291
 10
1395456.69006266
 20
360222.234417087
 10
1395455.5800619
 20
360217.454418133
 10
1395445.99006369
 20
360218.154419922
 10
1395442.74006435
 20
360218.644420484
 10
1395432.36006669
 20
360221.334422075
 10
1395425.15006833
 20
360223.374423154
 10
1395419.9700695
 20
360224.774423933
 10
1395415.97007045
 20
360226.034424513
 10
1395413.24000735
 20
360227.555072312
 10
1395409.80007233
 20
360230.204425023
 10
1395406.34007358
 20
360233.444425151
 10
1395405.5200739
 20
360234.354425155
 10
1395408.00007408
 20
360237.414424127
 10
1395409.00007454
 20
360240.604423383
 10
1395406.6200751
 20
360241.354423718
 10
1395406.70001131
 20
360241.795071167
 10
1395410.77001479
 20
360262.955066722
 10
1395411.76007953
 20
360268.144418073
 10
1395414.72007888
 20
360267.444417604
 10
1395416.01001601
 20
360273.775063767
 10
1395418.20001549
 20
360273.115063474
 10
1395422.66007952
 20
360277.564414282
  0
LWPOLYLINE
  5
2010D
100
AcDbEntity
  8
0
100
AcDbPolyline
 70
0
 90
7
 10
1395583.95995278
 20
359909.454961568
 10
1395563.68994071
 20
359830.954979267
 10
1395609.31993051
 20
359819.304972014
 10
1395616.03993509
 20
359848.204965681
 10
1395645.29992874
 20
359841.684960904
 10
1395657.76993653
 20
359891.794949764
 10
1395583.95995278
 20
359909.454961568
  0
LWPOLYLINE
  5
2010E
100
AcDbEntity
  8
0
100
AcDbPolyline
 70
0
 90
7
 10
1395168.43999869
 20
359649.054573376
 10
1395180.23999611
 20
359646.344571494
 10
1395181.87999737
 20
359654.114569826
 10
1395198.67999365
 20
359649.994567202
 10
1395202.49999615
 20
359665.914563702
 10
1395174.1000024
 20
359672.684568166
 10
1395168.43999869
 20
359649.054573376
  0
LWPOLYLINE
  5
2010F
100
AcDbEntity
  8
0
100
AcDbPolyline
 70
0
 90
2
 10
1395617.24725694
 20
358612.624611383
 10
1395603.24733942
 20
358612.410302454
  0
LWPOLYLINE
  5
20110
100
AcDbEntity
  8
0
100
AcDbPolyline
 70
0
 90
5
 10
1395617.3231206
 20
358607.668749287
 10
1395603.32320307
 20
358607.454440537
 10
1395603.4360279
 20
358600.084050037
 10
1395617.43594543
 20
358600.298358522
 10
1395617.3231206
 20
358607.668749287
  0
LWPOLYLINE
  5
20111
100
AcDbEntity
  8
0
100
AcDbPolyline
 70
0
 90
2
 10
1395617.65215975
 20
358586.173924062
 10
1395603.6522422
 20
358585.959616086
  0
ENDSEC
  0
SECTION
  2
OBJECTS
  0
DICTIONARY
  5
C
330
0
100
AcDbDictionary
281
     1
  3
ACAD_GROUP
350
D
  3
ACAD_LAYOUT
350
1A
  3
ACAD_MLEADERSTYLE
350
43
  3
ACAD_PLOTSETTINGS
350
19
  3
ACAD_PLOTSTYLENAME
350
E
  3
ACAD_TABLESTYLE
350
42
  0
DICTIONARY
  5
D
102
{ACAD_REACTORS
330
C
102
}
330
C
100
AcDbDictionary
281
     1
  0
DICTIONARY
  5
1A
102
{ACAD_REACTORS
330
C
102
}
330
C
100
AcDbDictionary
281
     1
  3
Layout1
350
1E
  3
Model
350
22
  0
DICTIONARY
  5
43
102
{ACAD_REACTORS
330
C
102
}
330
C
100
AcDbDictionary
281
     1
  0
DICTIONARY
  5
19
102
{ACAD_REACTORS
330
C
102
}
330
C
100
AcDbDictionary
281
     1
  0
ACDBDICTIONARYWDFLT
  5
E
102
{ACAD_REACTORS
330
C
102
}
330
C
100
AcDbDictionary
281
     1
  3
Normal
350
F
100
AcDbDictionaryWithDefault
340
F
  0
DICTIONARY
  5
42
102
{ACAD_REACTORS
330
C
102
}
330
C
100
AcDbDictionary
281
     1
  0
LAYOUT
  5
1E
102
{ACAD_REACTORS
330
1A
102
}
330
1A
100
AcDbPlotSettings
  1

  2
none_device
  4

  6

 40
0.0
 41
0.0
 42
0.0
 43
0.0
 44
0.0
 45
0.0
 46
0.0
 47
0.0
 48
0.0
 49
0.0
140
0.0
141
0.0
142
1.0
143
1.0
 70
   688
 72
     0
 73
     0
 74
     5
  7

 75
    16
 76
     0
 77
     2
 78
   300
147
1.0
148
0.0
149
0.0
100
AcDbLayout
  1
Layout1
 70
     1
 71
     1
 10
0.0
 20
0.0
 11
12.0
 21
9.0
 12
0.0
 22
0.0
 32
0.0
 14
1.000000000000000E+20
 24
1.000000000000000E+20
 34
1.000000000000000E+20
 15
-1.000000000000000E+20
 25
-1.000000000000000E+20
 35
-1.000000000000000E+20
146
0.0
 13
0.0
 23
0.0
 33
0.0
 16
1.0
 26
0.0
 36
0.0
 17
0.0
 27
1.0
 37
0.0
 76
     0
330
1B
  0
LAYOUT
  5
22
102
{ACAD_REACTORS
330
1A
102
}
330
1A
100
AcDbPlotSettings
  1

  2
none_device
  4

  6

 40
0.0
 41
0.0
 42
0.0
 43
0.0
 44
0.0
 45
0.0
 46
0.0
 47
0.0
 48
0.0
 49
0.0
140
0.0
141
0.0
142
1.0
143
1.0
 70
  1712
 72
     0
 73
     0
 74
     0
  7

 75
     0
 76
     0
 77
     2
 78
   300
147
1.0
148
0.0
149
0.0
100
AcDbLayout
  1
Model
 70
     1
 71
     0
 10
0.0
 20
0.0
 11
12.0
 21
9.0
 12
0.0
 22
0.0
 32
0.0
 14
30.0
 24
49.75
 34
0.0
 15
130.5
 25
163.1318914119703
 35
0.0
146
0.0
 13
0.0
 23
0.0
 33
0.0
 16
1.0
 26
0.0
 36
0.0
 17
0.0
 27
1.0
 37
0.0
 76
     0
330
1F
331
29
  0
ACDBPLACEHOLDER
  5
F
102
{ACAD_REACTORS
330
E
102
}
330
E
  0
ENDSEC
  0
EOF
