  0
SECTION
  2
HEADER
  9
$ACADVER
  1
AC1032
  9
$ACADMAINTVER
 90
      174
  9
$DWGCODEPAGE
  3
ANSI_1251
  9
$LASTSAVEDBY
  1
Сергей
  9
$REQUIREDVERSIONS
160
                 0
  9
$INSBASE
 10
0.0
 20
0.0
 30
0.0
  9
$EXTMIN
 10
21932.91313272155
 20
37786.48611362432
 30
0.0
  9
$EXTMAX
 10
29158.92342749
 20
43304.31741596999
 30
0.0
  9
$LIMMIN
 10
0.0
 20
0.0
  9
$LIMMAX
 10
420.0
 20
297.0
  9
$ORTHOMODE
 70
     0
  9
$REGENMODE
 70
     1
  9
$FILLMODE
 70
     1
  9
$QTEXTMODE
 70
     0
  9
$MIRRTEXT
 70
     0
  9
$LTSCALE
 40
1.0
  9
$ATTMODE
 70
     1
  9
$TEXTSIZE
 40
2.5
  9
$TRACEWID
 40
1.0
  9
$TEXTSTYLE
  7
Standard
  9
$CLAYER
  8
0
  9
$CELTYPE
  6
ByLayer
  9
$CECOLOR
 62
   256
  9
$CELTSCALE
 40
1.0
  9
$DISPSILH
 70
     0
  9
$DIMSCALE
 40
1.0
  9
$DIMASZ
 40
2.5
  9
$DIMEXO
 40
0.625
  9
$DIMDLI
 40
3.75
  9
$DIMRND
 40
0.0
  9
$DIMDLE
 40
0.0
  9
$DIMEXE
 40
1.25
  9
$DIMTP
 40
0.0
  9
$DIMTM
 40
0.0
  9
$DIMTXT
 40
2.5
  9
$DIMCEN
 40
2.5
  9
$DIMTSZ
 40
0.0
  9
$DIMTOL
 70
     0
  9
$DIMLIM
 70
     0
  9
$DIMTIH
 70
     0
  9
$DIMTOH
 70
     0
  9
$DIMSE1
 70
     0
  9
$DIMSE2
 70
     0
  9
$DIMTAD
 70
     1
  9
$DIMZIN
 70
     8
  9
$DIMBLK
  1

  9
$DIMASO
 70
     1
  9
$DIMSHO
 70
     1
  9
$DIMPOST
  1

  9
$DIMAPOST
  1

  9
$DIMALT
 70
     0
  9
$DIMALTD
 70
     3
  9
$DIMALTF
 40
0.03937007874016
  9
$DIMLFAC
 40
1.0
  9
$DIMTOFL
 70
     1
  9
$DIMTVP
 40
0.0
  9
$DIMTIX
 70
     0
  9
$DIMSOXD
 70
     0
  9
$DIMSAH
 70
     0
  9
$DIMBLK1
  1

  9
$DIMBLK2
  1

  9
$DIMSTYLE
  2
ISO-25
  9
$DIMCLRD
 70
     0
  9
$DIMCLRE
 70
     0
  9
$DIMCLRT
 70
     0
  9
$DIMTFAC
 40
1.0
  9
$DIMGAP
 40
0.625
  9
$DIMJUST
 70
     0
  9
$DIMSD1
 70
     0
  9
$DIMSD2
 70
     0
  9
$DIMTOLJ
 70
     0
  9
$DIMTZIN
 70
     8
  9
$DIMALTZ
 70
     0
  9
$DIMALTTZ
 70
     0
  9
$DIMUPT
 70
     0
  9
$DIMDEC
 70
     2
  9
$DIMTDEC
 70
     2
  9
$DIMALTU
 70
     2
  9
$DIMALTTD
 70
     3
  9
$DIMTXSTY
  7
Standard
  9
$DIMAUNIT
 70
     0
  9
$DIMADEC
 70
     0
  9
$DIMALTRND
 40
0.0
  9
$DIMAZIN
 70
     0
  9
$DIMDSEP
 70
    44
  9
$DIMATFIT
 70
     3
  9
$DIMFRAC
 70
     0
  9
$DIMLDRBLK
  1

  9
$DIMLUNIT
 70
     2
  9
$DIMLWD
 70
    -2
  9
$DIMLWE
 70
    -2
  9
$DIMTMOVE
 70
     0
  9
$DIMFXL
 40
1.0
  9
$DIMFXLON
 70
     0
  9
$DIMJOGANG
 40
0.7853981633974483
  9
$DIMTFILL
 70
     0
  9
$DIMTFILLCLR
 70
     0
  9
$DIMARCSYM
 70
     0
  9
$DIMLTYPE
  6

  9
$DIMLTEX1
  6

  9
$DIMLTEX2
  6

  9
$DIMTXTDIRECTION
 70
     0
  9
$LUNITS
 70
     2
  9
$LUPREC
 70
     4
  9
$SKETCHINC
 40
1.0
  9
$FILLETRAD
 40
0.0
  9
$AUNITS
 70
     0
  9
$AUPREC
 70
     0
  9
$MENU
  1
.
  9
$ELEVATION
 40
0.0
  9
$PELEVATION
 40
0.0
  9
$THICKNESS
 40
0.0
  9
$LIMCHECK
 70
     0
  9
$CHAMFERA
 40
0.0
  9
$CHAMFERB
 40
0.0
  9
$CHAMFERC
 40
0.0
  9
$CHAMFERD
 40
0.0
  9
$SKPOLY
 70
     0
  9
$TDCREATE
 40
2460873.577962963
  9
$TDUCREATE
 40
2460873.161296297
  9
$TDUPDATE
 40
2460873.578668981
  9
$TDUUPDATE
 40
2460873.162002315
  9
$TDINDWG
 40
0.0007060185
  9
$TDUSRTIMER
 40
0.0007060185
  9
$USRTIMER
 70
     1
  9
$ANGBASE
 50
0.0
  9
$ANGDIR
 70
     0
  9
$PDMODE
 70
     0
  9
$PDSIZE
 40
0.0
  9
$PLINEWID
 40
0.0
  9
$SPLFRAME
 70
     0
  9
$SPLINETYPE
 70
     6
  9
$SPLINESEGS
 70
     8
  9
$HANDSEED
  5
2DB
  9
$SURFTAB1
 70
     6
  9
$SURFTAB2
 70
     6
  9
$SURFTYPE
 70
     6
  9
$SURFU
 70
     6
  9
$SURFV
 70
     6
  9
$UCSBASE
  2

  9
$UCSNAME
  2

  9
$UCSORG
 10
0.0
 20
0.0
 30
0.0
  9
$UCSXDIR
 10
1.0
 20
0.0
 30
0.0
  9
$UCSYDIR
 10
0.0
 20
1.0
 30
0.0
  9
$UCSORTHOREF
  2

  9
$UCSORTHOVIEW
 70
     0
  9
$UCSORGTOP
 10
0.0
 20
0.0
 30
0.0
  9
$UCSORGBOTTOM
 10
0.0
 20
0.0
 30
0.0
  9
$UCSORGLEFT
 10
0.0
 20
0.0
 30
0.0
  9
$UCSORGRIGHT
 10
0.0
 20
0.0
 30
0.0
  9
$UCSORGFRONT
 10
0.0
 20
0.0
 30
0.0
  9
$UCSORGBACK
 10
0.0
 20
0.0
 30
0.0
  9
$PUCSBASE
  2

  9
$PUCSNAME
  2

  9
$PUCSORG
 10
0.0
 20
0.0
 30
0.0
  9
$PUCSXDIR
 10
1.0
 20
0.0
 30
0.0
  9
$PUCSYDIR
 10
0.0
 20
1.0
 30
0.0
  9
$PUCSORTHOREF
  2

  9
$PUCSORTHOVIEW
 70
     0
  9
$PUCSORGTOP
 10
0.0
 20
0.0
 30
0.0
  9
$PUCSORGBOTTOM
 10
0.0
 20
0.0
 30
0.0
  9
$PUCSORGLEFT
 10
0.0
 20
0.0
 30
0.0
  9
$PUCSORGRIGHT
 10
0.0
 20
0.0
 30
0.0
  9
$PUCSORGFRONT
 10
0.0
 20
0.0
 30
0.0
  9
$PUCSORGBACK
 10
0.0
 20
0.0
 30
0.0
  9
$USERI1
 70
     0
  9
$USERI2
 70
     0
  9
$USERI3
 70
     0
  9
$USERI4
 70
     0
  9
$USERI5
 70
     0
  9
$USERR1
 40
0.0
  9
$USERR2
 40
0.0
  9
$USERR3
 40
0.0
  9
$USERR4
 40
0.0
  9
$USERR5
 40
0.0
  9
$WORLDVIEW
 70
     1
  9
$SHADEDGE
 70
     3
  9
$SHADEDIF
 70
    70
  9
$TILEMODE
 70
     1
  9
$MAXACTVP
 70
    64
  9
$PINSBASE
 10
0.0
 20
0.0
 30
0.0
  9
$PLIMCHECK
 70
     0
  9
$PEXTMIN
 10
0.0
 20
0.0
 30
0.0
  9
$PEXTMAX
 10
0.0
 20
0.0
 30
0.0
  9
$PLIMMIN
 10
0.0
 20
0.0
  9
$PLIMMAX
 10
12.0
 20
9.0
  9
$UNITMODE
 70
     0
  9
$VISRETAIN
 70
     1
  9
$PLINEGEN
 70
     0
  9
$PSLTSCALE
 70
     1
  9
$TREEDEPTH
 70
  3020
  9
$CMLSTYLE
  2
Standard
  9
$CMLJUST
 70
     0
  9
$CMLSCALE
 40
20.0
  9
$PROXYGRAPHICS
 70
     1
  9
$MEASUREMENT
 70
     1
  9
$CELWEIGHT
370
    -1
  9
$ENDCAPS
280
     0
  9
$JOINSTYLE
280
     0
  9
$LWDISPLAY
290
     0
  9
$INSUNITS
 70
     4
  9
$HYPERLINKBASE
  1

  9
$STYLESHEET
  1

  9
$XEDIT
290
     1
  9
$CEPSNTYPE
380
     0
  9
$PSTYLEMODE
290
     1
  9
$FINGERPRINTGUID
  2
{0CC62ECC-4A0E-EA41-B376-8C1C784A29EB}
  9
$VERSIONGUID
  2
{BA32AC00-2511-E740-93D6-2773DA585B91}
  9
$EXTNAMES
290
     1
  9
$PSVPSCALE
 40
0.0
  9
$OLESTARTUP
290
     0
  9
$SORTENTS
280
   127
  9
$INDEXCTL
280
     0
  9
$HIDETEXT
280
     1
  9
$XCLIPFRAME
280
     2
  9
$HALOGAP
280
     0
  9
$OBSCOLOR
 70
   257
  9
$OBSLTYPE
280
     0
  9
$INTERSECTIONDISPLAY
280
     0
  9
$INTERSECTIONCOLOR
 70
   257
  9
$DIMASSOC
280
     2
  9
$PROJECTNAME
  1

  9
$CAMERADISPLAY
290
     0
  9
$LENSLENGTH
 40
50.0
  9
$CAMERAHEIGHT
 40
0.0
  9
$STEPSPERSEC
 40
2.0
  9
$STEPSIZE
 40
6.0
  9
$3DDWFPREC
 40
2.0
  9
$PSOLWIDTH
 40
5.0
  9
$PSOLHEIGHT
 40
80.0
  9
$LOFTANG1
 40
1.570796326794896
  9
$LOFTANG2
 40
1.570796326794896
  9
$LOFTMAG1
 40
0.0
  9
$LOFTMAG2
 40
0.0
  9
$LOFTPARAM
 70
     7
  9
$LOFTNORMALS
280
     1
  9
$LATITUDE
 40
37.795
  9
$LONGITUDE
 40
-122.394
  9
$NORTHDIRECTION
 40
0.0
  9
$TIMEZONE
 70
 -8000
  9
$LIGHTGLYPHDISPLAY
280
     1
  9
$TILEMODELIGHTSYNCH
280
     1
  9
$CMATERIAL
347
EC
  9
$SOLIDHIST
280
     0
  9
$SHOWHIST
280
     1
  9
$DWFFRAME
280
     2
  9
$DGNFRAME
280
     0
  9
$REALWORLDSCALE
290
     1
  9
$INTERFERECOLOR
 62
     1
  9
$INTERFEREOBJVS
345
F9
  9
$INTERFEREVPVS
346
F6
  9
$CSHADOW
280
     0
  9
$SHADOWPLANELOCATION
 40
0.0
  0
ENDSEC
  0
SECTION
  2
CLASSES
  0
CLASS
  1
ACDBDICTIONARYWDFLT
  2
AcDbDictionaryWithDefault
  3
ObjectDBX Classes
 90
        0
 91
        1
280
     0
281
     0
  0
CLASS
  1
DICTIONARYVAR
  2
AcDbDictionaryVar
  3
ObjectDBX Classes
 90
        0
 91
       11
280
     0
281
     0
  0
CLASS
  1
TABLESTYLE
  2
AcDbTableStyle
  3
ObjectDBX Classes
 90
     4095
 91
        1
280
     0
281
     0
  0
CLASS
  1
MATERIAL
  2
AcDbMaterial
  3
ObjectDBX Classes
 90
     1153
 91
        3
280
     0
281
     0
  0
CLASS
  1
VISUALSTYLE
  2
AcDbVisualStyle
  3
ObjectDBX Classes
 90
     4095
 91
       24
280
     0
281
     0
  0
CLASS
  1
SCALE
  2
AcDbScale
  3
ObjectDBX Classes
 90
     1153
 91
       17
280
     0
281
     0
  0
CLASS
  1
MLEADERSTYLE
  2
AcDbMLeaderStyle
  3
ACDB_MLEADERSTYLE_CLASS
 90
     4095
 91
        2
280
     0
281
     0
  0
CLASS
  1
CELLSTYLEMAP
  2
AcDbCellStyleMap
  3
ObjectDBX Classes
 90
     1152
 91
        1
280
     0
281
     0
  0
CLASS
  1
EXACXREFPANELOBJECT
  2
ExAcXREFPanelObject
  3
EXAC_ESW
 90
     1025
 91
        0
280
     0
281
     0
  0
CLASS
  1
NPOCOLLECTION
  2
AcDbImpNonPersistentObjectsCollection
  3
ObjectDBX Classes
 90
     1153
 91
        0
280
     0
281
     0
  0
CLASS
  1
LAYER_INDEX
  2
AcDbLayerIndex
  3
ObjectDBX Classes
 90
        0
 91
        0
280
     0
281
     0
  0
CLASS
  1
SPATIAL_INDEX
  2
AcDbSpatialIndex
  3
ObjectDBX Classes
 90
        0
 91
        0
280
     0
281
     0
  0
CLASS
  1
IDBUFFER
  2
AcDbIdBuffer
  3
ObjectDBX Classes
 90
        0
 91
        0
280
     0
281
     0
  0
CLASS
  1
ACDBSECTIONVIEWSTYLE
  2
AcDbSectionViewStyle
  3
ObjectDBX Classes
 90
     1025
 91
        1
280
     0
281
     0
  0
CLASS
  1
ACDBDETAILVIEWSTYLE
  2
AcDbDetailViewStyle
  3
ObjectDBX Classes
 90
     1025
 91
        1
280
     0
281
     0
  0
CLASS
  1
SORTENTSTABLE
  2
AcDbSortentsTable
  3
ObjectDBX Classes
 90
        0
 91
        1
280
     0
281
     0
  0
ENDSEC
  0
SECTION
  2
TABLES
  0
TABLE
  2
VPORT
  5
8
330
0
100
AcDbSymbolTable
 70
     1
  0
VPORT
  5
EA
330
8
100
AcDbSymbolTableRecord
100
AcDbViewportTableRecord
  2
*Active
 70
     0
 10
0.0
 20
0.0
 11
1.0
 21
1.0
 12
27677.2764685461
 22
40744.13892575048
 13
0.0
 23
0.0
 14
10.0
 24
10.0
 15
10.0
 25
10.0
 16
0.0
 26
0.0
 36
1.0
 17
0.0
 27
0.0
 37
0.0
 40
5653.168515448855
 41
2.10136674259681
 42
50.0
 43
0.0
 44
0.0
 50
0.0
 51
0.0
 71
     0
 72
  1000
 73
     1
 74
     3
 75
     0
 76
     1
 77
     0
 78
     0
281
     0
 65
     1
110
0.0
120
0.0
130
0.0
111
1.0
121
0.0
131
0.0
112
0.0
122
1.0
132
0.0
 79
     0
146
0.0
348
F5
 60
     3
 61
     5
292
     1
282
     1
141
0.0
142
0.0
 63
   250
421
  3355443
1001
ACAD_NAV_VCDISPLAY
1070
     3
  0
ENDTAB
  0
TABLE
  2
LTYPE
  5
5
330
0
100
AcDbSymbolTable
 70
     2
  0
LTYPE
  5
14
330
5
100
AcDbSymbolTableRecord
100
AcDbLinetypeTableRecord
  2
ByBlock
 70
     0
  3

 72
    65
 73
     0
 40
0.0
  0
LTYPE
  5
15
330
5
100
AcDbSymbolTableRecord
100
AcDbLinetypeTableRecord
  2
ByLayer
 70
     0
  3

 72
    65
 73
     0
 40
0.0
  0
LTYPE
  5
16
330
5
100
AcDbSymbolTableRecord
100
AcDbLinetypeTableRecord
  2
Continuous
 70
     0
  3
Solid line
 72
    65
 73
     0
 40
0.0
  0
ENDTAB
  0
TABLE
  2
LAYER
  5
2
102
{ACAD_XDICTIONARY
360
1FF
102
}
330
0
100
AcDbSymbolTable
 70
     2
  0
LAYER
  5
10
102
{ACAD_XDICTIONARY
360
13C
102
}
330
2
100
AcDbSymbolTableRecord
100
AcDbLayerTableRecord
  2
0
 70
     0
 62
     7
  6
Continuous
370
    -3
390
F
347
EE
348
0
  0
LAYER
  5
297
330
2
100
AcDbSymbolTableRecord
100
AcDbLayerTableRecord
  2
00 Природный ландшафт
 70
     0
 62
    81
420
 11131536
430
DIC COLOR GUIDE(R)$DIC 13
  6
Continuous
370
     9
390
F
347
EE
348
0
1001
AcAecLayerStandard
1000

1000

1001
AcCmTransparency
1071
 33554585
  0
ENDTAB
  0
TABLE
  2
STYLE
  5
3
330
0
100
AcDbSymbolTable
 70
     2
  0
STYLE
  5
11
330
3
100
AcDbSymbolTableRecord
100
AcDbTextStyleTableRecord
  2
Standard
 70
     0
 40
0.0
 41
1.0
 50
0.0
 71
     0
 42
2.5
  3
arial.ttf
  4

1001
ACAD
1000
Arial
1071
       34
  0
STYLE
  5
132
330
3
100
AcDbSymbolTableRecord
100
AcDbTextStyleTableRecord
  2
Аннотативный
 70
     0
 40
0.0
 41
1.0
 50
0.0
 71
     0
 42
2.5
  3
arial.ttf
  4

1001
AcadAnnotative
1000
AnnotativeData
1002
{
1070
     1
1070
     1
1002
}
1001
ACAD
1000
Arial
1071
       34
  0
ENDTAB
  0
TABLE
  2
VIEW
  5
6
330
0
100
AcDbSymbolTable
 70
     1
  0
ENDTAB
  0
TABLE
  2
UCS
  5
7
330
0
100
AcDbSymbolTable
 70
     0
  0
ENDTAB
  0
TABLE
  2
APPID
  5
9
330
0
100
AcDbSymbolTable
 70
    13
  0
APPID
  5
12
330
9
100
AcDbSymbolTableRecord
100
AcDbRegAppTableRecord
  2
ACAD
 70
     0
  0
APPID
  5
9E
330
9
100
AcDbSymbolTableRecord
100
AcDbRegAppTableRecord
  2
ACAD_PSEXT
 70
     0
  0
APPID
  5
133
330
9
100
AcDbSymbolTableRecord
100
AcDbRegAppTableRecord
  2
AcadAnnoPO
 70
     0
  0
APPID
  5
134
330
9
100
AcDbSymbolTableRecord
100
AcDbRegAppTableRecord
  2
AcadAnnotative
 70
     0
  0
APPID
  5
135
330
9
100
AcDbSymbolTableRecord
100
AcDbRegAppTableRecord
  2
ACAD_DSTYLE_DIMJAG
 70
     0
  0
APPID
  5
136
330
9
100
AcDbSymbolTableRecord
100
AcDbRegAppTableRecord
  2
ACAD_DSTYLE_DIMTALN
 70
     0
  0
APPID
  5
165
330
9
100
AcDbSymbolTableRecord
100
AcDbRegAppTableRecord
  2
ACAD_MLEADERVER
 70
     0
  0
APPID
  5
217
330
9
100
AcDbSymbolTableRecord
100
AcDbRegAppTableRecord
  2
ACAD_NAV_VCDISPLAY
 70
     0
  0
APPID
  5
298
330
9
100
AcDbSymbolTableRecord
100
AcDbRegAppTableRecord
  2
AcAecLayerStandard
 70
     0
  0
APPID
  5
299
330
9
100
AcDbSymbolTableRecord
100
AcDbRegAppTableRecord
  2
AcCmTransparency
 70
     0
  0
APPID
  5
29A
330
9
100
AcDbSymbolTableRecord
100
AcDbRegAppTableRecord
  2
GradientColor1ACI
 70
     0
  0
APPID
  5
29B
330
9
100
AcDbSymbolTableRecord
100
AcDbRegAppTableRecord
  2
GradientColor2ACI
 70
     0
  0
APPID
  5
2CB
330
9
100
AcDbSymbolTableRecord
100
AcDbRegAppTableRecord
  2
ACAD_EXEMPT_FROM_CAD_STANDARDS
 70
     0
  0
ENDTAB
  0
TABLE
  2
DIMSTYLE
  5
A
330
0
100
AcDbSymbolTable
 70
     4
100
AcDbDimStyleTable
 71
     2
340
27
340
137
  0
DIMSTYLE
105
1B0
330
A
100
AcDbSymbolTableRecord
100
AcDbDimStyleTableRecord
  2
Standard
 70
     0
340
11
  0
DIMSTYLE
105
137
330
A
100
AcDbSymbolTableRecord
100
AcDbDimStyleTableRecord
  2
Аннотативный
 70
     0
 40
0.0
 41
2.5
 42
0.625
 43
3.75
 44
1.25
 73
     0
 74
     0
 77
     1
 78
     8
140
2.5
141
2.5
143
0.03937007874016
147
0.625
171
     3
172
     1
271
     2
272
     2
274
     3
278
    44
283
     0
284
     8
340
11
1001
AcadAnnotative
1000
AnnotativeData
1002
{
1070
     1
1070
     1
1002
}
1001
ACAD_DSTYLE_DIMJAG
1070
   388
1040
1.5
1001
ACAD_DSTYLE_DIMTALN
1070
   392
1070
     0
  0
DIMSTYLE
105
27
330
A
100
AcDbSymbolTableRecord
100
AcDbDimStyleTableRecord
  2
ISO-25
 70
     0
 41
2.5
 42
0.625
 43
3.75
 44
1.25
 73
     0
 74
     0
 77
     1
 78
     8
140
2.5
141
2.5
143
0.03937007874016
147
0.625
171
     3
172
     1
271
     2
272
     2
274
     3
278
    44
283
     0
284
     8
340
11
  0
ENDTAB
  0
TABLE
  2
BLOCK_RECORD
  5
1
330
0
100
AcDbSymbolTable
 70
     3
  0
BLOCK_RECORD
  5
1F
102
{ACAD_XDICTIONARY
360
1CE
102
}
330
1
100
AcDbSymbolTableRecord
100
AcDbBlockTableRecord
  2
*Model_Space
340
22
 70
     0
280
     1
281
     0
  0
BLOCK_RECORD
  5
D2
330
1
100
AcDbSymbolTableRecord
100
AcDbBlockTableRecord
  2
*Paper_Space
340
D3
 70
     0
280
     1
281
     0
  0
BLOCK_RECORD
  5
D6
330
1
100
AcDbSymbolTableRecord
100
AcDbBlockTableRecord
  2
*Paper_Space0
340
D7
 70
     0
280
     1
281
     0
  0
ENDTAB
  0
ENDSEC
  0
SECTION
  2
BLOCKS
  0
BLOCK
  5
20
330
1F
100
AcDbEntity
  8
0
100
AcDbBlockBegin
  2
*Model_Space
 70
     0
 10
0.0
 20
0.0
 30
0.0
  3
*Model_Space
  1

  0
ENDBLK
  5
21
330
1F
100
AcDbEntity
  8
0
100
AcDbBlockEnd
  0
BLOCK
  5
D4
330
D2
100
AcDbEntity
 67
     1
  8
0
100
AcDbBlockBegin
  2
*Paper_Space
 70
     0
 10
0.0
 20
0.0
 30
0.0
  3
*Paper_Space
  1

  0
ENDBLK
  5
D5
330
D2
100
AcDbEntity
 67
     1
  8
0
100
AcDbBlockEnd
  0
BLOCK
  5
D8
330
D6
100
AcDbEntity
 67
     1
  8
0
100
AcDbBlockBegin
  2
*Paper_Space0
 70
     0
 10
0.0
 20
0.0
 30
0.0
  3
*Paper_Space0
  1

  0
ENDBLK
  5
D9
330
D6
100
AcDbEntity
 67
     1
  8
0
100
AcDbBlockEnd
  0
ENDSEC
  0
SECTION
  2
ENTITIES
  0
HATCH
  5
2B7
330
1F
100
AcDbEntity
  8
00 Природный ландшафт
440
 33554585
100
AcDbHatch
 10
0.0
 20
0.0
 30
0.0
210
0.0
220
0.0
230
1.0
  2
SOLID
 70
     1
 71
     0
 91
        1
 92
        1
 93
       17
 72
     1
 10
24921.5661674857
 20
41214.34886328389
 11
25074.1619766038
 21
41294.44702863906
 72
     1
 10
25074.1619766038
 20
41294.44702863906
 11
25087.88677271199
 21
41267.28182715753
 72
     1
 10
25087.88677271199
 20
41267.28182715753
 11
25089.61180244147
 21
41263.80312804029
 72
     1
 10
25089.61180244147
 20
41263.80312804029
 11
25078.4116857
 21
41259.11678519
 72
     1
 10
25078.4116857
 20
41259.11678519
 11
25060.02563912
 21
41253.50817623
 72
     1
 10
25060.02563912
 20
41253.50817623
 11
25051.4238342
 21
41250.12981531998
 72
     1
 10
25051.4238342
 20
41250.12981531998
 11
25047.26032701002
 21
41249.90354688999
 72
     1
 10
25047.26032701002
 20
41249.90354688999
 11
25045.84105061
 21
41248.64525966
 72
     1
 10
25045.84105061
 20
41248.64525966
 11
25048.8200207
 21
41245.30962346
 72
     1
 10
25048.8200207
 20
41245.30962346
 11
25024.01285075
 21
41235.05925735
 72
     1
 10
25024.01285075
 20
41235.05925735
 11
25018.5959499
 21
41234.61217301
 72
     1
 10
25018.5959499
 20
41234.61217301
 11
25005.73504059
 21
41228.02897454
 72
     1
 10
25005.73504059
 20
41228.02897454
 11
24987.76757635
 21
41225.59398913
 72
     1
 10
24987.76757635
 20
41225.59398913
 11
24980.00159973
 21
41219.98280861
 72
     1
 10
24980.00159973
 20
41219.98280861
 11
24973.42520350017
 21
41213.27549738703
 72
     1
 10
24973.42520350017
 20
41213.27549738703
 11
24920.5165192
 21
41190.38217383
 72
     1
 10
24920.5165192
 20
41190.38217383
 11
24921.5661674857
 21
41214.34886328389
 97
        0
 75
     1
 76
     1
 98
        1
 10
0.0
 20
0.0
450
        0
451
        0
460
0.0
461
0.0
452
        0
462
0.0
453
        2
463
0.0
 63
     5
421
      255
463
1.0
 63
     2
421
 16776960
470
LINEAR
1001
GradientColor1ACI
1070
     5
1001
GradientColor2ACI
1070
     2
1001
ACAD
1010
0.0
1020
0.0
1030
0.0
  0
HATCH
  5
2B8
330
1F
100
AcDbEntity
  8
00 Природный ландшафт
370
    30
100
AcDbHatch
 10
0.0
 20
0.0
 30
0.0
210
0.0
220
0.0
230
1.0
  2
SOLID
 70
     1
 71
     0
 91
        1
 92
        1
 93
        4
 72
     1
 10
21949.44010167133
 20
38049.09627761105
 11
21935.44010167133
 21
38049.09627761105
 72
     1
 10
21935.44010167133
 20
38049.09627761105
 11
21935.44010167133
 21
38045.09627761106
 72
     1
 10
21935.44010167133
 20
38045.09627761106
 11
21949.44010167133
 21
38045.09627761106
 72
     1
 10
21949.44010167133
 20
38045.09627761106
 11
21949.44010167133
 21
38049.09627761105
 97
        0
 75
     1
 76
     1
 98
        1
 10
-4535.075598902404
 20
-3380.04106378826
450
        0
451
        0
460
0.0
461
0.0
452
        0
462
1.0
453
        2
463
0.0
 63
     5
421
      255
463
1.0
 63
     2
421
 16776960
470
LINEAR
1001
GradientColor1ACI
1070
     5
1001
GradientColor2ACI
1070
     2
1001
ACAD
1010
0.0
1020
0.0
1030
0.0
  0
HATCH
  5
2B9
330
1F
100
AcDbEntity
  8
00 Природный ландшафт
440
 33554585
100
AcDbHatch
 10
0.0
 20
0.0
 30
0.0
210
0.0
220
0.0
230
1.0
  2
SOLID
 70
     1
 71
     0
 91
        1
 92
        1
 93
       56
 72
     1
 10
22871.54734307144
 20
38476.15559470809
 11
22859.78707570745
 21
38445.13895156285
 72
     1
 10
22859.78707570745
 20
38445.13895156285
 11
22820.29193297
 21
38445.48816221
 72
     1
 10
22820.29193297
 20
38445.48816221
 11
22802.02008611925
 21
38452.10630094418
 72
     1
 10
22802.02008611925
 20
38452.10630094418
 11
22804.76906874
 21
38459.69589546
 72
     1
 10
22804.76906874
 20
38459.69589546
 11
22819.65690909
 21
38494.17865615
 72
     1
 10
22819.65690909
 20
38494.17865615
 11
22836.57038624
 21
38527.72040581001
 72
     1
 10
22836.57038624
 20
38527.72040581001
 11
22855.48720944
 21
38560.17148273
 72
     1
 10
22855.48720944
 20
38560.17148273
 11
22876.30602316
 21
38591.44343596
 72
     1
 10
22876.30602316
 20
38591.44343596
 11
22898.97469603
 21
38621.39706068
 72
     1
 10
22898.97469603
 20
38621.39706068
 11
22923.37202981
 21
38649.95420987
 72
     1
 10
22923.37202981
 20
38649.95420987
 11
22958.90475094
 21
38686.04109075
 72
     1
 10
22958.90475094
 20
38686.04109075
 11
23012.68811586
 21
38734.56890279
 72
     1
 10
23012.68811586
 20
38734.56890279
 11
23014.43429369
 21
38750.00242341
 72
     1
 10
23014.43429369
 20
38750.00242341
 11
23184.47705286
 21
38888.5626547
 72
     1
 10
23184.47705286
 20
38888.5626547
 11
23244.31479852
 21
39024.28906943
 72
     1
 10
23244.31479852
 20
39024.28906943
 11
23250.89946668
 21
39052.6887349
 72
     1
 10
23250.89946668
 20
39052.6887349
 11
23250.01033489
 21
39063.20249716
 72
     1
 10
23250.01033489
 20
39063.20249716
 11
23249.33446959
 21
39074.58300900001
 72
     1
 10
23249.33446959
 20
39074.58300900001
 11
23255.60026523
 21
39080.83722279
 72
     1
 10
23255.60026523
 20
39080.83722279
 11
23256.84756681
 21
39087.84824096
 72
     1
 10
23256.84756681
 20
39087.84824096
 11
23264.78826951
 21
39115.98715046
 72
     1
 10
23264.78826951
 20
39115.98715046
 11
23275.50505217
 21
39143.21356514
 72
     1
 10
23275.50505217
 20
39143.21356514
 11
23288.90022324271
 21
39169.28660706687
 72
     1
 10
23288.90022324271
 20
39169.28660706687
 11
23304.72937562
 21
39193.7871159
 72
     1
 10
23304.72937562
 20
39193.7871159
 11
23322.95963093
 21
39216.65848733
 72
     1
 10
23322.95963093
 20
39216.65848733
 11
23343.37048608
 21
39237.60645984
 72
     1
 10
23343.37048608
 20
39237.60645984
 11
23367.385866
 21
39255.57922836
 72
     1
 10
23367.385866
 20
39255.57922836
 11
23401.3853202
 21
39275.76924505001
 72
     1
 10
23401.3853202
 20
39275.76924505001
 11
23430.57948664672
 21
39285.16263543748
 72
     1
 10
23430.57948664672
 20
39285.16263543748
 11
23488.7756925
 21
39294.66221889
 72
     1
 10
23488.7756925
 20
39294.66221889
 11
23510.97491725787
 21
39294.29233817501
 72
     1
 10
23510.97491725787
 20
39294.29233817501
 11
23510.98483038222
 21
39240.5556632591
 72
     1
 10
23510.98483038222
 20
39240.5556632591
 11
23498.14221731
 21
39200.97754787001
 72
     1
 10
23498.14221731
 20
39200.97754787001
 11
23424.76094552868
 21
39215.46126352598
 72
     1
 10
23424.76094552868
 20
39215.46126352598
 11
23384.71025652726
 21
39196.09106684207
 72
     1
 10
23384.71025652726
 20
39196.09106684207
 11
23365.02165810744
 21
39172.90808122567
 72
     1
 10
23365.02165810744
 20
39172.90808122567
 11
23367.74804816389
 21
39142.49388491384
 72
     1
 10
23367.74804816389
 20
39142.49388491384
 11
23354.52025890146
 21
39135.28081345872
 72
     1
 10
23354.52025890146
 20
39135.28081345872
 11
23374.63531555239
 21
39062.55471254813
 72
     1
 10
23374.63531555239
 20
39062.55471254813
 11
23348.53323591537
 21
38988.70771636429
 72
     1
 10
23348.53323591537
 20
38988.70771636429
 11
23357.02520477667
 21
38893.70287069763
 72
     1
 10
23357.02520477667
 20
38893.70287069763
 11
23348.83258489782
 21
38809.27085181014
 72
     1
 10
23348.83258489782
 20
38809.27085181014
 11
23309.53214539
 21
38771.13738637
 72
     1
 10
23309.53214539
 20
38771.13738637
 11
23254.50437855148
 21
38721.76451597439
 72
     1
 10
23254.50437855148
 20
38721.76451597439
 11
23121.26075719082
 21
38708.04937935366
 72
     1
 10
23121.26075719082
 20
38708.04937935366
 11
23074.36321292614
 21
38711.22162154317
 72
     1
 10
23074.36321292614
 20
38711.22162154317
 11
23046.76749773112
 21
38710.47754662659
 72
     1
 10
23046.76749773112
 20
38710.47754662659
 11
23028.66787370038
 21
38700.52135851261
 72
     1
 10
23028.66787370038
 20
38700.52135851261
 11
23009.13747808036
 21
38662.69897138184
 72
     1
 10
23009.13747808036
 20
38662.69897138184
 11
22967.80719488506
 21
38631.70166947819
 72
     1
 10
22967.80719488506
 20
38631.70166947819
 11
22964.44319956506
 21
38607.88630123241
 72
     1
 10
22964.44319956506
 20
38607.88630123241
 11
22900.46525671
 21
38577.64356355001
 72
     1
 10
22900.46525671
 20
38577.64356355001
 11
22892.32386108019
 21
38558.25167530594
 72
     1
 10
22892.32386108019
 20
38558.25167530594
 11
22898.18230033871
 21
38533.58212329766
 72
     1
 10
22898.18230033871
 20
38533.58212329766
 11
22910.75965052311
 21
38520.35772645207
 72
     1
 10
22910.75965052311
 20
38520.35772645207
 11
22871.54734307144
 21
38476.15559470809
 97
        0
 75
     1
 76
     1
 98
        2
 10
0.0
 20
0.0
 10
-2864.122671262914
 20
-3228.490895126539
450
        0
451
        0
460
0.0
461
0.0
452
        0
462
1.0
453
        2
463
0.0
 63
     5
421
      255
463
1.0
 63
     2
421
 16776960
470
LINEAR
1001
GradientColor1ACI
1070
     5
1001
GradientColor2ACI
1070
     2
1001
ACAD
1010
0.0
1020
0.0
1030
0.0
  0
HATCH
  5
2BA
330
1F
100
AcDbEntity
  8
00 Природный ландшафт
440
 33554585
100
AcDbHatch
 10
0.0
 20
0.0
 30
0.0
210
0.0
220
0.0
230
1.0
  2
SOLID
 70
     1
 71
     0
 91
        1
 92
        1
 93
       30
 72
     1
 10
22828.53194822792
 20
38387.54454810151
 11
22836.0037632
 21
38371.73659043001
 72
     1
 10
22836.0037632
 20
38371.73659043001
 11
22857.3108852
 21
38364.99048024
 72
     1
 10
22857.3108852
 20
38364.99048024
 11
22877.70243421
 21
38368.33853883
 72
     1
 10
22877.70243421
 20
38368.33853883
 11
22893.07282586136
 21
38379.78233295639
 72
     1
 10
22893.07282586136
 20
38379.78233295639
 11
22896.72494514316
 21
38377.15808281186
 72
     1
 10
22896.72494514316
 20
38377.15808281186
 11
22934.71770905
 21
38399.9966904
 72
     1
 10
22934.71770905
 20
38399.9966904
 11
22936.79791037
 21
38401.3148834
 72
     1
 10
22936.79791037
 20
38401.3148834
 11
22971.16768002
 21
38422.17934142
 72
     1
 10
22971.16768002
 20
38422.17934142
 11
22990.14320569
 21
38434.93920773
 72
     1
 10
22990.14320569
 20
38434.93920773
 11
22995.68039281629
 21
38438.44372846137
 72
     1
 10
22995.68039281629
 20
38438.44372846137
 11
23008.87013996
 21
38442.56279678
 72
     1
 10
23008.87013996
 20
38442.56279678
 11
23009.67079532
 21
38439.99050661
 72
     1
 10
23009.67079532
 20
38439.99050661
 11
23020.13838679
 21
38443.09039637
 72
     1
 10
23020.13838679
 20
38443.09039637
 11
23032.23471907736
 21
38446.13712130999
 72
     1
 10
23032.23471907736
 20
38446.13712130999
 11
23043.27793921
 21
38448.26643184
 72
     1
 10
23043.27793921
 20
38448.26643184
 11
23050.46570052
 21
38448.76646385
 72
     1
 10
23050.46570052
 20
38448.76646385
 11
23083.63680830666
 21
38439.80606644803
 72
     1
 10
23083.63680830666
 20
38439.80606644803
 11
23088.79931317
 21
38437.19976711002
 72
     1
 10
23088.79931317
 20
38437.19976711002
 11
23131.53620266643
 21
38429.86580875472
 72
     1
 10
23131.53620266643
 20
38429.86580875472
 11
23135.26545119087
 21
38443.23851787851
 72
     1
 10
23135.26545119087
 20
38443.23851787851
 11
23067.41988522
 21
38469.9373826
 72
     1
 10
23067.41988522
 20
38469.9373826
 11
23031.65241645246
 21
38479.41177265134
 72
     1
 10
23031.65241645246
 20
38479.41177265134
 11
23018.33524071283
 21
38479.87529792657
 72
     1
 10
23018.33524071283
 20
38479.87529792657
 11
23009.87790546827
 21
38478.05084581723
 72
     1
 10
23009.87790546827
 20
38478.05084581723
 11
22986.73196799774
 21
38465.69377409804
 72
     1
 10
22986.73196799774
 20
38465.69377409804
 11
22927.45385916084
 21
38422.01356395742
 72
     1
 10
22927.45385916084
 20
38422.01356395742
 11
22918.49518642
 21
38417.49517446
 72
     1
 10
22918.49518642
 20
38417.49517446
 11
22904.11233807
 21
38412.09515154
 72
     1
 10
22904.11233807
 20
38412.09515154
 11
22891.96215110717
 21
38412.21099755168
 72
     1
 10
22891.96215110717
 20
38412.21099755168
 11
22828.53194822792
 21
38387.54454810151
 97
        0
 75
     1
 76
     1
 98
        2
 10
0.0
 20
0.0
 10
-3172.919889731988
 20
-3608.370082622918
450
        0
451
        0
460
0.0
461
0.0
452
        0
462
1.0
453
        2
463
0.0
 63
     5
421
      255
463
1.0
 63
     2
421
 16776960
470
LINEAR
1001
GradientColor1ACI
1070
     5
1001
GradientColor2ACI
1070
     2
1001
ACAD
1010
0.0
1020
0.0
1030
0.0
  0
HATCH
  5
2BB
330
1F
100
AcDbEntity
  8
00 Природный ландшафт
440
 33554585
100
AcDbHatch
 10
0.0
 20
0.0
 30
0.0
210
0.0
220
0.0
230
1.0
  2
SOLID
 70
     1
 71
     0
 91
        1
 92
        1
 93
       50
 72
     1
 10
23395.02052223
 20
38391.88380552
 11
23449.51329432
 21
38418.81043676
 72
     1
 10
23449.51329432
 20
38418.81043676
 11
23461.59889025
 21
38430.27568698
 72
     1
 10
23461.59889025
 20
38430.27568698
 11
23475.7015501
 21
38431.08992238
 72
     1
 10
23475.7015501
 20
38431.08992238
 11
23503.70421334
 21
38431.89148195
 72
     1
 10
23503.70421334
 20
38431.89148195
 11
23531.11371576
 21
38437.06217874
 72
     1
 10
23531.11371576
 20
38437.06217874
 11
23545.16106314
 21
38440.79730119999
 72
     1
 10
23545.16106314
 20
38440.79730119999
 11
23622.766535
 21
38447.78177900001
 72
     1
 10
23622.766535
 20
38447.78177900001
 11
23675.92997396261
 21
38464.57371080278
 72
     1
 10
23675.92997396261
 20
38464.57371080278
 11
23740.503555
 21
38473.730841
 72
     1
 10
23740.503555
 20
38473.730841
 11
23774.189644
 21
38496.2805
 72
     1
 10
23774.189644
 20
38496.2805
 11
23805.28969227833
 21
38500.35629631754
 72
     1
 10
23805.28969227833
 20
38500.35629631754
 11
23833.3259179878
 21
38547.69664983484
 72
     1
 10
23833.3259179878
 20
38547.69664983484
 11
23844.061563
 21
38583.999139
 72
     1
 10
23844.061563
 20
38583.999139
 11
23841.80523172722
 21
38608.63852227219
 72
     1
 10
23841.80523172722
 20
38608.63852227219
 11
23838.9566264547
 21
38631.74105205626
 72
     1
 10
23838.9566264547
 20
38631.74105205626
 11
23824.61163846774
 21
38655.12442131736
 72
     1
 10
23824.61163846774
 20
38655.12442131736
 11
23794.52344628106
 21
38646.75149989629
 72
     1
 10
23794.52344628106
 20
38646.75149989629
 11
23795.34571997847
 21
38615.55955461024
 72
     1
 10
23795.34571997847
 20
38615.55955461024
 11
23776.57329819
 21
38611.96890804
 72
     1
 10
23776.57329819
 20
38611.96890804
 11
23734.32921855278
 21
38614.55883215175
 72
     1
 10
23734.32921855278
 20
38614.55883215175
 11
23728.51281690157
 21
38607.41580626581
 72
     1
 10
23728.51281690157
 20
38607.41580626581
 11
23729.7925315
 21
38590.6791715
 72
     1
 10
23729.7925315
 20
38590.6791715
 11
23750.11663705
 21
38581.49330398002
 72
     1
 10
23750.11663705
 20
38581.49330398002
 11
23733.853363
 21
38545.530552
 72
     1
 10
23733.853363
 20
38545.530552
 11
23708.297997
 21
38530.27193
 72
     1
 10
23708.297997
 20
38530.27193
 11
23686.17253732
 21
38529.65098672
 72
     1
 10
23686.17253732
 20
38529.65098672
 11
23674.50668498591
 21
38512.58455689876
 72
     1
 10
23674.50668498591
 20
38512.58455689876
 11
23634.66359960005
 21
38487.93852842002
 72
     1
 10
23634.66359960005
 20
38487.93852842002
 11
23608.32731109
 21
38487.55148276
 72
     1
 10
23608.32731109
 20
38487.55148276
 11
23598.73625338
 21
38488.79824863
 72
     1
 10
23598.73625338
 20
38488.79824863
 11
23585.20295899
 21
38488.59531266
 72
     1
 10
23585.20295899
 20
38488.59531266
 11
23577.9840239871
 21
38490.12491376582
 72
     1
 10
23577.9840239871
 20
38490.12491376582
 11
23472.00827282748
 21
38462.61277276791
 72
     1
 10
23472.00827282748
 20
38462.61277276791
 11
23462.99701926279
 21
38456.03531166107
 72
     1
 10
23462.99701926279
 20
38456.03531166107
 11
23444.7181003375
 21
38460.30440107123
 72
     1
 10
23444.7181003375
 20
38460.30440107123
 11
23442.57448405
 21
38461.37721484
 72
     1
 10
23442.57448405
 20
38461.37721484
 11
23408.84538312256
 21
38445.13798217251
 72
     1
 10
23408.84538312256
 20
38445.13798217251
 11
23389.43771841
 21
38456.41016015
 72
     1
 10
23389.43771841
 20
38456.41016015
 11
23370.98179047
 21
38434.47222486
 72
     1
 10
23370.98179047
 20
38434.47222486
 11
23338.03058687808
 21
38414.732036567
 72
     1
 10
23338.03058687808
 20
38414.732036567
 11
23295.18023230775
 21
38426.21920851957
 72
     1
 10
23295.18023230775
 20
38426.21920851957
 11
23219.4457580127
 21
38471.61768741677
 72
     1
 10
23219.4457580127
 20
38471.61768741677
 11
23155.48742223359
 21
38482.59623869562
 72
     1
 10
23155.48742223359
 20
38482.59623869562
 11
23141.3849134501
 21
38453.80445068366
 72
     1
 10
23141.3849134501
 20
38453.80445068366
 11
23199.29508488286
 21
38423.08892757127
 72
     1
 10
23199.29508488286
 20
38423.08892757127
 11
23224.26434512
 21
38406.67664397
 72
     1
 10
23224.26434512
 20
38406.67664397
 11
23303.53639629
 21
38370.1332184
 72
     1
 10
23303.53639629
 20
38370.1332184
 11
23337.84157954
 21
38368.4783171
 72
     1
 10
23337.84157954
 20
38368.4783171
 11
23370.25118578
 21
38379.53260372
 72
     1
 10
23370.25118578
 20
38379.53260372
 11
23395.02052223
 21
38391.88380552
 97
        0
 75
     1
 76
     1
 98
        2
 10
0.0
 20
0.0
 10
-2823.585521031775
 20
-3590.316019058002
450
        0
451
        0
460
0.0
461
0.0
452
        0
462
1.0
453
        2
463
0.0
 63
     5
421
      255
463
1.0
 63
     2
421
 16776960
470
LINEAR
1001
GradientColor1ACI
1070
     5
1001
GradientColor2ACI
1070
     2
1001
ACAD
1010
0.0
1020
0.0
1030
0.0
  0
HATCH
  5
2BC
330
1F
100
AcDbEntity
  8
00 Природный ландшафт
440
 33554585
100
AcDbHatch
 10
0.0
 20
0.0
 30
0.0
210
0.0
220
0.0
230
1.0
  2
SOLID
 70
     1
 71
     0
 91
        1
 92
        1
 93
       16
 72
     1
 10
24088.4157994116
 20
38914.42163539546
 11
24105.75691153
 21
38941.30628485
 72
     1
 10
24105.75691153
 20
38941.30628485
 11
24110.38274038
 21
38949.52560590001
 72
     1
 10
24110.38274038
 20
38949.52560590001
 11
24139.43710643806
 21
38999.84427627959
 72
     1
 10
24139.43710643806
 20
38999.84427627959
 11
24158.90534338799
 21
39034.82385042819
 72
     1
 10
24158.90534338799
 20
39034.82385042819
 11
24182.99
 21
39061.92
 72
     1
 10
24182.99
 20
39061.92
 11
24188.0725553
 21
39066.42827487
 72
     1
 10
24188.0725553
 20
39066.42827487
 11
24207.220783982
 21
39055.4942111449
 72
     1
 10
24207.220783982
 20
39055.4942111449
 11
24191.17778495175
 21
39038.65168275658
 72
     1
 10
24191.17778495175
 20
39038.65168275658
 11
24151.72690898343
 21
38985.05034386355
 72
     1
 10
24151.72690898343
 20
38985.05034386355
 11
24133.210017
 21
38942.742002
 72
     1
 10
24133.210017
 20
38942.742002
 11
24138.19504544764
 21
38933.11176616053
 72
     1
 10
24138.19504544764
 20
38933.11176616053
 11
24131.75944423
 21
38922.49816281
 72
     1
 10
24131.75944423
 20
38922.49816281
 11
24122.57766523
 21
38907.35846802
 72
     1
 10
24122.57766523
 20
38907.35846802
 11
24117.0309652931
 21
38886.90263699619
 72
     1
 10
24117.0309652931
 20
38886.90263699619
 11
24102.71181815353
 21
38906.49814214006
 72
     1
 10
24102.71181815353
 20
38906.49814214006
 11
24088.4157994116
 21
38914.42163539546
 97
        0
 75
     1
 76
     1
 98
        3
 10
0.0
 20
0.0
 10
0.0
 20
0.0
 10
-2089.037559311197
 20
-3175.715879768599
450
        0
451
        0
460
0.0
461
0.0
452
        0
462
1.0
453
        2
463
0.0
 63
     5
421
      255
463
1.0
 63
     2
421
 16776960
470
LINEAR
1001
GradientColor1ACI
1070
     5
1001
GradientColor2ACI
1070
     2
1001
ACAD
1010
0.0
1020
0.0
1030
0.0
  0
HATCH
  5
2BD
330
1F
100
AcDbEntity
  8
00 Природный ландшафт
440
 33554585
100
AcDbHatch
 10
0.0
 20
0.0
 30
0.0
210
0.0
220
0.0
230
1.0
  2
SOLID
 70
     1
 71
     0
 91
        1
 92
        1
 93
       48
 72
     1
 10
24037.91977649
 20
39668.87370241
 11
24024.10172050693
 21
39652.43051660847
 72
     1
 10
24024.10172050693
 20
39652.43051660847
 11
24018.68820290543
 21
39653.87079256555
 72
     1
 10
24018.68820290543
 20
39653.87079256555
 11
23973.43589902984
 21
39667.88959379816
 72
     1
 10
23973.43589902984
 20
39667.88959379816
 11
23957.79559533978
 21
39687.06532566788
 72
     1
 10
23957.79559533978
 20
39687.06532566788
 11
23956.07970967122
 21
39710.68864668974
 72
     1
 10
23956.07970967122
 20
39710.68864668974
 11
23979.97313735231
 21
39734.81818888706
 72
     1
 10
23979.97313735231
 20
39734.81818888706
 11
23972.78209776262
 21
39743.02244669521
 72
     1
 10
23972.78209776262
 20
39743.02244669521
 11
23953.73695949281
 21
39727.29440413139
 72
     1
 10
23953.73695949281
 20
39727.29440413139
 11
23942.83796809866
 21
39724.42549216707
 72
     1
 10
23942.83796809866
 20
39724.42549216707
 11
23938.35324341459
 21
39734.36743371406
 72
     1
 10
23938.35324341459
 20
39734.36743371406
 11
23942.60932343456
 21
39742.61467198139
 72
     1
 10
23942.60932343456
 20
39742.61467198139
 11
23954.68280938379
 21
39750.13061048546
 72
     1
 10
23954.68280938379
 20
39750.13061048546
 11
23954.28461975714
 21
39811.50872798294
 72
     1
 10
23954.28461975714
 20
39811.50872798294
 11
23954.15296792077
 21
39849.08092998644
 72
     1
 10
23954.15296792077
 20
39849.08092998644
 11
23949.69699549219
 21
39880.21593807043
 72
     1
 10
23949.69699549219
 20
39880.21593807043
 11
23940.05901272918
 21
39907.69493389983
 72
     1
 10
23940.05901272918
 20
39907.69493389983
 11
23932.4473649797
 21
39949.39969039815
 72
     1
 10
23932.4473649797
 20
39949.39969039815
 11
23948.67227139841
 21
40000.96052777004
 72
     1
 10
23948.67227139841
 20
40000.96052777004
 11
23984.94806946336
 21
40028.61227811425
 72
     1
 10
23984.94806946336
 20
40028.61227811425
 11
24042.32185846654
 21
40058.48844883806
 72
     1
 10
24042.32185846654
 20
40058.48844883806
 11
24121.39628770532
 21
40091.65037892373
 72
     1
 10
24121.39628770532
 20
40091.65037892373
 11
24137.10546898053
 21
40096.12451913265
 72
     1
 10
24137.10546898053
 20
40096.12451913265
 11
24136.76857641
 21
40088.20628165
 72
     1
 10
24136.76857641
 20
40088.20628165
 11
24093.63366879
 21
40065.70615997
 72
     1
 10
24093.63366879
 20
40065.70615997
 11
24071.37476636259
 21
40052.04169080258
 72
     1
 10
24071.37476636259
 20
40052.04169080258
 11
24040.10917636
 21
40038.01497416
 72
     1
 10
24040.10917636
 20
40038.01497416
 11
24011.96398731
 21
40029.20560924
 72
     1
 10
24011.96398731
 20
40029.20560924
 11
23972.06848305
 21
39987.71564682
 72
     1
 10
23972.06848305
 20
39987.71564682
 11
23972.38352294848
 21
39982.89497619163
 72
     1
 10
23972.38352294848
 20
39982.89497619163
 11
23959.11657979
 21
39968.65361748
 72
     1
 10
23959.11657979
 20
39968.65361748
 11
23956.34801514
 21
39964.17592969
 72
     1
 10
23956.34801514
 20
39964.17592969
 11
23957.04884277
 21
39955.73509286
 72
     1
 10
23957.04884277
 20
39955.73509286
 11
23957.99879201
 21
39951.81050285
 72
     1
 10
23957.99879201
 20
39951.81050285
 11
23957.53074452
 21
39944.0975645
 72
     1
 10
23957.53074452
 20
39944.0975645
 11
23958.86958234
 21
39943.36706489
 72
     1
 10
23958.86958234
 20
39943.36706489
 11
23979.53861662
 21
39923.03047296001
 72
     1
 10
23979.53861662
 20
39923.03047296001
 11
23979.12213431
 21
39918.68679
 72
     1
 10
23979.12213431
 20
39918.68679
 11
23979.53879278629
 21
39898.33975778092
 72
     1
 10
23979.53879278629
 20
39898.33975778092
 11
23980.18622398574
 21
39872.75940901471
 72
     1
 10
23980.18622398574
 20
39872.75940901471
 11
23992.48237209
 21
39844.20134825
 72
     1
 10
23992.48237209
 20
39844.20134825
 11
23993.05136120026
 21
39826.49240910167
 72
     1
 10
23993.05136120026
 20
39826.49240910167
 11
23992.69672551
 21
39810.50762766
 72
     1
 10
23992.69672551
 20
39810.50762766
 11
23996.8902401
 21
39808.77342758001
 72
     1
 10
23996.8902401
 20
39808.77342758001
 11
23990.24739014
 21
39749.7843189
 72
     1
 10
23990.24739014
 20
39749.7843189
 11
23989.75154779
 21
39741.56179976
 72
     1
 10
23989.75154779
 20
39741.56179976
 11
23991.31016035488
 21
39736.96086763552
 72
     1
 10
23991.31016035488
 20
39736.96086763552
 11
24027.03444909
 21
39682.91046923
 72
     1
 10
24027.03444909
 20
39682.91046923
 11
24037.91977649
 21
39668.87370241
 97
        0
 75
     1
 76
     1
 98
        2
 10
0.0
 20
0.0
 10
-2311.0317337171
 20
-2612.493725843131
450
        0
451
        0
460
0.0
461
0.0
452
        0
462
1.0
453
        2
463
0.0
 63
     5
421
      255
463
1.0
 63
     2
421
 16776960
470
LINEAR
1001
GradientColor1ACI
1070
     5
1001
GradientColor2ACI
1070
     2
1001
ACAD
1010
0.0
1020
0.0
1030
0.0
  0
HATCH
  5
2BE
330
1F
100
AcDbEntity
  8
00 Природный ландшафт
440
 33554585
100
AcDbHatch
 10
0.0
 20
0.0
 30
0.0
210
0.0
220
0.0
230
1.0
  2
SOLID
 70
     1
 71
     0
 91
        1
 92
        1
 93
       46
 72
     1
 10
24949.76761065389
 20
40120.99288006034
 11
24953.86856702744
 21
40121.04297698767
 72
     1
 10
24953.86856702744
 20
40121.04297698767
 11
24971.46881671291
 21
40115.65280921312
 72
     2
 10
24971.60401272762
 20
40264.39258952912
 40
148.7398417587288
 50
269.9479214040759
 51
278.7346356234777
 73
     1
 72
     1
 10
24994.19139859516
 20
40117.37779256608
 11
25002.33938766494
 21
40120.10279714855
 72
     1
 10
25002.33938766494
 20
40120.10279714855
 11
25006.95890043906
 21
40123.00559668985
 72
     1
 10
25006.95890043906
 20
40123.00559668985
 11
25027.27792697438
 21
40133.61979027302
 72
     2
 10
25019.90102452973
 20
40184.10619343517
 40
51.02250085920919
 50
278.3130372950199
 51
295.9678424011541
 73
     1
 72
     2
 10
25027.36530904435
 20
40150.57328289632
 40
19.32752389184899
 50
320.3286774849246
 51
347.4110005797694
 73
     1
 72
     2
 10
25088.30277841382
 20
40138.74897620331
 40
42.75758794880385
 50
190.2545247229778
 51
201.2845171941576
 73
     0
 72
     2
 10
25051.3160831477
 20
40154.85806928094
 40
2.914327334889304
 50
168.3577438408037
 51
283.305648017238
 73
     0
 72
     1
 10
25051.9868029608
 20
40157.69416496818
 11
25059.38858355096
 21
40158.17426304725
 72
     1
 10
25059.38858355096
 20
40158.17426304725
 11
25046.26905306035
 21
40172.24058462661
 72
     1
 10
25046.26905306035
 20
40172.24058462661
 11
25051.60245187888
 21
40172.68257499264
 72
     1
 10
25051.60245187888
 20
40172.68257499264
 11
25057.75324146978
 21
40191.41644989177
 72
     1
 10
25057.75324146978
 20
40191.41644989177
 11
25060.78216365726
 21
40202.41551684983
 72
     1
 10
25060.78216365726
 20
40202.41551684983
 11
25069.93505455908
 21
40219.09148608371
 72
     1
 10
25069.93505455908
 20
40219.09148608371
 11
25077.1191464518
 21
40224.73503571716
 72
     1
 10
25077.1191464518
 20
40224.73503571716
 11
25075.37451386539
 21
40234.02320250258
 72
     1
 10
25075.37451386539
 20
40234.02320250258
 11
25062.37526296478
 21
40242.58679574603
 72
     1
 10
25062.37526296478
 20
40242.58679574603
 11
24993.38392103958
 21
40289.24565703492
 72
     1
 10
24993.38392103958
 20
40289.24565703492
 11
24949.25838642469
 21
40307.09739885397
 72
     1
 10
24949.25838642469
 20
40307.09739885397
 11
24909.33618557716
 21
40311.91453562668
 72
     1
 10
24909.33618557716
 20
40311.91453562668
 11
24908.71897269547
 21
40319.80587216052
 72
     1
 10
24908.71897269547
 20
40319.80587216052
 11
24954.71520917608
 21
40320.31052363176
 72
     1
 10
24954.71520917608
 20
40320.31052363176
 11
24955.65186938951
 21
40323.97698453839
 72
     1
 10
24955.65186938951
 20
40323.97698453839
 11
24965.55226512509
 21
40322.3497770724
 72
     1
 10
24965.55226512509
 20
40322.3497770724
 11
25005.00734952313
 21
40303.411991538
 72
     1
 10
25005.00734952313
 20
40303.411991538
 11
25059.0560493253
 21
40264.27214773396
 72
     1
 10
25059.0560493253
 20
40264.27214773396
 11
25115.23208885171
 21
40223.01014599101
 72
     2
 10
24994.24749435886
 20
40142.38899642519
 40
145.3858379001002
 50
326.3214901188812
 51
345.2848597585806
 73
     0
 72
     1
 10
25134.86477334326
 20
40179.31896681425
 11
25140.00336518496
 21
40152.30754645896
 72
     2
 10
25049.62043766214
 20
40144.00843514459
 40
90.76314690558239
 50
354.7537170431047
 51
377.8515608610439
 73
     0
 72
     1
 10
25136.01369392504
 20
40116.18481013818
 11
25122.34310060702
 21
40097.90566398458
 72
     1
 10
25122.34310060702
 20
40097.90566398458
 11
25103.15122257706
 21
40076.91105490084
 72
     1
 10
25103.15122257706
 20
40076.91105490084
 11
25060.50399186829
 21
40038.00261975464
 72
     1
 10
25060.50399186829
 20
40038.00261975464
 11
24999.99
 21
39980.67
 72
     1
 10
24999.99
 20
39980.67
 11
24992.24958291123
 21
40000.02425937619
 72
     1
 10
24992.24958291123
 20
40000.02425937619
 11
24993.91249932733
 21
40017.61853732797
 72
     1
 10
24993.91249932733
 20
40017.61853732797
 11
24984.63043963989
 21
40031.43725708645
 72
     1
 10
24984.63043963989
 20
40031.43725708645
 11
24975.75499410473
 21
40054.53038591789
 72
     1
 10
24975.75499410473
 20
40054.53038591789
 11
24972.13302296457
 21
40059.58956342232
 72
     1
 10
24972.13302296457
 20
40059.58956342232
 11
24969.27401652101
 21
40060.80047709221
 72
     1
 10
24969.27401652101
 20
40060.80047709221
 11
24955.72375982791
 21
40059.38989594006
 72
     1
 10
24955.72375982791
 20
40059.38989594006
 11
24941.13609757284
 21
40060.95576604388
 72
     1
 10
24941.13609757284
 20
40060.95576604388
 11
24936.93227941072
 21
40062.97634130627
 72
     1
 10
24936.93227941072
 20
40062.97634130627
 11
24949.76761065389
 21
40120.99288006034
 97
        0
 75
     1
 76
     1
 98
        1
 10
710.4634251868883
 20
-27.58486410118349
450
        0
451
        0
460
0.0
461
0.0
452
        0
462
1.0
453
        2
463
0.0
 63
     5
421
      255
463
1.0
 63
     2
421
 16776960
470
LINEAR
1001
GradientColor1ACI
1070
     5
1001
GradientColor2ACI
1070
     2
1001
ACAD
1010
0.0
1020
0.0
1030
0.0
  0
HATCH
  5
2BF
330
1F
100
AcDbEntity
  8
00 Природный ландшафт
440
 33554585
100
AcDbHatch
 10
0.0
 20
0.0
 30
0.0
210
0.0
220
0.0
230
1.0
  2
SOLID
 70
     1
 71
     0
 91
        1
 92
        1
 93
       19
 72
     1
 10
24812.42176504
 20
39946.10403563
 11
24670.63872924
 21
39962.34412125
 72
     1
 10
24670.63872924
 20
39962.34412125
 11
24669.60819071
 21
39964.26991487
 72
     1
 10
24669.60819071
 20
39964.26991487
 11
24669.72296974001
 21
39992.67848023001
 72
     1
 10
24669.72296974001
 20
39992.67848023001
 11
24684.45635346
 21
40003.3431137
 72
     1
 10
24684.45635346
 20
40003.3431137
 11
24706.21922994
 21
40021.81025083999
 72
     1
 10
24706.21922994
 20
40021.81025083999
 11
24725.33115914
 21
40046.09802283
 72
     1
 10
24725.33115914
 20
40046.09802283
 11
24717.58597696791
 21
40052.61461034176
 72
     1
 10
24717.58597696791
 20
40052.61461034176
 11
24725.92240881654
 21
40059.77740951484
 72
     1
 10
24725.92240881654
 20
40059.77740951484
 11
24735.63566091508
 21
40069.57754551851
 72
     1
 10
24735.63566091508
 20
40069.57754551851
 11
24739.30579988353
 21
40075.3839048966
 72
     1
 10
24739.30579988353
 20
40075.3839048966
 11
24744.24169520232
 21
40078.15182607854
 72
     1
 10
24744.24169520232
 20
40078.15182607854
 11
24752.66915388108
 21
40072.95085528507
 72
     1
 10
24752.66915388108
 20
40072.95085528507
 11
24758.49456778945
 21
40066.58961247547
 72
     1
 10
24758.49456778945
 20
40066.58961247547
 11
24763.64015893898
 21
40070.88744887786
 72
     1
 10
24763.64015893898
 20
40070.88744887786
 11
24780.18056985393
 21
40034.43952091894
 72
     1
 10
24780.18056985393
 20
40034.43952091894
 11
24788.98482429308
 21
39997.1994834783
 72
     1
 10
24788.98482429308
 20
39997.1994834783
 11
24803.88424236887
 21
39974.90186503242
 72
     1
 10
24803.88424236887
 20
39974.90186503242
 11
24818.78564567
 21
39948.96667168
 72
     1
 10
24818.78564567
 20
39948.96667168
 11
24812.42176504
 21
39946.10403563
 97
        0
 75
     1
 76
     1
 98
        2
 10
0.0
 20
0.0
 10
132.4174977330767
 20
146.8100273667951
450
        0
451
        0
460
0.0
461
0.0
452
        0
462
1.0
453
        2
463
0.0
 63
     5
421
      255
463
1.0
 63
     2
421
 16776960
470
LINEAR
1001
GradientColor1ACI
1070
     5
1001
GradientColor2ACI
1070
     2
1001
ACAD
1010
0.0
1020
0.0
1030
0.0
  0
HATCH
  5
2C0
330
1F
100
AcDbEntity
  8
00 Природный ландшафт
440
 33554585
100
AcDbHatch
 10
0.0
 20
0.0
 30
0.0
210
0.0
220
0.0
230
1.0
  2
SOLID
 70
     1
 71
     0
 91
        2
 92
        1
 93
       25
 72
     1
 10
24334.42960555
 20
40351.42435203
 11
24340.90573587
 21
40426.95615451
 72
     1
 10
24340.90573587
 20
40426.95615451
 11
24343.01547034
 21
40430.20390343
 72
     1
 10
24343.01547034
 20
40430.20390343
 11
24347.73686522
 21
40447.93185588
 72
     1
 10
24347.73686522
 20
40447.93185588
 11
24346.76304596
 21
40465.97698094999
 72
     1
 10
24346.76304596
 20
40465.97698094999
 11
24342.69851118928
 21
40473.87049524415
 72
     1
 10
24342.69851118928
 20
40473.87049524415
 11
24340.84853722
 21
40493.12783825
 72
     1
 10
24340.84853722
 20
40493.12783825
 11
24342.27005478
 21
40516.74636933999
 72
     1
 10
24342.27005478
 20
40516.74636933999
 11
24348.9485699
 21
40536.24438705999
 72
     1
 10
24348.9485699
 20
40536.24438705999
 11
24353.30250039
 21
40546.29786890999
 72
     1
 10
24353.30250039
 20
40546.29786890999
 11
24372.00559095
 21
40571.31190510999
 72
     1
 10
24372.00559095
 20
40571.31190510999
 11
24384.33076173
 21
40586.0134346
 72
     1
 10
24384.33076173
 20
40586.0134346
 11
24407.10851141
 21
40626.35528473
 72
     1
 10
24407.10851141
 20
40626.35528473
 11
24410.68098429068
 21
40635.2961898499
 72
     1
 10
24410.68098429068
 20
40635.2961898499
 11
24416.071983
 21
40648.78835888
 72
     1
 10
24416.071983
 20
40648.78835888
 11
24411.88169801
 21
40680.13287369
 72
     1
 10
24411.88169801
 20
40680.13287369
 11
24386.99405101479
 21
40692.02329186504
 72
     1
 10
24386.99405101479
 20
40692.02329186504
 11
24376.4745754298
 21
40664.68716045291
 72
     1
 10
24376.4745754298
 20
40664.68716045291
 11
24389.09093604437
 21
40654.7755433906
 72
     1
 10
24389.09093604437
 20
40654.7755433906
 11
24384.28656403149
 21
40635.8914027512
 72
     1
 10
24384.28656403149
 20
40635.8914027512
 11
24351.02607379421
 21
40578.12581440225
 72
     1
 10
24351.02607379421
 20
40578.12581440225
 11
24336.5949158051
 21
40560.11093717809
 72
     1
 10
24336.5949158051
 20
40560.11093717809
 11
24316.52587747976
 21
40474.0434620436
 72
     1
 10
24316.52587747976
 20
40474.0434620436
 11
24330.84518424172
 21
40448.90182083275
 72
     1
 10
24330.84518424172
 20
40448.90182083275
 11
24328.26039647891
 21
40351.72969699205
 72
     1
 10
24328.26039647891
 20
40351.72969699205
 11
24334.42960555
 21
40351.42435203
 97
        0
 92
        1
 93
       17
 72
     1
 10
24498.9513252
 20
40804.17163196999
 11
24502.9524351
 21
40819.92057494
 72
     1
 10
24502.9524351
 20
40819.92057494
 11
24505.5107
 21
40830.91154649
 72
     1
 10
24505.5107
 20
40830.91154649
 11
24506.66636612
 21
40837.81393869
 72
     1
 10
24506.66636612
 20
40837.81393869
 11
24503.43882848
 21
40851.04349795
 72
     1
 10
24503.43882848
 20
40851.04349795
 11
24496.06671369
 21
40877.69665634
 72
     1
 10
24496.06671369
 20
40877.69665634
 11
24487.45350075
 21
40906.2388355
 72
     1
 10
24487.45350075
 20
40906.2388355
 11
24476.7944595
 21
40924.60221012999
 72
     1
 10
24476.7944595
 20
40924.60221012999
 11
24461.52353988
 21
40946.76622481999
 72
     1
 10
24461.52353988
 20
40946.76622481999
 11
24444.09549927
 21
40969.7732704
 72
     1
 10
24444.09549927
 20
40969.7732704
 11
24436.9319377
 21
40968.89291237999
 72
     1
 10
24436.9319377
 20
40968.89291237999
 11
24443.679016
 21
40960.414807
 72
     1
 10
24443.679016
 20
40960.414807
 11
24465.357404
 21
40917.383911
 72
     1
 10
24465.357404
 20
40917.383911
 11
24481.27022673415
 21
40881.92401746583
 72
     1
 10
24481.27022673415
 20
40881.92401746583
 11
24482.90390250231
 21
40869.46998343864
 72
     1
 10
24482.90390250231
 20
40869.46998343864
 11
24478.642721
 21
40829.54364299999
 72
     1
 10
24478.642721
 20
40829.54364299999
 11
24476.245056
 21
40813.911987
 72
     1
 10
24476.245056
 20
40813.911987
 11
24498.9513252
 21
40804.17163196999
 97
        0
 75
     1
 76
     1
 98
        2
 10
0.0
 20
0.0
 10
24.56991486750485
 20
384.1189943085337
450
        0
451
        0
460
0.0
461
0.0
452
        0
462
1.0
453
        2
463
0.0
 63
     5
421
      255
463
1.0
 63
     2
421
 16776960
470
LINEAR
1001
GradientColor1ACI
1070
     5
1001
GradientColor2ACI
1070
     2
1001
ACAD
1010
0.0
1020
0.0
1030
0.0
  0
HATCH
  5
2C1
330
1F
100
AcDbEntity
  8
00 Природный ландшафт
100
AcDbHatch
 10
0.0
 20
0.0
 30
0.0
210
0.0
220
0.0
230
1.0
  2
SOLID
 70
     1
 71
     0
 91
        1
 92
        1
 93
       39
 72
     1
 10
25561.3874715164
 20
42427.57283284777
 11
25545.14133427496
 21
42409.83302811696
 72
     1
 10
25545.14133427496
 20
42409.83302811696
 11
25547.86455887346
 21
42407.69298487694
 72
     1
 10
25547.86455887346
 20
42407.69298487694
 11
25530.45674068129
 21
42385.7520366629
 72
     1
 10
25530.45674068129
 20
42385.7520366629
 11
25526.67968695815
 21
42373.75487503522
 72
     1
 10
25526.67968695815
 20
42373.75487503522
 11
25508.52409090743
 21
42348.59260544102
 72
     1
 10
25508.52409090743
 20
42348.59260544102
 11
25475.1079397999
 21
42315.75549923466
 72
     1
 10
25475.1079397999
 20
42315.75549923466
 11
25455.53463817702
 21
42288.15921531739
 72
     1
 10
25455.53463817702
 20
42288.15921531739
 11
25422.74083100728
 21
42242.71790180795
 72
     1
 10
25422.74083100728
 20
42242.71790180795
 11
25413.3806061344
 21
42223.52430676409
 72
     1
 10
25413.3806061344
 20
42223.52430676409
 11
25390.66677235219
 21
42202.22992550365
 72
     1
 10
25390.66677235219
 20
42202.22992550365
 11
25377.26916730505
 21
42189.33263064091
 72
     1
 10
25377.26916730505
 20
42189.33263064091
 11
25367.25677747068
 21
42177.7310897961
 72
     1
 10
25367.25677747068
 20
42177.7310897961
 11
25368.03672480787
 21
42176.27008289499
 72
     1
 10
25368.03672480787
 20
42176.27008289499
 11
25373.83794468722
 21
42178.60947175444
 72
     1
 10
25373.83794468722
 20
42178.60947175444
 11
25381.46575418403
 21
42185.63364820712
 72
     1
 10
25381.46575418403
 20
42185.63364820712
 11
25393.60659426575
 21
42196.2016532867
 72
     1
 10
25393.60659426575
 20
42196.2016532867
 11
25399.48796303446
 21
42198.75540931102
 72
     1
 10
25399.48796303446
 20
42198.75540931102
 11
25402.27517302087
 21
42196.39665557743
 72
     1
 10
25402.27517302087
 20
42196.39665557743
 11
25405.35657143
 21
42192.66092027
 72
     1
 10
25405.35657143
 20
42192.66092027
 11
25431.04446680576
 21
42203.70592820912
 72
     1
 10
25431.04446680576
 20
42203.70592820912
 11
25429.53046271
 21
42213.80101498
 72
     1
 10
25429.53046271
 20
42213.80101498
 11
25430.96330135
 21
42225.08918562
 72
     1
 10
25430.96330135
 20
42225.08918562
 11
25432.4270292585
 21
42229.9278526958
 72
     1
 10
25432.4270292585
 20
42229.9278526958
 11
25450.48072521936
 21
42254.70464056366
 72
     1
 10
25450.48072521936
 20
42254.70464056366
 11
25467.16835870151
 21
42277.72950319186
 72
     1
 10
25467.16835870151
 20
42277.72950319186
 11
25523.25846869219
 21
42354.88487948614
 72
     1
 10
25523.25846869219
 20
42354.88487948614
 11
25559.06137143
 21
42404.49962195
 72
     1
 10
25559.06137143
 20
42404.49962195
 11
25581.41437788592
 21
42425.43018556413
 72
     1
 10
25581.41437788592
 20
42425.43018556413
 11
25593.90841296698
 21
42437.98394731383
 72
     1
 10
25593.90841296698
 20
42437.98394731383
 11
25613.35666240046
 21
42457.75731980538
 72
     1
 10
25613.35666240046
 20
42457.75731980538
 11
25649.23388270695
 21
42496.55227487087
 72
     1
 10
25649.23388270695
 20
42496.55227487087
 11
25678.77053697
 21
42530.42790794998
 72
     1
 10
25678.77053697
 20
42530.42790794998
 11
25666.35800386138
 21
42541.99826318651
 72
     1
 10
25666.35800386138
 20
42541.99826318651
 11
25625.33741989621
 21
42494.38780356094
 72
     1
 10
25625.33741989621
 20
42494.38780356094
 11
25626.72839067507
 21
42490.0529559401
 72
     1
 10
25626.72839067507
 20
42490.0529559401
 11
25617.73594543191
 21
42478.79428835394
 72
     1
 10
25617.73594543191
 20
42478.79428835394
 11
25611.35675523253
 21
42480.50149642046
 72
     1
 10
25611.35675523253
 20
42480.50149642046
 11
25597.92227712707
 21
42462.80409722275
 72
     1
 10
25597.92227712707
 20
42462.80409722275
 11
25561.3874715164
 21
42427.57283284777
 97
        0
 75
     1
 76
     1
 98
        1
 10
25624.25896254042
 20
42479.30334111046
450
        0
451
        0
460
0.0
461
0.0
452
        0
462
1.0
453
        2
463
0.0
 63
     5
421
      255
463
1.0
 63
     2
421
 16776960
470
LINEAR
1001
GradientColor1ACI
1070
     5
1001
GradientColor2ACI
1070
     2
1001
ACAD
1010
0.0
1020
0.0
1030
0.0
  0
HATCH
  5
2C2
330
1F
100
AcDbEntity
  8
00 Природный ландшафт
440
 33554585
100
AcDbHatch
 10
0.0
 20
0.0
 30
0.0
210
0.0
220
0.0
230
1.0
  2
SOLID
 70
     1
 71
     0
 91
        1
 92
        1
 93
       11
 72
     1
 10
25874.68055632
 20
42329.80662097999
 11
25900.37842232
 21
42329.65317021998
 72
     1
 10
25900.37842232
 20
42329.65317021998
 11
25906.21629801562
 21
42330.23237314784
 72
     1
 10
25906.21629801562
 20
42330.23237314784
 11
25907.82255666693
 21
42345.62095488113
 72
     1
 10
25907.82255666693
 20
42345.62095488113
 11
25903.5655098
 21
42373.87474298
 72
     1
 10
25903.5655098
 20
42373.87474298
 11
25899.02062323
 21
42374.86433664998
 72
     1
 10
25899.02062323
 20
42374.86433664998
 11
25883.23885180294
 21
42391.4573320176
 72
     1
 10
25883.23885180294
 20
42391.4573320176
 11
25864.03715215
 21
42375.30996200998
 72
     1
 10
25864.03715215
 20
42375.30996200998
 11
25863.47275472
 21
42367.83854021
 72
     1
 10
25863.47275472
 20
42367.83854021
 11
25869.51902542
 21
42364.32593805
 72
     1
 10
25869.51902542
 20
42364.32593805
 11
25862.62471666486
 21
42337.08576164635
 72
     1
 10
25862.62471666486
 20
42337.08576164635
 11
25874.68055632
 21
42329.80662097999
 97
        0
 75
     1
 76
     1
 98
        1
 10
0.0
 20
0.0
450
        0
451
        0
460
0.0
461
0.0
452
        0
462
0.0
453
        2
463
0.0
 63
     5
421
      255
463
1.0
 63
     2
421
 16776960
470
LINEAR
1001
GradientColor1ACI
1070
     5
1001
GradientColor2ACI
1070
     2
1001
ACAD
1010
0.0
1020
0.0
1030
0.0
  0
HATCH
  5
2C3
330
1F
100
AcDbEntity
  8
00 Природный ландшафт
440
 33554585
100
AcDbHatch
 10
0.0
 20
0.0
 30
0.0
210
0.0
220
0.0
230
1.0
  2
SOLID
 70
     1
 71
     0
 91
        1
 92
        1
 93
        4
 72
     1
 10
21946.91313272155
 20
37792.42821348533
 11
21932.91313272155
 21
37792.42821348533
 72
     1
 10
21932.91313272155
 20
37792.42821348533
 11
21932.91313272155
 21
37786.48611362432
 72
     1
 10
21932.91313272155
 20
37786.48611362432
 11
21946.91313272155
 21
37786.48611362432
 72
     1
 10
21946.91313272155
 20
37786.48611362432
 11
21946.91313272155
 21
37792.42821348533
 97
        0
 75
     1
 76
     1
 98
        1
 10
21940.56601149539
 20
37790.45401624026
450
        0
451
        0
460
0.0
461
0.0
452
        0
462
1.0
453
        2
463
0.0
 63
     5
421
      255
463
1.0
 63
     2
421
 16776960
470
LINEAR
1001
GradientColor1ACI
1070
     5
1001
GradientColor2ACI
1070
     2
1001
ACAD
1010
0.0
1020
0.0
1030
0.0
  0
HATCH
  5
2C4
330
1F
100
AcDbEntity
  8
00 Природный ландшафт
440
 33554585
100
AcDbHatch
 10
0.0
 20
0.0
 30
0.0
210
0.0
220
0.0
230
1.0
  2
SOLID
 70
     1
 71
     0
 91
        1
 92
        1
 93
       75
 72
     1
 10
28897.20360439
 20
42732.07993924
 11
28899.32250368
 21
42750.9475078
 72
     1
 10
28899.32250368
 20
42750.9475078
 11
28928.09364759001
 21
42813.71700517
 72
     1
 10
28928.09364759001
 20
42813.71700517
 11
28942.5589213
 21
42827.77552008
 72
     1
 10
28942.5589213
 20
42827.77552008
 11
28938.08217872964
 21
42837.809522267
 72
     1
 10
28938.08217872964
 20
42837.809522267
 11
28900.06099056
 21
42826.60625174
 72
     1
 10
28900.06099056
 20
42826.60625174
 11
28842.53718343
 21
42774.76701846
 72
     1
 10
28842.53718343
 20
42774.76701846
 11
28801.39074258575
 21
42790.33004563679
 72
     1
 10
28801.39074258575
 20
42790.33004563679
 11
28734.30399040165
 21
42796.87868298338
 72
     1
 10
28734.30399040165
 20
42796.87868298338
 11
28702.60635117
 21
42780.59963934
 72
     1
 10
28702.60635117
 20
42780.59963934
 11
28672.59738516
 21
42792.16769359
 72
     1
 10
28672.59738516
 20
42792.16769359
 11
28656.72183198
 21
42795.98224127
 72
     1
 10
28656.72183198
 20
42795.98224127
 11
28636.47233557
 21
42799.28230594999
 72
     1
 10
28636.47233557
 20
42799.28230594999
 11
28631.27361329244
 21
42801.40972635159
 72
     1
 10
28631.27361329244
 20
42801.40972635159
 11
28630.35631558
 21
42817.17597907998
 72
     1
 10
28630.35631558
 20
42817.17597907998
 11
28636.34679172
 21
42823.08426065998
 72
     1
 10
28636.34679172
 20
42823.08426065998
 11
28647.8454703233
 21
42848.50093817119
 72
     1
 10
28647.8454703233
 20
42848.50093817119
 11
28655.12156687
 21
42859.96682858
 72
     1
 10
28655.12156687
 20
42859.96682858
 11
28665.24172863
 21
42871.73188222
 72
     1
 10
28665.24172863
 20
42871.73188222
 11
28686.58712993
 21
42891.67506201
 72
     1
 10
28686.58712993
 20
42891.67506201
 11
28693.3177832862
 21
42890.81793809916
 72
     1
 10
28693.3177832862
 20
42890.81793809916
 11
28692.00594185
 21
42888.01644355999
 72
     1
 10
28692.00594185
 20
42888.01644355999
 11
28690.22831086
 21
42882.78011168999
 72
     1
 10
28690.22831086
 20
42882.78011168999
 11
28680.8029115
 21
42848.97819802
 72
     1
 10
28680.8029115
 20
42848.97819802
 11
28668.20946594923
 21
42824.41906199667
 72
     1
 10
28668.20946594923
 20
42824.41906199667
 11
28698.9289637751
 21
42809.77578217957
 72
     1
 10
28698.9289637751
 20
42809.77578217957
 11
28714.25536973745
 21
42841.62729158905
 72
     1
 10
28714.25536973745
 20
42841.62729158905
 11
28738.39118302819
 21
42869.34741100396
 72
     1
 10
28738.39118302819
 20
42869.34741100396
 11
28742.30232744
 21
42871.1119147
 72
     1
 10
28742.30232744
 20
42871.1119147
 11
28760.03267461102
 21
42842.15422356294
 72
     1
 10
28760.03267461102
 20
42842.15422356294
 11
28828.33155687
 21
42841.01459184
 72
     1
 10
28828.33155687
 20
42841.01459184
 11
28813.82081218
 21
42823.98676673
 72
     1
 10
28813.82081218
 20
42823.98676673
 11
28817.36184636
 21
42819.48254209
 72
     1
 10
28817.36184636
 20
42819.48254209
 11
28837.65789545
 21
42806.16175633999
 72
     1
 10
28837.65789545
 20
42806.16175633999
 11
28853.20599329
 21
42822.36369632999
 72
     1
 10
28853.20599329
 20
42822.36369632999
 11
28852.90854787
 21
42828.4082557
 72
     1
 10
28852.90854787
 20
42828.4082557
 11
28879.17769773
 21
42850.55603634999
 72
     1
 10
28879.17769773
 20
42850.55603634999
 11
28918.42367389
 21
42891.4351221
 72
     1
 10
28918.42367389
 20
42891.4351221
 11
28932.89394219
 21
42896.02355233999
 72
     1
 10
28932.89394219
 20
42896.02355233999
 11
28988.44828411
 21
42893.69288785
 72
     1
 10
28988.44828411
 20
42893.69288785
 11
28994.37343482
 21
42894.68216077
 72
     1
 10
28994.37343482
 20
42894.68216077
 11
29007.52472916
 21
42908.48079025
 72
     1
 10
29007.52472916
 20
42908.48079025
 11
29027.59190962
 21
42931.15352356999
 72
     1
 10
29027.59190962
 20
42931.15352356999
 11
29048.00041613
 21
42966.32103197
 72
     1
 10
29048.00041613
 20
42966.32103197
 11
29061.15806314
 21
42992.28956332
 72
     1
 10
29061.15806314
 20
42992.28956332
 11
29042.76514628
 21
43011.69121184
 72
     1
 10
29042.76514628
 20
43011.69121184
 11
29002.65550117
 21
43011.71539391
 72
     1
 10
29002.65550117
 20
43011.71539391
 11
28970.10054998
 21
43009.43389286
 72
     1
 10
28970.10054998
 20
43009.43389286
 11
28923.74495744
 21
43001.23371071
 72
     1
 10
28923.74495744
 20
43001.23371071
 11
28893.81928799
 21
42991.72194199999
 72
     1
 10
28893.81928799
 20
42991.72194199999
 11
28864.20843961
 21
42933.54531278
 72
     1
 10
28864.20843961
 20
42933.54531278
 11
28849.30620768958
 21
42932.26235484489
 72
     1
 10
28849.30620768958
 20
42932.26235484489
 11
28851.7768364
 21
43011.15573364
 72
     1
 10
28851.7768364
 20
43011.15573364
 11
29010.46431494
 21
43086.08585195
 72
     1
 10
29010.46431494
 20
43086.08585195
 11
29010.84576249
 21
43094.67001454
 72
     1
 10
29010.84576249
 20
43094.67001454
 11
29076.20374218
 21
43088.65919985
 72
     1
 10
29076.20374218
 20
43088.65919985
 11
29125.12881436
 21
43065.480018
 72
     1
 10
29125.12881436
 20
43065.480018
 11
29145.65535438
 21
43037.82569878999
 72
     1
 10
29145.65535438
 20
43037.82569878999
 11
29158.92342749
 21
42999.82252805
 72
     1
 10
29158.92342749
 20
42999.82252805
 11
29155.02777137
 21
42977.90217958
 72
     1
 10
29155.02777137
 20
42977.90217958
 11
29151.07876296
 21
42964.25264808
 72
     1
 10
29151.07876296
 20
42964.25264808
 11
29132.37116197
 21
42940.89910528
 72
     1
 10
29132.37116197
 20
42940.89910528
 11
29125.92107319
 21
42946.11787224
 72
     1
 10
29125.92107319
 20
42946.11787224
 11
29115.22869893
 21
42932.90159647
 72
     1
 10
29115.22869893
 20
42932.90159647
 11
29120.0815409
 21
42924.59728684
 72
     1
 10
29120.0815409
 20
42924.59728684
 11
29076.58045699998
 21
42823.06964292377
 72
     1
 10
29076.58045699998
 20
42823.06964292377
 11
29061.90685506
 21
42825.67805154998
 72
     1
 10
29061.90685506
 20
42825.67805154998
 11
29040.67122827
 21
42802.45320615
 72
     1
 10
29040.67122827
 20
42802.45320615
 11
28996.96564408635
 21
42793.05200940307
 72
     1
 10
28996.96564408635
 20
42793.05200940307
 11
28962.72154661
 21
42783.53676484
 72
     1
 10
28962.72154661
 20
42783.53676484
 11
28936.64347901
 21
42769.2960635
 72
     1
 10
28936.64347901
 20
42769.2960635
 11
28924.68189603
 21
42762.00921415
 72
     1
 10
28924.68189603
 20
42762.00921415
 11
28921.0286764
 21
42754.61514735998
 72
     1
 10
28921.0286764
 20
42754.61514735998
 11
28918.72649642
 21
42743.37039104
 72
     1
 10
28918.72649642
 20
42743.37039104
 11
28914.14530898
 21
42732.19053046
 72
     1
 10
28914.14530898
 20
42732.19053046
 11
28897.20360439
 21
42732.07993924
 97
        0
 75
     1
 76
     1
 98
        2
 10
0.0
 20
0.0
 10
29038.58788216895
 20
42943.18096467121
450
        0
451
        0
460
0.0
461
0.0
452
        0
462
1.0
453
        2
463
0.0
 63
     5
421
      255
463
1.0
 63
     2
421
 16776960
470
LINEAR
1001
GradientColor1ACI
1070
     5
1001
GradientColor2ACI
1070
     2
1001
ACAD
1010
0.0
1020
0.0
1030
0.0
  0
HATCH
  5
2C5
330
1F
100
AcDbEntity
  8
00 Природный ландшафт
440
 33554585
100
AcDbHatch
 10
0.0
 20
0.0
 30
0.0
210
0.0
220
0.0
230
1.0
  2
SOLID
 70
     1
 71
     0
 91
        1
 92
        1
 93
       11
 72
     1
 10
25874.68055632
 20
42329.80662097999
 11
25900.37842232
 21
42329.65317021998
 72
     1
 10
25900.37842232
 20
42329.65317021998
 11
25906.21629801562
 21
42330.23237314784
 72
     1
 10
25906.21629801562
 20
42330.23237314784
 11
25907.82255666693
 21
42345.62095488113
 72
     1
 10
25907.82255666693
 20
42345.62095488113
 11
25903.5655098
 21
42373.87474298
 72
     1
 10
25903.5655098
 20
42373.87474298
 11
25899.02062323
 21
42374.86433664998
 72
     1
 10
25899.02062323
 20
42374.86433664998
 11
25883.23885180294
 21
42391.4573320176
 72
     1
 10
25883.23885180294
 20
42391.4573320176
 11
25864.03715215
 21
42375.30996200998
 72
     1
 10
25864.03715215
 20
42375.30996200998
 11
25863.47275472
 21
42367.83854021
 72
     1
 10
25863.47275472
 20
42367.83854021
 11
25869.51902542
 21
42364.32593805
 72
     1
 10
25869.51902542
 20
42364.32593805
 11
25862.62471666486
 21
42337.08576164635
 72
     1
 10
25862.62471666486
 20
42337.08576164635
 11
25874.68055632
 21
42329.80662097999
 97
        0
 75
     1
 76
     1
 98
        1
 10
0.0
 20
0.0
450
        0
451
        0
460
0.0
461
0.0
452
        0
462
0.0
453
        2
463
0.0
 63
     5
421
      255
463
1.0
 63
     2
421
 16776960
470
LINEAR
1001
GradientColor1ACI
1070
     5
1001
GradientColor2ACI
1070
     2
1001
ACAD
1010
0.0
1020
0.0
1030
0.0
  0
HATCH
  5
2C6
330
1F
100
AcDbEntity
  8
00 Природный ландшафт
440
 33554585
100
AcDbHatch
 10
0.0
 20
0.0
 30
0.0
210
0.0
220
0.0
230
1.0
  2
SOLID
 70
     1
 71
     0
 91
        1
 92
        1
 93
       32
 72
     1
 10
27005.60859384
 20
42706.01347806
 11
27044.11720961549
 21
42693.18558459204
 72
     1
 10
27044.11720961549
 20
42693.18558459204
 11
27071.78550358047
 21
42685.48158319297
 72
     1
 10
27071.78550358047
 20
42685.48158319297
 11
27070.09974824827
 21
42678.85828444486
 72
     1
 10
27070.09974824827
 20
42678.85828444486
 11
27087.71892975783
 21
42681.32861687548
 72
     1
 10
27087.71892975783
 20
42681.32861687548
 11
27086.6082377899
 21
42688.78808977894
 72
     1
 10
27086.6082377899
 20
42688.78808977894
 11
27087.81964811353
 21
42703.89723892716
 72
     1
 10
27087.81964811353
 20
42703.89723892716
 11
27095.63509275902
 21
42723.82501327159
 72
     1
 10
27095.63509275902
 20
42723.82501327159
 11
27101.49343844058
 21
42727.55939842371
 72
     1
 10
27101.49343844058
 20
42727.55939842371
 11
27100.44197066928
 21
42737.06865128652
 72
     1
 10
27100.44197066928
 20
42737.06865128652
 11
27084.86792611271
 21
42735.26976405332
 72
     1
 10
27084.86792611271
 20
42735.26976405332
 11
27069.67008260488
 21
42732.63625072518
 72
     1
 10
27069.67008260488
 20
42732.63625072518
 11
27051.41604872921
 21
42735.00612298042
 72
     1
 10
27051.41604872921
 20
42735.00612298042
 11
27048.88208810602
 21
42752.88559223698
 72
     1
 10
27048.88208810602
 20
42752.88559223698
 11
27051.85454919571
 21
42776.57580670201
 72
     1
 10
27051.85454919571
 20
42776.57580670201
 11
27069.59211786872
 21
42786.82524057838
 72
     1
 10
27069.59211786872
 20
42786.82524057838
 11
27104.28073642063
 21
42795.57929158541
 72
     1
 10
27104.28073642063
 20
42795.57929158541
 11
27112.73683526261
 21
42810.32831701333
 72
     1
 10
27112.73683526261
 20
42810.32831701333
 11
27095.820659
 21
42823.67280822
 72
     1
 10
27095.820659
 20
42823.67280822
 11
27085.16479736
 21
42817.41593678
 72
     1
 10
27085.16479736
 20
42817.41593678
 11
27077.61491187716
 21
42811.82358064228
 72
     1
 10
27077.61491187716
 20
42811.82358064228
 11
27051.64423051
 21
42821.30922250999
 72
     1
 10
27051.64423051
 20
42821.30922250999
 11
27042.74093343
 21
42825.01556946
 72
     1
 10
27042.74093343
 20
42825.01556946
 11
27027.12838286
 21
42833.34467377
 72
     1
 10
27027.12838286
 20
42833.34467377
 11
26998.0363576896
 21
42838.69009294766
 72
     1
 10
26998.0363576896
 20
42838.69009294766
 11
26984.26711959714
 21
42841.16213023931
 72
     1
 10
26984.26711959714
 20
42841.16213023931
 11
26984.76164479699
 21
42816.81243841758
 72
     1
 10
26984.76164479699
 20
42816.81243841758
 11
26989.41038766946
 21
42800.85269208822
 72
     1
 10
26989.41038766946
 20
42800.85269208822
 11
26988.41139122765
 21
42777.84997564544
 72
     1
 10
26988.41139122765
 20
42777.84997564544
 11
26975.47729123509
 21
42743.25936486267
 72
     1
 10
26975.47729123509
 20
42743.25936486267
 11
26982.6150130766
 21
42738.45131375825
 72
     1
 10
26982.6150130766
 20
42738.45131375825
 11
26982.80655627576
 21
42712.44696764641
 72
     1
 10
26982.80655627576
 20
42712.44696764641
 11
27005.60859384
 21
42706.01347806
 97
        0
 75
     1
 76
     1
 98
        1
 10
1154.800467107863
 20
414.0784443520824
450
        0
451
        0
460
0.0
461
0.0
452
        0
462
0.0
453
        2
463
0.0
 63
     5
421
      255
463
1.0
 63
     2
421
 16776960
470
LINEAR
1001
GradientColor1ACI
1070
     5
1001
GradientColor2ACI
1070
     2
1001
ACAD
1010
0.0
1020
0.0
1030
0.0
  0
HATCH
  5
2C7
330
1F
100
AcDbEntity
  8
00 Природный ландшафт
440
 33554585
100
AcDbHatch
 10
0.0
 20
0.0
 30
0.0
210
0.0
220
0.0
230
1.0
  2
SOLID
 70
     1
 71
     0
 91
        1
 92
        1
 93
       83
 72
     1
 10
27233.10464604
 20
42874.83161957
 11
27241.06139993
 21
42926.21003933
 72
     1
 10
27241.06139993
 20
42926.21003933
 11
27283.79965006
 21
42950.24573767999
 72
     1
 10
27283.79965006
 20
42950.24573767999
 11
27322.29832034
 21
42984.10639534
 72
     1
 10
27322.29832034
 20
42984.10639534
 11
27339.9959416
 21
42992.43544175999
 72
     1
 10
27339.9959416
 20
42992.43544175999
 11
27392.19246365
 21
42999.37621888
 72
     1
 10
27392.19246365
 20
42999.37621888
 11
27424.76553933
 21
42999.56744678
 72
     1
 10
27424.76553933
 20
42999.56744678
 11
27497.6508801
 21
43056.71164043
 72
     1
 10
27497.6508801
 20
43056.71164043
 11
27540.0544768
 21
43101.34251893
 72
     1
 10
27540.0544768
 20
43101.34251893
 11
27556.40424443
 21
43118.30223023999
 72
     1
 10
27556.40424443
 20
43118.30223023999
 11
27554.99554743
 21
43119.69380710999
 72
     1
 10
27554.99554743
 20
43119.69380710999
 11
27572.04904107
 21
43138.20274739
 72
     1
 10
27572.04904107
 20
43138.20274739
 11
27575.12035771
 21
43135.67570657999
 72
     1
 10
27575.12035771
 20
43135.67570657999
 11
27588.79800484
 21
43147.92631346
 72
     1
 10
27588.79800484
 20
43147.92631346
 11
27628.84707825
 21
43190.30321732999
 72
     1
 10
27628.84707825
 20
43190.30321732999
 11
27649.45940669
 21
43217.87769025999
 72
     1
 10
27649.45940669
 20
43217.87769025999
 11
27662.12419864
 21
43262.59392828
 72
     1
 10
27662.12419864
 20
43262.59392828
 11
27666.3007526
 21
43286.53006518
 72
     1
 10
27666.3007526
 20
43286.53006518
 11
27663.21312183
 21
43304.31741596999
 72
     1
 10
27663.21312183
 20
43304.31741596999
 11
27625.58488694
 21
43287.46355862
 72
     1
 10
27625.58488694
 20
43287.46355862
 11
27631.0905319
 21
43276.7292069
 72
     1
 10
27631.0905319
 20
43276.7292069
 11
27629.09308067
 21
43269.05976371
 72
     1
 10
27629.09308067
 20
43269.05976371
 11
27620.30573748
 21
43264.66430788999
 72
     1
 10
27620.30573748
 20
43264.66430788999
 11
27602.93569730969
 21
43238.83390150839
 72
     1
 10
27602.93569730969
 20
43238.83390150839
 11
27603.15411960807
 21
43228.03979966066
 72
     1
 10
27603.15411960807
 20
43228.03979966066
 11
27584.62956154899
 21
43189.1809099887
 72
     1
 10
27584.62956154899
 20
43189.1809099887
 11
27569.70193234
 21
43191.28890723
 72
     1
 10
27569.70193234
 20
43191.28890723
 11
27552.27578539
 21
43168.03565566
 72
     1
 10
27552.27578539
 20
43168.03565566
 11
27550.34932491
 21
43165.65514536
 72
     1
 10
27550.34932491
 20
43165.65514536
 11
27537.18669699
 21
43158.95667476
 72
     1
 10
27537.18669699
 20
43158.95667476
 11
27529.31603273
 21
43154.99718036
 72
     1
 10
27529.31603273
 20
43154.99718036
 11
27526.82333105
 21
43153.51534437
 72
     1
 10
27526.82333105
 20
43153.51534437
 11
27500.20402651
 21
43150.30294762
 72
     1
 10
27500.20402651
 20
43150.30294762
 11
27496.53931768
 21
43144.11903802
 72
     1
 10
27496.53931768
 20
43144.11903802
 11
27494.39039837
 21
43140.27192732
 72
     1
 10
27494.39039837
 20
43140.27192732
 11
27488.76687985
 21
43130.24799574
 72
     1
 10
27488.76687985
 20
43130.24799574
 11
27482.39013243
 21
43122.62560826
 72
     1
 10
27482.39013243
 20
43122.62560826
 11
27464.42294488
 21
43100.61063873
 72
     1
 10
27464.42294488
 20
43100.61063873
 11
27458.2806571
 21
43096.54467576
 72
     1
 10
27458.2806571
 20
43096.54467576
 11
27445.70929031
 21
43085.35712750999
 72
     1
 10
27445.70929031
 20
43085.35712750999
 11
27440.52081102
 21
43080.88655697
 72
     1
 10
27440.52081102
 20
43080.88655697
 11
27412.41272381
 21
43071.87692524
 72
     1
 10
27412.41272381
 20
43071.87692524
 11
27405.97550523288
 21
43058.77917638338
 72
     1
 10
27405.97550523288
 20
43058.77917638338
 11
27401.08
 21
43050.34
 72
     1
 10
27401.08
 20
43050.34
 11
27382.45226843598
 21
43039.50528032372
 72
     1
 10
27382.45226843598
 20
43039.50528032372
 11
27322.81149089084
 21
43020.92298292316
 72
     1
 10
27322.81149089084
 20
43020.92298292316
 11
27300.49728801
 21
43015.38872937
 72
     1
 10
27300.49728801
 20
43015.38872937
 11
27270.14636631
 21
43008.15444045
 72
     1
 10
27270.14636631
 20
43008.15444045
 11
27247.34724066
 21
43004.95353474
 72
     1
 10
27247.34724066
 20
43004.95353474
 11
27236.80541328
 21
43059.04586790999
 72
     1
 10
27236.80541328
 20
43059.04586790999
 11
27237.7654184
 21
43062.31118406
 72
     1
 10
27237.7654184
 20
43062.31118406
 11
27239.16289879
 21
43069.32981986
 72
     1
 10
27239.16289879
 20
43069.32981986
 11
27251.21509443399
 21
43149.13019568249
 72
     1
 10
27251.21509443399
 20
43149.13019568249
 11
27239.21730424836
 21
43149.46824979283
 72
     1
 10
27239.21730424836
 20
43149.46824979283
 11
27214.52567311889
 21
43153.35870057989
 72
     1
 10
27214.52567311889
 20
43153.35870057989
 11
27208.36800038587
 21
43167.77945265656
 72
     1
 10
27208.36800038587
 20
43167.77945265656
 11
27223.32761508197
 21
43176.10019365583
 72
     1
 10
27223.32761508197
 20
43176.10019365583
 11
27217.01593403175
 21
43189.01420932464
 72
     1
 10
27217.01593403175
 20
43189.01420932464
 11
27218.2906013
 21
43206.98012085999
 72
     1
 10
27218.2906013
 20
43206.98012085999
 11
27213.36000158
 21
43207.59562595
 72
     1
 10
27213.36000158
 20
43207.59562595
 11
27202.43088473
 21
43208.96298995999
 72
     1
 10
27202.43088473
 20
43208.96298995999
 11
27182.84599576
 21
43202.77286077
 72
     1
 10
27182.84599576
 20
43202.77286077
 11
27158.63596082
 21
43184.49349267999
 72
     1
 10
27158.63596082
 20
43184.49349267999
 11
27133.75074712
 21
43169.79447998
 72
     1
 10
27133.75074712
 20
43169.79447998
 11
27093.57284668
 21
43130.10950585
 72
     1
 10
27093.57284668
 20
43130.10950585
 11
27065.5134215
 21
43094.2389783
 72
     1
 10
27065.5134215
 20
43094.2389783
 11
27062.1684015
 21
43067.79005596
 72
     1
 10
27062.1684015
 20
43067.79005596
 11
27078.52806095
 21
43050.12945236
 72
     1
 10
27078.52806095
 20
43050.12945236
 11
27091.65604884
 21
43038.23836594999
 72
     1
 10
27091.65604884
 20
43038.23836594999
 11
27116.3499611
 21
43026.73017949
 72
     1
 10
27116.3499611
 20
43026.73017949
 11
27126.18879958
 21
43022.07949796
 72
     1
 10
27126.18879958
 20
43022.07949796
 11
27140.9592852
 21
43012.96327789
 72
     1
 10
27140.9592852
 20
43012.96327789
 11
27145.59717862
 21
43025.23232425
 72
     1
 10
27145.59717862
 20
43025.23232425
 11
27157.92125262
 21
43018.96357967
 72
     1
 10
27157.92125262
 20
43018.96357967
 11
27160.44997919
 21
43022.14487509999
 72
     1
 10
27160.44997919
 20
43022.14487509999
 11
27168.42291941
 21
43017.76276711
 72
     1
 10
27168.42291941
 20
43017.76276711
 11
27185.58991105
 21
42979.02970062
 72
     1
 10
27185.58991105
 20
42979.02970062
 11
27173.36513357
 21
42949.98674192
 72
     1
 10
27173.36513357
 20
42949.98674192
 11
27187.70967538
 21
42945.70707237999
 72
     1
 10
27187.70967538
 20
42945.70707237999
 11
27181.7492944
 21
42918.90820260999
 72
     1
 10
27181.7492944
 20
42918.90820260999
 11
27180.52275521
 21
42913.25695471
 72
     1
 10
27180.52275521
 20
42913.25695471
 11
27200.92856779
 21
42901.87443946999
 72
     1
 10
27200.92856779
 20
42901.87443946999
 11
27206.57094695
 21
42885.04795769
 72
     1
 10
27206.57094695
 20
42885.04795769
 11
27233.10464604
 21
42874.83161957
 97
        0
 75
     1
 76
     1
 98
        2
 10
0.0
 20
0.0
 10
1297.044115244127
 20
668.1947004786998
450
        0
451
        0
460
0.0
461
0.0
452
        0
462
0.0
453
        2
463
0.0
 63
     5
421
      255
463
1.0
 63
     2
421
 16776960
470
LINEAR
1001
GradientColor1ACI
1070
     5
1001
GradientColor2ACI
1070
     2
1001
ACAD
1010
0.0
1020
0.0
1030
0.0
  0
HATCH
  5
2C8
330
1F
100
AcDbEntity
  8
00 Природный ландшафт
100
AcDbHatch
 10
0.0
 20
0.0
 30
0.0
210
0.0
220
0.0
230
1.0
  2
SOLID
 70
     1
 71
     0
 91
        1
 92
        1
 93
       39
 72
     1
 10
25561.3874715164
 20
42427.57283284777
 11
25545.14133427496
 21
42409.83302811696
 72
     1
 10
25545.14133427496
 20
42409.83302811696
 11
25547.86455887346
 21
42407.69298487694
 72
     1
 10
25547.86455887346
 20
42407.69298487694
 11
25530.45674068129
 21
42385.7520366629
 72
     1
 10
25530.45674068129
 20
42385.7520366629
 11
25526.67968695815
 21
42373.75487503522
 72
     1
 10
25526.67968695815
 20
42373.75487503522
 11
25508.52409090743
 21
42348.59260544102
 72
     1
 10
25508.52409090743
 20
42348.59260544102
 11
25475.1079397999
 21
42315.75549923466
 72
     1
 10
25475.1079397999
 20
42315.75549923466
 11
25455.53463817702
 21
42288.15921531739
 72
     1
 10
25455.53463817702
 20
42288.15921531739
 11
25422.74083100728
 21
42242.71790180795
 72
     1
 10
25422.74083100728
 20
42242.71790180795
 11
25413.3806061344
 21
42223.52430676409
 72
     1
 10
25413.3806061344
 20
42223.52430676409
 11
25390.66677235219
 21
42202.22992550365
 72
     1
 10
25390.66677235219
 20
42202.22992550365
 11
25377.26916730505
 21
42189.33263064091
 72
     1
 10
25377.26916730505
 20
42189.33263064091
 11
25367.25677747068
 21
42177.7310897961
 72
     1
 10
25367.25677747068
 20
42177.7310897961
 11
25368.03672480787
 21
42176.27008289499
 72
     1
 10
25368.03672480787
 20
42176.27008289499
 11
25373.83794468722
 21
42178.60947175444
 72
     1
 10
25373.83794468722
 20
42178.60947175444
 11
25381.46575418403
 21
42185.63364820712
 72
     1
 10
25381.46575418403
 20
42185.63364820712
 11
25393.60659426575
 21
42196.2016532867
 72
     1
 10
25393.60659426575
 20
42196.2016532867
 11
25399.48796303446
 21
42198.75540931102
 72
     1
 10
25399.48796303446
 20
42198.75540931102
 11
25402.27517302087
 21
42196.39665557743
 72
     1
 10
25402.27517302087
 20
42196.39665557743
 11
25405.35657143
 21
42192.66092027
 72
     1
 10
25405.35657143
 20
42192.66092027
 11
25431.04446680576
 21
42203.70592820912
 72
     1
 10
25431.04446680576
 20
42203.70592820912
 11
25429.53046271
 21
42213.80101498
 72
     1
 10
25429.53046271
 20
42213.80101498
 11
25430.96330135
 21
42225.08918562
 72
     1
 10
25430.96330135
 20
42225.08918562
 11
25432.4270292585
 21
42229.9278526958
 72
     1
 10
25432.4270292585
 20
42229.9278526958
 11
25450.48072521936
 21
42254.70464056366
 72
     1
 10
25450.48072521936
 20
42254.70464056366
 11
25467.16835870151
 21
42277.72950319186
 72
     1
 10
25467.16835870151
 20
42277.72950319186
 11
25523.25846869219
 21
42354.88487948614
 72
     1
 10
25523.25846869219
 20
42354.88487948614
 11
25559.06137143
 21
42404.49962195
 72
     1
 10
25559.06137143
 20
42404.49962195
 11
25581.41437788592
 21
42425.43018556413
 72
     1
 10
25581.41437788592
 20
42425.43018556413
 11
25593.90841296698
 21
42437.98394731383
 72
     1
 10
25593.90841296698
 20
42437.98394731383
 11
25613.35666240046
 21
42457.75731980538
 72
     1
 10
25613.35666240046
 20
42457.75731980538
 11
25649.23388270695
 21
42496.55227487087
 72
     1
 10
25649.23388270695
 20
42496.55227487087
 11
25678.77053697
 21
42530.42790794998
 72
     1
 10
25678.77053697
 20
42530.42790794998
 11
25666.35800386138
 21
42541.99826318651
 72
     1
 10
25666.35800386138
 20
42541.99826318651
 11
25625.33741989621
 21
42494.38780356094
 72
     1
 10
25625.33741989621
 20
42494.38780356094
 11
25626.72839067507
 21
42490.0529559401
 72
     1
 10
25626.72839067507
 20
42490.0529559401
 11
25617.73594543191
 21
42478.79428835394
 72
     1
 10
25617.73594543191
 20
42478.79428835394
 11
25611.35675523253
 21
42480.50149642046
 72
     1
 10
25611.35675523253
 20
42480.50149642046
 11
25597.92227712707
 21
42462.80409722275
 72
     1
 10
25597.92227712707
 20
42462.80409722275
 11
25561.3874715164
 21
42427.57283284777
 97
        0
 75
     1
 76
     1
 98
        1
 10
25624.25896254042
 20
42479.30334111046
450
        0
451
        0
460
0.0
461
0.0
452
        0
462
1.0
453
        2
463
0.0
 63
     5
421
      255
463
1.0
 63
     2
421
 16776960
470
LINEAR
1001
GradientColor1ACI
1070
     5
1001
GradientColor2ACI
1070
     2
1001
ACAD
1010
0.0
1020
0.0
1030
0.0
  0
HATCH
  5
2C9
330
1F
100
AcDbEntity
  8
00 Природный ландшафт
440
 33554585
100
AcDbHatch
 10
0.0
 20
0.0
 30
0.0
210
0.0
220
0.0
230
1.0
  2
SOLID
 70
     1
 71
     0
 91
        1
 92
        1
 93
       36
 72
     1
 10
28624.8139884
 20
42284.74011384
 11
28620.41911098
 21
42310.54743756
 72
     1
 10
28620.41911098
 20
42310.54743756
 11
28618.07704248
 21
42318.90330781999
 72
     1
 10
28618.07704248
 20
42318.90330781999
 11
28616.19640505
 21
42339.76213052
 72
     1
 10
28616.19640505
 20
42339.76213052
 11
28631.74921856199
 21
42352.35402100511
 72
     1
 10
28631.74921856199
 20
42352.35402100511
 11
28635.49862332977
 21
42342.13051514414
 72
     1
 10
28635.49862332977
 20
42342.13051514414
 11
28652.39105809685
 21
42346.3987248995
 72
     1
 10
28652.39105809685
 20
42346.3987248995
 11
28653.33299957
 21
42359.78356437
 72
     1
 10
28653.33299957
 20
42359.78356437
 11
28656.12868252
 21
42361.46076215
 72
     1
 10
28656.12868252
 20
42361.46076215
 11
28662.57811619
 21
42365.34202052999
 72
     1
 10
28662.57811619
 20
42365.34202052999
 11
28670.0729829562
 21
42371.70548622017
 72
     1
 10
28670.0729829562
 20
42371.70548622017
 11
28677.8449724149
 21
42375.81997552037
 72
     1
 10
28677.8449724149
 20
42375.81997552037
 11
28680.93546160542
 21
42375.91280336111
 72
     1
 10
28680.93546160542
 20
42375.91280336111
 11
28684.11378955924
 21
42374.41595763104
 72
     1
 10
28684.11378955924
 20
42374.41595763104
 11
28690.98356454104
 21
42373.55664154617
 72
     1
 10
28690.98356454104
 20
42373.55664154617
 11
28695.89423977195
 21
42374.631671205
 72
     1
 10
28695.89423977195
 20
42374.631671205
 11
28700.03581709971
 21
42375.98721640018
 72
     1
 10
28700.03581709971
 20
42375.98721640018
 11
28699.10806385661
 21
42348.9157478073
 72
     1
 10
28699.10806385661
 20
42348.9157478073
 11
28707.69302573111
 21
42326.47122661897
 72
     1
 10
28707.69302573111
 20
42326.47122661897
 11
28717.49668638014
 21
42309.45549271172
 72
     1
 10
28717.49668638014
 20
42309.45549271172
 11
28731.14207349888
 21
42302.06072311789
 72
     1
 10
28731.14207349888
 20
42302.06072311789
 11
28734.66912538014
 21
42295.60418171172
 72
     1
 10
28734.66912538014
 20
42295.60418171172
 11
28755.20893586951
 21
42287.841452549
 72
     1
 10
28755.20893586951
 20
42287.841452549
 11
28764.0206195749
 21
42274.59159861126
 72
     1
 10
28764.0206195749
 20
42274.59159861126
 11
28775.15704295113
 21
42273.89963392182
 72
     1
 10
28775.15704295113
 20
42273.89963392182
 11
28781.95310497954
 21
42267.15217325001
 72
     1
 10
28781.95310497954
 20
42267.15217325001
 11
28792.04116370016
 21
42265.65298236112
 72
     1
 10
28792.04116370016
 20
42265.65298236112
 11
28810.79161963254
 21
42264.74851297534
 72
     1
 10
28810.79161963254
 20
42264.74851297534
 11
28809.41733048
 21
42255.55368418
 72
     1
 10
28809.41733048
 20
42255.55368418
 11
28792.64704705
 21
42252.27044459
 72
     1
 10
28792.64704705
 20
42252.27044459
 11
28777.37545512
 21
42251.51426125
 72
     1
 10
28777.37545512
 20
42251.51426125
 11
28754.70255938068
 21
42251.54807444317
 72
     1
 10
28754.70255938068
 20
42251.54807444317
 11
28712.7348934
 21
42256.05395292
 72
     1
 10
28712.7348934
 20
42256.05395292
 11
28683.92075223075
 21
42264.72530397425
 72
     1
 10
28683.92075223075
 20
42264.72530397425
 11
28660.06461542
 21
42276.94039338
 72
     1
 10
28660.06461542
 20
42276.94039338
 11
28653.49333459001
 21
42275.55100176999
 72
     1
 10
28653.49333459001
 20
42275.55100176999
 11
28624.8139884
 21
42284.74011384
 97
        0
 75
     1
 76
     1
 98
        2
 10
0.0
 20
0.0
 10
2814.828693974952
 20
-25.92257373694883
450
        0
451
        0
460
0.0
461
0.0
452
        0
462
0.0
453
        2
463
0.0
 63
     5
421
      255
463
1.0
 63
     2
421
 16776960
470
LINEAR
1001
GradientColor1ACI
1070
     5
1001
GradientColor2ACI
1070
     2
1001
ACAD
1010
0.0
1020
0.0
1030
0.0
  0
ENDSEC
  0
SECTION
  2
OBJECTS
  0
DICTIONARY
  5
C
330
0
100
AcDbDictionary
281
     1
  3
ACAD_CIP_PREVIOUS_PRODUCT_INFO
350
216
  3
ACAD_COLOR
350
6B
  3
ACAD_DETAILVIEWSTYLE
350
21B
  3
ACAD_GROUP
350
D
  3
ACAD_LAYOUT
350
1A
  3
ACAD_MATERIAL
350
6A
  3
ACAD_MLEADERSTYLE
350
12D
  3
ACAD_MLINESTYLE
350
17
  3
ACAD_PLOTSETTINGS
350
19
  3
ACAD_PLOTSTYLENAME
350
E
  3
ACAD_SCALELIST
350
10C
  3
ACAD_SECTIONVIEWSTYLE
350
219
  3
ACAD_TABLESTYLE
350
7E
  3
ACAD_VISUALSTYLE
350
EF
  3
ACDB_RECOMPOSE_DATA
350
2DA
  3
AcDbVariableDictionary
350
5E
  3
AEC_PROPERTY_SET_DEFS
350
2B5
  0
DICTIONARY
  5
1FF
330
2
100
AcDbDictionary
280
     1
281
     1
  3
ACAD_LAYERSTATES
360
200
  0
DICTIONARY
  5
13C
330
10
100
AcDbDictionary
280
     1
281
     1
  0
DICTIONARY
  5
1CE
330
1F
100
AcDbDictionary
280
     1
281
     1
  0
XRECORD
  5
216
102
{ACAD_REACTORS
330
C
102
}
330
C
100
AcDbXrecord
280
     1
300
ACD
300
2021
300
ACD_F_S
  0
DICTIONARY
  5
6B
102
{ACAD_REACTORS
330
C
102
}
330
C
100
AcDbDictionary
281
     1
  0
DICTIONARY
  5
21B
102
{ACAD_REACTORS
330
C
102
}
330
C
100
AcDbDictionary
281
     1
  3
Metric50
350
21C
  0
DICTIONARY
  5
D
102
{ACAD_REACTORS
330
C
102
}
330
C
100
AcDbDictionary
281
     1
  0
DICTIONARY
  5
1A
102
{ACAD_REACTORS
330
C
102
}
330
C
100
AcDbDictionary
281
     1
  3
Model
350
22
  3
Лист1
350
D3
  3
Лист2
350
D7
  0
DICTIONARY
  5
6A
102
{ACAD_REACTORS
330
C
102
}
330
C
100
AcDbDictionary
281
     1
  3
ByBlock
350
ED
  3
ByLayer
350
EC
  3
Global
350
EE
  0
DICTIONARY
  5
12D
102
{ACAD_REACTORS
330
C
102
}
330
C
100
AcDbDictionary
281
     1
  3
Standard
350
12E
  3
Аннотативный
350
13B
  0
DICTIONARY
  5
17
102
{ACAD_REACTORS
330
C
102
}
330
C
100
AcDbDictionary
281
     1
  3
Standard
350
18
  0
DICTIONARY
  5
19
102
{ACAD_REACTORS
330
C
102
}
330
C
100
AcDbDictionary
281
     1
  0
ACDBDICTIONARYWDFLT
  5
E
102
{ACAD_REACTORS
330
C
102
}
330
C
100
AcDbDictionary
281
     1
  3
Normal
350
F
100
AcDbDictionaryWithDefault
340
F
  0
DICTIONARY
  5
10C
102
{ACAD_REACTORS
330
C
102
}
330
C
100
AcDbDictionary
281
     1
  3
A0
350
10D
  3
A1
350
1BE
  3
A2
350
1BF
  3
A3
350
1C0
  3
A4
350
1C1
  3
A5
350
1C2
  3
A6
350
1C3
  3
A7
350
1C4
  3
A8
350
1C5
  3
A9
350
1C6
  3
B0
350
1C7
  3
B1
350
1C8
  3
B2
350
1C9
  3
B3
350
1CA
  3
B4
350
1CB
  3
B5
350
1CC
  3
B6
350
1CD
  0
DICTIONARY
  5
219
102
{ACAD_REACTORS
330
C
102
}
330
C
100
AcDbDictionary
281
     1
  3
Metric50
350
21A
  0
DICTIONARY
  5
7E
102
{ACAD_REACTORS
330
C
102
}
330
C
100
AcDbDictionary
281
     1
  3
Standard
350
7F
  0
DICTIONARY
  5
EF
102
{ACAD_REACTORS
330
C
102
}
330
C
100
AcDbDictionary
281
     1
  3
2dWireframe
350
F5
  3
Basic
350
F4
  3
Brighten
350
FB
  3
ColorChange
350
FF
  3
Conceptual
350
F8
  3
Dim
350
FA
  3
EdgeColorOff
350
1E6
  3
Facepattern
350
FE
  3
Flat
350
F0
  3
FlatWithEdges
350
F1
  3
Gouraud
350
F2
  3
GouraudWithEdges
350
F3
  3
Hidden
350
F7
  3
JitterOff
350
1E4
  3
Linepattern
350
FD
  3
OverhangOff
350
1E5
  3
Realistic
350
F9
  3
Shaded
350
1F3
  3
Shaded with edges
350
1F2
  3
Shades of Gray
350
1EF
  3
Sketchy
350
1F0
  3
Thicken
350
FC
  3
Wireframe
350
F6
  3
X-Ray
350
1F1
  0
XRECORD
  5
2DA
102
{ACAD_REACTORS
330
C
102
}
330
C
100
AcDbXrecord
280
     1
 90
        1
330
7F
  0
DICTIONARY
  5
5E
102
{ACAD_REACTORS
330
C
102
}
330
C
100
AcDbDictionary
281
     1
  3
CANNOSCALE
350
146
  3
CENTEREXE
350
259
  3
CENTERLTYPEFILE
350
25A
  3
CMLEADERSTYLE
350
145
  3
CTABLESTYLE
350
84
  3
CVIEWDETAILSTYLE
350
227
  3
CVIEWSECTIONSTYLE
350
228
  3
DIMASSOC
350
5F
  3
HIDETEXT
350
63
  3
LAYEREVAL
350
1AE
  3
LAYERNOTIFY
350
1AF
  0
DICTIONARY
  5
2B5
102
{ACAD_REACTORS
330
C
102
}
330
C
100
AcDbDictionary
281
     1
  0
DICTIONARY
  5
200
102
{ACAD_REACTORS
330
1FF
102
}
330
1FF
100
AcDbDictionary
281
     1
  0
ACDBDETAILVIEWSTYLE
  5
21C
102
{ACAD_REACTORS
330
21B
102
}
330
21B
100
AcDbModelDocViewStyle
 70
     0
  3
Metric50
290
     0
300
Metric50
 90
        0
100
AcDbDetailViewStyle
 70
     0
 71
     0
 90
        3
 71
     1
340
11
 62
   256
 40
5.0
340
0
 62
   256
 40
5.0
300

 40
0.0
280
     1
 71
     2
340
16
 90
       25
 62
   256
 71
     3
340
11
 62
   256
 40
5.0
 90
        0
 40
15.0
 90
        1
300
%<\AcVar ViewDetailId>% (%<\AcVar ViewScale \f "%sn">%)
 71
     4
340
16
 90
       25
 62
   256
340
16
 90
       25
 62
   256
280
     0
  0
LAYOUT
  5
22
102
{ACAD_XDICTIONARY
360
205
102
}
102
{ACAD_REACTORS
330
1A
102
}
330
1A
100
AcDbPlotSettings
  1

  2
none_device
  4
ISO_A4_(210.00_x_297.00_MM)
  6

 40
7.5
 41
20.0
 42
7.5
 43
20.0
 44
210.0
 45
297.0
 46
11.54999923706054
 47
-13.65000009536743
 48
0.0
 49
0.0
140
0.0
141
0.0
142
1.0
143
8.704084754739808
 70
 11952
 72
     1
 73
     0
 74
     0
  7

 75
     0
147
0.1148885871608098
 76
     0
 77
     2
 78
   300
148
0.0
149
0.0
100
AcDbLayout
  1
Model
 70
     1
 71
     0
 10
0.0
 20
0.0
 11
12.0
 21
9.0
 12
0.0
 22
0.0
 32
0.0
 14
0.0
 24
0.0
 34
0.0
 15
0.0
 25
0.0
 35
0.0
146
0.0
 13
0.0
 23
0.0
 33
0.0
 16
1.0
 26
0.0
 36
0.0
 17
0.0
 27
1.0
 37
0.0
 76
     0
330
1F
331
EA
1001
ACAD_PSEXT
1000
None
1000
None
1000
Not applicable
1000
The layout will not be plotted unless a new plotter configuration name is selected.
1070
     0
  0
LAYOUT
  5
D3
102
{ACAD_REACTORS
330
1A
102
}
330
1A
100
AcDbPlotSettings
  1

  2
C:\Documents and Settings\basas\Application Data\Autodesk\AutoCAD 2005\R16.1\enu\plotters\Default Windows System Printer.pc3
  4

  6

 40
0.0
 41
0.0
 42
0.0
 43
0.0
 44
0.0
 45
0.0
 46
0.0
 47
0.0
 48
0.0
 49
0.0
140
0.0
141
0.0
142
1.0
143
1.0
 70
   688
 72
     0
 73
     0
 74
     5
  7

 75
    16
147
1.0
 76
     0
 77
     2
 78
   300
148
0.0
149
0.0
100
AcDbLayout
  1
Лист1
 70
     1
 71
     1
 10
0.0
 20
0.0
 11
12.0
 21
9.0
 12
0.0
 22
0.0
 32
0.0
 14
0.0
 24
0.0
 34
0.0
 15
0.0
 25
0.0
 35
0.0
146
0.0
 13
0.0
 23
0.0
 33
0.0
 16
1.0
 26
0.0
 36
0.0
 17
0.0
 27
1.0
 37
0.0
 76
     0
330
D2
  0
LAYOUT
  5
D7
102
{ACAD_REACTORS
330
1A
102
}
330
1A
100
AcDbPlotSettings
  1

  2
C:\Documents and Settings\basas\Application Data\Autodesk\AutoCAD 2005\R16.1\enu\plotters\Default Windows System Printer.pc3
  4

  6

 40
0.0
 41
0.0
 42
0.0
 43
0.0
 44
0.0
 45
0.0
 46
0.0
 47
0.0
 48
0.0
 49
0.0
140
0.0
141
0.0
142
1.0
143
1.0
 70
   688
 72
     0
 73
     0
 74
     5
  7

 75
    16
147
1.0
 76
     0
 77
     2
 78
   300
148
0.0
149
0.0
100
AcDbLayout
  1
Лист2
 70
     1
 71
     2
 10
0.0
 20
0.0
 11
12.0
 21
9.0
 12
0.0
 22
0.0
 32
0.0
 14
0.0
 24
0.0
 34
0.0
 15
0.0
 25
0.0
 35
0.0
146
0.0
 13
0.0
 23
0.0
 33
0.0
 16
1.0
 26
0.0
 36
0.0
 17
0.0
 27
1.0
 37
0.0
 76
     0
330
D6
  0
MATERIAL
  5
ED
102
{ACAD_XDICTIONARY
360
1F9
102
}
102
{ACAD_REACTORS
330
6A
102
}
330
6A
100
AcDbMaterial
  1
ByBlock
 94
       63
  0
MATERIAL
  5
EC
102
{ACAD_XDICTIONARY
360
1F7
102
}
102
{ACAD_REACTORS
330
6A
102
}
330
6A
100
AcDbMaterial
  1
ByLayer
 94
       63
  0
MATERIAL
  5
EE
102
{ACAD_XDICTIONARY
360
173
102
}
102
{ACAD_REACTORS
330
6A
102
}
330
6A
100
AcDbMaterial
  1
Global
 43
0.0007999999797903
 43
0.0
 43
0.0
 43
0.0
 43
0.0
 43
0.0007999999797903
 43
0.0
 43
0.0
 43
0.0
 43
0.0
 43
1.0
 43
0.0
 43
0.0
 43
0.0
 43
0.0
 43
1.0
 49
0.0007999999797903
 49
0.0
 49
0.0
 49
0.0
 49
0.0
 49
0.0007999999797903
 49
0.0
 49
0.0
 49
0.0
 49
0.0
 49
1.0
 49
0.0
 49
0.0
 49
0.0
 49
0.0
 49
1.0
142
0.0007999999797903
142
0.0
142
0.0
142
0.0
142
0.0
142
0.0007999999797903
142
0.0
142
0.0
142
0.0
142
0.0
142
1.0
142
0.0
142
0.0
142
0.0
142
0.0
142
1.0
144
0.0007999999797903
144
0.0
144
0.0
144
0.0
144
0.0
144
0.0007999999797903
144
0.0
144
0.0
144
0.0
144
0.0
144
1.0
144
0.0
144
0.0
144
0.0
144
0.0
144
1.0
 94
       63
1001
ACAD
1070
    -1
1070
     3
1070
     0
1000

1071
        0
1070
     0
  0
MLEADERSTYLE
  5
12E
102
{ACAD_REACTORS
330
12D
102
}
330
12D
100
AcDbMLeaderStyle
179
     2
170
     2
171
     1
172
     0
 90
        2
 40
0.0
 41
0.0
173
     1
 91
-1056964608
340
14
 92
       -2
290
     1
 42
2.0
291
     1
 43
8.0
  3
Standard
 44
4.0
300

342
11
174
     1
178
     1
175
     1
176
     0
 93
-1056964608
 45
4.0
292
     0
297
     0
 46
4.0
 94
-1056964608
 47
1.0
 49
1.0
140
1.0
293
     1
141
0.0
294
     1
177
     0
142
1.0
295
     0
296
     0
143
3.75
271
     0
272
     9
273
     9
298
     0
  0
MLEADERSTYLE
  5
13B
102
{ACAD_REACTORS
330
12D
102
}
330
12D
100
AcDbMLeaderStyle
179
     2
170
     2
171
     1
172
     0
 90
        2
 40
0.0
 41
0.0
173
     1
 91
-1056964608
340
14
 92
       -2
290
     1
 42
2.0
291
     1
 43
8.0
  3
Standard
 44
4.0
300

342
11
174
     1
178
     1
175
     1
176
     0
 93
-1056964608
 45
4.0
292
     0
297
     0
 46
4.0
 94
-1056964608
 47
1.0
 49
1.0
140
1.0
293
     1
141
0.0
294
     1
177
     0
142
1.0
295
     0
296
     1
143
3.75
271
     0
272
     9
273
     9
298
     0
  0
MLINESTYLE
  5
18
102
{ACAD_REACTORS
330
17
102
}
330
17
100
AcDbMlineStyle
  2
STANDARD
 70
     0
  3

 62
   256
 51
90.0
 52
90.0
 71
     2
 49
0.5
 62
   256
  6
BYLAYER
 49
-0.5
 62
   256
  6
BYLAYER
  0
ACDBPLACEHOLDER
  5
F
102
{ACAD_REACTORS
330
E
102
}
330
E
  0
SCALE
  5
10D
102
{ACAD_REACTORS
330
10C
102
}
330
10C
100
AcDbScale
 70
     0
300
1:1
140
1.0
141
1.0
290
     1
  0
SCALE
  5
1BE
102
{ACAD_REACTORS
330
10C
102
}
330
10C
100
AcDbScale
 70
     0
300
1:2
140
1.0
141
2.0
290
     0
  0
SCALE
  5
1BF
102
{ACAD_REACTORS
330
10C
102
}
330
10C
100
AcDbScale
 70
     0
300
1:4
140
1.0
141
4.0
290
     0
  0
SCALE
  5
1C0
102
{ACAD_REACTORS
330
10C
102
}
330
10C
100
AcDbScale
 70
     0
300
1:5
140
1.0
141
5.0
290
     0
  0
SCALE
  5
1C1
102
{ACAD_REACTORS
330
10C
102
}
330
10C
100
AcDbScale
 70
     0
300
1:8
140
1.0
141
8.0
290
     0
  0
SCALE
  5
1C2
102
{ACAD_REACTORS
330
10C
102
}
330
10C
100
AcDbScale
 70
     0
300
1:10
140
1.0
141
10.0
290
     0
  0
SCALE
  5
1C3
102
{ACAD_REACTORS
330
10C
102
}
330
10C
100
AcDbScale
 70
     0
300
1:16
140
1.0
141
16.0
290
     0
  0
SCALE
  5
1C4
102
{ACAD_REACTORS
330
10C
102
}
330
10C
100
AcDbScale
 70
     0
300
1:20
140
1.0
141
20.0
290
     0
  0
SCALE
  5
1C5
102
{ACAD_REACTORS
330
10C
102
}
330
10C
100
AcDbScale
 70
     0
300
1:30
140
1.0
141
30.0
290
     0
  0
SCALE
  5
1C6
102
{ACAD_REACTORS
330
10C
102
}
330
10C
100
AcDbScale
 70
     0
300
1:40
140
1.0
141
40.0
290
     0
  0
SCALE
  5
1C7
102
{ACAD_REACTORS
330
10C
102
}
330
10C
100
AcDbScale
 70
     0
300
1:50
140
1.0
141
50.0
290
     0
  0
SCALE
  5
1C8
102
{ACAD_REACTORS
330
10C
102
}
330
10C
100
AcDbScale
 70
     0
300
1:100
140
1.0
141
100.0
290
     0
  0
SCALE
  5
1C9
102
{ACAD_REACTORS
330
10C
102
}
330
10C
100
AcDbScale
 70
     0
300
2:1
140
2.0
141
1.0
290
     0
  0
SCALE
  5
1CA
102
{ACAD_REACTORS
330
10C
102
}
330
10C
100
AcDbScale
 70
     0
300
4:1
140
4.0
141
1.0
290
     0
  0
SCALE
  5
1CB
102
{ACAD_REACTORS
330
10C
102
}
330
10C
100
AcDbScale
 70
     0
300
8:1
140
8.0
141
1.0
290
     0
  0
SCALE
  5
1CC
102
{ACAD_REACTORS
330
10C
102
}
330
10C
100
AcDbScale
 70
     0
300
10:1
140
10.0
141
1.0
290
     0
  0
SCALE
  5
1CD
102
{ACAD_REACTORS
330
10C
102
}
330
10C
100
AcDbScale
 70
     0
300
100:1
140
100.0
141
1.0
290
     0
  0
ACDBSECTIONVIEWSTYLE
  5
21A
102
{ACAD_REACTORS
330
219
102
}
330
219
100
AcDbModelDocViewStyle
 70
     0
  3
Metric50
290
     0
300
Metric50
 90
        0
100
AcDbSectionViewStyle
 70
     0
 71
     0
 90
      102
 71
     1
340
11
 62
   256
 40
5.0
340
0
340
0
 62
   256
 40
5.0
300
I, O, Q, S, X, Z
 40
10.0
 90
        0
 40
2.5
 90
        0
 71
     2
340
16
 90
       25
 62
   256
340
16
 90
       50
 62
   256
 40
5.0
 40
2.5
 40
5.0
 71
     3
340
11
 62
   256
 40
5.0
 90
        0
 40
15.0
 90
        1
300
%<\AcVar ViewSectionStartId>%-%<\AcVar ViewSectionEndId>% (%<\AcVar ViewScale \f "%sn">%)
 71
     4
 62
   256
 62
   257
300
ANSI31
 40
1.0
 90
        0
290
     0
290
     0
 90
        6
 40
0.0
 40
1.570796326794896
 40
0.2617993877991494
 40
1.308996938995747
 40
-0.2617993877991494
 40
1.832595714594046
  0
TABLESTYLE
  5
7F
102
{ACAD_XDICTIONARY
360
162
102
}
102
{ACAD_REACTORS
330
7E
102
}
330
7E
100
AcDbTableStyle
280
     0
  3
Standard
 70
     0
 71
     0
 40
1.5
 41
1.5
280
     0
281
     0
  7
Standard
140
4.5
170
     2
 62
     0
 63
     7
283
     0
 90
      512
 91
        0
  1

274
    -2
284
     1
 64
     0
275
    -2
285
     1
 65
     0
276
    -2
286
     1
 66
     0
277
    -2
287
     1
 67
     0
278
    -2
288
     1
 68
     0
279
    -2
289
     1
 69
     0
  7
Standard
140
6.0
170
     5
 62
     0
 63
     7
283
     0
 90
      512
 91
        0
  1

274
    -2
284
     1
 64
     0
275
    -2
285
     1
 65
     0
276
    -2
286
     1
 66
     0
277
    -2
287
     1
 67
     0
278
    -2
288
     1
 68
     0
279
    -2
289
     1
 69
     0
  7
Standard
140
4.5
170
     5
 62
     0
 63
     7
283
     0
 90
      512
 91
        0
  1

274
    -2
284
     1
 64
     0
275
    -2
285
     1
 65
     0
276
    -2
286
     1
 66
     0
277
    -2
287
     1
 67
     0
278
    -2
288
     1
 68
     0
279
    -2
289
     1
 69
     0
  0
VISUALSTYLE
  5
F5
102
{ACAD_REACTORS
330
EF
102
}
330
EF
100
AcDbVisualStyle
  2
2dWireframe
 70
     4
177
     3
291
     0
 70
    58
 90
        0
176
     1
 90
        2
176
     1
 90
        1
176
     1
 90
        0
176
     1
 40
0.6
176
     1
 40
30.0
176
     1
 62
     7
420
 16777215
176
     1
 90
        1
176
     1
 90
        4
176
     1
 62
     7
176
     1
 62
   257
176
     1
 90
        1
176
     1
 90
        1
176
     1
 40
1.0
176
     1
 90
        0
176
     1
 62
   257
176
     1
 40
1.0
176
     1
 90
        1
176
     1
 90
        6
176
     1
 90
        2
176
     1
 62
     7
176
     1
 90
        5
176
     1
 90
        0
176
     1
 90
        0
176
     1
290
     0
176
     1
 90
        1
176
     1
 40
0.0
176
     1
 90
        0
176
     1
290
     1
176
     1
290
     1
176
     1
290
     0
176
     1
290
     0
176
     1
290
     0
176
     1
290
     0
176
     1
290
     0
176
     1
290
     0
176
     1
290
     0
176
     1
 90
       50
176
     1
 40
0.0
176
     1
 40
1.0
176
     1
 90
        0
176
     1
 62
    18
420
        0
176
     1
 90
       50
176
     1
 90
        3
176
     1
 62
     5
420
      255
176
     1
290
     0
176
     1
 90
       50
176
     1
 90
       50
176
     1
 90
       50
176
     1
290
     0
176
     1
 90
       50
176
     1
 62
   256
176
     0
 40
1.0
176
     0
 90
        2
176
     1
  1
strokes_ogs.tif
176
     1
290
     0
176
     1
 40
1.0
176
     1
 40
1.0
176
     1
  0
VISUALSTYLE
  5
F4
102
{ACAD_REACTORS
330
EF
102
}
330
EF
100
AcDbVisualStyle
  2
Basic
 70
     7
177
     3
291
     1
 70
    58
 90
        1
176
     1
 90
        0
176
     1
 90
        1
176
     1
 90
        0
176
     1
 40
0.6
176
     1
 40
30.0
176
     1
 62
     7
420
 16777215
176
     1
 90
        0
176
     1
 90
        4
176
     1
 62
     7
176
     1
 62
   257
176
     1
 90
        1
176
     1
 90
        1
176
     1
 40
1.0
176
     1
 90
        8
176
     1
 62
     7
176
     1
 40
1.0
176
     1
 90
        1
176
     1
 90
        6
176
     1
 90
        2
176
     1
 62
     7
176
     1
 90
        5
176
     1
 90
        0
176
     1
 90
        0
176
     1
290
     0
176
     1
 90
        1
176
     1
 40
0.0
176
     1
 90
        0
176
     1
290
     0
176
     1
290
     1
176
     1
290
     1
176
     1
290
     0
176
     1
290
     0
176
     1
290
     0
176
     1
290
     0
176
     1
290
     0
176
     1
290
     0
176
     1
 90
       50
176
     1
 40
0.0
176
     1
 40
1.0
176
     1
 90
        0
176
     1
 62
    18
420
        0
176
     1
 90
       50
176
     1
 90
        3
176
     1
 62
     5
420
      255
176
     1
290
     0
176
     1
 90
       50
176
     1
 90
       50
176
     1
 90
       50
176
     1
290
     0
176
     1
 90
       50
176
     1
 62
   256
176
     0
 40
1.0
176
     0
 90
        2
176
     1
  1
strokes_ogs.tif
176
     1
290
     0
176
     1
 40
1.0
176
     1
 40
1.0
176
     1
  0
VISUALSTYLE
  5
FB
102
{ACAD_REACTORS
330
EF
102
}
330
EF
100
AcDbVisualStyle
  2
Brighten
 70
    12
177
     3
291
     1
 70
    58
 90
        2
176
     1
 90
        2
176
     1
 90
        1
176
     1
 90
        0
176
     1
 40
0.6
176
     1
 40
30.0
176
     1
 62
     7
420
 16777215
176
     1
 90
        1
176
     1
 90
        4
176
     1
 62
     7
176
     1
 62
   257
176
     1
 90
        1
176
     1
 90
        1
176
     1
 40
1.0
176
     1
 90
        8
176
     1
 62
     7
176
     1
 40
1.0
176
     1
 90
        1
176
     1
 90
        6
176
     1
 90
        2
176
     1
 62
     7
176
     1
 90
        5
176
     1
 90
        0
176
     1
 90
        0
176
     1
290
     0
176
     1
 90
        1
176
     1
 40
50.0
176
     1
 90
        0
176
     1
290
     0
176
     1
290
     1
176
     1
290
     1
176
     1
290
     0
176
     1
290
     0
176
     1
290
     0
176
     1
290
     0
176
     1
290
     0
176
     1
290
     0
176
     1
 90
       50
176
     1
 40
0.0
176
     1
 40
1.0
176
     1
 90
        0
176
     1
 62
    18
420
        0
176
     1
 90
       50
176
     1
 90
        3
176
     1
 62
     5
420
      255
176
     1
290
     0
176
     1
 90
       50
176
     1
 90
       50
176
     1
 90
       50
176
     1
290
     0
176
     1
 90
       50
176
     1
 62
   256
176
     0
 40
1.0
176
     0
 90
        2
176
     1
  1
strokes_ogs.tif
176
     1
290
     0
176
     1
 40
1.0
176
     1
 40
1.0
176
     1
  0
VISUALSTYLE
  5
FF
102
{ACAD_REACTORS
330
EF
102
}
330
EF
100
AcDbVisualStyle
  2
ColorChange
 70
    16
177
     3
291
     1
 70
    58
 90
        2
176
     1
 90
        2
176
     1
 90
        3
176
     1
 90
        0
176
     1
 40
0.6
176
     1
 40
30.0
176
     1
 62
     8
420
  8421504
176
     1
 90
        1
176
     1
 90
        4
176
     1
 62
     7
176
     1
 62
   257
176
     1
 90
        1
176
     1
 90
        1
176
     1
 40
1.0
176
     1
 90
        8
176
     1
 62
     8
420
  8421504
176
     1
 40
1.0
176
     1
 90
        1
176
     1
 90
        6
176
     1
 90
        2
176
     1
 62
     7
176
     1
 90
        5
176
     1
 90
        0
176
     1
 90
        0
176
     1
290
     0
176
     1
 90
        1
176
     1
 40
0.0
176
     1
 90
        0
176
     1
290
     0
176
     1
290
     1
176
     1
290
     1
176
     1
290
     0
176
     1
290
     0
176
     1
290
     0
176
     1
290
     0
176
     1
290
     0
176
     1
290
     0
176
     1
 90
       50
176
     1
 40
0.0
176
     1
 40
1.0
176
     1
 90
        0
176
     1
 62
    18
420
        0
176
     1
 90
       50
176
     1
 90
        3
176
     1
 62
     5
420
      255
176
     1
290
     0
176
     1
 90
       50
176
     1
 90
       50
176
     1
 90
       50
176
     1
290
     0
176
     1
 90
       50
176
     1
 62
   256
176
     0
 40
1.0
176
     0
 90
        2
176
     1
  1
strokes_ogs.tif
176
     1
290
     0
176
     1
 40
1.0
176
     1
 40
1.0
176
     1
  0
VISUALSTYLE
  5
F8
102
{ACAD_REACTORS
330
EF
102
}
330
EF
100
AcDbVisualStyle
  2
Conceptual
 70
     9
177
     3
291
     0
 70
    58
 90
        3
176
     1
 90
        2
176
     1
 90
        1
176
     1
 90
        0
176
     1
 40
0.6
176
     1
 40
30.0
176
     1
 62
     7
420
 16777215
176
     1
 90
        2
176
     1
 90
        2
176
     1
 62
     7
176
     1
 62
   257
176
     1
 90
        1
176
     1
 90
        1
176
     1
 40
40.0
176
     1
 90
        8
176
     1
 62
     7
176
     1
 40
1.0
176
     1
 90
        1
176
     1
 90
        6
176
     1
 90
        2
176
     1
 62
     7
176
     1
 90
        3
176
     1
 90
        0
176
     1
 90
        0
176
     1
290
     0
176
     1
 90
        1
176
     1
 40
0.0
176
     1
 90
        0
176
     1
290
     0
176
     1
290
     1
176
     1
290
     1
176
     1
290
     0
176
     1
290
     0
176
     1
290
     0
176
     1
290
     0
176
     1
290
     0
176
     1
290
     0
176
     1
 90
       50
176
     1
 40
0.0
176
     1
 40
1.0
176
     1
 90
        0
176
     1
 62
    18
420
        0
176
     1
 90
       50
176
     1
 90
        3
176
     1
 62
     5
420
      255
176
     1
290
     0
176
     1
 90
       50
176
     1
 90
       50
176
     1
 90
       50
176
     1
290
     0
176
     1
 90
       50
176
     1
 62
   256
176
     0
 40
1.0
176
     0
 90
        2
176
     1
  1
strokes_ogs.tif
176
     1
290
     0
176
     1
 40
1.0
176
     1
 40
1.0
176
     1
  0
VISUALSTYLE
  5
FA
102
{ACAD_REACTORS
330
EF
102
}
330
EF
100
AcDbVisualStyle
  2
Dim
 70
    11
177
     3
291
     1
 70
    58
 90
        2
176
     1
 90
        2
176
     1
 90
        1
176
     1
 90
        0
176
     1
 40
0.6
176
     1
 40
30.0
176
     1
 62
     7
420
 16777215
176
     1
 90
        1
176
     1
 90
        4
176
     1
 62
     7
176
     1
 62
   257
176
     1
 90
        1
176
     1
 90
        1
176
     1
 40
1.0
176
     1
 90
        8
176
     1
 62
     7
176
     1
 40
1.0
176
     1
 90
        1
176
     1
 90
        6
176
     1
 90
        2
176
     1
 62
     7
176
     1
 90
        5
176
     1
 90
        0
176
     1
 90
        0
176
     1
290
     0
176
     1
 90
        1
176
     1
 40
-50.0
176
     1
 90
        0
176
     1
290
     0
176
     1
290
     1
176
     1
290
     1
176
     1
290
     0
176
     1
290
     0
176
     1
290
     0
176
     1
290
     0
176
     1
290
     0
176
     1
290
     0
176
     1
 90
       50
176
     1
 40
0.0
176
     1
 40
1.0
176
     1
 90
        0
176
     1
 62
    18
420
        0
176
     1
 90
       50
176
     1
 90
        3
176
     1
 62
     5
420
      255
176
     1
290
     0
176
     1
 90
       50
176
     1
 90
       50
176
     1
 90
       50
176
     1
290
     0
176
     1
 90
       50
176
     1
 62
   256
176
     0
 40
1.0
176
     0
 90
        2
176
     1
  1
strokes_ogs.tif
176
     1
290
     0
176
     1
 40
1.0
176
     1
 40
1.0
176
     1
  0
VISUALSTYLE
  5
1E6
102
{ACAD_REACTORS
330
EF
102
}
330
EF
100
AcDbVisualStyle
  2
EdgeColorOff
 70
    22
177
     3
291
     1
 70
    58
 90
        2
176
     0
 90
        2
176
     0
 90
        0
176
     0
 90
        0
176
     0
 40
0.6
176
     0
 40
30.0
176
     0
 62
     7
420
 16777215
176
     0
 90
        1
176
     0
 90
        4
176
     0
 62
     7
176
     0
 62
   257
176
     0
 90
        1
176
     0
 90
        1
176
     0
 40
1.0
176
     0
 90
        8
176
     2
 62
     7
176
     0
 40
1.0
176
     0
 90
        1
176
     0
 90
        6
176
     0
 90
        2
176
     0
 62
     7
176
     0
 90
        5
176
     0
 90
        0
176
     0
 90
        0
176
     0
290
     0
176
     0
 90
        1
176
     0
 40
0.0
176
     0
 90
        0
176
     0
290
     0
176
     1
290
     1
176
     1
290
     1
176
     1
290
     0
176
     1
290
     0
176
     1
290
     0
176
     1
290
     0
176
     1
290
     0
176
     1
290
     0
176
     1
 90
       50
176
     1
 40
0.0
176
     1
 40
1.0
176
     1
 90
        0
176
     1
 62
    18
420
        0
176
     1
 90
       50
176
     1
 90
        3
176
     1
 62
     5
420
      255
176
     1
290
     0
176
     1
 90
       50
176
     1
 90
       50
176
     1
 90
       50
176
     1
290
     0
176
     1
 90
       50
176
     1
 62
   256
176
     0
 40
1.0
176
     0
 90
        2
176
     1
  1
strokes_ogs.tif
176
     1
290
     0
176
     1
 40
1.0
176
     1
 40
1.0
176
     1
  0
VISUALSTYLE
  5
FE
102
{ACAD_REACTORS
330
EF
102
}
330
EF
100
AcDbVisualStyle
  2
Facepattern
 70
    15
177
     3
291
     1
 70
    58
 90
        2
176
     1
 90
        2
176
     1
 90
        1
176
     1
 90
        0
176
     1
 40
0.6
176
     1
 40
30.0
176
     1
 62
     7
420
 16777215
176
     1
 90
        1
176
     1
 90
        4
176
     1
 62
     7
176
     1
 62
   257
176
     1
 90
        1
176
     1
 90
        1
176
     1
 40
1.0
176
     1
 90
        8
176
     1
 62
     7
176
     1
 40
1.0
176
     1
 90
        1
176
     1
 90
        6
176
     1
 90
        2
176
     1
 62
     7
176
     1
 90
        5
176
     1
 90
        0
176
     1
 90
        0
176
     1
290
     0
176
     1
 90
        1
176
     1
 40
0.0
176
     1
 90
        0
176
     1
290
     0
176
     1
290
     1
176
     1
290
     1
176
     1
290
     0
176
     1
290
     0
176
     1
290
     0
176
     1
290
     0
176
     1
290
     0
176
     1
290
     0
176
     1
 90
       50
176
     1
 40
0.0
176
     1
 40
1.0
176
     1
 90
        0
176
     1
 62
    18
420
        0
176
     1
 90
       50
176
     1
 90
        3
176
     1
 62
     5
420
      255
176
     1
290
     0
176
     1
 90
       50
176
     1
 90
       50
176
     1
 90
       50
176
     1
290
     0
176
     1
 90
       50
176
     1
 62
   256
176
     0
 40
1.0
176
     0
 90
        2
176
     1
  1
strokes_ogs.tif
176
     1
290
     0
176
     1
 40
1.0
176
     1
 40
1.0
176
     1
  0
VISUALSTYLE
  5
F0
102
{ACAD_REACTORS
330
EF
102
}
330
EF
100
AcDbVisualStyle
  2
Flat
 70
     0
177
     3
291
     1
 70
    58
 90
        2
176
     1
 90
        1
176
     1
 90
        1
176
     1
 90
        2
176
     1
 40
0.6
176
     1
 40
30.0
176
     1
 62
     7
420
 16777215
176
     1
 90
        0
176
     1
 90
        0
176
     1
 62
     7
176
     1
 62
   257
176
     1
 90
        1
176
     1
 90
        1
176
     1
 40
1.0
176
     1
 90
        8
176
     1
 62
     7
176
     1
 40
1.0
176
     1
 90
        1
176
     1
 90
        6
176
     1
 90
        2
176
     1
 62
     7
176
     1
 90
        5
176
     1
 90
        0
176
     1
 90
        0
176
     1
290
     0
176
     1
 90
       13
176
     1
 40
0.0
176
     1
 90
        0
176
     1
290
     0
176
     1
290
     1
176
     1
290
     1
176
     1
290
     0
176
     1
290
     0
176
     1
290
     0
176
     1
290
     0
176
     1
290
     0
176
     1
290
     0
176
     1
 90
       50
176
     1
 40
0.0
176
     1
 40
1.0
176
     1
 90
        0
176
     1
 62
    18
420
        0
176
     1
 90
       50
176
     1
 90
        3
176
     1
 62
     5
420
      255
176
     1
290
     0
176
     1
 90
       50
176
     1
 90
       50
176
     1
 90
       50
176
     1
290
     0
176
     1
 90
       50
176
     1
 62
   256
176
     0
 40
1.0
176
     0
 90
        2
176
     1
  1
strokes_ogs.tif
176
     1
290
     0
176
     1
 40
1.0
176
     1
 40
1.0
176
     1
  0
VISUALSTYLE
  5
F1
102
{ACAD_REACTORS
330
EF
102
}
330
EF
100
AcDbVisualStyle
  2
FlatWithEdges
 70
     1
177
     3
291
     1
 70
    58
 90
        2
176
     1
 90
        1
176
     1
 90
        1
176
     1
 90
        2
176
     1
 40
0.6
176
     1
 40
30.0
176
     1
 62
     7
420
 16777215
176
     1
 90
        1
176
     1
 90
        0
176
     1
 62
     7
176
     1
 62
   257
176
     1
 90
        1
176
     1
 90
        1
176
     1
 40
1.0
176
     1
 90
        0
176
     1
 62
   257
176
     1
 40
1.0
176
     1
 90
        1
176
     1
 90
        6
176
     1
 90
        2
176
     1
 62
     7
176
     1
 90
        5
176
     1
 90
        0
176
     1
 90
        0
176
     1
290
     0
176
     1
 90
       13
176
     1
 40
0.0
176
     1
 90
        0
176
     1
290
     0
176
     1
290
     1
176
     1
290
     1
176
     1
290
     0
176
     1
290
     0
176
     1
290
     0
176
     1
290
     0
176
     1
290
     0
176
     1
290
     0
176
     1
 90
       50
176
     1
 40
0.0
176
     1
 40
1.0
176
     1
 90
        0
176
     1
 62
    18
420
        0
176
     1
 90
       50
176
     1
 90
        3
176
     1
 62
     5
420
      255
176
     1
290
     0
176
     1
 90
       50
176
     1
 90
       50
176
     1
 90
       50
176
     1
290
     0
176
     1
 90
       50
176
     1
 62
   256
176
     0
 40
1.0
176
     0
 90
        2
176
     1
  1
strokes_ogs.tif
176
     1
290
     0
176
     1
 40
1.0
176
     1
 40
1.0
176
     1
  0
VISUALSTYLE
  5
F2
102
{ACAD_REACTORS
330
EF
102
}
330
EF
100
AcDbVisualStyle
  2
Gouraud
 70
     2
177
     3
291
     1
 70
    58
 90
        2
176
     1
 90
        2
176
     1
 90
        1
176
     1
 90
        2
176
     1
 40
0.6
176
     1
 40
30.0
176
     1
 62
     7
420
 16777215
176
     1
 90
        0
176
     1
 90
        0
176
     1
 62
     7
176
     1
 62
   257
176
     1
 90
        1
176
     1
 90
        1
176
     1
 40
1.0
176
     1
 90
        0
176
     1
 62
     7
176
     1
 40
1.0
176
     1
 90
        1
176
     1
 90
        6
176
     1
 90
        2
176
     1
 62
     7
176
     1
 90
        5
176
     1
 90
        0
176
     1
 90
        0
176
     1
290
     0
176
     1
 90
       13
176
     1
 40
0.0
176
     1
 90
        0
176
     1
290
     0
176
     1
290
     1
176
     1
290
     1
176
     1
290
     0
176
     1
290
     0
176
     1
290
     0
176
     1
290
     0
176
     1
290
     0
176
     1
290
     0
176
     1
 90
       50
176
     1
 40
0.0
176
     1
 40
1.0
176
     1
 90
        0
176
     1
 62
    18
420
        0
176
     1
 90
       50
176
     1
 90
        3
176
     1
 62
     5
420
      255
176
     1
290
     0
176
     1
 90
       50
176
     1
 90
       50
176
     1
 90
       50
176
     1
290
     0
176
     1
 90
       50
176
     1
 62
   256
176
     0
 40
1.0
176
     0
 90
        2
176
     1
  1
strokes_ogs.tif
176
     1
290
     0
176
     1
 40
1.0
176
     1
 40
1.0
176
     1
  0
VISUALSTYLE
  5
F3
102
{ACAD_REACTORS
330
EF
102
}
330
EF
100
AcDbVisualStyle
  2
GouraudWithEdges
 70
     3
177
     3
291
     1
 70
    58
 90
        2
176
     1
 90
        2
176
     1
 90
        1
176
     1
 90
        2
176
     1
 40
0.6
176
     1
 40
30.0
176
     1
 62
     7
420
 16777215
176
     1
 90
        1
176
     1
 90
        0
176
     1
 62
     7
176
     1
 62
   257
176
     1
 90
        1
176
     1
 90
        1
176
     1
 40
1.0
176
     1
 90
        0
176
     1
 62
   257
176
     1
 40
1.0
176
     1
 90
        1
176
     1
 90
        6
176
     1
 90
        2
176
     1
 62
     7
176
     1
 90
        5
176
     1
 90
        0
176
     1
 90
        0
176
     1
290
     0
176
     1
 90
       13
176
     1
 40
0.0
176
     1
 90
        0
176
     1
290
     0
176
     1
290
     1
176
     1
290
     1
176
     1
290
     0
176
     1
290
     0
176
     1
290
     0
176
     1
290
     0
176
     1
290
     0
176
     1
290
     0
176
     1
 90
       50
176
     1
 40
0.0
176
     1
 40
1.0
176
     1
 90
        0
176
     1
 62
    18
420
        0
176
     1
 90
       50
176
     1
 90
        3
176
     1
 62
     5
420
      255
176
     1
290
     0
176
     1
 90
       50
176
     1
 90
       50
176
     1
 90
       50
176
     1
290
     0
176
     1
 90
       50
176
     1
 62
   256
176
     0
 40
1.0
176
     0
 90
        2
176
     1
  1
strokes_ogs.tif
176
     1
290
     0
176
     1
 40
1.0
176
     1
 40
1.0
176
     1
  0
VISUALSTYLE
  5
F7
102
{ACAD_REACTORS
330
EF
102
}
330
EF
100
AcDbVisualStyle
  2
Hidden
 70
     6
177
     3
291
     0
 70
    58
 90
        1
176
     1
 90
        2
176
     1
 90
        2
176
     1
 90
        0
176
     1
 40
0.6
176
     1
 40
30.0
176
     1
 62
     7
420
 16777215
176
     1
 90
        2
176
     1
 90
        2
176
     1
 62
     7
176
     1
 62
   257
176
     1
 90
        2
176
     1
 90
        1
176
     1
 40
40.0
176
     1
 90
        0
176
     1
 62
   257
176
     1
 40
1.0
176
     1
 90
        1
176
     1
 90
        6
176
     1
 90
        2
176
     1
 62
     7
176
     1
 90
        3
176
     1
 90
        0
176
     1
 90
        0
176
     1
290
     0
176
     1
 90
        1
176
     1
 40
0.0
176
     1
 90
        0
176
     1
290
     0
176
     1
290
     1
176
     1
290
     1
176
     1
290
     0
176
     1
290
     0
176
     1
290
     0
176
     1
290
     0
176
     1
290
     0
176
     1
290
     0
176
     1
 90
       50
176
     1
 40
0.0
176
     1
 40
1.0
176
     1
 90
        0
176
     1
 62
    18
420
        0
176
     1
 90
       50
176
     1
 90
        3
176
     1
 62
     5
420
      255
176
     1
290
     0
176
     1
 90
       50
176
     1
 90
       50
176
     1
 90
       50
176
     1
290
     0
176
     1
 90
       50
176
     1
 62
   256
176
     0
 40
1.0
176
     0
 90
        2
176
     1
  1
strokes_ogs.tif
176
     1
290
     0
176
     1
 40
1.0
176
     1
 40
1.0
176
     1
  0
VISUALSTYLE
  5
1E4
102
{ACAD_REACTORS
330
EF
102
}
330
EF
100
AcDbVisualStyle
  2
JitterOff
 70
    20
177
     3
291
     1
 70
    58
 90
        2
176
     0
 90
        2
176
     0
 90
        0
176
     0
 90
        0
176
     0
 40
0.6
176
     0
 40
30.0
176
     0
 62
     7
420
 16777215
176
     0
 90
        1
176
     0
 90
        4
176
     0
 62
     7
176
     0
 62
   257
176
     0
 90
        1
176
     0
 90
        1
176
     0
 40
1.0
176
     0
 90
       10
176
     2
 62
     7
176
     0
 40
1.0
176
     0
 90
        1
176
     0
 90
        6
176
     0
 90
        2
176
     0
 62
     7
176
     0
 90
        5
176
     0
 90
        0
176
     0
 90
        0
176
     0
290
     0
176
     0
 90
        1
176
     0
 40
0.0
176
     0
 90
        0
176
     0
290
     0
176
     1
290
     1
176
     1
290
     1
176
     1
290
     0
176
     1
290
     0
176
     1
290
     0
176
     1
290
     0
176
     1
290
     0
176
     1
290
     0
176
     1
 90
       50
176
     1
 40
0.0
176
     1
 40
1.0
176
     1
 90
        0
176
     1
 62
    18
420
        0
176
     1
 90
       50
176
     1
 90
        3
176
     1
 62
     5
420
      255
176
     1
290
     0
176
     1
 90
       50
176
     1
 90
       50
176
     1
 90
       50
176
     1
290
     0
176
     1
 90
       50
176
     1
 62
   256
176
     0
 40
1.0
176
     0
 90
        2
176
     1
  1
strokes_ogs.tif
176
     1
290
     0
176
     1
 40
1.0
176
     1
 40
1.0
176
     1
  0
VISUALSTYLE
  5
FD
102
{ACAD_REACTORS
330
EF
102
}
330
EF
100
AcDbVisualStyle
  2
Linepattern
 70
    14
177
     3
291
     1
 70
    58
 90
        2
176
     1
 90
        2
176
     1
 90
        1
176
     1
 90
        0
176
     1
 40
0.6
176
     1
 40
30.0
176
     1
 62
     7
420
 16777215
176
     1
 90
        1
176
     1
 90
        4
176
     1
 62
     7
176
     1
 62
   257
176
     1
 90
        7
176
     1
 90
        7
176
     1
 40
1.0
176
     1
 90
        8
176
     1
 62
     7
176
     1
 40
1.0
176
     1
 90
        1
176
     1
 90
        6
176
     1
 90
        2
176
     1
 62
     7
176
     1
 90
        5
176
     1
 90
        0
176
     1
 90
        0
176
     1
290
     0
176
     1
 90
        1
176
     1
 40
0.0
176
     1
 90
        0
176
     1
290
     0
176
     1
290
     1
176
     1
290
     1
176
     1
290
     0
176
     1
290
     0
176
     1
290
     0
176
     1
290
     0
176
     1
290
     0
176
     1
290
     0
176
     1
 90
       50
176
     1
 40
0.0
176
     1
 40
1.0
176
     1
 90
        0
176
     1
 62
    18
420
        0
176
     1
 90
       50
176
     1
 90
        3
176
     1
 62
     5
420
      255
176
     1
290
     0
176
     1
 90
       50
176
     1
 90
       50
176
     1
 90
       50
176
     1
290
     0
176
     1
 90
       50
176
     1
 62
   256
176
     0
 40
1.0
176
     0
 90
        2
176
     1
  1
strokes_ogs.tif
176
     1
290
     0
176
     1
 40
1.0
176
     1
 40
1.0
176
     1
  0
VISUALSTYLE
  5
1E5
102
{ACAD_REACTORS
330
EF
102
}
330
EF
100
AcDbVisualStyle
  2
OverhangOff
 70
    21
177
     3
291
     1
 70
    58
 90
        2
176
     0
 90
        2
176
     0
 90
        0
176
     0
 90
        0
176
     0
 40
0.6
176
     0
 40
30.0
176
     0
 62
     7
420
 16777215
176
     0
 90
        1
176
     0
 90
        4
176
     0
 62
     7
176
     0
 62
   257
176
     0
 90
        1
176
     0
 90
        1
176
     0
 40
1.0
176
     0
 90
        9
176
     2
 62
     7
176
     0
 40
1.0
176
     0
 90
        1
176
     0
 90
        6
176
     0
 90
        2
176
     0
 62
     7
176
     0
 90
        5
176
     0
 90
        0
176
     0
 90
        0
176
     0
290
     0
176
     0
 90
        1
176
     0
 40
0.0
176
     0
 90
        0
176
     0
290
     0
176
     1
290
     1
176
     1
290
     1
176
     1
290
     0
176
     1
290
     0
176
     1
290
     0
176
     1
290
     0
176
     1
290
     0
176
     1
290
     0
176
     1
 90
       50
176
     1
 40
0.0
176
     1
 40
1.0
176
     1
 90
        0
176
     1
 62
    18
420
        0
176
     1
 90
       50
176
     1
 90
        3
176
     1
 62
     5
420
      255
176
     1
290
     0
176
     1
 90
       50
176
     1
 90
       50
176
     1
 90
       50
176
     1
290
     0
176
     1
 90
       50
176
     1
 62
   256
176
     0
 40
1.0
176
     0
 90
        2
176
     1
  1
strokes_ogs.tif
176
     1
290
     0
176
     1
 40
1.0
176
     1
 40
1.0
176
     1
  0
VISUALSTYLE
  5
F9
102
{ACAD_REACTORS
330
EF
102
}
330
EF
100
AcDbVisualStyle
  2
Realistic
 70
     8
177
     3
291
     0
 70
    58
 90
        2
176
     1
 90
        3
176
     1
 90
        0
176
     1
 90
        2
176
     1
 40
0.6
176
     1
 40
30.0
176
     1
 62
     7
420
 16777215
176
     1
 90
        0
176
     1
 90
        0
176
     1
 62
     7
176
     1
 62
   257
176
     1
 90
        1
176
     1
 90
        1
176
     1
 40
1.0
176
     1
 90
        8
176
     1
 62
   257
176
     1
 40
1.0
176
     1
 90
        1
176
     1
 90
        6
176
     1
 90
        2
176
     1
 62
     7
176
     1
 90
        3
176
     1
 90
        0
176
     1
 90
        0
176
     1
290
     0
176
     1
 90
       13
176
     1
 40
0.0
176
     1
 90
        0
176
     1
290
     0
176
     1
290
     1
176
     1
290
     1
176
     1
290
     0
176
     1
290
     0
176
     1
290
     0
176
     1
290
     0
176
     1
290
     0
176
     1
290
     0
176
     1
 90
       50
176
     1
 40
0.0
176
     1
 40
1.0
176
     1
 90
        0
176
     1
 62
    18
420
        0
176
     1
 90
       50
176
     1
 90
        3
176
     1
 62
     5
420
      255
176
     1
290
     0
176
     1
 90
       50
176
     1
 90
       50
176
     1
 90
       50
176
     1
290
     0
176
     1
 90
       50
176
     1
 62
   256
176
     0
 40
1.0
176
     0
 90
        2
176
     1
  1
strokes_ogs.tif
176
     1
290
     0
176
     1
 40
1.0
176
     1
 40
1.0
176
     1
  0
VISUALSTYLE
  5
1F3
102
{ACAD_REACTORS
330
EF
102
}
330
EF
100
AcDbVisualStyle
  2
Shaded
 70
    27
177
     3
291
     0
 70
    58
 90
        2
176
     1
 90
        2
176
     1
 90
        1
176
     1
 90
        2
176
     1
 40
0.6
176
     1
 40
30.0
176
     1
 62
     7
420
 16777215
176
     1
 90
        0
176
     1
 90
        4
176
     1
 62
     7
176
     1
 62
   257
176
     1
 90
        1
176
     1
 90
        1
176
     1
 40
1.0
176
     1
 90
        8
176
     1
 62
   257
176
     1
 40
1.0
176
     1
 90
        1
176
     1
 90
        6
176
     1
 90
        2
176
     1
 62
     8
420
  7895160
176
     1
 90
        3
176
     1
 90
        0
176
     1
 90
        0
176
     1
290
     0
176
     1
 90
        5
176
     1
 40
0.0
176
     1
 90
        0
176
     1
290
     0
176
     1
290
     1
176
     1
290
     1
176
     1
290
     0
176
     1
290
     0
176
     1
290
     0
176
     1
290
     0
176
     1
290
     0
176
     1
290
     0
176
     1
 90
       50
176
     1
 40
0.0
176
     1
 40
1.0
176
     1
 90
        0
176
     1
 62
    18
420
        0
176
     1
 90
       50
176
     1
 90
        3
176
     1
 62
     5
420
      255
176
     1
290
     0
176
     1
 90
       50
176
     1
 90
       50
176
     1
 90
       50
176
     1
290
     0
176
     1
 90
       50
176
     1
 62
   256
176
     0
 40
1.0
176
     0
 90
        2
176
     1
  1
strokes_ogs.tif
176
     1
290
     0
176
     1
 40
1.0
176
     1
 40
1.0
176
     1
  0
VISUALSTYLE
  5
1F2
102
{ACAD_REACTORS
330
EF
102
}
330
EF
100
AcDbVisualStyle
  2
Shaded with edges
 70
    26
177
     3
291
     0
 70
    58
 90
        2
176
     1
 90
        2
176
     1
 90
        1
176
     1
 90
        2
176
     1
 40
0.6
176
     1
 40
30.0
176
     1
 62
     7
420
 16777215
176
     1
 90
        1
176
     1
 90
        2
176
     1
 62
     7
176
     1
 62
   257
176
     1
 90
        2
176
     1
 90
        1
176
     1
 40
1.0
176
     1
 90
        8
176
     1
 62
   257
176
     1
 40
1.0
176
     1
 90
        1
176
     1
 90
        6
176
     1
 90
        2
176
     1
 62
     7
176
     1
 90
        3
176
     1
 90
        0
176
     1
 90
        0
176
     1
290
     0
176
     1
 90
        5
176
     1
 40
0.0
176
     1
 90
        0
176
     1
290
     0
176
     1
290
     1
176
     1
290
     1
176
     1
290
     0
176
     1
290
     0
176
     1
290
     0
176
     1
290
     0
176
     1
290
     0
176
     1
290
     0
176
     1
 90
       50
176
     1
 40
0.0
176
     1
 40
1.0
176
     1
 90
        0
176
     1
 62
    18
420
        0
176
     1
 90
       50
176
     1
 90
        3
176
     1
 62
     5
420
      255
176
     1
290
     0
176
     1
 90
       50
176
     1
 90
       50
176
     1
 90
       50
176
     1
290
     0
176
     1
 90
       50
176
     1
 62
   256
176
     0
 40
1.0
176
     0
 90
        2
176
     1
  1
strokes_ogs.tif
176
     1
290
     0
176
     1
 40
1.0
176
     1
 40
1.0
176
     1
  0
VISUALSTYLE
  5
1EF
102
{ACAD_REACTORS
330
EF
102
}
330
EF
100
AcDbVisualStyle
  2
Shades of Gray
 70
    23
177
     3
291
     0
 70
    58
 90
        2
176
     1
 90
        2
176
     1
 90
        3
176
     1
 90
        0
176
     1
 40
0.6
176
     1
 40
30.0
176
     1
 62
     7
420
 16777215
176
     1
 90
        2
176
     1
 90
        2
176
     1
 62
     7
176
     1
 62
     7
176
     1
 90
        1
176
     1
 90
        1
176
     1
 40
40.0
176
     1
 90
        8
176
     1
 62
     7
176
     1
 40
1.0
176
     1
 90
        1
176
     1
 90
        6
176
     1
 90
        2
176
     1
 62
     7
176
     1
 90
        3
176
     1
 90
        0
176
     1
 90
        0
176
     1
290
     0
176
     1
 90
        1
176
     1
 40
0.0
176
     1
 90
        0
176
     1
290
     0
176
     1
290
     1
176
     1
290
     1
176
     1
290
     0
176
     1
290
     0
176
     1
290
     0
176
     1
290
     0
176
     1
290
     0
176
     1
290
     0
176
     1
 90
       50
176
     1
 40
0.0
176
     1
 40
1.0
176
     1
 90
        0
176
     1
 62
    18
420
        0
176
     1
 90
       50
176
     1
 90
        3
176
     1
 62
     5
420
      255
176
     1
290
     0
176
     1
 90
       50
176
     1
 90
       50
176
     1
 90
       50
176
     1
290
     0
176
     1
 90
       50
176
     1
 62
   256
176
     0
 40
1.0
176
     0
 90
        2
176
     1
  1
strokes_ogs.tif
176
     1
290
     0
176
     1
 40
1.0
176
     1
 40
1.0
176
     1
  0
VISUALSTYLE
  5
1F0
102
{ACAD_REACTORS
330
EF
102
}
330
EF
100
AcDbVisualStyle
  2
Sketchy
 70
    24
177
     3
291
     0
 70
    58
 90
        1
176
     1
 90
        2
176
     1
 90
        2
176
     1
 90
        0
176
     1
 40
0.6
176
     1
 40
30.0
176
     1
 62
     7
420
 16777215
176
     1
 90
        2
176
     1
 90
        2
176
     1
 62
     7
176
     1
 62
     7
176
     1
 90
        1
176
     1
 90
        1
176
     1
 40
40.0
176
     1
 90
       11
176
     1
 62
     7
176
     1
 40
1.0
176
     1
 90
        1
176
     1
 90
        6
176
     1
 90
        2
176
     1
 62
     7
176
     1
 90
        6
176
     1
 90
        0
176
     1
 90
        0
176
     1
290
     0
176
     1
 90
        1
176
     1
 40
0.0
176
     1
 90
        0
176
     1
290
     0
176
     1
290
     1
176
     1
290
     1
176
     1
290
     0
176
     1
290
     0
176
     1
290
     0
176
     1
290
     0
176
     1
290
     0
176
     1
290
     0
176
     1
 90
       50
176
     1
 40
0.0
176
     1
 40
1.0
176
     1
 90
        0
176
     1
 62
    18
420
        0
176
     1
 90
       50
176
     1
 90
        3
176
     1
 62
     5
420
      255
176
     1
290
     0
176
     1
 90
       50
176
     1
 90
       50
176
     1
 90
       50
176
     1
290
     0
176
     1
 90
       50
176
     1
 62
   256
176
     0
 40
1.0
176
     0
 90
        2
176
     1
  1
strokes_ogs.tif
176
     1
290
     0
176
     1
 40
1.0
176
     1
 40
1.0
176
     1
  0
VISUALSTYLE
  5
FC
102
{ACAD_REACTORS
330
EF
102
}
330
EF
100
AcDbVisualStyle
  2
Thicken
 70
    13
177
     3
291
     1
 70
    58
 90
        2
176
     1
 90
        2
176
     1
 90
        1
176
     1
 90
        0
176
     1
 40
0.6
176
     1
 40
30.0
176
     1
 62
     7
420
 16777215
176
     1
 90
        1
176
     1
 90
        4
176
     1
 62
     7
176
     1
 62
   257
176
     1
 90
        1
176
     1
 90
        1
176
     1
 40
1.0
176
     1
 90
       12
176
     1
 62
     7
176
     1
 40
1.0
176
     1
 90
        1
176
     1
 90
        6
176
     1
 90
        2
176
     1
 62
     7
176
     1
 90
        5
176
     1
 90
        0
176
     1
 90
        0
176
     1
290
     0
176
     1
 90
        1
176
     1
 40
0.0
176
     1
 90
        0
176
     1
290
     0
176
     1
290
     1
176
     1
290
     1
176
     1
290
     0
176
     1
290
     0
176
     1
290
     0
176
     1
290
     0
176
     1
290
     0
176
     1
290
     0
176
     1
 90
       50
176
     1
 40
0.0
176
     1
 40
1.0
176
     1
 90
        0
176
     1
 62
    18
420
        0
176
     1
 90
       50
176
     1
 90
        3
176
     1
 62
     5
420
      255
176
     1
290
     0
176
     1
 90
       50
176
     1
 90
       50
176
     1
 90
       50
176
     1
290
     0
176
     1
 90
       50
176
     1
 62
   256
176
     0
 40
1.0
176
     0
 90
        2
176
     1
  1
strokes_ogs.tif
176
     1
290
     0
176
     1
 40
1.0
176
     1
 40
1.0
176
     1
  0
VISUALSTYLE
  5
F6
102
{ACAD_REACTORS
330
EF
102
}
330
EF
100
AcDbVisualStyle
  2
Wireframe
 70
     5
177
     3
291
     0
 70
    58
 90
        0
176
     1
 90
        2
176
     1
 90
        0
176
     1
 90
        0
176
     1
 40
0.6
176
     1
 40
30.0
176
     1
 62
     7
420
 16777215
176
     1
 90
        1
176
     1
 90
        4
176
     1
 62
     7
176
     1
 62
   257
176
     1
 90
        1
176
     1
 90
        1
176
     1
 40
1.0
176
     1
 90
        0
176
     1
 62
   257
176
     1
 40
1.0
176
     1
 90
        1
176
     1
 90
        6
176
     1
 90
        2
176
     1
 62
     7
176
     1
 90
        3
176
     1
 90
        0
176
     1
 90
        0
176
     1
290
     0
176
     1
 90
        1
176
     1
 40
0.0
176
     1
 90
        0
176
     1
290
     0
176
     1
290
     1
176
     1
290
     1
176
     1
290
     0
176
     1
290
     0
176
     1
290
     0
176
     1
290
     0
176
     1
290
     0
176
     1
290
     0
176
     1
 90
       50
176
     1
 40
0.0
176
     1
 40
1.0
176
     1
 90
        0
176
     1
 62
    18
420
        0
176
     1
 90
       50
176
     1
 90
        3
176
     1
 62
     5
420
      255
176
     1
290
     0
176
     1
 90
       50
176
     1
 90
       50
176
     1
 90
       50
176
     1
290
     0
176
     1
 90
       50
176
     1
 62
   256
176
     0
 40
1.0
176
     0
 90
        2
176
     1
  1
strokes_ogs.tif
176
     1
290
     0
176
     1
 40
1.0
176
     1
 40
1.0
176
     1
  0
VISUALSTYLE
  5
1F1
102
{ACAD_REACTORS
330
EF
102
}
330
EF
100
AcDbVisualStyle
  2
X-Ray
 70
    25
177
     3
291
     0
 70
    58
 90
        2
176
     1
 90
        2
176
     1
 90
        1
176
     1
 90
        1
176
     1
 40
0.5
176
     1
 40
30.0
176
     1
 62
     7
420
 16777215
176
     1
 90
        1
176
     1
 90
        0
176
     1
 62
     7
176
     1
 62
   257
176
     1
 90
        1
176
     1
 90
        1
176
     1
 40
1.0
176
     1
 90
        8
176
     1
 62
     7
176
     1
 40
1.0
176
     1
 90
        1
176
     1
 90
        6
176
     1
 90
        2
176
     1
 62
     7
176
     1
 90
        3
176
     1
 90
        0
176
     1
 90
        0
176
     1
290
     0
176
     1
 90
       13
176
     1
 40
0.0
176
     1
 90
        0
176
     1
290
     0
176
     1
290
     1
176
     1
290
     1
176
     1
290
     0
176
     1
290
     0
176
     1
290
     0
176
     1
290
     0
176
     1
290
     0
176
     1
290
     0
176
     1
 90
       50
176
     1
 40
0.0
176
     1
 40
1.0
176
     1
 90
        0
176
     1
 62
    18
420
        0
176
     1
 90
       50
176
     1
 90
        3
176
     1
 62
     5
420
      255
176
     1
290
     0
176
     1
 90
       50
176
     1
 90
       50
176
     1
 90
       50
176
     1
290
     0
176
     1
 90
       50
176
     1
 62
   256
176
     0
 40
1.0
176
     0
 90
        2
176
     1
  1
strokes_ogs.tif
176
     1
290
     0
176
     1
 40
1.0
176
     1
 40
1.0
176
     1
  0
DICTIONARYVAR
  5
146
102
{ACAD_REACTORS
330
5E
102
}
330
5E
100
DictionaryVariables
280
     0
  1
1:1
  0
DICTIONARYVAR
  5
259
102
{ACAD_REACTORS
330
5E
102
}
330
5E
100
DictionaryVariables
280
     0
  1
3.500000
  0
DICTIONARYVAR
  5
25A
102
{ACAD_REACTORS
330
5E
102
}
330
5E
100
DictionaryVariables
280
     0
  1
acadiso.lin
  0
DICTIONARYVAR
  5
145
102
{ACAD_REACTORS
330
5E
102
}
330
5E
100
DictionaryVariables
280
     0
  1
STANDARD
  0
DICTIONARYVAR
  5
84
102
{ACAD_REACTORS
330
5E
102
}
330
5E
100
DictionaryVariables
280
     0
  1
STANDARD
  0
DICTIONARYVAR
  5
227
102
{ACAD_REACTORS
330
5E
102
}
330
5E
100
DictionaryVariables
280
     0
  1
Metric50
  0
DICTIONARYVAR
  5
228
102
{ACAD_REACTORS
330
5E
102
}
330
5E
100
DictionaryVariables
280
     0
  1
Metric50
  0
DICTIONARYVAR
  5
5F
102
{ACAD_REACTORS
330
5E
102
}
330
5E
100
DictionaryVariables
280
     0
  1
2
  0
DICTIONARYVAR
  5
63
102
{ACAD_REACTORS
330
5E
102
}
330
5E
100
DictionaryVariables
280
     0
  1
1
  0
DICTIONARYVAR
  5
1AE
102
{ACAD_REACTORS
330
5E
102
}
330
5E
100
DictionaryVariables
280
     0
  1
0
  0
DICTIONARYVAR
  5
1AF
102
{ACAD_REACTORS
330
5E
102
}
330
5E
100
DictionaryVariables
280
     0
  1
0
  0
DICTIONARY
  5
205
330
22
100
AcDbDictionary
280
     1
281
     1
  0
DICTIONARY
  5
1F9
330
ED
100
AcDbDictionary
280
     1
281
     1
  3
FBXASSET
360
1FA
  0
DICTIONARY
  5
1F7
330
EC
100
AcDbDictionary
280
     1
281
     1
  3
FBXASSET
360
1F8
  0
DICTIONARY
  5
173
330
EE
100
AcDbDictionary
280
     1
281
     1
  3
BUMPTILE
360
175
  3
DIFFUSETILE
360
174
  3
FBXASSET
360
1FB
  3
OPACITYTILE
360
176
  3
REFLECTIONTILE
360
177
  0
DICTIONARY
  5
162
330
7F
100
AcDbDictionary
280
     1
281
     1
  3
ACAD_ROUNDTRIP_2008_TABLESTYLE_CELLSTYLEMAP
360
2D9
  0
XRECORD
  5
1FA
102
{ACAD_REACTORS
330
1F9
102
}
330
1F9
100
AcDbXrecord
280
     1
 70
     1
 90
429727718
  1
D62C5603-E3A1-4AEA-B7FB-FE5D8D0755AF
310
504B03040A0000080000CC70623B3DEE336E79000000790000001B0000006175746F6465736B2D64657369676E2D7061636B6167652E786D6C3C3F786D6C2076657273696F6E3D22312E302220656E636F64696E673D227574662D3822203F3E3C666F726D6174733E3C666F726D61743E687474703A2F2F736368656D612E
310
6175746F6465736B2E636F6D2F64657369676E2D7061636B6167652F323030393C2F666F726D61743E3C2F666F726D6174733E504B0304140006080800CC70623BD486FD9CA0000000F4000000130000005B436F6E74656E745F54797065735D2E786D6C7D8EC10E82300C865F65E91D8A1E8C310C0EEA1BF002731658846E
310
D98AC1B77784ABF1D8FE5FBFBF75BBCE937A534CCEB38643598122B6FEE978D0B0485F9C41B54DDD7D022595594E1A469170414C76A4D9A4D207E29CF43ECE46F218070CC6BECC4078ACAA135ACF422C856C0E68EA1BF5669944DDD7BCDE7B1F8E415D77AECB980613C2E4AC91FC167A2B244592486606FC29C8FD7F045B9A
310
EF7053A7E60B504B0304140006080800CC70623B853B8169EB0000007C01000008000000636F72652E786D6C8D90416EC3201045AF62CDB6C206821CC7C244919D9CA01740401C94182C03558F5F9C3852BBEB6A467FFE9B197D7EFC9E1EC5975982F5AE035262288C535E5B377690E21535501C055FBC8FBF6C503839990E
310
5619041F179FE64D52DE45E362569DD7661365082642A11EB9E920A89B99642953CC8E702F67A9EE7234257977194EC9EAE275C4EABCCF5EAD5940D4AC6F0E35A568B8F43562CD7046CD199FD07E60174276A7BE677B5EADB0E0D14EEFFB6A31321A0D82627C4084204C3F096B71DD52F6819B16635EADF63F509AF53FA164
310
5DDCD1EDDD17164090FCC8732078B56691CB33A85CD7DCC40F504B0304140006080800CC70623B55019EA25F0000007C00000007000000636E782E786D6C4DCB3B0E80201045D1AD90E915ED2CF8AC45050C11660C8261F98AB1B07AC9C97D42D718D865D3E909258CFD00CCE24AC6E326A164D74DC0B4128928FF32603847
310
2BA13128B1252AC747C6BAB984FC68F0B87FE8960A5C09FE86CFB69FBA01504B0304140006080800CC70623BDBABAAF470010000D40300000C0000006662782F636F72652E786D6CC553D16E823014FD95A6AF4B694182CC941A83FA05FB810A9511A125A5257EFE2E82712ECEB8A7F100CD39F7F69E734AF9FADC366850B6
310
AF8DCE7018308C942E4C59EB2AC3DE1D498AD15A706B8CFB56869196ADCAF00863C12B6B7C374385D14E6907A836A59A41D9F7CA615434B0C8705F7CAA5606D23BA8E84F41278B93AC54100640439DE0BDB320004D43C63716C7C399D30917DCFBBA9CD9BA8469F5B156168B24CED3F7248AC8769F27244EB73B92EED8862C
310
B7F13E0C179B3C8F979C8ECD82BBBABDAA2BAC924E9558448CBD9330242CFA08E3154B5651FCC6D215639C8EE5774DBE2B5F6CF2B5768B68963BB5F5588420E442FC700B1139D4CB01F450C1E918227C2E09DF070D8140C84E1E9AAB8F1340832A9CB13130A5F1376A908D57309505ECF2A0DF179C4E9D30F5B239B87E3823
310
7A79C6F31DE1A8A5AEC08474B03C7837EAE4938639B44E5932B833D2C6B6B279CDC613877FA26EE21F4A2A4C63EC7F29A2F301D1F9F7A0E37D145F504B0304140006080800CC70623B9C113CC27E0000009D0000000B0000006662782F636E782E786D6C4DCCDF0A83201C86E15B91DFB94BFB330DD428C8FB886521330DA7
310
6397BF1A1DECE883878F57749FCDA1B7892F1BBC047A23808C7F84D9FA55424E0BE6803A256208E9EF06C84F9B91703228B1C690F78B66B34CD9A5439DF5CF0BFBF65E35BCA1B8D6A5C6F540381E886698B5741C695F9503EBA150A2F8958E3DC3EA0B504B0304140006080800CC70623B7DF2F77C2A010000120200003100
310
00006662782F41393633353835312D344632462D344230382D423046372D3739314545314133324237412F636F72652E786D6C8D51DB8EC22014FC15C2939B0D2DB4B45643319AE817EC0F6041255A68B86CFCFC856D4D76DF7CE190393373060EDB3DC707F856CE6B6B7A480A0C81328395DA5C7B18C3057510EC3873D686
310
3F34088C18550F330C39BB3A1BA7051AAC09CA84841A2BD5020AEF55806078A44B0FFD7053A328440C89E1EFC52486BBB8AA8214A99D789CF9E05200300FC927E4FB4D5B375D43103D5527440FB843077C5AA3F5861C8F645F5787F59E95B390B318B55CE45AA638FAA2957BD7248B390B7A7CC51F9C124149C82B8C378810
310
84AB2F42B7B8DD56F413775B8C5999E9FF4471926F8AA236A1AE96B8B3CC434E5839373893369E1FAF30EA395917409EB7F26AF8801C171837A4A6AC9C89E9F9C9B1A58BA30FD6A5EF5DDDCF894B9AD9B6A59C957943A9FCAE2FD5BC4DFE03504B0304140006080800CC70623BAD7543B64E01000033030000300000006662
310
782F41393633353835312D344632462D344230382D423046372D3739314545314133324237412F636E782E786D6CD593CD6EC32010845F0571AD6CE3D48AD20813A9873E410FBD12D82434182C7EAAE6EDBB2424CD25871E7B41D6EC30B3FA84F9E67BB2E40B4234DE8DB46F1925E094D7C6ED479AD3AE5951B2113C789FEE
310
6C943839C1488B4C05DF079FE72A69D8C96C13AAD6B8631503449F83828872B949AC57D26200B826A308D316B4064D6E46FCDA41C05550DC9E483A00797BFD207EFB092A45DE9514C1BBD22178396BD39D891265658C238DEA00936C654E5E433CB65A26D9F6EDB5EBC14EBF49A45CB856E66048291F6939A9A81BB5C89177
310
38143CA680F4AA299D66A042CEB3354A2684DC9D8D178FE0D9B8B41CAAD720F880EE7EF93C0C18769E099ECC04D5A102C8049A8A05632F4DDF376CF1DE0F6BB65C2F8627B65A33C6BB62177CEBBDAD973006829F89F22E814B54F4BC2BE347F8AA8F681390B50FA73F804400B5F542E796F19FF974E7F78DB802FE05E20750
310
4B0304140006080800CC70623BE75B7789680500003C100000340000006662782F41393633353835312D344632462D344230382D423046372D3739314545314133324237412F6F626A656374732E786D6CAD575B8F9B3818FD2B887D06C22499CB8AA1CA655245D5B455A356FB305264C061D8018C6C3393D95FBFC7600890
310
A4CD5EF210B0B1BFEBF98E3F7B1FF6596ABC522E1296DF9BAE3D320D9A872C4AF2F8DE2CE5CEBA358D0FBEC719939D65A691938CDE9B6ADAF4BD98B3B2D05311DD91329583D9D5FC0F438434A7A611A644887B5384CF34233629258BA878B12322891DEFF6B66BD70BFB62634E8AE781D082709A4B588AF91C528CDA28B73F
310
1C998EEF39EABBEFA97FBD6A7C7E9553F9D3D79FE442923C3C523610337627CB87ABE99D359D4CC6D6E4FACAB5E6ABF9D2726FC6A3C5F56271377BB88362213924694B38DD99FE47C48627A1E7D49F5A8BB5E1A74C0A599ED3B0F21F1E56366B89112D681E218F0915D0D6F17AD41FBA2A369DCF6335D62ABBD39779D5DDD1
310
11D4D8DE3CBB96B2E04FB8202E41051754A1AA8E8F76B4C6DFE810B580B1547F4B84911149794252234D024EF8BBE963A95AE27B3D310A9D5C215C7960FAEE415ED75694C6AFB17BCACA5D99A60A9AA65F217B0BFC53292ACB92BF283FAD0D3621576592CB5BED907C2FA8E9DF794E35E97BEA31BED21FEB401ABB94C44839
310
DCACBF0E1C5DA8DA5B2F4DFFD32AD86F543D9E565E7056502E157C00AD2671CD534549AB752FCA9CDA00677A313F04E51B22FF19E57B300579E3C97EB29F682D92935CEC18CF901B7B54FD8C51F362B56FC72FE0B3C1EAE335EDCCBF5AEC39ADB17DC238973F804BA5E6F6BFE7AF1FB32E523BE9F3BD571418E3631DCA4D48
310
5250CF639223210A9446CA30052EDF057BD35F8329C1ECD84552BF0DC8D18BE7BCE23BFE6BD960AB4A7DE79923A103BEBD80F911CBAA2C60DB19B01CF164A5583B772EE6D3FFA56666CBCDA74DC97724A48F9A58967497E489C4D979006FD7A05E227A1EBDD0F737C623387A9C844D3709995625106D157315F8B8392CD4E0
310
A0B9A720C4BE9829CEF37EA1E13111214D53925356365ADA634861B52519DD27A00AEB808EAF0628E6F435519D446F45CF2C9CF5214F0A15B2F6D06B79DA3EE3CBF7F56780D2F4E7EF73A0F5E5B02A38D07DC852C6B7C1FBB6664213E0C39E3EBA7FF4E1AD23EA2829407C85E586727488B751B2DB9502BC7B228A3FD68B6E
310
A65A22397E690AA8D158D7E404EC8CDA235CC3B7D1898680131CEC2CDF2638C65196279577750F15884AEE19F94199155B92B13297978469D4F8D358DF0AEF7631E28DC8F0D9F437D5D39A83B2231A1D52D543813A824EF8D44BCFF2FA6A31BD1E8DAD87F1CCB526B3879935BF59CDADD5C37479BB1CDD4CA7B3556B516589
310
EF352754B706114D9C885EC9131DE6EFEB43D99AFE2391C2F958179413D7CFEF6B1B6DB1E7600F00DE6E5C67454A339A4BA2E0FBA85ED26F045D454F463DBFCE484C2F90F2E5E3666003662ED8F755951A7D1BECD5B30B550B2785C8E7320B7292A4838DDA71BBC863ED7613CAF659337A3354231D4FF4A182A54904C2898C
310
98B28C4AD0CE056CCF332A80986E571EE9DBC305BB5FEB7E509220A58D25CF042D712A806AC0AD0C657FDEF80D2D9CEAA2EE4D1C76F60BFE74219A06527D6F82DF6412526107381E55E353090704D085B52408A8913C4ED159D79BDA71BB4BC506F4831350EB6F975CD22D69BF7AC49B91A2C0A9DDA3D5CA36AD20FC478E37
310
E61844E2352865EBCB61A275A65283CAAA9DD27703B4102F5AF51EF5F573B75CBB5AD38BC845F7A49F82A0966A49C2E3EA5EA0ECD326CD965F1DB402C6FA8B51A4658C5C5E2EC9E214602E55810345408596591009A82E7E7FFACA19EEA299B14A0081A705CB3296EBC14CDF658DCD336EA6D1136881AAEB87B81AB9EE53D5
310
F5EB8BC8362082DA24122F98680A4E7930C01A0079749CEA14382A0783E5EBA5A10F8C098456A03D6A4AEB6BB881E2513747552A5DB22C7EDAF83BD5528081A365F7FF06504B0304140006080000CC70623B000000000000000000000000350000006662782F41393633353835312D344632462D344230382D423046372D37
310
39314545314133324237412F76657274696365732E62696E504B0304140006080800CC70623BF270F1330600000004000000360000006662782F41393633353835312D344632462D344230382D423046372D3739314545314133324237412F747269616E676C65732E62696E636660600000504B0304140006080000CC7062
310
3B000000000000000000000000370000006662782F41393633353835312D344632462D344230382D423046372D3739314545314133324237412F617474726962757465732E62696E504B0304140006080800CC70623B08DA0BD19000000041010000360000006662782F41393633353835312D344632462D344230382D4230
310
46372D3739314545314133324237412F6469726563746F72792E786D6C858F410AC3201045AF22B36F53E9A60B35CBEEBAE80D244E44489C6234F4F835464A48035D0DF398FF9F8AF63D0E6CC63039F212F8F9020C7D47C6792B21C5FE7403D62A1188E2E60C98D7234A5830286103A55745067B9D86B8A3CF9C7F90C11DE6
310
07FB144396D7B6A82D282E9A152AD114D5EF2CB866EEE831B8EEA07A7BB5A8D7D61A2BAAEB7FD5F70921FF497D00504B0304140006080800CC70623BEDD1DC58FD000000A00100003B0000006662782F41393633353835312D344632462D344230382D423046372D3739314545314133324237412F7265736F75726365732F
310
636F72652E786D6C8D504B6E833010BD0A9A6D65B00922041947112427E8052C33A156828DFCA97AFC9A40A576D7CDCCE87D344F8F9FBFE667F689CE6B6B3A6039850C8DB2A336530731DC4903D95970676DF82583CCC8193B5861107C72362E3BA4AC096842428D1D7107A5F7182053CF7474E0D507CE32973124857FE48B
310
540F3961CEF244279DE03EB81420DB9EAC1384436FA353E879B1B182C7A8C75DA3C7F453DF353A1075D537A7BA6464B8F535A99AE14A9A2BBD90E350DD183B5CFABE3AF262350B1EF4FC9351399401471025A527C218A1E53BAB5A5AB765F5469B96525EACF23FA6B88CFF34456DC2A1DCE36E360F82A5202F42F062ED2BAD
310
579969AFDD8A6F504B010214000A0000080000CC70623B3DEE336E79000000790000001B00000000000000000000000000000000006175746F6465736B2D64657369676E2D7061636B6167652E786D6C504B01021400140006080800CC70623BD486FD9CA0000000F40000001300000000000000000000000000B20000005B
310
436F6E74656E745F54797065735D2E786D6C504B01021400140006080800CC70623B853B8169EB0000007C010000080000000000000000000000000083010000636F72652E786D6C504B01021400140006080800CC70623B55019EA25F0000007C000000070000000000000000000000000094020000636E782E786D6C504B
310
01021400140006080800CC70623BDBABAAF470010000D40300000C00000000000000000000000000180300006662782F636F72652E786D6C504B01021400140006080800CC70623B9C113CC27E0000009D0000000B00000000000000000000000000B20400006662782F636E782E786D6C504B01021400140006080800CC70
310
623B7DF2F77C2A010000120200003100000000000000000000000000590500006662782F41393633353835312D344632462D344230382D423046372D3739314545314133324237412F636F72652E786D6C504B01021400140006080800CC70623BAD7543B64E010000330300003000000000000000000000000000D2060000
310
6662782F41393633353835312D344632462D344230382D423046372D3739314545314133324237412F636E782E786D6C504B01021400140006080800CC70623BE75B7789680500003C10000034000000000000000000000000006E0800006662782F41393633353835312D344632462D344230382D423046372D3739314545
310
314133324237412F6F626A656374732E786D6C504B01021400140006080000CC70623B0000000000000000000000003500000000000000000000000000280E00006662782F41393633353835312D344632462D344230382D423046372D3739314545314133324237412F76657274696365732E62696E504B01021400140006
310
080800CC70623BF270F133060000000400000036000000000000000000000000007B0E00006662782F41393633353835312D344632462D344230382D423046372D3739314545314133324237412F747269616E676C65732E62696E504B01021400140006080000CC70623B0000000000000000000000003700000000000000
310
000000000000D50E00006662782F41393633353835312D344632462D344230382D423046372D3739314545314133324237412F617474726962757465732E62696E504B01021400140006080800CC70623B08DA0BD1900000004101000036000000000000000000000000002A0F00006662782F41393633353835312D344632
310
462D344230382D423046372D3739314545314133324237412F6469726563746F72792E786D6C504B01021400140006080800CC70623BEDD1DC58FD000000A00100003B000000000000000000000000000E1000006662782F41393633353835312D344632462D344230382D423046372D3739314545314133324237412F7265
310
736F75726365732F636F72652E786D6C504B0506000000000E000E0080040000641100000000
  0
XRECORD
  5
1F8
102
{ACAD_REACTORS
330
1F7
102
}
330
1F7
100
AcDbXrecord
280
     1
 70
     1
 90
429727718
  1
30362254-06B7-45E0-A893-8CFA70E3D6BC
310
504B03040A0000080000CC70623B3DEE336E79000000790000001B0000006175746F6465736B2D64657369676E2D7061636B6167652E786D6C3C3F786D6C2076657273696F6E3D22312E302220656E636F64696E673D227574662D3822203F3E3C666F726D6174733E3C666F726D61743E687474703A2F2F736368656D612E
310
6175746F6465736B2E636F6D2F64657369676E2D7061636B6167652F323030393C2F666F726D61743E3C2F666F726D6174733E504B0304140006080800CC70623BD486FD9CA0000000F4000000130000005B436F6E74656E745F54797065735D2E786D6C7D8EC10E82300C865F65E91D8A1E8C310C0EEA1BF002731658846E
310
D98AC1B77784ABF1D8FE5FBFBF75BBCE937A534CCEB38643598122B6FEE978D0B0485F9C41B54DDD7D022595594E1A469170414C76A4D9A4D207E29CF43ECE46F218070CC6BECC4078ACAA135ACF422C856C0E68EA1BF5669944DDD7BCDE7B1F8E415D77AECB980613C2E4AC91FC167A2B244592486606FC29C8FD7F045B9A
310
EF7053A7E60B504B0304140006080800CC70623B1EC5D7A3EB0000007C01000008000000636F72652E786D6C8D90416EC3201045AF82665B6103C6756C6122AB4D4ED00B204C5C94182C03558F5F9C3852BBEB6A467FFE9B197D71FC9E6FE8CBACC17AD7032D0820E3B41FAD9B7A48F1820F808E52ACDEC75F36404ECDA687
310
4D0629A6D5A76597B477D1B89855E747B38B2A041301E95B6E7A08FAD3CCAA50296647B8168BD2573599823EBB0CA76447F43862C7BCCF5EAC59410E4DDD9C7973C2755553CCCFA4C603E3040F1565ED3B1FDE4E432BCA0D9622DAF9795FAF464533826484B498524CD807E51D79ED187F21878E10516EF63F505AC67F42C9
310
BA58B1FDDD071640D2FCC87D2045B96591CB3DA85CB7DCE40F504B0304140006080800CC70623B55019EA25F0000007C00000007000000636E782E786D6C4DCB3B0E80201045D1AD90E915ED2CF8AC45050C11660C8261F98AB1B07AC9C97D42D718D865D3E909258CFD00CCE24AC6E326A164D74DC0B4128928FF32603847
310
2BA13128B1252AC747C6BAB984FC68F0B87FE8960A5C09FE86CFB69FBA01504B0304140006080800CC70623B8C9102E971010000D40300000C0000006662782F636F72652E786D6CC5535B6E833010BC8AE5DF0A6C08340F1947A84D4ED00B38C6A128602363A31CBFCB234A53A551FA553EC09AD9F5CE8C31DB9E9B1AF5CA
310
7695D1198E428A91D2D214952E33ECDD315861B4E5CC1AE3BE9561A445A3323CC098B3D21ADFCE9034DA29ED00D5A6503328BA4E398C640D8B0C77F253352214DE4145770A5B214FA2546114020D759C75CE8200340D19DE981F0F6746269C33EFAB6266AB02A655C74A59CCF365BADC27CB5D902ED22848F6340DF238A141
310
BE88E2F57B92BFEDF23523433367AE6A2EEAA455C2A902F398D2751045018D3FA264435F3771F242571B4A1919CA6F9A7C5B3CD9E42BED16F12C776AEB308F40C848FC700B1139D4891EF410CEC810227CC6846F8386402064270EF5C5C709A05E49676C024C61FC95EA45ED154CA5211D1FF4FB8291A913A68E9B83EBBB33
310
E2A7673CDE118E5AE8124C0807CB8377834E366998436B950D7A7746DAD846D4CFD978E0F04FD455FC5D49D2D4C6FE9722321F10997F0F32DC47FE05504B0304140006080800CC70623BFFEA85907E0000009D0000000B0000006662782F636E782E786D6C4DCCD10A83201886E15B91FFDC95D95A811AB6F23E625948A6C3
310
E9D8E5AF46073BFAE0E1E365ED67B3E8ADC3CB78C7815C7240DA3DFC64DCC221C519D7805AC182F7F1EF06C88D9BE6703008B6049F9E274D7A1E938DBB5AE3D6131B2589BA0D3D965551E0B2EA732C9B9A624AAEB41E3A557677029960D9AFB4EF11165F504B0304140006080800CC70623B4FEEA4082C0100001202000031
310
0000006662782F39464131463745442D413632322D343644302D413938332D3331353338454246344243312F636F72652E786D6C8D515B6EC32010BC0AE2AB55850DD871ED0813254D72825EC00192A2C460F1A872FC42ED48ED5F7E00CDCECCCEB26C731F6FE05B39AFADE921293004CA082BB5B9F43086336A21D870E6AC
310
0D7F68109861543DCC30E4ECE26C9C164858139409093556AA051CBC570102714B8F1E7AF1A5C6A11862480C7F2DA6415C878B2A4891CA89C7990F2E050073937C42DE1DB7E4F87ED8A36D4329AA9B3D46DBAEAD504556557BD81DEBDD0761E52CE42C462D17B996298E3E6BE59E35C962CE821E1FF18553435012728A7187
310
0841987E927A8D9B35ADDF70BBC6989599FE4F1427F9A4286A132ABAC49D651EF234CD5CE04CDA78BA3DC2A8FB645D00B9DF8B57E215725C60BCA2A463E54C4CE327C7A65E1C7DB02E7DEFCBF594B864C5CA6CDBD49C957943E9FA5D5FBAF336F90F504B0304140006080800CC70623BAD7543B64E01000033030000300000
310
006662782F39464131463745442D413632322D343644302D413938332D3331353338454246344243312F636E782E786D6CD593CD6EC32010845F0571AD6CE3D48AD20813A9873E410FBD12D82434182C7EAAE6EDBB2424CD25871E7B41D6EC30B3FA84F9E67BB2E40B4234DE8DB46F1925E094D7C6ED479AD3AE5951B2113C
310
789FEE6C943839C1488B4C05DF079FE72A69D8C96C13AAD6B8631503449F83828872B949AC57D26200B826A308D316B4064D6E46FCDA41C05550DC9E483A00797BFD207EFB092A45DE9514C1BBD22178396BD39D891265658C238DEA00936C654E5E433CB65A26D9F6EDB5EBC14EBF49A45CB856E66048291F6939A9A81BB5
310
C8917738143CA680F4AA299D66A042CEB3354A2684DC9D8D178FE0D9B8B41CAAD720F880EE7EF93C0C18769E099ECC04D5A102C8049A8A05632F4DDF376CF1DE0F6BB65C2F8627B65A33C6BB62177CEBBDAD973006829F89F22E814B54F4BC2BE347F8AA8F681390B50FA73F804400B5F542E796F19FF974E7F78DB802FE05
310
E207504B0304140006080800CC70623B16AB87BA640500003C100000340000006662782F39464131463745442D413632322D343644302D413938332D3331353338454246344243312F6F626A656374732E786D6CAD575B6FA33818FD2B887DE6924B3BED8A326A92B68A663B534DD4D13E548A0C38942D60649B369D5FBFC7
310
600890A493BDE42160637FD7F31D7FF63E6FB3D478A55C242CBF3247B66B1A340F5994E4F19559CA8D75611A9F7D8F33263BCB4C232719BD32D5B4E97B316765A1A722BA21652A07B3B7B33F0D11D29C9A46981221AE4C113ED38CD8A4942CA2E2C58E882476BCD9DA23BB5ED8171B73523C0F841684D35CC252CCE79062D4
310
468DFA43D7747CCF51DF7D4FFDEB5593E3AB9CCA9FBEFE241792E4E19EB28198C968BAB8199F5D5A67D3E9C49A9E8F47D6EC76B6B0469F26EEFC7C3EBFBCBEB98462213924694B38DD98FE1D62C393D073EA4FADC5DAF04326852CCF6958F90F0F2B9BB5C48816348F90C7840A68EB78EDF68723159BCEE7891A6B95DDE9D3
310
BCEAEEE8086A6C6F9E5D4B59F0175C10A7A0820BAA5055C7473B5AE3CFDD452D602CD5DF12616444529E90D448938013FE6EFA58AA96F85E4F8C42275708571E98FE6827AF6B2B4AE3D7D83D64E5A64C53054DD3AF90BD06FEA9149565C94FCA0F6B834DC85599E4F2423B24DF0B6AFA979E534DFA9E7A4CC6FA631D486393
310
921829879BF5D781A373557BCB85E97FB90DB62B558F8795179C15944B051F40AB495CF35451D26A4727654E6D8033BD98EF82F21D91FF8AF2DD9982BCF1643BDD4EB516C9492E368C67C88DED563FC36D5EACF66DFF057C3658BDBFA69DF9578B3DA735B64F18C7F20770A9D45CFCF7FCF563D6456A277DBEF78A02637CA2
310
43B90A490AEAB94F72244481D24819A6C0E59B606BFA4B3025981DBB48EAB701D97BF19C577CC77F2D1B6C55A9EF3C732474C0B727303F625995056C3B02963D9EAC146BE78EC5FCEC7FA999EBC5EACBAAE41B12D27B4D2C0BBA49F244E2ECDC81B76B502F113D8F5EE8FB1BE3111CDD4FC2AA9B844CAB1288B68AB90A7CDC
310
1C166AB0D3DC5310625FCC14E779BFD0709F8890A629C9292B1B2DED31A4B0DA928CEE135085754027E3018A397D4D5427D15BD1330B677DC8934285AC3DF45A9EB68FF8F2B8FC0A509AFEECFD0FF2DE25CC6047F7214B195F07EFEB9A094D800F7BFAE8FED187B78EA8A3A400F115961BCAD1215E47C966530AF0EE8128FE
310
58CEBB996A8964FFA529A046635D9353B0336A8F700DDF46271A024E70B0B37C9DE01847591E54DED53D54202AB947E4076556AC49C6CA5C9E1226B7F1A7B1BE15DEED62C41B91E1B3E9AFAAA735036547343A925075041DF0A9979E893B391F8FCFA6967B3EFB644DCF6E5CEBFAE272625DCC6FAF3FB93793C5F90CE1EF57
310
407342756B10D1C489E8953CD1617E5CEECAD6F4EF8914CE5D5D504E5C3F1F9736DA62CFC11E00BCDDB8CC8A9466349744C1F75EBDA4DF09BA8A9E8C7A7E9991989E20E5DBDD6A6003664ED8F7A04A8DBE0DF6EAD9B9AA858342E47399053949D2C146EDB85DE4B176BB0965FBAC19BD19AA918E27FA50C1D22402E144464C
310
59462568E704B6E71915404CB72B8FF4EDE184DDAF753F284990D2C6926782963815403548A70C657FDEF80D2D9CEAA2AE4C1C76F60BFE74219A06527D6582DF6412526107381E55E353090704D085B52408D0933C4ED159D79BDA71BB4BC506F4831350EB6F979CD22D69BF7AC49B91A2C0A9DDA3D5CA36AD20FC478E37E6
310
1844E2352865EBCB6EA275A652E3836BE04EFB400BF1A2556F515F1FBB35B2AB35BD889C744FFA1004B5544B121E57F70215746DD2F5E2C1412B602CBF19455AC6C8E5E9922C4E01E65215385004546899059180EAFCF7A707CE7017CD8CDB0410789AB32C63B91E5CEBBBACB17AC6CD347A022D5075FD106377347AAABA7E
310
7D11590744509B44E205134DC1290F06580320F78E537D3D73540E06CB970B431F185308AD40BBD794D6D77003C5A36E8EAA54BA64597CD8F83BD552A080A365F7FF06504B0304140006080000CC70623B000000000000000000000000350000006662782F39464131463745442D413632322D343644302D413938332D3331
310
353338454246344243312F76657274696365732E62696E504B0304140006080800CC70623BF270F1330600000004000000360000006662782F39464131463745442D413632322D343644302D413938332D3331353338454246344243312F747269616E676C65732E62696E636660600000504B0304140006080000CC70623B
310
000000000000000000000000370000006662782F39464131463745442D413632322D343644302D413938332D3331353338454246344243312F617474726962757465732E62696E504B0304140006080800CC70623B08DA0BD19000000041010000360000006662782F39464131463745442D413632322D343644302D413938
310
332D3331353338454246344243312F6469726563746F72792E786D6C858F410AC3201045AF22B36F53E9A60B35CBEEBAE80D244E44489C6234F4F835464A48035D0DF398FF9F8AF63D0E6CC63039F212F8F9020C7D47C6792B21C5FE7403D62A1188E2E60C98D7234A5830286103A55745067B9D86B8A3CF9C7F90C11DE607
310
FB144396D7B6A82D282E9A152AD114D5EF2CB866EEE831B8EEA07A7BB5A8D7D61A2BAAEB7FD5F70921FF497D00504B0304140006080800CC70623B0D6EF93BFE000000A00100003B0000006662782F39464131463745442D413632322D343644302D413938332D3331353338454246344243312F7265736F75726365732F63
310
6F72652E786D6C8D50596E833010BD0A9ADFCA60B334011947A8694ED00B586642AC041B79A97AFC9A40A5F6AF3F33A3B7689E1E3F7DCD8FEC139DD7D6F4C0720A191A65476DA61E62B892236427C19DB5E1970C322367EC618541F0C9D9B8EC90B226A009093576C41D94DE63804C3DD2D18357379C652E63480A7FCF17A9
310
EE72C29CE5894E3AC17D702940B63D59270887DE46A7D0F36263058F518FBB468FE9A7BE6A7420864373B8D4873369AA8691FA421B3294352543C5CAF65C0F6FEF43CB8BD52C78D0F34F46E550061C419494B6843142CB0F5677F4B52BEB177AEC28E5C52AFF638ACBF84F53D42654E51E77B379102C05791282176B5F693D
310
CB4C7BED567C03504B010214000A0000080000CC70623B3DEE336E79000000790000001B00000000000000000000000000000000006175746F6465736B2D64657369676E2D7061636B6167652E786D6C504B01021400140006080800CC70623BD486FD9CA0000000F40000001300000000000000000000000000B20000005B
310
436F6E74656E745F54797065735D2E786D6C504B01021400140006080800CC70623B1EC5D7A3EB0000007C010000080000000000000000000000000083010000636F72652E786D6C504B01021400140006080800CC70623B55019EA25F0000007C000000070000000000000000000000000094020000636E782E786D6C504B
310
01021400140006080800CC70623B8C9102E971010000D40300000C00000000000000000000000000180300006662782F636F72652E786D6C504B01021400140006080800CC70623BFFEA85907E0000009D0000000B00000000000000000000000000B30400006662782F636E782E786D6C504B01021400140006080800CC70
310
623B4FEEA4082C0100001202000031000000000000000000000000005A0500006662782F39464131463745442D413632322D343644302D413938332D3331353338454246344243312F636F72652E786D6C504B01021400140006080800CC70623BAD7543B64E010000330300003000000000000000000000000000D5060000
310
6662782F39464131463745442D413632322D343644302D413938332D3331353338454246344243312F636E782E786D6C504B01021400140006080800CC70623B16AB87BA640500003C1000003400000000000000000000000000710800006662782F39464131463745442D413632322D343644302D413938332D3331353338
310
454246344243312F6F626A656374732E786D6C504B01021400140006080000CC70623B0000000000000000000000003500000000000000000000000000270E00006662782F39464131463745442D413632322D343644302D413938332D3331353338454246344243312F76657274696365732E62696E504B01021400140006
310
080800CC70623BF270F133060000000400000036000000000000000000000000007A0E00006662782F39464131463745442D413632322D343644302D413938332D3331353338454246344243312F747269616E676C65732E62696E504B01021400140006080000CC70623B0000000000000000000000003700000000000000
310
000000000000D40E00006662782F39464131463745442D413632322D343644302D413938332D3331353338454246344243312F617474726962757465732E62696E504B01021400140006080800CC70623B08DA0BD190000000410100003600000000000000000000000000290F00006662782F39464131463745442D413632
310
322D343644302D413938332D3331353338454246344243312F6469726563746F72792E786D6C504B01021400140006080800CC70623B0D6EF93BFE000000A00100003B000000000000000000000000000D1000006662782F39464131463745442D413632322D343644302D413938332D3331353338454246344243312F7265
310
736F75726365732F636F72652E786D6C504B0506000000000E000E0080040000641100000000
  0
XRECORD
  5
175
102
{ACAD_REACTORS
330
173
102
}
330
173
100
AcDbXrecord
280
     1
270
     1
271
     1
  0
XRECORD
  5
174
102
{ACAD_REACTORS
330
173
102
}
330
173
100
AcDbXrecord
280
     1
270
     1
271
     1
  0
XRECORD
  5
1FB
102
{ACAD_REACTORS
330
173
102
}
330
173
100
AcDbXrecord
280
     1
 70
     0
 90
1673772943
  1
ECE7A1D2-D628-4531-984C-D00F80459256
310
504B03040A0000080000CC70623B3DEE336E79000000790000001B0000006175746F6465736B2D64657369676E2D7061636B6167652E786D6C3C3F786D6C2076657273696F6E3D22312E302220656E636F64696E673D227574662D3822203F3E3C666F726D6174733E3C666F726D61743E687474703A2F2F736368656D612E
310
6175746F6465736B2E636F6D2F64657369676E2D7061636B6167652F323030393C2F666F726D61743E3C2F666F726D6174733E504B0304140006080800CC70623BD486FD9CA0000000F4000000130000005B436F6E74656E745F54797065735D2E786D6C7D8EC10E82300C865F65E91D8A1E8C310C0EEA1BF002731658846E
310
D98AC1B77784ABF1D8FE5FBFBF75BBCE937A534CCEB38643598122B6FEE978D0B0485F9C41B54DDD7D022595594E1A469170414C76A4D9A4D207E29CF43ECE46F218070CC6BECC4078ACAA135ACF422C856C0E68EA1BF5669944DDD7BCDE7B1F8E415D77AECB980613C2E4AC91FC167A2B244592486606FC29C8FD7F045B9A
310
EF7053A7E60B504B0304140006080800CC70623BD9DDAED0EC0000007C01000008000000636F72652E786D6C8D90416EC3201045AF82665B61836D9CD8C2444DD39CA01740405C94182C03558F5F9C3852BBEB6A467FFE9B197D7EF89E6EE8CB2CC17A37002D0820E394D7D68D03A478C17B4007C117EFE32F1B20272733C0
310
2A83E0E3E2D3BC49CABB685CCCAAF3DA6CA20CC14440EA969B0182FA34932C648AD911AEC52CD5558EA6A0CF2EC329598D1E47ACCEFBECC59A050463A7EA5833865FEBDD0E37353BE3EE8DBDE3F6786A48D375FBF6CC78B9C282473B3DEFABC5C86834888A900E538A49F5419B9EB47DD5BC907D4F082F57FB1F28CDFA9F50
310
B22ED6D5F6EE030B20687EE43E10BC5CB3C8E51E54AE6B6EE207504B0304140006080800CC70623B55019EA25F0000007C00000007000000636E782E786D6C4DCB3B0E80201045D1AD90E915ED2CF8AC45050C11660C8261F98AB1B07AC9C97D42D718D865D3E909258CFD00CCE24AC6E326A164D74DC0B4128928FF326038
310
472BA13128B1252AC747C6BAB984FC68F0B87FE8960A5C09FE86CFB69FBA01504B0304140006080800CC70623BA24EB22D72010000D40300000C0000006662782F636F72652E786D6CC5535B6E833010BC8AE5DF0A6C5E49888CA3A6694ED00B38E05014B091B1518EDFE511A5A9D228FD2A1F60CDEC7A67C6986DCE4D8D7A
310
69BA4AAB0C073EC548AA5C17952A33ECECD15B61B4E1CC686DBF9561A44423333CC098B3D268D7CE50AE9595CA02AA74216750749DB418E5352C32DCE59FB211BE70162ABA93DF8AFC244AE9073ED050C759670D0840D390E18DF9F1706664C23973AE2A66B62A605A75ACA4C13C4976E1364A12EF355A2EBD384AF65EFA96
310
BC7B8BED2EA6719AAE16FB8491A199335B351775B991C2CA02F390D2D40B028F861F41BCA68B7518BFD0D59A524686F29B26D7164F36B94AD9289CE54E6D1DE6010819891F6E21228B3AD1831EC219194284CF98F06DD01008846CC5A1BEF83801D4CBDC6A1303536877A57A513B0953A94FC707FDBE6064EA84A9E3E6E0FA
310
EE8CF0E9198F7784A316AA0413C2C2F2E0ECA0934D1AE6D05A69BCDE9E91D2A611F573361E38FC1375157F5752AE6B6DFE4B11990F88CCBF0719EE23FF02504B0304140006080800CC70623B408A7D3B7C0000009D0000000B0000006662782F636E782E786D6C4DCCD10A83201886E15B91FFDC552A92A0064DBC8F581632
310
D3703A76F9ABD1C18E3E78F878E5F0D9027ABBFCF2292AE86E2D20171F69F6715550CB827B40839639A5F2770314A7CD293819B45C73AAFB45B35BA61ACAA1C1C7E7855C58C15BC331339661262CC762340413D68D77DA5B42298546CBE6573AF60CEB2F504B0304140006080800CC70623B449FB9BD290100001202000031
310
0000006662782F36394639363044362D344446342D343946362D394244322D3234314243333846323333332F636F72652E786D6C8D515B6EC32010BC0AE22B55850D98B871848994463E412FE002495162B07854397EA176A4F62F3F2C9A9D991D587EB84F37F0AD7D30CEF6905418026DA553C65E7A98E219ED203808EE9D
310
8B7F6810D871D23D2C3014FCE25D9A57483A1BB58D19B54EE9151C43D0110279CB971E06F9A5A7B11A53CC8C70ADE6515EC78BAE4895DB992778883E0700CB907242D17643D7E2538BD869608875438BBAE38922CAC8F1BDD90DB4691A5E2F42C153326A951B95E398B3D1FE599322163C9AE9115F7A3D46ADA0A018778810
310
84E907617BDCEE297BC5BB3DC6BC2EF47FA234AB2745C9D8D8D035EE220B50105E2F0DC1954B9FB747187D9F9D8FA0CCDB042D5FA0C015C65B42DF78BD10F3F3B363CB56C7109DCFDFBBB97E662ED92EB62D13BC2E1BCAE5777DB9966D8A1F504B0304140006080800CC70623BAD7543B64E01000033030000300000006662
310
782F36394639363044362D344446342D343946362D394244322D3234314243333846323333332F636E782E786D6CD593CD6EC32010845F0571AD6CE3D48AD20813A9873E410FBD12D82434182C7EAAE6EDBB2424CD25871E7B41D6EC30B3FA84F9E67BB2E40B4234DE8DB46F1925E094D7C6ED479AD3AE5951B2113C789FEE
310
6C943839C1488B4C05DF079FE72A69D8C96C13AAD6B8631503449F83828872B949AC57D26200B826A308D316B4064D6E46FCDA41C05550DC9E483A00797BFD207EFB092A45DE9514C1BBD22178396BD39D891265658C238DEA00936C654E5E433CB65A26D9F6EDB5EBC14EBF49A45CB856E66048291F6939A9A81BB5C89177
310
38143CA680F4AA299D66A042CEB3354A2684DC9D8D178FE0D9B8B41CAAD720F880EE7EF93C0C18769E099ECC04D5A102C8049A8A05632F4DDF376CF1DE0F6BB65C2F8627B65A33C6BB62177CEBBDAD973006829F89F22E814B54F4BC2BE347F8AA8F681390B50FA73F804400B5F542E796F19FF974E7F78DB802FE05E20750
310
4B0304140006080800CC70623B8D05915C650500003B100000340000006662782F36394639363044362D344446342D343946362D394244322D3234314243333846323333332F6F626A656374732E786D6CAD575B6FA33814FE2B887D06429276DA1565D4266D158D3A339A6846FB502932E050B66023DB74D2FDF5FB190C01
310
9276B2973C046C8ECFF53B17071F77456EBD502133CEAE6CDF9DD81665314F32965ED995DA3A17B6F5310C04E7AA47665B8C14F4CAD6DB7618A48257A5D94AE89654B91AEDDEDDFC61C998326A5B714EA4BCB265FC440BE2924AF184CA6737218AB8E976E7FA6E4338649B0A523E8D98964450A6A029F619B8588D52FE7039
310
B1BD30F0F4F730D0FF866AF6369557DB33949F31A9088B0F848DD8CCFCF9F2767A76E99CCDE733677E3EF59D9BBB9BA5E37F984D16E78BC5E5F5ED25044B25C0C96822E8D60EEFE11B91C581D77CEA34368A1F5329E68CD1B8B61F16D63A1B8E092D294B10C78C4A48EB593D192E7DED9BDEE7995E1B91FDEDD3ACEA9FE831
310
6A756F9F7D4D79F4274C90A7A04248AA51D5F8C718DAE06FB2F75AC4796EBE65D22A88A22223B995679120E2D50E41AA49C260C046A35368846B0BECD0DFF3EBEB8AD4F835768F69B9ADF25C43D30E6B646F807FAA64AD59F61715C7A54127C4AACA98BA3006A9D792DAE165E0D59B61A01FB3A9F9D838D2DAE62445C86166
310
F37564E842E7DE6A69879FEEA2DD5AE7E371E1A5E025154AC307D06A03D73EB5978C58FFA4C8E9033066E0F3BD53BEC1F39F91BE7B55103791EDE6BBB991A2046172CB4581D8B893FA674DDA17A77B3B7C413D1B511FD2743BFF8A38F03A658705E3ADF8015C3A3417FF3D7E439FF591DA0B5F18BC20C1B8981957AE6392A3
310
F43C640C01D1A0B4728E2DD4F26DB4B3C3152A252A3B4E913CEC1C72F012782FF88EFF8637AA552DBEF76408E8A8DE9E50F9E1CB3A2DA0DB1B6039A893B56063DC5B3E3FFB5F72E67AB9FEB4AEC496C4F4C1149625DD662C53E89D7BF0F6151A046260D1337DFDC94502430F83B0EE07A130A224BCAD7DAE1D9FB6CD422FF6
310
920702629C4BB9AE79C12F243C6432A6794E18E5552BA56B431AAB5D91317302B2B071E86C3A42B1A02F999E24061403B5D0EB639195DA655DD3EBEAB4FB862DDF579F014AD0E73C22F99E28DA57FB98E75C6CA2D74D53086D600F4786E0FE3144B771A8A7B900F03594DB8A633CBC49B2EDB69228BB479CF863B5E807AAAB
310
23872F6DFEB4129B949CA33823F58830E86D65621E10047D9DB34D862E8EAC3C2ABC2F7B2C40D67CDFE01F5545B92105AF983AC54D93D69E56FB8E797F88913F898A9FEC705D3F9D1B54EC8426FB500D40A03BD0119B06E1B95DDC7EB8F6975367793EBD70E66733DFB9BC982F9CE564727731999F5D4ECFCE3B8D6A4DC2A0
310
6D50FD148437D110834A64C6CDDF57FBACB5C307A2A477DFE4939736CFEF2B175371E0E10CF0DD1D5C15654E0BCA14D1E87DD02FF93782A162C0A3D95F1524A52770F972BF1EE9809D13CE7DD599467F8ECE9ADD85CE85A34CD45355448C64F9E8A031DC2D596ACC6E5DD93D9B82DE2EF5CAF81363A8E47996A0DE24564A79
310
4115AACE09C55E14540231FDA13C319787134EBF34E3A022514E5B4D9E0826E25C02D5805B15ABE1BEF51B26383D445DD9E875EE33FE4C22DA16427D65A3BCA92CA6D28DD01DF5DC53330704308475351050232CCD31583787BA75774AFB06E5070DD0C8EF484E19968C5D83BA5B90B244D31E54D55A372320FE4786B7EA58
310
44E135AA5467CB7EA333A61683CC6A8C3257034C10CF46F40EF9F5BE59BE5BD30C3C72D235E95D10345C1D45445A5F0BB47E46A5EBE5570F9380B5FA629579952296A773720405982B9DE04011506178964401AA8BDF1FBF0A8EAB6861DD6580C0E38217056766716DAEB2D6FA0917D3E4116581EADB879C4E7CFFB11EFACD
310
3D641311495D92C8676CB409A72D18610D803CE8A626049E8EC1887CB5B44CC39883690DDA8399B4B9855B481E7D71D4A9D22F96E5BB73BF5793020C02137BF837504B0304140006080000CC70623B000000000000000000000000350000006662782F36394639363044362D344446342D343946362D394244322D32343142
310
43333846323333332F76657274696365732E62696E504B0304140006080800CC70623BF270F1330600000004000000360000006662782F36394639363044362D344446342D343946362D394244322D3234314243333846323333332F747269616E676C65732E62696E636660600000504B0304140006080000CC70623B0000
310
00000000000000000000370000006662782F36394639363044362D344446342D343946362D394244322D3234314243333846323333332F617474726962757465732E62696E504B0304140006080800CC70623B08DA0BD19000000041010000360000006662782F36394639363044362D344446342D343946362D394244322D
310
3234314243333846323333332F6469726563746F72792E786D6C858F410AC3201045AF22B36F53E9A60B35CBEEBAE80D244E44489C6234F4F835464A48035D0DF398FF9F8AF63D0E6CC63039F212F8F9020C7D47C6792B21C5FE7403D62A1188E2E60C98D7234A5830286103A55745067B9D86B8A3CF9C7F90C11DE607FB14
310
4396D7B6A82D282E9A152AD114D5EF2CB866EEE831B8EEA07A7BB5A8D7D61A2BAAEB7FD5F70921FF497D00504B0304140006080800CC70623BCA768048FE000000A00100003B0000006662782F36394639363044362D344446342D343946362D394244322D3234314243333846323333332F7265736F75726365732F636F72
310
652E786D6C8D50596E833010BD0A9ADFCA60D600328E9AA639412F609909B1126CE4A5EAF16B0295DABFFECC8CDEA2797AECF8353F924FB44E193D409E5248504B332A3D0D10FC95B4901C39B3C6F85F3248B49871801506CE266BC2B243D2688FDA47549B11775038871E12F988C7004EDE7016A9083E2ADC3D5D84BC8B09
310
D33C8D74D471E6BC8D0192EDC93A815B742658898E651BCB59086ADC356A8C3FD555A1055ED7E7E254D615792D0F075295F585746FF53B694EE78A565DD736979A65AB9933AFE69F8CD2A2F038022F28ED489E135A7CE4554F9BBEA85E68DB53CAB255FEC71496F19FA6A0B42F8B3DEE6673C0F318E4497096AD7DC5F52C33
310
EEB55BFE0D504B010214000A0000080000CC70623B3DEE336E79000000790000001B00000000000000000000000000000000006175746F6465736B2D64657369676E2D7061636B6167652E786D6C504B01021400140006080800CC70623BD486FD9CA0000000F40000001300000000000000000000000000B20000005B436F
310
6E74656E745F54797065735D2E786D6C504B01021400140006080800CC70623BD9DDAED0EC0000007C010000080000000000000000000000000083010000636F72652E786D6C504B01021400140006080800CC70623B55019EA25F0000007C000000070000000000000000000000000095020000636E782E786D6C504B0102
310
1400140006080800CC70623BA24EB22D72010000D40300000C00000000000000000000000000190300006662782F636F72652E786D6C504B01021400140006080800CC70623B408A7D3B7C0000009D0000000B00000000000000000000000000B50400006662782F636E782E786D6C504B01021400140006080800CC70623B
310
449FB9BD290100001202000031000000000000000000000000005A0500006662782F36394639363044362D344446342D343946362D394244322D3234314243333846323333332F636F72652E786D6C504B01021400140006080800CC70623BAD7543B64E010000330300003000000000000000000000000000D20600006662
310
782F36394639363044362D344446342D343946362D394244322D3234314243333846323333332F636E782E786D6C504B01021400140006080800CC70623B8D05915C650500003B10000034000000000000000000000000006E0800006662782F36394639363044362D344446342D343946362D394244322D32343142433338
310
46323333332F6F626A656374732E786D6C504B01021400140006080000CC70623B0000000000000000000000003500000000000000000000000000250E00006662782F36394639363044362D344446342D343946362D394244322D3234314243333846323333332F76657274696365732E62696E504B010214001400060808
310
00CC70623BF270F13306000000040000003600000000000000000000000000780E00006662782F36394639363044362D344446342D343946362D394244322D3234314243333846323333332F747269616E676C65732E62696E504B01021400140006080000CC70623B00000000000000000000000037000000000000000000
310
00000000D20E00006662782F36394639363044362D344446342D343946362D394244322D3234314243333846323333332F617474726962757465732E62696E504B01021400140006080800CC70623B08DA0BD190000000410100003600000000000000000000000000270F00006662782F36394639363044362D344446342D
310
343946362D394244322D3234314243333846323333332F6469726563746F72792E786D6C504B01021400140006080800CC70623BCA768048FE000000A00100003B000000000000000000000000000B1000006662782F36394639363044362D344446342D343946362D394244322D3234314243333846323333332F7265736F
310
75726365732F636F72652E786D6C504B0506000000000E000E0080040000621100000000
  0
XRECORD
  5
176
102
{ACAD_REACTORS
330
173
102
}
330
173
100
AcDbXrecord
280
     1
270
     1
271
     1
  0
XRECORD
  5
177
102
{ACAD_REACTORS
330
173
102
}
330
173
100
AcDbXrecord
280
     1
270
     1
271
     1
  0
CELLSTYLEMAP
  5
2D9
102
{ACAD_REACTORS
330
162
102
}
330
162
100
AcDbCellStyleMap
 90
        3
300
CELLSTYLE
  1
TABLEFORMAT_BEGIN
 90
        5
170
     1
 91
        0
 92
    32768
 62
   257
 93
        1
300
CONTENTFORMAT
  1
CONTENTFORMAT_BEGIN
 90
        0
 91
        0
 92
      512
 93
        0
300

 40
0.0
140
1.0
 94
        5
 62
     0
340
11
144
6.0
309
CONTENTFORMAT_END
171
     1
301
MARGIN
  1
CELLMARGIN_BEGIN
 40
1.5
 40
1.5
 40
1.5
 40
1.5
 40
4.5
 40
4.5
309
CELLMARGIN_END
 94
        6
 95
        1
302
GRIDFORMAT
  1
GRIDFORMAT_BEGIN
 90
        0
 91
        1
 62
     0
 92
       -2
340
14
 93
        0
 40
1.125
309
GRIDFORMAT_END
 95
        2
302
GRIDFORMAT
  1
GRIDFORMAT_BEGIN
 90
        0
 91
        1
 62
     0
 92
       -2
340
14
 93
        0
 40
1.125
309
GRIDFORMAT_END
 95
        4
302
GRIDFORMAT
  1
GRIDFORMAT_BEGIN
 90
        0
 91
        1
 62
     0
 92
       -2
340
14
 93
        0
 40
1.125
309
GRIDFORMAT_END
 95
        8
302
GRIDFORMAT
  1
GRIDFORMAT_BEGIN
 90
        0
 91
        1
 62
     0
 92
       -2
340
14
 93
        0
 40
1.125
309
GRIDFORMAT_END
 95
       16
302
GRIDFORMAT
  1
GRIDFORMAT_BEGIN
 90
        0
 91
        1
 62
     0
 92
       -2
340
14
 93
        0
 40
1.125
309
GRIDFORMAT_END
 95
       32
302
GRIDFORMAT
  1
GRIDFORMAT_BEGIN
 90
        0
 91
        1
 62
     0
 92
       -2
340
14
 93
        0
 40
1.125
309
GRIDFORMAT_END
309
TABLEFORMAT_END
  1
CELLSTYLE_BEGIN
 90
        1
 91
        1
300
_TITLE
309
CELLSTYLE_END
300
CELLSTYLE
  1
TABLEFORMAT_BEGIN
 90
        5
170
     1
 91
        0
 92
        0
 62
   257
 93
        1
300
CONTENTFORMAT
  1
CONTENTFORMAT_BEGIN
 90
        0
 91
        0
 92
      512
 93
        0
300

 40
0.0
140
1.0
 94
        5
 62
     0
340
11
144
4.5
309
CONTENTFORMAT_END
171
     1
301
MARGIN
  1
CELLMARGIN_BEGIN
 40
1.5
 40
1.5
 40
1.5
 40
1.5
 40
4.5
 40
4.5
309
CELLMARGIN_END
 94
        6
 95
        1
302
GRIDFORMAT
  1
GRIDFORMAT_BEGIN
 90
        0
 91
        1
 62
     0
 92
       -2
340
14
 93
        0
 40
1.125
309
GRIDFORMAT_END
 95
        2
302
GRIDFORMAT
  1
GRIDFORMAT_BEGIN
 90
        0
 91
        1
 62
     0
 92
       -2
340
14
 93
        0
 40
1.125
309
GRIDFORMAT_END
 95
        4
302
GRIDFORMAT
  1
GRIDFORMAT_BEGIN
 90
        0
 91
        1
 62
     0
 92
       -2
340
14
 93
        0
 40
1.125
309
GRIDFORMAT_END
 95
        8
302
GRIDFORMAT
  1
GRIDFORMAT_BEGIN
 90
        0
 91
        1
 62
     0
 92
       -2
340
14
 93
        0
 40
1.125
309
GRIDFORMAT_END
 95
       16
302
GRIDFORMAT
  1
GRIDFORMAT_BEGIN
 90
        0
 91
        1
 62
     0
 92
       -2
340
14
 93
        0
 40
1.125
309
GRIDFORMAT_END
 95
       32
302
GRIDFORMAT
  1
GRIDFORMAT_BEGIN
 90
        0
 91
        1
 62
     0
 92
       -2
340
14
 93
        0
 40
1.125
309
GRIDFORMAT_END
309
TABLEFORMAT_END
  1
CELLSTYLE_BEGIN
 90
        2
 91
        1
300
_HEADER
309
CELLSTYLE_END
300
CELLSTYLE
  1
TABLEFORMAT_BEGIN
 90
        5
170
     1
 91
        0
 92
        0
 62
   257
 93
        1
300
CONTENTFORMAT
  1
CONTENTFORMAT_BEGIN
 90
        0
 91
        0
 92
      512
 93
        0
300

 40
0.0
140
1.0
 94
        2
 62
     0
340
11
144
4.5
309
CONTENTFORMAT_END
171
     1
301
MARGIN
  1
CELLMARGIN_BEGIN
 40
1.5
 40
1.5
 40
1.5
 40
1.5
 40
4.5
 40
4.5
309
CELLMARGIN_END
 94
        6
 95
        1
302
GRIDFORMAT
  1
GRIDFORMAT_BEGIN
 90
        0
 91
        1
 62
     0
 92
       -2
340
14
 93
        0
 40
1.125
309
GRIDFORMAT_END
 95
        2
302
GRIDFORMAT
  1
GRIDFORMAT_BEGIN
 90
        0
 91
        1
 62
     0
 92
       -2
340
14
 93
        0
 40
1.125
309
GRIDFORMAT_END
 95
        4
302
GRIDFORMAT
  1
GRIDFORMAT_BEGIN
 90
        0
 91
        1
 62
     0
 92
       -2
340
14
 93
        0
 40
1.125
309
GRIDFORMAT_END
 95
        8
302
GRIDFORMAT
  1
GRIDFORMAT_BEGIN
 90
        0
 91
        1
 62
     0
 92
       -2
340
14
 93
        0
 40
1.125
309
GRIDFORMAT_END
 95
       16
302
GRIDFORMAT
  1
GRIDFORMAT_BEGIN
 90
        0
 91
        1
 62
     0
 92
       -2
340
14
 93
        0
 40
1.125
309
GRIDFORMAT_END
 95
       32
302
GRIDFORMAT
  1
GRIDFORMAT_BEGIN
 90
        0
 91
        1
 62
     0
 92
       -2
340
14
 93
        0
 40
1.125
309
GRIDFORMAT_END
309
TABLEFORMAT_END
  1
CELLSTYLE_BEGIN
 90
        3
 91
        2
300
_DATA
309
CELLSTYLE_END
  0
ENDSEC
  0
SECTION
  2
ACDSDATA
 70
     2
 71
     8
  0
ACDSSCHEMA
 90
        0
  1
AcDb_Thumbnail_Schema
  2
AcDbDs::ID
280
    10
 91
        8
  2
Thumbnail_Data
280
    15
 91
        0
101
ACDSRECORD
 95
        0
 90
        1
  2
AcDbDs::TreatedAsObjectData
280
     1
291
     1
101
ACDSRECORD
 95
        0
 90
        2
  2
AcDbDs::Legacy
280
     1
291
     1
101
ACDSRECORD
  1
AcDbDs::ID
 90
        3
  2
AcDs:Indexable
280
     1
291
     1
101
ACDSRECORD
  1
AcDbDs::ID
 90
        4
  2
AcDbDs::HandleAttribute
280
     7
282
     1
  0
ACDSSCHEMA
 90
        1
  1
AcDbDs::TreatedAsObjectDataSchema
  2
AcDbDs::TreatedAsObjectData
280
     1
 91
        0
  0
ACDSSCHEMA
 90
        2
  1
AcDbDs::LegacySchema
  2
AcDbDs::Legacy
280
     1
 91
        0
  0
ACDSSCHEMA
 90
        3
  1
AcDbDs::IndexedPropertySchema
  2
AcDs:Indexable
280
     1
 91
        0
  0
ACDSSCHEMA
 90
        4
  1
AcDbDs::HandleAttributeSchema
  2
AcDbDs::HandleAttribute
280
     7
 91
        1
284
     1
  0
ACDSRECORD
 90
        0
  2
AcDbDs::ID
280
    10
320
22
  2
Thumbnail_Data
280
    15
 94
     1054
310
89504E470D0A1A0A0000000D4948445200000100000000790803000000E1F60FE900000300504C5445212830FFFFFF2128300000000000000000000000000000000000000000000000000000330000660000990000CC0000FF0033000033330033660033990033CC0033FF0066000066330066660066990066CC0066FF0099
310
000099330099660099990099CC0099FF00CC0000CC3300CC6600CC9900CCCC00CCFF00FF0000FF3300FF6600FF9900FFCC00FFFF3300003300333300663300993300CC3300FF3333003333333333663333993333CC3333FF3366003366333366663366993366CC3366FF3399003399333399663399993399CC3399FF33CC00
310
33CC3333CC6633CC9933CCCC33CCFF33FF0033FF3333FF6633FF9933FFCC33FFFF6600006600336600666600996600CC6600FF6633006633336633666633996633CC6633FF6666006666336666666666996666CC6666FF6699006699336699666699996699CC6699FF66CC0066CC3366CC6666CC9966CCCC66CCFF66FF0066
310
FF3366FF6666FF9966FFCC66FFFF9900009900339900669900999900CC9900FF9933009933339933669933999933CC9933FF9966009966339966669966999966CC9966FF9999009999339999669999999999CC9999FF99CC0099CC3399CC6699CC9999CCCC99CCFF99FF0099FF3399FF6699FF9999FFCC99FFFFCC0000CC00
310
33CC0066CC0099CC00CCCC00FFCC3300CC3333CC3366CC3399CC33CCCC33FFCC6600CC6633CC6666CC6699CC66CCCC66FFCC9900CC9933CC9966CC9999CC99CCCC99FFCCCC00CCCC33CCCC66CCCC99CCCCCCCCCCFFCCFF00CCFF33CCFF66CCFF99CCFFCCCCFFFFFF0000FF0033FF0066FF0099FF00CCFF00FFFF3300FF3333
310
FF3366FF3399FF33CCFF33FFFF6600FF6633FF6666FF6699FF66CCFF66FFFF9900FF9933FF9966FF9999FF99CCFF99FFFFCC00FFCC33FFCC66FFCC99FFCCCCFFCCFFFFFF00FFFF33FFFF66FFFF99FFFFCCFFFFFF0000000D0D0D1A1A1A2828283535354343435050505D5D5D6B6B6B787878868686939393A1A1A1AEAEAEBB
310
BBBBC9C9C9D6D6D6E4E4E4F1F1F1FFFFFF0000000000000000000000000000000000000000000000000000000000002E4550F1000000D94944415478DAEDD8310EC230100440FFBFDB1FD3445004C92E22816E670A24A214DCE6EC1C5E0B00F88D88A0F3B9A7BA01922B80645507B0ADFF9DD4C004AE8F5DF9637BE4A4B24C
310
5E2479F8BE91014C5E01FB7C92B901E4EC9EACB1AF0073A051182C72C0063072587AE6A71B1701000000803F577E8AE914170000C0FF5F3400604B90405900114077F94501E4CBD7A2FAD3DEFAF700D21D0060E0B10B0200CC9DFEDACFBB4CFF02B001084000BDF5A7BDFEB4D71FF5ABDF045459FFD1A5AAE7DFD512295F13
310
F76253D7009F9740E7DB2066610000267B0108B164D3D47119890000000049454E44AE426082
  0
ENDSEC
  0
EOF
