  0
SECTION
  2
HEADER
  9
$ACADVER
  1
AC1018
  9
$ACADMAINTVER
 70
     0
  9
$DWGCODEPAGE
  3
ANSI_1252
  9
$EXTMIN
 10
22804.9833665782
 20
37666.6468459843
 30
0.0
  9
$EXTMAX
 10
31012.0074117926
 20
43465.6268105809
 30
0.0
  9
$LIMMIN
 10
0.0
 20
0.0
  9
$LIMMAX
 10
12.0
 20
9.0
  9
$ORTHOMODE
 70
     0
  9
$REGENMODE
 70
     1
  9
$FILLMODE
 70
     1
  9
$QTEXTMODE
 70
     0
  9
$MIRRTEXT
 70
     1
  9
$LTSCALE
 40
1.0
  9
$ATTMODE
 70
     1
  9
$TEXTSIZE
 40
0.2
  9
$TRACEWID
 40
0.05
  9
$TEXTSTYLE
  7
Standard
  9
$CLAYER
  8
0
  9
$CELTYPE
  6
ByLayer
  9
$CECOLOR
 62
   256
  9
$CELTSCALE
 40
1.0
  9
$DISPSILH
 70
     0
  9
$LUNITS
 70
     2
  9
$LUPREC
 70
     4
  9
$SKETCHINC
 40
0.1
  9
$FILLETRAD
 40
0.5
  9
$AUNITS
 70
     0
  9
$AUPREC
 70
     0
  9
$MENU
  1
.
  9
$ELEVATION
 40
0.0
  9
$PELEVATION
 40
0.0
  9
$THICKNESS
 40
0.0
  9
$LIMCHECK
 70
     0
  9
$CHAMFERA
 40
0.5
  9
$CHAMFERB
 40
0.5
  9
$CHAMFERC
 40
1.0
  9
$CHAMFERD
 40
0.0
  9
$SKPOLY
 70
     0
  9
$ANGBASE
 50
0.0
  9
$ANGDIR
 70
     0
  9
$PDMODE
 70
     0
  9
$PDSIZE
 40
0.0
  9
$PLINEWID
 40
0.0
  9
$SPLFRAME
 70
     0
  9
$SPLINETYPE
 70
     6
  9
$SPLINESEGS
 70
     8
  9
$HANDSEED
  5
00020212
  9
$SURFTAB1
 70
     6
  9
$SURFTAB2
 70
     6
  9
$SURFTYPE
 70
     6
  9
$SURFU
 70
     6
  9
$SURFV
 70
     6
  9
$UCSBASE
  2

  9
$UCSNAME
  2

  9
$UCSORG
 10
0.0
 20
0.0
 30
0.0
  9
$UCSXDIR
 10
1.0
 20
0.0
 30
0.0
  9
$UCSYDIR
 10
0.0
 20
1.0
 30
0.0
  9
$UCSORTHOREF
  2

  9
$UCSORTHOVIEW
 70
     0
  9
$UCSORGTOP
 10
0.0
 20
0.0
 30
0.0
  9
$UCSORGBOTTOM
 10
0.0
 20
0.0
 30
0.0
  9
$UCSORGLEFT
 10
0.0
 20
0.0
 30
0.0
  9
$UCSORGRIGHT
 10
0.0
 20
0.0
 30
0.0
  9
$UCSORGFRONT
 10
0.0
 20
0.0
 30
0.0
  9
$UCSORGBACK
 10
0.0
 20
0.0
 30
0.0
  9
$PUCSBASE
  2

  9
$PUCSNAME
  2

  9
$PUCSORG
 10
0.0
 20
0.0
 30
0.0
  9
$PUCSXDIR
 10
1.0
 20
0.0
 30
0.0
  9
$PUCSYDIR
 10
0.0
 20
1.0
 30
0.0
  9
$PUCSORTHOREF
  2

  9
$PUCSORTHOVIEW
 70
     0
  9
$PUCSORGTOP
 10
0.0
 20
0.0
 30
0.0
  9
$PUCSORGBOTTOM
 10
0.0
 20
0.0
 30
0.0
  9
$PUCSORGLEFT
 10
0.0
 20
0.0
 30
0.0
  9
$PUCSORGRIGHT
 10
0.0
 20
0.0
 30
0.0
  9
$PUCSORGFRONT
 10
0.0
 20
0.0
 30
0.0
  9
$PUCSORGBACK
 10
0.0
 20
0.0
 30
0.0
  9
$WORLDVIEW
 70
     1
  9
$SHADEDGE
 70
     3
  9
$SHADEDIF
 70
    70
  9
$TILEMODE
 70
     1
  9
$MAXACTVP
 70
    64
  9
$PINSBASE
 10
0.0
 20
0.0
 30
0.0
  9
$PLIMCHECK
 70
     0
  9
$PEXTMIN
 10
1.000000000000000E+20
 20
1.000000000000000E+20
 30
1.000000000000000E+20
  9
$PEXTMAX
 10
-1.000000000000000E+20
 20
-1.000000000000000E+20
 30
-1.000000000000000E+20
  9
$PLIMMIN
 10
0.0
 20
0.0
  9
$PLIMMAX
 10
12.0
 20
9.0
  9
$UNITMODE
 70
     0
  9
$VISRETAIN
 70
     1
  9
$PLINEGEN
 70
     0
  9
$PSLTSCALE
 70
     1
  9
$TREEDEPTH
 70
  3020
  9
$CMLSTYLE
  2
Standard
  9
$CMLJUST
 70
     0
  9
$CMLSCALE
 40
1.0
  9
$PROXYGRAPHICS
 70
     1
  9
$MEASUREMENT
 70
     0
  9
$CELWEIGHT
370
    -1
  9
$ENDCAPS
280
     0
  9
$JOINSTYLE
280
     0
  9
$LWDISPLAY
290
     0
  9
$INSUNITS
 70
     1
  9
$HYPERLINKBASE
  1

  9
$STYLESHEET
  1

  9
$XEDIT
290
     1
  9
$CEPSNTYPE
380
     0
  9
$PSTYLEMODE
290
     1
  9
$EXTNAMES
290
     1
  9
$PSVPSCALE
 40
0.0
  9
$OLESTARTUP
290
     0
  9
$SORTENTS
280
   127
  9
$INDEXCTL
280
     0
  9
$HIDETEXT
280
     1
  9
$XCLIPFRAME
290
     0
  9
$HALOGAP
280
     0
  9
$OBSCOLOR
 70
   257
  9
$OBSLTYPE
280
     0
  9
$INTERSECTIONDISPLAY
280
     0
  9
$INTERSECTIONCOLOR
 70
   257
  9
$DIMASSOC
280
     2
  9
$PROJECTNAME
  1

  0
ENDSEC
  0
SECTION
  2
CLASSES
  0
CLASS
  1
ACDBDICTIONARYWDFLT
  2
AcDbDictionaryWithDefault
  3
ObjectDBX Classes
 90
        0
 91
        4
280
     0
281
     0
  0
ENDSEC
  0
SECTION
  2
TABLES
  0
TABLE
  2
VPORT
  5
8
330
0
100
AcDbSymbolTable
 70
     1
  0
VPORT
  5
29
330
8
100
AcDbSymbolTableRecord
100
AcDbViewportTableRecord
  2
*Active
 70
     0
 10
0.0
 20
0.0
 11
1.0
 21
1.0
 12
80.25
 22
106.4409457059851
 13
0.0
 23
0.0
 14
0.5
 24
0.5
 15
0.5
 25
0.5
 16
0.0
 26
0.0
 36
1.0
 17
0.0
 27
0.0
 37
0.0
 40
113.3818914119703
 41
0.8863849310366128
 42
50.0
 43
0.0
 44
0.0
 50
0.0
 51
0.0
 71
     0
 72
  1000
 73
     1
 74
     3
 75
     0
 76
     0
 77
     0
 78
     0
281
     0
 65
     1
110
0.0
120
0.0
130
0.0
111
1.0
121
0.0
131
0.0
112
0.0
122
1.0
132
0.0
 79
     0
146
0.0
  0
ENDTAB
  0
TABLE
  2
LTYPE
  5
5
330
0
100
AcDbSymbolTable
 70
     1
  0
LTYPE
  5
14
330
5
100
AcDbSymbolTableRecord
100
AcDbLinetypeTableRecord
  2
ByBlock
 70
     0
  3

 72
    65
 73
     0
 40
0.0
  0
LTYPE
  5
15
330
5
100
AcDbSymbolTableRecord
100
AcDbLinetypeTableRecord
  2
ByLayer
 70
     0
  3

 72
    65
 73
     0
 40
0.0
  0
LTYPE
  5
16
330
5
100
AcDbSymbolTableRecord
100
AcDbLinetypeTableRecord
  2
Continuous
 70
     0
  3
Solid line
 72
    65
 73
     0
 40
0.0
  0
ENDTAB
  0
TABLE
  2
LAYER
  5
2
330
0
100
AcDbSymbolTable
 70
     1
  0
LAYER
  5
10
330
2
100
AcDbSymbolTableRecord
100
AcDbLayerTableRecord
  2
0
 70
     0
 62
     7
  6
Continuous
370
    -3
390
F
  0
ENDTAB
  0
TABLE
  2
STYLE
  5
3
330
0
100
AcDbSymbolTable
 70
     1
  0
STYLE
  5
11
330
3
100
AcDbSymbolTableRecord
100
AcDbTextStyleTableRecord
  2
Standard
 70
     0
 40
0.0
 41
1.0
 50
0.0
 71
     0
 42
0.2
  3
txt
  4

  0
ENDTAB
  0
TABLE
  2
VIEW
  5
6
330
0
100
AcDbSymbolTable
 70
     0
  0
ENDTAB
  0
TABLE
  2
UCS
  5
7
330
0
100
AcDbSymbolTable
 70
     0
  0
ENDTAB
  0
TABLE
  2
APPID
  5
9
330
0
100
AcDbSymbolTable
 70
     1
  0
APPID
  5
12
330
9
100
AcDbSymbolTableRecord
100
AcDbRegAppTableRecord
  2
ACAD
 70
     0
  0
ENDTAB
  0
TABLE
  2
DIMSTYLE
  5
A
330
0
100
AcDbSymbolTable
 70
     1
100
AcDbDimStyleTable
  0
DIMSTYLE
105
27
330
A
100
AcDbSymbolTableRecord
100
AcDbDimStyleTableRecord
  2
Standard
 70
     0
340
11
  0
ENDTAB
  0
TABLE
  2
BLOCK_RECORD
  5
1
330
0
100
AcDbSymbolTable
 70
     1
  0
BLOCK_RECORD
  5
1F
330
1
100
AcDbSymbolTableRecord
100
AcDbBlockTableRecord
  2
*Model_Space
340
22
  0
BLOCK_RECORD
  5
1B
330
1
100
AcDbSymbolTableRecord
100
AcDbBlockTableRecord
  2
*Paper_Space
340
1E
  0
ENDTAB
  0
ENDSEC
  0
SECTION
  2
BLOCKS
  0
BLOCK
  5
20
330
1F
100
AcDbEntity
  8
0
100
AcDbBlockBegin
  2
*Model_Space
 70
     0
 10
0.0
 20
0.0
 30
0.0
  3
*Model_Space
  1

  0
ENDBLK
  5
21
330
1F
100
AcDbEntity
  8
0
100
AcDbBlockEnd
  0
BLOCK
  5
1C
330
1B
100
AcDbEntity
 67
     1
  8
0
100
AcDbBlockBegin
  2
*Paper_Space
 70
     0
 10
0.0
 20
0.0
 30
0.0
  3
*Paper_Space
  1

  0
ENDBLK
  5
1D
330
1B
100
AcDbEntity
 67
     1
  8
0
100
AcDbBlockEnd
  0
ENDSEC
  0
SECTION
  2
ENTITIES
  0
POINT
  5
20000
100
AcDbEntity
  8
0
100
AcDbPoint
 10
25907.3721139633
 20
41960.5766941432
  0
POINT
  5
20001
100
AcDbEntity
  8
0
100
AcDbPoint
 10
25945.2517455388
 20
41772.7326205268
  0
POINT
  5
20002
100
AcDbEntity
  8
0
100
AcDbPoint
 10
25902.2453105447
 20
41806.3727450805
  0
POINT
  5
20003
100
AcDbEntity
  8
0
100
AcDbPoint
 10
25541.5196505306
 20
41927.5452060434
  0
POINT
  5
20004
100
AcDbEntity
  8
0
100
AcDbPoint
 10
25562.1941403898
 20
41898.9072144354
  0
POINT
  5
20005
100
AcDbEntity
  8
0
100
AcDbPoint
 10
25475.6322733263
 20
41985.5020704769
  0
POINT
  5
20006
100
AcDbEntity
  8
0
100
AcDbPoint
 10
25597.5419045477
 20
41971.748512688
  0
POINT
  5
20007
100
AcDbEntity
  8
0
100
AcDbPoint
 10
25560.2262924983
 20
42034.3671644856
  0
POINT
  5
20008
100
AcDbEntity
  8
0
100
AcDbPoint
 10
25591.5165190677
 20
42018.7933296214
  0
POINT
  5
20009
100
AcDbEntity
  8
0
100
AcDbPoint
 10
25546.5219966297
 20
42023.620761887
  0
POINT
  5
2000A
100
AcDbEntity
  8
0
100
AcDbPoint
 10
25396.809292865
 20
41959.2681429717
  0
POINT
  5
2000B
100
AcDbEntity
  8
0
100
AcDbPoint
 10
25674.3017897945
 20
41949.8955242513
  0
POINT
  5
2000C
100
AcDbEntity
  8
0
100
AcDbPoint
 10
25647.1620315723
 20
41685.9047902093
  0
POINT
  5
2000D
100
AcDbEntity
  8
0
100
AcDbPoint
 10
25947.1343951634
 20
41739.2063725639
  0
POINT
  5
2000E
100
AcDbEntity
  8
0
100
AcDbPoint
 10
25783.9543467491
 20
41872.0879021763
  0
POINT
  5
2000F
100
AcDbEntity
  8
0
100
AcDbPoint
 10
26017.6935831805
 20
41895.2988044388
  0
POINT
  5
20010
100
AcDbEntity
  8
0
100
AcDbPoint
 10
26126.2812556463
 20
41909.9091420691
  0
POINT
  5
20011
100
AcDbEntity
  8
0
100
AcDbPoint
 10
26012.8694340645
 20
41623.4624426071
  0
POINT
  5
20012
100
AcDbEntity
  8
0
100
AcDbPoint
 10
25460.7406357146
 20
41234.7789970773
  0
POINT
  5
20013
100
AcDbEntity
  8
0
100
AcDbPoint
 10
25564.1194955208
 20
41330.6924312849
  0
POINT
  5
20014
100
AcDbEntity
  8
0
100
AcDbPoint
 10
25098.7187534458
 20
41012.4036868005
  0
POINT
  5
20015
100
AcDbEntity
  8
0
100
AcDbPoint
 10
25064.0319257627
 20
40978.993474509
  0
POINT
  5
20016
100
AcDbEntity
  8
0
100
AcDbPoint
 10
25166.1120924361
 20
41137.8486066082
  0
POINT
  5
20017
100
AcDbEntity
  8
0
100
AcDbPoint
 10
24442.7252616196
 20
40537.3961202323
  0
POINT
  5
20018
100
AcDbEntity
  8
0
100
AcDbPoint
 10
24577.9340594304
 20
40091.0022662555
  0
POINT
  5
20019
100
AcDbEntity
  8
0
100
AcDbPoint
 10
24653.3768809014
 20
40105.4881669888
  0
POINT
  5
2001A
100
AcDbEntity
  8
0
100
AcDbPoint
 10
24463.034712783
 20
39816.1003696966
  0
POINT
  5
2001B
100
AcDbEntity
  8
0
100
AcDbPoint
 10
24495.0192463343
 20
39786.170738506
  0
POINT
  5
2001C
100
AcDbEntity
  8
0
100
AcDbPoint
 10
24424.0818920541
 20
39707.4029911221
  0
POINT
  5
2001D
100
AcDbEntity
  8
0
100
AcDbPoint
 10
24475.5143117284
 20
39726.5123650934
  0
POINT
  5
2001E
100
AcDbEntity
  8
0
100
AcDbPoint
 10
24387.4626073788
 20
39603.2032653215
  0
POINT
  5
2001F
100
AcDbEntity
  8
0
100
AcDbPoint
 10
23342.3138768634
 20
38742.4539256829
  0
POINT
  5
20020
100
AcDbEntity
  8
0
100
AcDbPoint
 10
23487.9002364757
 20
39130.7876618039
  0
POINT
  5
20021
100
AcDbEntity
  8
0
100
AcDbPoint
 10
23843.6574944201
 20
38936.3094827745
  0
POINT
  5
20022
100
AcDbEntity
  8
0
100
AcDbPoint
 10
23906.2112529223
 20
38877.1822392121
  0
POINT
  5
20023
100
AcDbEntity
  8
0
100
AcDbPoint
 10
24570.1247154893
 20
39926.7861693276
  0
POINT
  5
20024
100
AcDbEntity
  8
0
100
AcDbPoint
 10
24622.7898107378
 20
39866.3306975457
  0
POINT
  5
20025
100
AcDbEntity
  8
0
100
AcDbPoint
 10
25096.1339909654
 20
41203.4330881051
  0
POINT
  5
20026
100
AcDbEntity
  8
0
100
AcDbPoint
 10
25395.2303237004
 20
41388.4355963794
  0
POINT
  5
20027
100
AcDbEntity
  8
0
100
AcDbPoint
 10
23471.2718743849
 20
38735.3246375078
  0
POINT
  5
20028
100
AcDbEntity
  8
0
100
AcDbPoint
 10
24525.9720429211
 20
40653.6116499079
  0
POINT
  5
20029
100
AcDbEntity
  8
0
100
AcDbPoint
 10
24345.8750423963
 20
39628.0476107126
  0
POINT
  5
2002A
100
AcDbEntity
  8
0
100
AcDbPoint
 10
24374.457889807
 20
39696.8914833977
  0
POINT
  5
2002B
100
AcDbEntity
  8
0
100
AcDbPoint
 10
25902.1315874208
 20
41932.6151748604
  0
POINT
  5
2002C
100
AcDbEntity
  8
0
100
AcDbPoint
 10
25547.6487400731
 20
41961.9170019598
  0
POINT
  5
2002D
100
AcDbEntity
  8
0
100
AcDbPoint
 10
25522.056220547
 20
41933.532137667
  0
POINT
  5
2002E
100
AcDbEntity
  8
0
100
AcDbPoint
 10
23180.2075926528
 20
38649.5700686563
  0
POINT
  5
2002F
100
AcDbEntity
  8
0
100
AcDbPoint
 10
22822.9938426061
 20
38418.7919793053
  0
POINT
  5
20030
100
AcDbEntity
  8
0
100
AcDbPoint
 10
23531.8085483329
 20
39288.2555428117
  0
POINT
  5
20031
100
AcDbEntity
  8
0
100
AcDbPoint
 10
25852.3567847448
 20
41979.7841671728
  0
POINT
  5
20032
100
AcDbEntity
  8
0
100
AcDbPoint
 10
22804.9833665782
 20
38374.5947051215
  0
POINT
  5
20033
100
AcDbEntity
  8
0
100
AcDbPoint
 10
25524.379515641
 20
42284.832105068
  0
POINT
  5
20034
100
AcDbEntity
  8
0
100
AcDbPoint
 10
25926.1229549421
 20
42401.0361811561
  0
POINT
  5
20035
100
AcDbEntity
  8
0
100
AcDbPoint
 10
25723.1691764481
 20
42426.1058938632
  0
POINT
  5
20036
100
AcDbEntity
  8
0
100
AcDbPoint
 10
25742.8370472432
 20
42396.317502793
  0
POINT
  5
20037
100
AcDbEntity
  8
0
100
AcDbPoint
 10
25932.4767787443
 20
42172.0015164281
  0
POINT
  5
20038
100
AcDbEntity
  8
0
100
AcDbPoint
 10
25663.6791809815
 20
42201.1548472317
  0
POINT
  5
20039
100
AcDbEntity
  8
0
100
AcDbPoint
 10
25787.9472104045
 20
42222.864451152
  0
POINT
  5
2003A
100
AcDbEntity
  8
0
100
AcDbPoint
 10
25657.263864341
 20
42431.9687728915
  0
POINT
  5
2003B
100
AcDbEntity
  8
0
100
AcDbPoint
 10
26672.4671097373
 20
42109.0187702367
  0
POINT
  5
2003C
100
AcDbEntity
  8
0
100
AcDbPoint
 10
26638.702944962
 20
42298.2015676841
  0
POINT
  5
2003D
100
AcDbEntity
  8
0
100
AcDbPoint
 10
26713.1350244981
 20
42279.2267774722
  0
POINT
  5
2003E
100
AcDbEntity
  8
0
100
AcDbPoint
 10
25957.896704917
 20
42008.2817414658
  0
POINT
  5
2003F
100
AcDbEntity
  8
0
100
AcDbPoint
 10
26022.7227850557
 20
42038.3821877332
  0
POINT
  5
20040
100
AcDbEntity
  8
0
100
AcDbPoint
 10
26019.7264800524
 20
42115.6238015403
  0
POINT
  5
20041
100
AcDbEntity
  8
0
100
AcDbPoint
 10
26031.9056785005
 20
42164.4772184313
  0
POINT
  5
20042
100
AcDbEntity
  8
0
100
AcDbPoint
 10
26054.8744625524
 20
42240.4238873627
  0
POINT
  5
20043
100
AcDbEntity
  8
0
100
AcDbPoint
 10
25993.0840741973
 20
42157.642433722
  0
POINT
  5
20044
100
AcDbEntity
  8
0
100
AcDbPoint
 10
26083.902661479
 20
42352.2526638134
  0
POINT
  5
20045
100
AcDbEntity
  8
0
100
AcDbPoint
 10
26068.8524548177
 20
42278.3577211933
  0
POINT
  5
20046
100
AcDbEntity
  8
0
100
AcDbPoint
 10
25975.2276216421
 20
42227.8922511367
  0
POINT
  5
20047
100
AcDbEntity
  8
0
100
AcDbPoint
 10
26129.4858347162
 20
42225.8448329563
  0
POINT
  5
20048
100
AcDbEntity
  8
0
100
AcDbPoint
 10
26089.6807372553
 20
42196.034355949
  0
POINT
  5
20049
100
AcDbEntity
  8
0
100
AcDbPoint
 10
25996.9201756688
 20
42280.0668526191
  0
POINT
  5
2004A
100
AcDbEntity
  8
0
100
AcDbPoint
 10
26084.8747067868
 20
42177.7737225479
  0
POINT
  5
2004B
100
AcDbEntity
  8
0
100
AcDbPoint
 10
26173.387010268
 20
42010.7630175101
  0
POINT
  5
2004C
100
AcDbEntity
  8
0
100
AcDbPoint
 10
25455.1069632167
 20
42085.1340901287
  0
POINT
  5
2004D
100
AcDbEntity
  8
0
100
AcDbPoint
 10
26074.3043929182
 20
42015.3671730269
  0
POINT
  5
2004E
100
AcDbEntity
  8
0
100
AcDbPoint
 10
24350.91497738
 20
40164.269530398
  0
POINT
  5
2004F
100
AcDbEntity
  8
0
100
AcDbPoint
 10
26752.2211395719
 20
42049.0750336366
  0
POINT
  5
20050
100
AcDbEntity
  8
0
100
AcDbPoint
 10
26672.4671097373
 20
42109.0187702367
  0
POINT
  5
20051
100
AcDbEntity
  8
0
100
AcDbPoint
 10
22898.9081169916
 20
37666.6468459843
  0
POINT
  5
20052
100
AcDbEntity
  8
0
100
AcDbPoint
 10
22962.912940755
 20
38756.7331063662
  0
POINT
  5
20053
100
AcDbEntity
  8
0
100
AcDbPoint
 10
24904.7299488092
 20
42303.6039773953
  0
POINT
  5
20054
100
AcDbEntity
  8
0
100
AcDbPoint
 10
25971.9550318687
 20
42630.0683999012
  0
POINT
  5
20055
100
AcDbEntity
  8
0
100
AcDbPoint
 10
25957.896704917
 20
42008.2817414658
  0
POINT
  5
20056
100
AcDbEntity
  8
0
100
AcDbPoint
 10
29856.6093598666
 20
42116.1284040237
  0
POINT
  5
20057
100
AcDbEntity
  8
0
100
AcDbPoint
 10
30050.801530861
 20
42267.1417832464
  0
POINT
  5
20058
100
AcDbEntity
  8
0
100
AcDbPoint
 10
25859.7624373616
 20
42678.4107313655
  0
POINT
  5
20059
100
AcDbEntity
  8
0
100
AcDbPoint
 10
25902.0646511529
 20
42669.6567344449
  0
POINT
  5
2005A
100
AcDbEntity
  8
0
100
AcDbPoint
 10
25965.9768936798
 20
42649.2307511816
  0
POINT
  5
2005B
100
AcDbEntity
  8
0
100
AcDbPoint
 10
26000.7734794632
 20
42649.6688113617
  0
POINT
  5
2005C
100
AcDbEntity
  8
0
100
AcDbPoint
 10
25986.1699762411
 20
42653.8453337118
  0
POINT
  5
2005D
100
AcDbEntity
  8
0
100
AcDbPoint
 10
25935.1161342622
 20
42620.7226113235
  0
POINT
  5
2005E
100
AcDbEntity
  8
0
100
AcDbPoint
 10
25962.5920169359
 20
42612.0513407963
  0
POINT
  5
2005F
100
AcDbEntity
  8
0
100
AcDbPoint
 10
25987.858974777
 20
42604.5758227592
  0
POINT
  5
20060
100
AcDbEntity
  8
0
100
AcDbPoint
 10
26006.5813167265
 20
42580.558204496
  0
POINT
  5
20061
100
AcDbEntity
  8
0
100
AcDbPoint
 10
25966.3590733736
 20
42578.6795531471
  0
POINT
  5
20062
100
AcDbEntity
  8
0
100
AcDbPoint
 10
25983.5823691704
 20
42562.7402087539
  0
POINT
  5
20063
100
AcDbEntity
  8
0
100
AcDbPoint
 10
26039.3576410889
 20
42589.2176263734
  0
POINT
  5
20064
100
AcDbEntity
  8
0
100
AcDbPoint
 10
26016.9051803629
 20
42559.0012349959
  0
POINT
  5
20065
100
AcDbEntity
  8
0
100
AcDbPoint
 10
26040.209690408
 20
42553.8987860534
  0
POINT
  5
20066
100
AcDbEntity
  8
0
100
AcDbPoint
 10
26025.8154534585
 20
42500.8045884343
  0
POINT
  5
20067
100
AcDbEntity
  8
0
100
AcDbPoint
 10
26017.8532949683
 20
42637.5941954262
  0
POINT
  5
20068
100
AcDbEntity
  8
0
100
AcDbPoint
 10
26021.5630595131
 20
42676.792364781
  0
POINT
  5
20069
100
AcDbEntity
  8
0
100
AcDbPoint
 10
26042.5574253446
 20
42626.4603461355
  0
POINT
  5
2006A
100
AcDbEntity
  8
0
100
AcDbPoint
 10
26070.998193409
 20
42664.1955984967
  0
POINT
  5
2006B
100
AcDbEntity
  8
0
100
AcDbPoint
 10
26049.0626924135
 20
42669.2949522624
  0
POINT
  5
2006C
100
AcDbEntity
  8
0
100
AcDbPoint
 10
26072.0225546771
 20
42642.4749953302
  0
POINT
  5
2006D
100
AcDbEntity
  8
0
100
AcDbPoint
 10
26055.6526674651
 20
42648.188904747
  0
POINT
  5
2006E
100
AcDbEntity
  8
0
100
AcDbPoint
 10
26075.1876889771
 20
42550.1313252307
  0
POINT
  5
2006F
100
AcDbEntity
  8
0
100
AcDbPoint
 10
26095.6153528403
 20
42574.0603858497
  0
POINT
  5
20070
100
AcDbEntity
  8
0
100
AcDbPoint
 10
26091.3296018316
 20
42538.2257020162
  0
POINT
  5
20071
100
AcDbEntity
  8
0
100
AcDbPoint
 10
26072.4295881357
 20
42581.8236736585
  0
POINT
  5
20072
100
AcDbEntity
  8
0
100
AcDbPoint
 10
26057.785588399
 20
42508.1548872348
  0
POINT
  5
20073
100
AcDbEntity
  8
0
100
AcDbPoint
 10
26078.4849431034
 20
42501.784675797
  0
POINT
  5
20074
100
AcDbEntity
  8
0
100
AcDbPoint
 10
26056.1698427429
 20
42542.4186149091
  0
POINT
  5
20075
100
AcDbEntity
  8
0
100
AcDbPoint
 10
26095.1993022346
 20
42638.1494967004
  0
POINT
  5
20076
100
AcDbEntity
  8
0
100
AcDbPoint
 10
26093.1026984311
 20
42657.4048225981
  0
POINT
  5
20077
100
AcDbEntity
  8
0
100
AcDbPoint
 10
26084.5883129941
 20
42645.0939647475
  0
POINT
  5
20078
100
AcDbEntity
  8
0
100
AcDbPoint
 10
26083.465391924
 20
42617.9482314498
  0
POINT
  5
20079
100
AcDbEntity
  8
0
100
AcDbPoint
 10
26152.9577838977
 20
42560.071284442
  0
POINT
  5
2007A
100
AcDbEntity
  8
0
100
AcDbPoint
 10
26186.3802644098
 20
42554.2023525837
  0
POINT
  5
2007B
100
AcDbEntity
  8
0
100
AcDbPoint
 10
26200.6342231465
 20
42523.2076695501
  0
POINT
  5
2007C
100
AcDbEntity
  8
0
100
AcDbPoint
 10
26147.3064991703
 20
42601.1759284654
  0
POINT
  5
2007D
100
AcDbEntity
  8
0
100
AcDbPoint
 10
26151.2318786155
 20
42622.5307712392
  0
POINT
  5
2007E
100
AcDbEntity
  8
0
100
AcDbPoint
 10
26169.5248677754
 20
42595.0428750196
  0
POINT
  5
2007F
100
AcDbEntity
  8
0
100
AcDbPoint
 10
26256.7240368254
 20
42535.1129059248
  0
POINT
  5
20080
100
AcDbEntity
  8
0
100
AcDbPoint
 10
26282.0369218498
 20
42527.4449019036
  0
POINT
  5
20081
100
AcDbEntity
  8
0
100
AcDbPoint
 10
26189.8922154937
 20
42594.3743247929
  0
POINT
  5
20082
100
AcDbEntity
  8
0
100
AcDbPoint
 10
26340.3027034897
 20
42504.6762207107
  0
POINT
  5
20083
100
AcDbEntity
  8
0
100
AcDbPoint
 10
26356.8139990154
 20
42556.226540952
  0
POINT
  5
20084
100
AcDbEntity
  8
0
100
AcDbPoint
 10
26304.8334479096
 20
42558.0817956607
  0
POINT
  5
20085
100
AcDbEntity
  8
0
100
AcDbPoint
 10
26283.2906251683
 20
42566.1008735222
  0
POINT
  5
20086
100
AcDbEntity
  8
0
100
AcDbPoint
 10
26332.5657089924
 20
42552.8452321481
  0
POINT
  5
20087
100
AcDbEntity
  8
0
100
AcDbPoint
 10
26437.8431263431
 20
42487.9351184143
  0
POINT
  5
20088
100
AcDbEntity
  8
0
100
AcDbPoint
 10
26022.7227850557
 20
42038.3821877332
  0
POINT
  5
20089
100
AcDbEntity
  8
0
100
AcDbPoint
 10
26019.7264800524
 20
42115.6238015403
  0
POINT
  5
2008A
100
AcDbEntity
  8
0
100
AcDbPoint
 10
26031.9056785005
 20
42164.4772184313
  0
POINT
  5
2008B
100
AcDbEntity
  8
0
100
AcDbPoint
 10
26054.8744625524
 20
42240.4238873627
  0
POINT
  5
2008C
100
AcDbEntity
  8
0
100
AcDbPoint
 10
25993.0840741973
 20
42157.642433722
  0
POINT
  5
2008D
100
AcDbEntity
  8
0
100
AcDbPoint
 10
26083.902661479
 20
42352.2526638134
  0
POINT
  5
2008E
100
AcDbEntity
  8
0
100
AcDbPoint
 10
26068.8524548177
 20
42278.3577211933
  0
POINT
  5
2008F
100
AcDbEntity
  8
0
100
AcDbPoint
 10
25975.2276216421
 20
42227.8922511367
  0
POINT
  5
20090
100
AcDbEntity
  8
0
100
AcDbPoint
 10
26124.4796128675
 20
42480.796489462
  0
POINT
  5
20091
100
AcDbEntity
  8
0
100
AcDbPoint
 10
26151.5959991554
 20
42638.0077601724
  0
POINT
  5
20092
100
AcDbEntity
  8
0
100
AcDbPoint
 10
26178.3838700898
 20
42635.3634383711
  0
POINT
  5
20093
100
AcDbEntity
  8
0
100
AcDbPoint
 10
26166.4282430418
 20
42628.3268522673
  0
POINT
  5
20094
100
AcDbEntity
  8
0
100
AcDbPoint
 10
26113.5049604058
 20
42641.6607347703
  0
POINT
  5
20095
100
AcDbEntity
  8
0
100
AcDbPoint
 10
26228.4703840658
 20
42872.8466003779
  0
POINT
  5
20096
100
AcDbEntity
  8
0
100
AcDbPoint
 10
26159.7081142534
 20
42793.0518163293
  0
POINT
  5
20097
100
AcDbEntity
  8
0
100
AcDbPoint
 10
26246.1207824718
 20
42980.7054412238
  0
POINT
  5
20098
100
AcDbEntity
  8
0
100
AcDbPoint
 10
26183.6190624952
 20
42891.0386137139
  0
POINT
  5
20099
100
AcDbEntity
  8
0
100
AcDbPoint
 10
26240.038929857
 20
43113.0830879075
  0
POINT
  5
2009A
100
AcDbEntity
  8
0
100
AcDbPoint
 10
26134.9932965637
 20
43256.7007766411
  0
POINT
  5
2009B
100
AcDbEntity
  8
0
100
AcDbPoint
 10
26103.3238262801
 20
43230.2525316224
  0
POINT
  5
2009C
100
AcDbEntity
  8
0
100
AcDbPoint
 10
26191.4026416499
 20
43265.6705460803
  0
POINT
  5
2009D
100
AcDbEntity
  8
0
100
AcDbPoint
 10
26010.9941145536
 20
42656.9707302363
  0
POINT
  5
2009E
100
AcDbEntity
  8
0
100
AcDbPoint
 10
26824.3171098746
 20
43456.4408603281
  0
POINT
  5
2009F
100
AcDbEntity
  8
0
100
AcDbPoint
 10
27988.7437135292
 20
42562.2877858057
  0
POINT
  5
200A0
100
AcDbEntity
  8
0
100
AcDbPoint
 10
28067.9275751014
 20
42561.0640579598
  0
POINT
  5
200A1
100
AcDbEntity
  8
0
100
AcDbPoint
 10
28441.4073034904
 20
42476.6945494993
  0
POINT
  5
200A2
100
AcDbEntity
  8
0
100
AcDbPoint
 10
27334.6988536593
 20
42392.5557238991
  0
POINT
  5
200A3
100
AcDbEntity
  8
0
100
AcDbPoint
 10
27399.4025065403
 20
42477.6884715453
  0
POINT
  5
200A4
100
AcDbEntity
  8
0
100
AcDbPoint
 10
27411.8466052068
 20
42405.4164158522
  0
POINT
  5
200A5
100
AcDbEntity
  8
0
100
AcDbPoint
 10
27418.3247691858
 20
42482.4691528568
  0
POINT
  5
200A6
100
AcDbEntity
  8
0
100
AcDbPoint
 10
27461.4727914974
 20
42503.5539796225
  0
POINT
  5
200A7
100
AcDbEntity
  8
0
100
AcDbPoint
 10
28244.843012671
 20
42716.1865984451
  0
POINT
  5
200A8
100
AcDbEntity
  8
0
100
AcDbPoint
 10
28577.2239318698
 20
42672.0340143746
  0
POINT
  5
200A9
100
AcDbEntity
  8
0
100
AcDbPoint
 10
28411.4342110468
 20
42100.0413543724
  0
POINT
  5
200AA
100
AcDbEntity
  8
0
100
AcDbPoint
 10
28526.0845028827
 20
41983.8105977713
  0
POINT
  5
200AB
100
AcDbEntity
  8
0
100
AcDbPoint
 10
28453.1074797222
 20
42111.6506689382
  0
POINT
  5
200AC
100
AcDbEntity
  8
0
100
AcDbPoint
 10
28631.5520703888
 20
42001.3059745956
  0
POINT
  5
200AD
100
AcDbEntity
  8
0
100
AcDbPoint
 10
26074.3043929182
 20
42015.3671730269
  0
POINT
  5
200AE
100
AcDbEntity
  8
0
100
AcDbPoint
 10
27300.2433275085
 20
42363.5806371165
  0
POINT
  5
200AF
100
AcDbEntity
  8
0
100
AcDbPoint
 10
27266.9485687485
 20
42461.9650787467
  0
POINT
  5
200B0
100
AcDbEntity
  8
0
100
AcDbPoint
 10
29909.5048271272
 20
41945.6117434036
  0
POINT
  5
200B1
100
AcDbEntity
  8
0
100
AcDbPoint
 10
29869.6692639777
 20
41878.0530199797
  0
POINT
  5
200B2
100
AcDbEntity
  8
0
100
AcDbPoint
 10
29933.2191234547
 20
41872.842544309
  0
POINT
  5
200B3
100
AcDbEntity
  8
0
100
AcDbPoint
 10
29838.4672565183
 20
41880.063300898
  0
POINT
  5
200B4
100
AcDbEntity
  8
0
100
AcDbPoint
 10
29036.5709012923
 20
42591.3633131519
  0
POINT
  5
200B5
100
AcDbEntity
  8
0
100
AcDbPoint
 10
29091.1070116417
 20
42109.7929731117
  0
POINT
  5
200B6
100
AcDbEntity
  8
0
100
AcDbPoint
 10
29085.9990026309
 20
42128.8920420611
  0
POINT
  5
200B7
100
AcDbEntity
  8
0
100
AcDbPoint
 10
29099.2703370773
 20
42221.4539338972
  0
POINT
  5
200B8
100
AcDbEntity
  8
0
100
AcDbPoint
 10
29094.921437636
 20
42265.3382382476
  0
POINT
  5
200B9
100
AcDbEntity
  8
0
100
AcDbPoint
 10
29273.8979367819
 20
42062.9049092519
  0
POINT
  5
200BA
100
AcDbEntity
  8
0
100
AcDbPoint
 10
29236.0607199319
 20
42073.5396708237
  0
POINT
  5
200BB
100
AcDbEntity
  8
0
100
AcDbPoint
 10
29271.7666405361
 20
42079.8775543393
  0
POINT
  5
200BC
100
AcDbEntity
  8
0
100
AcDbPoint
 10
29269.4112263064
 20
42120.6350760463
  0
POINT
  5
200BD
100
AcDbEntity
  8
0
100
AcDbPoint
 10
29271.4111763128
 20
42153.5703398591
  0
POINT
  5
200BE
100
AcDbEntity
  8
0
100
AcDbPoint
 10
29269.2082935641
 20
42171.2133855874
  0
POINT
  5
200BF
100
AcDbEntity
  8
0
100
AcDbPoint
 10
29186.9820294567
 20
42069.3341690995
  0
POINT
  5
200C0
100
AcDbEntity
  8
0
100
AcDbPoint
 10
29181.1442604998
 20
42187.8640730806
  0
POINT
  5
200C1
100
AcDbEntity
  8
0
100
AcDbPoint
 10
29200.3443352331
 20
42190.8933039116
  0
POINT
  5
200C2
100
AcDbEntity
  8
0
100
AcDbPoint
 10
29197.1397357597
 20
42175.5869055438
  0
POINT
  5
200C3
100
AcDbEntity
  8
0
100
AcDbPoint
 10
29140.7504919539
 20
42351.9318306327
  0
POINT
  5
200C4
100
AcDbEntity
  8
0
100
AcDbPoint
 10
29188.6787370782
 20
42341.0618037755
  0
POINT
  5
200C5
100
AcDbEntity
  8
0
100
AcDbPoint
 10
29144.1436693077
 20
42397.5298083772
  0
POINT
  5
200C6
100
AcDbEntity
  8
0
100
AcDbPoint
 10
29194.0799898159
 20
42437.7415954656
  0
POINT
  5
200C7
100
AcDbEntity
  8
0
100
AcDbPoint
 10
29268.5677098383
 20
42100.7690967549
  0
POINT
  5
200C8
100
AcDbEntity
  8
0
100
AcDbPoint
 10
28976.4703800296
 20
42094.251813656
  0
POINT
  5
200C9
100
AcDbEntity
  8
0
100
AcDbPoint
 10
28968.3528954554
 20
42273.6092367752
  0
POINT
  5
200CA
100
AcDbEntity
  8
0
100
AcDbPoint
 10
28975.63129326
 20
42297.3066359285
  0
POINT
  5
200CB
100
AcDbEntity
  8
0
100
AcDbPoint
 10
28958.8384506321
 20
42310.1912728367
  0
POINT
  5
200CC
100
AcDbEntity
  8
0
100
AcDbPoint
 10
28943.6966601557
 20
42284.9542921048
  0
POINT
  5
200CD
100
AcDbEntity
  8
0
100
AcDbPoint
 10
26752.2211395719
 20
42049.0750336366
  0
POINT
  5
200CE
100
AcDbEntity
  8
0
100
AcDbPoint
 10
26859.1920752791
 20
42118.0953762703
  0
POINT
  5
200CF
100
AcDbEntity
  8
0
100
AcDbPoint
 10
26798.6339511776
 20
42128.8677589866
  0
POINT
  5
200D0
100
AcDbEntity
  8
0
100
AcDbPoint
 10
26672.4671097373
 20
42109.0187702367
  0
POINT
  5
200D1
100
AcDbEntity
  8
0
100
AcDbPoint
 10
26480.4927541584
 20
42692.7141647508
  0
POINT
  5
200D2
100
AcDbEntity
  8
0
100
AcDbPoint
 10
26497.3651211114
 20
42700.7981293665
  0
POINT
  5
200D3
100
AcDbEntity
  8
0
100
AcDbPoint
 10
26595.2407227813
 20
42719.3722799063
  0
POINT
  5
200D4
100
AcDbEntity
  8
0
100
AcDbPoint
 10
26634.3723578701
 20
42739.1198094592
  0
POINT
  5
200D5
100
AcDbEntity
  8
0
100
AcDbPoint
 10
26642.2967375131
 20
42717.6002160122
  0
POINT
  5
200D6
100
AcDbEntity
  8
0
100
AcDbPoint
 10
27107.2712392437
 20
42277.4915818612
  0
POINT
  5
200D7
100
AcDbEntity
  8
0
100
AcDbPoint
 10
27399.7608528699
 20
42136.8805333154
  0
POINT
  5
200D8
100
AcDbEntity
  8
0
100
AcDbPoint
 10
27134.549013938
 20
42300.4582203399
  0
POINT
  5
200D9
100
AcDbEntity
  8
0
100
AcDbPoint
 10
27148.244653057
 20
42443.4852760178
  0
POINT
  5
200DA
100
AcDbEntity
  8
0
100
AcDbPoint
 10
27145.1360595986
 20
42420.7526408227
  0
POINT
  5
200DB
100
AcDbEntity
  8
0
100
AcDbPoint
 10
26129.4858347162
 20
42225.8448329563
  0
POINT
  5
200DC
100
AcDbEntity
  8
0
100
AcDbPoint
 10
30440.3967651536
 20
41943.4282058906
  0
POINT
  5
200DD
100
AcDbEntity
  8
0
100
AcDbPoint
 10
30382.0036009723
 20
42187.5604385672
  0
POINT
  5
200DE
100
AcDbEntity
  8
0
100
AcDbPoint
 10
26290.2775377413
 20
42830.9843831683
  0
POINT
  5
200DF
100
AcDbEntity
  8
0
100
AcDbPoint
 10
26268.382146602
 20
42793.2209572302
  0
POINT
  5
200E0
100
AcDbEntity
  8
0
100
AcDbPoint
 10
30434.0544709402
 20
41845.8005505503
  0
POINT
  5
200E1
100
AcDbEntity
  8
0
100
AcDbPoint
 10
26380.9800511376
 20
42482.2167913033
  0
POINT
  5
200E2
100
AcDbEntity
  8
0
100
AcDbPoint
 10
26403.960766392
 20
42497.0736930754
  0
POINT
  5
200E3
100
AcDbEntity
  8
0
100
AcDbPoint
 10
26410.899977106
 20
42576.0230893379
  0
POINT
  5
200E4
100
AcDbEntity
  8
0
100
AcDbPoint
 10
26399.8034976857
 20
42715.1925542222
  0
POINT
  5
200E5
100
AcDbEntity
  8
0
100
AcDbPoint
 10
26461.1053111171
 20
42767.6269821965
  0
POINT
  5
200E6
100
AcDbEntity
  8
0
100
AcDbPoint
 10
26433.7759606263
 20
42874.4908397038
  0
POINT
  5
200E7
100
AcDbEntity
  8
0
100
AcDbPoint
 10
26478.8265919869
 20
42863.8867398677
  0
POINT
  5
200E8
100
AcDbEntity
  8
0
100
AcDbPoint
 10
26488.1613342085
 20
42915.619905838
  0
POINT
  5
200E9
100
AcDbEntity
  8
0
100
AcDbPoint
 10
26497.6452763746
 20
42945.4075220849
  0
POINT
  5
200EA
100
AcDbEntity
  8
0
100
AcDbPoint
 10
26545.0770981162
 20
43294.9784043121
  0
POINT
  5
200EB
100
AcDbEntity
  8
0
100
AcDbPoint
 10
26551.5079443037
 20
43378.0489887834
  0
POINT
  5
200EC
100
AcDbEntity
  8
0
100
AcDbPoint
 10
26913.8709319828
 20
42083.1350481552
  0
POINT
  5
200ED
100
AcDbEntity
  8
0
100
AcDbPoint
 10
26909.2562791942
 20
42122.3322750517
  0
POINT
  5
200EE
100
AcDbEntity
  8
0
100
AcDbPoint
 10
26926.3895178112
 20
42164.4621191021
  0
POINT
  5
200EF
100
AcDbEntity
  8
0
100
AcDbPoint
 10
26932.4422759631
 20
42186.7174837999
  0
POINT
  5
200F0
100
AcDbEntity
  8
0
100
AcDbPoint
 10
26903.4505143092
 20
42136.0232188376
  0
POINT
  5
200F1
100
AcDbEntity
  8
0
100
AcDbPoint
 10
25875.4853979129
 20
42572.6081377517
  0
POINT
  5
200F2
100
AcDbEntity
  8
0
100
AcDbPoint
 10
25934.2235396043
 20
42824.6505321408
  0
POINT
  5
200F3
100
AcDbEntity
  8
0
100
AcDbPoint
 10
25947.5247290151
 20
42866.6006964004
  0
POINT
  5
200F4
100
AcDbEntity
  8
0
100
AcDbPoint
 10
25983.7288514394
 20
42786.7737003603
  0
POINT
  5
200F5
100
AcDbEntity
  8
0
100
AcDbPoint
 10
25987.529683748
 20
42800.7158635308
  0
POINT
  5
200F6
100
AcDbEntity
  8
0
100
AcDbPoint
 10
26026.6157414456
 20
42837.1130241904
  0
POINT
  5
200F7
100
AcDbEntity
  8
0
100
AcDbPoint
 10
26021.2817078501
 20
42867.0393388865
  0
POINT
  5
200F8
100
AcDbEntity
  8
0
100
AcDbPoint
 10
25997.8868247787
 20
42873.9597963703
  0
POINT
  5
200F9
100
AcDbEntity
  8
0
100
AcDbPoint
 10
25981.0349510347
 20
42846.8608801439
  0
POINT
  5
200FA
100
AcDbEntity
  8
0
100
AcDbPoint
 10
26802.5434218697
 20
43427.8920846288
  0
POINT
  5
200FB
100
AcDbEntity
  8
0
100
AcDbPoint
 10
25895.9483587751
 20
43111.1523725308
  0
POINT
  5
200FC
100
AcDbEntity
  8
0
100
AcDbPoint
 10
25927.0955140128
 20
43138.1810633685
  0
POINT
  5
200FD
100
AcDbEntity
  8
0
100
AcDbPoint
 10
25956.4659408456
 20
43162.4231294095
  0
POINT
  5
200FE
100
AcDbEntity
  8
0
100
AcDbPoint
 10
26139.7963137109
 20
43037.7949742613
  0
POINT
  5
200FF
100
AcDbEntity
  8
0
100
AcDbPoint
 10
26682.6264428459
 20
42935.2333047842
  0
POINT
  5
20100
100
AcDbEntity
  8
0
100
AcDbPoint
 10
26725.0980238075
 20
42936.5195138593
  0
POINT
  5
20101
100
AcDbEntity
  8
0
100
AcDbPoint
 10
26768.779535826
 20
42916.2886017699
  0
POINT
  5
20102
100
AcDbEntity
  8
0
100
AcDbPoint
 10
26704.5205602306
 20
42356.3919436123
  0
POINT
  5
20103
100
AcDbEntity
  8
0
100
AcDbPoint
 10
26724.7769800505
 20
42362.2306686853
  0
POINT
  5
20104
100
AcDbEntity
  8
0
100
AcDbPoint
 10
26789.9784379042
 20
42369.2911633871
  0
POINT
  5
20105
100
AcDbEntity
  8
0
100
AcDbPoint
 10
26774.3381563641
 20
42355.4114662939
  0
POINT
  5
20106
100
AcDbEntity
  8
0
100
AcDbPoint
 10
26344.2555177239
 20
43160.5296268518
  0
POINT
  5
20107
100
AcDbEntity
  8
0
100
AcDbPoint
 10
26367.8552028805
 20
43154.441905836
  0
POINT
  5
20108
100
AcDbEntity
  8
0
100
AcDbPoint
 10
26387.689926316
 20
43151.7669600446
  0
POINT
  5
20109
100
AcDbEntity
  8
0
100
AcDbPoint
 10
26413.2211397792
 20
43140.9985715702
  0
POINT
  5
2010A
100
AcDbEntity
  8
0
100
AcDbPoint
 10
26359.4813555866
 20
42984.4200443841
  0
POINT
  5
2010B
100
AcDbEntity
  8
0
100
AcDbPoint
 10
26479.8087821396
 20
43123.1256652764
  0
POINT
  5
2010C
100
AcDbEntity
  8
0
100
AcDbPoint
 10
26458.9239807945
 20
43129.5701834927
  0
POINT
  5
2010D
100
AcDbEntity
  8
0
100
AcDbPoint
 10
26562.2198484066
 20
43097.5743701528
  0
POINT
  5
2010E
100
AcDbEntity
  8
0
100
AcDbPoint
 10
26586.3739690849
 20
43090.6776024339
  0
POINT
  5
2010F
100
AcDbEntity
  8
0
100
AcDbPoint
 10
26612.8738040446
 20
43083.7589977677
  0
POINT
  5
20110
100
AcDbEntity
  8
0
100
AcDbPoint
 10
27275.250170235
 20
42250.5825149421
  0
POINT
  5
20111
100
AcDbEntity
  8
0
100
AcDbPoint
 10
27181.0299107983
 20
42265.263968962
  0
POINT
  5
20112
100
AcDbEntity
  8
0
100
AcDbPoint
 10
27477.0928626457
 20
42297.0823405733
  0
POINT
  5
20113
100
AcDbEntity
  8
0
100
AcDbPoint
 10
27461.8014793201
 20
42318.1249782708
  0
POINT
  5
20114
100
AcDbEntity
  8
0
100
AcDbPoint
 10
27504.4897542273
 20
42310.3103122333
  0
POINT
  5
20115
100
AcDbEntity
  8
0
100
AcDbPoint
 10
27665.2370444384
 20
42380.3473645078
  0
POINT
  5
20116
100
AcDbEntity
  8
0
100
AcDbPoint
 10
27314.0964642017
 20
42310.8103076178
  0
POINT
  5
20117
100
AcDbEntity
  8
0
100
AcDbPoint
 10
27309.2905799075
 20
42330.1958377413
  0
POINT
  5
20118
100
AcDbEntity
  8
0
100
AcDbPoint
 10
27322.2649458349
 20
42340.4201947793
  0
POINT
  5
20119
100
AcDbEntity
  8
0
100
AcDbPoint
 10
27347.2429050764
 20
42315.5818153035
  0
POINT
  5
2011A
100
AcDbEntity
  8
0
100
AcDbPoint
 10
27382.3923958799
 20
42335.9851176227
  0
POINT
  5
2011B
100
AcDbEntity
  8
0
100
AcDbPoint
 10
27757.9574249374
 20
42424.8303707452
  0
POINT
  5
2011C
100
AcDbEntity
  8
0
100
AcDbPoint
 10
27808.5083567549
 20
42443.5620013266
  0
POINT
  5
2011D
100
AcDbEntity
  8
0
100
AcDbPoint
 10
27837.6650628715
 20
42457.4688269875
  0
POINT
  5
2011E
100
AcDbEntity
  8
0
100
AcDbPoint
 10
27448.2778905196
 20
42350.4344628925
  0
POINT
  5
2011F
100
AcDbEntity
  8
0
100
AcDbPoint
 10
27499.7432581742
 20
42384.8452340381
  0
POINT
  5
20120
100
AcDbEntity
  8
0
100
AcDbPoint
 10
27477.5283849272
 20
42376.4190304822
  0
POINT
  5
20121
100
AcDbEntity
  8
0
100
AcDbPoint
 10
27454.3042986278
 20
42430.3276460854
  0
POINT
  5
20122
100
AcDbEntity
  8
0
100
AcDbPoint
 10
27535.3311932877
 20
42384.4328913185
  0
POINT
  5
20123
100
AcDbEntity
  8
0
100
AcDbPoint
 10
29990.6125596781
 20
41880.5361433507
  0
POINT
  5
20124
100
AcDbEntity
  8
0
100
AcDbPoint
 10
25730.3941015464
 20
42486.3301731325
  0
POINT
  5
20125
100
AcDbEntity
  8
0
100
AcDbPoint
 10
25455.1069632167
 20
42085.1340901287
  0
POINT
  5
20126
100
AcDbEntity
  8
0
100
AcDbPoint
 10
26126.2812556463
 20
41909.9091420691
  0
POINT
  5
20127
100
AcDbEntity
  8
0
100
AcDbPoint
 10
25926.1229549421
 20
42401.0361811561
  0
POINT
  5
20128
100
AcDbEntity
  8
0
100
AcDbPoint
 10
27733.4301018874
 20
42466.1841471611
  0
POINT
  5
20129
100
AcDbEntity
  8
0
100
AcDbPoint
 10
27778.0704507602
 20
42487.2355451179
  0
POINT
  5
2012A
100
AcDbEntity
  8
0
100
AcDbPoint
 10
27810.0636453203
 20
42500.7819195982
  0
POINT
  5
2012B
100
AcDbEntity
  8
0
100
AcDbPoint
 10
27840.9848142355
 20
42528.6159199916
  0
POINT
  5
2012C
100
AcDbEntity
  8
0
100
AcDbPoint
 10
28322.8436108088
 20
42394.6791686976
  0
POINT
  5
2012D
100
AcDbEntity
  8
0
100
AcDbPoint
 10
28305.8350995626
 20
42377.0525115403
  0
POINT
  5
2012E
100
AcDbEntity
  8
0
100
AcDbPoint
 10
28322.8436108088
 20
42368.4677225944
  0
POINT
  5
2012F
100
AcDbEntity
  8
0
100
AcDbPoint
 10
28640.984783033
 20
42251.9536338549
  0
POINT
  5
20130
100
AcDbEntity
  8
0
100
AcDbPoint
 10
28677.9813381314
 20
42237.8066852765
  0
POINT
  5
20131
100
AcDbEntity
  8
0
100
AcDbPoint
 10
28659.8718619571
 20
42243.8418578496
  0
POINT
  5
20132
100
AcDbEntity
  8
0
100
AcDbPoint
 10
28726.7360946778
 20
42232.2847348853
  0
POINT
  5
20133
100
AcDbEntity
  8
0
100
AcDbPoint
 10
28873.6078189316
 20
42227.9318024265
  0
POINT
  5
20134
100
AcDbEntity
  8
0
100
AcDbPoint
 10
28916.8924214701
 20
42193.9298045402
  0
POINT
  5
20135
100
AcDbEntity
  8
0
100
AcDbPoint
 10
26012.8985799615
 20
42808.6150018208
  0
POINT
  5
20136
100
AcDbEntity
  8
0
100
AcDbPoint
 10
26019.8889655452
 20
42786.0599898366
  0
POINT
  5
20137
100
AcDbEntity
  8
0
100
AcDbPoint
 10
26003.9068990695
 20
42791.9858188548
  0
POINT
  5
20138
100
AcDbEntity
  8
0
100
AcDbPoint
 10
26023.4037294644
 20
42768.6274800318
  0
POINT
  5
20139
100
AcDbEntity
  8
0
100
AcDbPoint
 10
26047.2144063667
 20
42814.0218771384
  0
POINT
  5
2013A
100
AcDbEntity
  8
0
100
AcDbPoint
 10
26066.6965624036
 20
42808.4779399856
  0
POINT
  5
2013B
100
AcDbEntity
  8
0
100
AcDbPoint
 10
26059.223039537
 20
42788.4511245573
  0
POINT
  5
2013C
100
AcDbEntity
  8
0
100
AcDbPoint
 10
25997.1026226247
 20
42722.2412154725
  0
POINT
  5
2013D
100
AcDbEntity
  8
0
100
AcDbPoint
 10
26059.458850088
 20
42720.0014918419
  0
POINT
  5
2013E
100
AcDbEntity
  8
0
100
AcDbPoint
 10
26276.6893235614
 20
42699.7952626905
  0
POINT
  5
2013F
100
AcDbEntity
  8
0
100
AcDbPoint
 10
26255.8748953326
 20
42661.0487861426
  0
POINT
  5
20140
100
AcDbEntity
  8
0
100
AcDbPoint
 10
26306.6658785391
 20
42688.2488238875
  0
POINT
  5
20141
100
AcDbEntity
  8
0
100
AcDbPoint
 10
26304.4213078978
 20
42654.548176887
  0
POINT
  5
20142
100
AcDbEntity
  8
0
100
AcDbPoint
 10
25870.1340105016
 20
42549.3005668573
  0
POINT
  5
20143
100
AcDbEntity
  8
0
100
AcDbPoint
 10
25764.0082246119
 20
42528.6288959543
  0
POINT
  5
20144
100
AcDbEntity
  8
0
100
AcDbPoint
 10
25788.3856828977
 20
42522.3710158749
  0
POINT
  5
20145
100
AcDbEntity
  8
0
100
AcDbPoint
 10
25782.979170942
 20
42502.4839238372
  0
POINT
  5
20146
100
AcDbEntity
  8
0
100
AcDbPoint
 10
25809.249621134
 20
42518.396983098
  0
POINT
  5
20147
100
AcDbEntity
  8
0
100
AcDbPoint
 10
25968.5431954724
 20
42518.8424153298
  0
POINT
  5
20148
100
AcDbEntity
  8
0
100
AcDbPoint
 10
25932.8160818327
 20
42527.3030552744
  0
POINT
  5
20149
100
AcDbEntity
  8
0
100
AcDbPoint
 10
25942.4434495279
 20
42558.0694284159
  0
POINT
  5
2014A
100
AcDbEntity
  8
0
100
AcDbPoint
 10
26000.288090702
 20
42506.3221475987
  0
POINT
  5
2014B
100
AcDbEntity
  8
0
100
AcDbPoint
 10
26070.5990704903
 20
42487.0560693723
  0
POINT
  5
2014C
100
AcDbEntity
  8
0
100
AcDbPoint
 10
25921.4861608345
 20
42491.4449623767
  0
POINT
  5
2014D
100
AcDbEntity
  8
0
100
AcDbPoint
 10
25977.722593401
 20
42475.4833503949
  0
POINT
  5
2014E
100
AcDbEntity
  8
0
100
AcDbPoint
 10
25992.1379689248
 20
42464.2507113494
  0
POINT
  5
2014F
100
AcDbEntity
  8
0
100
AcDbPoint
 10
26006.9764161668
 20
42448.8177000541
  0
POINT
  5
20150
100
AcDbEntity
  8
0
100
AcDbPoint
 10
26013.5475795564
 20
42467.7770299139
  0
POINT
  5
20151
100
AcDbEntity
  8
0
100
AcDbPoint
 10
26061.2340292186
 20
42452.3438110619
  0
POINT
  5
20152
100
AcDbEntity
  8
0
100
AcDbPoint
 10
26052.7017363128
 20
42412.4411945419
  0
POINT
  5
20153
100
AcDbEntity
  8
0
100
AcDbPoint
 10
26047.7224249948
 20
42392.0804114722
  0
POINT
  5
20154
100
AcDbEntity
  8
0
100
AcDbPoint
 10
26157.5489933096
 20
42465.0958231489
  0
POINT
  5
20155
100
AcDbEntity
  8
0
100
AcDbPoint
 10
26186.2905531386
 20
42473.9094066672
  0
POINT
  5
20156
100
AcDbEntity
  8
0
100
AcDbPoint
 10
26200.9954103264
 20
42457.1704386756
  0
POINT
  5
20157
100
AcDbEntity
  8
0
100
AcDbPoint
 10
26256.7508092986
 20
42444.2310640884
  0
POINT
  5
20158
100
AcDbEntity
  8
0
100
AcDbPoint
 10
26316.3054988046
 20
42433.654977344
  0
POINT
  5
20159
100
AcDbEntity
  8
0
100
AcDbPoint
 10
26365.4535525609
 20
42410.8781305068
  0
POINT
  5
2015A
100
AcDbEntity
  8
0
100
AcDbPoint
 10
26436.7703898208
 20
42401.6178076545
  0
POINT
  5
2015B
100
AcDbEntity
  8
0
100
AcDbPoint
 10
26411.007378942
 20
42404.5695056089
  0
POINT
  5
2015C
100
AcDbEntity
  8
0
100
AcDbPoint
 10
26438.7399023335
 20
42449.6355945155
  0
POINT
  5
2015D
100
AcDbEntity
  8
0
100
AcDbPoint
 10
26415.5565547411
 20
42432.2977104428
  0
POINT
  5
2015E
100
AcDbEntity
  8
0
100
AcDbPoint
 10
26533.2525302005
 20
42380.4927379082
  0
POINT
  5
2015F
100
AcDbEntity
  8
0
100
AcDbPoint
 10
26604.2987146882
 20
42346.9816068742
  0
POINT
  5
20160
100
AcDbEntity
  8
0
100
AcDbPoint
 10
26665.9270154413
 20
42377.2789518503
  0
POINT
  5
20161
100
AcDbEntity
  8
0
100
AcDbPoint
 10
26667.4952502695
 20
42361.8403171053
  0
POINT
  5
20162
100
AcDbEntity
  8
0
100
AcDbPoint
 10
26683.8372564038
 20
42355.9806963431
  0
POINT
  5
20163
100
AcDbEntity
  8
0
100
AcDbPoint
 10
26689.4120598815
 20
42375.6939937753
  0
POINT
  5
20164
100
AcDbEntity
  8
0
100
AcDbPoint
 10
26677.4096702056
 20
42386.3582113523
  0
POINT
  5
20165
100
AcDbEntity
  8
0
100
AcDbPoint
 10
26515.4216711779
 20
42331.5130334344
  0
POINT
  5
20166
100
AcDbEntity
  8
0
100
AcDbPoint
 10
26713.1350244981
 20
42316.6584952677
  0
POINT
  5
20167
100
AcDbEntity
  8
0
100
AcDbPoint
 10
26720.7810228321
 20
42337.324546861
  0
POINT
  5
20168
100
AcDbEntity
  8
0
100
AcDbPoint
 10
26774.9448677024
 20
42300.9008468255
  0
POINT
  5
20169
100
AcDbEntity
  8
0
100
AcDbPoint
 10
26824.0509787446
 20
42290.3764636218
  0
POINT
  5
2016A
100
AcDbEntity
  8
0
100
AcDbPoint
 10
26885.8145287054
 20
42278.6910453413
  0
POINT
  5
2016B
100
AcDbEntity
  8
0
100
AcDbPoint
 10
26638.702944962
 20
42298.2015676841
  0
POINT
  5
2016C
100
AcDbEntity
  8
0
100
AcDbPoint
 10
26713.1350244981
 20
42279.2267774722
  0
POINT
  5
2016D
100
AcDbEntity
  8
0
100
AcDbPoint
 10
26938.0105636471
 20
42216.8355080069
  0
POINT
  5
2016E
100
AcDbEntity
  8
0
100
AcDbPoint
 10
27011.4874565048
 20
42241.8743462701
  0
POINT
  5
2016F
100
AcDbEntity
  8
0
100
AcDbPoint
 10
27024.8518432929
 20
42274.3301820297
  0
POINT
  5
20170
100
AcDbEntity
  8
0
100
AcDbPoint
 10
26964.4505191339
 20
42251.3530871882
  0
POINT
  5
20171
100
AcDbEntity
  8
0
100
AcDbPoint
 10
27056.7077183611
 20
42172.8442685703
  0
POINT
  5
20172
100
AcDbEntity
  8
0
100
AcDbPoint
 10
27030.5407281356
 20
42229.6604748924
  0
POINT
  5
20173
100
AcDbEntity
  8
0
100
AcDbPoint
 10
27051.920712332
 20
42228.5882805621
  0
POINT
  5
20174
100
AcDbEntity
  8
0
100
AcDbPoint
 10
27065.2691340339
 20
42263.4210621374
  0
POINT
  5
20175
100
AcDbEntity
  8
0
100
AcDbPoint
 10
27097.7132347496
 20
42217.9954006066
  0
POINT
  5
20176
100
AcDbEntity
  8
0
100
AcDbPoint
 10
27160.8041258845
 20
42199.4982916508
  0
POINT
  5
20177
100
AcDbEntity
  8
0
100
AcDbPoint
 10
27166.6213519321
 20
42226.2879869915
  0
POINT
  5
20178
100
AcDbEntity
  8
0
100
AcDbPoint
 10
27138.3832612816
 20
42206.1838707381
  0
POINT
  5
20179
100
AcDbEntity
  8
0
100
AcDbPoint
 10
27311.3724859158
 20
42223.5557316525
  0
POINT
  5
2017A
100
AcDbEntity
  8
0
100
AcDbPoint
 10
27191.8672895754
 20
42193.070286462
  0
POINT
  5
2017B
100
AcDbEntity
  8
0
100
AcDbPoint
 10
27368.6854255341
 20
42227.5886549937
  0
POINT
  5
2017C
100
AcDbEntity
  8
0
100
AcDbPoint
 10
27687.2134810048
 20
42273.9406494608
  0
POINT
  5
2017D
100
AcDbEntity
  8
0
100
AcDbPoint
 10
27409.8510779794
 20
42232.3321748341
  0
POINT
  5
2017E
100
AcDbEntity
  8
0
100
AcDbPoint
 10
27480.8111198648
 20
42260.451755158
  0
POINT
  5
2017F
100
AcDbEntity
  8
0
100
AcDbPoint
 10
27899.3183598658
 20
42343.5670863978
  0
POINT
  5
20180
100
AcDbEntity
  8
0
100
AcDbPoint
 10
27537.4821823698
 20
42300.8340132092
  0
POINT
  5
20181
100
AcDbEntity
  8
0
100
AcDbPoint
 10
27995.135966565
 20
42341.6018617959
  0
POINT
  5
20182
100
AcDbEntity
  8
0
100
AcDbPoint
 10
27965.250378092
 20
42355.2106124936
  0
POINT
  5
20183
100
AcDbEntity
  8
0
100
AcDbPoint
 10
27586.6076397136
 20
42249.0347055023
  0
POINT
  5
20184
100
AcDbEntity
  8
0
100
AcDbPoint
 10
28026.3825818886
 20
42339.827698691
  0
POINT
  5
20185
100
AcDbEntity
  8
0
100
AcDbPoint
 10
28252.1258271058
 20
42263.4008555641
  0
POINT
  5
20186
100
AcDbEntity
  8
0
100
AcDbPoint
 10
28334.8229084288
 20
42195.6785383115
  0
POINT
  5
20187
100
AcDbEntity
  8
0
100
AcDbPoint
 10
28378.4189396167
 20
42166.2479683943
  0
POINT
  5
20188
100
AcDbEntity
  8
0
100
AcDbPoint
 10
27556.5609044042
 20
42225.3244429955
  0
POINT
  5
20189
100
AcDbEntity
  8
0
100
AcDbPoint
 10
28279.4909387062
 20
42215.6500364301
  0
POINT
  5
2018A
100
AcDbEntity
  8
0
100
AcDbPoint
 10
27798.9643158396
 20
42368.1262330348
  0
POINT
  5
2018B
100
AcDbEntity
  8
0
100
AcDbPoint
 10
28888.8781134807
 20
42004.8589143052
  0
POINT
  5
2018C
100
AcDbEntity
  8
0
100
AcDbPoint
 10
29141.9722575537
 20
41987.0403467224
  0
POINT
  5
2018D
100
AcDbEntity
  8
0
100
AcDbPoint
 10
28180.0039222219
 20
42335.9153280351
  0
POINT
  5
2018E
100
AcDbEntity
  8
0
100
AcDbPoint
 10
28256.2613678955
 20
42302.6111040003
  0
POINT
  5
2018F
100
AcDbEntity
  8
0
100
AcDbPoint
 10
28309.9415773395
 20
42274.4510382784
  0
POINT
  5
20190
100
AcDbEntity
  8
0
100
AcDbPoint
 10
29658.1023331863
 20
41986.5661695341
  0
POINT
  5
20191
100
AcDbEntity
  8
0
100
AcDbPoint
 10
28404.0788913655
 20
42202.9903433522
  0
POINT
  5
20192
100
AcDbEntity
  8
0
100
AcDbPoint
 10
28751.4828286657
 20
42109.2096552795
  0
POINT
  5
20193
100
AcDbEntity
  8
0
100
AcDbPoint
 10
28743.0011455118
 20
42090.1098215601
  0
POINT
  5
20194
100
AcDbEntity
  8
0
100
AcDbPoint
 10
28725.8046483182
 20
42123.8297276414
  0
POINT
  5
20195
100
AcDbEntity
  8
0
100
AcDbPoint
 10
28597.4452326484
 20
42133.6617445719
  0
POINT
  5
20196
100
AcDbEntity
  8
0
100
AcDbPoint
 10
29646.6501452868
 20
42020.6727119924
  0
POINT
  5
20197
100
AcDbEntity
  8
0
100
AcDbPoint
 10
29626.1005892177
 20
42041.0638298766
  0
POINT
  5
20198
100
AcDbEntity
  8
0
100
AcDbPoint
 10
29683.9379757741
 20
42024.1237904699
  0
POINT
  5
20199
100
AcDbEntity
  8
0
100
AcDbPoint
 10
29231.3031108982
 20
42035.6004665613
  0
POINT
  5
2019A
100
AcDbEntity
  8
0
100
AcDbPoint
 10
29215.0045750282
 20
42049.1020402405
  0
POINT
  5
2019B
100
AcDbEntity
  8
0
100
AcDbPoint
 10
29736.4462097614
 20
42028.4353613666
  0
POINT
  5
2019C
100
AcDbEntity
  8
0
100
AcDbPoint
 10
30119.8333327273
 20
42072.4438485763
  0
POINT
  5
2019D
100
AcDbEntity
  8
0
100
AcDbPoint
 10
30230.7778265765
 20
42084.2034101847
  0
POINT
  5
2019E
100
AcDbEntity
  8
0
100
AcDbPoint
 10
28483.5303037772
 20
42238.0516814942
  0
POINT
  5
2019F
100
AcDbEntity
  8
0
100
AcDbPoint
 10
27364.5785834541
 20
42160.6365512032
  0
POINT
  5
201A0
100
AcDbEntity
  8
0
100
AcDbPoint
 10
29041.5648454442
 20
41984.380907593
  0
POINT
  5
201A1
100
AcDbEntity
  8
0
100
AcDbPoint
 10
27273.8252714041
 20
42134.9585518177
  0
POINT
  5
201A2
100
AcDbEntity
  8
0
100
AcDbPoint
 10
26942.0510732629
 20
42607.7647515562
  0
POINT
  5
201A3
100
AcDbEntity
  8
0
100
AcDbPoint
 10
27070.6987324758
 20
42567.0208430122
  0
POINT
  5
201A4
100
AcDbEntity
  8
0
100
AcDbPoint
 10
27109.430273686
 20
42565.8167626894
  0
POINT
  5
201A5
100
AcDbEntity
  8
0
100
AcDbPoint
 10
26903.5137757757
 20
42565.4754060171
  0
POINT
  5
201A6
100
AcDbEntity
  8
0
100
AcDbPoint
 10
27182.9421697024
 20
42482.1218919165
  0
POINT
  5
201A7
100
AcDbEntity
  8
0
100
AcDbPoint
 10
28622.2933967301
 20
41948.2077204994
  0
POINT
  5
201A8
100
AcDbEntity
  8
0
100
AcDbPoint
 10
28421.093491
 20
41938.6963066936
  0
POINT
  5
201A9
100
AcDbEntity
  8
0
100
AcDbPoint
 10
28562.7534699059
 20
41952.534634083
  0
POINT
  5
201AA
100
AcDbEntity
  8
0
100
AcDbPoint
 10
28358.039165828
 20
41995.9603740996
  0
POINT
  5
201AB
100
AcDbEntity
  8
0
100
AcDbPoint
 10
28511.1137814255
 20
41902.227512898
  0
POINT
  5
201AC
100
AcDbEntity
  8
0
100
AcDbPoint
 10
28087.6576774517
 20
42166.7934275418
  0
POINT
  5
201AD
100
AcDbEntity
  8
0
100
AcDbPoint
 10
27904.112022493
 20
42310.3808067367
  0
POINT
  5
201AE
100
AcDbEntity
  8
0
100
AcDbPoint
 10
28970.3608757011
 20
41807.1792610867
  0
POINT
  5
201AF
100
AcDbEntity
  8
0
100
AcDbPoint
 10
25723.1691764481
 20
42426.1058938632
  0
POINT
  5
201B0
100
AcDbEntity
  8
0
100
AcDbPoint
 10
25742.8370472432
 20
42396.317502793
  0
POINT
  5
201B1
100
AcDbEntity
  8
0
100
AcDbPoint
 10
25932.4767787443
 20
42172.0015164281
  0
POINT
  5
201B2
100
AcDbEntity
  8
0
100
AcDbPoint
 10
25785.2236724613
 20
42459.9082146191
  0
POINT
  5
201B3
100
AcDbEntity
  8
0
100
AcDbPoint
 10
26089.6807372553
 20
42196.034355949
  0
POINT
  5
201B4
100
AcDbEntity
  8
0
100
AcDbPoint
 10
26669.7897803301
 20
42415.4660566041
  0
POINT
  5
201B5
100
AcDbEntity
  8
0
100
AcDbPoint
 10
26619.3426852898
 20
42468.1726244956
  0
POINT
  5
201B6
100
AcDbEntity
  8
0
100
AcDbPoint
 10
26591.9839183876
 20
42572.7689483676
  0
POINT
  5
201B7
100
AcDbEntity
  8
0
100
AcDbPoint
 10
26570.9999597354
 20
42555.6699831716
  0
POINT
  5
201B8
100
AcDbEntity
  8
0
100
AcDbPoint
 10
26658.1231088844
 20
42522.4786071181
  0
POINT
  5
201B9
100
AcDbEntity
  8
0
100
AcDbPoint
 10
26690.9025223896
 20
42627.2478213379
  0
POINT
  5
201BA
100
AcDbEntity
  8
0
100
AcDbPoint
 10
26878.3779714752
 20
42809.2279351937
  0
POINT
  5
201BB
100
AcDbEntity
  8
0
100
AcDbPoint
 10
26809.9750282426
 20
42928.6261808913
  0
POINT
  5
201BC
100
AcDbEntity
  8
0
100
AcDbPoint
 10
26784.7857945031
 20
42934.8563184622
  0
POINT
  5
201BD
100
AcDbEntity
  8
0
100
AcDbPoint
 10
26892.7173224503
 20
43074.1324691119
  0
POINT
  5
201BE
100
AcDbEntity
  8
0
100
AcDbPoint
 10
26901.8451765152
 20
43101.3803589012
  0
POINT
  5
201BF
100
AcDbEntity
  8
0
100
AcDbPoint
 10
27094.0982962327
 20
42502.9401337433
  0
POINT
  5
201C0
100
AcDbEntity
  8
0
100
AcDbPoint
 10
26501.6069375108
 20
43208.3242189232
  0
POINT
  5
201C1
100
AcDbEntity
  8
0
100
AcDbPoint
 10
26958.1388412217
 20
43083.6767052088
  0
POINT
  5
201C2
100
AcDbEntity
  8
0
100
AcDbPoint
 10
26069.1478764448
 20
42965.7249518716
  0
POINT
  5
201C3
100
AcDbEntity
  8
0
100
AcDbPoint
 10
26366.4654509016
 20
42843.1303799429
  0
POINT
  5
201C4
100
AcDbEntity
  8
0
100
AcDbPoint
 10
26329.6340764795
 20
42851.631451897
  0
POINT
  5
201C5
100
AcDbEntity
  8
0
100
AcDbPoint
 10
26856.9400712872
 20
42667.6776368639
  0
POINT
  5
201C6
100
AcDbEntity
  8
0
100
AcDbPoint
 10
26607.2782083813
 20
42772.6551346375
  0
POINT
  5
201C7
100
AcDbEntity
  8
0
100
AcDbPoint
 10
26720.5161066529
 20
42748.4568433963
  0
POINT
  5
201C8
100
AcDbEntity
  8
0
100
AcDbPoint
 10
26764.561739207
 20
42736.1122880258
  0
POINT
  5
201C9
100
AcDbEntity
  8
0
100
AcDbPoint
 10
26507.869033133
 20
42846.9606599662
  0
POINT
  5
201CA
100
AcDbEntity
  8
0
100
AcDbPoint
 10
26558.5866662135
 20
42839.8328128127
  0
POINT
  5
201CB
100
AcDbEntity
  8
0
100
AcDbPoint
 10
26578.438636211
 20
42868.6602758259
  0
POINT
  5
201CC
100
AcDbEntity
  8
0
100
AcDbPoint
 10
26719.0644604951
 20
42793.035008324
  0
POINT
  5
201CD
100
AcDbEntity
  8
0
100
AcDbPoint
 10
25619.8638998927
 20
43141.0510460832
  0
POINT
  5
201CE
100
AcDbEntity
  8
0
100
AcDbPoint
 10
25663.6791809815
 20
42201.1548472317
  0
POINT
  5
201CF
100
AcDbEntity
  8
0
100
AcDbPoint
 10
25787.9472104045
 20
42222.864451152
  0
POINT
  5
201D0
100
AcDbEntity
  8
0
100
AcDbPoint
 10
28113.2964005193
 20
42600.2457501118
  0
POINT
  5
201D1
100
AcDbEntity
  8
0
100
AcDbPoint
 10
27575.6092769459
 20
42351.9282418519
  0
POINT
  5
201D2
100
AcDbEntity
  8
0
100
AcDbPoint
 10
25860.8259242418
 20
42505.5270501111
  0
POINT
  5
201D3
100
AcDbEntity
  8
0
100
AcDbPoint
 10
27000.53517184
 20
42193.6495970933
  0
POINT
  5
201D4
100
AcDbEntity
  8
0
100
AcDbPoint
 10
26339.5611485616
 20
42364.0725027648
  0
POINT
  5
201D5
100
AcDbEntity
  8
0
100
AcDbPoint
 10
29579.4486744745
 20
42047.8069296693
  0
POINT
  5
201D6
100
AcDbEntity
  8
0
100
AcDbPoint
 10
26950.6339420146
 20
42311.02287735
  0
POINT
  5
201D7
100
AcDbEntity
  8
0
100
AcDbPoint
 10
25996.9201756688
 20
42280.0668526191
  0
POINT
  5
201D8
100
AcDbEntity
  8
0
100
AcDbPoint
 10
26174.5759700961
 20
42015.4436142014
  0
POINT
  5
201D9
100
AcDbEntity
  8
0
100
AcDbPoint
 10
26282.7891609087
 20
42864.6384773366
  0
POINT
  5
201DA
100
AcDbEntity
  8
0
100
AcDbPoint
 10
26622.2909568727
 20
43103.025478891
  0
POINT
  5
201DB
100
AcDbEntity
  8
0
100
AcDbPoint
 10
27518.7903150808
 20
42448.5345266223
  0
POINT
  5
201DC
100
AcDbEntity
  8
0
100
AcDbPoint
 10
27518.7903150808
 20
42422.987800126
  0
POINT
  5
201DD
100
AcDbEntity
  8
0
100
AcDbPoint
 10
26516.6403383763
 20
43008.6021056437
  0
POINT
  5
201DE
100
AcDbEntity
  8
0
100
AcDbPoint
 10
30545.1988009422
 20
42106.6439204581
  0
POINT
  5
201DF
100
AcDbEntity
  8
0
100
AcDbPoint
 10
27470.1578464018
 20
42410.1452695174
  0
POINT
  5
201E0
100
AcDbEntity
  8
0
100
AcDbPoint
 10
27484.7561939387
 20
42436.7865066722
  0
POINT
  5
201E1
100
AcDbEntity
  8
0
100
AcDbPoint
 10
26522.8398876623
 20
42460.5035813482
  0
POINT
  5
201E2
100
AcDbEntity
  8
0
100
AcDbPoint
 10
25989.4320723552
 20
42811.172285521
  0
POINT
  5
201E3
100
AcDbEntity
  8
0
100
AcDbPoint
 10
25990.8614092652
 20
42820.9926951174
  0
POINT
  5
201E4
100
AcDbEntity
  8
0
100
AcDbPoint
 10
27451.7359328987
 20
42409.4039356006
  0
POINT
  5
201E5
100
AcDbEntity
  8
0
100
AcDbPoint
 10
26253.6440634289
 20
43271.9175456749
  0
POINT
  5
201E6
100
AcDbEntity
  8
0
100
AcDbPoint
 10
26070.6707728176
 20
43262.2533577695
  0
POINT
  5
201E7
100
AcDbEntity
  8
0
100
AcDbPoint
 10
27342.5527472594
 20
42346.5226152129
  0
POINT
  5
201E8
100
AcDbEntity
  8
0
100
AcDbPoint
 10
30508.5386589026
 20
42453.1214971092
  0
POINT
  5
201E9
100
AcDbEntity
  8
0
100
AcDbPoint
 10
29178.3736936241
 20
42172.1220938675
  0
POINT
  5
201EA
100
AcDbEntity
  8
0
100
AcDbPoint
 10
29143.1888678262
 20
42223.956276613
  0
POINT
  5
201EB
100
AcDbEntity
  8
0
100
AcDbPoint
 10
26043.7199122906
 20
42572.999343514
  0
POINT
  5
201EC
100
AcDbEntity
  8
0
100
AcDbPoint
 10
28188.2243840338
 20
42458.9411530796
  0
POINT
  5
201ED
100
AcDbEntity
  8
0
100
AcDbPoint
 10
27650.9072807588
 20
42249.7834799802
  0
POINT
  5
201EE
100
AcDbEntity
  8
0
100
AcDbPoint
 10
27662.0978884844
 20
42261.2838769261
  0
POINT
  5
201EF
100
AcDbEntity
  8
0
100
AcDbPoint
 10
27260.0788700808
 20
42207.1922577796
  0
POINT
  5
201F0
100
AcDbEntity
  8
0
100
AcDbPoint
 10
25657.263864341
 20
42431.9687728915
  0
POINT
  5
201F1
100
AcDbEntity
  8
0
100
AcDbPoint
 10
26074.0361848165
 20
42598.9641141982
  0
POINT
  5
201F2
100
AcDbEntity
  8
0
100
AcDbPoint
 10
26302.0468448205
 20
42544.9228339329
  0
POINT
  5
201F3
100
AcDbEntity
  8
0
100
AcDbPoint
 10
26166.1735530229
 20
42575.6168806515
  0
POINT
  5
201F4
100
AcDbEntity
  8
0
100
AcDbPoint
 10
28440.9836350007
 20
42041.536363884
  0
POINT
  5
201F5
100
AcDbEntity
  8
0
100
AcDbPoint
 10
29154.6475998015
 20
42131.0920551874
  0
POINT
  5
201F6
100
AcDbEntity
  8
0
100
AcDbPoint
 10
29271.7967158864
 20
41907.6949729316
  0
POINT
  5
201F7
100
AcDbEntity
  8
0
100
AcDbPoint
 10
30889.9803324578
 20
43403.5181130325
  0
POINT
  5
201F8
100
AcDbEntity
  8
0
100
AcDbPoint
 10
31012.0074117926
 20
43212.4918047099
  0
POINT
  5
201F9
100
AcDbEntity
  8
0
100
AcDbPoint
 10
30875.1638566089
 20
42988.8206437623
  0
POINT
  5
201FA
100
AcDbEntity
  8
0
100
AcDbPoint
 10
30723.2876340038
 20
43024.080119101
  0
POINT
  5
201FB
100
AcDbEntity
  8
0
100
AcDbPoint
 10
30843.617400544
 20
42786.0212842092
  0
POINT
  5
201FC
100
AcDbEntity
  8
0
100
AcDbPoint
 10
27070.0592272562
 20
42298.4167128677
  0
POINT
  5
201FD
100
AcDbEntity
  8
0
100
AcDbPoint
 10
27933.7650113616
 20
42085.9983729474
  0
POINT
  5
201FE
100
AcDbEntity
  8
0
100
AcDbPoint
 10
25664.0128459937
 20
43465.6268105809
  0
POINT
  5
201FF
100
AcDbEntity
  8
0
100
AcDbPoint
 10
26750.190448052
 20
42440.2518320608
  0
POINT
  5
20200
100
AcDbEntity
  8
0
100
AcDbPoint
 10
26084.8747067868
 20
42177.7737225479
  0
POINT
  5
20201
100
AcDbEntity
  8
0
100
AcDbPoint
 10
25524.379515641
 20
42284.832105068
  0
POINT
  5
20202
100
AcDbEntity
  8
0
100
AcDbPoint
 10
26006.2015418594
 20
42670.459608165
  0
POINT
  5
20203
100
AcDbEntity
  8
0
100
AcDbPoint
 10
25957.4126420787
 20
42501.8650650446
  0
POINT
  5
20204
100
AcDbEntity
  8
0
100
AcDbPoint
 10
26022.1151748295
 20
42326.4155405011
  0
POINT
  5
20205
100
AcDbEntity
  8
0
100
AcDbPoint
 10
27358.0181592409
 20
42171.8367537568
  0
POINT
  5
20206
100
AcDbEntity
  8
0
100
AcDbPoint
 10
25871.0112294406
 20
42659.684747246
  0
POINT
  5
20207
100
AcDbEntity
  8
0
100
AcDbPoint
 10
26261.5056346624
 20
42469.6823907929
  0
POINT
  5
20208
100
AcDbEntity
  8
0
100
AcDbPoint
 10
27676.1337698346
 20
42454.4713325406
  0
POINT
  5
20209
100
AcDbEntity
  8
0
100
AcDbPoint
 10
27726.1339635007
 20
42480.8971997011
  0
POINT
  5
2020A
100
AcDbEntity
  8
0
100
AcDbPoint
 10
27774.7303001685
 20
42639.1875758214
  0
POINT
  5
2020B
100
AcDbEntity
  8
0
100
AcDbPoint
 10
29589.2413682971
 20
41750.4269169594
  0
POINT
  5
2020C
100
AcDbEntity
  8
0
100
AcDbPoint
 10
27628.586026702
 20
42427.3580587801
  0
POINT
  5
2020D
100
AcDbEntity
  8
0
100
AcDbPoint
 10
29540.7281302061
 20
41945.8121830894
  0
POINT
  5
2020E
100
AcDbEntity
  8
0
100
AcDbPoint
 10
26598.5765404525
 20
42305.4247118912
  0
POINT
  5
2020F
100
AcDbEntity
  8
0
100
AcDbPoint
 10
26473.8086001524
 20
42342.3332434245
  0
POINT
  5
20210
100
AcDbEntity
  8
0
100
AcDbPoint
 10
26497.8694929358
 20
42380.4927379082
  0
POINT
  5
20211
100
AcDbEntity
  8
0
100
AcDbPoint
 10
25958.7782949059
 20
41526.8135481938
  0
ENDSEC
  0
SECTION
  2
OBJECTS
  0
DICTIONARY
  5
C
330
0
100
AcDbDictionary
281
     1
  3
ACAD_GROUP
350
D
  3
ACAD_LAYOUT
350
1A
  3
ACAD_MLEADERSTYLE
350
43
  3
ACAD_PLOTSETTINGS
350
19
  3
ACAD_PLOTSTYLENAME
350
E
  3
ACAD_TABLESTYLE
350
42
  0
DICTIONARY
  5
D
102
{ACAD_REACTORS
330
C
102
}
330
C
100
AcDbDictionary
281
     1
  0
DICTIONARY
  5
1A
102
{ACAD_REACTORS
330
C
102
}
330
C
100
AcDbDictionary
281
     1
  3
Layout1
350
1E
  3
Model
350
22
  0
DICTIONARY
  5
43
102
{ACAD_REACTORS
330
C
102
}
330
C
100
AcDbDictionary
281
     1
  0
DICTIONARY
  5
19
102
{ACAD_REACTORS
330
C
102
}
330
C
100
AcDbDictionary
281
     1
  0
ACDBDICTIONARYWDFLT
  5
E
102
{ACAD_REACTORS
330
C
102
}
330
C
100
AcDbDictionary
281
     1
  3
Normal
350
F
100
AcDbDictionaryWithDefault
340
F
  0
DICTIONARY
  5
42
102
{ACAD_REACTORS
330
C
102
}
330
C
100
AcDbDictionary
281
     1
  0
LAYOUT
  5
1E
102
{ACAD_REACTORS
330
1A
102
}
330
1A
100
AcDbPlotSettings
  1

  2
none_device
  4

  6

 40
0.0
 41
0.0
 42
0.0
 43
0.0
 44
0.0
 45
0.0
 46
0.0
 47
0.0
 48
0.0
 49
0.0
140
0.0
141
0.0
142
1.0
143
1.0
 70
   688
 72
     0
 73
     0
 74
     5
  7

 75
    16
 76
     0
 77
     2
 78
   300
147
1.0
148
0.0
149
0.0
100
AcDbLayout
  1
Layout1
 70
     1
 71
     1
 10
0.0
 20
0.0
 11
12.0
 21
9.0
 12
0.0
 22
0.0
 32
0.0
 14
1.000000000000000E+20
 24
1.000000000000000E+20
 34
1.000000000000000E+20
 15
-1.000000000000000E+20
 25
-1.000000000000000E+20
 35
-1.000000000000000E+20
146
0.0
 13
0.0
 23
0.0
 33
0.0
 16
1.0
 26
0.0
 36
0.0
 17
0.0
 27
1.0
 37
0.0
 76
     0
330
1B
  0
LAYOUT
  5
22
102
{ACAD_REACTORS
330
1A
102
}
330
1A
100
AcDbPlotSettings
  1

  2
none_device
  4

  6

 40
0.0
 41
0.0
 42
0.0
 43
0.0
 44
0.0
 45
0.0
 46
0.0
 47
0.0
 48
0.0
 49
0.0
140
0.0
141
0.0
142
1.0
143
1.0
 70
  1712
 72
     0
 73
     0
 74
     0
  7

 75
     0
 76
     0
 77
     2
 78
   300
147
1.0
148
0.0
149
0.0
100
AcDbLayout
  1
Model
 70
     1
 71
     0
 10
0.0
 20
0.0
 11
12.0
 21
9.0
 12
0.0
 22
0.0
 32
0.0
 14
30.0
 24
49.75
 34
0.0
 15
130.5
 25
163.1318914119703
 35
0.0
146
0.0
 13
0.0
 23
0.0
 33
0.0
 16
1.0
 26
0.0
 36
0.0
 17
0.0
 27
1.0
 37
0.0
 76
     0
330
1F
331
29
  0
ACDBPLACEHOLDER
  5
F
102
{ACAD_REACTORS
330
E
102
}
330
E
  0
ENDSEC
  0
EOF
