999
DXF file generated by netDxf https://github.com/haplokuon/netDxf, Copyright(C) 2009-2020 Daniel Carvajal, Licensed under LGPL
0
SECTION
2
HEADER
9
$ACADVER
1
AC1024
9
$DWGCODEPAGE
3
ANSI_1252
9
$LASTSAVEDBY
1
Admin
9
$HANDSEED
5
102
9
$ANGBASE
50
0.0
9
$ANGDIR
70
0
9
$ATTMODE
70
1
9
$AUNITS
70
0
9
$AUPREC
70
0
9
$CECOLOR
62
256
9
$CELTSCALE
40
1.0
9
$CELTYPE
6
ByLayer
9
$CELWEIGHT
370
-1
9
$CLAYER
8
0
9
$CMLJUST
70
0
9
$CMLSCALE
40
20.0
9
$CMLSTYLE
2
Standard
9
$DIMSTYLE
2
Standard
9
$TEXTSIZE
40
2.5
9
$TEXTSTYLE
7
Standard
9
$LUNITS
70
2
9
$LUPREC
70
4
9
$MIRRTEXT
70
0
9
$EXTNAMES
290
1
9
$INSBASE
10
0.0
20
0.0
30
0.0
9
$INSUNITS
70
0
9
$LTSCALE
40
1.0
9
$LWDISPLAY
290
0
9
$PDMODE
70
33
9
$PDSIZE
40
0.75
9
$PLINEGEN
70
0
9
$PSLTSCALE
70
1
9
$TDCREATE
40
2460893.58478328
9
$TDUCREATE
40
2460893.16811661
9
$TDUPDATE
40
2460893.58478328
9
$TDUUPDATE
40
2460893.16811661
9
$TDINDWG
40
0.0
9
$UCSORG
10
0.0
20
0.0
30
0.0
9
$UCSXDIR
10
1.0
20
0.0
30
0.0
9
$UCSYDIR
10
0.0
20
1.0
30
0.0
9
$DIMADEC
70
0
9
$DIMALT
70
0
9
$DIMALTD
70
2
9
$DIMALTF
40
25.4
9
$DIMALTRND
40
0.0
9
$DIMALTTD
70
2
9
$DIMALTTZ
70
0
9
$DIMALTU
70
2
9
$DIMALTZ
70
0
9
$DIMAPOST
1

9
$DIMATFIT
70
3
9
$DIMAUNIT
70
0
9
$DIMASZ
40
0.18
9
$DIMAZIN
70
0
9
$DIMSAH
70
0
9
$DIMBLK
1

9
$DIMLDRBLK
1

9
$DIMCEN
40
0.09
9
$DIMCLRD
70
0
9
$DIMCLRE
70
0
9
$DIMCLRT
70
0
9
$DIMDEC
70
4
9
$DIMDLE
40
0.0
9
$DIMDLI
40
0.38
9
$DIMDSEP
70
46
9
$DIMEXE
40
0.18
9
$DIMEXO
40
0.0625
9
$DIMFXLON
70
0
9
$DIMFXL
40
1.0
9
$DIMGAP
40
0.09
9
$DIMJUST
70
0
9
$DIMLFAC
40
1.0
9
$DIMLUNIT
70
2
9
$DIMLWD
70
-2
9
$DIMLWE
70
-2
9
$DIMPOST
1

9
$DIMRND
40
0.0
9
$DIMSCALE
40
1.0
9
$DIMSD1
70
0
9
$DIMSD2
70
0
9
$DIMSE1
70
0
9
$DIMSE2
70
0
9
$DIMSOXD
70
0
9
$DIMTAD
70
0
9
$DIMTDEC
70
4
9
$DIMTFAC
40
1.0
9
$DIMTIH
70
0
9
$DIMTIX
70
0
9
$DIMTM
40
0.0
9
$DIMTMOVE
70
0
9
$DIMTOFL
70
0
9
$DIMTOH
70
0
9
$DIMTOL
70
0
9
$DIMLIM
70
0
9
$DIMTOLJ
70
1
9
$DIMTP
40
0.0
9
$DIMTXT
40
0.18
9
$DIMTXTDIRECTION
70
0
9
$DIMTZIN
70
0
9
$DIMZIN
70
0
9
$DIMFRAC
70
0
9
$DIMLTYPE
6
ByBlock
9
$DIMLTEX1
6
ByBlock
9
$DIMLTEX2
6
ByBlock
0
ENDSEC
0
SECTION
2
CLASSES
0
CLASS
1
RASTERVARIABLES
2
AcDbRasterVariables
3
ISM
90
0
91
1
280
0
281
0
0
ENDSEC
0
SECTION
2
TABLES
0
TABLE
2
APPID
5
4
330
0
100
AcDbSymbolTable
70
4
0
APPID
5
19
330
4
100
AcDbSymbolTableRecord
100
AcDbRegAppTableRecord
2
ACAD
70
0
0
APPID
5
FD
330
4
100
AcDbSymbolTableRecord
100
AcDbRegAppTableRecord
2
AcCmTransparency
70
0
0
APPID
5
FE
330
4
100
AcDbSymbolTableRecord
100
AcDbRegAppTableRecord
2
GradientColor1ACI
70
0
0
APPID
5
FF
330
4
100
AcDbSymbolTableRecord
100
AcDbRegAppTableRecord
2
GradientColor2ACI
70
0
0
ENDTAB
0
TABLE
2
VPORT
5
1
330
0
100
AcDbSymbolTable
70
1
0
VPORT
5
2
330
1
100
AcDbSymbolTableRecord
100
AcDbViewportTableRecord
2
*Active
70
0
10
0.0
20
0.0
11
1.0
21
1.0
12
0.0
22
0.0
13
0.0
23
0.0
14
0.5
24
0.5
15
10.0
25
10.0
16
0.0
26
0.0
36
1.0
17
1396149.29132402
27
359737.977442769
37
0.0
40
1109.59810398659
41
1.0
75
0
76
1
0
ENDTAB
0
TABLE
2
LTYPE
5
7
330
0
100
AcDbSymbolTable
70
3
0
LTYPE
5
15
330
7
100
AcDbSymbolTableRecord
100
AcDbLinetypeTableRecord
2
Continuous
70
0
3
Solid line
72
65
73
0
40
0.0
0
LTYPE
5
16
330
7
100
AcDbSymbolTableRecord
100
AcDbLinetypeTableRecord
2
ByLayer
70
0
3

72
65
73
0
40
0.0
0
LTYPE
5
17
330
7
100
AcDbSymbolTableRecord
100
AcDbLinetypeTableRecord
2
ByBlock
70
0
3

72
65
73
0
40
0.0
0
ENDTAB
0
TABLE
2
LAYER
5
5
102
{ACAD_XDICTIONARY
360
6
102
}
330
0
100
AcDbSymbolTable
70
2
0
LAYER
5
14
330
5
100
AcDbSymbolTableRecord
100
AcDbLayerTableRecord
2
0
70
0
62
7
6
Continuous
290
1
370
-3
390
0
0
LAYER
5
22
330
5
100
AcDbSymbolTableRecord
100
AcDbLayerTableRecord
2
14 - пешеходные связи
70
0
62
7
6
Continuous
290
1
370
-3
390
0
0
ENDTAB
0
TABLE
2
STYLE
5
8
330
0
100
AcDbSymbolTable
70
1
0
STYLE
5
18
330
8
100
AcDbSymbolTableRecord
100
AcDbTextStyleTableRecord
2
Standard
3
simplex.shx
70
0
71
0
40
0.0
41
1.0
42
0.0
50
0.0
0
ENDTAB
0
TABLE
2
DIMSTYLE
5
A
330
0
100
AcDbSymbolTable
70
1
100
AcDbDimStyleTable
0
DIMSTYLE
105
1A
330
A
100
AcDbSymbolTableRecord
100
AcDbDimStyleTableRecord
2
Standard
3

4

40
1.0
41
0.18
42
0.0625
43
0.38
44
0.18
45
0.0
46
0.0
47
0.0
48
0.0
49
1.0
70
0
71
0
72
0
73
0
74
0
75
0
76
0
77
0
78
0
79
0
140
0.18
141
0.09
143
25.4
144
1.0
146
1.0
147
0.09
148
0.0
170
0
171
2
172
0
174
0
175
0
176
0
177
0
178
0
179
0
271
4
272
4
273
2
274
2
275
0
276
0
277
2
278
46
279
0
280
0
281
0
282
0
283
1
284
0
285
0
286
0
289
3
290
0
294
0
340
18
173
0
345
17
346
17
347
17
371
-2
372
-2
0
ENDTAB
0
TABLE
2
VIEW
5
3
330
0
100
AcDbSymbolTable
70
0
0
ENDTAB
0
TABLE
2
UCS
5
C
330
0
100
AcDbSymbolTable
70
0
0
ENDTAB
0
TABLE
2
BLOCK_RECORD
5
D
330
0
100
AcDbSymbolTable
70
2
0
BLOCK_RECORD
5
1C
330
D
100
AcDbSymbolTableRecord
100
AcDbBlockTableRecord
2
*Model_Space
340
20
0
BLOCK_RECORD
5
F7
330
D
100
AcDbSymbolTableRecord
100
AcDbBlockTableRecord
2
*Paper_Space
340
FC
0
ENDTAB
0
ENDSEC
0
SECTION
2
BLOCKS
0
BLOCK
5
1E
330
1C
100
AcDbEntity
67
0
8
0
100
AcDbBlockBegin
2
*Model_Space
70
0
10
0.0
20
0.0
30
0.0
3
*Model_Space
4

0
ENDBLK
5
1D
330
1C
100
AcDbEntity
8
0
100
AcDbBlockEnd
0
BLOCK
5
F9
330
F7
100
AcDbEntity
67
1
8
0
100
AcDbBlockBegin
2
*Paper_Space
70
0
10
0.0
20
0.0
30
0.0
3
*Paper_Space
4

0
ENDBLK
5
F8
330
F7
100
AcDbEntity
8
0
100
AcDbBlockEnd
0
ENDSEC
0
SECTION
2
ENTITIES
0
POINT
5
23
330
1C
100
AcDbEntity
67
0
8
14 - пешеходные связи
62
256
6
ByLayer
370
-1
48
1.0
60
0
100
AcDbPoint
10
1394819.51444997
20
359240.399348449
30
0.0
39
0.0
210
0.0
220
0.0
230
1.0
50
360.0
0
TEXT
5
24
330
1C
100
AcDbEntity
67
0
8
14 - пешеходные связи
62
7
6
ByLayer
370
-1
48
1.0
60
0
100
AcDbText
1
1
10
1394819.64358032
20
359240.673787237
30
0.0
40
0.31111111111
41
1.0
50
0.0
51
0.0
7
Standard
11
1394819.64358032
21
359240.673787237
31
0.0
210
0.0
220
0.0
230
1.0
71
0
72
0
100
AcDbText
73
0
0
POINT
5
25
330
1C
100
AcDbEntity
67
0
8
14 - пешеходные связи
62
256
6
ByLayer
370
-1
48
1.0
60
0
100
AcDbPoint
10
1394712.73418803
20
359268.880624489
30
0.0
39
0.0
210
0.0
220
0.0
230
1.0
50
360.0
0
TEXT
5
26
330
1C
100
AcDbEntity
67
0
8
14 - пешеходные связи
62
7
6
ByLayer
370
-1
48
1.0
60
0
100
AcDbText
1
2
10
1394712.86331833
20
359269.155063082
30
0.0
40
0.31111111111
41
1.0
50
0.0
51
0.0
7
Standard
11
1394712.86331833
21
359269.155063082
31
0.0
210
0.0
220
0.0
230
1.0
71
0
72
0
100
AcDbText
73
0
0
POINT
5
27
330
1C
100
AcDbEntity
67
0
8
14 - пешеходные связи
62
256
6
ByLayer
370
-1
48
1.0
60
0
100
AcDbPoint
10
1394230.96353904
20
359243.960564085
30
0.0
39
0.0
210
0.0
220
0.0
230
1.0
50
360.0
0
TEXT
5
28
330
1C
100
AcDbEntity
67
0
8
14 - пешеходные связи
62
7
6
ByLayer
370
-1
48
1.0
60
0
100
AcDbText
1
3
10
1394231.0926694
20
359244.235001804
30
0.0
40
0.31111111111
41
1.0
50
0.0
51
0.0
7
Standard
11
1394231.0926694
21
359244.235001804
31
0.0
210
0.0
220
0.0
230
1.0
71
0
72
0
100
AcDbText
73
0
0
POINT
5
29
330
1C
100
AcDbEntity
67
0
8
14 - пешеходные связи
62
256
6
ByLayer
370
-1
48
1.0
60
0
100
AcDbPoint
10
1394209.53782481
20
359263.817708422
30
0.0
39
0.0
210
0.0
220
0.0
230
1.0
50
360.0
0
TEXT
5
2A
330
1C
100
AcDbEntity
67
0
8
14 - пешеходные связи
62
7
6
ByLayer
370
-1
48
1.0
60
0
100
AcDbText
1
4
10
1394209.66695513
20
359264.092146099
30
0.0
40
0.31111111111
41
1.0
50
0.0
51
0.0
7
Standard
11
1394209.66695513
21
359264.092146099
31
0.0
210
0.0
220
0.0
230
1.0
71
0
72
0
100
AcDbText
73
0
0
POINT
5
2B
330
1C
100
AcDbEntity
67
0
8
14 - пешеходные связи
62
256
6
ByLayer
370
-1
48
1.0
60
0
100
AcDbPoint
10
1394183.04979761
20
359276.895141846
30
0.0
39
0.0
210
0.0
220
0.0
230
1.0
50
360.0
0
TEXT
5
2C
330
1C
100
AcDbEntity
67
0
8
14 - пешеходные связи
62
7
6
ByLayer
370
-1
48
1.0
60
0
100
AcDbText
1
5
10
1394183.1789279
20
359277.169579474
30
0.0
40
0.31111111111
41
1.0
50
0.0
51
0.0
7
Standard
11
1394183.1789279
21
359277.169579474
31
0.0
210
0.0
220
0.0
230
1.0
71
0
72
0
100
AcDbText
73
0
0
POINT
5
2D
330
1C
100
AcDbEntity
67
0
8
14 - пешеходные связи
62
256
6
ByLayer
370
-1
48
1.0
60
0
100
AcDbPoint
10
1394171.42488118
20
359283.445834775
30
0.0
39
0.0
210
0.0
220
0.0
230
1.0
50
360.0
0
TEXT
5
2E
330
1C
100
AcDbEntity
67
0
8
14 - пешеходные связи
62
7
6
ByLayer
370
-1
48
1.0
60
0
100
AcDbText
1
6
10
1394171.55401147
20
359283.720272379
30
0.0
40
0.31111111111
41
1.0
50
0.0
51
0.0
7
Standard
11
1394171.55401147
21
359283.720272379
31
0.0
210
0.0
220
0.0
230
1.0
71
0
72
0
100
AcDbText
73
0
0
POINT
5
2F
330
1C
100
AcDbEntity
67
0
8
14 - пешеходные связи
62
256
6
ByLayer
370
-1
48
1.0
60
0
100
AcDbPoint
10
1394167.52332628
20
359287.334879082
30
0.0
39
0.0
210
0.0
220
0.0
230
1.0
50
360.0
0
TEXT
5
30
330
1C
100
AcDbEntity
67
0
8
14 - пешеходные связи
62
7
6
ByLayer
370
-1
48
1.0
60
0
100
AcDbText
1
7
10
1394167.65245657
20
359287.609316678
30
0.0
40
0.31111111111
41
1.0
50
0.0
51
0.0
7
Standard
11
1394167.65245657
21
359287.609316678
31
0.0
210
0.0
220
0.0
230
1.0
71
0
72
0
100
AcDbText
73
0
0
POINT
5
31
330
1C
100
AcDbEntity
67
0
8
14 - пешеходные связи
62
256
6
ByLayer
370
-1
48
1.0
60
0
100
AcDbPoint
10
1394157.03635228
20
359291.399725745
30
0.0
39
0.0
210
0.0
220
0.0
230
1.0
50
360.0
0
TEXT
5
32
330
1C
100
AcDbEntity
67
0
8
14 - пешеходные связи
62
7
6
ByLayer
370
-1
48
1.0
60
0
100
AcDbText
1
8
10
1394157.16548255
20
359291.674163324
30
0.0
40
0.31111111111
41
1.0
50
0.0
51
0.0
7
Standard
11
1394157.16548255
21
359291.674163324
31
0.0
210
0.0
220
0.0
230
1.0
71
0
72
0
100
AcDbText
73
0
0
POINT
5
33
330
1C
100
AcDbEntity
67
0
8
14 - пешеходные связи
62
256
6
ByLayer
370
-1
48
1.0
60
0
100
AcDbPoint
10
1394147.69738432
20
359305.106044895
30
0.0
39
0.0
210
0.0
220
0.0
230
1.0
50
360.0
0
TEXT
5
34
330
1C
100
AcDbEntity
67
0
8
14 - пешеходные связи
62
7
6
ByLayer
370
-1
48
1.0
60
0
100
AcDbText
1
9
10
1394147.82651457
20
359305.380482458
30
0.0
40
0.31111111111
41
1.0
50
0.0
51
0.0
7
Standard
11
1394147.82651457
21
359305.380482458
31
0.0
210
0.0
220
0.0
230
1.0
71
0
72
0
100
AcDbText
73
0
0
POINT
5
35
330
1C
100
AcDbEntity
67
0
8
14 - пешеходные связи
62
256
6
ByLayer
370
-1
48
1.0
60
0
100
AcDbPoint
10
1394137.32235206
20
359299.124565744
30
0.0
39
0.0
210
0.0
220
0.0
230
1.0
50
360.0
0
TEXT
5
36
330
1C
100
AcDbEntity
67
0
8
14 - пешеходные связи
62
7
6
ByLayer
370
-1
48
1.0
60
0
100
AcDbText
1
10
10
1394137.45148232
20
359299.399003286
30
0.0
40
0.31111111111
41
1.0
50
0.0
51
0.0
7
Standard
11
1394137.45148232
21
359299.399003286
31
0.0
210
0.0
220
0.0
230
1.0
71
0
72
0
100
AcDbText
73
0
0
POINT
5
37
330
1C
100
AcDbEntity
67
0
8
14 - пешеходные связи
62
256
6
ByLayer
370
-1
48
1.0
60
0
100
AcDbPoint
10
1394125.88511033
20
359304.769839745
30
0.0
39
0.0
210
0.0
220
0.0
230
1.0
50
360.0
0
TEXT
5
38
330
1C
100
AcDbEntity
67
0
8
14 - пешеходные связи
62
7
6
ByLayer
370
-1
48
1.0
60
0
100
AcDbText
1
11
10
1394126.01424058
20
359305.044277269
30
0.0
40
0.31111111111
41
1.0
50
0.0
51
0.0
7
Standard
11
1394126.01424058
21
359305.044277269
31
0.0
210
0.0
220
0.0
230
1.0
71
0
72
0
100
AcDbText
73
0
0
POINT
5
39
330
1C
100
AcDbEntity
67
0
8
14 - пешеходные связи
62
256
6
ByLayer
370
-1
48
1.0
60
0
100
AcDbPoint
10
1395643.87993415
20
359737.694463632
30
0.0
39
0.0
210
0.0
220
0.0
230
1.0
50
360.0
0
TEXT
5
3A
330
1C
100
AcDbEntity
67
0
8
14 - пешеходные связи
62
7
6
ByLayer
370
-1
48
1.0
60
0
100
AcDbText
1
12
10
1395644.00906357
20
359737.968903915
30
0.0
40
0.31111111111
41
1.0
50
0.0
51
0.0
7
Standard
11
1395644.00906357
21
359737.968903915
31
0.0
210
0.0
220
0.0
230
1.0
71
0
72
0
100
AcDbText
73
0
0
POINT
5
3B
330
1C
100
AcDbEntity
67
0
8
14 - пешеходные связи
62
256
6
ByLayer
370
-1
48
1.0
60
0
100
AcDbPoint
10
1395661.54373658
20
359811.321396551
30
0.0
39
0.0
210
0.0
220
0.0
230
1.0
50
360.0
0
TEXT
5
3C
330
1C
100
AcDbEntity
67
0
8
14 - пешеходные связи
62
7
6
ByLayer
370
-1
48
1.0
60
0
100
AcDbText
1
13
10
1395661.67286587
20
359811.595836861
30
0.0
40
0.31111111111
41
1.0
50
0.0
51
0.0
7
Standard
11
1395661.67286587
21
359811.595836861
31
0.0
210
0.0
220
0.0
230
1.0
71
0
72
0
100
AcDbText
73
0
0
POINT
5
3D
330
1C
100
AcDbEntity
67
0
8
14 - пешеходные связи
62
256
6
ByLayer
370
-1
48
1.0
60
0
100
AcDbPoint
10
1395671.57135699
20
359853.837587315
30
0.0
39
0.0
210
0.0
220
0.0
230
1.0
50
360.0
0
TEXT
5
3E
330
1C
100
AcDbEntity
67
0
8
14 - пешеходные связи
62
7
6
ByLayer
370
-1
48
1.0
60
0
100
AcDbText
1
14
10
1395671.7004862
20
359854.112027643
30
0.0
40
0.31111111111
41
1.0
50
0.0
51
0.0
7
Standard
11
1395671.7004862
21
359854.112027643
31
0.0
210
0.0
220
0.0
230
1.0
71
0
72
0
100
AcDbText
73
0
0
POINT
5
3F
330
1C
100
AcDbEntity
67
0
8
14 - пешеходные связи
62
256
6
ByLayer
370
-1
48
1.0
60
0
100
AcDbPoint
10
1395670.8783229
20
359857.614390473
30
0.0
39
0.0
210
0.0
220
0.0
230
1.0
50
360.0
0
TEXT
5
40
330
1C
100
AcDbEntity
67
0
8
14 - пешеходные связи
62
7
6
ByLayer
370
-1
48
1.0
60
0
100
AcDbText
1
15
10
1395671.0074521
20
359857.888830801
30
0.0
40
0.31111111111
41
1.0
50
0.0
51
0.0
7
Standard
11
1395671.0074521
21
359857.888830801
31
0.0
210
0.0
220
0.0
230
1.0
71
0
72
0
100
AcDbText
73
0
0
POINT
5
41
330
1C
100
AcDbEntity
67
0
8
14 - пешеходные связи
62
256
6
ByLayer
370
-1
48
1.0
60
0
100
AcDbPoint
10
1395667.08581756
20
359873.498421411
30
0.0
39
0.0
210
0.0
220
0.0
230
1.0
50
360.0
0
TEXT
5
42
330
1C
100
AcDbEntity
67
0
8
14 - пешеходные связи
62
7
6
ByLayer
370
-1
48
1.0
60
0
100
AcDbText
1
16
10
1395667.21494673
20
359873.772861727
30
0.0
40
0.31111111111
41
1.0
50
0.0
51
0.0
7
Standard
11
1395667.21494673
21
359873.772861727
31
0.0
210
0.0
220
0.0
230
1.0
71
0
72
0
100
AcDbText
73
0
0
POINT
5
43
330
1C
100
AcDbEntity
67
0
8
14 - пешеходные связи
62
256
6
ByLayer
370
-1
48
1.0
60
0
100
AcDbPoint
10
1394135.14014864
20
359505.239803387
30
0.0
39
0.0
210
0.0
220
0.0
230
1.0
50
360.0
0
TEXT
5
44
330
1C
100
AcDbEntity
67
0
8
14 - пешеходные связи
62
7
6
ByLayer
370
-1
48
1.0
60
0
100
AcDbText
1
17
10
1394135.26927852
20
359505.514240924
30
0.0
40
0.31111111111
41
1.0
50
0.0
51
0.0
7
Standard
11
1394135.26927852
21
359505.514240924
31
0.0
210
0.0
220
0.0
230
1.0
71
0
72
0
100
AcDbText
73
0
0
POINT
5
45
330
1C
100
AcDbEntity
67
0
8
14 - пешеходные связи
62
256
6
ByLayer
370
-1
48
1.0
60
0
100
AcDbPoint
10
1394122.31166484
20
359500.986704018
30
0.0
39
0.0
210
0.0
220
0.0
230
1.0
50
360.0
0
TEXT
5
46
330
1C
100
AcDbEntity
67
0
8
14 - пешеходные связи
62
7
6
ByLayer
370
-1
48
1.0
60
0
100
AcDbText
1
18
10
1394122.44079474
20
359501.261141532
30
0.0
40
0.31111111111
41
1.0
50
0.0
51
0.0
7
Standard
11
1394122.44079474
21
359501.261141532
31
0.0
210
0.0
220
0.0
230
1.0
71
0
72
0
100
AcDbText
73
0
0
POINT
5
47
330
1C
100
AcDbEntity
67
0
8
14 - пешеходные связи
62
256
6
ByLayer
370
-1
48
1.0
60
0
100
AcDbPoint
10
1394111.64283295
20
359490.003783626
30
0.0
39
0.0
210
0.0
220
0.0
230
1.0
50
360.0
0
TEXT
5
48
330
1C
100
AcDbEntity
67
0
8
14 - пешеходные связи
62
7
6
ByLayer
370
-1
48
1.0
60
0
100
AcDbText
1
19
10
1394111.77196286
20
359490.278221121
30
0.0
40
0.31111111111
41
1.0
50
0.0
51
0.0
7
Standard
11
1394111.77196286
21
359490.278221121
31
0.0
210
0.0
220
0.0
230
1.0
71
0
72
0
100
AcDbText
73
0
0
POINT
5
49
330
1C
100
AcDbEntity
67
0
8
14 - пешеходные связи
62
256
6
ByLayer
370
-1
48
1.0
60
0
100
AcDbPoint
10
1394109.6891314
20
359493.522510334
30
0.0
39
0.0
210
0.0
220
0.0
230
1.0
50
360.0
0
TEXT
5
4A
330
1C
100
AcDbEntity
67
0
8
14 - пешеходные связи
62
7
6
ByLayer
370
-1
48
1.0
60
0
100
AcDbText
1
20
10
1394109.81826131
20
359493.79694782
30
0.0
40
0.31111111111
41
1.0
50
0.0
51
0.0
7
Standard
11
1394109.81826131
21
359493.79694782
31
0.0
210
0.0
220
0.0
230
1.0
71
0
72
0
100
AcDbText
73
0
0
POINT
5
4B
330
1C
100
AcDbEntity
67
0
8
14 - пешеходные связи
62
256
6
ByLayer
370
-1
48
1.0
60
0
100
AcDbPoint
10
1394097.87527183
20
359489.408742903
30
0.0
39
0.0
210
0.0
220
0.0
230
1.0
50
360.0
0
TEXT
5
4C
330
1C
100
AcDbEntity
67
0
8
14 - пешеходные связи
62
7
6
ByLayer
370
-1
48
1.0
60
0
100
AcDbText
1
21
10
1394098.00440175
20
359489.68318037
30
0.0
40
0.31111111111
41
1.0
50
0.0
51
0.0
7
Standard
11
1394098.00440175
21
359489.68318037
31
0.0
210
0.0
220
0.0
230
1.0
71
0
72
0
100
AcDbText
73
0
0
POINT
5
4D
330
1C
100
AcDbEntity
67
0
8
14 - пешеходные связи
62
256
6
ByLayer
370
-1
48
1.0
60
0
100
AcDbPoint
10
1394103.70239814
20
359500.468947653
30
0.0
39
0.0
210
0.0
220
0.0
230
1.0
50
360.0
0
TEXT
5
4E
330
1C
100
AcDbEntity
67
0
8
14 - пешеходные связи
62
7
6
ByLayer
370
-1
48
1.0
60
0
100
AcDbText
1
22
10
1394103.83152803
20
359500.743385131
30
0.0
40
0.31111111111
41
1.0
50
0.0
51
0.0
7
Standard
11
1394103.83152803
21
359500.743385131
31
0.0
210
0.0
220
0.0
230
1.0
71
0
72
0
100
AcDbText
73
0
0
POINT
5
4F
330
1C
100
AcDbEntity
67
0
8
14 - пешеходные связи
62
256
6
ByLayer
370
-1
48
1.0
60
0
100
AcDbPoint
10
1394102.16794795
20
359500.591921048
30
0.0
39
0.0
210
0.0
220
0.0
230
1.0
50
360.0
0
TEXT
5
50
330
1C
100
AcDbEntity
67
0
8
14 - пешеходные связи
62
7
6
ByLayer
370
-1
48
1.0
60
0
100
AcDbText
1
23
10
1394102.29707785
20
359500.86635852
30
0.0
40
0.31111111111
41
1.0
50
0.0
51
0.0
7
Standard
11
1394102.29707785
21
359500.86635852
31
0.0
210
0.0
220
0.0
230
1.0
71
0
72
0
100
AcDbText
73
0
0
POINT
5
51
330
1C
100
AcDbEntity
67
0
8
14 - пешеходные связи
62
256
6
ByLayer
370
-1
48
1.0
60
0
100
AcDbPoint
10
1394098.27652793
20
359499.537465109
30
0.0
39
0.0
210
0.0
220
0.0
230
1.0
50
360.0
0
TEXT
5
52
330
1C
100
AcDbEntity
67
0
8
14 - пешеходные связи
62
7
6
ByLayer
370
-1
48
1.0
60
0
100
AcDbText
1
24
10
1394098.40565783
20
359499.811902579
30
0.0
40
0.31111111111
41
1.0
50
0.0
51
0.0
7
Standard
11
1394098.40565783
21
359499.811902579
31
0.0
210
0.0
220
0.0
230
1.0
71
0
72
0
100
AcDbText
73
0
0
POINT
5
53
330
1C
100
AcDbEntity
67
0
8
14 - пешеходные связи
62
256
6
ByLayer
370
-1
48
1.0
60
0
100
AcDbPoint
10
1394078.30439573
20
359481.626624652
30
0.0
39
0.0
210
0.0
220
0.0
230
1.0
50
360.0
0
TEXT
5
54
330
1C
100
AcDbEntity
67
0
8
14 - пешеходные связи
62
7
6
ByLayer
370
-1
48
1.0
60
0
100
AcDbText
1
25
10
1394078.43352566
20
359481.901062085
30
0.0
40
0.31111111111
41
1.0
50
0.0
51
0.0
7
Standard
11
1394078.43352566
21
359481.901062085
31
0.0
210
0.0
220
0.0
230
1.0
71
0
72
0
100
AcDbText
73
0
0
POINT
5
55
330
1C
100
AcDbEntity
67
0
8
14 - пешеходные связи
62
256
6
ByLayer
370
-1
48
1.0
60
0
100
AcDbPoint
10
1394069.89956273
20
359478.493585562
30
0.0
39
0.0
210
0.0
220
0.0
230
1.0
50
360.0
0
TEXT
5
56
330
1C
100
AcDbEntity
67
0
8
14 - пешеходные связи
62
7
6
ByLayer
370
-1
48
1.0
60
0
100
AcDbText
1
26
10
1394070.02869267
20
359478.768022976
30
0.0
40
0.31111111111
41
1.0
50
0.0
51
0.0
7
Standard
11
1394070.02869267
21
359478.768022976
31
0.0
210
0.0
220
0.0
230
1.0
71
0
72
0
100
AcDbText
73
0
0
POINT
5
57
330
1C
100
AcDbEntity
67
0
8
14 - пешеходные связи
62
256
6
ByLayer
370
-1
48
1.0
60
0
100
AcDbPoint
10
1394068.25703594
20
359478.927880198
30
0.0
39
0.0
210
0.0
220
0.0
230
1.0
50
360.0
0
TEXT
5
58
330
1C
100
AcDbEntity
67
0
8
14 - пешеходные связи
62
7
6
ByLayer
370
-1
48
1.0
60
0
100
AcDbText
1
27
10
1394068.38616587
20
359479.202317612
30
0.0
40
0.31111111111
41
1.0
50
0.0
51
0.0
7
Standard
11
1394068.38616587
21
359479.202317612
31
0.0
210
0.0
220
0.0
230
1.0
71
0
72
0
100
AcDbText
73
0
0
POINT
5
59
330
1C
100
AcDbEntity
67
0
8
14 - пешеходные связи
62
256
6
ByLayer
370
-1
48
1.0
60
0
100
AcDbPoint
10
1394072.92641416
20
359485.908095205
30
0.0
39
0.0
210
0.0
220
0.0
230
1.0
50
360.0
0
TEXT
5
5A
330
1C
100
AcDbEntity
67
0
8
14 - пешеходные связи
62
7
6
ByLayer
370
-1
48
1.0
60
0
100
AcDbText
1
28
10
1394073.05554408
20
359486.182532629
30
0.0
40
0.31111111111
41
1.0
50
0.0
51
0.0
7
Standard
11
1394073.05554408
21
359486.182532629
31
0.0
210
0.0
220
0.0
230
1.0
71
0
72
0
100
AcDbText
73
0
0
POINT
5
5B
330
1C
100
AcDbEntity
67
0
8
14 - пешеходные связи
62
256
6
ByLayer
370
-1
48
1.0
60
0
100
AcDbPoint
10
1394076.27194342
20
359491.457912033
30
0.0
39
0.0
210
0.0
220
0.0
230
1.0
50
360.0
0
TEXT
5
5C
330
1C
100
AcDbEntity
67
0
8
14 - пешеходные связи
62
7
6
ByLayer
370
-1
48
1.0
60
0
100
AcDbText
1
29
10
1394076.40107333
20
359491.732349461
30
0.0
40
0.31111111111
41
1.0
50
0.0
51
0.0
7
Standard
11
1394076.40107333
21
359491.732349461
31
0.0
210
0.0
220
0.0
230
1.0
71
0
72
0
100
AcDbText
73
0
0
POINT
5
5D
330
1C
100
AcDbEntity
67
0
8
14 - пешеходные связи
62
256
6
ByLayer
370
-1
48
1.0
60
0
100
AcDbPoint
10
1394079.18523404
20
359494.9696421
30
0.0
39
0.0
210
0.0
220
0.0
230
1.0
50
360.0
0
TEXT
5
5E
330
1C
100
AcDbEntity
67
0
8
14 - пешеходные связи
62
7
6
ByLayer
370
-1
48
1.0
60
0
100
AcDbText
1
30
10
1394079.31436394
20
359495.244079532
30
0.0
40
0.31111111111
41
1.0
50
0.0
51
0.0
7
Standard
11
1394079.31436394
21
359495.244079532
31
0.0
210
0.0
220
0.0
230
1.0
71
0
72
0
100
AcDbText
73
0
0
POINT
5
5F
330
1C
100
AcDbEntity
67
0
8
14 - пешеходные связи
62
256
6
ByLayer
370
-1
48
1.0
60
0
100
AcDbPoint
10
1394930.96698819
20
359611.266387044
30
0.0
39
0.0
210
0.0
220
0.0
230
1.0
50
360.0
0
TEXT
5
60
330
1C
100
AcDbEntity
67
0
8
14 - пешеходные связи
62
7
6
ByLayer
370
-1
48
1.0
60
0
100
AcDbText
1
31
10
1394931.09611786
20
359611.540826028
30
0.0
40
0.31111111111
41
1.0
50
0.0
51
0.0
7
Standard
11
1394931.09611786
21
359611.540826028
31
0.0
210
0.0
220
0.0
230
1.0
71
0
72
0
100
AcDbText
73
0
0
POINT
5
61
330
1C
100
AcDbEntity
67
0
8
14 - пешеходные связи
62
256
6
ByLayer
370
-1
48
1.0
60
0
100
AcDbPoint
10
1394901.19259212
20
359471.724021854
30
0.0
39
0.0
210
0.0
220
0.0
230
1.0
50
360.0
0
TEXT
5
62
330
1C
100
AcDbEntity
67
0
8
14 - пешеходные связи
62
7
6
ByLayer
370
-1
48
1.0
60
0
100
AcDbText
1
32
10
1394901.32172205
20
359471.998460789
30
0.0
40
0.31111111111
41
1.0
50
0.0
51
0.0
7
Standard
11
1394901.32172205
21
359471.998460789
31
0.0
210
0.0
220
0.0
230
1.0
71
0
72
0
100
AcDbText
73
0
0
POINT
5
63
330
1C
100
AcDbEntity
67
0
8
14 - пешеходные связи
62
256
6
ByLayer
370
-1
48
1.0
60
0
100
AcDbPoint
10
1394841.07599995
20
359489.050107249
30
0.0
39
0.0
210
0.0
220
0.0
230
1.0
50
360.0
0
TEXT
5
64
330
1C
100
AcDbEntity
67
0
8
14 - пешеходные связи
62
7
6
ByLayer
370
-1
48
1.0
60
0
100
AcDbText
1
33
10
1394841.20512984
20
359489.324546071
30
0.0
40
0.31111111111
41
1.0
50
0.0
51
0.0
7
Standard
11
1394841.20512984
21
359489.324546071
31
0.0
210
0.0
220
0.0
230
1.0
71
0
72
0
100
AcDbText
73
0
0
POINT
5
65
330
1C
100
AcDbEntity
67
0
8
14 - пешеходные связи
62
256
6
ByLayer
370
-1
48
1.0
60
0
100
AcDbPoint
10
1394821.37839536
20
359447.716607991
30
0.0
39
0.0
210
0.0
220
0.0
230
1.0
50
360.0
0
TEXT
5
66
330
1C
100
AcDbEntity
67
0
8
14 - пешеходные связи
62
7
6
ByLayer
370
-1
48
1.0
60
0
100
AcDbText
1
34
10
1394821.50752533
20
359447.991046779
30
0.0
40
0.31111111111
41
1.0
50
0.0
51
0.0
7
Standard
11
1394821.50752533
21
359447.991046779
31
0.0
210
0.0
220
0.0
230
1.0
71
0
72
0
100
AcDbText
73
0
0
POINT
5
67
330
1C
100
AcDbEntity
67
0
8
14 - пешеходные связи
62
256
6
ByLayer
370
-1
48
1.0
60
0
100
AcDbPoint
10
1394821.74009736
20
359442.384224411
30
0.0
39
0.0
210
0.0
220
0.0
230
1.0
50
360.0
0
TEXT
5
68
330
1C
100
AcDbEntity
67
0
8
14 - пешеходные связи
62
7
6
ByLayer
370
-1
48
1.0
60
0
100
AcDbText
1
35
10
1394821.86922734
20
359442.658663199
30
0.0
40
0.31111111111
41
1.0
50
0.0
51
0.0
7
Standard
11
1394821.86922734
21
359442.658663199
31
0.0
210
0.0
220
0.0
230
1.0
71
0
72
0
100
AcDbText
73
0
0
POINT
5
69
330
1C
100
AcDbEntity
67
0
8
14 - пешеходные связи
62
256
6
ByLayer
370
-1
48
1.0
60
0
100
AcDbPoint
10
1394796.29689127
20
359396.256355171
30
0.0
39
0.0
210
0.0
220
0.0
230
1.0
50
360.0
0
TEXT
5
6A
330
1C
100
AcDbEntity
67
0
8
14 - пешеходные связи
62
7
6
ByLayer
370
-1
48
1.0
60
0
100
AcDbText
1
36
10
1394796.42602134
20
359396.530793915
30
0.0
40
0.31111111111
41
1.0
50
0.0
51
0.0
7
Standard
11
1394796.42602134
21
359396.530793915
31
0.0
210
0.0
220
0.0
230
1.0
71
0
72
0
100
AcDbText
73
0
0
POINT
5
6B
330
1C
100
AcDbEntity
67
0
8
14 - пешеходные связи
62
256
6
ByLayer
370
-1
48
1.0
60
0
100
AcDbPoint
10
1394790.41119227
20
359393.129081413
30
0.0
39
0.0
210
0.0
220
0.0
230
1.0
50
360.0
0
TEXT
5
6C
330
1C
100
AcDbEntity
67
0
8
14 - пешеходные связи
62
7
6
ByLayer
370
-1
48
1.0
60
0
100
AcDbText
1
37
10
1394790.54032233
20
359393.403520141
30
0.0
40
0.31111111111
41
1.0
50
0.0
51
0.0
7
Standard
11
1394790.54032233
21
359393.403520141
31
0.0
210
0.0
220
0.0
230
1.0
71
0
72
0
100
AcDbText
73
0
0
POINT
5
6D
330
1C
100
AcDbEntity
67
0
8
14 - пешеходные связи
62
256
6
ByLayer
370
-1
48
1.0
60
0
100
AcDbPoint
10
1394750.74468883
20
359342.467880525
30
0.0
39
0.0
210
0.0
220
0.0
230
1.0
50
360.0
0
TEXT
5
6E
330
1C
100
AcDbEntity
67
0
8
14 - пешеходные связи
62
7
6
ByLayer
370
-1
48
1.0
60
0
100
AcDbText
1
38
10
1394750.873819
20
359342.74231919
30
0.0
40
0.31111111111
41
1.0
50
0.0
51
0.0
7
Standard
11
1394750.873819
21
359342.74231919
31
0.0
210
0.0
220
0.0
230
1.0
71
0
72
0
100
AcDbText
73
0
0
POINT
5
6F
330
1C
100
AcDbEntity
67
0
8
14 - пешеходные связи
62
256
6
ByLayer
370
-1
48
1.0
60
0
100
AcDbPoint
10
1394745.40275114
20
359325.478510218
30
0.0
39
0.0
210
0.0
220
0.0
230
1.0
50
360.0
0
TEXT
5
70
330
1C
100
AcDbEntity
67
0
8
14 - пешеходные связи
62
7
6
ByLayer
370
-1
48
1.0
60
0
100
AcDbText
1
39
10
1394745.53188134
20
359325.752948869
30
0.0
40
0.31111111111
41
1.0
50
0.0
51
0.0
7
Standard
11
1394745.53188134
21
359325.752948869
31
0.0
210
0.0
220
0.0
230
1.0
71
0
72
0
100
AcDbText
73
0
0
POINT
5
71
330
1C
100
AcDbEntity
67
0
8
14 - пешеходные связи
62
256
6
ByLayer
370
-1
48
1.0
60
0
100
AcDbPoint
10
1394189.98011139
20
359365.184816725
30
0.0
39
0.0
210
0.0
220
0.0
230
1.0
50
360.0
0
TEXT
5
72
330
1C
100
AcDbEntity
67
0
8
14 - пешеходные связи
62
7
6
ByLayer
370
-1
48
1.0
60
0
100
AcDbText
1
40
10
1394190.10924153
20
359365.459254369
30
0.0
40
0.31111111111
41
1.0
50
0.0
51
0.0
7
Standard
11
1394190.10924153
21
359365.459254369
31
0.0
210
0.0
220
0.0
230
1.0
71
0
72
0
100
AcDbText
73
0
0
POINT
5
73
330
1C
100
AcDbEntity
67
0
8
14 - пешеходные связи
62
256
6
ByLayer
370
-1
48
1.0
60
0
100
AcDbPoint
10
1394172.90073641
20
359354.032133939
30
0.0
39
0.0
210
0.0
220
0.0
230
1.0
50
360.0
0
TEXT
5
74
330
1C
100
AcDbEntity
67
0
8
14 - пешеходные связи
62
7
6
ByLayer
370
-1
48
1.0
60
0
100
AcDbText
1
41
10
1394173.02986657
20
359354.306571547
30
0.0
40
0.31111111111
41
1.0
50
0.0
51
0.0
7
Standard
11
1394173.02986657
21
359354.306571547
31
0.0
210
0.0
220
0.0
230
1.0
71
0
72
0
100
AcDbText
73
0
0
POINT
5
75
330
1C
100
AcDbEntity
67
0
8
14 - пешеходные связи
62
256
6
ByLayer
370
-1
48
1.0
60
0
100
AcDbPoint
10
1394151.20287436
20
359354.812103939
30
0.0
39
0.0
210
0.0
220
0.0
230
1.0
50
360.0
0
TEXT
5
76
330
1C
100
AcDbEntity
67
0
8
14 - пешеходные связи
62
7
6
ByLayer
370
-1
48
1.0
60
0
100
AcDbText
1
42
10
1394151.33200452
20
359355.086541506
30
0.0
40
0.31111111111
41
1.0
50
0.0
51
0.0
7
Standard
11
1394151.33200452
21
359355.086541506
31
0.0
210
0.0
220
0.0
230
1.0
71
0
72
0
100
AcDbText
73
0
0
POINT
5
77
330
1C
100
AcDbEntity
67
0
8
14 - пешеходные связи
62
256
6
ByLayer
370
-1
48
1.0
60
0
100
AcDbPoint
10
1394138.51657639
20
359348.432629649
30
0.0
39
0.0
210
0.0
220
0.0
230
1.0
50
360.0
0
TEXT
5
78
330
1C
100
AcDbEntity
67
0
8
14 - пешеходные связи
62
7
6
ByLayer
370
-1
48
1.0
60
0
100
AcDbText
1
43
10
1394138.64570656
20
359348.707067191
30
0.0
40
0.31111111111
41
1.0
50
0.0
51
0.0
7
Standard
11
1394138.64570656
21
359348.707067191
31
0.0
210
0.0
220
0.0
230
1.0
71
0
72
0
100
AcDbText
73
0
0
POINT
5
79
330
1C
100
AcDbEntity
67
0
8
14 - пешеходные связи
62
256
6
ByLayer
370
-1
48
1.0
60
0
100
AcDbPoint
10
1394119.74718167
20
359339.021668507
30
0.0
39
0.0
210
0.0
220
0.0
230
1.0
50
360.0
0
TEXT
5
7A
330
1C
100
AcDbEntity
67
0
8
14 - пешеходные связи
62
7
6
ByLayer
370
-1
48
1.0
60
0
100
AcDbText
1
44
10
1394119.87631186
20
359339.296106021
30
0.0
40
0.31111111111
41
1.0
50
0.0
51
0.0
7
Standard
11
1394119.87631186
21
359339.296106021
31
0.0
210
0.0
220
0.0
230
1.0
71
0
72
0
100
AcDbText
73
0
0
POINT
5
7B
330
1C
100
AcDbEntity
67
0
8
14 - пешеходные связи
62
256
6
ByLayer
370
-1
48
1.0
60
0
100
AcDbPoint
10
1394619.44506748
20
359183.353390773
30
0.0
39
0.0
210
0.0
220
0.0
230
1.0
50
360.0
0
TEXT
5
7C
330
1C
100
AcDbEntity
67
0
8
14 - пешеходные связи
62
7
6
ByLayer
370
-1
48
1.0
60
0
100
AcDbText
1
45
10
1394619.57419794
20
359183.627829198
30
0.0
40
0.31111111111
41
1.0
50
0.0
51
0.0
7
Standard
11
1394619.57419794
21
359183.627829198
31
0.0
210
0.0
220
0.0
230
1.0
71
0
72
0
100
AcDbText
73
0
0
POINT
5
7D
330
1C
100
AcDbEntity
67
0
8
14 - пешеходные связи
62
256
6
ByLayer
370
-1
48
1.0
60
0
100
AcDbPoint
10
1394564.68706229
20
359196.66557121
30
0.0
39
0.0
210
0.0
220
0.0
230
1.0
50
360.0
0
TEXT
5
7E
330
1C
100
AcDbEntity
67
0
8
14 - пешеходные связи
62
7
6
ByLayer
370
-1
48
1.0
60
0
100
AcDbText
1
46
10
1394564.81619272
20
359196.940009533
30
0.0
40
0.31111111111
41
1.0
50
0.0
51
0.0
7
Standard
11
1394564.81619272
21
359196.940009533
31
0.0
210
0.0
220
0.0
230
1.0
71
0
72
0
100
AcDbText
73
0
0
POINT
5
7F
330
1C
100
AcDbEntity
67
0
8
14 - пешеходные связи
62
256
6
ByLayer
370
-1
48
1.0
60
0
100
AcDbPoint
10
1394550.36001459
20
359191.224775208
30
0.0
39
0.0
210
0.0
220
0.0
230
1.0
50
360.0
0
TEXT
5
80
330
1C
100
AcDbEntity
67
0
8
14 - пешеходные связи
62
7
6
ByLayer
370
-1
48
1.0
60
0
100
AcDbText
1
47
10
1394550.48914504
20
359191.499213508
30
0.0
40
0.31111111111
41
1.0
50
0.0
51
0.0
7
Standard
11
1394550.48914504
21
359191.499213508
31
0.0
210
0.0
220
0.0
230
1.0
71
0
72
0
100
AcDbText
73
0
0
POINT
5
81
330
1C
100
AcDbEntity
67
0
8
14 - пешеходные связи
62
256
6
ByLayer
370
-1
48
1.0
60
0
100
AcDbPoint
10
1394533.50951532
20
359193.368968279
30
0.0
39
0.0
210
0.0
220
0.0
230
1.0
50
360.0
0
TEXT
5
82
330
1C
100
AcDbEntity
67
0
8
14 - пешеходные связи
62
7
6
ByLayer
370
-1
48
1.0
60
0
100
AcDbText
1
48
10
1394533.63864576
20
359193.643406546
30
0.0
40
0.31111111111
41
1.0
50
0.0
51
0.0
7
Standard
11
1394533.63864576
21
359193.643406546
31
0.0
210
0.0
220
0.0
230
1.0
71
0
72
0
100
AcDbText
73
0
0
POINT
5
83
330
1C
100
AcDbEntity
67
0
8
14 - пешеходные связи
62
256
6
ByLayer
370
-1
48
1.0
60
0
100
AcDbPoint
10
1396294.764513
20
359702.221694462
30
0.0
39
0.0
210
0.0
220
0.0
230
1.0
50
360.0
0
TEXT
5
84
330
1C
100
AcDbEntity
67
0
8
14 - пешеходные связи
62
7
6
ByLayer
370
-1
48
1.0
60
0
100
AcDbText
1
49
10
1396294.89364247
20
359702.496135929
30
0.0
40
0.31111111111
41
1.0
50
0.0
51
0.0
7
Standard
11
1396294.89364247
21
359702.496135929
31
0.0
210
0.0
220
0.0
230
1.0
71
0
72
0
100
AcDbText
73
0
0
POINT
5
85
330
1C
100
AcDbEntity
67
0
8
14 - пешеходные связи
62
256
6
ByLayer
370
-1
48
1.0
60
0
100
AcDbPoint
10
1396304.98877869
20
359671.807075503
30
0.0
39
0.0
210
0.0
220
0.0
230
1.0
50
360.0
0
TEXT
5
86
330
1C
100
AcDbEntity
67
0
8
14 - пешеходные связи
62
7
6
ByLayer
370
-1
48
1.0
60
0
100
AcDbText
1
50
10
1396305.11790822
20
359672.081516991
30
0.0
40
0.31111111111
41
1.0
50
0.0
51
0.0
7
Standard
11
1396305.11790822
21
359672.081516991
31
0.0
210
0.0
220
0.0
230
1.0
71
0
72
0
100
AcDbText
73
0
0
POINT
5
87
330
1C
100
AcDbEntity
67
0
8
14 - пешеходные связи
62
256
6
ByLayer
370
-1
48
1.0
60
0
100
AcDbPoint
10
1396311.22006764
20
359649.421966554
30
0.0
39
0.0
210
0.0
220
0.0
230
1.0
50
360.0
0
TEXT
5
88
330
1C
100
AcDbEntity
67
0
8
14 - пешеходные связи
62
7
6
ByLayer
370
-1
48
1.0
60
0
100
AcDbText
1
51
10
1396311.34919721
20
359649.696408052
30
0.0
40
0.31111111111
41
1.0
50
0.0
51
0.0
7
Standard
11
1396311.34919721
21
359649.696408052
31
0.0
210
0.0
220
0.0
230
1.0
71
0
72
0
100
AcDbText
73
0
0
POINT
5
89
330
1C
100
AcDbEntity
67
0
8
14 - пешеходные связи
62
256
6
ByLayer
370
-1
48
1.0
60
0
100
AcDbPoint
10
1396319.33191747
20
359626.831258841
30
0.0
39
0.0
210
0.0
220
0.0
230
1.0
50
360.0
0
TEXT
5
8A
330
1C
100
AcDbEntity
67
0
8
14 - пешеходные связи
62
7
6
ByLayer
370
-1
48
1.0
60
0
100
AcDbText
1
52
10
1396319.46104708
20
359627.105700353
30
0.0
40
0.31111111111
41
1.0
50
0.0
51
0.0
7
Standard
11
1396319.46104708
21
359627.105700353
31
0.0
210
0.0
220
0.0
230
1.0
71
0
72
0
100
AcDbText
73
0
0
POINT
5
8B
330
1C
100
AcDbEntity
67
0
8
14 - пешеходные связи
62
256
6
ByLayer
370
-1
48
1.0
60
0
100
AcDbPoint
10
1396259.21092134
20
359798.612869941
30
0.0
39
0.0
210
0.0
220
0.0
230
1.0
50
360.0
0
TEXT
5
8C
330
1C
100
AcDbEntity
67
0
8
14 - пешеходные связи
62
7
6
ByLayer
370
-1
48
1.0
60
0
100
AcDbText
1
53
10
1396259.34005064
20
359798.887311344
30
0.0
40
0.31111111111
41
1.0
50
0.0
51
0.0
7
Standard
11
1396259.34005064
21
359798.887311344
31
0.0
210
0.0
220
0.0
230
1.0
71
0
72
0
100
AcDbText
73
0
0
POINT
5
8D
330
1C
100
AcDbEntity
67
0
8
14 - пешеходные связи
62
256
6
ByLayer
370
-1
48
1.0
60
0
100
AcDbPoint
10
1396271.11581895
20
359765.731853465
30
0.0
39
0.0
210
0.0
220
0.0
230
1.0
50
360.0
0
TEXT
5
8E
330
1C
100
AcDbEntity
67
0
8
14 - пешеходные связи
62
7
6
ByLayer
370
-1
48
1.0
60
0
100
AcDbText
1
54
10
1396271.24494831
20
359766.006294888
30
0.0
40
0.31111111111
41
1.0
50
0.0
51
0.0
7
Standard
11
1396271.24494831
21
359766.006294888
31
0.0
210
0.0
220
0.0
230
1.0
71
0
72
0
100
AcDbText
73
0
0
POINT
5
8F
330
1C
100
AcDbEntity
67
0
8
14 - пешеходные связи
62
256
6
ByLayer
370
-1
48
1.0
60
0
100
AcDbPoint
10
1396278.71156867
20
359744.22611608
30
0.0
39
0.0
210
0.0
220
0.0
230
1.0
50
360.0
0
TEXT
5
90
330
1C
100
AcDbEntity
67
0
8
14 - пешеходные связи
62
7
6
ByLayer
370
-1
48
1.0
60
0
100
AcDbText
1
55
10
1396278.84069807
20
359744.500557518
30
0.0
40
0.31111111111
41
1.0
50
0.0
51
0.0
7
Standard
11
1396278.84069807
21
359744.500557518
31
0.0
210
0.0
220
0.0
230
1.0
71
0
72
0
100
AcDbText
73
0
0
POINT
5
91
330
1C
100
AcDbEntity
67
0
8
14 - пешеходные связи
62
256
6
ByLayer
370
-1
48
1.0
60
0
100
AcDbPoint
10
1396289.2585412
20
359716.998182834
30
0.0
39
0.0
210
0.0
220
0.0
230
1.0
50
360.0
0
TEXT
5
92
330
1C
100
AcDbEntity
67
0
8
14 - пешеходные связи
62
7
6
ByLayer
370
-1
48
1.0
60
0
100
AcDbText
1
56
10
1396289.38767064
20
359717.272624294
30
0.0
40
0.31111111111
41
1.0
50
0.0
51
0.0
7
Standard
11
1396289.38767064
21
359717.272624294
31
0.0
210
0.0
220
0.0
230
1.0
71
0
72
0
100
AcDbText
73
0
0
POINT
5
93
330
1C
100
AcDbEntity
67
0
8
14 - пешеходные связи
62
256
6
ByLayer
370
-1
48
1.0
60
0
100
AcDbPoint
10
1396256.27187966
20
359928.233410056
30
0.0
39
0.0
210
0.0
220
0.0
230
1.0
50
360.0
0
TEXT
5
94
330
1C
100
AcDbEntity
67
0
8
14 - пешеходные связи
62
7
6
ByLayer
370
-1
48
1.0
60
0
100
AcDbText
1
57
10
1396256.40100873
20
359928.507851445
30
0.0
40
0.31111111111
41
1.0
50
0.0
51
0.0
7
Standard
11
1396256.40100873
21
359928.507851445
31
0.0
210
0.0
220
0.0
230
1.0
71
0
72
0
100
AcDbText
73
0
0
POINT
5
95
330
1C
100
AcDbEntity
67
0
8
14 - пешеходные связи
62
256
6
ByLayer
370
-1
48
1.0
60
0
100
AcDbPoint
10
1396257.71586755
20
359924.106263
30
0.0
39
0.0
210
0.0
220
0.0
230
1.0
50
360.0
0
TEXT
5
96
330
1C
100
AcDbEntity
67
0
8
14 - пешеходные связи
62
7
6
ByLayer
370
-1
48
1.0
60
0
100
AcDbText
1
58
10
1396257.84499662
20
359924.380704397
30
0.0
40
0.31111111111
41
1.0
50
0.0
51
0.0
7
Standard
11
1396257.84499662
21
359924.380704397
31
0.0
210
0.0
220
0.0
230
1.0
71
0
72
0
100
AcDbText
73
0
0
POINT
5
97
330
1C
100
AcDbEntity
67
0
8
14 - пешеходные связи
62
256
6
ByLayer
370
-1
48
1.0
60
0
100
AcDbPoint
10
1396250.64690755
20
359917.367802898
30
0.0
39
0.0
210
0.0
220
0.0
230
1.0
50
360.0
0
TEXT
5
98
330
1C
100
AcDbEntity
67
0
8
14 - пешеходные связи
62
7
6
ByLayer
370
-1
48
1.0
60
0
100
AcDbText
1
59
10
1396250.77603663
20
359917.642244281
30
0.0
40
0.31111111111
41
1.0
50
0.0
51
0.0
7
Standard
11
1396250.77603663
21
359917.642244281
31
0.0
210
0.0
220
0.0
230
1.0
71
0
72
0
100
AcDbText
73
0
0
POINT
5
99
330
1C
100
AcDbEntity
67
0
8
14 - пешеходные связи
62
256
6
ByLayer
370
-1
48
1.0
60
0
100
AcDbPoint
10
1396243.11125937
20
359907.644873763
30
0.0
39
0.0
210
0.0
220
0.0
230
1.0
50
360.0
0
TEXT
5
9A
330
1C
100
AcDbEntity
67
0
8
14 - пешеходные связи
62
7
6
ByLayer
370
-1
48
1.0
60
0
100
AcDbText
1
60
10
1396243.24038847
20
359907.919315133
30
0.0
40
0.31111111111
41
1.0
50
0.0
51
0.0
7
Standard
11
1396243.24038847
21
359907.919315133
31
0.0
210
0.0
220
0.0
230
1.0
71
0
72
0
100
AcDbText
73
0
0
POINT
5
9B
330
1C
100
AcDbEntity
67
0
8
14 - пешеходные связи
62
256
6
ByLayer
370
-1
48
1.0
60
0
100
AcDbPoint
10
1396243.99457377
20
359899.214759579
30
0.0
39
0.0
210
0.0
220
0.0
230
1.0
50
360.0
0
TEXT
5
9C
330
1C
100
AcDbEntity
67
0
8
14 - пешеходные связи
62
7
6
ByLayer
370
-1
48
1.0
60
0
100
AcDbText
1
61
10
1396244.12370289
20
359899.489200951
30
0.0
40
0.31111111111
41
1.0
50
0.0
51
0.0
7
Standard
11
1396244.12370289
21
359899.489200951
31
0.0
210
0.0
220
0.0
230
1.0
71
0
72
0
100
AcDbText
73
0
0
POINT
5
9D
330
1C
100
AcDbEntity
67
0
8
14 - пешеходные связи
62
256
6
ByLayer
370
-1
48
1.0
60
0
100
AcDbPoint
10
1396246.63558879
20
359889.584198906
30
0.0
39
0.0
210
0.0
220
0.0
230
1.0
50
360.0
0
TEXT
5
9E
330
1C
100
AcDbEntity
67
0
8
14 - пешеходные связи
62
7
6
ByLayer
370
-1
48
1.0
60
0
100
AcDbText
1
62
10
1396246.76471792
20
359889.858640281
30
0.0
40
0.31111111111
41
1.0
50
0.0
51
0.0
7
Standard
11
1396246.76471792
21
359889.858640281
31
0.0
210
0.0
220
0.0
230
1.0
71
0
72
0
100
AcDbText
73
0
0
POINT
5
9F
330
1C
100
AcDbEntity
67
0
8
14 - пешеходные связи
62
256
6
ByLayer
370
-1
48
1.0
60
0
100
AcDbPoint
10
1396254.34021484
20
359870.498554586
30
0.0
39
0.0
210
0.0
220
0.0
230
1.0
50
360.0
0
TEXT
5
A0
330
1C
100
AcDbEntity
67
0
8
14 - пешеходные связи
62
7
6
ByLayer
370
-1
48
1.0
60
0
100
AcDbText
1
63
10
1396254.469344
20
359870.772995973
30
0.0
40
0.31111111111
41
1.0
50
0.0
51
0.0
7
Standard
11
1396254.469344
21
359870.772995973
31
0.0
210
0.0
220
0.0
230
1.0
71
0
72
0
100
AcDbText
73
0
0
POINT
5
A1
330
1C
100
AcDbEntity
67
0
8
14 - пешеходные связи
62
256
6
ByLayer
370
-1
48
1.0
60
0
100
AcDbPoint
10
1396258.62689843
20
359852.847043208
30
0.0
39
0.0
210
0.0
220
0.0
230
1.0
50
360.0
0
TEXT
5
A2
330
1C
100
AcDbEntity
67
0
8
14 - пешеходные связи
62
7
6
ByLayer
370
-1
48
1.0
60
0
100
AcDbText
1
64
10
1396258.75602762
20
359853.121484603
30
0.0
40
0.31111111111
41
1.0
50
0.0
51
0.0
7
Standard
11
1396258.75602762
21
359853.121484603
31
0.0
210
0.0
220
0.0
230
1.0
71
0
72
0
100
AcDbText
73
0
0
POINT
5
A3
330
1C
100
AcDbEntity
67
0
8
14 - пешеходные связи
62
256
6
ByLayer
370
-1
48
1.0
60
0
100
AcDbPoint
10
1396260.96734497
20
359846.570043182
30
0.0
39
0.0
210
0.0
220
0.0
230
1.0
50
360.0
0
TEXT
5
A4
330
1C
100
AcDbEntity
67
0
8
14 - пешеходные связи
62
7
6
ByLayer
370
-1
48
1.0
60
0
100
AcDbText
1
65
10
1396261.09647418
20
359846.844484584
30
0.0
40
0.31111111111
41
1.0
50
0.0
51
0.0
7
Standard
11
1396261.09647418
21
359846.844484584
31
0.0
210
0.0
220
0.0
230
1.0
71
0
72
0
100
AcDbText
73
0
0
POINT
5
A5
330
1C
100
AcDbEntity
67
0
8
14 - пешеходные связи
62
256
6
ByLayer
370
-1
48
1.0
60
0
100
AcDbPoint
10
1396247.85967439
20
359832.344615413
30
0.0
39
0.0
210
0.0
220
0.0
230
1.0
50
360.0
0
TEXT
5
A6
330
1C
100
AcDbEntity
67
0
8
14 - пешеходные связи
62
7
6
ByLayer
370
-1
48
1.0
60
0
100
AcDbText
1
66
10
1396247.98880362
20
359832.619056792
30
0.0
40
0.31111111111
41
1.0
50
0.0
51
0.0
7
Standard
11
1396247.98880362
21
359832.619056792
31
0.0
210
0.0
220
0.0
230
1.0
71
0
72
0
100
AcDbText
73
0
0
POINT
5
A7
330
1C
100
AcDbEntity
67
0
8
14 - пешеходные связи
62
256
6
ByLayer
370
-1
48
1.0
60
0
100
AcDbPoint
10
1396252.9866691
20
359813.60996694
30
0.0
39
0.0
210
0.0
220
0.0
230
1.0
50
360.0
0
TEXT
5
A8
330
1C
100
AcDbEntity
67
0
8
14 - пешеходные связи
62
7
6
ByLayer
370
-1
48
1.0
60
0
100
AcDbText
1
67
10
1396253.11579836
20
359813.88440833
30
0.0
40
0.31111111111
41
1.0
50
0.0
51
0.0
7
Standard
11
1396253.11579836
21
359813.88440833
31
0.0
210
0.0
220
0.0
230
1.0
71
0
72
0
100
AcDbText
73
0
0
POINT
5
A9
330
1C
100
AcDbEntity
67
0
8
14 - пешеходные связи
62
256
6
ByLayer
370
-1
48
1.0
60
0
100
AcDbPoint
10
1397101.46911067
20
359827.321359006
30
0.0
39
0.0
210
0.0
220
0.0
230
1.0
50
360.0
0
TEXT
5
AA
330
1C
100
AcDbEntity
67
0
8
14 - пешеходные связи
62
7
6
ByLayer
370
-1
48
1.0
60
0
100
AcDbText
1
68
10
1397101.59823989
20
359827.595801944
30
0.0
40
0.31111111111
41
1.0
50
0.0
51
0.0
7
Standard
11
1397101.59823989
21
359827.595801944
31
0.0
210
0.0
220
0.0
230
1.0
71
0
72
0
100
AcDbText
73
0
0
POINT
5
AB
330
1C
100
AcDbEntity
67
0
8
14 - пешеходные связи
62
256
6
ByLayer
370
-1
48
1.0
60
0
100
AcDbPoint
10
1397099.63349528
20
359819.276134234
30
0.0
39
0.0
210
0.0
220
0.0
230
1.0
50
360.0
0
TEXT
5
AC
330
1C
100
AcDbEntity
67
0
8
14 - пешеходные связи
62
7
6
ByLayer
370
-1
48
1.0
60
0
100
AcDbText
1
69
10
1397099.76262452
20
359819.550577167
30
0.0
40
0.31111111111
41
1.0
50
0.0
51
0.0
7
Standard
11
1397099.76262452
21
359819.550577167
31
0.0
210
0.0
220
0.0
230
1.0
71
0
72
0
100
AcDbText
73
0
0
POINT
5
AD
330
1C
100
AcDbEntity
67
0
8
14 - пешеходные связи
62
256
6
ByLayer
370
-1
48
1.0
60
0
100
AcDbPoint
10
1397096.56288303
20
359811.181943155
30
0.0
39
0.0
210
0.0
220
0.0
230
1.0
50
360.0
0
TEXT
5
AE
330
1C
100
AcDbEntity
67
0
8
14 - пешеходные связи
62
7
6
ByLayer
370
-1
48
1.0
60
0
100
AcDbText
1
70
10
1397096.69201228
20
359811.456386083
30
0.0
40
0.31111111111
41
1.0
50
0.0
51
0.0
7
Standard
11
1397096.69201228
21
359811.456386083
31
0.0
210
0.0
220
0.0
230
1.0
71
0
72
0
100
AcDbText
73
0
0
POINT
5
AF
330
1C
100
AcDbEntity
67
0
8
14 - пешеходные связи
62
256
6
ByLayer
370
-1
48
1.0
60
0
100
AcDbPoint
10
1397090.27978229
20
359802.727201419
30
0.0
39
0.0
210
0.0
220
0.0
230
1.0
50
360.0
0
TEXT
5
B0
330
1C
100
AcDbEntity
67
0
8
14 - пешеходные связи
62
7
6
ByLayer
370
-1
48
1.0
60
0
100
AcDbText
1
71
10
1397090.40891156
20
359803.001644333
30
0.0
40
0.31111111111
41
1.0
50
0.0
51
0.0
7
Standard
11
1397090.40891156
21
359803.001644333
31
0.0
210
0.0
220
0.0
230
1.0
71
0
72
0
100
AcDbText
73
0
0
POINT
5
B1
330
1C
100
AcDbEntity
67
0
8
14 - пешеходные связи
62
256
6
ByLayer
370
-1
48
1.0
60
0
100
AcDbPoint
10
1397087.16314216
20
359801.092736203
30
0.0
39
0.0
210
0.0
220
0.0
230
1.0
50
360.0
0
TEXT
5
B2
330
1C
100
AcDbEntity
67
0
8
14 - пешеходные связи
62
7
6
ByLayer
370
-1
48
1.0
60
0
100
AcDbText
1
72
10
1397087.29227143
20
359801.367179114
30
0.0
40
0.31111111111
41
1.0
50
0.0
51
0.0
7
Standard
11
1397087.29227143
21
359801.367179114
31
0.0
210
0.0
220
0.0
230
1.0
71
0
72
0
100
AcDbText
73
0
0
POINT
5
B3
330
1C
100
AcDbEntity
67
0
8
14 - пешеходные связи
62
256
6
ByLayer
370
-1
48
1.0
60
0
100
AcDbPoint
10
1397078.04875839
20
359800.510399447
30
0.0
39
0.0
210
0.0
220
0.0
230
1.0
50
360.0
0
TEXT
5
B4
330
1C
100
AcDbEntity
67
0
8
14 - пешеходные связи
62
7
6
ByLayer
370
-1
48
1.0
60
0
100
AcDbText
1
73
10
1397078.17788766
20
359800.784842342
30
0.0
40
0.31111111111
41
1.0
50
0.0
51
0.0
7
Standard
11
1397078.17788766
21
359800.784842342
31
0.0
210
0.0
220
0.0
230
1.0
71
0
72
0
100
AcDbText
73
0
0
POINT
5
B5
330
1C
100
AcDbEntity
67
0
8
14 - пешеходные связи
62
256
6
ByLayer
370
-1
48
1.0
60
0
100
AcDbPoint
10
1397058.70693578
20
359789.482604733
30
0.0
39
0.0
210
0.0
220
0.0
230
1.0
50
360.0
0
TEXT
5
B6
330
1C
100
AcDbEntity
67
0
8
14 - пешеходные связи
62
7
6
ByLayer
370
-1
48
1.0
60
0
100
AcDbText
1
74
10
1397058.83606507
20
359789.75704759
30
0.0
40
0.31111111111
41
1.0
50
0.0
51
0.0
7
Standard
11
1397058.83606507
21
359789.75704759
31
0.0
210
0.0
220
0.0
230
1.0
71
0
72
0
100
AcDbText
73
0
0
POINT
5
B7
330
1C
100
AcDbEntity
67
0
8
14 - пешеходные связи
62
256
6
ByLayer
370
-1
48
1.0
60
0
100
AcDbPoint
10
1397052.79029236
20
359770.834977461
30
0.0
39
0.0
210
0.0
220
0.0
230
1.0
50
360.0
0
TEXT
5
B8
330
1C
100
AcDbEntity
67
0
8
14 - пешеходные связи
62
7
6
ByLayer
370
-1
48
1.0
60
0
100
AcDbText
1
75
10
1397052.91942169
20
359771.109420307
30
0.0
40
0.31111111111
41
1.0
50
0.0
51
0.0
7
Standard
11
1397052.91942169
21
359771.109420307
31
0.0
210
0.0
220
0.0
230
1.0
71
0
72
0
100
AcDbText
73
0
0
POINT
5
B9
330
1C
100
AcDbEntity
67
0
8
14 - пешеходные связи
62
256
6
ByLayer
370
-1
48
1.0
60
0
100
AcDbPoint
10
1398229.72871285
20
359655.277967856
30
0.0
39
0.0
210
0.0
220
0.0
230
1.0
50
360.0
0
TEXT
5
BA
330
1C
100
AcDbEntity
67
0
8
14 - пешеходные связи
62
7
6
ByLayer
370
-1
48
1.0
60
0
100
AcDbText
1
76
10
1398229.85784235
20
359655.552412851
30
0.0
40
0.31111111111
41
1.0
50
0.0
51
0.0
7
Standard
11
1398229.85784235
21
359655.552412851
31
0.0
210
0.0
220
0.0
230
1.0
71
0
72
0
100
AcDbText
73
0
0
POINT
5
BB
330
1C
100
AcDbEntity
67
0
8
14 - пешеходные связи
62
256
6
ByLayer
370
-1
48
1.0
60
0
100
AcDbPoint
10
1398229.82967915
20
359606.58340528
30
0.0
39
0.0
210
0.0
220
0.0
230
1.0
50
360.0
0
TEXT
5
BC
330
1C
100
AcDbEntity
67
0
8
14 - пешеходные связи
62
7
6
ByLayer
370
-1
48
1.0
60
0
100
AcDbText
1
77
10
1398229.95880874
20
359606.857850278
30
0.0
40
0.31111111111
41
1.0
50
0.0
51
0.0
7
Standard
11
1398229.95880874
21
359606.857850278
31
0.0
210
0.0
220
0.0
230
1.0
71
0
72
0
100
AcDbText
73
0
0
POINT
5
BD
330
1C
100
AcDbEntity
67
0
8
14 - пешеходные связи
62
256
6
ByLayer
370
-1
48
1.0
60
0
100
AcDbPoint
10
1398227.79057362
20
359683.617396407
30
0.0
39
0.0
210
0.0
220
0.0
230
1.0
50
360.0
0
TEXT
5
BE
330
1C
100
AcDbEntity
67
0
8
14 - пешеходные связи
62
7
6
ByLayer
370
-1
48
1.0
60
0
100
AcDbText
1
78
10
1398227.91970307
20
359683.891841404
30
0.0
40
0.31111111111
41
1.0
50
0.0
51
0.0
7
Standard
11
1398227.91970307
21
359683.891841404
31
0.0
210
0.0
220
0.0
230
1.0
71
0
72
0
100
AcDbText
73
0
0
POINT
5
BF
330
1C
100
AcDbEntity
67
0
8
14 - пешеходные связи
62
256
6
ByLayer
370
-1
48
1.0
60
0
100
AcDbPoint
10
1398228.73431764
20
359663.289426903
30
0.0
39
0.0
210
0.0
220
0.0
230
1.0
50
360.0
0
TEXT
5
C0
330
1C
100
AcDbEntity
67
0
8
14 - пешеходные связи
62
7
6
ByLayer
370
-1
48
1.0
60
0
100
AcDbText
1
79
10
1398228.86344713
20
359663.5638719
30
0.0
40
0.31111111111
41
1.0
50
0.0
51
0.0
7
Standard
11
1398228.86344713
21
359663.5638719
31
0.0
210
0.0
220
0.0
230
1.0
71
0
72
0
100
AcDbText
73
0
0
POINT
5
C1
330
1C
100
AcDbEntity
67
0
8
14 - пешеходные связи
62
256
6
ByLayer
370
-1
48
1.0
60
0
100
AcDbPoint
10
1395990.78906272
20
359716.363862759
30
0.0
39
0.0
210
0.0
220
0.0
230
1.0
50
360.0
0
TEXT
5
C2
330
1C
100
AcDbEntity
67
0
8
14 - пешеходные связи
62
7
6
ByLayer
370
-1
48
1.0
60
0
100
AcDbText
1
80
10
1395990.91819217
20
359716.638303671
30
0.0
40
0.31111111111
41
1.0
50
0.0
51
0.0
7
Standard
11
1395990.91819217
21
359716.638303671
31
0.0
210
0.0
220
0.0
230
1.0
71
0
72
0
100
AcDbText
73
0
0
POINT
5
C3
330
1C
100
AcDbEntity
67
0
8
14 - пешеходные связи
62
256
6
ByLayer
370
-1
48
1.0
60
0
100
AcDbPoint
10
1396005.64236256
20
359672.677568881
30
0.0
39
0.0
210
0.0
220
0.0
230
1.0
50
360.0
0
TEXT
5
C4
330
1C
100
AcDbEntity
67
0
8
14 - пешеходные связи
62
7
6
ByLayer
370
-1
48
1.0
60
0
100
AcDbText
1
81
10
1396005.7714921
20
359672.952009826
30
0.0
40
0.31111111111
41
1.0
50
0.0
51
0.0
7
Standard
11
1396005.7714921
21
359672.952009826
31
0.0
210
0.0
220
0.0
230
1.0
71
0
72
0
100
AcDbText
73
0
0
POINT
5
C5
330
1C
100
AcDbEntity
67
0
8
14 - пешеходные связи
62
256
6
ByLayer
370
-1
48
1.0
60
0
100
AcDbPoint
10
1396014.76583219
20
359646.012512657
30
0.0
39
0.0
210
0.0
220
0.0
230
1.0
50
360.0
0
TEXT
5
C6
330
1C
100
AcDbEntity
67
0
8
14 - пешеходные связи
62
7
6
ByLayer
370
-1
48
1.0
60
0
100
AcDbText
1
82
10
1396014.89496178
20
359646.286953616
30
0.0
40
0.31111111111
41
1.0
50
0.0
51
0.0
7
Standard
11
1396014.89496178
21
359646.286953616
31
0.0
210
0.0
220
0.0
230
1.0
71
0
72
0
100
AcDbText
73
0
0
POINT
5
C7
330
1C
100
AcDbEntity
67
0
8
14 - пешеходные связи
62
256
6
ByLayer
370
-1
48
1.0
60
0
100
AcDbPoint
10
1396021.16236166
20
359627.564934517
30
0.0
39
0.0
210
0.0
220
0.0
230
1.0
50
360.0
0
TEXT
5
C8
330
1C
100
AcDbEntity
67
0
8
14 - пешеходные связи
62
7
6
ByLayer
370
-1
48
1.0
60
0
100
AcDbText
1
83
10
1396021.29149128
20
359627.839375484
30
0.0
40
0.31111111111
41
1.0
50
0.0
51
0.0
7
Standard
11
1396021.29149128
21
359627.839375484
31
0.0
210
0.0
220
0.0
230
1.0
71
0
72
0
100
AcDbText
73
0
0
POINT
5
C9
330
1C
100
AcDbEntity
67
0
8
14 - пешеходные связи
62
256
6
ByLayer
370
-1
48
1.0
60
0
100
AcDbPoint
10
1395196.71036414
20
360292.066499765
30
0.0
39
0.0
210
0.0
220
0.0
230
1.0
50
360.0
0
TEXT
5
CA
330
1C
100
AcDbEntity
67
0
8
14 - пешеходные связи
62
7
6
ByLayer
370
-1
48
1.0
60
0
100
AcDbText
1
84
10
1395196.83949256
20
360292.340939215
30
0.0
40
0.31111111111
41
1.0
50
0.0
51
0.0
7
Standard
11
1395196.83949256
21
360292.340939215
31
0.0
210
0.0
220
0.0
230
1.0
71
0
72
0
100
AcDbText
73
0
0
POINT
5
CB
330
1C
100
AcDbEntity
67
0
8
14 - пешеходные связи
62
256
6
ByLayer
370
-1
48
1.0
60
0
100
AcDbPoint
10
1395214.21339913
20
360286.711790038
30
0.0
39
0.0
210
0.0
220
0.0
230
1.0
50
360.0
0
TEXT
5
CC
330
1C
100
AcDbEntity
67
0
8
14 - пешеходные связи
62
7
6
ByLayer
370
-1
48
1.0
60
0
100
AcDbText
1
85
10
1395214.34252756
20
360286.986229521
30
0.0
40
0.31111111111
41
1.0
50
0.0
51
0.0
7
Standard
11
1395214.34252756
21
360286.986229521
31
0.0
210
0.0
220
0.0
230
1.0
71
0
72
0
100
AcDbText
73
0
0
POINT
5
CD
330
1C
100
AcDbEntity
67
0
8
14 - пешеходные связи
62
256
6
ByLayer
370
-1
48
1.0
60
0
100
AcDbPoint
10
1395212.30301851
20
360277.814966795
30
0.0
39
0.0
210
0.0
220
0.0
230
1.0
50
360.0
0
TEXT
5
CE
330
1C
100
AcDbEntity
67
0
8
14 - пешеходные связи
62
7
6
ByLayer
370
-1
48
1.0
60
0
100
AcDbText
1
86
10
1395212.43214697
20
360278.089406274
30
0.0
40
0.31111111111
41
1.0
50
0.0
51
0.0
7
Standard
11
1395212.43214697
21
360278.089406274
31
0.0
210
0.0
220
0.0
230
1.0
71
0
72
0
100
AcDbText
73
0
0
POINT
5
CF
330
1C
100
AcDbEntity
67
0
8
14 - пешеходные связи
62
256
6
ByLayer
370
-1
48
1.0
60
0
100
AcDbPoint
10
1395210.89182863
20
360271.723008459
30
0.0
39
0.0
210
0.0
220
0.0
230
1.0
50
360.0
0
TEXT
5
D0
330
1C
100
AcDbEntity
67
0
8
14 - пешеходные связи
62
7
6
ByLayer
370
-1
48
1.0
60
0
100
AcDbText
1
87
10
1395211.02095709
20
360271.997447938
30
0.0
40
0.31111111111
41
1.0
50
0.0
51
0.0
7
Standard
11
1395211.02095709
21
360271.997447938
31
0.0
210
0.0
220
0.0
230
1.0
71
0
72
0
100
AcDbText
73
0
0
POINT
5
D1
330
1C
100
AcDbEntity
67
0
8
14 - пешеходные связи
62
256
6
ByLayer
370
-1
48
1.0
60
0
100
AcDbPoint
10
1395192.45370193
20
360275.895051074
30
0.0
39
0.0
210
0.0
220
0.0
230
1.0
50
360.0
0
TEXT
5
D2
330
1C
100
AcDbEntity
67
0
8
14 - пешеходные связи
62
7
6
ByLayer
370
-1
48
1.0
60
0
100
AcDbText
1
88
10
1395192.58283038
20
360276.169490517
30
0.0
40
0.31111111111
41
1.0
50
0.0
51
0.0
7
Standard
11
1395192.58283038
21
360276.169490517
31
0.0
210
0.0
220
0.0
230
1.0
71
0
72
0
100
AcDbText
73
0
0
POINT
5
D3
330
1C
100
AcDbEntity
67
0
8
14 - пешеходные связи
62
256
6
ByLayer
370
-1
48
1.0
60
0
100
AcDbPoint
10
1395221.61618769
20
360276.474320551
30
0.0
39
0.0
210
0.0
220
0.0
230
1.0
50
360.0
0
TEXT
5
D4
330
1C
100
AcDbEntity
67
0
8
14 - пешеходные связи
62
7
6
ByLayer
370
-1
48
1.0
60
0
100
AcDbText
1
89
10
1395221.74531614
20
360276.748760045
30
0.0
40
0.31111111111
41
1.0
50
0.0
51
0.0
7
Standard
11
1395221.74531614
21
360276.748760045
31
0.0
210
0.0
220
0.0
230
1.0
71
0
72
0
100
AcDbText
73
0
0
POINT
5
D5
330
1C
100
AcDbEntity
67
0
8
14 - пешеходные связи
62
256
6
ByLayer
370
-1
48
1.0
60
0
100
AcDbPoint
10
1395212.59081703
20
360278.119103339
30
0.0
39
0.0
210
0.0
220
0.0
230
1.0
50
360.0
0
TEXT
5
D6
330
1C
100
AcDbEntity
67
0
8
14 - пешеходные связи
62
7
6
ByLayer
370
-1
48
1.0
60
0
100
AcDbText
1
90
10
1395212.71994548
20
360278.393542817
30
0.0
40
0.31111111111
41
1.0
50
0.0
51
0.0
7
Standard
11
1395212.71994548
21
360278.393542817
31
0.0
210
0.0
220
0.0
230
1.0
71
0
72
0
100
AcDbText
73
0
0
POINT
5
D7
330
1C
100
AcDbEntity
67
0
8
14 - пешеходные связи
62
256
6
ByLayer
370
-1
48
1.0
60
0
100
AcDbPoint
10
1394790.28807513
20
359895.284452146
30
0.0
39
0.0
210
0.0
220
0.0
230
1.0
50
360.0
0
TEXT
5
D8
330
1C
100
AcDbEntity
67
0
8
14 - пешеходные связи
62
7
6
ByLayer
370
-1
48
1.0
60
0
100
AcDbText
1
91
10
1394790.41720429
20
359895.558890869
30
0.0
40
0.31111111111
41
1.0
50
0.0
51
0.0
7
Standard
11
1394790.41720429
21
359895.558890869
31
0.0
210
0.0
220
0.0
230
1.0
71
0
72
0
100
AcDbText
73
0
0
POINT
5
D9
330
1C
100
AcDbEntity
67
0
8
14 - пешеходные связи
62
256
6
ByLayer
370
-1
48
1.0
60
0
100
AcDbPoint
10
1394786.10246064
20
359878.739735291
30
0.0
39
0.0
210
0.0
220
0.0
230
1.0
50
360.0
0
TEXT
5
DA
330
1C
100
AcDbEntity
67
0
8
14 - пешеходные связи
62
7
6
ByLayer
370
-1
48
1.0
60
0
100
AcDbText
1
92
10
1394786.23158983
20
359879.014174002
30
0.0
40
0.31111111111
41
1.0
50
0.0
51
0.0
7
Standard
11
1394786.23158983
21
359879.014174002
31
0.0
210
0.0
220
0.0
230
1.0
71
0
72
0
100
AcDbText
73
0
0
POINT
5
DB
330
1C
100
AcDbEntity
67
0
8
14 - пешеходные связи
62
256
6
ByLayer
370
-1
48
1.0
60
0
100
AcDbPoint
10
1394775.66498671
20
359878.579925807
30
0.0
39
0.0
210
0.0
220
0.0
230
1.0
50
360.0
0
TEXT
5
DC
330
1C
100
AcDbEntity
67
0
8
14 - пешеходные связи
62
7
6
ByLayer
370
-1
48
1.0
60
0
100
AcDbText
1
93
10
1394775.7941159
20
359878.854364501
30
0.0
40
0.31111111111
41
1.0
50
0.0
51
0.0
7
Standard
11
1394775.7941159
21
359878.854364501
31
0.0
210
0.0
220
0.0
230
1.0
71
0
72
0
100
AcDbText
73
0
0
POINT
5
DD
330
1C
100
AcDbEntity
67
0
8
14 - пешеходные связи
62
256
6
ByLayer
370
-1
48
1.0
60
0
100
AcDbPoint
10
1394759.75224876
20
359830.019557328
30
0.0
39
0.0
210
0.0
220
0.0
230
1.0
50
360.0
0
TEXT
5
DE
330
1C
100
AcDbEntity
67
0
8
14 - пешеходные связи
62
7
6
ByLayer
370
-1
48
1.0
60
0
100
AcDbText
1
94
10
1394759.88137804
20
359830.293995997
30
0.0
40
0.31111111111
41
1.0
50
0.0
51
0.0
7
Standard
11
1394759.88137804
21
359830.293995997
31
0.0
210
0.0
220
0.0
230
1.0
71
0
72
0
100
AcDbText
73
0
0
POINT
5
DF
330
1C
100
AcDbEntity
67
0
8
14 - пешеходные связи
62
256
6
ByLayer
370
-1
48
1.0
60
0
100
AcDbPoint
10
1394746.80560537
20
359817.177311687
30
0.0
39
0.0
210
0.0
220
0.0
230
1.0
50
360.0
0
TEXT
5
E0
330
1C
100
AcDbEntity
67
0
8
14 - пешеходные связи
62
7
6
ByLayer
370
-1
48
1.0
60
0
100
AcDbText
1
95
10
1394746.93473467
20
359817.451750326
30
0.0
40
0.31111111111
41
1.0
50
0.0
51
0.0
7
Standard
11
1394746.93473467
21
359817.451750326
31
0.0
210
0.0
220
0.0
230
1.0
71
0
72
0
100
AcDbText
73
0
0
POINT
5
E1
330
1C
100
AcDbEntity
67
0
8
14 - пешеходные связи
62
256
6
ByLayer
370
-1
48
1.0
60
0
100
AcDbPoint
10
1394718.47223998
20
359822.827229774
30
0.0
39
0.0
210
0.0
220
0.0
230
1.0
50
360.0
0
TEXT
5
E2
330
1C
100
AcDbEntity
67
0
8
14 - пешеходные связи
62
7
6
ByLayer
370
-1
48
1.0
60
0
100
AcDbText
1
96
10
1394718.60136927
20
359823.101668364
30
0.0
40
0.31111111111
41
1.0
50
0.0
51
0.0
7
Standard
11
1394718.60136927
21
359823.101668364
31
0.0
210
0.0
220
0.0
230
1.0
71
0
72
0
100
AcDbText
73
0
0
POINT
5
E3
330
1C
100
AcDbEntity
67
0
8
14 - пешеходные связи
62
256
6
ByLayer
370
-1
48
1.0
60
0
100
AcDbPoint
10
1394714.32962195
20
359803.328441803
30
0.0
39
0.0
210
0.0
220
0.0
230
1.0
50
360.0
0
TEXT
5
E4
330
1C
100
AcDbEntity
67
0
8
14 - пешеходные связи
62
7
6
ByLayer
370
-1
48
1.0
60
0
100
AcDbText
1
97
10
1394714.45875128
20
359803.602880386
30
0.0
40
0.31111111111
41
1.0
50
0.0
51
0.0
7
Standard
11
1394714.45875128
21
359803.602880386
31
0.0
210
0.0
220
0.0
230
1.0
71
0
72
0
100
AcDbText
73
0
0
LWPOLYLINE
5
E5
330
1C
100
AcDbEntity
67
0
8
14 - пешеходные связи
62
7
6
ByLayer
370
20
48
1.0
60
0
100
AcDbPolyline
90
2
70
0
38
0.0
39
0.0
10
1394819.51444997
20
359240.399348449
40
0.0
41
0.0
42
0.0
10
1394712.73418803
20
359268.880624489
40
0.0
41
0.0
42
0.0
210
0.0
220
0.0
230
1.0
0
LWPOLYLINE
5
E6
330
1C
100
AcDbEntity
67
0
8
14 - пешеходные связи
62
7
6
ByLayer
370
20
48
1.0
60
0
100
AcDbPolyline
90
9
70
0
38
0.0
39
0.0
10
1394230.96353904
20
359243.960564085
40
0.0
41
0.0
42
0.0
10
1394209.53782481
20
359263.817708422
40
0.0
41
0.0
42
0.0
10
1394183.04979761
20
359276.895141846
40
0.0
41
0.0
42
0.0
10
1394171.42488118
20
359283.445834775
40
0.0
41
0.0
42
0.0
10
1394167.52332628
20
359287.334879082
40
0.0
41
0.0
42
0.0
10
1394157.03635228
20
359291.399725745
40
0.0
41
0.0
42
0.0
10
1394147.69738432
20
359305.106044895
40
0.0
41
0.0
42
0.0
10
1394137.32235206
20
359299.124565744
40
0.0
41
0.0
42
0.0
10
1394125.88511033
20
359304.769839745
40
0.0
41
0.0
42
0.0
210
0.0
220
0.0
230
1.0
0
LWPOLYLINE
5
E7
330
1C
100
AcDbEntity
67
0
8
14 - пешеходные связи
62
7
6
ByLayer
370
20
48
1.0
60
0
100
AcDbPolyline
90
5
70
0
38
0.0
39
0.0
10
1395643.87993415
20
359737.694463632
40
0.0
41
0.0
42
0.0
10
1395661.54373658
20
359811.321396551
40
0.0
41
0.0
42
0.0
10
1395671.57135699
20
359853.837587315
40
0.0
41
0.0
42
0.0
10
1395670.8783229
20
359857.614390473
40
0.0
41
0.0
42
0.0
10
1395667.08581756
20
359873.498421411
40
0.0
41
0.0
42
0.0
210
0.0
220
0.0
230
1.0
0
LWPOLYLINE
5
E8
330
1C
100
AcDbEntity
67
0
8
14 - пешеходные связи
62
7
6
ByLayer
370
20
48
1.0
60
0
100
AcDbPolyline
90
14
70
0
38
0.0
39
0.0
10
1394135.14014864
20
359505.239803387
40
0.0
41
0.0
42
0.0
10
1394122.31166484
20
359500.986704018
40
0.0
41
0.0
42
0.0
10
1394111.64283295
20
359490.003783626
40
0.0
41
0.0
42
0.0
10
1394109.6891314
20
359493.522510334
40
0.0
41
0.0
42
0.0
10
1394097.87527183
20
359489.408742903
40
0.0
41
0.0
42
0.0
10
1394103.70239814
20
359500.468947653
40
0.0
41
0.0
42
0.0
10
1394102.16794795
20
359500.591921048
40
0.0
41
0.0
42
0.0
10
1394098.27652793
20
359499.537465109
40
0.0
41
0.0
42
0.0
10
1394078.30439573
20
359481.626624652
40
0.0
41
0.0
42
0.0
10
1394069.89956273
20
359478.493585562
40
0.0
41
0.0
42
0.0
10
1394068.25703594
20
359478.927880198
40
0.0
41
0.0
42
0.0
10
1394072.92641416
20
359485.908095205
40
0.0
41
0.0
42
0.0
10
1394076.27194342
20
359491.457912033
40
0.0
41
0.0
42
0.0
10
1394079.18523404
20
359494.9696421
40
0.0
41
0.0
42
0.0
210
0.0
220
0.0
230
1.0
0
LWPOLYLINE
5
E9
330
1C
100
AcDbEntity
67
0
8
14 - пешеходные связи
62
7
6
ByLayer
370
20
48
1.0
60
0
100
AcDbPolyline
90
9
70
0
38
0.0
39
0.0
10
1394930.96698819
20
359611.266387044
40
0.0
41
0.0
42
0.0
10
1394901.19259212
20
359471.724021854
40
0.0
41
0.0
42
0.0
10
1394841.07599995
20
359489.050107249
40
0.0
41
0.0
42
0.0
10
1394821.37839536
20
359447.716607991
40
0.0
41
0.0
42
0.0
10
1394821.74009736
20
359442.384224411
40
0.0
41
0.0
42
0.0
10
1394796.29689127
20
359396.256355171
40
0.0
41
0.0
42
0.0
10
1394790.41119227
20
359393.129081413
40
0.0
41
0.0
42
0.0
10
1394750.74468883
20
359342.467880525
40
0.0
41
0.0
42
0.0
10
1394745.40275114
20
359325.478510218
40
0.0
41
0.0
42
0.0
210
0.0
220
0.0
230
1.0
0
LWPOLYLINE
5
EA
330
1C
100
AcDbEntity
67
0
8
14 - пешеходные связи
62
7
6
ByLayer
370
20
48
1.0
60
0
100
AcDbPolyline
90
5
70
0
38
0.0
39
0.0
10
1394189.98011139
20
359365.184816725
40
0.0
41
0.0
42
0.0
10
1394172.90073641
20
359354.032133939
40
0.0
41
0.0
42
0.0
10
1394151.20287436
20
359354.812103939
40
0.0
41
0.0
42
0.0
10
1394138.51657639
20
359348.432629649
40
0.0
41
0.0
42
0.0
10
1394119.74718167
20
359339.021668507
40
0.0
41
0.0
42
0.0
210
0.0
220
0.0
230
1.0
0
LWPOLYLINE
5
EB
330
1C
100
AcDbEntity
67
0
8
14 - пешеходные связи
62
7
6
ByLayer
370
20
48
1.0
60
0
100
AcDbPolyline
90
4
70
0
38
0.0
39
0.0
10
1394619.44506748
20
359183.353390773
40
0.0
41
0.0
42
0.0
10
1394564.68706229
20
359196.66557121
40
0.0
41
0.0
42
0.0
10
1394550.36001459
20
359191.224775208
40
0.0
41
0.0
42
0.0
10
1394533.50951532
20
359193.368968279
40
0.0
41
0.0
42
0.0
210
0.0
220
0.0
230
1.0
0
LWPOLYLINE
5
EC
330
1C
100
AcDbEntity
67
0
8
14 - пешеходные связи
62
7
6
ByLayer
370
20
48
1.0
60
0
100
AcDbPolyline
90
5
70
0
38
0.0
39
0.0
10
1395643.87993415
20
359737.694463632
40
0.0
41
0.0
42
0.0
10
1395661.54373658
20
359811.321396551
40
0.0
41
0.0
42
0.0
10
1395671.57135699
20
359853.837587315
40
0.0
41
0.0
42
0.0
10
1395670.8783229
20
359857.614390473
40
0.0
41
0.0
42
0.0
10
1395667.08581756
20
359873.498421411
40
0.0
41
0.0
42
0.0
210
0.0
220
0.0
230
1.0
0
LWPOLYLINE
5
ED
330
1C
100
AcDbEntity
67
0
8
14 - пешеходные связи
62
7
6
ByLayer
370
20
48
1.0
60
0
100
AcDbPolyline
90
4
70
0
38
0.0
39
0.0
10
1396294.764513
20
359702.221694462
40
0.0
41
0.0
42
0.0
10
1396304.98877869
20
359671.807075503
40
0.0
41
0.0
42
0.0
10
1396311.22006764
20
359649.421966554
40
0.0
41
0.0
42
0.0
10
1396319.33191747
20
359626.831258841
40
0.0
41
0.0
42
0.0
210
0.0
220
0.0
230
1.0
0
LWPOLYLINE
5
EE
330
1C
100
AcDbEntity
67
0
8
14 - пешеходные связи
62
7
6
ByLayer
370
20
48
1.0
60
0
100
AcDbPolyline
90
4
70
0
38
0.0
39
0.0
10
1396259.21092134
20
359798.612869941
40
0.0
41
0.0
42
0.0
10
1396271.11581895
20
359765.731853465
40
0.0
41
0.0
42
0.0
10
1396278.71156867
20
359744.22611608
40
0.0
41
0.0
42
0.0
10
1396289.2585412
20
359716.998182834
40
0.0
41
0.0
42
0.0
210
0.0
220
0.0
230
1.0
0
LWPOLYLINE
5
EF
330
1C
100
AcDbEntity
67
0
8
14 - пешеходные связи
62
7
6
ByLayer
370
20
48
1.0
60
0
100
AcDbPolyline
90
11
70
0
38
0.0
39
0.0
10
1396256.27187966
20
359928.233410056
40
0.0
41
0.0
42
0.0
10
1396257.71586755
20
359924.106263
40
0.0
41
0.0
42
0.0
10
1396250.64690755
20
359917.367802898
40
0.0
41
0.0
42
0.0
10
1396243.11125937
20
359907.644873763
40
0.0
41
0.0
42
0.0
10
1396243.99457377
20
359899.214759579
40
0.0
41
0.0
42
0.0
10
1396246.63558879
20
359889.584198906
40
0.0
41
0.0
42
0.0
10
1396254.34021484
20
359870.498554586
40
0.0
41
0.0
42
0.0
10
1396258.62689843
20
359852.847043208
40
0.0
41
0.0
42
0.0
10
1396260.96734497
20
359846.570043182
40
0.0
41
0.0
42
0.0
10
1396247.85967439
20
359832.344615413
40
0.0
41
0.0
42
0.0
10
1396252.9866691
20
359813.60996694
40
0.0
41
0.0
42
0.0
210
0.0
220
0.0
230
1.0
0
LWPOLYLINE
5
F0
330
1C
100
AcDbEntity
67
0
8
14 - пешеходные связи
62
7
6
ByLayer
370
20
48
1.0
60
0
100
AcDbPolyline
90
8
70
0
38
0.0
39
0.0
10
1397101.46911067
20
359827.321359006
40
0.0
41
0.0
42
0.0
10
1397099.63349528
20
359819.276134234
40
0.0
41
0.0
42
0.0
10
1397096.56288303
20
359811.181943155
40
0.0
41
0.0
42
0.0
10
1397090.27978229
20
359802.727201419
40
0.0
41
0.0
42
0.0
10
1397087.16314216
20
359801.092736203
40
0.0
41
0.0
42
0.0
10
1397078.04875839
20
359800.510399447
40
0.0
41
0.0
42
0.0
10
1397058.70693578
20
359789.482604733
40
0.0
41
0.0
42
0.0
10
1397052.79029236
20
359770.834977461
40
0.0
41
0.0
42
0.0
210
0.0
220
0.0
230
1.0
0
LWPOLYLINE
5
F1
330
1C
100
AcDbEntity
67
0
8
14 - пешеходные связи
62
7
6
ByLayer
370
20
48
1.0
60
0
100
AcDbPolyline
90
2
70
0
38
0.0
39
0.0
10
1398229.72871285
20
359655.277967856
40
0.0
41
0.0
42
0.0
10
1398229.82967915
20
359606.58340528
40
0.0
41
0.0
42
0.0
210
0.0
220
0.0
230
1.0
0
LWPOLYLINE
5
F2
330
1C
100
AcDbEntity
67
0
8
14 - пешеходные связи
62
7
6
ByLayer
370
20
48
1.0
60
0
100
AcDbPolyline
90
2
70
0
38
0.0
39
0.0
10
1398227.79057362
20
359683.617396407
40
0.0
41
0.0
42
0.0
10
1398228.73431764
20
359663.289426903
40
0.0
41
0.0
42
0.0
210
0.0
220
0.0
230
1.0
0
LWPOLYLINE
5
F3
330
1C
100
AcDbEntity
67
0
8
14 - пешеходные связи
62
7
6
ByLayer
370
20
48
1.0
60
0
100
AcDbPolyline
90
4
70
0
38
0.0
39
0.0
10
1395990.78906272
20
359716.363862759
40
0.0
41
0.0
42
0.0
10
1396005.64236256
20
359672.677568881
40
0.0
41
0.0
42
0.0
10
1396014.76583219
20
359646.012512657
40
0.0
41
0.0
42
0.0
10
1396021.16236166
20
359627.564934517
40
0.0
41
0.0
42
0.0
210
0.0
220
0.0
230
1.0
0
LWPOLYLINE
5
F4
330
1C
100
AcDbEntity
67
0
8
14 - пешеходные связи
62
7
6
ByLayer
370
20
48
1.0
60
0
100
AcDbPolyline
90
5
70
0
38
0.0
39
0.0
10
1395196.71036414
20
360292.066499765
40
0.0
41
0.0
42
0.0
10
1395214.21339913
20
360286.711790038
40
0.0
41
0.0
42
0.0
10
1395212.30301851
20
360277.814966795
40
0.0
41
0.0
42
0.0
10
1395210.89182863
20
360271.723008459
40
0.0
41
0.0
42
0.0
10
1395192.45370193
20
360275.895051074
40
0.0
41
0.0
42
0.0
210
0.0
220
0.0
230
1.0
0
LWPOLYLINE
5
F5
330
1C
100
AcDbEntity
67
0
8
14 - пешеходные связи
62
7
6
ByLayer
370
20
48
1.0
60
0
100
AcDbPolyline
90
2
70
0
38
0.0
39
0.0
10
1395221.61618769
20
360276.474320551
40
0.0
41
0.0
42
0.0
10
1395212.59081703
20
360278.119103339
40
0.0
41
0.0
42
0.0
210
0.0
220
0.0
230
1.0
0
LWPOLYLINE
5
F6
330
1C
100
AcDbEntity
67
0
8
14 - пешеходные связи
62
7
6
ByLayer
370
20
48
1.0
60
0
100
AcDbPolyline
90
7
70
0
38
0.0
39
0.0
10
1394790.28807513
20
359895.284452146
40
0.0
41
0.0
42
0.0
10
1394786.10246064
20
359878.739735291
40
0.0
41
0.0
42
0.0
10
1394775.66498671
20
359878.579925807
40
0.0
41
0.0
42
0.0
10
1394759.75224876
20
359830.019557328
40
0.0
41
0.0
42
0.0
10
1394746.80560537
20
359817.177311687
40
0.0
41
0.0
42
0.0
10
1394718.47223998
20
359822.827229774
40
0.0
41
0.0
42
0.0
10
1394714.32962195
20
359803.328441803
40
0.0
41
0.0
42
0.0
210
0.0
220
0.0
230
1.0
0
VIEWPORT
5
FB
330
F7
100
AcDbEntity
67
1
8
0
62
256
6
ByLayer
370
-1
48
1.0
60
0
100
AcDbViewport
10
0.0
20
0.0
30
0.0
40
297.0
41
210.0
68
1
69
1
12
50.0
22
100.0
13
0.0
23
0.0
14
10.0
24
10.0
15
10.0
25
10.0
16
0.0
26
0.0
36
1.0
17
0.0
27
0.0
37
0.0
42
50.0
43
0.0
44
0.0
45
250.0
50
0.0
51
0.0
72
1000
90
819232
110
0.0
120
0.0
130
0.0
111
1.0
121
0.0
131
0.0
112
0.0
122
1.0
132
0.0
0
ENDSEC
0
SECTION
2
OBJECTS
0
DICTIONARY
5
100
330
0
100
AcDbDictionary
280
1
281
1
3
ACAD_GROUP
350
12
3
ACAD_LAYOUT
350
FA
3
ACAD_DGNDEFINITIONS
350
F
3
ACAD_DWFDEFINITIONS
350
10
3
ACAD_PDFDEFINITIONS
350
11
3
ACAD_MLINESTYLE
350
B
3
ACAD_IMAGE_DICT
350
E
3
ACAD_IMAGE_VARS
350
21
0
DICTIONARY
5
12
330
100
100
AcDbDictionary
280
1
281
1
0
DICTIONARY
5
FA
330
100
100
AcDbDictionary
280
1
281
1
3
Model
350
20
3
Layout1
350
FC
0
DICTIONARY
5
F
330
100
100
AcDbDictionary
280
1
281
1
0
DICTIONARY
5
10
330
100
100
AcDbDictionary
280
1
281
1
0
DICTIONARY
5
11
330
100
100
AcDbDictionary
280
1
281
1
0
DICTIONARY
5
B
330
100
100
AcDbDictionary
280
1
281
1
3
Standard
350
1B
0
DICTIONARY
5
E
330
100
100
AcDbDictionary
280
1
281
1
0
DICTIONARY
5
6
330
5
100
AcDbDictionary
280
1
281
1
3
ACAD_LAYERSTATES
360
101
0
DICTIONARY
5
101
330
6
100
AcDbDictionary
280
1
281
1
0
LAYOUT
5
20
330
FA
100
AcDbPlotSettings
1

2
none_device
4
ISO_A4_(210.00_x_297.00_MM)
6

40
7.5
41
20.0
42
7.5
43
20.0
44
210.0
45
297.0
46
0.0
47
0.0
48
0.0
49
0.0
140
0.0
141
0.0
142
1.0
143
1.0
70
11952
72
1
73
1
74
1
7

75
0
76
0
77
2
78
300
147
1.0
148
0.0
149
0.0
100
AcDbLayout
1
Model
71
0
10
1394068.08203594
20
359183.178390776
11
1398230.50061209
21
360292.776494763
12
0.0
22
0.0
32
0.0
14
1398230.50061209
24
360292.776494763
34
0.0
15
231.3
25
175.5
35
0.0
146
0.0
13
0.0
23
0.0
33
0.0
16
1.0
26
0.0
36
0.0
17
0.0
27
1.0
37
0.0
76
0
330
1C
0
LAYOUT
5
FC
330
FA
100
AcDbPlotSettings
1

2
none_device
4
ISO_A4_(210.00_x_297.00_MM)
6

40
7.5
41
20.0
42
7.5
43
20.0
44
210.0
45
297.0
46
0.0
47
0.0
48
0.0
49
0.0
140
0.0
141
0.0
142
1.0
143
1.0
70
688
72
1
73
1
74
1
7

75
0
76
0
77
2
78
300
147
1.0
148
0.0
149
0.0
100
AcDbLayout
1
Layout1
71
1
10
-20.0
20
-7.5
11
277.0
21
202.5
12
0.0
22
0.0
32
0.0
14
25.7
24
19.5
34
0.0
15
231.3
25
175.5
35
0.0
146
0.0
13
0.0
23
0.0
33
0.0
16
1.0
26
0.0
36
0.0
17
0.0
27
1.0
37
0.0
76
0
330
F7
0
MLINESTYLE
5
1B
330
B
100
AcDbMlineStyle
2
Standard
70
0
3

62
256
51
90.0
52
90.0
71
2
49
0.5
62
256
6
ByLayer
49
-0.5
62
256
6
ByLayer
0
RASTERVARIABLES
5
21
330
E
100
AcDbRasterVariables
90
0
70
1
71
1
72
0
0
ENDSEC
0
EOF
