999
DXF file generated by netDxf https://github.com/haplokuon/netDxf, Copyright(C) 2009-2020 Daniel Carvajal, Licensed under LGPL
0
SECTION
2
HEADER
9
$ACADVER
1
AC1024
9
$DWGCODEPAGE
3
ANSI_1252
9
$LASTSAVEDBY
1
Admin
9
$HANDSEED
5
142
9
$ANGBASE
50
0.0
9
$ANGDIR
70
0
9
$ATTMODE
70
1
9
$AUNITS
70
0
9
$AUPREC
70
0
9
$CECOLOR
62
256
9
$CELTSCALE
40
1.0
9
$CELTYPE
6
ByLayer
9
$CELWEIGHT
370
-1
9
$CLAYER
8
0
9
$CMLJUST
70
0
9
$CMLSCALE
40
20.0
9
$CMLSTYLE
2
Standard
9
$DIMSTYLE
2
Standard
9
$TEXTSIZE
40
2.5
9
$TEXTSTYLE
7
Standard
9
$LUNITS
70
2
9
$LUPREC
70
4
9
$MIRRTEXT
70
0
9
$EXTNAMES
290
1
9
$INSBASE
10
0.0
20
0.0
30
0.0
9
$INSUNITS
70
0
9
$LTSCALE
40
1.0
9
$LWDISPLAY
290
0
9
$PDMODE
70
33
9
$PDSIZE
40
0.75
9
$PLINEGEN
70
0
9
$PSLTSCALE
70
1
9
$TDCREATE
40
2460893.56369275
9
$TDUCREATE
40
2460893.14702609
9
$TDUPDATE
40
2460893.56369275
9
$TDUUPDATE
40
2460893.14702609
9
$TDINDWG
40
0.0
9
$UCSORG
10
0.0
20
0.0
30
0.0
9
$UCSXDIR
10
1.0
20
0.0
30
0.0
9
$UCSYDIR
10
0.0
20
1.0
30
0.0
9
$DIMADEC
70
0
9
$DIMALT
70
0
9
$DIMALTD
70
2
9
$DIMALTF
40
25.4
9
$DIMALTRND
40
0.0
9
$DIMALTTD
70
2
9
$DIMALTTZ
70
0
9
$DIMALTU
70
2
9
$DIMALTZ
70
0
9
$DIMAPOST
1

9
$DIMATFIT
70
3
9
$DIMAUNIT
70
0
9
$DIMASZ
40
0.18
9
$DIMAZIN
70
0
9
$DIMSAH
70
0
9
$DIMBLK
1

9
$DIMLDRBLK
1

9
$DIMCEN
40
0.09
9
$DIMCLRD
70
0
9
$DIMCLRE
70
0
9
$DIMCLRT
70
0
9
$DIMDEC
70
4
9
$DIMDLE
40
0.0
9
$DIMDLI
40
0.38
9
$DIMDSEP
70
46
9
$DIMEXE
40
0.18
9
$DIMEXO
40
0.0625
9
$DIMFXLON
70
0
9
$DIMFXL
40
1.0
9
$DIMGAP
40
0.09
9
$DIMJUST
70
0
9
$DIMLFAC
40
1.0
9
$DIMLUNIT
70
2
9
$DIMLWD
70
-2
9
$DIMLWE
70
-2
9
$DIMPOST
1

9
$DIMRND
40
0.0
9
$DIMSCALE
40
1.0
9
$DIMSD1
70
0
9
$DIMSD2
70
0
9
$DIMSE1
70
0
9
$DIMSE2
70
0
9
$DIMSOXD
70
0
9
$DIMTAD
70
0
9
$DIMTDEC
70
4
9
$DIMTFAC
40
1.0
9
$DIMTIH
70
0
9
$DIMTIX
70
0
9
$DIMTM
40
0.0
9
$DIMTMOVE
70
0
9
$DIMTOFL
70
0
9
$DIMTOH
70
0
9
$DIMTOL
70
0
9
$DIMLIM
70
0
9
$DIMTOLJ
70
1
9
$DIMTP
40
0.0
9
$DIMTXT
40
0.18
9
$DIMTXTDIRECTION
70
0
9
$DIMTZIN
70
0
9
$DIMZIN
70
0
9
$DIMFRAC
70
0
9
$DIMLTYPE
6
ByBlock
9
$DIMLTEX1
6
ByBlock
9
$DIMLTEX2
6
ByBlock
0
ENDSEC
0
SECTION
2
CLASSES
0
CLASS
1
RASTERVARIABLES
2
AcDbRasterVariables
3
ISM
90
0
91
1
280
0
281
0
0
ENDSEC
0
SECTION
2
TABLES
0
TABLE
2
APPID
5
4
330
0
100
AcDbSymbolTable
70
4
0
APPID
5
19
330
4
100
AcDbSymbolTableRecord
100
AcDbRegAppTableRecord
2
ACAD
70
0
0
APPID
5
13D
330
4
100
AcDbSymbolTableRecord
100
AcDbRegAppTableRecord
2
AcCmTransparency
70
0
0
APPID
5
13E
330
4
100
AcDbSymbolTableRecord
100
AcDbRegAppTableRecord
2
GradientColor1ACI
70
0
0
APPID
5
13F
330
4
100
AcDbSymbolTableRecord
100
AcDbRegAppTableRecord
2
GradientColor2ACI
70
0
0
ENDTAB
0
TABLE
2
VPORT
5
1
330
0
100
AcDbSymbolTable
70
1
0
VPORT
5
2
330
1
100
AcDbSymbolTableRecord
100
AcDbViewportTableRecord
2
*Active
70
0
10
0.0
20
0.0
11
1.0
21
1.0
12
0.0
22
0.0
13
0.0
23
0.0
14
0.5
24
0.5
15
10.0
25
10.0
16
0.0
26
0.0
36
1.0
17
1394916.15738879
27
357281.946138581
37
0.0
40
4712.7576957639
41
1.0
75
0
76
1
0
ENDTAB
0
TABLE
2
LTYPE
5
7
330
0
100
AcDbSymbolTable
70
3
0
LTYPE
5
15
330
7
100
AcDbSymbolTableRecord
100
AcDbLinetypeTableRecord
2
Continuous
70
0
3
Solid line
72
65
73
0
40
0.0
0
LTYPE
5
16
330
7
100
AcDbSymbolTableRecord
100
AcDbLinetypeTableRecord
2
ByLayer
70
0
3

72
65
73
0
40
0.0
0
LTYPE
5
17
330
7
100
AcDbSymbolTableRecord
100
AcDbLinetypeTableRecord
2
ByBlock
70
0
3

72
65
73
0
40
0.0
0
ENDTAB
0
TABLE
2
LAYER
5
5
102
{ACAD_XDICTIONARY
360
6
102
}
330
0
100
AcDbSymbolTable
70
2
0
LAYER
5
14
330
5
100
AcDbSymbolTableRecord
100
AcDbLayerTableRecord
2
0
70
0
62
7
6
Continuous
290
1
370
-3
390
0
0
LAYER
5
22
330
5
100
AcDbSymbolTableRecord
100
AcDbLayerTableRecord
2
5 - выявленные окн
70
0
62
7
6
Continuous
290
1
370
-3
390
0
0
ENDTAB
0
TABLE
2
STYLE
5
8
330
0
100
AcDbSymbolTable
70
1
0
STYLE
5
18
330
8
100
AcDbSymbolTableRecord
100
AcDbTextStyleTableRecord
2
Standard
3
simplex.shx
70
0
71
0
40
0.0
41
1.0
42
0.0
50
0.0
0
ENDTAB
0
TABLE
2
DIMSTYLE
5
A
330
0
100
AcDbSymbolTable
70
1
100
AcDbDimStyleTable
0
DIMSTYLE
105
1A
330
A
100
AcDbSymbolTableRecord
100
AcDbDimStyleTableRecord
2
Standard
3

4

40
1.0
41
0.18
42
0.0625
43
0.38
44
0.18
45
0.0
46
0.0
47
0.0
48
0.0
49
1.0
70
0
71
0
72
0
73
0
74
0
75
0
76
0
77
0
78
0
79
0
140
0.18
141
0.09
143
25.4
144
1.0
146
1.0
147
0.09
148
0.0
170
0
171
2
172
0
174
0
175
0
176
0
177
0
178
0
179
0
271
4
272
4
273
2
274
2
275
0
276
0
277
2
278
46
279
0
280
0
281
0
282
0
283
1
284
0
285
0
286
0
289
3
290
0
294
0
340
18
173
0
345
17
346
17
347
17
371
-2
372
-2
0
ENDTAB
0
TABLE
2
VIEW
5
3
330
0
100
AcDbSymbolTable
70
0
0
ENDTAB
0
TABLE
2
UCS
5
C
330
0
100
AcDbSymbolTable
70
0
0
ENDTAB
0
TABLE
2
BLOCK_RECORD
5
D
330
0
100
AcDbSymbolTable
70
2
0
BLOCK_RECORD
5
1C
330
D
100
AcDbSymbolTableRecord
100
AcDbBlockTableRecord
2
*Model_Space
340
20
0
BLOCK_RECORD
5
137
330
D
100
AcDbSymbolTableRecord
100
AcDbBlockTableRecord
2
*Paper_Space
340
13C
0
ENDTAB
0
ENDSEC
0
SECTION
2
BLOCKS
0
BLOCK
5
1E
330
1C
100
AcDbEntity
67
0
8
0
100
AcDbBlockBegin
2
*Model_Space
70
0
10
0.0
20
0.0
30
0.0
3
*Model_Space
4

0
ENDBLK
5
1D
330
1C
100
AcDbEntity
8
0
100
AcDbBlockEnd
0
BLOCK
5
139
330
137
100
AcDbEntity
67
1
8
0
100
AcDbBlockBegin
2
*Paper_Space
70
0
10
0.0
20
0.0
30
0.0
3
*Paper_Space
4

0
ENDBLK
5
138
330
137
100
AcDbEntity
8
0
100
AcDbBlockEnd
0
ENDSEC
0
SECTION
2
ENTITIES
0
POINT
5
23
330
1C
100
AcDbEntity
67
0
8
5 - выявленные окн
62
256
6
ByLayer
370
-1
48
1.0
60
0
100
AcDbPoint
10
1398264.10299782
20
359311.582006709
30
0.0
39
0.0
210
0.0
220
0.0
230
1.0
50
360.0
0
TEXT
5
24
330
1C
100
AcDbEntity
67
0
8
5 - выявленные окн
62
7
6
ByLayer
370
-1
48
1.0
60
0
100
AcDbText
1
1
10
1398264.23212795
20
359311.856451781
30
0.0
40
0.31111111111
41
1.0
50
0.0
51
0.0
7
Standard
11
1398264.23212795
21
359311.856451781
31
0.0
210
0.0
220
0.0
230
1.0
71
0
72
0
100
AcDbText
73
0
0
POINT
5
25
330
1C
100
AcDbEntity
67
0
8
5 - выявленные окн
62
256
6
ByLayer
370
-1
48
1.0
60
0
100
AcDbPoint
10
1398260.28671014
20
359299.520757331
30
0.0
39
0.0
210
0.0
220
0.0
230
1.0
50
360.0
0
TEXT
5
26
330
1C
100
AcDbEntity
67
0
8
5 - выявленные окн
62
7
6
ByLayer
370
-1
48
1.0
60
0
100
AcDbText
1
2
10
1398260.41584029
20
359299.795202393
30
0.0
40
0.31111111111
41
1.0
50
0.0
51
0.0
7
Standard
11
1398260.41584029
21
359299.795202393
31
0.0
210
0.0
220
0.0
230
1.0
71
0
72
0
100
AcDbText
73
0
0
POINT
5
27
330
1C
100
AcDbEntity
67
0
8
5 - выявленные окн
62
256
6
ByLayer
370
-1
48
1.0
60
0
100
AcDbPoint
10
1398268.28671735
20
359299.643234475
30
0.0
39
0.0
210
0.0
220
0.0
230
1.0
50
360.0
0
TEXT
5
28
330
1C
100
AcDbEntity
67
0
8
5 - выявленные окн
62
7
6
ByLayer
370
-1
48
1.0
60
0
100
AcDbText
1
3
10
1398268.4158475
20
359299.917679552
30
0.0
40
0.31111111111
41
1.0
50
0.0
51
0.0
7
Standard
11
1398268.4158475
21
359299.917679552
31
0.0
210
0.0
220
0.0
230
1.0
71
0
72
0
100
AcDbText
73
0
0
POINT
5
29
330
1C
100
AcDbEntity
67
0
8
5 - выявленные окн
62
256
6
ByLayer
370
-1
48
1.0
60
0
100
AcDbPoint
10
1395752.19281843
20
359637.614990437
30
0.0
39
0.0
210
0.0
220
0.0
230
1.0
50
360.0
0
TEXT
5
2A
330
1C
100
AcDbEntity
67
0
8
5 - выявленные окн
62
7
6
ByLayer
370
-1
48
1.0
60
0
100
AcDbText
1
4
10
1395752.32194804
20
359637.889430915
30
0.0
40
0.31111111111
41
1.0
50
0.0
51
0.0
7
Standard
11
1395752.32194804
21
359637.889430915
31
0.0
210
0.0
220
0.0
230
1.0
71
0
72
0
100
AcDbText
73
0
0
POINT
5
2B
330
1C
100
AcDbEntity
67
0
8
5 - выявленные окн
62
256
6
ByLayer
370
-1
48
1.0
60
0
100
AcDbPoint
10
1395749.57537215
20
359626.083447172
30
0.0
39
0.0
210
0.0
220
0.0
230
1.0
50
360.0
0
TEXT
5
2C
330
1C
100
AcDbEntity
67
0
8
5 - выявленные окн
62
7
6
ByLayer
370
-1
48
1.0
60
0
100
AcDbText
1
5
10
1395749.70450178
20
359626.357887651
30
0.0
40
0.31111111111
41
1.0
50
0.0
51
0.0
7
Standard
11
1395749.70450178
21
359626.357887651
31
0.0
210
0.0
220
0.0
230
1.0
71
0
72
0
100
AcDbText
73
0
0
POINT
5
2D
330
1C
100
AcDbEntity
67
0
8
5 - выявленные окн
62
256
6
ByLayer
370
-1
48
1.0
60
0
100
AcDbPoint
10
1395774.70544779
20
359620.343761303
30
0.0
39
0.0
210
0.0
220
0.0
230
1.0
50
360.0
0
TEXT
5
2E
330
1C
100
AcDbEntity
67
0
8
5 - выявленные окн
62
7
6
ByLayer
370
-1
48
1.0
60
0
100
AcDbText
1
6
10
1395774.83457743
20
359620.618201827
30
0.0
40
0.31111111111
41
1.0
50
0.0
51
0.0
7
Standard
11
1395774.83457743
21
359620.618201827
31
0.0
210
0.0
220
0.0
230
1.0
71
0
72
0
100
AcDbText
73
0
0
POINT
5
2F
330
1C
100
AcDbEntity
67
0
8
5 - выявленные окн
62
256
6
ByLayer
370
-1
48
1.0
60
0
100
AcDbPoint
10
1395771.63434445
20
359607.598066672
30
0.0
39
0.0
210
0.0
220
0.0
230
1.0
50
360.0
0
TEXT
5
30
330
1C
100
AcDbEntity
67
0
8
5 - выявленные окн
62
7
6
ByLayer
370
-1
48
1.0
60
0
100
AcDbText
1
7
10
1395771.7634741
20
359607.872507187
30
0.0
40
0.31111111111
41
1.0
50
0.0
51
0.0
7
Standard
11
1395771.7634741
21
359607.872507187
31
0.0
210
0.0
220
0.0
230
1.0
71
0
72
0
100
AcDbText
73
0
0
POINT
5
31
330
1C
100
AcDbEntity
67
0
8
5 - выявленные окн
62
256
6
ByLayer
370
-1
48
1.0
60
0
100
AcDbPoint
10
1395779.55317787
20
359605.919051141
30
0.0
39
0.0
210
0.0
220
0.0
230
1.0
50
360.0
0
TEXT
5
32
330
1C
100
AcDbEntity
67
0
8
5 - выявленные окн
62
7
6
ByLayer
370
-1
48
1.0
60
0
100
AcDbText
1
8
10
1395779.68230753
20
359606.19349167
30
0.0
40
0.31111111111
41
1.0
50
0.0
51
0.0
7
Standard
11
1395779.68230753
21
359606.19349167
31
0.0
210
0.0
220
0.0
230
1.0
71
0
72
0
100
AcDbText
73
0
0
POINT
5
33
330
1C
100
AcDbEntity
67
0
8
5 - выявленные окн
62
256
6
ByLayer
370
-1
48
1.0
60
0
100
AcDbPoint
10
1395780.13472696
20
359604.759810555
30
0.0
39
0.0
210
0.0
220
0.0
230
1.0
50
360.0
0
TEXT
5
34
330
1C
100
AcDbEntity
67
0
8
5 - выявленные окн
62
7
6
ByLayer
370
-1
48
1.0
60
0
100
AcDbText
1
9
10
1395780.26385662
20
359605.034251086
30
0.0
40
0.31111111111
41
1.0
50
0.0
51
0.0
7
Standard
11
1395780.26385662
21
359605.034251086
31
0.0
210
0.0
220
0.0
230
1.0
71
0
72
0
100
AcDbText
73
0
0
POINT
5
35
330
1C
100
AcDbEntity
67
0
8
5 - выявленные окн
62
256
6
ByLayer
370
-1
48
1.0
60
0
100
AcDbPoint
10
1395784.06474001
20
359603.851918643
30
0.0
39
0.0
210
0.0
220
0.0
230
1.0
50
360.0
0
TEXT
5
36
330
1C
100
AcDbEntity
67
0
8
5 - выявленные окн
62
7
6
ByLayer
370
-1
48
1.0
60
0
100
AcDbText
1
10
10
1395784.19386967
20
359604.126359184
30
0.0
40
0.31111111111
41
1.0
50
0.0
51
0.0
7
Standard
11
1395784.19386967
21
359604.126359184
31
0.0
210
0.0
220
0.0
230
1.0
71
0
72
0
100
AcDbText
73
0
0
POINT
5
37
330
1C
100
AcDbEntity
67
0
8
5 - выявленные окн
62
256
6
ByLayer
370
-1
48
1.0
60
0
100
AcDbPoint
10
1395786.26369842
20
359605.475775635
30
0.0
39
0.0
210
0.0
220
0.0
230
1.0
50
360.0
0
TEXT
5
38
330
1C
100
AcDbEntity
67
0
8
5 - выявленные окн
62
7
6
ByLayer
370
-1
48
1.0
60
0
100
AcDbText
1
11
10
1395786.39282808
20
359605.750216176
30
0.0
40
0.31111111111
41
1.0
50
0.0
51
0.0
7
Standard
11
1395786.39282808
21
359605.750216176
31
0.0
210
0.0
220
0.0
230
1.0
71
0
72
0
100
AcDbText
73
0
0
POINT
5
39
330
1C
100
AcDbEntity
67
0
8
5 - выявленные окн
62
256
6
ByLayer
370
-1
48
1.0
60
0
100
AcDbPoint
10
1395786.9530167
20
359608.034465329
30
0.0
39
0.0
210
0.0
220
0.0
230
1.0
50
360.0
0
TEXT
5
3A
330
1C
100
AcDbEntity
67
0
8
5 - выявленные окн
62
7
6
ByLayer
370
-1
48
1.0
60
0
100
AcDbText
1
12
10
1395787.08214635
20
359608.308905874
30
0.0
40
0.31111111111
41
1.0
50
0.0
51
0.0
7
Standard
11
1395787.08214635
21
359608.308905874
31
0.0
210
0.0
220
0.0
230
1.0
71
0
72
0
100
AcDbText
73
0
0
POINT
5
3B
330
1C
100
AcDbEntity
67
0
8
5 - выявленные окн
62
256
6
ByLayer
370
-1
48
1.0
60
0
100
AcDbPoint
10
1395786.49488783
20
359609.157827204
30
0.0
39
0.0
210
0.0
220
0.0
230
1.0
50
360.0
0
TEXT
5
3C
330
1C
100
AcDbEntity
67
0
8
5 - выявленные окн
62
7
6
ByLayer
370
-1
48
1.0
60
0
100
AcDbText
1
13
10
1395786.62401749
20
359609.432267748
30
0.0
40
0.31111111111
41
1.0
50
0.0
51
0.0
7
Standard
11
1395786.62401749
21
359609.432267748
31
0.0
210
0.0
220
0.0
230
1.0
71
0
72
0
100
AcDbText
73
0
0
POINT
5
3D
330
1C
100
AcDbEntity
67
0
8
5 - выявленные окн
62
256
6
ByLayer
370
-1
48
1.0
60
0
100
AcDbPoint
10
1395788.43593582
20
359616.896208478
30
0.0
39
0.0
210
0.0
220
0.0
230
1.0
50
360.0
0
TEXT
5
3E
330
1C
100
AcDbEntity
67
0
8
5 - выявленные окн
62
7
6
ByLayer
370
-1
48
1.0
60
0
100
AcDbText
1
14
10
1395788.56506546
20
359617.170649025
30
0.0
40
0.31111111111
41
1.0
50
0.0
51
0.0
7
Standard
11
1395788.56506546
21
359617.170649025
31
0.0
210
0.0
220
0.0
230
1.0
71
0
72
0
100
AcDbText
73
0
0
POINT
5
3F
330
1C
100
AcDbEntity
67
0
8
5 - выявленные окн
62
256
6
ByLayer
370
-1
48
1.0
60
0
100
AcDbPoint
10
1395790.4847689
20
359616.516532939
30
0.0
39
0.0
210
0.0
220
0.0
230
1.0
50
360.0
0
TEXT
5
40
330
1C
100
AcDbEntity
67
0
8
5 - выявленные окн
62
7
6
ByLayer
370
-1
48
1.0
60
0
100
AcDbText
1
15
10
1395790.61389854
20
359616.790973489
30
0.0
40
0.31111111111
41
1.0
50
0.0
51
0.0
7
Standard
11
1395790.61389854
21
359616.790973489
31
0.0
210
0.0
220
0.0
230
1.0
71
0
72
0
100
AcDbText
73
0
0
POINT
5
41
330
1C
100
AcDbEntity
67
0
8
5 - выявленные окн
62
256
6
ByLayer
370
-1
48
1.0
60
0
100
AcDbPoint
10
1395791.35988531
20
359620.034454706
30
0.0
39
0.0
210
0.0
220
0.0
230
1.0
50
360.0
0
TEXT
5
42
330
1C
100
AcDbEntity
67
0
8
5 - выявленные окн
62
7
6
ByLayer
370
-1
48
1.0
60
0
100
AcDbText
1
16
10
1395791.48901494
20
359620.308895258
30
0.0
40
0.31111111111
41
1.0
50
0.0
51
0.0
7
Standard
11
1395791.48901494
21
359620.308895258
31
0.0
210
0.0
220
0.0
230
1.0
71
0
72
0
100
AcDbText
73
0
0
POINT
5
43
330
1C
100
AcDbEntity
67
0
8
5 - выявленные окн
62
256
6
ByLayer
370
-1
48
1.0
60
0
100
AcDbPoint
10
1395789.22156445
20
359620.566155848
30
0.0
39
0.0
210
0.0
220
0.0
230
1.0
50
360.0
0
TEXT
5
44
330
1C
100
AcDbEntity
67
0
8
5 - выявленные окн
62
7
6
ByLayer
370
-1
48
1.0
60
0
100
AcDbText
1
17
10
1395789.35069408
20
359620.840596398
30
0.0
40
0.31111111111
41
1.0
50
0.0
51
0.0
7
Standard
11
1395789.35069408
21
359620.840596398
31
0.0
210
0.0
220
0.0
230
1.0
71
0
72
0
100
AcDbText
73
0
0
POINT
5
45
330
1C
100
AcDbEntity
67
0
8
5 - выявленные окн
62
256
6
ByLayer
370
-1
48
1.0
60
0
100
AcDbPoint
10
1395791.02683881
20
359628.376224048
30
0.0
39
0.0
210
0.0
220
0.0
230
1.0
50
360.0
0
TEXT
5
46
330
1C
100
AcDbEntity
67
0
8
5 - выявленные окн
62
7
6
ByLayer
370
-1
48
1.0
60
0
100
AcDbText
1
18
10
1395791.15596843
20
359628.650664599
30
0.0
40
0.31111111111
41
1.0
50
0.0
51
0.0
7
Standard
11
1395791.15596843
21
359628.650664599
31
0.0
210
0.0
220
0.0
230
1.0
71
0
72
0
100
AcDbText
73
0
0
POINT
5
47
330
1C
100
AcDbEntity
67
0
8
5 - выявленные окн
62
256
6
ByLayer
370
-1
48
1.0
60
0
100
AcDbPoint
10
1395778.2251232
20
359631.106828606
30
0.0
39
0.0
210
0.0
220
0.0
230
1.0
50
360.0
0
TEXT
5
48
330
1C
100
AcDbEntity
67
0
8
5 - выявленные окн
62
7
6
ByLayer
370
-1
48
1.0
60
0
100
AcDbText
1
19
10
1395778.35425281
20
359631.381269134
30
0.0
40
0.31111111111
41
1.0
50
0.0
51
0.0
7
Standard
11
1395778.35425281
21
359631.381269134
31
0.0
210
0.0
220
0.0
230
1.0
71
0
72
0
100
AcDbText
73
0
0
POINT
5
49
330
1C
100
AcDbEntity
67
0
8
5 - выявленные окн
62
256
6
ByLayer
370
-1
48
1.0
60
0
100
AcDbPoint
10
1395779.18496855
20
359635.311081324
30
0.0
39
0.0
210
0.0
220
0.0
230
1.0
50
360.0
0
TEXT
5
4A
330
1C
100
AcDbEntity
67
0
8
5 - выявленные окн
62
7
6
ByLayer
370
-1
48
1.0
60
0
100
AcDbText
1
20
10
1395779.31409816
20
359635.585521854
30
0.0
40
0.31111111111
41
1.0
50
0.0
51
0.0
7
Standard
11
1395779.31409816
21
359635.585521854
31
0.0
210
0.0
220
0.0
230
1.0
71
0
72
0
100
AcDbText
73
0
0
POINT
5
4B
330
1C
100
AcDbEntity
67
0
8
5 - выявленные окн
62
256
6
ByLayer
370
-1
48
1.0
60
0
100
AcDbPoint
10
1395771.90590519
20
359636.97291647
30
0.0
39
0.0
210
0.0
220
0.0
230
1.0
50
360.0
0
TEXT
5
4C
330
1C
100
AcDbEntity
67
0
8
5 - выявленные окн
62
7
6
ByLayer
370
-1
48
1.0
60
0
100
AcDbText
1
21
10
1395772.0350348
20
359637.247356988
30
0.0
40
0.31111111111
41
1.0
50
0.0
51
0.0
7
Standard
11
1395772.0350348
21
359637.247356988
31
0.0
210
0.0
220
0.0
230
1.0
71
0
72
0
100
AcDbText
73
0
0
POINT
5
4D
330
1C
100
AcDbEntity
67
0
8
5 - выявленные окн
62
256
6
ByLayer
370
-1
48
1.0
60
0
100
AcDbPoint
10
1395771.06863874
20
359633.305575852
30
0.0
39
0.0
210
0.0
220
0.0
230
1.0
50
360.0
0
TEXT
5
4E
330
1C
100
AcDbEntity
67
0
8
5 - выявленные окн
62
7
6
ByLayer
370
-1
48
1.0
60
0
100
AcDbText
1
22
10
1395771.19776835
20
359633.580016369
30
0.0
40
0.31111111111
41
1.0
50
0.0
51
0.0
7
Standard
11
1395771.19776835
21
359633.580016369
31
0.0
210
0.0
220
0.0
230
1.0
71
0
72
0
100
AcDbText
73
0
0
POINT
5
4F
330
1C
100
AcDbEntity
67
0
8
5 - выявленные окн
62
256
6
ByLayer
370
-1
48
1.0
60
0
100
AcDbPoint
10
1391718.28796013
20
356012.766674308
30
0.0
39
0.0
210
0.0
220
0.0
230
1.0
50
360.0
0
TEXT
5
50
330
1C
100
AcDbEntity
67
0
8
5 - выявленные окн
62
7
6
ByLayer
370
-1
48
1.0
60
0
100
AcDbText
1
23
10
1391718.41709645
20
356013.041107516
30
0.0
40
0.31111111111
41
1.0
50
0.0
51
0.0
7
Standard
11
1391718.41709645
21
356013.041107516
31
0.0
210
0.0
220
0.0
230
1.0
71
0
72
0
100
AcDbText
73
0
0
POINT
5
51
330
1C
100
AcDbEntity
67
0
8
5 - выявленные окн
62
256
6
ByLayer
370
-1
48
1.0
60
0
100
AcDbPoint
10
1391718.67369522
20
356011.428672883
30
0.0
39
0.0
210
0.0
220
0.0
230
1.0
50
360.0
0
TEXT
5
52
330
1C
100
AcDbEntity
67
0
8
5 - выявленные окн
62
7
6
ByLayer
370
-1
48
1.0
60
0
100
AcDbText
1
24
10
1391718.80283154
20
356011.703106095
30
0.0
40
0.31111111111
41
1.0
50
0.0
51
0.0
7
Standard
11
1391718.80283154
21
356011.703106095
31
0.0
210
0.0
220
0.0
230
1.0
71
0
72
0
100
AcDbText
73
0
0
POINT
5
53
330
1C
100
AcDbEntity
67
0
8
5 - выявленные окн
62
256
6
ByLayer
370
-1
48
1.0
60
0
100
AcDbPoint
10
1391720.48166839
20
356010.460786187
30
0.0
39
0.0
210
0.0
220
0.0
230
1.0
50
360.0
0
TEXT
5
54
330
1C
100
AcDbEntity
67
0
8
5 - выявленные окн
62
7
6
ByLayer
370
-1
48
1.0
60
0
100
AcDbText
1
25
10
1391720.61080471
20
356010.735219405
30
0.0
40
0.31111111111
41
1.0
50
0.0
51
0.0
7
Standard
11
1391720.61080471
21
356010.735219405
31
0.0
210
0.0
220
0.0
230
1.0
71
0
72
0
100
AcDbText
73
0
0
POINT
5
55
330
1C
100
AcDbEntity
67
0
8
5 - выявленные окн
62
256
6
ByLayer
370
-1
48
1.0
60
0
100
AcDbPoint
10
1391725.23065737
20
356014.67092841
30
0.0
39
0.0
210
0.0
220
0.0
230
1.0
50
360.0
0
TEXT
5
56
330
1C
100
AcDbEntity
67
0
8
5 - выявленные окн
62
7
6
ByLayer
370
-1
48
1.0
60
0
100
AcDbText
1
26
10
1391725.35979368
20
356014.94536164
30
0.0
40
0.31111111111
41
1.0
50
0.0
51
0.0
7
Standard
11
1391725.35979368
21
356014.94536164
31
0.0
210
0.0
220
0.0
230
1.0
71
0
72
0
100
AcDbText
73
0
0
POINT
5
57
330
1C
100
AcDbEntity
67
0
8
5 - выявленные окн
62
256
6
ByLayer
370
-1
48
1.0
60
0
100
AcDbPoint
10
1391724.26096228
20
356016.389663608
30
0.0
39
0.0
210
0.0
220
0.0
230
1.0
50
360.0
0
TEXT
5
58
330
1C
100
AcDbEntity
67
0
8
5 - выявленные окн
62
7
6
ByLayer
370
-1
48
1.0
60
0
100
AcDbText
1
27
10
1391724.39009859
20
356016.664096832
30
0.0
40
0.31111111111
41
1.0
50
0.0
51
0.0
7
Standard
11
1391724.39009859
21
356016.664096832
31
0.0
210
0.0
220
0.0
230
1.0
71
0
72
0
100
AcDbText
73
0
0
POINT
5
59
330
1C
100
AcDbEntity
67
0
8
5 - выявленные окн
62
256
6
ByLayer
370
-1
48
1.0
60
0
100
AcDbPoint
10
1391722.97041822
20
356017.076703823
30
0.0
39
0.0
210
0.0
220
0.0
230
1.0
50
360.0
0
TEXT
5
5A
330
1C
100
AcDbEntity
67
0
8
5 - выявленные окн
62
7
6
ByLayer
370
-1
48
1.0
60
0
100
AcDbText
1
28
10
1391723.09955452
20
356017.351137047
30
0.0
40
0.31111111111
41
1.0
50
0.0
51
0.0
7
Standard
11
1391723.09955452
21
356017.351137047
31
0.0
210
0.0
220
0.0
230
1.0
71
0
72
0
100
AcDbText
73
0
0
POINT
5
5B
330
1C
100
AcDbEntity
67
0
8
5 - выявленные окн
62
256
6
ByLayer
370
-1
48
1.0
60
0
100
AcDbPoint
10
1391720.28649422
20
356015.268488747
30
0.0
39
0.0
210
0.0
220
0.0
230
1.0
50
360.0
0
TEXT
5
5C
330
1C
100
AcDbEntity
67
0
8
5 - выявленные окн
62
7
6
ByLayer
370
-1
48
1.0
60
0
100
AcDbText
1
29
10
1391720.41563053
20
356015.542921966
30
0.0
40
0.31111111111
41
1.0
50
0.0
51
0.0
7
Standard
11
1391720.41563053
21
356015.542921966
31
0.0
210
0.0
220
0.0
230
1.0
71
0
72
0
100
AcDbText
73
0
0
POINT
5
5D
330
1C
100
AcDbEntity
67
0
8
5 - выявленные окн
62
256
6
ByLayer
370
-1
48
1.0
60
0
100
AcDbPoint
10
1391566.34534383
20
355638.628859398
30
0.0
39
0.0
210
0.0
220
0.0
230
1.0
50
360.0
0
TEXT
5
5E
330
1C
100
AcDbEntity
67
0
8
5 - выявленные окн
62
7
6
ByLayer
370
-1
48
1.0
60
0
100
AcDbText
1
30
10
1391566.47448083
20
355638.903292343
30
0.0
40
0.31111111111
41
1.0
50
0.0
51
0.0
7
Standard
11
1391566.47448083
21
355638.903292343
31
0.0
210
0.0
220
0.0
230
1.0
71
0
72
0
100
AcDbText
73
0
0
POINT
5
5F
330
1C
100
AcDbEntity
67
0
8
5 - выявленные окн
62
256
6
ByLayer
370
-1
48
1.0
60
0
100
AcDbPoint
10
1391568.1452122
20
355635.304614386
30
0.0
39
0.0
210
0.0
220
0.0
230
1.0
50
360.0
0
TEXT
5
60
330
1C
100
AcDbEntity
67
0
8
5 - выявленные окн
62
7
6
ByLayer
370
-1
48
1.0
60
0
100
AcDbText
1
31
10
1391568.27434921
20
355635.579047333
30
0.0
40
0.31111111111
41
1.0
50
0.0
51
0.0
7
Standard
11
1391568.27434921
21
355635.579047333
31
0.0
210
0.0
220
0.0
230
1.0
71
0
72
0
100
AcDbText
73
0
0
POINT
5
61
330
1C
100
AcDbEntity
67
0
8
5 - выявленные окн
62
256
6
ByLayer
370
-1
48
1.0
60
0
100
AcDbPoint
10
1391571.01161142
20
355635.534141422
30
0.0
39
0.0
210
0.0
220
0.0
230
1.0
50
360.0
0
TEXT
5
62
330
1C
100
AcDbEntity
67
0
8
5 - выявленные окн
62
7
6
ByLayer
370
-1
48
1.0
60
0
100
AcDbText
1
32
10
1391571.14074843
20
355635.808574375
30
0.0
40
0.31111111111
41
1.0
50
0.0
51
0.0
7
Standard
11
1391571.14074843
21
355635.808574375
31
0.0
210
0.0
220
0.0
230
1.0
71
0
72
0
100
AcDbText
73
0
0
POINT
5
63
330
1C
100
AcDbEntity
67
0
8
5 - выявленные окн
62
256
6
ByLayer
370
-1
48
1.0
60
0
100
AcDbPoint
10
1391572.74256899
20
355632.453973781
30
0.0
39
0.0
210
0.0
220
0.0
230
1.0
50
360.0
0
TEXT
5
64
330
1C
100
AcDbEntity
67
0
8
5 - выявленные окн
62
7
6
ByLayer
370
-1
48
1.0
60
0
100
AcDbText
1
33
10
1391572.871706
20
355632.72840674
30
0.0
40
0.31111111111
41
1.0
50
0.0
51
0.0
7
Standard
11
1391572.871706
21
355632.72840674
31
0.0
210
0.0
220
0.0
230
1.0
71
0
72
0
100
AcDbText
73
0
0
POINT
5
65
330
1C
100
AcDbEntity
67
0
8
5 - выявленные окн
62
256
6
ByLayer
370
-1
48
1.0
60
0
100
AcDbPoint
10
1391575.59800034
20
355632.627110102
30
0.0
39
0.0
210
0.0
220
0.0
230
1.0
50
360.0
0
TEXT
5
66
330
1C
100
AcDbEntity
67
0
8
5 - выявленные окн
62
7
6
ByLayer
370
-1
48
1.0
60
0
100
AcDbText
1
34
10
1391575.72713735
20
355632.901543063
30
0.0
40
0.31111111111
41
1.0
50
0.0
51
0.0
7
Standard
11
1391575.72713735
21
355632.901543063
31
0.0
210
0.0
220
0.0
230
1.0
71
0
72
0
100
AcDbText
73
0
0
POINT
5
67
330
1C
100
AcDbEntity
67
0
8
5 - выявленные окн
62
256
6
ByLayer
370
-1
48
1.0
60
0
100
AcDbPoint
10
1391578.14771637
20
355634.251786613
30
0.0
39
0.0
210
0.0
220
0.0
230
1.0
50
360.0
0
TEXT
5
68
330
1C
100
AcDbEntity
67
0
8
5 - выявленные окн
62
7
6
ByLayer
370
-1
48
1.0
60
0
100
AcDbText
1
35
10
1391578.27685338
20
355634.52621958
30
0.0
40
0.31111111111
41
1.0
50
0.0
51
0.0
7
Standard
11
1391578.27685338
21
355634.52621958
31
0.0
210
0.0
220
0.0
230
1.0
71
0
72
0
100
AcDbText
73
0
0
POINT
5
69
330
1C
100
AcDbEntity
67
0
8
5 - выявленные окн
62
256
6
ByLayer
370
-1
48
1.0
60
0
100
AcDbPoint
10
1391578.19520905
20
355634.85927064
30
0.0
39
0.0
210
0.0
220
0.0
230
1.0
50
360.0
0
TEXT
5
6A
330
1C
100
AcDbEntity
67
0
8
5 - выявленные окн
62
7
6
ByLayer
370
-1
48
1.0
60
0
100
AcDbText
1
36
10
1391578.32434606
20
355635.133703605
30
0.0
40
0.31111111111
41
1.0
50
0.0
51
0.0
7
Standard
11
1391578.32434606
21
355635.133703605
31
0.0
210
0.0
220
0.0
230
1.0
71
0
72
0
100
AcDbText
73
0
0
POINT
5
6B
330
1C
100
AcDbEntity
67
0
8
5 - выявленные окн
62
256
6
ByLayer
370
-1
48
1.0
60
0
100
AcDbPoint
10
1391575.77551402
20
355639.287515232
30
0.0
39
0.0
210
0.0
220
0.0
230
1.0
50
360.0
0
TEXT
5
6C
330
1C
100
AcDbEntity
67
0
8
5 - выявленные окн
62
7
6
ByLayer
370
-1
48
1.0
60
0
100
AcDbText
1
37
10
1391575.90465103
20
355639.561948193
30
0.0
40
0.31111111111
41
1.0
50
0.0
51
0.0
7
Standard
11
1391575.90465103
21
355639.561948193
31
0.0
210
0.0
220
0.0
230
1.0
71
0
72
0
100
AcDbText
73
0
0
POINT
5
6D
330
1C
100
AcDbEntity
67
0
8
5 - выявленные окн
62
256
6
ByLayer
370
-1
48
1.0
60
0
100
AcDbPoint
10
1391573.40688195
20
355638.339834151
30
0.0
39
0.0
210
0.0
220
0.0
230
1.0
50
360.0
0
TEXT
5
6E
330
1C
100
AcDbEntity
67
0
8
5 - выявленные окн
62
7
6
ByLayer
370
-1
48
1.0
60
0
100
AcDbText
1
38
10
1391573.53601896
20
355638.614267111
30
0.0
40
0.31111111111
41
1.0
50
0.0
51
0.0
7
Standard
11
1391573.53601896
21
355638.614267111
31
0.0
210
0.0
220
0.0
230
1.0
71
0
72
0
100
AcDbText
73
0
0
POINT
5
6F
330
1C
100
AcDbEntity
67
0
8
5 - выявленные окн
62
256
6
ByLayer
370
-1
48
1.0
60
0
100
AcDbPoint
10
1391571.21085135
20
355642.011727225
30
0.0
39
0.0
210
0.0
220
0.0
230
1.0
50
360.0
0
TEXT
5
70
330
1C
100
AcDbEntity
67
0
8
5 - выявленные окн
62
7
6
ByLayer
370
-1
48
1.0
60
0
100
AcDbText
1
39
10
1391571.33998834
20
355642.286160177
30
0.0
40
0.31111111111
41
1.0
50
0.0
51
0.0
7
Standard
11
1391571.33998834
21
355642.286160177
31
0.0
210
0.0
220
0.0
230
1.0
71
0
72
0
100
AcDbText
73
0
0
POINT
5
71
330
1C
100
AcDbEntity
67
0
8
5 - выявленные окн
62
256
6
ByLayer
370
-1
48
1.0
60
0
100
AcDbPoint
10
1391570.17851669
20
355642.310420566
30
0.0
39
0.0
210
0.0
220
0.0
230
1.0
50
360.0
0
TEXT
5
72
330
1C
100
AcDbEntity
67
0
8
5 - выявленные окн
62
7
6
ByLayer
370
-1
48
1.0
60
0
100
AcDbText
1
40
10
1391570.30765368
20
355642.584853518
30
0.0
40
0.31111111111
41
1.0
50
0.0
51
0.0
7
Standard
11
1391570.30765368
21
355642.584853518
31
0.0
210
0.0
220
0.0
230
1.0
71
0
72
0
100
AcDbText
73
0
0
POINT
5
73
330
1C
100
AcDbEntity
67
0
8
5 - выявленные окн
62
256
6
ByLayer
370
-1
48
1.0
60
0
100
AcDbPoint
10
1391563.78969508
20
355638.502589389
30
0.0
39
0.0
210
0.0
220
0.0
230
1.0
50
360.0
0
TEXT
5
74
330
1C
100
AcDbEntity
67
0
8
5 - выявленные окн
62
7
6
ByLayer
370
-1
48
1.0
60
0
100
AcDbText
1
41
10
1391563.91883208
20
355638.777022331
30
0.0
40
0.31111111111
41
1.0
50
0.0
51
0.0
7
Standard
11
1391563.91883208
21
355638.777022331
31
0.0
210
0.0
220
0.0
230
1.0
71
0
72
0
100
AcDbText
73
0
0
POINT
5
75
330
1C
100
AcDbEntity
67
0
8
5 - выявленные окн
62
256
6
ByLayer
370
-1
48
1.0
60
0
100
AcDbPoint
10
1391564.01586345
20
355637.96217214
30
0.0
39
0.0
210
0.0
220
0.0
230
1.0
50
360.0
0
TEXT
5
76
330
1C
100
AcDbEntity
67
0
8
5 - выявленные окн
62
7
6
ByLayer
370
-1
48
1.0
60
0
100
AcDbText
1
42
10
1391564.14500045
20
355638.236605079
30
0.0
40
0.31111111111
41
1.0
50
0.0
51
0.0
7
Standard
11
1391564.14500045
21
355638.236605079
31
0.0
210
0.0
220
0.0
230
1.0
71
0
72
0
100
AcDbText
73
0
0
POINT
5
77
330
1C
100
AcDbEntity
67
0
8
5 - выявленные окн
62
256
6
ByLayer
370
-1
48
1.0
60
0
100
AcDbPoint
10
1391657.30476123
20
354928.122225555
30
0.0
39
0.0
210
0.0
220
0.0
230
1.0
50
360.0
0
TEXT
5
78
330
1C
100
AcDbEntity
67
0
8
5 - выявленные окн
62
7
6
ByLayer
370
-1
48
1.0
60
0
100
AcDbText
1
43
10
1391657.43389953
20
354928.396658682
30
0.0
40
0.31111111111
41
1.0
50
0.0
51
0.0
7
Standard
11
1391657.43389953
21
354928.396658682
31
0.0
210
0.0
220
0.0
230
1.0
71
0
72
0
100
AcDbText
73
0
0
POINT
5
79
330
1C
100
AcDbEntity
67
0
8
5 - выявленные окн
62
256
6
ByLayer
370
-1
48
1.0
60
0
100
AcDbPoint
10
1391657.21182014
20
354926.925466674
30
0.0
39
0.0
210
0.0
220
0.0
230
1.0
50
360.0
0
TEXT
5
7A
330
1C
100
AcDbEntity
67
0
8
5 - выявленные окн
62
7
6
ByLayer
370
-1
48
1.0
60
0
100
AcDbText
1
44
10
1391657.34095843
20
354927.199899802
30
0.0
40
0.31111111111
41
1.0
50
0.0
51
0.0
7
Standard
11
1391657.34095843
21
354927.199899802
31
0.0
210
0.0
220
0.0
230
1.0
71
0
72
0
100
AcDbText
73
0
0
POINT
5
7B
330
1C
100
AcDbEntity
67
0
8
5 - выявленные окн
62
256
6
ByLayer
370
-1
48
1.0
60
0
100
AcDbPoint
10
1391657.97935484
20
354925.862408003
30
0.0
39
0.0
210
0.0
220
0.0
230
1.0
50
360.0
0
TEXT
5
7C
330
1C
100
AcDbEntity
67
0
8
5 - выявленные окн
62
7
6
ByLayer
370
-1
48
1.0
60
0
100
AcDbText
1
45
10
1391658.10849314
20
354926.136841135
30
0.0
40
0.31111111111
41
1.0
50
0.0
51
0.0
7
Standard
11
1391658.10849314
21
354926.136841135
31
0.0
210
0.0
220
0.0
230
1.0
71
0
72
0
100
AcDbText
73
0
0
POINT
5
7D
330
1C
100
AcDbEntity
67
0
8
5 - выявленные окн
62
256
6
ByLayer
370
-1
48
1.0
60
0
100
AcDbPoint
10
1391659.21436612
20
354925.742290696
30
0.0
39
0.0
210
0.0
220
0.0
230
1.0
50
360.0
0
TEXT
5
7E
330
1C
100
AcDbEntity
67
0
8
5 - выявленные окн
62
7
6
ByLayer
370
-1
48
1.0
60
0
100
AcDbText
1
46
10
1391659.34350442
20
354926.016723829
30
0.0
40
0.31111111111
41
1.0
50
0.0
51
0.0
7
Standard
11
1391659.34350442
21
354926.016723829
31
0.0
210
0.0
220
0.0
230
1.0
71
0
72
0
100
AcDbText
73
0
0
POINT
5
7F
330
1C
100
AcDbEntity
67
0
8
5 - выявленные окн
62
256
6
ByLayer
370
-1
48
1.0
60
0
100
AcDbPoint
10
1391660.34198266
20
354926.602732251
30
0.0
39
0.0
210
0.0
220
0.0
230
1.0
50
360.0
0
TEXT
5
80
330
1C
100
AcDbEntity
67
0
8
5 - выявленные окн
62
7
6
ByLayer
370
-1
48
1.0
60
0
100
AcDbText
1
47
10
1391660.47112096
20
354926.877165387
30
0.0
40
0.31111111111
41
1.0
50
0.0
51
0.0
7
Standard
11
1391660.47112096
21
354926.877165387
31
0.0
210
0.0
220
0.0
230
1.0
71
0
72
0
100
AcDbText
73
0
0
POINT
5
81
330
1C
100
AcDbEntity
67
0
8
5 - выявленные окн
62
256
6
ByLayer
370
-1
48
1.0
60
0
100
AcDbPoint
10
1391660.42422303
20
354927.882688987
30
0.0
39
0.0
210
0.0
220
0.0
230
1.0
50
360.0
0
TEXT
5
82
330
1C
100
AcDbEntity
67
0
8
5 - выявленные окн
62
7
6
ByLayer
370
-1
48
1.0
60
0
100
AcDbText
1
48
10
1391660.55336133
20
354928.15712212
30
0.0
40
0.31111111111
41
1.0
50
0.0
51
0.0
7
Standard
11
1391660.55336133
21
354928.15712212
31
0.0
210
0.0
220
0.0
230
1.0
71
0
72
0
100
AcDbText
73
0
0
POINT
5
83
330
1C
100
AcDbEntity
67
0
8
5 - выявленные окн
62
256
6
ByLayer
370
-1
48
1.0
60
0
100
AcDbPoint
10
1391659.6583739
20
354928.853174535
30
0.0
39
0.0
210
0.0
220
0.0
230
1.0
50
360.0
0
TEXT
5
84
330
1C
100
AcDbEntity
67
0
8
5 - выявленные окн
62
7
6
ByLayer
370
-1
48
1.0
60
0
100
AcDbText
1
49
10
1391659.7875122
20
354929.127607668
30
0.0
40
0.31111111111
41
1.0
50
0.0
51
0.0
7
Standard
11
1391659.7875122
21
354929.127607668
31
0.0
210
0.0
220
0.0
230
1.0
71
0
72
0
100
AcDbText
73
0
0
POINT
5
85
330
1C
100
AcDbEntity
67
0
8
5 - выявленные окн
62
256
6
ByLayer
370
-1
48
1.0
60
0
100
AcDbPoint
10
1391658.45095991
20
354928.98295139
30
0.0
39
0.0
210
0.0
220
0.0
230
1.0
50
360.0
0
TEXT
5
86
330
1C
100
AcDbEntity
67
0
8
5 - выявленные окн
62
7
6
ByLayer
370
-1
48
1.0
60
0
100
AcDbText
1
50
10
1391658.58009821
20
354929.257384518
30
0.0
40
0.31111111111
41
1.0
50
0.0
51
0.0
7
Standard
11
1391658.58009821
21
354929.257384518
31
0.0
210
0.0
220
0.0
230
1.0
71
0
72
0
100
AcDbText
73
0
0
POINT
5
87
330
1C
100
AcDbEntity
67
0
8
5 - выявленные окн
62
256
6
ByLayer
370
-1
48
1.0
60
0
100
AcDbPoint
10
1392279.3617895
20
356570.226510322
30
0.0
39
0.0
210
0.0
220
0.0
230
1.0
50
360.0
0
TEXT
5
88
330
1C
100
AcDbEntity
67
0
8
5 - выявленные окн
62
7
6
ByLayer
370
-1
48
1.0
60
0
100
AcDbText
1
51
10
1392279.49092478
20
356570.500944543
30
0.0
40
0.31111111111
41
1.0
50
0.0
51
0.0
7
Standard
11
1392279.49092478
21
356570.500944543
31
0.0
210
0.0
220
0.0
230
1.0
71
0
72
0
100
AcDbText
73
0
0
POINT
5
89
330
1C
100
AcDbEntity
67
0
8
5 - выявленные окн
62
256
6
ByLayer
370
-1
48
1.0
60
0
100
AcDbPoint
10
1392272.87762829
20
356558.374184804
30
0.0
39
0.0
210
0.0
220
0.0
230
1.0
50
360.0
0
TEXT
5
8A
330
1C
100
AcDbEntity
67
0
8
5 - выявленные окн
62
7
6
ByLayer
370
-1
48
1.0
60
0
100
AcDbText
1
52
10
1392273.0067636
20
356558.648619016
30
0.0
40
0.31111111111
41
1.0
50
0.0
51
0.0
7
Standard
11
1392273.0067636
21
356558.648619016
31
0.0
210
0.0
220
0.0
230
1.0
71
0
72
0
100
AcDbText
73
0
0
POINT
5
8B
330
1C
100
AcDbEntity
67
0
8
5 - выявленные окн
62
256
6
ByLayer
370
-1
48
1.0
60
0
100
AcDbPoint
10
1392289.25908427
20
356549.848388527
30
0.0
39
0.0
210
0.0
220
0.0
230
1.0
50
360.0
0
TEXT
5
8C
330
1C
100
AcDbEntity
67
0
8
5 - выявленные окн
62
7
6
ByLayer
370
-1
48
1.0
60
0
100
AcDbText
1
53
10
1392289.38821959
20
356550.122822768
30
0.0
40
0.31111111111
41
1.0
50
0.0
51
0.0
7
Standard
11
1392289.38821959
21
356550.122822768
31
0.0
210
0.0
220
0.0
230
1.0
71
0
72
0
100
AcDbText
73
0
0
POINT
5
8D
330
1C
100
AcDbEntity
67
0
8
5 - выявленные окн
62
256
6
ByLayer
370
-1
48
1.0
60
0
100
AcDbPoint
10
1392295.29415051
20
356562.022144037
30
0.0
39
0.0
210
0.0
220
0.0
230
1.0
50
360.0
0
TEXT
5
8E
330
1C
100
AcDbEntity
67
0
8
5 - выявленные окн
62
7
6
ByLayer
370
-1
48
1.0
60
0
100
AcDbText
1
54
10
1392295.42328581
20
356562.29657829
30
0.0
40
0.31111111111
41
1.0
50
0.0
51
0.0
7
Standard
11
1392295.42328581
21
356562.29657829
31
0.0
210
0.0
220
0.0
230
1.0
71
0
72
0
100
AcDbText
73
0
0
POINT
5
8F
330
1C
100
AcDbEntity
67
0
8
5 - выявленные окн
62
256
6
ByLayer
370
-1
48
1.0
60
0
100
AcDbPoint
10
1394556.16727532
20
359280.291581548
30
0.0
39
0.0
210
0.0
220
0.0
230
1.0
50
360.0
0
TEXT
5
90
330
1C
100
AcDbEntity
67
0
8
5 - выявленные окн
62
7
6
ByLayer
370
-1
48
1.0
60
0
100
AcDbText
1
55
10
1394556.29640561
20
359280.566019854
30
0.0
40
0.31111111111
41
1.0
50
0.0
51
0.0
7
Standard
11
1394556.29640561
21
359280.566019854
31
0.0
210
0.0
220
0.0
230
1.0
71
0
72
0
100
AcDbText
73
0
0
POINT
5
91
330
1C
100
AcDbEntity
67
0
8
5 - выявленные окн
62
256
6
ByLayer
370
-1
48
1.0
60
0
100
AcDbPoint
10
1394560.70756179
20
359299.225159249
30
0.0
39
0.0
210
0.0
220
0.0
230
1.0
50
360.0
0
TEXT
5
92
330
1C
100
AcDbEntity
67
0
8
5 - выявленные окн
62
7
6
ByLayer
370
-1
48
1.0
60
0
100
AcDbText
1
56
10
1394560.83669204
20
359299.499597565
30
0.0
40
0.31111111111
41
1.0
50
0.0
51
0.0
7
Standard
11
1394560.83669204
21
359299.499597565
31
0.0
210
0.0
220
0.0
230
1.0
71
0
72
0
100
AcDbText
73
0
0
POINT
5
93
330
1C
100
AcDbEntity
67
0
8
5 - выявленные окн
62
256
6
ByLayer
370
-1
48
1.0
60
0
100
AcDbPoint
10
1394568.77017893
20
359297.071377144
30
0.0
39
0.0
210
0.0
220
0.0
230
1.0
50
360.0
0
TEXT
5
94
330
1C
100
AcDbEntity
67
0
8
5 - выявленные окн
62
7
6
ByLayer
370
-1
48
1.0
60
0
100
AcDbText
1
57
10
1394568.89930919
20
359297.345815474
30
0.0
40
0.31111111111
41
1.0
50
0.0
51
0.0
7
Standard
11
1394568.89930919
21
359297.345815474
31
0.0
210
0.0
220
0.0
230
1.0
71
0
72
0
100
AcDbText
73
0
0
POINT
5
95
330
1C
100
AcDbEntity
67
0
8
5 - выявленные окн
62
256
6
ByLayer
370
-1
48
1.0
60
0
100
AcDbPoint
10
1394568.2305962
20
359294.819133669
30
0.0
39
0.0
210
0.0
220
0.0
230
1.0
50
360.0
0
TEXT
5
96
330
1C
100
AcDbEntity
67
0
8
5 - выявленные окн
62
7
6
ByLayer
370
-1
48
1.0
60
0
100
AcDbText
1
58
10
1394568.35972645
20
359295.093572
30
0.0
40
0.31111111111
41
1.0
50
0.0
51
0.0
7
Standard
11
1394568.35972645
21
359295.093572
31
0.0
210
0.0
220
0.0
230
1.0
71
0
72
0
100
AcDbText
73
0
0
POINT
5
97
330
1C
100
AcDbEntity
67
0
8
5 - выявленные окн
62
256
6
ByLayer
370
-1
48
1.0
60
0
100
AcDbPoint
10
1394571.20647164
20
359294.019952827
30
0.0
39
0.0
210
0.0
220
0.0
230
1.0
50
360.0
0
TEXT
5
98
330
1C
100
AcDbEntity
67
0
8
5 - выявленные окн
62
7
6
ByLayer
370
-1
48
1.0
60
0
100
AcDbText
1
59
10
1394571.3356019
20
359294.294391162
30
0.0
40
0.31111111111
41
1.0
50
0.0
51
0.0
7
Standard
11
1394571.3356019
21
359294.294391162
31
0.0
210
0.0
220
0.0
230
1.0
71
0
72
0
100
AcDbText
73
0
0
POINT
5
99
330
1C
100
AcDbEntity
67
0
8
5 - выявленные окн
62
256
6
ByLayer
370
-1
48
1.0
60
0
100
AcDbPoint
10
1394569.04636898
20
359285.003584347
30
0.0
39
0.0
210
0.0
220
0.0
230
1.0
50
360.0
0
TEXT
5
9A
330
1C
100
AcDbEntity
67
0
8
5 - выявленные окн
62
7
6
ByLayer
370
-1
48
1.0
60
0
100
AcDbText
1
60
10
1394569.17549925
20
359285.27802268
30
0.0
40
0.31111111111
41
1.0
50
0.0
51
0.0
7
Standard
11
1394569.17549925
21
359285.27802268
31
0.0
210
0.0
220
0.0
230
1.0
71
0
72
0
100
AcDbText
73
0
0
POINT
5
9B
330
1C
100
AcDbEntity
67
0
8
5 - выявленные окн
62
256
6
ByLayer
370
-1
48
1.0
60
0
100
AcDbPoint
10
1394575.53865943
20
359283.260058861
30
0.0
39
0.0
210
0.0
220
0.0
230
1.0
50
360.0
0
TEXT
5
9C
330
1C
100
AcDbEntity
67
0
8
5 - выявленные окн
62
7
6
ByLayer
370
-1
48
1.0
60
0
100
AcDbText
1
61
10
1394575.66778971
20
359283.534497204
30
0.0
40
0.31111111111
41
1.0
50
0.0
51
0.0
7
Standard
11
1394575.66778971
21
359283.534497204
31
0.0
210
0.0
220
0.0
230
1.0
71
0
72
0
100
AcDbText
73
0
0
POINT
5
9D
330
1C
100
AcDbEntity
67
0
8
5 - выявленные окн
62
256
6
ByLayer
370
-1
48
1.0
60
0
100
AcDbPoint
10
1394573.69948261
20
359275.58325058
30
0.0
39
0.0
210
0.0
220
0.0
230
1.0
50
360.0
0
TEXT
5
9E
330
1C
100
AcDbEntity
67
0
8
5 - выявленные окн
62
7
6
ByLayer
370
-1
48
1.0
60
0
100
AcDbText
1
62
10
1394573.8286129
20
359275.85768892
30
0.0
40
0.31111111111
41
1.0
50
0.0
51
0.0
7
Standard
11
1394573.8286129
21
359275.85768892
31
0.0
210
0.0
220
0.0
230
1.0
71
0
72
0
100
AcDbText
73
0
0
POINT
5
9F
330
1C
100
AcDbEntity
67
0
8
5 - выявленные окн
62
256
6
ByLayer
370
-1
48
1.0
60
0
100
AcDbPoint
10
1397848.81064448
20
359181.784656291
30
0.0
39
0.0
210
0.0
220
0.0
230
1.0
50
360.0
0
TEXT
5
A0
330
1C
100
AcDbEntity
67
0
8
5 - выявленные окн
62
7
6
ByLayer
370
-1
48
1.0
60
0
100
AcDbText
1
63
10
1397848.93977485
20
359182.059100606
30
0.0
40
0.31111111111
41
1.0
50
0.0
51
0.0
7
Standard
11
1397848.93977485
21
359182.059100606
31
0.0
210
0.0
220
0.0
230
1.0
71
0
72
0
100
AcDbText
73
0
0
POINT
5
A1
330
1C
100
AcDbEntity
67
0
8
5 - выявленные окн
62
256
6
ByLayer
370
-1
48
1.0
60
0
100
AcDbPoint
10
1397848.58927139
20
359172.294109723
30
0.0
39
0.0
210
0.0
220
0.0
230
1.0
50
360.0
0
TEXT
5
A2
330
1C
100
AcDbEntity
67
0
8
5 - выявленные окн
62
7
6
ByLayer
370
-1
48
1.0
60
0
100
AcDbText
1
64
10
1397848.71840178
20
359172.568554041
30
0.0
40
0.31111111111
41
1.0
50
0.0
51
0.0
7
Standard
11
1397848.71840178
21
359172.568554041
31
0.0
210
0.0
220
0.0
230
1.0
71
0
72
0
100
AcDbText
73
0
0
POINT
5
A3
330
1C
100
AcDbEntity
67
0
8
5 - выявленные окн
62
256
6
ByLayer
370
-1
48
1.0
60
0
100
AcDbPoint
10
1397861.07638491
20
359171.772188735
30
0.0
39
0.0
210
0.0
220
0.0
230
1.0
50
360.0
0
TEXT
5
A4
330
1C
100
AcDbEntity
67
0
8
5 - выявленные окн
62
7
6
ByLayer
370
-1
48
1.0
60
0
100
AcDbText
1
65
10
1397861.20551531
20
359172.046633072
30
0.0
40
0.31111111111
41
1.0
50
0.0
51
0.0
7
Standard
11
1397861.20551531
21
359172.046633072
31
0.0
210
0.0
220
0.0
230
1.0
71
0
72
0
100
AcDbText
73
0
0
POINT
5
A5
330
1C
100
AcDbEntity
67
0
8
5 - выявленные окн
62
256
6
ByLayer
370
-1
48
1.0
60
0
100
AcDbPoint
10
1397860.9667168
20
359167.894253012
30
0.0
39
0.0
210
0.0
220
0.0
230
1.0
50
360.0
0
TEXT
5
A6
330
1C
100
AcDbEntity
67
0
8
5 - выявленные окн
62
7
6
ByLayer
370
-1
48
1.0
60
0
100
AcDbText
1
66
10
1397861.0958472
20
359168.168697349
30
0.0
40
0.31111111111
41
1.0
50
0.0
51
0.0
7
Standard
11
1397861.0958472
21
359168.168697349
31
0.0
210
0.0
220
0.0
230
1.0
71
0
72
0
100
AcDbText
73
0
0
POINT
5
A7
330
1C
100
AcDbEntity
67
0
8
5 - выявленные окн
62
256
6
ByLayer
370
-1
48
1.0
60
0
100
AcDbPoint
10
1397869.58008368
20
359167.673248916
30
0.0
39
0.0
210
0.0
220
0.0
230
1.0
50
360.0
0
TEXT
5
A8
330
1C
100
AcDbEntity
67
0
8
5 - выявленные окн
62
7
6
ByLayer
370
-1
48
1.0
60
0
100
AcDbText
1
67
10
1397869.70921408
20
359167.947693268
30
0.0
40
0.31111111111
41
1.0
50
0.0
51
0.0
7
Standard
11
1397869.70921408
21
359167.947693268
31
0.0
210
0.0
220
0.0
230
1.0
71
0
72
0
100
AcDbText
73
0
0
POINT
5
A9
330
1C
100
AcDbEntity
67
0
8
5 - выявленные окн
62
256
6
ByLayer
370
-1
48
1.0
60
0
100
AcDbPoint
10
1397869.66804907
20
359171.316347544
30
0.0
39
0.0
210
0.0
220
0.0
230
1.0
50
360.0
0
TEXT
5
AA
330
1C
100
AcDbEntity
67
0
8
5 - выявленные окн
62
7
6
ByLayer
370
-1
48
1.0
60
0
100
AcDbText
1
68
10
1397869.79717947
20
359171.590791899
30
0.0
40
0.31111111111
41
1.0
50
0.0
51
0.0
7
Standard
11
1397869.79717947
21
359171.590791899
31
0.0
210
0.0
220
0.0
230
1.0
71
0
72
0
100
AcDbText
73
0
0
POINT
5
AB
330
1C
100
AcDbEntity
67
0
8
5 - выявленные окн
62
256
6
ByLayer
370
-1
48
1.0
60
0
100
AcDbPoint
10
1397882.723002
20
359170.926813682
30
0.0
39
0.0
210
0.0
220
0.0
230
1.0
50
360.0
0
TEXT
5
AC
330
1C
100
AcDbEntity
67
0
8
5 - выявленные окн
62
7
6
ByLayer
370
-1
48
1.0
60
0
100
AcDbText
1
69
10
1397882.8521324
20
359171.201258063
30
0.0
40
0.31111111111
41
1.0
50
0.0
51
0.0
7
Standard
11
1397882.8521324
21
359171.201258063
31
0.0
210
0.0
220
0.0
230
1.0
71
0
72
0
100
AcDbText
73
0
0
POINT
5
AD
330
1C
100
AcDbEntity
67
0
8
5 - выявленные окн
62
256
6
ByLayer
370
-1
48
1.0
60
0
100
AcDbPoint
10
1397882.88382623
20
359180.926433583
30
0.0
39
0.0
210
0.0
220
0.0
230
1.0
50
360.0
0
TEXT
5
AE
330
1C
100
AcDbEntity
67
0
8
5 - выявленные окн
62
7
6
ByLayer
370
-1
48
1.0
60
0
100
AcDbText
1
70
10
1397883.01295661
20
359181.200877962
30
0.0
40
0.31111111111
41
1.0
50
0.0
51
0.0
7
Standard
11
1397883.01295661
21
359181.200877962
31
0.0
210
0.0
220
0.0
230
1.0
71
0
72
0
100
AcDbText
73
0
0
POINT
5
AF
330
1C
100
AcDbEntity
67
0
8
5 - выявленные окн
62
256
6
ByLayer
370
-1
48
1.0
60
0
100
AcDbPoint
10
1397959.6360644
20
359176.044622686
30
0.0
39
0.0
210
0.0
220
0.0
230
1.0
50
360.0
0
TEXT
5
B0
330
1C
100
AcDbEntity
67
0
8
5 - выявленные окн
62
7
6
ByLayer
370
-1
48
1.0
60
0
100
AcDbText
1
71
10
1397959.76519478
20
359176.319067204
30
0.0
40
0.31111111111
41
1.0
50
0.0
51
0.0
7
Standard
11
1397959.76519478
21
359176.319067204
31
0.0
210
0.0
220
0.0
230
1.0
71
0
72
0
100
AcDbText
73
0
0
POINT
5
B1
330
1C
100
AcDbEntity
67
0
8
5 - выявленные окн
62
256
6
ByLayer
370
-1
48
1.0
60
0
100
AcDbPoint
10
1397959.22114874
20
359165.905895076
30
0.0
39
0.0
210
0.0
220
0.0
230
1.0
50
360.0
0
TEXT
5
B2
330
1C
100
AcDbEntity
67
0
8
5 - выявленные окн
62
7
6
ByLayer
370
-1
48
1.0
60
0
100
AcDbText
1
72
10
1397959.35027915
20
359166.180339596
30
0.0
40
0.31111111111
41
1.0
50
0.0
51
0.0
7
Standard
11
1397959.35027915
21
359166.180339596
31
0.0
210
0.0
220
0.0
230
1.0
71
0
72
0
100
AcDbText
73
0
0
POINT
5
B3
330
1C
100
AcDbEntity
67
0
8
5 - выявленные окн
62
256
6
ByLayer
370
-1
48
1.0
60
0
100
AcDbPoint
10
1397969.11094683
20
359165.417150817
30
0.0
39
0.0
210
0.0
220
0.0
230
1.0
50
360.0
0
TEXT
5
B4
330
1C
100
AcDbEntity
67
0
8
5 - выявленные окн
62
7
6
ByLayer
370
-1
48
1.0
60
0
100
AcDbText
1
73
10
1397969.24007723
20
359165.691595349
30
0.0
40
0.31111111111
41
1.0
50
0.0
51
0.0
7
Standard
11
1397969.24007723
21
359165.691595349
31
0.0
210
0.0
220
0.0
230
1.0
71
0
72
0
100
AcDbText
73
0
0
POINT
5
B5
330
1C
100
AcDbEntity
67
0
8
5 - выявленные окн
62
256
6
ByLayer
370
-1
48
1.0
60
0
100
AcDbPoint
10
1397968.87958134
20
359161.582710559
30
0.0
39
0.0
210
0.0
220
0.0
230
1.0
50
360.0
0
TEXT
5
B6
330
1C
100
AcDbEntity
67
0
8
5 - выявленные окн
62
7
6
ByLayer
370
-1
48
1.0
60
0
100
AcDbText
1
74
10
1397969.00871175
20
359161.857155094
30
0.0
40
0.31111111111
41
1.0
50
0.0
51
0.0
7
Standard
11
1397969.00871175
21
359161.857155094
31
0.0
210
0.0
220
0.0
230
1.0
71
0
72
0
100
AcDbText
73
0
0
POINT
5
B7
330
1C
100
AcDbEntity
67
0
8
5 - выявленные окн
62
256
6
ByLayer
370
-1
48
1.0
60
0
100
AcDbPoint
10
1397980.46183063
20
359160.959838766
30
0.0
39
0.0
210
0.0
220
0.0
230
1.0
50
360.0
0
TEXT
5
B8
330
1C
100
AcDbEntity
67
0
8
5 - выявленные окн
62
7
6
ByLayer
370
-1
48
1.0
60
0
100
AcDbText
1
75
10
1397980.59096105
20
359161.234283319
30
0.0
40
0.31111111111
41
1.0
50
0.0
51
0.0
7
Standard
11
1397980.59096105
21
359161.234283319
31
0.0
210
0.0
220
0.0
230
1.0
71
0
72
0
100
AcDbText
73
0
0
POINT
5
B9
330
1C
100
AcDbEntity
67
0
8
5 - выявленные окн
62
256
6
ByLayer
370
-1
48
1.0
60
0
100
AcDbPoint
10
1397980.76334924
20
359164.785350785
30
0.0
39
0.0
210
0.0
220
0.0
230
1.0
50
360.0
0
TEXT
5
BA
330
1C
100
AcDbEntity
67
0
8
5 - выявленные окн
62
7
6
ByLayer
370
-1
48
1.0
60
0
100
AcDbText
1
76
10
1397980.89247965
20
359165.059795343
30
0.0
40
0.31111111111
41
1.0
50
0.0
51
0.0
7
Standard
11
1397980.89247965
21
359165.059795343
31
0.0
210
0.0
220
0.0
230
1.0
71
0
72
0
100
AcDbText
73
0
0
POINT
5
BB
330
1C
100
AcDbEntity
67
0
8
5 - выявленные окн
62
256
6
ByLayer
370
-1
48
1.0
60
0
100
AcDbPoint
10
1397991.15042701
20
359163.859669853
30
0.0
39
0.0
210
0.0
220
0.0
230
1.0
50
360.0
0
TEXT
5
BC
330
1C
100
AcDbEntity
67
0
8
5 - выявленные окн
62
7
6
ByLayer
370
-1
48
1.0
60
0
100
AcDbText
1
77
10
1397991.27955741
20
359164.134114429
30
0.0
40
0.31111111111
41
1.0
50
0.0
51
0.0
7
Standard
11
1397991.27955741
21
359164.134114429
31
0.0
210
0.0
220
0.0
230
1.0
71
0
72
0
100
AcDbText
73
0
0
POINT
5
BD
330
1C
100
AcDbEntity
67
0
8
5 - выявленные окн
62
256
6
ByLayer
370
-1
48
1.0
60
0
100
AcDbPoint
10
1397991.5548368
20
359174.814574514
30
0.0
39
0.0
210
0.0
220
0.0
230
1.0
50
360.0
0
TEXT
5
BE
330
1C
100
AcDbEntity
67
0
8
5 - выявленные окн
62
7
6
ByLayer
370
-1
48
1.0
60
0
100
AcDbText
1
78
10
1397991.68396719
20
359175.089019091
30
0.0
40
0.31111111111
41
1.0
50
0.0
51
0.0
7
Standard
11
1397991.68396719
21
359175.089019091
31
0.0
210
0.0
220
0.0
230
1.0
71
0
72
0
100
AcDbText
73
0
0
POINT
5
BF
330
1C
100
AcDbEntity
67
0
8
5 - выявленные окн
62
256
6
ByLayer
370
-1
48
1.0
60
0
100
AcDbPoint
10
1398107.06651428
20
359226.62302888
30
0.0
39
0.0
210
0.0
220
0.0
230
1.0
50
360.0
0
TEXT
5
C0
330
1C
100
AcDbEntity
67
0
8
5 - выявленные окн
62
7
6
ByLayer
370
-1
48
1.0
60
0
100
AcDbText
1
79
10
1398107.19564457
20
359226.897473664
30
0.0
40
0.31111111111
41
1.0
50
0.0
51
0.0
7
Standard
11
1398107.19564457
21
359226.897473664
31
0.0
210
0.0
220
0.0
230
1.0
71
0
72
0
100
AcDbText
73
0
0
POINT
5
C1
330
1C
100
AcDbEntity
67
0
8
5 - выявленные окн
62
256
6
ByLayer
370
-1
48
1.0
60
0
100
AcDbPoint
10
1398106.31625178
20
359206.276098698
30
0.0
39
0.0
210
0.0
220
0.0
230
1.0
50
360.0
0
TEXT
5
C2
330
1C
100
AcDbEntity
67
0
8
5 - выявленные окн
62
7
6
ByLayer
370
-1
48
1.0
60
0
100
AcDbText
1
80
10
1398106.44538211
20
359206.550543485
30
0.0
40
0.31111111111
41
1.0
50
0.0
51
0.0
7
Standard
11
1398106.44538211
21
359206.550543485
31
0.0
210
0.0
220
0.0
230
1.0
71
0
72
0
100
AcDbText
73
0
0
POINT
5
C3
330
1C
100
AcDbEntity
67
0
8
5 - выявленные окн
62
256
6
ByLayer
370
-1
48
1.0
60
0
100
AcDbPoint
10
1398206.42333939
20
359201.221122672
30
0.0
39
0.0
210
0.0
220
0.0
230
1.0
50
360.0
0
TEXT
5
C4
330
1C
100
AcDbEntity
67
0
8
5 - выявленные окн
62
7
6
ByLayer
370
-1
48
1.0
60
0
100
AcDbText
1
81
10
1398206.55246972
20
359201.495567639
30
0.0
40
0.31111111111
41
1.0
50
0.0
51
0.0
7
Standard
11
1398206.55246972
21
359201.495567639
31
0.0
210
0.0
220
0.0
230
1.0
71
0
72
0
100
AcDbText
73
0
0
POINT
5
C5
330
1C
100
AcDbEntity
67
0
8
5 - выявленные окн
62
256
6
ByLayer
370
-1
48
1.0
60
0
100
AcDbPoint
10
1398207.45310572
20
359221.614285459
30
0.0
39
0.0
210
0.0
220
0.0
230
1.0
50
360.0
0
TEXT
5
C6
330
1C
100
AcDbEntity
67
0
8
5 - выявленные окн
62
7
6
ByLayer
370
-1
48
1.0
60
0
100
AcDbText
1
82
10
1398207.58223602
20
359221.888730427
30
0.0
40
0.31111111111
41
1.0
50
0.0
51
0.0
7
Standard
11
1398207.58223602
21
359221.888730427
31
0.0
210
0.0
220
0.0
230
1.0
71
0
72
0
100
AcDbText
73
0
0
POINT
5
C7
330
1C
100
AcDbEntity
67
0
8
5 - выявленные окн
62
256
6
ByLayer
370
-1
48
1.0
60
0
100
AcDbPoint
10
1397928.37868737
20
359236.342527433
30
0.0
39
0.0
210
0.0
220
0.0
230
1.0
50
360.0
0
TEXT
5
C8
330
1C
100
AcDbEntity
67
0
8
5 - выявленные окн
62
7
6
ByLayer
370
-1
48
1.0
60
0
100
AcDbText
1
83
10
1397928.50781765
20
359236.616971892
30
0.0
40
0.31111111111
41
1.0
50
0.0
51
0.0
7
Standard
11
1397928.50781765
21
359236.616971892
31
0.0
210
0.0
220
0.0
230
1.0
71
0
72
0
100
AcDbText
73
0
0
POINT
5
C9
330
1C
100
AcDbEntity
67
0
8
5 - выявленные окн
62
256
6
ByLayer
370
-1
48
1.0
60
0
100
AcDbPoint
10
1397927.25871247
20
359214.376195561
30
0.0
39
0.0
210
0.0
220
0.0
230
1.0
50
360.0
0
TEXT
5
CA
330
1C
100
AcDbEntity
67
0
8
5 - выявленные окн
62
7
6
ByLayer
370
-1
48
1.0
60
0
100
AcDbText
1
84
10
1397927.38784279
20
359214.650640018
30
0.0
40
0.31111111111
41
1.0
50
0.0
51
0.0
7
Standard
11
1397927.38784279
21
359214.650640018
31
0.0
210
0.0
220
0.0
230
1.0
71
0
72
0
100
AcDbText
73
0
0
POINT
5
CB
330
1C
100
AcDbEntity
67
0
8
5 - выявленные окн
62
256
6
ByLayer
370
-1
48
1.0
60
0
100
AcDbPoint
10
1398027.91335312
20
359210.367344299
30
0.0
39
0.0
210
0.0
220
0.0
230
1.0
50
360.0
0
TEXT
5
CC
330
1C
100
AcDbEntity
67
0
8
5 - выявленные окн
62
7
6
ByLayer
370
-1
48
1.0
60
0
100
AcDbText
1
85
10
1398028.04248344
20
359210.641788943
30
0.0
40
0.31111111111
41
1.0
50
0.0
51
0.0
7
Standard
11
1398028.04248344
21
359210.641788943
31
0.0
210
0.0
220
0.0
230
1.0
71
0
72
0
100
AcDbText
73
0
0
POINT
5
CD
330
1C
100
AcDbEntity
67
0
8
5 - выявленные окн
62
256
6
ByLayer
370
-1
48
1.0
60
0
100
AcDbPoint
10
1398028.78861133
20
359232.343428372
30
0.0
39
0.0
210
0.0
220
0.0
230
1.0
50
360.0
0
TEXT
5
CE
330
1C
100
AcDbEntity
67
0
8
5 - выявленные окн
62
7
6
ByLayer
370
-1
48
1.0
60
0
100
AcDbText
1
86
10
1398028.91774161
20
359232.617873015
30
0.0
40
0.31111111111
41
1.0
50
0.0
51
0.0
7
Standard
11
1398028.91774161
21
359232.617873015
31
0.0
210
0.0
220
0.0
230
1.0
71
0
72
0
100
AcDbText
73
0
0
POINT
5
CF
330
1C
100
AcDbEntity
67
0
8
5 - выявленные окн
62
256
6
ByLayer
370
-1
48
1.0
60
0
100
AcDbPoint
10
1397855.8083243
20
359239.165229675
30
0.0
39
0.0
210
0.0
220
0.0
230
1.0
50
360.0
0
TEXT
5
D0
330
1C
100
AcDbEntity
67
0
8
5 - выявленные окн
62
7
6
ByLayer
370
-1
48
1.0
60
0
100
AcDbText
1
87
10
1397855.93745458
20
359239.439674003
30
0.0
40
0.31111111111
41
1.0
50
0.0
51
0.0
7
Standard
11
1397855.93745458
21
359239.439674003
31
0.0
210
0.0
220
0.0
230
1.0
71
0
72
0
100
AcDbText
73
0
0
POINT
5
D1
330
1C
100
AcDbEntity
67
0
8
5 - выявленные окн
62
256
6
ByLayer
370
-1
48
1.0
60
0
100
AcDbPoint
10
1397855.82985403
20
359240.018970018
30
0.0
39
0.0
210
0.0
220
0.0
230
1.0
50
360.0
0
TEXT
5
D2
330
1C
100
AcDbEntity
67
0
8
5 - выявленные окн
62
7
6
ByLayer
370
-1
48
1.0
60
0
100
AcDbText
1
88
10
1397855.9589843
20
359240.293414345
30
0.0
40
0.31111111111
41
1.0
50
0.0
51
0.0
7
Standard
11
1397855.9589843
21
359240.293414345
31
0.0
210
0.0
220
0.0
230
1.0
71
0
72
0
100
AcDbText
73
0
0
POINT
5
D3
330
1C
100
AcDbEntity
67
0
8
5 - выявленные окн
62
256
6
ByLayer
370
-1
48
1.0
60
0
100
AcDbPoint
10
1397848.08274591
20
359240.504765688
30
0.0
39
0.0
210
0.0
220
0.0
230
1.0
50
360.0
0
TEXT
5
D4
330
1C
100
AcDbEntity
67
0
8
5 - выявленные окн
62
7
6
ByLayer
370
-1
48
1.0
60
0
100
AcDbText
1
89
10
1397848.21187618
20
359240.779210001
30
0.0
40
0.31111111111
41
1.0
50
0.0
51
0.0
7
Standard
11
1397848.21187618
21
359240.779210001
31
0.0
210
0.0
220
0.0
230
1.0
71
0
72
0
100
AcDbText
73
0
0
POINT
5
D5
330
1C
100
AcDbEntity
67
0
8
5 - выявленные окн
62
256
6
ByLayer
370
-1
48
1.0
60
0
100
AcDbPoint
10
1397847.10860634
20
359218.085097477
30
0.0
39
0.0
210
0.0
220
0.0
230
1.0
50
360.0
0
TEXT
5
D6
330
1C
100
AcDbEntity
67
0
8
5 - выявленные окн
62
7
6
ByLayer
370
-1
48
1.0
60
0
100
AcDbText
1
90
10
1397847.23773666
20
359218.359541791
30
0.0
40
0.31111111111
41
1.0
50
0.0
51
0.0
7
Standard
11
1397847.23773666
21
359218.359541791
31
0.0
210
0.0
220
0.0
230
1.0
71
0
72
0
100
AcDbText
73
0
0
POINT
5
D7
330
1C
100
AcDbEntity
67
0
8
5 - выявленные окн
62
256
6
ByLayer
370
-1
48
1.0
60
0
100
AcDbPoint
10
1397854.49099803
20
359217.870045472
30
0.0
39
0.0
210
0.0
220
0.0
230
1.0
50
360.0
0
TEXT
5
D8
330
1C
100
AcDbEntity
67
0
8
5 - выявленные окн
62
7
6
ByLayer
370
-1
48
1.0
60
0
100
AcDbText
1
91
10
1397854.62012835
20
359218.144489797
30
0.0
40
0.31111111111
41
1.0
50
0.0
51
0.0
7
Standard
11
1397854.62012835
21
359218.144489797
31
0.0
210
0.0
220
0.0
230
1.0
71
0
72
0
100
AcDbText
73
0
0
POINT
5
D9
330
1C
100
AcDbEntity
67
0
8
5 - выявленные окн
62
256
6
ByLayer
370
-1
48
1.0
60
0
100
AcDbPoint
10
1397854.50973122
20
359218.491851558
30
0.0
39
0.0
210
0.0
220
0.0
230
1.0
50
360.0
0
TEXT
5
DA
330
1C
100
AcDbEntity
67
0
8
5 - выявленные окн
62
7
6
ByLayer
370
-1
48
1.0
60
0
100
AcDbText
1
92
10
1397854.63886152
20
359218.766295884
30
0.0
40
0.31111111111
41
1.0
50
0.0
51
0.0
7
Standard
11
1397854.63886152
21
359218.766295884
31
0.0
210
0.0
220
0.0
230
1.0
71
0
72
0
100
AcDbText
73
0
0
POINT
5
DB
330
1C
100
AcDbEntity
67
0
8
5 - выявленные окн
62
256
6
ByLayer
370
-1
48
1.0
60
0
100
AcDbPoint
10
1397879.11673592
20
359217.401030871
30
0.0
39
0.0
210
0.0
220
0.0
230
1.0
50
360.0
0
TEXT
5
DC
330
1C
100
AcDbEntity
67
0
8
5 - выявленные окн
62
7
6
ByLayer
370
-1
48
1.0
60
0
100
AcDbText
1
93
10
1397879.24586623
20
359217.675475243
30
0.0
40
0.31111111111
41
1.0
50
0.0
51
0.0
7
Standard
11
1397879.24586623
21
359217.675475243
31
0.0
210
0.0
220
0.0
230
1.0
71
0
72
0
100
AcDbText
73
0
0
POINT
5
DD
330
1C
100
AcDbEntity
67
0
8
5 - выявленные окн
62
256
6
ByLayer
370
-1
48
1.0
60
0
100
AcDbPoint
10
1397887.91389856
20
359216.870752774
30
0.0
39
0.0
210
0.0
220
0.0
230
1.0
50
360.0
0
TEXT
5
DE
330
1C
100
AcDbEntity
67
0
8
5 - выявленные окн
62
7
6
ByLayer
370
-1
48
1.0
60
0
100
AcDbText
1
94
10
1397888.04302888
20
359217.145197159
30
0.0
40
0.31111111111
41
1.0
50
0.0
51
0.0
7
Standard
11
1397888.04302888
21
359217.145197159
31
0.0
210
0.0
220
0.0
230
1.0
71
0
72
0
100
AcDbText
73
0
0
POINT
5
DF
330
1C
100
AcDbEntity
67
0
8
5 - выявленные окн
62
256
6
ByLayer
370
-1
48
1.0
60
0
100
AcDbPoint
10
1397887.8827686
20
359215.906638064
30
0.0
39
0.0
210
0.0
220
0.0
230
1.0
50
360.0
0
TEXT
5
E0
330
1C
100
AcDbEntity
67
0
8
5 - выявленные окн
62
7
6
ByLayer
370
-1
48
1.0
60
0
100
AcDbText
1
95
10
1397888.01189892
20
359216.18108245
30
0.0
40
0.31111111111
41
1.0
50
0.0
51
0.0
7
Standard
11
1397888.01189892
21
359216.18108245
31
0.0
210
0.0
220
0.0
230
1.0
71
0
72
0
100
AcDbText
73
0
0
POINT
5
E1
330
1C
100
AcDbEntity
67
0
8
5 - выявленные окн
62
256
6
ByLayer
370
-1
48
1.0
60
0
100
AcDbPoint
10
1397895.49041262
20
359215.56157501
30
0.0
39
0.0
210
0.0
220
0.0
230
1.0
50
360.0
0
TEXT
5
E2
330
1C
100
AcDbEntity
67
0
8
5 - выявленные окн
62
7
6
ByLayer
370
-1
48
1.0
60
0
100
AcDbText
1
96
10
1397895.61954294
20
359215.836019409
30
0.0
40
0.31111111111
41
1.0
50
0.0
51
0.0
7
Standard
11
1397895.61954294
21
359215.836019409
31
0.0
210
0.0
220
0.0
230
1.0
71
0
72
0
100
AcDbText
73
0
0
POINT
5
E3
330
1C
100
AcDbEntity
67
0
8
5 - выявленные окн
62
256
6
ByLayer
370
-1
48
1.0
60
0
100
AcDbPoint
10
1397896.64313308
20
359238.21989787
30
0.0
39
0.0
210
0.0
220
0.0
230
1.0
50
360.0
0
TEXT
5
E4
330
1C
100
AcDbEntity
67
0
8
5 - выявленные окн
62
7
6
ByLayer
370
-1
48
1.0
60
0
100
AcDbText
1
97
10
1397896.77226336
20
359238.49434227
30
0.0
40
0.31111111111
41
1.0
50
0.0
51
0.0
7
Standard
11
1397896.77226336
21
359238.49434227
31
0.0
210
0.0
220
0.0
230
1.0
71
0
72
0
100
AcDbText
73
0
0
POINT
5
E5
330
1C
100
AcDbEntity
67
0
8
5 - выявленные окн
62
256
6
ByLayer
370
-1
48
1.0
60
0
100
AcDbPoint
10
1397889.00786845
20
359238.447269505
30
0.0
39
0.0
210
0.0
220
0.0
230
1.0
50
360.0
0
TEXT
5
E6
330
1C
100
AcDbEntity
67
0
8
5 - выявленные окн
62
7
6
ByLayer
370
-1
48
1.0
60
0
100
AcDbText
1
98
10
1397889.13699872
20
359238.721713892
30
0.0
40
0.31111111111
41
1.0
50
0.0
51
0.0
7
Standard
11
1397889.13699872
21
359238.721713892
31
0.0
210
0.0
220
0.0
230
1.0
71
0
72
0
100
AcDbText
73
0
0
POINT
5
E7
330
1C
100
AcDbEntity
67
0
8
5 - выявленные окн
62
256
6
ByLayer
370
-1
48
1.0
60
0
100
AcDbPoint
10
1397888.96997778
20
359237.575784431
30
0.0
39
0.0
210
0.0
220
0.0
230
1.0
50
360.0
0
TEXT
5
E8
330
1C
100
AcDbEntity
67
0
8
5 - выявленные окн
62
7
6
ByLayer
370
-1
48
1.0
60
0
100
AcDbText
1
99
10
1397889.09910805
20
359237.850228816
30
0.0
40
0.31111111111
41
1.0
50
0.0
51
0.0
7
Standard
11
1397889.09910805
21
359237.850228816
31
0.0
210
0.0
220
0.0
230
1.0
71
0
72
0
100
AcDbText
73
0
0
POINT
5
E9
330
1C
100
AcDbEntity
67
0
8
5 - выявленные окн
62
256
6
ByLayer
370
-1
48
1.0
60
0
100
AcDbPoint
10
1397883.81120703
20
359237.777593755
30
0.0
39
0.0
210
0.0
220
0.0
230
1.0
50
360.0
0
TEXT
5
EA
330
1C
100
AcDbEntity
67
0
8
5 - выявленные окн
62
7
6
ByLayer
370
-1
48
1.0
60
0
100
AcDbText
1
100
10
1397883.94033731
20
359238.052038135
30
0.0
40
0.31111111111
41
1.0
50
0.0
51
0.0
7
Standard
11
1397883.94033731
21
359238.052038135
31
0.0
210
0.0
220
0.0
230
1.0
71
0
72
0
100
AcDbText
73
0
0
POINT
5
EB
330
1C
100
AcDbEntity
67
0
8
5 - выявленные окн
62
256
6
ByLayer
370
-1
48
1.0
60
0
100
AcDbPoint
10
1398161.68099777
20
359287.675851505
30
0.0
39
0.0
210
0.0
220
0.0
230
1.0
50
360.0
0
TEXT
5
EC
330
1C
100
AcDbEntity
67
0
8
5 - выявленные окн
62
7
6
ByLayer
370
-1
48
1.0
60
0
100
AcDbText
1
101
10
1398161.81012795
20
359287.950296391
30
0.0
40
0.31111111111
41
1.0
50
0.0
51
0.0
7
Standard
11
1398161.81012795
21
359287.950296391
31
0.0
210
0.0
220
0.0
230
1.0
71
0
72
0
100
AcDbText
73
0
0
POINT
5
ED
330
1C
100
AcDbEntity
67
0
8
5 - выявленные окн
62
256
6
ByLayer
370
-1
48
1.0
60
0
100
AcDbPoint
10
1398161.03359065
20
359265.249243301
30
0.0
39
0.0
210
0.0
220
0.0
230
1.0
50
360.0
0
TEXT
5
EE
330
1C
100
AcDbEntity
67
0
8
5 - выявленные окн
62
7
6
ByLayer
370
-1
48
1.0
60
0
100
AcDbText
1
102
10
1398161.16272087
20
359265.523688184
30
0.0
40
0.31111111111
41
1.0
50
0.0
51
0.0
7
Standard
11
1398161.16272087
21
359265.523688184
31
0.0
210
0.0
220
0.0
230
1.0
71
0
72
0
100
AcDbText
73
0
0
POINT
5
EF
330
1C
100
AcDbEntity
67
0
8
5 - выявленные окн
62
256
6
ByLayer
370
-1
48
1.0
60
0
100
AcDbPoint
10
1398210.27373163
20
359263.618321415
30
0.0
39
0.0
210
0.0
220
0.0
230
1.0
50
360.0
0
TEXT
5
F0
330
1C
100
AcDbEntity
67
0
8
5 - выявленные окн
62
7
6
ByLayer
370
-1
48
1.0
60
0
100
AcDbText
1
103
10
1398210.40286185
20
359263.892766389
30
0.0
40
0.31111111111
41
1.0
50
0.0
51
0.0
7
Standard
11
1398210.40286185
21
359263.892766389
31
0.0
210
0.0
220
0.0
230
1.0
71
0
72
0
100
AcDbText
73
0
0
POINT
5
F1
330
1C
100
AcDbEntity
67
0
8
5 - выявленные окн
62
256
6
ByLayer
370
-1
48
1.0
60
0
100
AcDbPoint
10
1398211.01643611
20
359286.041776046
30
0.0
39
0.0
210
0.0
220
0.0
230
1.0
50
360.0
0
TEXT
5
F2
330
1C
100
AcDbEntity
67
0
8
5 - выявленные окн
62
7
6
ByLayer
370
-1
48
1.0
60
0
100
AcDbText
1
104
10
1398211.14556629
20
359286.31622102
30
0.0
40
0.31111111111
41
1.0
50
0.0
51
0.0
7
Standard
11
1398211.14556629
21
359286.31622102
31
0.0
210
0.0
220
0.0
230
1.0
71
0
72
0
100
AcDbText
73
0
0
POINT
5
F3
330
1C
100
AcDbEntity
67
0
8
5 - выявленные окн
62
256
6
ByLayer
370
-1
48
1.0
60
0
100
AcDbPoint
10
1398086.63603754
20
359291.611959594
30
0.0
39
0.0
210
0.0
220
0.0
230
1.0
50
360.0
0
TEXT
5
F4
330
1C
100
AcDbEntity
67
0
8
5 - выявленные окн
62
7
6
ByLayer
370
-1
48
1.0
60
0
100
AcDbText
1
105
10
1398086.76516772
20
359291.886404341
30
0.0
40
0.31111111111
41
1.0
50
0.0
51
0.0
7
Standard
11
1398086.76516772
21
359291.886404341
31
0.0
210
0.0
220
0.0
230
1.0
71
0
72
0
100
AcDbText
73
0
0
POINT
5
F5
330
1C
100
AcDbEntity
67
0
8
5 - выявленные окн
62
256
6
ByLayer
370
-1
48
1.0
60
0
100
AcDbPoint
10
1398085.6262935
20
359268.956157148
30
0.0
39
0.0
210
0.0
220
0.0
230
1.0
50
360.0
0
TEXT
5
F6
330
1C
100
AcDbEntity
67
0
8
5 - выявленные окн
62
7
6
ByLayer
370
-1
48
1.0
60
0
100
AcDbText
1
106
10
1398085.75542372
20
359269.230601889
30
0.0
40
0.31111111111
41
1.0
50
0.0
51
0.0
7
Standard
11
1398085.75542372
21
359269.230601889
31
0.0
210
0.0
220
0.0
230
1.0
71
0
72
0
100
AcDbText
73
0
0
POINT
5
F7
330
1C
100
AcDbEntity
67
0
8
5 - выявленные окн
62
256
6
ByLayer
370
-1
48
1.0
60
0
100
AcDbPoint
10
1398134.16789814
20
359266.719212033
30
0.0
39
0.0
210
0.0
220
0.0
230
1.0
50
360.0
0
TEXT
5
F8
330
1C
100
AcDbEntity
67
0
8
5 - выявленные окн
62
7
6
ByLayer
370
-1
48
1.0
60
0
100
AcDbText
1
107
10
1398134.29702836
20
359266.993656869
30
0.0
40
0.31111111111
41
1.0
50
0.0
51
0.0
7
Standard
11
1398134.29702836
21
359266.993656869
31
0.0
210
0.0
220
0.0
230
1.0
71
0
72
0
100
AcDbText
73
0
0
POINT
5
F9
330
1C
100
AcDbEntity
67
0
8
5 - выявленные окн
62
256
6
ByLayer
370
-1
48
1.0
60
0
100
AcDbPoint
10
1398134.43627453
20
359289.321986002
30
0.0
39
0.0
210
0.0
220
0.0
230
1.0
50
360.0
0
TEXT
5
FA
330
1C
100
AcDbEntity
67
0
8
5 - выявленные окн
62
7
6
ByLayer
370
-1
48
1.0
60
0
100
AcDbText
1
108
10
1398134.56540471
20
359289.596430835
30
0.0
40
0.31111111111
41
1.0
50
0.0
51
0.0
7
Standard
11
1398134.56540471
21
359289.596430835
31
0.0
210
0.0
220
0.0
230
1.0
71
0
72
0
100
AcDbText
73
0
0
POINT
5
FB
330
1C
100
AcDbEntity
67
0
8
5 - выявленные окн
62
256
6
ByLayer
370
-1
48
1.0
60
0
100
AcDbPoint
10
1398008.86577853
20
359295.444167177
30
0.0
39
0.0
210
0.0
220
0.0
230
1.0
50
360.0
0
TEXT
5
FC
330
1C
100
AcDbEntity
67
0
8
5 - выявленные окн
62
7
6
ByLayer
370
-1
48
1.0
60
0
100
AcDbText
1
109
10
1398008.9949087
20
359295.718611782
30
0.0
40
0.31111111111
41
1.0
50
0.0
51
0.0
7
Standard
11
1398008.9949087
21
359295.718611782
31
0.0
210
0.0
220
0.0
230
1.0
71
0
72
0
100
AcDbText
73
0
0
POINT
5
FD
330
1C
100
AcDbEntity
67
0
8
5 - выявленные окн
62
256
6
ByLayer
370
-1
48
1.0
60
0
100
AcDbPoint
10
1398007.90783158
20
359272.249035324
30
0.0
39
0.0
210
0.0
220
0.0
230
1.0
50
360.0
0
TEXT
5
FE
330
1C
100
AcDbEntity
67
0
8
5 - выявленные окн
62
7
6
ByLayer
370
-1
48
1.0
60
0
100
AcDbText
1
110
10
1398008.03696178
20
359272.523479927
30
0.0
40
0.31111111111
41
1.0
50
0.0
51
0.0
7
Standard
11
1398008.03696178
21
359272.523479927
31
0.0
210
0.0
220
0.0
230
1.0
71
0
72
0
100
AcDbText
73
0
0
POINT
5
FF
330
1C
100
AcDbEntity
67
0
8
5 - выявленные окн
62
256
6
ByLayer
370
-1
48
1.0
60
0
100
AcDbPoint
10
1398055.6269382
20
359269.876764518
30
0.0
39
0.0
210
0.0
220
0.0
230
1.0
50
360.0
0
TEXT
5
100
330
1C
100
AcDbEntity
67
0
8
5 - выявленные окн
62
7
6
ByLayer
370
-1
48
1.0
60
0
100
AcDbText
1
111
10
1398055.75606841
20
359270.151209209
30
0.0
40
0.31111111111
41
1.0
50
0.0
51
0.0
7
Standard
11
1398055.75606841
21
359270.151209209
31
0.0
210
0.0
220
0.0
230
1.0
71
0
72
0
100
AcDbText
73
0
0
POINT
5
101
330
1C
100
AcDbEntity
67
0
8
5 - выявленные окн
62
256
6
ByLayer
370
-1
48
1.0
60
0
100
AcDbPoint
10
1398056.6172389
20
359292.994688495
30
0.0
39
0.0
210
0.0
220
0.0
230
1.0
50
360.0
0
TEXT
5
102
330
1C
100
AcDbEntity
67
0
8
5 - выявленные окн
62
7
6
ByLayer
370
-1
48
1.0
60
0
100
AcDbText
1
112
10
1398056.74636907
20
359293.269133186
30
0.0
40
0.31111111111
41
1.0
50
0.0
51
0.0
7
Standard
11
1398056.74636907
21
359293.269133186
31
0.0
210
0.0
220
0.0
230
1.0
71
0
72
0
100
AcDbText
73
0
0
POINT
5
103
330
1C
100
AcDbEntity
67
0
8
5 - выявленные окн
62
256
6
ByLayer
370
-1
48
1.0
60
0
100
AcDbPoint
10
1397932.1294567
20
359299.467754503
30
0.0
39
0.0
210
0.0
220
0.0
230
1.0
50
360.0
0
TEXT
5
104
330
1C
100
AcDbEntity
67
0
8
5 - выявленные окн
62
7
6
ByLayer
370
-1
48
1.0
60
0
100
AcDbText
1
113
10
1397932.25858687
20
359299.742198968
30
0.0
40
0.31111111111
41
1.0
50
0.0
51
0.0
7
Standard
11
1397932.25858687
21
359299.742198968
31
0.0
210
0.0
220
0.0
230
1.0
71
0
72
0
100
AcDbText
73
0
0
POINT
5
105
330
1C
100
AcDbEntity
67
0
8
5 - выявленные окн
62
256
6
ByLayer
370
-1
48
1.0
60
0
100
AcDbPoint
10
1397930.86312238
20
359277.138391786
30
0.0
39
0.0
210
0.0
220
0.0
230
1.0
50
360.0
0
TEXT
5
106
330
1C
100
AcDbEntity
67
0
8
5 - выявленные окн
62
7
6
ByLayer
370
-1
48
1.0
60
0
100
AcDbText
1
114
10
1397930.99225258
20
359277.412836246
30
0.0
40
0.31111111111
41
1.0
50
0.0
51
0.0
7
Standard
11
1397930.99225258
21
359277.412836246
31
0.0
210
0.0
220
0.0
230
1.0
71
0
72
0
100
AcDbText
73
0
0
POINT
5
107
330
1C
100
AcDbEntity
67
0
8
5 - выявленные окн
62
256
6
ByLayer
370
-1
48
1.0
60
0
100
AcDbPoint
10
1397979.11728893
20
359274.975948411
30
0.0
39
0.0
210
0.0
220
0.0
230
1.0
50
360.0
0
TEXT
5
108
330
1C
100
AcDbEntity
67
0
8
5 - выявленные окн
62
7
6
ByLayer
370
-1
48
1.0
60
0
100
AcDbText
1
115
10
1397979.24641913
20
359275.250392961
30
0.0
40
0.31111111111
41
1.0
50
0.0
51
0.0
7
Standard
11
1397979.24641913
21
359275.250392961
31
0.0
210
0.0
220
0.0
230
1.0
71
0
72
0
100
AcDbText
73
0
0
POINT
5
109
330
1C
100
AcDbEntity
67
0
8
5 - выявленные окн
62
256
6
ByLayer
370
-1
48
1.0
60
0
100
AcDbPoint
10
1397980.20580878
20
359297.102646526
30
0.0
39
0.0
210
0.0
220
0.0
230
1.0
50
360.0
0
TEXT
5
10A
330
1C
100
AcDbEntity
67
0
8
5 - выявленные окн
62
7
6
ByLayer
370
-1
48
1.0
60
0
100
AcDbText
1
116
10
1397980.33493894
20
359297.377091079
30
0.0
40
0.31111111111
41
1.0
50
0.0
51
0.0
7
Standard
11
1397980.33493894
21
359297.377091079
31
0.0
210
0.0
220
0.0
230
1.0
71
0
72
0
100
AcDbText
73
0
0
POINT
5
10B
330
1C
100
AcDbEntity
67
0
8
5 - выявленные окн
62
256
6
ByLayer
370
-1
48
1.0
60
0
100
AcDbPoint
10
1397856.71454612
20
359307.049030176
30
0.0
39
0.0
210
0.0
220
0.0
230
1.0
50
360.0
0
TEXT
5
10C
330
1C
100
AcDbEntity
67
0
8
5 - выявленные окн
62
7
6
ByLayer
370
-1
48
1.0
60
0
100
AcDbText
1
117
10
1397856.84367627
20
359307.323474505
30
0.0
40
0.31111111111
41
1.0
50
0.0
51
0.0
7
Standard
11
1397856.84367627
21
359307.323474505
31
0.0
210
0.0
220
0.0
230
1.0
71
0
72
0
100
AcDbText
73
0
0
POINT
5
10D
330
1C
100
AcDbEntity
67
0
8
5 - выявленные окн
62
256
6
ByLayer
370
-1
48
1.0
60
0
100
AcDbPoint
10
1397855.72293476
20
359284.342970761
30
0.0
39
0.0
210
0.0
220
0.0
230
1.0
50
360.0
0
TEXT
5
10E
330
1C
100
AcDbEntity
67
0
8
5 - выявленные окн
62
7
6
ByLayer
370
-1
48
1.0
60
0
100
AcDbText
1
118
10
1397855.85206495
20
359284.617415087
30
0.0
40
0.31111111111
41
1.0
50
0.0
51
0.0
7
Standard
11
1397855.85206495
21
359284.617415087
31
0.0
210
0.0
220
0.0
230
1.0
71
0
72
0
100
AcDbText
73
0
0
POINT
5
10F
330
1C
100
AcDbEntity
67
0
8
5 - выявленные окн
62
256
6
ByLayer
370
-1
48
1.0
60
0
100
AcDbPoint
10
1397905.47313821
20
359282.298856298
30
0.0
39
0.0
210
0.0
220
0.0
230
1.0
50
360.0
0
TEXT
5
110
330
1C
100
AcDbEntity
67
0
8
5 - выявленные окн
62
7
6
ByLayer
370
-1
48
1.0
60
0
100
AcDbText
1
119
10
1397905.60226841
20
359282.573300716
30
0.0
40
0.31111111111
41
1.0
50
0.0
51
0.0
7
Standard
11
1397905.60226841
21
359282.573300716
31
0.0
210
0.0
220
0.0
230
1.0
71
0
72
0
100
AcDbText
73
0
0
POINT
5
111
330
1C
100
AcDbEntity
67
0
8
5 - выявленные окн
62
256
6
ByLayer
370
-1
48
1.0
60
0
100
AcDbPoint
10
1397906.44593322
20
359305.351935603
30
0.0
39
0.0
210
0.0
220
0.0
230
1.0
50
360.0
0
TEXT
5
112
330
1C
100
AcDbEntity
67
0
8
5 - выявленные окн
62
7
6
ByLayer
370
-1
48
1.0
60
0
100
AcDbText
1
120
10
1397906.57506337
20
359305.626380022
30
0.0
40
0.31111111111
41
1.0
50
0.0
51
0.0
7
Standard
11
1397906.57506337
21
359305.626380022
31
0.0
210
0.0
220
0.0
230
1.0
71
0
72
0
100
AcDbText
73
0
0
LWPOLYLINE
5
113
330
1C
100
AcDbEntity
67
0
8
5 - выявленные окн
62
7
6
ByLayer
370
20
48
1.0
60
0
100
AcDbPolyline
90
4
70
1
38
0.0
39
0.0
10
1398264.10299782
20
359311.582006709
40
0.0
41
0.0
42
0.0
10
1398268.28671735
20
359299.643234475
40
0.0
41
0.0
42
0.0
10
1398260.28671014
20
359299.520757331
40
0.0
41
0.0
42
0.0
10
1398264.10299782
20
359311.582006709
40
0.0
41
0.0
42
0.0
210
0.0
220
0.0
230
1.0
0
TEXT
5
114
330
1C
100
AcDbEntity
67
0
8
5 - выявленные окн
62
7
6
ByLayer
370
-1
48
1.0
60
0
100
AcDbText
1
48,00
10
1398263.69795652
20
359303.44440245
30
0.0
40
0.31111111111
41
1.0
50
0.0
51
0.0
7
Standard
11
1398263.69795652
21
359303.44440245
31
0.0
210
0.0
220
0.0
230
1.0
71
0
72
0
100
AcDbText
73
0
0
LWPOLYLINE
5
115
330
1C
100
AcDbEntity
67
0
8
5 - выявленные окн
62
7
6
ByLayer
370
20
48
1.0
60
0
100
AcDbPolyline
90
4
70
1
38
0.0
39
0.0
10
1398264.10299782
20
359311.582006709
40
0.0
41
0.0
42
0.0
10
1398268.28671735
20
359299.643234475
40
0.0
41
0.0
42
0.0
10
1398260.28671014
20
359299.520757331
40
0.0
41
0.0
42
0.0
10
1398264.10299782
20
359311.582006709
40
0.0
41
0.0
42
0.0
210
0.0
220
0.0
230
1.0
0
TEXT
5
116
330
1C
100
AcDbEntity
67
0
8
5 - выявленные окн
62
7
6
ByLayer
370
-1
48
1.0
60
0
100
AcDbText
1
48,00
10
1398263.69795652
20
359303.44440245
30
0.0
40
0.31111111111
41
1.0
50
0.0
51
0.0
7
Standard
11
1398263.69795652
21
359303.44440245
31
0.0
210
0.0
220
0.0
230
1.0
71
0
72
0
100
AcDbText
73
0
0
LWPOLYLINE
5
117
330
1C
100
AcDbEntity
67
0
8
5 - выявленные окн
62
7
6
ByLayer
370
20
48
1.0
60
0
100
AcDbPolyline
90
20
70
1
38
0.0
39
0.0
10
1395752.19281843
20
359637.614990437
40
0.0
41
0.0
42
0.0
10
1395771.06863874
20
359633.305575852
40
0.0
41
0.0
42
0.0
10
1395771.90590519
20
359636.97291647
40
0.0
41
0.0
42
0.0
10
1395779.18496855
20
359635.311081324
40
0.0
41
0.0
42
0.0
10
1395778.2251232
20
359631.106828606
40
0.0
41
0.0
42
0.0
10
1395791.02683881
20
359628.376224048
40
0.0
41
0.0
42
0.0
10
1395789.22156445
20
359620.566155848
40
0.0
41
0.0
42
0.0
10
1395791.35988531
20
359620.034454706
40
0.0
41
0.0
42
0.0
10
1395790.4847689
20
359616.516532939
40
0.0
41
0.0
42
0.0
10
1395788.43593582
20
359616.896208478
40
0.0
41
0.0
42
0.0
10
1395786.49488783
20
359609.157827204
40
0.0
41
0.0
42
0.0
10
1395786.9530167
20
359608.034465329
40
0.0
41
0.0
42
0.0
10
1395786.26369842
20
359605.475775635
40
0.0
41
0.0
42
0.0
10
1395784.06474001
20
359603.851918643
40
0.0
41
0.0
42
0.0
10
1395780.13472696
20
359604.759810555
40
0.0
41
0.0
42
0.0
10
1395779.55317787
20
359605.919051141
40
0.0
41
0.0
42
0.0
10
1395771.63434445
20
359607.598066672
40
0.0
41
0.0
42
0.0
10
1395774.70544779
20
359620.343761303
40
0.0
41
0.0
42
0.0
10
1395749.57537215
20
359626.083447172
40
0.0
41
0.0
42
0.0
10
1395752.19281843
20
359637.614990437
40
0.0
41
0.0
42
0.0
210
0.0
220
0.0
230
1.0
0
TEXT
5
118
330
1C
100
AcDbEntity
67
0
8
5 - выявленные окн
62
7
6
ByLayer
370
-1
48
1.0
60
0
100
AcDbText
1
692,67
10
1395772.6886518
20
359623.230261592
30
0.0
40
0.31111111111
41
1.0
50
0.0
51
0.0
7
Standard
11
1395772.6886518
21
359623.230261592
31
0.0
210
0.0
220
0.0
230
1.0
71
0
72
0
100
AcDbText
73
0
0
LWPOLYLINE
5
119
330
1C
100
AcDbEntity
67
0
8
5 - выявленные окн
62
7
6
ByLayer
370
20
48
1.0
60
0
100
AcDbPolyline
90
8
70
1
38
0.0
39
0.0
10
1391718.28796013
20
356012.766674308
40
0.0
41
0.0
42
0.0
10
1391720.28649422
20
356015.268488747
40
0.0
41
0.0
42
0.0
10
1391722.97041822
20
356017.076703823
40
0.0
41
0.0
42
0.0
10
1391724.26096228
20
356016.389663608
40
0.0
41
0.0
42
0.0
10
1391725.23065737
20
356014.67092841
40
0.0
41
0.0
42
0.0
10
1391720.48166839
20
356010.460786187
40
0.0
41
0.0
42
0.0
10
1391718.67369522
20
356011.428672883
40
0.0
41
0.0
42
0.0
10
1391718.28796013
20
356012.766674308
40
0.0
41
0.0
42
0.0
210
0.0
220
0.0
230
1.0
0
TEXT
5
11A
330
1C
100
AcDbEntity
67
0
8
5 - выявленные окн
62
7
6
ByLayer
370
-1
48
1.0
60
0
100
AcDbText
1
23,94
10
1391721.11484502
20
356013.6826265
30
0.0
40
0.31111111111
41
1.0
50
0.0
51
0.0
7
Standard
11
1391721.11484502
21
356013.6826265
31
0.0
210
0.0
220
0.0
230
1.0
71
0
72
0
100
AcDbText
73
0
0
LWPOLYLINE
5
11B
330
1C
100
AcDbEntity
67
0
8
5 - выявленные окн
62
7
6
ByLayer
370
20
48
1.0
60
0
100
AcDbPolyline
90
14
70
1
38
0.0
39
0.0
10
1391566.34534383
20
355638.628859398
40
0.0
41
0.0
42
0.0
10
1391564.01586345
20
355637.96217214
40
0.0
41
0.0
42
0.0
10
1391563.78969508
20
355638.502589389
40
0.0
41
0.0
42
0.0
10
1391570.17851669
20
355642.310420566
40
0.0
41
0.0
42
0.0
10
1391571.21085135
20
355642.011727225
40
0.0
41
0.0
42
0.0
10
1391573.40688195
20
355638.339834151
40
0.0
41
0.0
42
0.0
10
1391575.77551402
20
355639.287515232
40
0.0
41
0.0
42
0.0
10
1391578.19520905
20
355634.85927064
40
0.0
41
0.0
42
0.0
10
1391578.14771637
20
355634.251786613
40
0.0
41
0.0
42
0.0
10
1391575.59800034
20
355632.627110102
40
0.0
41
0.0
42
0.0
10
1391572.74256899
20
355632.453973781
40
0.0
41
0.0
42
0.0
10
1391571.01161142
20
355635.534141422
40
0.0
41
0.0
42
0.0
10
1391568.1452122
20
355635.304614386
40
0.0
41
0.0
42
0.0
10
1391566.34534383
20
355638.628859398
40
0.0
41
0.0
42
0.0
210
0.0
220
0.0
230
1.0
0
TEXT
5
11C
330
1C
100
AcDbEntity
67
0
8
5 - выявленные окн
62
7
6
ByLayer
370
-1
48
1.0
60
0
100
AcDbText
1
66,95
10
1391571.34598819
20
355637.054778011
30
0.0
40
0.31111111111
41
1.0
50
0.0
51
0.0
7
Standard
11
1391571.34598819
21
355637.054778011
31
0.0
210
0.0
220
0.0
230
1.0
71
0
72
0
100
AcDbText
73
0
0
LWPOLYLINE
5
11D
330
1C
100
AcDbEntity
67
0
8
5 - выявленные окн
62
7
6
ByLayer
370
20
48
1.0
60
0
100
AcDbPolyline
90
9
70
1
38
0.0
39
0.0
10
1391657.30476123
20
354928.122225555
40
0.0
41
0.0
42
0.0
10
1391658.45095991
20
354928.98295139
40
0.0
41
0.0
42
0.0
10
1391659.6583739
20
354928.853174535
40
0.0
41
0.0
42
0.0
10
1391660.42422303
20
354927.882688987
40
0.0
41
0.0
42
0.0
10
1391660.34198266
20
354926.602732251
40
0.0
41
0.0
42
0.0
10
1391659.21436612
20
354925.742290696
40
0.0
41
0.0
42
0.0
10
1391657.97935484
20
354925.862408003
40
0.0
41
0.0
42
0.0
10
1391657.21182014
20
354926.925466674
40
0.0
41
0.0
42
0.0
10
1391657.30476123
20
354928.122225555
40
0.0
41
0.0
42
0.0
210
0.0
220
0.0
230
1.0
0
TEXT
5
11E
330
1C
100
AcDbEntity
67
0
8
5 - выявленные окн
62
7
6
ByLayer
370
-1
48
1.0
60
0
100
AcDbText
1
8,05
10
1391658.42637113
20
354927.226045939
30
0.0
40
0.31111111111
41
1.0
50
0.0
51
0.0
7
Standard
11
1391658.42637113
21
354927.226045939
31
0.0
210
0.0
220
0.0
230
1.0
71
0
72
0
100
AcDbText
73
0
0
LWPOLYLINE
5
11F
330
1C
100
AcDbEntity
67
0
8
5 - выявленные окн
62
7
6
ByLayer
370
20
48
1.0
60
0
100
AcDbPolyline
90
5
70
1
38
0.0
39
0.0
10
1392279.3617895
20
356570.226510322
40
0.0
41
0.0
42
0.0
10
1392295.29415051
20
356562.022144037
40
0.0
41
0.0
42
0.0
10
1392289.25908427
20
356549.848388527
40
0.0
41
0.0
42
0.0
10
1392272.87762829
20
356558.374184804
40
0.0
41
0.0
42
0.0
10
1392279.3617895
20
356570.226510322
40
0.0
41
0.0
42
0.0
210
0.0
220
0.0
230
1.0
0
TEXT
5
120
330
1C
100
AcDbEntity
67
0
8
5 - выявленные окн
62
7
6
ByLayer
370
-1
48
1.0
60
0
100
AcDbText
1
246,41
10
1392283.53404544
20
356559.944089132
30
0.0
40
0.31111111111
41
1.0
50
0.0
51
0.0
7
Standard
11
1392283.53404544
21
356559.944089132
31
0.0
210
0.0
220
0.0
230
1.0
71
0
72
0
100
AcDbText
73
0
0
LWPOLYLINE
5
121
330
1C
100
AcDbEntity
67
0
8
5 - выявленные окн
62
7
6
ByLayer
370
20
48
1.0
60
0
100
AcDbPolyline
90
9
70
1
38
0.0
39
0.0
10
1394556.16727532
20
359280.291581548
40
0.0
41
0.0
42
0.0
10
1394560.70756179
20
359299.225159249
40
0.0
41
0.0
42
0.0
10
1394568.77017893
20
359297.071377144
40
0.0
41
0.0
42
0.0
10
1394568.2305962
20
359294.819133669
40
0.0
41
0.0
42
0.0
10
1394571.20647164
20
359294.019952827
40
0.0
41
0.0
42
0.0
10
1394569.04636898
20
359285.003584347
40
0.0
41
0.0
42
0.0
10
1394575.53865943
20
359283.260058861
40
0.0
41
0.0
42
0.0
10
1394573.69948261
20
359275.58325058
40
0.0
41
0.0
42
0.0
10
1394556.16727532
20
359280.291581548
40
0.0
41
0.0
42
0.0
210
0.0
220
0.0
230
1.0
0
TEXT
5
122
330
1C
100
AcDbEntity
67
0
8
5 - выявленные окн
62
7
6
ByLayer
370
-1
48
1.0
60
0
100
AcDbText
1
268,38
10
1394564.60643413
20
359286.368213756
30
0.0
40
0.31111111111
41
1.0
50
0.0
51
0.0
7
Standard
11
1394564.60643413
21
359286.368213756
31
0.0
210
0.0
220
0.0
230
1.0
71
0
72
0
100
AcDbText
73
0
0
LWPOLYLINE
5
123
330
1C
100
AcDbEntity
67
0
8
5 - выявленные окн
62
7
6
ByLayer
370
20
48
1.0
60
0
100
AcDbPolyline
90
9
70
1
38
0.0
39
0.0
10
1397848.81064448
20
359181.784656291
40
0.0
41
0.0
42
0.0
10
1397882.88382623
20
359180.926433583
40
0.0
41
0.0
42
0.0
10
1397882.723002
20
359170.926813682
40
0.0
41
0.0
42
0.0
10
1397869.66804907
20
359171.316347544
40
0.0
41
0.0
42
0.0
10
1397869.58008368
20
359167.673248916
40
0.0
41
0.0
42
0.0
10
1397860.9667168
20
359167.894253012
40
0.0
41
0.0
42
0.0
10
1397861.07638491
20
359171.772188735
40
0.0
41
0.0
42
0.0
10
1397848.58927139
20
359172.294109723
40
0.0
41
0.0
42
0.0
10
1397848.81064448
20
359181.784656291
40
0.0
41
0.0
42
0.0
210
0.0
220
0.0
230
1.0
0
TEXT
5
124
330
1C
100
AcDbEntity
67
0
8
5 - выявленные окн
62
7
6
ByLayer
370
-1
48
1.0
60
0
100
AcDbText
1
366,52
10
1397865.20511904
20
359175.712163546
30
0.0
40
0.31111111111
41
1.0
50
0.0
51
0.0
7
Standard
11
1397865.20511904
21
359175.712163546
31
0.0
210
0.0
220
0.0
230
1.0
71
0
72
0
100
AcDbText
73
0
0
LWPOLYLINE
5
125
330
1C
100
AcDbEntity
67
0
8
5 - выявленные окн
62
7
6
ByLayer
370
20
48
1.0
60
0
100
AcDbPolyline
90
9
70
1
38
0.0
39
0.0
10
1397959.6360644
20
359176.044622686
40
0.0
41
0.0
42
0.0
10
1397991.5548368
20
359174.814574514
40
0.0
41
0.0
42
0.0
10
1397991.15042701
20
359163.859669853
40
0.0
41
0.0
42
0.0
10
1397980.76334924
20
359164.785350785
40
0.0
41
0.0
42
0.0
10
1397980.46183063
20
359160.959838766
40
0.0
41
0.0
42
0.0
10
1397968.87958134
20
359161.582710559
40
0.0
41
0.0
42
0.0
10
1397969.11094683
20
359165.417150817
40
0.0
41
0.0
42
0.0
10
1397959.22114874
20
359165.905895076
40
0.0
41
0.0
42
0.0
10
1397959.6360644
20
359176.044622686
40
0.0
41
0.0
42
0.0
210
0.0
220
0.0
230
1.0
0
TEXT
5
126
330
1C
100
AcDbEntity
67
0
8
5 - выявленные окн
62
7
6
ByLayer
370
-1
48
1.0
60
0
100
AcDbText
1
377,51
10
1397974.8341816
20
359169.243869096
30
0.0
40
0.31111111111
41
1.0
50
0.0
51
0.0
7
Standard
11
1397974.8341816
21
359169.243869096
31
0.0
210
0.0
220
0.0
230
1.0
71
0
72
0
100
AcDbText
73
0
0
LWPOLYLINE
5
127
330
1C
100
AcDbEntity
67
0
8
5 - выявленные окн
62
7
6
ByLayer
370
20
48
1.0
60
0
100
AcDbPolyline
90
5
70
1
38
0.0
39
0.0
10
1398107.06651428
20
359226.62302888
40
0.0
41
0.0
42
0.0
10
1398207.45310572
20
359221.614285459
40
0.0
41
0.0
42
0.0
10
1398206.42333939
20
359201.221122672
40
0.0
41
0.0
42
0.0
10
1398106.31625178
20
359206.276098698
40
0.0
41
0.0
42
0.0
10
1398107.06651428
20
359226.62302888
40
0.0
41
0.0
42
0.0
210
0.0
220
0.0
230
1.0
0
TEXT
5
128
330
1C
100
AcDbEntity
67
0
8
5 - выявленные окн
62
7
6
ByLayer
370
-1
48
1.0
60
0
100
AcDbText
1
2 046,03
10
1398155.99024432
20
359213.79455989
30
0.0
40
0.31111111111
41
1.0
50
0.0
51
0.0
7
Standard
11
1398155.99024432
21
359213.79455989
31
0.0
210
0.0
220
0.0
230
1.0
71
0
72
0
100
AcDbText
73
0
0
LWPOLYLINE
5
129
330
1C
100
AcDbEntity
67
0
8
5 - выявленные окн
62
7
6
ByLayer
370
20
48
1.0
60
0
100
AcDbPolyline
90
5
70
1
38
0.0
39
0.0
10
1397928.37868737
20
359236.342527433
40
0.0
41
0.0
42
0.0
10
1398028.78861133
20
359232.343428372
40
0.0
41
0.0
42
0.0
10
1398027.91335312
20
359210.367344299
40
0.0
41
0.0
42
0.0
10
1397927.25871247
20
359214.376195561
40
0.0
41
0.0
42
0.0
10
1397928.37868737
20
359236.342527433
40
0.0
41
0.0
42
0.0
210
0.0
220
0.0
230
1.0
0
TEXT
5
12A
330
1C
100
AcDbEntity
67
0
8
5 - выявленные окн
62
7
6
ByLayer
370
-1
48
1.0
60
0
100
AcDbText
1
2 212,29
10
1397977.23521809
20
359223.210392038
30
0.0
40
0.31111111111
41
1.0
50
0.0
51
0.0
7
Standard
11
1397977.23521809
21
359223.210392038
31
0.0
210
0.0
220
0.0
230
1.0
71
0
72
0
100
AcDbText
73
0
0
LWPOLYLINE
5
12B
330
1C
100
AcDbEntity
67
0
8
5 - выявленные окн
62
7
6
ByLayer
370
20
48
1.0
60
0
100
AcDbPolyline
90
15
70
1
38
0.0
39
0.0
10
1397855.8083243
20
359239.165229675
40
0.0
41
0.0
42
0.0
10
1397883.81120703
20
359237.777593755
40
0.0
41
0.0
42
0.0
10
1397888.96997778
20
359237.575784431
40
0.0
41
0.0
42
0.0
10
1397889.00786845
20
359238.447269505
40
0.0
41
0.0
42
0.0
10
1397896.64313308
20
359238.21989787
40
0.0
41
0.0
42
0.0
10
1397895.49041262
20
359215.56157501
40
0.0
41
0.0
42
0.0
10
1397887.8827686
20
359215.906638064
40
0.0
41
0.0
42
0.0
10
1397887.91389856
20
359216.870752774
40
0.0
41
0.0
42
0.0
10
1397879.11673592
20
359217.401030871
40
0.0
41
0.0
42
0.0
10
1397854.50973122
20
359218.491851558
40
0.0
41
0.0
42
0.0
10
1397854.49099803
20
359217.870045472
40
0.0
41
0.0
42
0.0
10
1397847.10860634
20
359218.085097477
40
0.0
41
0.0
42
0.0
10
1397848.08274591
20
359240.504765688
40
0.0
41
0.0
42
0.0
10
1397855.82985403
20
359240.018970018
40
0.0
41
0.0
42
0.0
10
1397855.8083243
20
359239.165229675
40
0.0
41
0.0
42
0.0
210
0.0
220
0.0
230
1.0
0
TEXT
5
12C
330
1C
100
AcDbEntity
67
0
8
5 - выявленные окн
62
7
6
ByLayer
370
-1
48
1.0
60
0
100
AcDbText
1
1 029,56
10
1397871.02269987
20
359227.915284307
30
0.0
40
0.31111111111
41
1.0
50
0.0
51
0.0
7
Standard
11
1397871.02269987
21
359227.915284307
31
0.0
210
0.0
220
0.0
230
1.0
71
0
72
0
100
AcDbText
73
0
0
LWPOLYLINE
5
12D
330
1C
100
AcDbEntity
67
0
8
5 - выявленные окн
62
7
6
ByLayer
370
20
48
1.0
60
0
100
AcDbPolyline
90
5
70
1
38
0.0
39
0.0
10
1398161.68099777
20
359287.675851505
40
0.0
41
0.0
42
0.0
10
1398211.01643611
20
359286.041776046
40
0.0
41
0.0
42
0.0
10
1398210.27373163
20
359263.618321415
40
0.0
41
0.0
42
0.0
10
1398161.03359065
20
359265.249243301
40
0.0
41
0.0
42
0.0
10
1398161.68099777
20
359287.675851505
40
0.0
41
0.0
42
0.0
210
0.0
220
0.0
230
1.0
0
TEXT
5
12E
330
1C
100
AcDbEntity
67
0
8
5 - выявленные окн
62
7
6
ByLayer
370
-1
48
1.0
60
0
100
AcDbText
1
1 106,15
10
1398185.15188232
20
359275.507386103
30
0.0
40
0.31111111111
41
1.0
50
0.0
51
0.0
7
Standard
11
1398185.15188232
21
359275.507386103
31
0.0
210
0.0
220
0.0
230
1.0
71
0
72
0
100
AcDbText
73
0
0
LWPOLYLINE
5
12F
330
1C
100
AcDbEntity
67
0
8
5 - выявленные окн
62
7
6
ByLayer
370
20
48
1.0
60
0
100
AcDbPolyline
90
5
70
1
38
0.0
39
0.0
10
1398086.63603754
20
359291.611959594
40
0.0
41
0.0
42
0.0
10
1398134.43627453
20
359289.321986002
40
0.0
41
0.0
42
0.0
10
1398134.16789814
20
359266.719212033
40
0.0
41
0.0
42
0.0
10
1398085.6262935
20
359268.956157148
40
0.0
41
0.0
42
0.0
10
1398086.63603754
20
359291.611959594
40
0.0
41
0.0
42
0.0
210
0.0
220
0.0
230
1.0
0
TEXT
5
130
330
1C
100
AcDbEntity
67
0
8
5 - выявленные окн
62
7
6
ByLayer
370
-1
48
1.0
60
0
100
AcDbText
1
1 091,26
10
1398109.35082442
20
359278.98160917
30
0.0
40
0.31111111111
41
1.0
50
0.0
51
0.0
7
Standard
11
1398109.35082442
21
359278.98160917
31
0.0
210
0.0
220
0.0
230
1.0
71
0
72
0
100
AcDbText
73
0
0
LWPOLYLINE
5
131
330
1C
100
AcDbEntity
67
0
8
5 - выявленные окн
62
7
6
ByLayer
370
20
48
1.0
60
0
100
AcDbPolyline
90
5
70
1
38
0.0
39
0.0
10
1398008.86577853
20
359295.444167177
40
0.0
41
0.0
42
0.0
10
1398056.6172389
20
359292.994688495
40
0.0
41
0.0
42
0.0
10
1398055.6269382
20
359269.876764518
40
0.0
41
0.0
42
0.0
10
1398007.90783158
20
359272.249035324
40
0.0
41
0.0
42
0.0
10
1398008.86577853
20
359295.444167177
40
0.0
41
0.0
42
0.0
210
0.0
220
0.0
230
1.0
0
TEXT
5
132
330
1C
100
AcDbEntity
67
0
8
5 - выявленные окн
62
7
6
ByLayer
370
-1
48
1.0
60
0
100
AcDbText
1
1 107,47
10
1398031.39213354
20
359282.500729054
30
0.0
40
0.31111111111
41
1.0
50
0.0
51
0.0
7
Standard
11
1398031.39213354
21
359282.500729054
31
0.0
210
0.0
220
0.0
230
1.0
71
0
72
0
100
AcDbText
73
0
0
LWPOLYLINE
5
133
330
1C
100
AcDbEntity
67
0
8
5 - выявленные окн
62
7
6
ByLayer
370
20
48
1.0
60
0
100
AcDbPolyline
90
5
70
1
38
0.0
39
0.0
10
1397932.1294567
20
359299.467754503
40
0.0
41
0.0
42
0.0
10
1397980.20580878
20
359297.102646526
40
0.0
41
0.0
42
0.0
10
1397979.11728893
20
359274.975948411
40
0.0
41
0.0
42
0.0
10
1397930.86312238
20
359277.138391786
40
0.0
41
0.0
42
0.0
10
1397932.1294567
20
359299.467754503
40
0.0
41
0.0
42
0.0
210
0.0
220
0.0
230
1.0
0
TEXT
5
134
330
1C
100
AcDbEntity
67
0
8
5 - выявленные окн
62
7
6
ByLayer
370
-1
48
1.0
60
0
100
AcDbText
1
1 073,03
10
1397954.69115095
20
359287.024036881
30
0.0
40
0.31111111111
41
1.0
50
0.0
51
0.0
7
Standard
11
1397954.69115095
21
359287.024036881
31
0.0
210
0.0
220
0.0
230
1.0
71
0
72
0
100
AcDbText
73
0
0
LWPOLYLINE
5
135
330
1C
100
AcDbEntity
67
0
8
5 - выявленные окн
62
7
6
ByLayer
370
20
48
1.0
60
0
100
AcDbPolyline
90
5
70
1
38
0.0
39
0.0
10
1397856.71454612
20
359307.049030176
40
0.0
41
0.0
42
0.0
10
1397906.44593322
20
359305.351935603
40
0.0
41
0.0
42
0.0
10
1397905.47313821
20
359282.298856298
40
0.0
41
0.0
42
0.0
10
1397855.72293476
20
359284.342970761
40
0.0
41
0.0
42
0.0
10
1397856.71454612
20
359307.049030176
40
0.0
41
0.0
42
0.0
210
0.0
220
0.0
230
1.0
0
TEXT
5
136
330
1C
100
AcDbEntity
67
0
8
5 - выявленные окн
62
7
6
ByLayer
370
-1
48
1.0
60
0
100
AcDbText
1
1 139,62
10
1397880.30230408
20
359294.614526872
30
0.0
40
0.31111111111
41
1.0
50
0.0
51
0.0
7
Standard
11
1397880.30230408
21
359294.614526872
31
0.0
210
0.0
220
0.0
230
1.0
71
0
72
0
100
AcDbText
73
0
0
VIEWPORT
5
13B
330
137
100
AcDbEntity
67
1
8
0
62
256
6
ByLayer
370
-1
48
1.0
60
0
100
AcDbViewport
10
0.0
20
0.0
30
0.0
40
297.0
41
210.0
68
1
69
1
12
50.0
22
100.0
13
0.0
23
0.0
14
10.0
24
10.0
15
10.0
25
10.0
16
0.0
26
0.0
36
1.0
17
0.0
27
0.0
37
0.0
42
50.0
43
0.0
44
0.0
45
250.0
50
0.0
51
0.0
72
1000
90
819232
110
0.0
120
0.0
130
0.0
111
1.0
121
0.0
131
0.0
112
0.0
122
1.0
132
0.0
0
ENDSEC
0
SECTION
2
OBJECTS
0
DICTIONARY
5
140
330
0
100
AcDbDictionary
280
1
281
1
3
ACAD_GROUP
350
12
3
ACAD_LAYOUT
350
13A
3
ACAD_DGNDEFINITIONS
350
F
3
ACAD_DWFDEFINITIONS
350
10
3
ACAD_PDFDEFINITIONS
350
11
3
ACAD_MLINESTYLE
350
B
3
ACAD_IMAGE_DICT
350
E
3
ACAD_IMAGE_VARS
350
21
0
DICTIONARY
5
12
330
140
100
AcDbDictionary
280
1
281
1
0
DICTIONARY
5
13A
330
140
100
AcDbDictionary
280
1
281
1
3
Model
350
20
3
Layout1
350
13C
0
DICTIONARY
5
F
330
140
100
AcDbDictionary
280
1
281
1
0
DICTIONARY
5
10
330
140
100
AcDbDictionary
280
1
281
1
0
DICTIONARY
5
11
330
140
100
AcDbDictionary
280
1
281
1
0
DICTIONARY
5
B
330
140
100
AcDbDictionary
280
1
281
1
3
Standard
350
1B
0
DICTIONARY
5
E
330
140
100
AcDbDictionary
280
1
281
1
0
DICTIONARY
5
6
330
5
100
AcDbDictionary
280
1
281
1
3
ACAD_LAYERSTATES
360
141
0
DICTIONARY
5
141
330
6
100
AcDbDictionary
280
1
281
1
0
LAYOUT
5
20
330
13A
100
AcDbPlotSettings
1

2
none_device
4
ISO_A4_(210.00_x_297.00_MM)
6

40
7.5
41
20.0
42
7.5
43
20.0
44
210.0
45
297.0
46
0.0
47
0.0
48
0.0
49
0.0
140
0.0
141
0.0
142
1.0
143
1.0
70
11952
72
1
73
1
74
1
7

75
0
76
0
77
2
78
300
147
1.0
148
0.0
149
0.0
100
AcDbLayout
1
Model
71
0
10
1391563.61469508
20
354925.567290699
11
1398268.70008249
21
359638.324986463
12
0.0
22
0.0
32
0.0
14
1398268.70008249
24
359638.324986463
34
0.0
15
231.3
25
175.5
35
0.0
146
0.0
13
0.0
23
0.0
33
0.0
16
1.0
26
0.0
36
0.0
17
0.0
27
1.0
37
0.0
76
0
330
1C
0
LAYOUT
5
13C
330
13A
100
AcDbPlotSettings
1

2
none_device
4
ISO_A4_(210.00_x_297.00_MM)
6

40
7.5
41
20.0
42
7.5
43
20.0
44
210.0
45
297.0
46
0.0
47
0.0
48
0.0
49
0.0
140
0.0
141
0.0
142
1.0
143
1.0
70
688
72
1
73
1
74
1
7

75
0
76
0
77
2
78
300
147
1.0
148
0.0
149
0.0
100
AcDbLayout
1
Layout1
71
1
10
-20.0
20
-7.5
11
277.0
21
202.5
12
0.0
22
0.0
32
0.0
14
25.7
24
19.5
34
0.0
15
231.3
25
175.5
35
0.0
146
0.0
13
0.0
23
0.0
33
0.0
16
1.0
26
0.0
36
0.0
17
0.0
27
1.0
37
0.0
76
0
330
137
0
MLINESTYLE
5
1B
330
B
100
AcDbMlineStyle
2
Standard
70
0
3

62
256
51
90.0
52
90.0
71
2
49
0.5
62
256
6
ByLayer
49
-0.5
62
256
6
ByLayer
0
RASTERVARIABLES
5
21
330
E
100
AcDbRasterVariables
90
0
70
1
71
1
72
0
0
ENDSEC
0
EOF
