999
DXF file generated by netDxf https://github.com/haplokuon/netDxf, Copyright(C) 2009-2020 Daniel Carvajal, Licensed under LGPL
0
SECTION
2
HEADER
9
$ACADVER
1
AC1024
9
$DWGCODEPAGE
3
ANSI_1252
9
$LASTSAVEDBY
1
Admin
9
$HANDSEED
5
EC
9
$ANGBASE
50
0.0
9
$ANGDIR
70
0
9
$ATTMODE
70
1
9
$AUNITS
70
0
9
$AUPREC
70
0
9
$CECOLOR
62
256
9
$CELTSCALE
40
1.0
9
$CELTYPE
6
ByLayer
9
$CELWEIGHT
370
-1
9
$CLAYER
8
0
9
$CMLJUST
70
0
9
$CMLSCALE
40
20.0
9
$CMLSTYLE
2
Standard
9
$DIMSTYLE
2
Standard
9
$TEXTSIZE
40
2.5
9
$TEXTSTYLE
7
Standard
9
$LUNITS
70
2
9
$LUPREC
70
4
9
$MIRRTEXT
70
0
9
$EXTNAMES
290
1
9
$INSBASE
10
0.0
20
0.0
30
0.0
9
$INSUNITS
70
0
9
$LTSCALE
40
1.0
9
$LWDISPLAY
290
0
9
$PDMODE
70
33
9
$PDSIZE
40
0.75
9
$PLINEGEN
70
0
9
$PSLTSCALE
70
1
9
$TDCREATE
40
2460886.80694801
9
$TDUCREATE
40
2460886.39028134
9
$TDUPDATE
40
2460886.80694801
9
$TDUUPDATE
40
2460886.39028134
9
$TDINDWG
40
0.0
9
$UCSORG
10
0.0
20
0.0
30
0.0
9
$UCSXDIR
10
1.0
20
0.0
30
0.0
9
$UCSYDIR
10
0.0
20
1.0
30
0.0
9
$DIMADEC
70
0
9
$DIMALT
70
0
9
$DIMALTD
70
2
9
$DIMALTF
40
25.4
9
$DIMALTRND
40
0.0
9
$DIMALTTD
70
2
9
$DIMALTTZ
70
0
9
$DIMALTU
70
2
9
$DIMALTZ
70
0
9
$DIMAPOST
1

9
$DIMATFIT
70
3
9
$DIMAUNIT
70
0
9
$DIMASZ
40
0.18
9
$DIMAZIN
70
0
9
$DIMSAH
70
0
9
$DIMBLK
1

9
$DIMLDRBLK
1

9
$DIMCEN
40
0.09
9
$DIMCLRD
70
0
9
$DIMCLRE
70
0
9
$DIMCLRT
70
0
9
$DIMDEC
70
4
9
$DIMDLE
40
0.0
9
$DIMDLI
40
0.38
9
$DIMDSEP
70
46
9
$DIMEXE
40
0.18
9
$DIMEXO
40
0.0625
9
$DIMFXLON
70
0
9
$DIMFXL
40
1.0
9
$DIMGAP
40
0.09
9
$DIMJUST
70
0
9
$DIMLFAC
40
1.0
9
$DIMLUNIT
70
2
9
$DIMLWD
70
-2
9
$DIMLWE
70
-2
9
$DIMPOST
1

9
$DIMRND
40
0.0
9
$DIMSCALE
40
1.0
9
$DIMSD1
70
0
9
$DIMSD2
70
0
9
$DIMSE1
70
0
9
$DIMSE2
70
0
9
$DIMSOXD
70
0
9
$DIMTAD
70
0
9
$DIMTDEC
70
4
9
$DIMTFAC
40
1.0
9
$DIMTIH
70
0
9
$DIMTIX
70
0
9
$DIMTM
40
0.0
9
$DIMTMOVE
70
0
9
$DIMTOFL
70
0
9
$DIMTOH
70
0
9
$DIMTOL
70
0
9
$DIMLIM
70
0
9
$DIMTOLJ
70
1
9
$DIMTP
40
0.0
9
$DIMTXT
40
0.18
9
$DIMTXTDIRECTION
70
0
9
$DIMTZIN
70
0
9
$DIMZIN
70
0
9
$DIMFRAC
70
0
9
$DIMLTYPE
6
ByBlock
9
$DIMLTEX1
6
ByBlock
9
$DIMLTEX2
6
ByBlock
0
ENDSEC
0
SECTION
2
CLASSES
0
CLASS
1
RASTERVARIABLES
2
AcDbRasterVariables
3
ISM
90
0
91
1
280
0
281
0
0
ENDSEC
0
SECTION
2
TABLES
0
TABLE
2
APPID
5
4
330
0
100
AcDbSymbolTable
70
4
0
APPID
5
19
330
4
100
AcDbSymbolTableRecord
100
AcDbRegAppTableRecord
2
ACAD
70
0
0
APPID
5
E7
330
4
100
AcDbSymbolTableRecord
100
AcDbRegAppTableRecord
2
AcCmTransparency
70
0
0
APPID
5
E8
330
4
100
AcDbSymbolTableRecord
100
AcDbRegAppTableRecord
2
GradientColor1ACI
70
0
0
APPID
5
E9
330
4
100
AcDbSymbolTableRecord
100
AcDbRegAppTableRecord
2
GradientColor2ACI
70
0
0
ENDTAB
0
TABLE
2
VPORT
5
1
330
0
100
AcDbSymbolTable
70
1
0
VPORT
5
2
330
1
100
AcDbSymbolTableRecord
100
AcDbViewportTableRecord
2
*Active
70
0
10
0.0
20
0.0
11
1.0
21
1.0
12
0.0
22
0.0
13
0.0
23
0.0
14
0.5
24
0.5
15
10.0
25
10.0
16
0.0
26
0.0
36
1.0
17
1395012.45906143
27
360095.400065985
37
0.0
40
204.72089597251
41
1.0
75
0
76
1
0
ENDTAB
0
TABLE
2
LTYPE
5
7
330
0
100
AcDbSymbolTable
70
3
0
LTYPE
5
15
330
7
100
AcDbSymbolTableRecord
100
AcDbLinetypeTableRecord
2
Continuous
70
0
3
Solid line
72
65
73
0
40
0.0
0
LTYPE
5
16
330
7
100
AcDbSymbolTableRecord
100
AcDbLinetypeTableRecord
2
ByLayer
70
0
3

72
65
73
0
40
0.0
0
LTYPE
5
17
330
7
100
AcDbSymbolTableRecord
100
AcDbLinetypeTableRecord
2
ByBlock
70
0
3

72
65
73
0
40
0.0
0
ENDTAB
0
TABLE
2
LAYER
5
5
102
{ACAD_XDICTIONARY
360
6
102
}
330
0
100
AcDbSymbolTable
70
2
0
LAYER
5
14
330
5
100
AcDbSymbolTableRecord
100
AcDbLayerTableRecord
2
0
70
0
62
7
6
Continuous
290
1
370
-3
390
0
0
LAYER
5
22
330
5
100
AcDbSymbolTableRecord
100
AcDbLayerTableRecord
2
пробный
70
0
62
7
6
Continuous
290
1
370
-3
390
0
0
ENDTAB
0
TABLE
2
STYLE
5
8
330
0
100
AcDbSymbolTable
70
1
0
STYLE
5
18
330
8
100
AcDbSymbolTableRecord
100
AcDbTextStyleTableRecord
2
Standard
3
simplex.shx
70
0
71
0
40
0.0
41
1.0
42
0.0
50
0.0
0
ENDTAB
0
TABLE
2
DIMSTYLE
5
A
330
0
100
AcDbSymbolTable
70
1
100
AcDbDimStyleTable
0
DIMSTYLE
105
1A
330
A
100
AcDbSymbolTableRecord
100
AcDbDimStyleTableRecord
2
Standard
3

4

40
1.0
41
0.18
42
0.0625
43
0.38
44
0.18
45
0.0
46
0.0
47
0.0
48
0.0
49
1.0
70
0
71
0
72
0
73
0
74
0
75
0
76
0
77
0
78
0
79
0
140
0.18
141
0.09
143
25.4
144
1.0
146
1.0
147
0.09
148
0.0
170
0
171
2
172
0
174
0
175
0
176
0
177
0
178
0
179
0
271
4
272
4
273
2
274
2
275
0
276
0
277
2
278
46
279
0
280
0
281
0
282
0
283
1
284
0
285
0
286
0
289
3
290
0
294
0
340
18
173
0
345
17
346
17
347
17
371
-2
372
-2
0
ENDTAB
0
TABLE
2
VIEW
5
3
330
0
100
AcDbSymbolTable
70
0
0
ENDTAB
0
TABLE
2
UCS
5
C
330
0
100
AcDbSymbolTable
70
0
0
ENDTAB
0
TABLE
2
BLOCK_RECORD
5
D
330
0
100
AcDbSymbolTable
70
2
0
BLOCK_RECORD
5
1C
330
D
100
AcDbSymbolTableRecord
100
AcDbBlockTableRecord
2
*Model_Space
340
20
0
BLOCK_RECORD
5
E1
330
D
100
AcDbSymbolTableRecord
100
AcDbBlockTableRecord
2
*Paper_Space
340
E6
0
ENDTAB
0
ENDSEC
0
SECTION
2
BLOCKS
0
BLOCK
5
1E
330
1C
100
AcDbEntity
67
0
8
0
100
AcDbBlockBegin
2
*Model_Space
70
0
10
0.0
20
0.0
30
0.0
3
*Model_Space
4

0
ENDBLK
5
1D
330
1C
100
AcDbEntity
8
0
100
AcDbBlockEnd
0
BLOCK
5
E3
330
E1
100
AcDbEntity
67
1
8
0
100
AcDbBlockBegin
2
*Paper_Space
70
0
10
0.0
20
0.0
30
0.0
3
*Paper_Space
4

0
ENDBLK
5
E2
330
E1
100
AcDbEntity
8
0
100
AcDbBlockEnd
0
ENDSEC
0
SECTION
2
ENTITIES
0
POINT
5
23
330
1C
100
AcDbEntity
67
0
8
пробный
62
256
6
ByLayer
370
-1
48
1.0
60
0
100
AcDbPoint
10
1394927.81757402
20
360181.882636595
30
0.0
39
0.0
210
0.0
220
0.0
230
1.0
50
360.0
0
TEXT
5
24
330
1C
100
AcDbEntity
67
0
8
пробный
62
7
6
ByLayer
370
-1
48
1.0
60
0
100
AcDbText
1
1
10
1394927.94670265
20
360182.157075562
30
0.0
40
0.31111111111
41
1.0
50
0.0
51
0.0
7
Standard
11
1394927.94670265
21
360182.157075562
31
0.0
210
0.0
220
0.0
230
1.0
71
0
72
0
100
AcDbText
73
0
0
POINT
5
25
330
1C
100
AcDbEntity
67
0
8
пробный
62
256
6
ByLayer
370
-1
48
1.0
60
0
100
AcDbPoint
10
1394957.49464072
20
360174.776887174
30
0.0
39
0.0
210
0.0
220
0.0
230
1.0
50
360.0
0
TEXT
5
26
330
1C
100
AcDbEntity
67
0
8
пробный
62
7
6
ByLayer
370
-1
48
1.0
60
0
100
AcDbText
1
2
10
1394957.62376937
20
360175.051326191
30
0.0
40
0.31111111111
41
1.0
50
0.0
51
0.0
7
Standard
11
1394957.62376937
21
360175.051326191
31
0.0
210
0.0
220
0.0
230
1.0
71
0
72
0
100
AcDbText
73
0
0
POINT
5
27
330
1C
100
AcDbEntity
67
0
8
пробный
62
256
6
ByLayer
370
-1
48
1.0
60
0
100
AcDbPoint
10
1394960.91587691
20
360187.291679927
30
0.0
39
0.0
210
0.0
220
0.0
230
1.0
50
360.0
0
TEXT
5
28
330
1C
100
AcDbEntity
67
0
8
пробный
62
7
6
ByLayer
370
-1
48
1.0
60
0
100
AcDbText
1
3
10
1394961.04500553
20
360187.566118949
30
0.0
40
0.31111111111
41
1.0
50
0.0
51
0.0
7
Standard
11
1394961.04500553
21
360187.566118949
31
0.0
210
0.0
220
0.0
230
1.0
71
0
72
0
100
AcDbText
73
0
0
POINT
5
29
330
1C
100
AcDbEntity
67
0
8
пробный
62
256
6
ByLayer
370
-1
48
1.0
60
0
100
AcDbPoint
10
1394921.80441612
20
360197.050519472
30
0.0
39
0.0
210
0.0
220
0.0
230
1.0
50
360.0
0
TEXT
5
2A
330
1C
100
AcDbEntity
67
0
8
пробный
62
7
6
ByLayer
370
-1
48
1.0
60
0
100
AcDbText
1
4
10
1394921.93354472
20
360197.324958423
30
0.0
40
0.31111111111
41
1.0
50
0.0
51
0.0
7
Standard
11
1394921.93354472
21
360197.324958423
31
0.0
210
0.0
220
0.0
230
1.0
71
0
72
0
100
AcDbText
73
0
0
POINT
5
2B
330
1C
100
AcDbEntity
67
0
8
пробный
62
256
6
ByLayer
370
-1
48
1.0
60
0
100
AcDbPoint
10
1394917.30001914
20
360194.588010534
30
0.0
39
0.0
210
0.0
220
0.0
230
1.0
50
360.0
0
TEXT
5
2C
330
1C
100
AcDbEntity
67
0
8
пробный
62
7
6
ByLayer
370
-1
48
1.0
60
0
100
AcDbText
1
5
10
1394917.42914775
20
360194.862449476
30
0.0
40
0.31111111111
41
1.0
50
0.0
51
0.0
7
Standard
11
1394917.42914775
21
360194.862449476
31
0.0
210
0.0
220
0.0
230
1.0
71
0
72
0
100
AcDbText
73
0
0
POINT
5
2D
330
1C
100
AcDbEntity
67
0
8
пробный
62
256
6
ByLayer
370
-1
48
1.0
60
0
100
AcDbPoint
10
1394913.43601026
20
360178.38579748
30
0.0
39
0.0
210
0.0
220
0.0
230
1.0
50
360.0
0
TEXT
5
2E
330
1C
100
AcDbEntity
67
0
8
пробный
62
7
6
ByLayer
370
-1
48
1.0
60
0
100
AcDbText
1
6
10
1394913.56513889
20
360178.660236417
30
0.0
40
0.31111111111
41
1.0
50
0.0
51
0.0
7
Standard
11
1394913.56513889
21
360178.660236417
31
0.0
210
0.0
220
0.0
230
1.0
71
0
72
0
100
AcDbText
73
0
0
POINT
5
2F
330
1C
100
AcDbEntity
67
0
8
пробный
62
256
6
ByLayer
370
-1
48
1.0
60
0
100
AcDbPoint
10
1394911.78539804
20
360178.672244551
30
0.0
39
0.0
210
0.0
220
0.0
230
1.0
50
360.0
0
TEXT
5
30
330
1C
100
AcDbEntity
67
0
8
пробный
62
7
6
ByLayer
370
-1
48
1.0
60
0
100
AcDbText
1
7
10
1394911.91452668
20
360178.946683482
30
0.0
40
0.31111111111
41
1.0
50
0.0
51
0.0
7
Standard
11
1394911.91452668
21
360178.946683482
31
0.0
210
0.0
220
0.0
230
1.0
71
0
72
0
100
AcDbText
73
0
0
POINT
5
31
330
1C
100
AcDbEntity
67
0
8
пробный
62
256
6
ByLayer
370
-1
48
1.0
60
0
100
AcDbPoint
10
1394909.89033184
20
360170.646041012
30
0.0
39
0.0
210
0.0
220
0.0
230
1.0
50
360.0
0
TEXT
5
32
330
1C
100
AcDbEntity
67
0
8
пробный
62
7
6
ByLayer
370
-1
48
1.0
60
0
100
AcDbText
1
8
10
1394910.01946049
20
360170.920479942
30
0.0
40
0.31111111111
41
1.0
50
0.0
51
0.0
7
Standard
11
1394910.01946049
21
360170.920479942
31
0.0
210
0.0
220
0.0
230
1.0
71
0
72
0
100
AcDbText
73
0
0
POINT
5
33
330
1C
100
AcDbEntity
67
0
8
пробный
62
256
6
ByLayer
370
-1
48
1.0
60
0
100
AcDbPoint
10
1394911.80123747
20
360170.231182817
30
0.0
39
0.0
210
0.0
220
0.0
230
1.0
50
360.0
0
TEXT
5
34
330
1C
100
AcDbEntity
67
0
8
пробный
62
7
6
ByLayer
370
-1
48
1.0
60
0
100
AcDbText
1
9
10
1394911.93036612
20
360170.505621752
30
0.0
40
0.31111111111
41
1.0
50
0.0
51
0.0
7
Standard
11
1394911.93036612
21
360170.505621752
31
0.0
210
0.0
220
0.0
230
1.0
71
0
72
0
100
AcDbText
73
0
0
POINT
5
35
330
1C
100
AcDbEntity
67
0
8
пробный
62
256
6
ByLayer
370
-1
48
1.0
60
0
100
AcDbPoint
10
1394909.25155927
20
360159.091446206
30
0.0
39
0.0
210
0.0
220
0.0
230
1.0
50
360.0
0
TEXT
5
36
330
1C
100
AcDbEntity
67
0
8
пробный
62
7
6
ByLayer
370
-1
48
1.0
60
0
100
AcDbText
1
10
10
1394909.38068795
20
360159.365885137
30
0.0
40
0.31111111111
41
1.0
50
0.0
51
0.0
7
Standard
11
1394909.38068795
21
360159.365885137
31
0.0
210
0.0
220
0.0
230
1.0
71
0
72
0
100
AcDbText
73
0
0
POINT
5
37
330
1C
100
AcDbEntity
67
0
8
пробный
62
256
6
ByLayer
370
-1
48
1.0
60
0
100
AcDbPoint
10
1394921.81239794
20
360156.071691711
30
0.0
39
0.0
210
0.0
220
0.0
230
1.0
50
360.0
0
TEXT
5
38
330
1C
100
AcDbEntity
67
0
8
пробный
62
7
6
ByLayer
370
-1
48
1.0
60
0
100
AcDbText
1
11
10
1394921.94152662
20
360156.346130665
30
0.0
40
0.31111111111
41
1.0
50
0.0
51
0.0
7
Standard
11
1394921.94152662
21
360156.346130665
31
0.0
210
0.0
220
0.0
230
1.0
71
0
72
0
100
AcDbText
73
0
0
POINT
5
39
330
1C
100
AcDbEntity
67
0
8
пробный
62
256
6
ByLayer
370
-1
48
1.0
60
0
100
AcDbPoint
10
1394924.03057144
20
360165.577291152
30
0.0
39
0.0
210
0.0
220
0.0
230
1.0
50
360.0
0
TEXT
5
3A
330
1C
100
AcDbEntity
67
0
8
пробный
62
7
6
ByLayer
370
-1
48
1.0
60
0
100
AcDbText
1
12
10
1394924.15970011
20
360165.851730111
30
0.0
40
0.31111111111
41
1.0
50
0.0
51
0.0
7
Standard
11
1394924.15970011
21
360165.851730111
31
0.0
210
0.0
220
0.0
230
1.0
71
0
72
0
100
AcDbText
73
0
0
POINT
5
3B
330
1C
100
AcDbEntity
67
0
8
пробный
62
256
6
ByLayer
370
-1
48
1.0
60
0
100
AcDbPoint
10
1394925.13100117
20
360167.267577062
30
0.0
39
0.0
210
0.0
220
0.0
230
1.0
50
360.0
0
TEXT
5
3C
330
1C
100
AcDbEntity
67
0
8
пробный
62
7
6
ByLayer
370
-1
48
1.0
60
0
100
AcDbText
1
13
10
1394925.26012982
20
360167.542016023
30
0.0
40
0.31111111111
41
1.0
50
0.0
51
0.0
7
Standard
11
1394925.26012982
21
360167.542016023
31
0.0
210
0.0
220
0.0
230
1.0
71
0
72
0
100
AcDbText
73
0
0
POINT
5
3D
330
1C
100
AcDbEntity
67
0
8
пробный
62
256
6
ByLayer
370
-1
48
1.0
60
0
100
AcDbPoint
10
1394925.80658809
20
360169.167996589
30
0.0
39
0.0
210
0.0
220
0.0
230
1.0
50
360.0
0
TEXT
5
3E
330
1C
100
AcDbEntity
67
0
8
пробный
62
7
6
ByLayer
370
-1
48
1.0
60
0
100
AcDbText
1
14
10
1394925.93571674
20
360169.44243555
30
0.0
40
0.31111111111
41
1.0
50
0.0
51
0.0
7
Standard
11
1394925.93571674
21
360169.44243555
31
0.0
210
0.0
220
0.0
230
1.0
71
0
72
0
100
AcDbText
73
0
0
POINT
5
3F
330
1C
100
AcDbEntity
67
0
8
пробный
62
256
6
ByLayer
370
-1
48
1.0
60
0
100
AcDbPoint
10
1394926.02002432
20
360171.173602992
30
0.0
39
0.0
210
0.0
220
0.0
230
1.0
50
360.0
0
TEXT
5
40
330
1C
100
AcDbEntity
67
0
8
пробный
62
7
6
ByLayer
370
-1
48
1.0
60
0
100
AcDbText
1
15
10
1394926.14915297
20
360171.448041956
30
0.0
40
0.31111111111
41
1.0
50
0.0
51
0.0
7
Standard
11
1394926.14915297
21
360171.448041956
31
0.0
210
0.0
220
0.0
230
1.0
71
0
72
0
100
AcDbText
73
0
0
POINT
5
41
330
1C
100
AcDbEntity
67
0
8
пробный
62
256
6
ByLayer
370
-1
48
1.0
60
0
100
AcDbPoint
10
1394925.75952327
20
360173.173640813
30
0.0
39
0.0
210
0.0
220
0.0
230
1.0
50
360.0
0
TEXT
5
42
330
1C
100
AcDbEntity
67
0
8
пробный
62
7
6
ByLayer
370
-1
48
1.0
60
0
100
AcDbText
1
16
10
1394925.88865192
20
360173.448079775
30
0.0
40
0.31111111111
41
1.0
50
0.0
51
0.0
7
Standard
11
1394925.88865192
21
360173.448079775
31
0.0
210
0.0
220
0.0
230
1.0
71
0
72
0
100
AcDbText
73
0
0
POINT
5
43
330
1C
100
AcDbEntity
67
0
8
пробный
62
256
6
ByLayer
370
-1
48
1.0
60
0
100
AcDbPoint
10
1394990.16806149
20
360169.841789967
30
0.0
39
0.0
210
0.0
220
0.0
230
1.0
50
360.0
0
TEXT
5
44
330
1C
100
AcDbEntity
67
0
8
пробный
62
7
6
ByLayer
370
-1
48
1.0
60
0
100
AcDbText
1
17
10
1394990.29719014
20
360170.116229044
30
0.0
40
0.31111111111
41
1.0
50
0.0
51
0.0
7
Standard
11
1394990.29719014
21
360170.116229044
31
0.0
210
0.0
220
0.0
230
1.0
71
0
72
0
100
AcDbText
73
0
0
POINT
5
45
330
1C
100
AcDbEntity
67
0
8
пробный
62
256
6
ByLayer
370
-1
48
1.0
60
0
100
AcDbPoint
10
1394989.77920792
20
360168.208076708
30
0.0
39
0.0
210
0.0
220
0.0
230
1.0
50
360.0
0
TEXT
5
46
330
1C
100
AcDbEntity
67
0
8
пробный
62
7
6
ByLayer
370
-1
48
1.0
60
0
100
AcDbText
1
18
10
1394989.90833657
20
360168.482515786
30
0.0
40
0.31111111111
41
1.0
50
0.0
51
0.0
7
Standard
11
1394989.90833657
21
360168.482515786
31
0.0
210
0.0
220
0.0
230
1.0
71
0
72
0
100
AcDbText
73
0
0
POINT
5
47
330
1C
100
AcDbEntity
67
0
8
пробный
62
256
6
ByLayer
370
-1
48
1.0
60
0
100
AcDbPoint
10
1394974.47687299
20
360171.850311677
30
0.0
39
0.0
210
0.0
220
0.0
230
1.0
50
360.0
0
TEXT
5
48
330
1C
100
AcDbEntity
67
0
8
пробный
62
7
6
ByLayer
370
-1
48
1.0
60
0
100
AcDbText
1
19
10
1394974.60600164
20
360172.124750729
30
0.0
40
0.31111111111
41
1.0
50
0.0
51
0.0
7
Standard
11
1394974.60600164
21
360172.124750729
31
0.0
210
0.0
220
0.0
230
1.0
71
0
72
0
100
AcDbText
73
0
0
POINT
5
49
330
1C
100
AcDbEntity
67
0
8
пробный
62
256
6
ByLayer
370
-1
48
1.0
60
0
100
AcDbPoint
10
1394974.96144332
20
360173.695637319
30
0.0
39
0.0
210
0.0
220
0.0
230
1.0
50
360.0
0
TEXT
5
4A
330
1C
100
AcDbEntity
67
0
8
пробный
62
7
6
ByLayer
370
-1
48
1.0
60
0
100
AcDbText
1
20
10
1394975.09057197
20
360173.970076365
30
0.0
40
0.31111111111
41
1.0
50
0.0
51
0.0
7
Standard
11
1394975.09057197
21
360173.970076365
31
0.0
210
0.0
220
0.0
230
1.0
71
0
72
0
100
AcDbText
73
0
0
POINT
5
4B
330
1C
100
AcDbEntity
67
0
8
пробный
62
256
6
ByLayer
370
-1
48
1.0
60
0
100
AcDbPoint
10
1394963.07906338
20
360176.664014949
30
0.0
39
0.0
210
0.0
220
0.0
230
1.0
50
360.0
0
TEXT
5
4C
330
1C
100
AcDbEntity
67
0
8
пробный
62
7
6
ByLayer
370
-1
48
1.0
60
0
100
AcDbText
1
21
10
1394963.20819202
20
360176.938453976
30
0.0
40
0.31111111111
41
1.0
50
0.0
51
0.0
7
Standard
11
1394963.20819202
21
360176.938453976
31
0.0
210
0.0
220
0.0
230
1.0
71
0
72
0
100
AcDbText
73
0
0
POINT
5
4D
330
1C
100
AcDbEntity
67
0
8
пробный
62
256
6
ByLayer
370
-1
48
1.0
60
0
100
AcDbPoint
10
1394962.34363894
20
360173.878223635
30
0.0
39
0.0
210
0.0
220
0.0
230
1.0
50
360.0
0
TEXT
5
4E
330
1C
100
AcDbEntity
67
0
8
пробный
62
7
6
ByLayer
370
-1
48
1.0
60
0
100
AcDbText
1
22
10
1394962.47276758
20
360174.152662661
30
0.0
40
0.31111111111
41
1.0
50
0.0
51
0.0
7
Standard
11
1394962.47276758
21
360174.152662661
31
0.0
210
0.0
220
0.0
230
1.0
71
0
72
0
100
AcDbText
73
0
0
POINT
5
4F
330
1C
100
AcDbEntity
67
0
8
пробный
62
256
6
ByLayer
370
-1
48
1.0
60
0
100
AcDbPoint
10
1394958.65444328
20
360174.740070633
30
0.0
39
0.0
210
0.0
220
0.0
230
1.0
50
360.0
0
TEXT
5
50
330
1C
100
AcDbEntity
67
0
8
пробный
62
7
6
ByLayer
370
-1
48
1.0
60
0
100
AcDbText
1
23
10
1394958.78357192
20
360175.014509651
30
0.0
40
0.31111111111
41
1.0
50
0.0
51
0.0
7
Standard
11
1394958.78357192
21
360175.014509651
31
0.0
210
0.0
220
0.0
230
1.0
71
0
72
0
100
AcDbText
73
0
0
POINT
5
51
330
1C
100
AcDbEntity
67
0
8
пробный
62
256
6
ByLayer
370
-1
48
1.0
60
0
100
AcDbPoint
10
1394963.36277755
20
360192.083279289
30
0.0
39
0.0
210
0.0
220
0.0
230
1.0
50
360.0
0
TEXT
5
52
330
1C
100
AcDbEntity
67
0
8
пробный
62
7
6
ByLayer
370
-1
48
1.0
60
0
100
AcDbText
1
24
10
1394963.49190616
20
360192.357718318
30
0.0
40
0.31111111111
41
1.0
50
0.0
51
0.0
7
Standard
11
1394963.49190616
21
360192.357718318
31
0.0
210
0.0
220
0.0
230
1.0
71
0
72
0
100
AcDbText
73
0
0
POINT
5
53
330
1C
100
AcDbEntity
67
0
8
пробный
62
256
6
ByLayer
370
-1
48
1.0
60
0
100
AcDbPoint
10
1395007.58514582
20
360180.603563595
30
0.0
39
0.0
210
0.0
220
0.0
230
1.0
50
360.0
0
TEXT
5
54
330
1C
100
AcDbEntity
67
0
8
пробный
62
7
6
ByLayer
370
-1
48
1.0
60
0
100
AcDbText
1
25
10
1395007.71427445
20
360180.878002703
30
0.0
40
0.31111111111
41
1.0
50
0.0
51
0.0
7
Standard
11
1395007.71427445
21
360180.878002703
31
0.0
210
0.0
220
0.0
230
1.0
71
0
72
0
100
AcDbText
73
0
0
POINT
5
55
330
1C
100
AcDbEntity
67
0
8
пробный
62
256
6
ByLayer
370
-1
48
1.0
60
0
100
AcDbPoint
10
1395004.22727723
20
360166.49595322
30
0.0
39
0.0
210
0.0
220
0.0
230
1.0
50
360.0
0
TEXT
5
56
330
1C
100
AcDbEntity
67
0
8
пробный
62
7
6
ByLayer
370
-1
48
1.0
60
0
100
AcDbText
1
26
10
1395004.35640589
20
360166.770392323
30
0.0
40
0.31111111111
41
1.0
50
0.0
51
0.0
7
Standard
11
1395004.35640589
21
360166.770392323
31
0.0
210
0.0
220
0.0
230
1.0
71
0
72
0
100
AcDbText
73
0
0
POINT
5
57
330
1C
100
AcDbEntity
67
0
8
пробный
62
256
6
ByLayer
370
-1
48
1.0
60
0
100
AcDbPoint
10
1394978.27117017
20
360148.276714441
30
0.0
39
0.0
210
0.0
220
0.0
230
1.0
50
360.0
0
TEXT
5
58
330
1C
100
AcDbEntity
67
0
8
пробный
62
7
6
ByLayer
370
-1
48
1.0
60
0
100
AcDbText
1
27
10
1394978.40029887
20
360148.551153496
30
0.0
40
0.31111111111
41
1.0
50
0.0
51
0.0
7
Standard
11
1394978.40029887
21
360148.551153496
31
0.0
210
0.0
220
0.0
230
1.0
71
0
72
0
100
AcDbText
73
0
0
POINT
5
59
330
1C
100
AcDbEntity
67
0
8
пробный
62
256
6
ByLayer
370
-1
48
1.0
60
0
100
AcDbPoint
10
1394980.9510722
20
360134.035675587
30
0.0
39
0.0
210
0.0
220
0.0
230
1.0
50
360.0
0
TEXT
5
5A
330
1C
100
AcDbEntity
67
0
8
пробный
62
7
6
ByLayer
370
-1
48
1.0
60
0
100
AcDbText
1
28
10
1394981.08020092
20
360134.310114647
30
0.0
40
0.31111111111
41
1.0
50
0.0
51
0.0
7
Standard
11
1394981.08020092
21
360134.310114647
31
0.0
210
0.0
220
0.0
230
1.0
71
0
72
0
100
AcDbText
73
0
0
POINT
5
5B
330
1C
100
AcDbEntity
67
0
8
пробный
62
256
6
ByLayer
370
-1
48
1.0
60
0
100
AcDbPoint
10
1395003.24816167
20
360138.597039691
30
0.0
39
0.0
210
0.0
220
0.0
230
1.0
50
360.0
0
TEXT
5
5C
330
1C
100
AcDbEntity
67
0
8
пробный
62
7
6
ByLayer
370
-1
48
1.0
60
0
100
AcDbText
1
29
10
1395003.37729038
20
360138.87147879
30
0.0
40
0.31111111111
41
1.0
50
0.0
51
0.0
7
Standard
11
1395003.37729038
21
360138.87147879
31
0.0
210
0.0
220
0.0
230
1.0
71
0
72
0
100
AcDbText
73
0
0
POINT
5
5D
330
1C
100
AcDbEntity
67
0
8
пробный
62
256
6
ByLayer
370
-1
48
1.0
60
0
100
AcDbPoint
10
1395004.0376157
20
360146.316751481
30
0.0
39
0.0
210
0.0
220
0.0
230
1.0
50
360.0
0
TEXT
5
5E
330
1C
100
AcDbEntity
67
0
8
пробный
62
7
6
ByLayer
370
-1
48
1.0
60
0
100
AcDbText
1
30
10
1395004.16674439
20
360146.591190584
30
0.0
40
0.31111111111
41
1.0
50
0.0
51
0.0
7
Standard
11
1395004.16674439
21
360146.591190584
31
0.0
210
0.0
220
0.0
230
1.0
71
0
72
0
100
AcDbText
73
0
0
POINT
5
5F
330
1C
100
AcDbEntity
67
0
8
пробный
62
256
6
ByLayer
370
-1
48
1.0
60
0
100
AcDbPoint
10
1395002.52345293
20
360153.864679973
30
0.0
39
0.0
210
0.0
220
0.0
230
1.0
50
360.0
0
TEXT
5
60
330
1C
100
AcDbEntity
67
0
8
пробный
62
7
6
ByLayer
370
-1
48
1.0
60
0
100
AcDbText
1
31
10
1395002.65258161
20
360154.139119073
30
0.0
40
0.31111111111
41
1.0
50
0.0
51
0.0
7
Standard
11
1395002.65258161
21
360154.139119073
31
0.0
210
0.0
220
0.0
230
1.0
71
0
72
0
100
AcDbText
73
0
0
POINT
5
61
330
1C
100
AcDbEntity
67
0
8
пробный
62
256
6
ByLayer
370
-1
48
1.0
60
0
100
AcDbPoint
10
1394994.16663227
20
360153.166298139
30
0.0
39
0.0
210
0.0
220
0.0
230
1.0
50
360.0
0
TEXT
5
62
330
1C
100
AcDbEntity
67
0
8
пробный
62
7
6
ByLayer
370
-1
48
1.0
60
0
100
AcDbText
1
32
10
1394994.29576096
20
360153.440737223
30
0.0
40
0.31111111111
41
1.0
50
0.0
51
0.0
7
Standard
11
1394994.29576096
21
360153.440737223
31
0.0
210
0.0
220
0.0
230
1.0
71
0
72
0
100
AcDbText
73
0
0
POINT
5
63
330
1C
100
AcDbEntity
67
0
8
пробный
62
256
6
ByLayer
370
-1
48
1.0
60
0
100
AcDbPoint
10
1394986.6290994
20
360151.546046124
30
0.0
39
0.0
210
0.0
220
0.0
230
1.0
50
360.0
0
TEXT
5
64
330
1C
100
AcDbEntity
67
0
8
пробный
62
7
6
ByLayer
370
-1
48
1.0
60
0
100
AcDbText
1
33
10
1394986.75822809
20
360151.820485195
30
0.0
40
0.31111111111
41
1.0
50
0.0
51
0.0
7
Standard
11
1394986.75822809
21
360151.820485195
31
0.0
210
0.0
220
0.0
230
1.0
71
0
72
0
100
AcDbText
73
0
0
POINT
5
65
330
1C
100
AcDbEntity
67
0
8
пробный
62
256
6
ByLayer
370
-1
48
1.0
60
0
100
AcDbPoint
10
1394986.91808246
20
360150.045632397
30
0.0
39
0.0
210
0.0
220
0.0
230
1.0
50
360.0
0
TEXT
5
66
330
1C
100
AcDbEntity
67
0
8
пробный
62
7
6
ByLayer
370
-1
48
1.0
60
0
100
AcDbText
1
34
10
1394987.04721115
20
360150.320071465
30
0.0
40
0.31111111111
41
1.0
50
0.0
51
0.0
7
Standard
11
1394987.04721115
21
360150.320071465
31
0.0
210
0.0
220
0.0
230
1.0
71
0
72
0
100
AcDbText
73
0
0
POINT
5
67
330
1C
100
AcDbEntity
67
0
8
пробный
62
256
6
ByLayer
370
-1
48
1.0
60
0
100
AcDbPoint
10
1395040.29460021
20
360159.642635422
30
0.0
39
0.0
210
0.0
220
0.0
230
1.0
50
360.0
0
TEXT
5
68
330
1C
100
AcDbEntity
67
0
8
пробный
62
7
6
ByLayer
370
-1
48
1.0
60
0
100
AcDbText
1
35
10
1395040.42372888
20
360159.917074592
30
0.0
40
0.31111111111
41
1.0
50
0.0
51
0.0
7
Standard
11
1395040.42372888
21
360159.917074592
31
0.0
210
0.0
220
0.0
230
1.0
71
0
72
0
100
AcDbText
73
0
0
POINT
5
69
330
1C
100
AcDbEntity
67
0
8
пробный
62
256
6
ByLayer
370
-1
48
1.0
60
0
100
AcDbPoint
10
1395024.85714611
20
360163.686994019
30
0.0
39
0.0
210
0.0
220
0.0
230
1.0
50
360.0
0
TEXT
5
6A
330
1C
100
AcDbEntity
67
0
8
пробный
62
7
6
ByLayer
370
-1
48
1.0
60
0
100
AcDbText
1
36
10
1395024.98627477
20
360163.961433159
30
0.0
40
0.31111111111
41
1.0
50
0.0
51
0.0
7
Standard
11
1395024.98627477
21
360163.961433159
31
0.0
210
0.0
220
0.0
230
1.0
71
0
72
0
100
AcDbText
73
0
0
POINT
5
6B
330
1C
100
AcDbEntity
67
0
8
пробный
62
256
6
ByLayer
370
-1
48
1.0
60
0
100
AcDbPoint
10
1395027.88023542
20
360175.226229512
30
0.0
39
0.0
210
0.0
220
0.0
230
1.0
50
360.0
0
TEXT
5
6C
330
1C
100
AcDbEntity
67
0
8
пробный
62
7
6
ByLayer
370
-1
48
1.0
60
0
100
AcDbText
1
37
10
1395028.00936406
20
360175.50066866
30
0.0
40
0.31111111111
41
1.0
50
0.0
51
0.0
7
Standard
11
1395028.00936406
21
360175.50066866
31
0.0
210
0.0
220
0.0
230
1.0
71
0
72
0
100
AcDbText
73
0
0
POINT
5
6D
330
1C
100
AcDbEntity
67
0
8
пробный
62
256
6
ByLayer
370
-1
48
1.0
60
0
100
AcDbPoint
10
1395043.31768976
20
360171.181871345
30
0.0
39
0.0
210
0.0
220
0.0
230
1.0
50
360.0
0
TEXT
5
6E
330
1C
100
AcDbEntity
67
0
8
пробный
62
7
6
ByLayer
370
-1
48
1.0
60
0
100
AcDbText
1
38
10
1395043.4468184
20
360171.45631052
30
0.0
40
0.31111111111
41
1.0
50
0.0
51
0.0
7
Standard
11
1395043.4468184
21
360171.45631052
31
0.0
210
0.0
220
0.0
230
1.0
71
0
72
0
100
AcDbText
73
0
0
POINT
5
6F
330
1C
100
AcDbEntity
67
0
8
пробный
62
256
6
ByLayer
370
-1
48
1.0
60
0
100
AcDbPoint
10
1395062.78959152
20
360166.601282234
30
0.0
39
0.0
210
0.0
220
0.0
230
1.0
50
360.0
0
TEXT
5
70
330
1C
100
AcDbEntity
67
0
8
пробный
62
7
6
ByLayer
370
-1
48
1.0
60
0
100
AcDbText
1
39
10
1395062.91872018
20
360166.875721443
30
0.0
40
0.31111111111
41
1.0
50
0.0
51
0.0
7
Standard
11
1395062.91872018
21
360166.875721443
31
0.0
210
0.0
220
0.0
230
1.0
71
0
72
0
100
AcDbText
73
0
0
POINT
5
71
330
1C
100
AcDbEntity
67
0
8
пробный
62
256
6
ByLayer
370
-1
48
1.0
60
0
100
AcDbPoint
10
1395053.1877118
20
360168.652548246
30
0.0
39
0.0
210
0.0
220
0.0
230
1.0
50
360.0
0
TEXT
5
72
330
1C
100
AcDbEntity
67
0
8
пробный
62
7
6
ByLayer
370
-1
48
1.0
60
0
100
AcDbText
1
40
10
1395053.31684045
20
360168.926987438
30
0.0
40
0.31111111111
41
1.0
50
0.0
51
0.0
7
Standard
11
1395053.31684045
21
360168.926987438
31
0.0
210
0.0
220
0.0
230
1.0
71
0
72
0
100
AcDbText
73
0
0
POINT
5
73
330
1C
100
AcDbEntity
67
0
8
пробный
62
256
6
ByLayer
370
-1
48
1.0
60
0
100
AcDbPoint
10
1395051.34467982
20
360160.025402569
30
0.0
39
0.0
210
0.0
220
0.0
230
1.0
50
360.0
0
TEXT
5
74
330
1C
100
AcDbEntity
67
0
8
пробный
62
7
6
ByLayer
370
-1
48
1.0
60
0
100
AcDbText
1
41
10
1395051.47380848
20
360160.299841759
30
0.0
40
0.31111111111
41
1.0
50
0.0
51
0.0
7
Standard
11
1395051.47380848
21
360160.299841759
31
0.0
210
0.0
220
0.0
230
1.0
71
0
72
0
100
AcDbText
73
0
0
POINT
5
75
330
1C
100
AcDbEntity
67
0
8
пробный
62
256
6
ByLayer
370
-1
48
1.0
60
0
100
AcDbPoint
10
1395060.94655945
20
360157.974136356
30
0.0
39
0.0
210
0.0
220
0.0
230
1.0
50
360.0
0
TEXT
5
76
330
1C
100
AcDbEntity
67
0
8
пробный
62
7
6
ByLayer
370
-1
48
1.0
60
0
100
AcDbText
1
42
10
1395061.07568812
20
360158.24857556
30
0.0
40
0.31111111111
41
1.0
50
0.0
51
0.0
7
Standard
11
1395061.07568812
21
360158.24857556
31
0.0
210
0.0
220
0.0
230
1.0
71
0
72
0
100
AcDbText
73
0
0
POINT
5
77
330
1C
100
AcDbEntity
67
0
8
пробный
62
256
6
ByLayer
370
-1
48
1.0
60
0
100
AcDbPoint
10
1395066.38068356
20
360166.334830644
30
0.0
39
0.0
210
0.0
220
0.0
230
1.0
50
360.0
0
TEXT
5
78
330
1C
100
AcDbEntity
67
0
8
пробный
62
7
6
ByLayer
370
-1
48
1.0
60
0
100
AcDbText
1
43
10
1395066.50981221
20
360166.60926986
30
0.0
40
0.31111111111
41
1.0
50
0.0
51
0.0
7
Standard
11
1395066.50981221
21
360166.60926986
31
0.0
210
0.0
220
0.0
230
1.0
71
0
72
0
100
AcDbText
73
0
0
POINT
5
79
330
1C
100
AcDbEntity
67
0
8
пробный
62
256
6
ByLayer
370
-1
48
1.0
60
0
100
AcDbPoint
10
1395065.93244085
20
360164.346656585
30
0.0
39
0.0
210
0.0
220
0.0
230
1.0
50
360.0
0
TEXT
5
7A
330
1C
100
AcDbEntity
67
0
8
пробный
62
7
6
ByLayer
370
-1
48
1.0
60
0
100
AcDbText
1
44
10
1395066.06156951
20
360164.621095803
30
0.0
40
0.31111111111
41
1.0
50
0.0
51
0.0
7
Standard
11
1395066.06156951
21
360164.621095803
31
0.0
210
0.0
220
0.0
230
1.0
71
0
72
0
100
AcDbText
73
0
0
POINT
5
7B
330
1C
100
AcDbEntity
67
0
8
пробный
62
256
6
ByLayer
370
-1
48
1.0
60
0
100
AcDbPoint
10
1395062.49278738
20
360165.21195603
30
0.0
39
0.0
210
0.0
220
0.0
230
1.0
50
360.0
0
TEXT
5
7C
330
1C
100
AcDbEntity
67
0
8
пробный
62
7
6
ByLayer
370
-1
48
1.0
60
0
100
AcDbText
1
45
10
1395062.62191604
20
360165.48639524
30
0.0
40
0.31111111111
41
1.0
50
0.0
51
0.0
7
Standard
11
1395062.62191604
21
360165.48639524
31
0.0
210
0.0
220
0.0
230
1.0
71
0
72
0
100
AcDbText
73
0
0
POINT
5
7D
330
1C
100
AcDbEntity
67
0
8
пробный
62
256
6
ByLayer
370
-1
48
1.0
60
0
100
AcDbPoint
10
1395061.63515534
20
360161.197421027
30
0.0
39
0.0
210
0.0
220
0.0
230
1.0
50
360.0
0
TEXT
5
7E
330
1C
100
AcDbEntity
67
0
8
пробный
62
7
6
ByLayer
370
-1
48
1.0
60
0
100
AcDbText
1
46
10
1395061.76428401
20
360161.471860234
30
0.0
40
0.31111111111
41
1.0
50
0.0
51
0.0
7
Standard
11
1395061.76428401
21
360161.471860234
31
0.0
210
0.0
220
0.0
230
1.0
71
0
72
0
100
AcDbText
73
0
0
POINT
5
7F
330
1C
100
AcDbEntity
67
0
8
пробный
62
256
6
ByLayer
370
-1
48
1.0
60
0
100
AcDbPoint
10
1395065.60253728
20
360160.09622733
30
0.0
39
0.0
210
0.0
220
0.0
230
1.0
50
360.0
0
TEXT
5
80
330
1C
100
AcDbEntity
67
0
8
пробный
62
7
6
ByLayer
370
-1
48
1.0
60
0
100
AcDbText
1
47
10
1395065.73166595
20
360160.370666543
30
0.0
40
0.31111111111
41
1.0
50
0.0
51
0.0
7
Standard
11
1395065.73166595
21
360160.370666543
31
0.0
210
0.0
220
0.0
230
1.0
71
0
72
0
100
AcDbText
73
0
0
POINT
5
81
330
1C
100
AcDbEntity
67
0
8
пробный
62
256
6
ByLayer
370
-1
48
1.0
60
0
100
AcDbPoint
10
1395067.0439391
20
360151.364428487
30
0.0
39
0.0
210
0.0
220
0.0
230
1.0
50
360.0
0
TEXT
5
82
330
1C
100
AcDbEntity
67
0
8
пробный
62
7
6
ByLayer
370
-1
48
1.0
60
0
100
AcDbText
1
48
10
1395067.17306779
20
360151.638867707
30
0.0
40
0.31111111111
41
1.0
50
0.0
51
0.0
7
Standard
11
1395067.17306779
21
360151.638867707
31
0.0
210
0.0
220
0.0
230
1.0
71
0
72
0
100
AcDbText
73
0
0
POINT
5
83
330
1C
100
AcDbEntity
67
0
8
пробный
62
256
6
ByLayer
370
-1
48
1.0
60
0
100
AcDbPoint
10
1395084.70314686
20
360155.080283169
30
0.0
39
0.0
210
0.0
220
0.0
230
1.0
50
360.0
0
TEXT
5
84
330
1C
100
AcDbEntity
67
0
8
пробный
62
7
6
ByLayer
370
-1
48
1.0
60
0
100
AcDbText
1
49
10
1395084.83227554
20
360155.35472242
30
0.0
40
0.31111111111
41
1.0
50
0.0
51
0.0
7
Standard
11
1395084.83227554
21
360155.35472242
31
0.0
210
0.0
220
0.0
230
1.0
71
0
72
0
100
AcDbText
73
0
0
POINT
5
85
330
1C
100
AcDbEntity
67
0
8
пробный
62
256
6
ByLayer
370
-1
48
1.0
60
0
100
AcDbPoint
10
1395083.23692266
20
360162.404164842
30
0.0
39
0.0
210
0.0
220
0.0
230
1.0
50
360.0
0
TEXT
5
86
330
1C
100
AcDbEntity
67
0
8
пробный
62
7
6
ByLayer
370
-1
48
1.0
60
0
100
AcDbText
1
50
10
1395083.36605132
20
360162.678604089
30
0.0
40
0.31111111111
41
1.0
50
0.0
51
0.0
7
Standard
11
1395083.36605132
21
360162.678604089
31
0.0
210
0.0
220
0.0
230
1.0
71
0
72
0
100
AcDbText
73
0
0
POINT
5
87
330
1C
100
AcDbEntity
67
0
8
пробный
62
256
6
ByLayer
370
-1
48
1.0
60
0
100
AcDbPoint
10
1394950.86230264
20
360095.728822085
30
0.0
39
0.0
210
0.0
220
0.0
230
1.0
50
360.0
0
TEXT
5
88
330
1C
100
AcDbEntity
67
0
8
пробный
62
7
6
ByLayer
370
-1
48
1.0
60
0
100
AcDbText
1
51
10
1394950.99143143
20
360096.003261092
30
0.0
40
0.31111111111
41
1.0
50
0.0
51
0.0
7
Standard
11
1394950.99143143
21
360096.003261092
31
0.0
210
0.0
220
0.0
230
1.0
71
0
72
0
100
AcDbText
73
0
0
POINT
5
89
330
1C
100
AcDbEntity
67
0
8
пробный
62
256
6
ByLayer
370
-1
48
1.0
60
0
100
AcDbPoint
10
1394956.47791293
20
360096.917759689
30
0.0
39
0.0
210
0.0
220
0.0
230
1.0
50
360.0
0
TEXT
5
8A
330
1C
100
AcDbEntity
67
0
8
пробный
62
7
6
ByLayer
370
-1
48
1.0
60
0
100
AcDbText
1
52
10
1394956.60704172
20
360097.192198706
30
0.0
40
0.31111111111
41
1.0
50
0.0
51
0.0
7
Standard
11
1394956.60704172
21
360097.192198706
31
0.0
210
0.0
220
0.0
230
1.0
71
0
72
0
100
AcDbText
73
0
0
POINT
5
8B
330
1C
100
AcDbEntity
67
0
8
пробный
62
256
6
ByLayer
370
-1
48
1.0
60
0
100
AcDbPoint
10
1394956.57420542
20
360096.462949418
30
0.0
39
0.0
210
0.0
220
0.0
230
1.0
50
360.0
0
TEXT
5
8C
330
1C
100
AcDbEntity
67
0
8
пробный
62
7
6
ByLayer
370
-1
48
1.0
60
0
100
AcDbText
1
53
10
1394956.7033342
20
360096.737388434
30
0.0
40
0.31111111111
41
1.0
50
0.0
51
0.0
7
Standard
11
1394956.7033342
21
360096.737388434
31
0.0
210
0.0
220
0.0
230
1.0
71
0
72
0
100
AcDbText
73
0
0
POINT
5
8D
330
1C
100
AcDbEntity
67
0
8
пробный
62
256
6
ByLayer
370
-1
48
1.0
60
0
100
AcDbPoint
10
1394970.02050724
20
360099.47150134
30
0.0
39
0.0
210
0.0
220
0.0
230
1.0
50
360.0
0
TEXT
5
8E
330
1C
100
AcDbEntity
67
0
8
пробный
62
7
6
ByLayer
370
-1
48
1.0
60
0
100
AcDbText
1
54
10
1394970.14963602
20
360099.745940385
30
0.0
40
0.31111111111
41
1.0
50
0.0
51
0.0
7
Standard
11
1394970.14963602
21
360099.745940385
31
0.0
210
0.0
220
0.0
230
1.0
71
0
72
0
100
AcDbText
73
0
0
POINT
5
8F
330
1C
100
AcDbEntity
67
0
8
пробный
62
256
6
ByLayer
370
-1
48
1.0
60
0
100
AcDbPoint
10
1394969.91261008
20
360100.112151676
30
0.0
39
0.0
210
0.0
220
0.0
230
1.0
50
360.0
0
TEXT
5
90
330
1C
100
AcDbEntity
67
0
8
пробный
62
7
6
ByLayer
370
-1
48
1.0
60
0
100
AcDbText
1
55
10
1394970.04173886
20
360100.386590717
30
0.0
40
0.31111111111
41
1.0
50
0.0
51
0.0
7
Standard
11
1394970.04173886
21
360100.386590717
31
0.0
210
0.0
220
0.0
230
1.0
71
0
72
0
100
AcDbText
73
0
0
POINT
5
91
330
1C
100
AcDbEntity
67
0
8
пробный
62
256
6
ByLayer
370
-1
48
1.0
60
0
100
AcDbPoint
10
1394986.10606633
20
360103.459847552
30
0.0
39
0.0
210
0.0
220
0.0
230
1.0
50
360.0
0
TEXT
5
92
330
1C
100
AcDbEntity
67
0
8
пробный
62
7
6
ByLayer
370
-1
48
1.0
60
0
100
AcDbText
1
56
10
1394986.2351951
20
360103.734286623
30
0.0
40
0.31111111111
41
1.0
50
0.0
51
0.0
7
Standard
11
1394986.2351951
21
360103.734286623
31
0.0
210
0.0
220
0.0
230
1.0
71
0
72
0
100
AcDbText
73
0
0
POINT
5
93
330
1C
100
AcDbEntity
67
0
8
пробный
62
256
6
ByLayer
370
-1
48
1.0
60
0
100
AcDbPoint
10
1394985.94051687
20
360104.190587173
30
0.0
39
0.0
210
0.0
220
0.0
230
1.0
50
360.0
0
TEXT
5
94
330
1C
100
AcDbEntity
67
0
8
пробный
62
7
6
ByLayer
370
-1
48
1.0
60
0
100
AcDbText
1
57
10
1394986.06964564
20
360104.465026246
30
0.0
40
0.31111111111
41
1.0
50
0.0
51
0.0
7
Standard
11
1394986.06964564
21
360104.465026246
31
0.0
210
0.0
220
0.0
230
1.0
71
0
72
0
100
AcDbText
73
0
0
POINT
5
95
330
1C
100
AcDbEntity
67
0
8
пробный
62
256
6
ByLayer
370
-1
48
1.0
60
0
100
AcDbPoint
10
1394992.30970776
20
360105.523030544
30
0.0
39
0.0
210
0.0
220
0.0
230
1.0
50
360.0
0
TEXT
5
96
330
1C
100
AcDbEntity
67
0
8
пробный
62
7
6
ByLayer
370
-1
48
1.0
60
0
100
AcDbText
1
58
10
1394992.43883653
20
360105.797469627
30
0.0
40
0.31111111111
41
1.0
50
0.0
51
0.0
7
Standard
11
1394992.43883653
21
360105.797469627
31
0.0
210
0.0
220
0.0
230
1.0
71
0
72
0
100
AcDbText
73
0
0
POINT
5
97
330
1C
100
AcDbEntity
67
0
8
пробный
62
256
6
ByLayer
370
-1
48
1.0
60
0
100
AcDbPoint
10
1394989.90756088
20
360116.936627902
30
0.0
39
0.0
210
0.0
220
0.0
230
1.0
50
360.0
0
TEXT
5
98
330
1C
100
AcDbEntity
67
0
8
пробный
62
7
6
ByLayer
370
-1
48
1.0
60
0
100
AcDbText
1
59
10
1394990.03668962
20
360117.21106698
30
0.0
40
0.31111111111
41
1.0
50
0.0
51
0.0
7
Standard
11
1394990.03668962
21
360117.21106698
31
0.0
210
0.0
220
0.0
230
1.0
71
0
72
0
100
AcDbText
73
0
0
POINT
5
99
330
1C
100
AcDbEntity
67
0
8
пробный
62
256
6
ByLayer
370
-1
48
1.0
60
0
100
AcDbPoint
10
1394970.22928754
20
360112.784084934
30
0.0
39
0.0
210
0.0
220
0.0
230
1.0
50
360.0
0
TEXT
5
9A
330
1C
100
AcDbEntity
67
0
8
пробный
62
7
6
ByLayer
370
-1
48
1.0
60
0
100
AcDbText
1
60
10
1394970.3584163
20
360113.058523977
30
0.0
40
0.31111111111
41
1.0
50
0.0
51
0.0
7
Standard
11
1394970.3584163
21
360113.058523977
31
0.0
210
0.0
220
0.0
230
1.0
71
0
72
0
100
AcDbText
73
0
0
POINT
5
9B
330
1C
100
AcDbEntity
67
0
8
пробный
62
256
6
ByLayer
370
-1
48
1.0
60
0
100
AcDbPoint
10
1394967.17046257
20
360112.383676896
30
0.0
39
0.0
210
0.0
220
0.0
230
1.0
50
360.0
0
TEXT
5
9C
330
1C
100
AcDbEntity
67
0
8
пробный
62
7
6
ByLayer
370
-1
48
1.0
60
0
100
AcDbText
1
61
10
1394967.29959133
20
360112.65811593
30
0.0
40
0.31111111111
41
1.0
50
0.0
51
0.0
7
Standard
11
1394967.29959133
21
360112.65811593
31
0.0
210
0.0
220
0.0
230
1.0
71
0
72
0
100
AcDbText
73
0
0
POINT
5
9D
330
1C
100
AcDbEntity
67
0
8
пробный
62
256
6
ByLayer
370
-1
48
1.0
60
0
100
AcDbPoint
10
1394948.38654762
20
360108.176074293
30
0.0
39
0.0
210
0.0
220
0.0
230
1.0
50
360.0
0
TEXT
5
9E
330
1C
100
AcDbEntity
67
0
8
пробный
62
7
6
ByLayer
370
-1
48
1.0
60
0
100
AcDbText
1
62
10
1394948.51567639
20
360108.450513294
30
0.0
40
0.31111111111
41
1.0
50
0.0
51
0.0
7
Standard
11
1394948.51567639
21
360108.450513294
31
0.0
210
0.0
220
0.0
230
1.0
71
0
72
0
100
AcDbText
73
0
0
POINT
5
9F
330
1C
100
AcDbEntity
67
0
8
пробный
62
256
6
ByLayer
370
-1
48
1.0
60
0
100
AcDbPoint
10
1394967.5358566
20
360010.716683553
30
0.0
39
0.0
210
0.0
220
0.0
230
1.0
50
360.0
0
TEXT
5
A0
330
1C
100
AcDbEntity
67
0
8
пробный
62
7
6
ByLayer
370
-1
48
1.0
60
0
100
AcDbText
1
63
10
1394967.66498554
20
360010.991122596
30
0.0
40
0.31111111111
41
1.0
50
0.0
51
0.0
7
Standard
11
1394967.66498554
21
360010.991122596
31
0.0
210
0.0
220
0.0
230
1.0
71
0
72
0
100
AcDbText
73
0
0
POINT
5
A1
330
1C
100
AcDbEntity
67
0
8
пробный
62
256
6
ByLayer
370
-1
48
1.0
60
0
100
AcDbPoint
10
1394987.29966332
20
360005.597472332
30
0.0
39
0.0
210
0.0
220
0.0
230
1.0
50
360.0
0
TEXT
5
A2
330
1C
100
AcDbEntity
67
0
8
пробный
62
7
6
ByLayer
370
-1
48
1.0
60
0
100
AcDbText
1
64
10
1394987.42879227
20
360005.871911411
30
0.0
40
0.31111111111
41
1.0
50
0.0
51
0.0
7
Standard
11
1394987.42879227
21
360005.871911411
31
0.0
210
0.0
220
0.0
230
1.0
71
0
72
0
100
AcDbText
73
0
0
POINT
5
A3
330
1C
100
AcDbEntity
67
0
8
пробный
62
256
6
ByLayer
370
-1
48
1.0
60
0
100
AcDbPoint
10
1394987.57131367
20
360006.705215268
30
0.0
39
0.0
210
0.0
220
0.0
230
1.0
50
360.0
0
TEXT
5
A4
330
1C
100
AcDbEntity
67
0
8
пробный
62
7
6
ByLayer
370
-1
48
1.0
60
0
100
AcDbText
1
65
10
1394987.70044262
20
360006.979654346
30
0.0
40
0.31111111111
41
1.0
50
0.0
51
0.0
7
Standard
11
1394987.70044262
21
360006.979654346
31
0.0
210
0.0
220
0.0
230
1.0
71
0
72
0
100
AcDbText
73
0
0
POINT
5
A5
330
1C
100
AcDbEntity
67
0
8
пробный
62
256
6
ByLayer
370
-1
48
1.0
60
0
100
AcDbPoint
10
1394995.13965303
20
360004.878578979
30
0.0
39
0.0
210
0.0
220
0.0
230
1.0
50
360.0
0
TEXT
5
A6
330
1C
100
AcDbEntity
67
0
8
пробный
62
7
6
ByLayer
370
-1
48
1.0
60
0
100
AcDbText
1
66
10
1394995.26878198
20
360005.153018068
30
0.0
40
0.31111111111
41
1.0
50
0.0
51
0.0
7
Standard
11
1394995.26878198
21
360005.153018068
31
0.0
210
0.0
220
0.0
230
1.0
71
0
72
0
100
AcDbText
73
0
0
POINT
5
A7
330
1C
100
AcDbEntity
67
0
8
пробный
62
256
6
ByLayer
370
-1
48
1.0
60
0
100
AcDbPoint
10
1394996.49560025
20
360010.727690759
30
0.0
39
0.0
210
0.0
220
0.0
230
1.0
50
360.0
0
TEXT
5
A8
330
1C
100
AcDbEntity
67
0
8
пробный
62
7
6
ByLayer
370
-1
48
1.0
60
0
100
AcDbText
1
67
10
1394996.62472919
20
360011.002129851
30
0.0
40
0.31111111111
41
1.0
50
0.0
51
0.0
7
Standard
11
1394996.62472919
21
360011.002129851
31
0.0
210
0.0
220
0.0
230
1.0
71
0
72
0
100
AcDbText
73
0
0
POINT
5
A9
330
1C
100
AcDbEntity
67
0
8
пробный
62
256
6
ByLayer
370
-1
48
1.0
60
0
100
AcDbPoint
10
1394992.39293643
20
360011.679738799
30
0.0
39
0.0
210
0.0
220
0.0
230
1.0
50
360.0
0
TEXT
5
AA
330
1C
100
AcDbEntity
67
0
8
пробный
62
7
6
ByLayer
370
-1
48
1.0
60
0
100
AcDbText
1
68
10
1394992.52206537
20
360011.954177884
30
0.0
40
0.31111111111
41
1.0
50
0.0
51
0.0
7
Standard
11
1394992.52206537
21
360011.954177884
31
0.0
210
0.0
220
0.0
230
1.0
71
0
72
0
100
AcDbText
73
0
0
POINT
5
AB
330
1C
100
AcDbEntity
67
0
8
пробный
62
256
6
ByLayer
370
-1
48
1.0
60
0
100
AcDbPoint
10
1394993.65465838
20
360017.116881676
30
0.0
39
0.0
210
0.0
220
0.0
230
1.0
50
360.0
0
TEXT
5
AC
330
1C
100
AcDbEntity
67
0
8
пробный
62
7
6
ByLayer
370
-1
48
1.0
60
0
100
AcDbText
1
69
10
1394993.78378731
20
360017.391320763
30
0.0
40
0.31111111111
41
1.0
50
0.0
51
0.0
7
Standard
11
1394993.78378731
21
360017.391320763
31
0.0
210
0.0
220
0.0
230
1.0
71
0
72
0
100
AcDbText
73
0
0
POINT
5
AD
330
1C
100
AcDbEntity
67
0
8
пробный
62
256
6
ByLayer
370
-1
48
1.0
60
0
100
AcDbPoint
10
1394970.53192202
20
360022.92111553
30
0.0
39
0.0
210
0.0
220
0.0
230
1.0
50
360.0
0
TEXT
5
AE
330
1C
100
AcDbEntity
67
0
8
пробный
62
7
6
ByLayer
370
-1
48
1.0
60
0
100
AcDbText
1
70
10
1394970.66105094
20
360023.195554574
30
0.0
40
0.31111111111
41
1.0
50
0.0
51
0.0
7
Standard
11
1394970.66105094
21
360023.195554574
31
0.0
210
0.0
220
0.0
230
1.0
71
0
72
0
100
AcDbText
73
0
0
POINT
5
AF
330
1C
100
AcDbEntity
67
0
8
пробный
62
256
6
ByLayer
370
-1
48
1.0
60
0
100
AcDbPoint
10
1395003.07626478
20
360009.293166764
30
0.0
39
0.0
210
0.0
220
0.0
230
1.0
50
360.0
0
TEXT
5
B0
330
1C
100
AcDbEntity
67
0
8
пробный
62
7
6
ByLayer
370
-1
48
1.0
60
0
100
AcDbText
1
71
10
1395003.20539373
20
360009.567605868
30
0.0
40
0.31111111111
41
1.0
50
0.0
51
0.0
7
Standard
11
1395003.20539373
21
360009.567605868
31
0.0
210
0.0
220
0.0
230
1.0
71
0
72
0
100
AcDbText
73
0
0
POINT
5
B1
330
1C
100
AcDbEntity
67
0
8
пробный
62
256
6
ByLayer
370
-1
48
1.0
60
0
100
AcDbPoint
10
1395003.31579598
20
360010.38807452
30
0.0
39
0.0
210
0.0
220
0.0
230
1.0
50
360.0
0
TEXT
5
B2
330
1C
100
AcDbEntity
67
0
8
пробный
62
7
6
ByLayer
370
-1
48
1.0
60
0
100
AcDbText
1
72
10
1395003.44492492
20
360010.662513624
30
0.0
40
0.31111111111
41
1.0
50
0.0
51
0.0
7
Standard
11
1395003.44492492
21
360010.662513624
31
0.0
210
0.0
220
0.0
230
1.0
71
0
72
0
100
AcDbText
73
0
0
POINT
5
B3
330
1C
100
AcDbEntity
67
0
8
пробный
62
256
6
ByLayer
370
-1
48
1.0
60
0
100
AcDbPoint
10
1395006.75897845
20
360009.634815073
30
0.0
39
0.0
210
0.0
220
0.0
230
1.0
50
360.0
0
TEXT
5
B4
330
1C
100
AcDbEntity
67
0
8
пробный
62
7
6
ByLayer
370
-1
48
1.0
60
0
100
AcDbText
1
73
10
1395006.88810739
20
360009.909254185
30
0.0
40
0.31111111111
41
1.0
50
0.0
51
0.0
7
Standard
11
1395006.88810739
21
360009.909254185
31
0.0
210
0.0
220
0.0
230
1.0
71
0
72
0
100
AcDbText
73
0
0
POINT
5
B5
330
1C
100
AcDbEntity
67
0
8
пробный
62
256
6
ByLayer
370
-1
48
1.0
60
0
100
AcDbPoint
10
1395006.52059748
20
360008.54516506
30
0.0
39
0.0
210
0.0
220
0.0
230
1.0
50
360.0
0
TEXT
5
B6
330
1C
100
AcDbEntity
67
0
8
пробный
62
7
6
ByLayer
370
-1
48
1.0
60
0
100
AcDbText
1
74
10
1395006.64972643
20
360008.819604171
30
0.0
40
0.31111111111
41
1.0
50
0.0
51
0.0
7
Standard
11
1395006.64972643
21
360008.819604171
31
0.0
210
0.0
220
0.0
230
1.0
71
0
72
0
100
AcDbText
73
0
0
POINT
5
B7
330
1C
100
AcDbEntity
67
0
8
пробный
62
256
6
ByLayer
370
-1
48
1.0
60
0
100
AcDbPoint
10
1395013.17807381
20
360007.149472799
30
0.0
39
0.0
210
0.0
220
0.0
230
1.0
50
360.0
0
TEXT
5
B8
330
1C
100
AcDbEntity
67
0
8
пробный
62
7
6
ByLayer
370
-1
48
1.0
60
0
100
AcDbText
1
75
10
1395013.30720276
20
360007.423911919
30
0.0
40
0.31111111111
41
1.0
50
0.0
51
0.0
7
Standard
11
1395013.30720276
21
360007.423911919
31
0.0
210
0.0
220
0.0
230
1.0
71
0
72
0
100
AcDbText
73
0
0
POINT
5
B9
330
1C
100
AcDbEntity
67
0
8
пробный
62
256
6
ByLayer
370
-1
48
1.0
60
0
100
AcDbPoint
10
1395013.76596196
20
360010.901683053
30
0.0
39
0.0
210
0.0
220
0.0
230
1.0
50
360.0
0
TEXT
5
BA
330
1C
100
AcDbEntity
67
0
8
пробный
62
7
6
ByLayer
370
-1
48
1.0
60
0
100
AcDbText
1
76
10
1395013.8950909
20
360011.176122179
30
0.0
40
0.31111111111
41
1.0
50
0.0
51
0.0
7
Standard
11
1395013.8950909
21
360011.176122179
31
0.0
210
0.0
220
0.0
230
1.0
71
0
72
0
100
AcDbText
73
0
0
POINT
5
BB
330
1C
100
AcDbEntity
67
0
8
пробный
62
256
6
ByLayer
370
-1
48
1.0
60
0
100
AcDbPoint
10
1395017.57186429
20
360010.069071975
30
0.0
39
0.0
210
0.0
220
0.0
230
1.0
50
360.0
0
TEXT
5
BC
330
1C
100
AcDbEntity
67
0
8
пробный
62
7
6
ByLayer
370
-1
48
1.0
60
0
100
AcDbText
1
77
10
1395017.70099323
20
360010.343511105
30
0.0
40
0.31111111111
41
1.0
50
0.0
51
0.0
7
Standard
11
1395017.70099323
21
360010.343511105
31
0.0
210
0.0
220
0.0
230
1.0
71
0
72
0
100
AcDbText
73
0
0
POINT
5
BD
330
1C
100
AcDbEntity
67
0
8
пробный
62
256
6
ByLayer
370
-1
48
1.0
60
0
100
AcDbPoint
10
1395017.1233203
20
360008.002783229
30
0.0
39
0.0
210
0.0
220
0.0
230
1.0
50
360.0
0
TEXT
5
BE
330
1C
100
AcDbEntity
67
0
8
пробный
62
7
6
ByLayer
370
-1
48
1.0
60
0
100
AcDbText
1
78
10
1395017.25244924
20
360008.277222358
30
0.0
40
0.31111111111
41
1.0
50
0.0
51
0.0
7
Standard
11
1395017.25244924
21
360008.277222358
31
0.0
210
0.0
220
0.0
230
1.0
71
0
72
0
100
AcDbText
73
0
0
POINT
5
BF
330
1C
100
AcDbEntity
67
0
8
пробный
62
256
6
ByLayer
370
-1
48
1.0
60
0
100
AcDbPoint
10
1395027.42599994
20
360005.766307207
30
0.0
39
0.0
210
0.0
220
0.0
230
1.0
50
360.0
0
TEXT
5
C0
330
1C
100
AcDbEntity
67
0
8
пробный
62
7
6
ByLayer
370
-1
48
1.0
60
0
100
AcDbText
1
79
10
1395027.55512889
20
360006.040746359
30
0.0
40
0.31111111111
41
1.0
50
0.0
51
0.0
7
Standard
11
1395027.55512889
21
360006.040746359
31
0.0
210
0.0
220
0.0
230
1.0
71
0
72
0
100
AcDbText
73
0
0
POINT
5
C1
330
1C
100
AcDbEntity
67
0
8
пробный
62
256
6
ByLayer
370
-1
48
1.0
60
0
100
AcDbPoint
10
1395025.14640365
20
359993.214617995
30
0.0
39
0.0
210
0.0
220
0.0
230
1.0
50
360.0
0
TEXT
5
C2
330
1C
100
AcDbEntity
67
0
8
пробный
62
7
6
ByLayer
370
-1
48
1.0
60
0
100
AcDbText
1
80
10
1395025.27553262
20
359993.489057138
30
0.0
40
0.31111111111
41
1.0
50
0.0
51
0.0
7
Standard
11
1395025.27553262
21
359993.489057138
31
0.0
210
0.0
220
0.0
230
1.0
71
0
72
0
100
AcDbText
73
0
0
POINT
5
C3
330
1C
100
AcDbEntity
67
0
8
пробный
62
256
6
ByLayer
370
-1
48
1.0
60
0
100
AcDbPoint
10
1394993.87844842
20
359999.438156139
30
0.0
39
0.0
210
0.0
220
0.0
230
1.0
50
360.0
0
TEXT
5
C4
330
1C
100
AcDbEntity
67
0
8
пробный
62
7
6
ByLayer
370
-1
48
1.0
60
0
100
AcDbText
1
81
10
1394994.00757738
20
359999.712595223
30
0.0
40
0.31111111111
41
1.0
50
0.0
51
0.0
7
Standard
11
1394994.00757738
21
359999.712595223
31
0.0
210
0.0
220
0.0
230
1.0
71
0
72
0
100
AcDbText
73
0
0
POINT
5
C5
330
1C
100
AcDbEntity
67
0
8
пробный
62
256
6
ByLayer
370
-1
48
1.0
60
0
100
AcDbPoint
10
1395094.73432496
20
360021.336907004
30
0.0
39
0.0
210
0.0
220
0.0
230
1.0
50
360.0
0
TEXT
5
C6
330
1C
100
AcDbEntity
67
0
8
пробный
62
7
6
ByLayer
370
-1
48
1.0
60
0
100
AcDbText
1
82
10
1395094.86345389
20
360021.611346273
30
0.0
40
0.31111111111
41
1.0
50
0.0
51
0.0
7
Standard
11
1395094.86345389
21
360021.611346273
31
0.0
210
0.0
220
0.0
230
1.0
71
0
72
0
100
AcDbText
73
0
0
POINT
5
C7
330
1C
100
AcDbEntity
67
0
8
пробный
62
256
6
ByLayer
370
-1
48
1.0
60
0
100
AcDbPoint
10
1395108.31890838
20
360017.835055705
30
0.0
39
0.0
210
0.0
220
0.0
230
1.0
50
360.0
0
TEXT
5
C8
330
1C
100
AcDbEntity
67
0
8
пробный
62
7
6
ByLayer
370
-1
48
1.0
60
0
100
AcDbText
1
83
10
1395108.4480373
20
360018.109495004
30
0.0
40
0.31111111111
41
1.0
50
0.0
51
0.0
7
Standard
11
1395108.4480373
21
360018.109495004
31
0.0
210
0.0
220
0.0
230
1.0
71
0
72
0
100
AcDbText
73
0
0
POINT
5
C9
330
1C
100
AcDbEntity
67
0
8
пробный
62
256
6
ByLayer
370
-1
48
1.0
60
0
100
AcDbPoint
10
1395115.17063136
20
360045.874722806
30
0.0
39
0.0
210
0.0
220
0.0
230
1.0
50
360.0
0
TEXT
5
CA
330
1C
100
AcDbEntity
67
0
8
пробный
62
7
6
ByLayer
370
-1
48
1.0
60
0
100
AcDbText
1
84
10
1395115.29976023
20
360046.149162112
30
0.0
40
0.31111111111
41
1.0
50
0.0
51
0.0
7
Standard
11
1395115.29976023
21
360046.149162112
31
0.0
210
0.0
220
0.0
230
1.0
71
0
72
0
100
AcDbText
73
0
0
POINT
5
CB
330
1C
100
AcDbEntity
67
0
8
пробный
62
256
6
ByLayer
370
-1
48
1.0
60
0
100
AcDbPoint
10
1395100.9662074
20
360046.960001274
30
0.0
39
0.0
210
0.0
220
0.0
230
1.0
50
360.0
0
TEXT
5
CC
330
1C
100
AcDbEntity
67
0
8
пробный
62
7
6
ByLayer
370
-1
48
1.0
60
0
100
AcDbText
1
85
10
1395101.09533627
20
360047.234440557
30
0.0
40
0.31111111111
41
1.0
50
0.0
51
0.0
7
Standard
11
1395101.09533627
21
360047.234440557
31
0.0
210
0.0
220
0.0
230
1.0
71
0
72
0
100
AcDbText
73
0
0
LWPOLYLINE
5
CD
330
1C
100
AcDbEntity
67
0
8
пробный
62
7
6
ByLayer
370
20
48
1.0
60
0
100
AcDbPolyline
90
17
70
1
38
0.0
39
0.0
10
1394927.81757402
20
360181.882636595
40
0.0
41
0.0
42
0.0
10
1394925.75952327
20
360173.173640813
40
0.0
41
0.0
42
0.0
10
1394926.02002432
20
360171.173602992
40
0.0
41
0.0
42
0.0
10
1394925.80658809
20
360169.167996589
40
0.0
41
0.0
42
0.0
10
1394925.13100117
20
360167.267577062
40
0.0
41
0.0
42
0.0
10
1394924.03057144
20
360165.577291152
40
0.0
41
0.0
42
0.0
10
1394921.81239794
20
360156.071691711
40
0.0
41
0.0
42
0.0
10
1394909.25155927
20
360159.091446206
40
0.0
41
0.0
42
0.0
10
1394911.80123747
20
360170.231182817
40
0.0
41
0.0
42
0.0
10
1394909.89033184
20
360170.646041012
40
0.0
41
0.0
42
0.0
10
1394911.78539804
20
360178.672244551
40
0.0
41
0.0
42
0.0
10
1394913.43601026
20
360178.38579748
40
0.0
41
0.0
42
0.0
10
1394917.30001914
20
360194.588010534
40
0.0
41
0.0
42
0.0
10
1394921.80441612
20
360197.050519472
40
0.0
41
0.0
42
0.0
10
1394960.91587691
20
360187.291679927
40
0.0
41
0.0
42
0.0
10
1394957.49464072
20
360174.776887174
40
0.0
41
0.0
42
0.0
10
1394927.81757402
20
360181.882636595
40
0.0
41
0.0
42
0.0
210
0.0
220
0.0
230
1.0
0
TEXT
5
CE
330
1C
100
AcDbEntity
67
0
8
пробный
62
7
6
ByLayer
370
-1
48
1.0
60
0
100
AcDbText
1
936,96
10
1394919.93829698
20
360179.851488346
30
0.0
40
0.31111111111
41
1.0
50
0.0
51
0.0
7
Standard
11
1394919.93829698
21
360179.851488346
31
0.0
210
0.0
220
0.0
230
1.0
71
0
72
0
100
AcDbText
73
0
0
LWPOLYLINE
5
CF
330
1C
100
AcDbEntity
67
0
8
пробный
62
7
6
ByLayer
370
20
48
1.0
60
0
100
AcDbPolyline
90
11
70
1
38
0.0
39
0.0
10
1394990.16806149
20
360169.841789967
40
0.0
41
0.0
42
0.0
10
1394989.77920792
20
360168.208076708
40
0.0
41
0.0
42
0.0
10
1394974.47687299
20
360171.850311677
40
0.0
41
0.0
42
0.0
10
1394974.96144332
20
360173.695637319
40
0.0
41
0.0
42
0.0
10
1394963.07906338
20
360176.664014949
40
0.0
41
0.0
42
0.0
10
1394962.34363894
20
360173.878223635
40
0.0
41
0.0
42
0.0
10
1394958.65444328
20
360174.740070633
40
0.0
41
0.0
42
0.0
10
1394963.36277755
20
360192.083279289
40
0.0
41
0.0
42
0.0
10
1395007.58514582
20
360180.603563595
40
0.0
41
0.0
42
0.0
10
1395004.22727723
20
360166.49595322
40
0.0
41
0.0
42
0.0
10
1394990.16806149
20
360169.841789967
40
0.0
41
0.0
42
0.0
210
0.0
220
0.0
230
1.0
0
TEXT
5
D0
330
1C
100
AcDbEntity
67
0
8
пробный
62
7
6
ByLayer
370
-1
48
1.0
60
0
100
AcDbText
1
719,51
10
1394982.46940294
20
360178.665669383
30
0.0
40
0.31111111111
41
1.0
50
0.0
51
0.0
7
Standard
11
1394982.46940294
21
360178.665669383
31
0.0
210
0.0
220
0.0
230
1.0
71
0
72
0
100
AcDbText
73
0
0
LWPOLYLINE
5
D1
330
1C
100
AcDbEntity
67
0
8
пробный
62
7
6
ByLayer
370
20
48
1.0
60
0
100
AcDbPolyline
90
9
70
1
38
0.0
39
0.0
10
1394978.27117017
20
360148.276714441
40
0.0
41
0.0
42
0.0
10
1394986.91808246
20
360150.045632397
40
0.0
41
0.0
42
0.0
10
1394986.6290994
20
360151.546046124
40
0.0
41
0.0
42
0.0
10
1394994.16663227
20
360153.166298139
40
0.0
41
0.0
42
0.0
10
1395002.52345293
20
360153.864679973
40
0.0
41
0.0
42
0.0
10
1395004.0376157
20
360146.316751481
40
0.0
41
0.0
42
0.0
10
1395003.24816167
20
360138.597039691
40
0.0
41
0.0
42
0.0
10
1394980.9510722
20
360134.035675587
40
0.0
41
0.0
42
0.0
10
1394978.27117017
20
360148.276714441
40
0.0
41
0.0
42
0.0
210
0.0
220
0.0
230
1.0
0
TEXT
5
D2
330
1C
100
AcDbEntity
67
0
8
пробный
62
7
6
ByLayer
370
-1
48
1.0
60
0
100
AcDbText
1
374,47
10
1394991.01130112
20
360144.046922626
30
0.0
40
0.31111111111
41
1.0
50
0.0
51
0.0
7
Standard
11
1394991.01130112
21
360144.046922626
31
0.0
210
0.0
220
0.0
230
1.0
71
0
72
0
100
AcDbText
73
0
0
LWPOLYLINE
5
D3
330
1C
100
AcDbEntity
67
0
8
пробный
62
7
6
ByLayer
370
20
48
1.0
60
0
100
AcDbPolyline
90
5
70
1
38
0.0
39
0.0
10
1395040.29460021
20
360159.642635422
40
0.0
41
0.0
42
0.0
10
1395024.85714611
20
360163.686994019
40
0.0
41
0.0
42
0.0
10
1395027.88023542
20
360175.226229512
40
0.0
41
0.0
42
0.0
10
1395043.31768976
20
360171.181871345
40
0.0
41
0.0
42
0.0
10
1395040.29460021
20
360159.642635422
40
0.0
41
0.0
42
0.0
210
0.0
220
0.0
230
1.0
0
TEXT
5
D4
330
1C
100
AcDbEntity
67
0
8
пробный
62
7
6
ByLayer
370
-1
48
1.0
60
0
100
AcDbText
1
190,32
10
1395033.43112088
20
360167.294859665
30
0.0
40
0.31111111111
41
1.0
50
0.0
51
0.0
7
Standard
11
1395033.43112088
21
360167.294859665
31
0.0
210
0.0
220
0.0
230
1.0
71
0
72
0
100
AcDbText
73
0
0
LWPOLYLINE
5
D5
330
1C
100
AcDbEntity
67
0
8
пробный
62
7
6
ByLayer
370
20
48
1.0
60
0
100
AcDbPolyline
90
5
70
1
38
0.0
39
0.0
10
1395062.78959152
20
360166.601282234
40
0.0
41
0.0
42
0.0
10
1395060.94655945
20
360157.974136356
40
0.0
41
0.0
42
0.0
10
1395051.34467982
20
360160.025402569
40
0.0
41
0.0
42
0.0
10
1395053.1877118
20
360168.652548246
40
0.0
41
0.0
42
0.0
10
1395062.78959152
20
360166.601282234
40
0.0
41
0.0
42
0.0
210
0.0
220
0.0
230
1.0
0
TEXT
5
D6
330
1C
100
AcDbEntity
67
0
8
пробный
62
7
6
ByLayer
370
-1
48
1.0
60
0
100
AcDbText
1
86,60
10
1395056.53962187
20
360163.175741365
30
0.0
40
0.31111111111
41
1.0
50
0.0
51
0.0
7
Standard
11
1395056.53962187
21
360163.175741365
31
0.0
210
0.0
220
0.0
230
1.0
71
0
72
0
100
AcDbText
73
0
0
LWPOLYLINE
5
D7
330
1C
100
AcDbEntity
67
0
8
пробный
62
7
6
ByLayer
370
20
48
1.0
60
0
100
AcDbPolyline
90
9
70
1
38
0.0
39
0.0
10
1395066.38068356
20
360166.334830644
40
0.0
41
0.0
42
0.0
10
1395083.23692266
20
360162.404164842
40
0.0
41
0.0
42
0.0
10
1395084.70314686
20
360155.080283169
40
0.0
41
0.0
42
0.0
10
1395067.0439391
20
360151.364428487
40
0.0
41
0.0
42
0.0
10
1395065.60253728
20
360160.09622733
40
0.0
41
0.0
42
0.0
10
1395061.63515534
20
360161.197421027
40
0.0
41
0.0
42
0.0
10
1395062.49278738
20
360165.21195603
40
0.0
41
0.0
42
0.0
10
1395065.93244085
20
360164.346656585
40
0.0
41
0.0
42
0.0
10
1395066.38068356
20
360166.334830644
40
0.0
41
0.0
42
0.0
210
0.0
220
0.0
230
1.0
0
TEXT
5
D8
330
1C
100
AcDbEntity
67
0
8
пробный
62
7
6
ByLayer
370
-1
48
1.0
60
0
100
AcDbText
1
216,62
10
1395072.62267357
20
360158.902879078
30
0.0
40
0.31111111111
41
1.0
50
0.0
51
0.0
7
Standard
11
1395072.62267357
21
360158.902879078
31
0.0
210
0.0
220
0.0
230
1.0
71
0
72
0
100
AcDbText
73
0
0
LWPOLYLINE
5
D9
330
1C
100
AcDbEntity
67
0
8
пробный
62
7
6
ByLayer
370
20
48
1.0
60
0
100
AcDbPolyline
90
13
70
1
38
0.0
39
0.0
10
1394950.86230264
20
360095.728822085
40
0.0
41
0.0
42
0.0
10
1394948.38654762
20
360108.176074293
40
0.0
41
0.0
42
0.0
10
1394967.17046257
20
360112.383676896
40
0.0
41
0.0
42
0.0
10
1394970.22928754
20
360112.784084934
40
0.0
41
0.0
42
0.0
10
1394989.90756088
20
360116.936627902
40
0.0
41
0.0
42
0.0
10
1394992.30970776
20
360105.523030544
40
0.0
41
0.0
42
0.0
10
1394985.94051687
20
360104.190587173
40
0.0
41
0.0
42
0.0
10
1394986.10606633
20
360103.459847552
40
0.0
41
0.0
42
0.0
10
1394969.91261008
20
360100.112151676
40
0.0
41
0.0
42
0.0
10
1394970.02050724
20
360099.47150134
40
0.0
41
0.0
42
0.0
10
1394956.57420542
20
360096.462949418
40
0.0
41
0.0
42
0.0
10
1394956.47791293
20
360096.917759689
40
0.0
41
0.0
42
0.0
10
1394950.86230264
20
360095.728822085
40
0.0
41
0.0
42
0.0
210
0.0
220
0.0
230
1.0
0
TEXT
5
DA
330
1C
100
AcDbEntity
67
0
8
пробный
62
7
6
ByLayer
370
-1
48
1.0
60
0
100
AcDbText
1
535,09
10
1394969.33851422
20
360106.212805586
30
0.0
40
0.31111111111
41
1.0
50
0.0
51
0.0
7
Standard
11
1394969.33851422
21
360106.212805586
31
0.0
210
0.0
220
0.0
230
1.0
71
0
72
0
100
AcDbText
73
0
0
LWPOLYLINE
5
DB
330
1C
100
AcDbEntity
67
0
8
пробный
62
7
6
ByLayer
370
20
48
1.0
60
0
100
AcDbPolyline
90
9
70
1
38
0.0
39
0.0
10
1394967.5358566
20
360010.716683553
40
0.0
41
0.0
42
0.0
10
1394970.53192202
20
360022.92111553
40
0.0
41
0.0
42
0.0
10
1394993.65465838
20
360017.116881676
40
0.0
41
0.0
42
0.0
10
1394992.39293643
20
360011.679738799
40
0.0
41
0.0
42
0.0
10
1394996.49560025
20
360010.727690759
40
0.0
41
0.0
42
0.0
10
1394995.13965303
20
360004.878578979
40
0.0
41
0.0
42
0.0
10
1394987.57131367
20
360006.705215268
40
0.0
41
0.0
42
0.0
10
1394987.29966332
20
360005.597472332
40
0.0
41
0.0
42
0.0
10
1394967.5358566
20
360010.716683553
40
0.0
41
0.0
42
0.0
210
0.0
220
0.0
230
1.0
0
TEXT
5
DC
330
1C
100
AcDbEntity
67
0
8
пробный
62
7
6
ByLayer
370
-1
48
1.0
60
0
100
AcDbText
1
323,71
10
1394980.90454923
20
360013.381855271
30
0.0
40
0.31111111111
41
1.0
50
0.0
51
0.0
7
Standard
11
1394980.90454923
21
360013.381855271
31
0.0
210
0.0
220
0.0
230
1.0
71
0
72
0
100
AcDbText
73
0
0
LWPOLYLINE
5
DD
330
1C
100
AcDbEntity
67
0
8
пробный
62
7
6
ByLayer
370
20
48
1.0
60
0
100
AcDbPolyline
90
13
70
1
38
0.0
39
0.0
10
1395003.07626478
20
360009.293166764
40
0.0
41
0.0
42
0.0
10
1395003.31579598
20
360010.38807452
40
0.0
41
0.0
42
0.0
10
1395006.75897845
20
360009.634815073
40
0.0
41
0.0
42
0.0
10
1395006.52059748
20
360008.54516506
40
0.0
41
0.0
42
0.0
10
1395013.17807381
20
360007.149472799
40
0.0
41
0.0
42
0.0
10
1395013.76596196
20
360010.901683053
40
0.0
41
0.0
42
0.0
10
1395017.57186429
20
360010.069071975
40
0.0
41
0.0
42
0.0
10
1395017.1233203
20
360008.002783229
40
0.0
41
0.0
42
0.0
10
1395027.42599994
20
360005.766307207
40
0.0
41
0.0
42
0.0
10
1395025.14640365
20
359993.214617995
40
0.0
41
0.0
42
0.0
10
1394993.87844842
20
359999.438156139
40
0.0
41
0.0
42
0.0
10
1394996.49560025
20
360010.727690759
40
0.0
41
0.0
42
0.0
10
1395003.07626478
20
360009.293166764
40
0.0
41
0.0
42
0.0
210
0.0
220
0.0
230
1.0
0
TEXT
5
DE
330
1C
100
AcDbEntity
67
0
8
пробный
62
7
6
ByLayer
370
-1
48
1.0
60
0
100
AcDbText
1
394,11
10
1395010.52859
20
360002.251912541
30
0.0
40
0.31111111111
41
1.0
50
0.0
51
0.0
7
Standard
11
1395010.52859
21
360002.251912541
31
0.0
210
0.0
220
0.0
230
1.0
71
0
72
0
100
AcDbText
73
0
0
LWPOLYLINE
5
DF
330
1C
100
AcDbEntity
67
0
8
пробный
62
7
6
ByLayer
370
20
48
1.0
60
0
100
AcDbPolyline
90
5
70
1
38
0.0
39
0.0
10
1395094.73432496
20
360021.336907004
40
0.0
41
0.0
42
0.0
10
1395100.9662074
20
360046.960001274
40
0.0
41
0.0
42
0.0
10
1395115.17063136
20
360045.874722806
40
0.0
41
0.0
42
0.0
10
1395108.31890838
20
360017.835055705
40
0.0
41
0.0
42
0.0
10
1395094.73432496
20
360021.336907004
40
0.0
41
0.0
42
0.0
210
0.0
220
0.0
230
1.0
0
TEXT
5
E0
330
1C
100
AcDbEntity
67
0
8
пробный
62
7
6
ByLayer
370
-1
48
1.0
60
0
100
AcDbText
1
387,73
10
1395104.24687136
20
360032.849591928
30
0.0
40
0.31111111111
41
1.0
50
0.0
51
0.0
7
Standard
11
1395104.24687136
21
360032.849591928
31
0.0
210
0.0
220
0.0
230
1.0
71
0
72
0
100
AcDbText
73
0
0
VIEWPORT
5
E5
330
E1
100
AcDbEntity
67
1
8
0
62
256
6
ByLayer
370
-1
48
1.0
60
0
100
AcDbViewport
10
0.0
20
0.0
30
0.0
40
297.0
41
210.0
68
1
69
1
12
50.0
22
100.0
13
0.0
23
0.0
14
10.0
24
10.0
15
10.0
25
10.0
16
0.0
26
0.0
36
1.0
17
0.0
27
0.0
37
0.0
42
50.0
43
0.0
44
0.0
45
250.0
50
0.0
51
0.0
72
1000
90
819232
110
0.0
120
0.0
130
0.0
111
1.0
121
0.0
131
0.0
112
0.0
122
1.0
132
0.0
0
ENDSEC
0
SECTION
2
OBJECTS
0
DICTIONARY
5
EA
330
0
100
AcDbDictionary
280
1
281
1
3
ACAD_GROUP
350
12
3
ACAD_LAYOUT
350
E4
3
ACAD_DGNDEFINITIONS
350
F
3
ACAD_DWFDEFINITIONS
350
10
3
ACAD_PDFDEFINITIONS
350
11
3
ACAD_MLINESTYLE
350
B
3
ACAD_IMAGE_DICT
350
E
3
ACAD_IMAGE_VARS
350
21
0
DICTIONARY
5
12
330
EA
100
AcDbDictionary
280
1
281
1
0
DICTIONARY
5
E4
330
EA
100
AcDbDictionary
280
1
281
1
3
Model
350
20
3
Layout1
350
E6
0
DICTIONARY
5
F
330
EA
100
AcDbDictionary
280
1
281
1
0
DICTIONARY
5
10
330
EA
100
AcDbDictionary
280
1
281
1
0
DICTIONARY
5
11
330
EA
100
AcDbDictionary
280
1
281
1
0
DICTIONARY
5
B
330
EA
100
AcDbDictionary
280
1
281
1
3
Standard
350
1B
0
DICTIONARY
5
E
330
EA
100
AcDbDictionary
280
1
281
1
0
DICTIONARY
5
6
330
5
100
AcDbDictionary
280
1
281
1
3
ACAD_LAYERSTATES
360
EB
0
DICTIONARY
5
EB
330
6
100
AcDbDictionary
280
1
281
1
0
LAYOUT
5
20
330
E4
100
AcDbPlotSettings
1

2
none_device
4
ISO_A4_(210.00_x_297.00_MM)
6

40
7.5
41
20.0
42
7.5
43
20.0
44
210.0
45
297.0
46
0.0
47
0.0
48
0.0
49
0.0
140
0.0
141
0.0
142
1.0
143
1.0
70
11952
72
1
73
1
74
1
7

75
0
76
0
77
2
78
300
147
1.0
148
0.0
149
0.0
100
AcDbLayout
1
Model
71
0
10
1394909.07655928
20
359993.039617998
11
1395115.84156358
21
360197.760513971
12
0.0
22
0.0
32
0.0
14
1395115.84156358
24
360197.760513971
34
0.0
15
231.3
25
175.5
35
0.0
146
0.0
13
0.0
23
0.0
33
0.0
16
1.0
26
0.0
36
0.0
17
0.0
27
1.0
37
0.0
76
0
330
1C
0
LAYOUT
5
E6
330
E4
100
AcDbPlotSettings
1

2
none_device
4
ISO_A4_(210.00_x_297.00_MM)
6

40
7.5
41
20.0
42
7.5
43
20.0
44
210.0
45
297.0
46
0.0
47
0.0
48
0.0
49
0.0
140
0.0
141
0.0
142
1.0
143
1.0
70
688
72
1
73
1
74
1
7

75
0
76
0
77
2
78
300
147
1.0
148
0.0
149
0.0
100
AcDbLayout
1
Layout1
71
1
10
-20.0
20
-7.5
11
277.0
21
202.5
12
0.0
22
0.0
32
0.0
14
25.7
24
19.5
34
0.0
15
231.3
25
175.5
35
0.0
146
0.0
13
0.0
23
0.0
33
0.0
16
1.0
26
0.0
36
0.0
17
0.0
27
1.0
37
0.0
76
0
330
E1
0
MLINESTYLE
5
1B
330
B
100
AcDbMlineStyle
2
Standard
70
0
3

62
256
51
90.0
52
90.0
71
2
49
0.5
62
256
6
ByLayer
49
-0.5
62
256
6
ByLayer
0
RASTERVARIABLES
5
21
330
E
100
AcDbRasterVariables
90
0
70
1
71
1
72
0
0
ENDSEC
0
EOF
